<svg width="99" height="97" viewBox="0 0 99 97" fill="none" xmlns="http://www.w3.org/2000/svg">
<g clip-path="url(#clip0_293_19159)">
<path d="M50.5533 95.1915C24.3491 95.1915 3.10645 73.9488 3.10645 47.7447C3.10645 21.5405 24.3491 0.297852 50.5533 0.297852C76.7574 0.297852 98.0001 21.5405 98.0001 47.7447C98.0001 73.9488 76.7574 95.1915 50.5533 95.1915Z" fill="#FFE485"/>
<path d="M50.5533 95.1915C24.3491 95.1915 3.10645 73.9488 3.10645 47.7447C3.10645 21.5405 24.3491 0.297852 50.5533 0.297852C76.7574 0.297852 98.0001 21.5405 98.0001 47.7447C98.0001 73.9488 76.7574 95.1915 50.5533 95.1915Z" stroke="#05276C" stroke-width="2"/>
<path d="M46.8997 30.2398C46.4187 28.9951 45.8119 28.3512 44.9524 27.4529C44.4695 26.9482 43.9032 26.3579 43.3184 25.578C42.7979 24.8838 42.5209 25.0691 42.3575 25.1864C42.0769 25.388 41.6914 25.903 41.5218 26.8311C41.4253 27.3594 41.3325 27.8338 41.2482 28.2647C41.1764 28.6322 41.1116 28.9635 41.0552 29.2722C40.8242 30.5366 40.7552 31.3175 40.9243 32.2248C40.9969 32.6147 40.8917 33.0161 40.6363 33.3236C40.3094 33.7172 39.7616 35.0596 39.3767 37.763C39.2889 38.3793 39.397 39.1267 39.6688 40.0842L39.5847 39.8641L41.2848 43.3582C41.447 43.6916 41.4634 44.0752 41.33 44.4206C41.1967 44.766 40.9252 45.0433 40.5782 45.1883C39.4569 45.6572 37.6308 45.9502 35.2843 46.1434L35.7448 46.0251L31.3539 47.9921L31.5068 47.9119C30.0549 48.7919 30.0032 49.368 30.0413 49.596C30.0796 49.8257 30.2553 50.2066 31.0464 50.4633C33.0781 51.1227 35.1605 51.2695 37.3953 51.4199C37.6044 51.434 37.8168 51.4483 38.0273 51.463C39.6628 51.5769 40.6687 52.7526 40.6966 52.7846C40.8669 52.9791 40.9774 53.2169 41.0153 53.4704C41.2316 54.9178 40.641 57.7497 40.6614 57.6479L40.6867 57.3499C40.6896 57.4505 40.6809 57.5512 40.661 57.6499C40.3046 59.4155 39.627 61.0938 38.9926 62.6695C38.7424 63.2909 38.5356 64.305 38.4139 65.7559C38.2733 67.4309 38.7016 68.5169 39.3582 69.2015L38.8973 68.8847C40.0573 69.3749 41.4822 69.2254 43.3763 67.8429L43.3763 67.8429C43.5481 67.7175 43.7582 67.5719 43.9807 67.4176C44.2995 67.1965 44.6705 66.9391 45.0835 66.6376C46.4742 65.6226 48.323 64.1204 49.9719 62.0393C50.4408 61.4474 51.3112 61.3396 51.9159 61.7986C52.5207 62.2575 52.6308 63.1094 52.1618 63.7013C50.2997 66.0516 48.2341 67.7215 46.7402 68.8118C46.2969 69.1354 45.9014 69.4096 45.583 69.6305C45.3511 69.7913 45.1715 69.916 45.0329 70.0171L45.0329 70.0171C42.6738 71.739 40.1919 72.3861 37.7986 71.3746C37.6244 71.301 37.4676 71.1932 37.3377 71.0578C36.0176 69.6814 35.4643 67.7705 35.652 65.534C35.7808 63.9982 36.0142 62.669 36.4144 61.6751C37.0647 60.0599 37.6427 58.6088 37.9424 57.1243L37.9166 57.4244L37.942 57.1264C37.9645 57.0136 38.404 54.7378 38.2733 53.863L38.5919 54.5489C38.6199 54.5808 38.2621 54.1984 37.8306 54.1684C37.6247 54.154 37.414 54.1398 37.2051 54.1258C35.0201 53.9787 32.5904 53.8218 30.1742 53.0377C28.6052 52.5285 27.5424 51.4482 27.3063 50.033C26.9837 48.0992 28.3481 46.6362 30.0478 45.6061C30.097 45.5762 30.148 45.5495 30.2006 45.5259L34.5916 43.559C34.737 43.4938 34.8928 43.4538 35.0521 43.4407C37.4054 43.247 38.8231 42.9729 39.4895 42.6942L38.7829 44.5243L37.0828 41.0302C37.0483 40.9594 37.0202 40.8858 36.9987 40.8102C36.695 39.7403 36.4651 38.5613 36.632 37.3887C37.0153 34.6969 37.6232 32.6513 38.4861 31.6126L38.1981 32.7115C37.9388 31.3201 38.0788 30.1547 38.3274 28.7947C38.3872 28.4671 38.4554 28.1184 38.5265 27.7549L38.5265 27.7549C38.6107 27.324 38.7009 26.8626 38.794 26.3536C39.049 24.9579 39.7045 23.7278 40.718 22.9999C42.323 21.847 44.2869 22.2855 45.5525 23.9734C46.0282 24.6077 46.4902 25.0922 46.9752 25.5991C47.8635 26.5276 48.8041 27.5012 49.4917 29.2803C49.7624 29.9809 49.4016 30.7635 48.6858 31.0285C47.9701 31.2934 47.1704 30.9403 46.8997 30.2398Z" fill="#05276C"/>
<path d="M53.1528 61.9349C53.2743 62.3359 53.7092 62.9386 57.8194 66.0254C60.592 68.1077 61.7496 67.5015 61.7725 67.4787C61.8931 67.3586 62.0356 67.2615 62.1925 67.1924C62.9577 66.8557 63.3703 66.2919 63.2137 64.6477L63.2137 64.648C63.2141 64.6518 63.214 64.6508 63.2141 64.6514L63.2141 64.6521C63.1658 64.2677 62.5285 62.448 60.7248 59.0007C60.6969 58.9475 60.6727 58.8925 60.6523 58.8361L58.7954 53.7153C58.6607 53.3439 58.6977 52.9336 58.8968 52.5911C59.0959 52.2486 59.4374 52.0078 59.8323 51.9314L66.3621 50.6674L66.357 50.6684C67.0587 50.5299 67.5542 50.3332 67.9489 50.171C69.0356 49.7245 69.5383 49.0898 69.6296 48.0665V48.0664C69.62 48.1733 69.6385 48.232 69.6365 48.2248V48.2247C69.5434 47.8904 68.5187 46.6117 66.708 46.0014C64.5026 45.2581 61.4996 45.3019 57.6416 45.6727C57.1615 45.7188 56.6915 45.5173 56.4007 45.1406C56.1099 44.7639 56.0402 44.2663 56.2166 43.8269C57.8655 39.7219 57.5581 37.8036 56.7881 37.0412C56.4749 36.731 56.3332 36.2922 56.4074 35.8622C56.4816 35.4321 56.7626 35.0632 57.1625 34.8708L57.1625 34.8709C57.1564 34.8738 57.1532 34.8757 57.1535 34.8755L57.1534 34.8756C57.4417 34.7036 58.6426 33.058 58.4727 28.926L58.4727 28.9263C58.4727 28.9251 58.4729 28.9297 58.4728 28.9274L58.4728 28.9279C58.4425 28.3796 57.8843 25.9907 57.5169 25.4965C57.4878 25.4574 57.5912 25.6235 57.863 25.7335L57.8629 25.7334C57.8694 25.7361 57.8728 25.7371 57.8727 25.7371C57.6969 25.683 57.1606 25.7477 56.9522 25.8422C56.9283 25.853 57.0139 25.82 57.1269 25.7198L57.1269 25.7197C55.8785 26.8277 51.6084 31.515 51.5725 31.5544C51.0634 32.1137 50.1876 32.1631 49.6162 31.6649C49.0449 31.1666 48.9944 30.3094 49.5034 29.7502C49.4674 29.7897 53.8753 24.9442 55.2654 23.7106L55.2654 23.7105C55.4547 23.5426 55.6594 23.4392 55.7876 23.3811C56.4063 23.1007 57.6733 22.8329 58.7031 23.1495C58.7745 23.1714 58.8477 23.1971 58.9213 23.2268L58.9212 23.2268C59.3563 23.4027 59.6239 23.7209 59.7576 23.9007C60.6154 25.0544 61.2028 28.1097 61.2399 28.7814L61.2399 28.7819C61.2408 28.7976 61.2409 28.8004 61.2416 28.8166L61.2416 28.8169C61.4165 33.0691 60.2973 36.1766 58.5954 37.1916L58.5953 37.1917C58.5279 37.2319 58.4577 37.2699 58.3848 37.305L58.7591 35.1346C60.8893 37.2441 60.4037 40.816 58.7957 44.8192L57.3708 42.9735C61.2048 42.605 64.7685 42.4792 67.6103 43.437C69.9265 44.2177 71.8902 46.0038 72.31 47.5114L72.31 47.5113C72.3728 47.7364 72.4165 48.008 72.3902 48.3025V48.3024C72.1968 50.4704 70.9151 51.8937 69.0216 52.6718C68.5717 52.8567 67.8767 53.1352 66.9049 53.3271L66.8998 53.3281L60.37 54.5921L61.407 52.8082L63.2638 57.929L63.1913 57.7644C64.9504 61.1264 65.8457 63.3763 65.9645 64.3205L65.9646 64.3212C65.9675 64.3443 65.9705 64.3713 65.9729 64.3956L65.9729 64.396C66.1875 66.6488 65.6099 68.6623 63.329 69.6661L63.749 69.3798C61.9939 71.1277 58.8745 70.2365 56.1324 68.1772C52.3963 65.3713 50.9383 64.1659 50.496 62.7061C50.2784 61.988 50.6968 61.2333 51.4305 61.0204C52.1641 60.8074 52.9352 61.2169 53.1528 61.9349Z" fill="#05276C"/>
<path d="M56.1157 32.077C56.6842 31.6833 57.362 31.7266 57.8665 31.9849C58.012 32.0594 58.3072 32.1871 58.8401 32.4159C58.9038 32.4432 59.0334 32.4989 59.1062 32.5302C59.7775 32.819 60.3363 33.1483 60.7666 33.4961C62.0908 34.5664 62.5703 36.9092 62.6056 37.5597V37.5595C62.6079 37.6012 62.6094 37.6485 62.6092 37.6964V37.6961C62.6006 39.5155 62.4898 40.8323 62.1267 42.0633C61.8263 43.0821 61.3991 44.7803 61.3976 44.7864C61.2147 45.5137 60.4641 45.9582 59.721 45.7792C58.9779 45.6002 58.5238 44.8656 58.7067 44.1383C58.7051 44.1444 59.1458 42.391 59.4643 41.3112C59.7201 40.4435 59.8298 39.4252 59.838 37.6836L59.838 37.6833C59.8379 37.6971 59.8384 37.7042 59.8384 37.7038L59.8384 37.7037C59.8134 37.2443 59.3937 35.9039 59.0021 35.5874C58.8082 35.4307 58.4805 35.2237 57.9911 35.0131C57.929 34.9864 57.7811 34.9229 57.7268 34.8996C57.2474 34.6937 56.8353 34.5178 56.5822 34.3882C56.8323 34.5162 57.2919 34.5849 57.7163 34.2911C57.0916 34.7237 56.2269 34.5787 55.7849 33.9673C55.3429 33.3559 55.491 32.5096 56.1157 32.077Z" fill="#05276C"/>
<path d="M55.8298 23.7776C55.1522 23.7958 54.5771 24.0156 54.1048 24.4369L54.1029 24.437C53.3459 24.4923 52.6315 24.9027 51.9596 25.6682C51.5092 26.1814 51.2235 26.8331 51.1024 27.6233C51.0735 27.8121 51.0529 28.0133 51.0406 28.2268C51.038 28.2722 51.0366 28.3177 51.0363 28.3631C51.0328 28.8411 51.0412 29.3052 51.0613 29.7552L51.0594 29.7554C50.8623 29.7942 50.6631 29.8398 50.462 29.8922C50.4453 29.8966 50.4286 29.9011 50.412 29.9057C50.3433 29.9249 50.2752 29.9454 50.2076 29.967V29.9671C49.9998 30.0335 49.7988 30.1104 49.6045 30.1978V30.1979C48.6322 29.7696 47.6943 29.5383 46.7909 29.504L46.7891 29.5041C46.6514 29.4128 46.511 29.3234 46.3678 29.2358L46.366 29.236C46.1967 28.3001 46.025 27.5943 45.8509 27.1184L45.8509 27.1184C45.6299 26.5144 45.3171 26.0316 44.9127 25.6701L44.9127 25.6702C44.3686 25.1838 43.6537 24.9244 42.9197 24.9441C42.8879 24.945 42.856 24.9464 42.8241 24.9483C42.0568 24.9942 41.3413 25.3427 40.8411 25.914C40.7378 26.032 40.6429 26.1481 40.5563 26.2626L40.5562 26.2626C39.5783 27.5546 39.4513 28.8026 40.1751 30.0067L40.1751 30.0067C40.1952 30.0402 40.2161 30.0732 40.2376 30.1058C40.2566 30.1346 40.2755 30.1634 40.2944 30.1922L40.2926 30.1923C40.2338 30.3286 40.1798 30.4722 40.1305 30.6231L40.1305 30.6232C39.9348 31.2233 39.9019 31.883 40.0321 32.6022L40.0321 32.6022C40.0348 32.6175 40.0377 32.6328 40.0406 32.6482L40.0389 32.6484C39.8304 32.8808 39.6364 33.1562 39.4569 33.4748V33.4749C39.1818 33.9629 39.0269 34.5259 38.9923 35.1638L38.9922 35.1639C38.9795 35.3735 38.9798 35.5863 38.9933 35.8023L38.9933 35.8024C39.0046 35.9845 39.0255 36.1692 39.0559 36.3564L39.0541 36.3565C38.9085 37.0029 38.9604 37.697 39.2099 38.4389L39.21 38.439C39.2184 38.464 39.227 38.4891 39.2359 38.5142L39.2341 38.5144C39.1434 38.8875 39.1305 39.2851 39.2101 39.6862C39.4393 40.8418 40.3692 41.6901 41.4848 41.8909L41.483 41.8911C42.3466 42.8563 43.2835 43.6333 44.2937 44.2221C44.6908 44.4536 45.1252 44.5802 45.5612 44.6079L45.5594 44.608C45.9003 44.7517 46.2473 44.8187 46.6005 44.8092C46.9485 44.7999 47.3024 44.7162 47.6623 44.5581L47.6641 44.5581C48.7507 45.0506 49.7651 45.302 50.7072 45.3123L50.7072 45.3124C50.7657 45.313 50.8239 45.3127 50.8818 45.3116C50.889 45.3114 50.8961 45.3113 50.9032 45.3111C50.915 45.3108 50.9267 45.3104 50.9385 45.3099C51.3749 45.2929 51.79 45.2372 52.1838 45.143C52.2771 45.1207 52.3687 45.0966 52.4588 45.0708L52.4606 45.0708C53.1121 45.2437 53.7482 45.3217 54.3691 45.305C54.8883 45.2911 55.3968 45.2108 55.8947 45.0643L55.8947 45.0642C55.9661 45.0432 56.037 45.0209 56.1074 44.9971L56.1075 44.9971C56.5384 44.8519 56.9491 44.6572 57.3396 44.4128C57.553 44.2793 57.7471 44.1185 57.9168 43.9347C57.9585 43.8896 57.9996 43.8441 58.04 43.7983L58.038 43.7984C59.5718 42.7324 60.2261 41.2605 60.0008 39.3826V39.3827C59.9837 39.2406 59.9609 39.0975 59.9322 38.9533L59.9303 38.9535C59.9475 38.5968 59.9458 38.2301 59.9253 37.8533L59.9248 37.8534C59.8933 37.0228 59.7993 36.2505 59.6429 35.5368L59.6409 35.5369C59.9632 34.5947 60.1415 33.4168 60.1759 32.0033C60.1782 31.9111 60.1757 31.8188 60.1686 31.7268C59.9577 29.0073 59.4252 26.8549 58.571 25.2697C58.1432 24.4756 57.3497 23.9327 56.4408 23.812C56.2286 23.7838 56.025 23.7724 55.8298 23.7776Z" fill="#05276C"/>
<path d="M48.6135 56.3182L48.6144 56.32C48.3971 55.855 47.8368 55.5758 48.1376 55.7673L48.1375 55.7673C48.1393 55.7684 48.1435 55.7711 48.1558 55.7788L48.1559 55.7788C48.4013 55.9322 49.0972 56.3757 49.8821 57.3205C50.1708 57.668 50.459 58.1269 50.6729 58.4642C50.9069 58.8329 51.0621 59.0729 51.1741 59.2076L51.174 59.2076C51.1882 59.2247 51.195 59.2318 51.1959 59.2327L51.196 59.2329C51.2526 59.2916 51.0937 59.0896 50.7473 59.0038C50.7338 59.0004 50.7269 58.9995 50.7273 58.9995C50.9367 59.0294 51.5425 58.8931 51.7506 58.7826L51.7506 58.7825C51.7803 58.7668 51.6814 58.8116 51.5621 58.9352L51.5619 58.9354C51.2437 59.2655 51.2168 59.6701 51.2509 59.4895L51.2509 59.4893C51.2577 59.4531 51.2684 59.3651 51.2915 59.1534L51.2915 59.1534C51.3582 58.5416 51.488 57.2335 52.0389 56.1121C52.2677 55.6464 53.163 54.064 54.0705 53.4084L54.0704 53.4084C54.1385 53.3593 54.2136 53.3097 54.2959 53.2627L54.2959 53.2627C54.8047 52.972 54.972 52.7269 55.0995 52.4604C55.0378 52.5893 55.0661 52.7763 55.0993 52.8439C55.0876 52.8202 55.059 52.7745 54.9358 52.6042L54.9358 52.6043C54.8585 52.4975 54.741 52.3365 54.6311 52.1546C54.7401 52.335 54.96 52.419 55.033 52.4304C55.0212 52.4285 54.9973 52.426 54.8949 52.4195C54.7602 52.4111 54.3517 52.3972 53.9399 52.2299L53.94 52.2299C53.9113 52.2183 53.8725 52.2029 53.822 52.1828C53.7554 52.1564 53.6749 52.1245 53.583 52.0871C53.134 51.9046 52.274 51.5404 51.639 51.0408C50.6782 50.2849 50.3274 49.4146 50.0309 48.7174C49.7758 48.1176 49.5172 47.5137 48.9409 46.7503L48.9409 46.7504C49.64 47.6763 47.7244 45.8099 49.1804 44.7576L49.1801 44.7579C50.3519 43.9105 51.7119 45.4792 51.021 44.8934C51.1802 45.0285 51.3834 45.2326 51.5477 45.4503L51.5476 45.4501C51.5592 45.4655 51.5686 45.4782 51.5803 45.4943L51.5802 45.4942C51.297 45.1034 52.7261 46.6755 51.3522 47.6691L51.3522 47.6692C50.7985 48.0696 50.1833 47.9445 50.0598 47.9212C49.5631 47.8273 49.6509 47.8436 49.4736 47.904C49.4244 47.9208 49.4053 47.9354 49.4058 47.935L49.4059 47.935C49.3907 47.9464 49.483 47.8878 49.5302 47.6867L49.5465 47.6062L49.1655 49.8432C49.1606 49.872 49.1547 49.9007 49.1479 49.9291L49.1479 49.9292C49.1122 50.0787 49.065 50.2413 48.9983 50.4054L48.9984 50.4053C48.9345 50.5627 48.8444 50.7417 48.713 50.9165L48.7129 50.9166C48.2753 51.4987 47.8233 51.9436 47.3775 52.2162L47.3775 52.2162C47.3514 52.2322 47.3224 52.2506 47.2696 52.2839L47.2696 52.284C47.2048 52.325 47.1185 52.3796 47.0201 52.4397C46.6299 52.6784 46.0301 53.0171 45.2353 53.3179L45.2353 53.3178C45.2869 53.2983 45.3133 53.2818 45.3089 53.2844L45.309 53.2844C45.2945 53.293 45.2661 53.3126 45.1798 53.3773L45.1797 53.3774C45.1469 53.4019 45.0898 53.445 45.0327 53.4846L45.0323 53.4849C45.0064 53.5028 44.9744 53.5244 44.937 53.5478L44.9373 53.5476C45.1572 53.4105 45.2175 53.2197 45.2202 53.2094C45.2107 53.2455 45.1938 53.3639 45.1911 53.6911C45.1926 53.5124 45.1363 53.4195 45.1462 53.4384L45.1462 53.4385C45.1921 53.526 45.3725 53.6985 45.4693 53.7464C45.4843 53.7538 45.4185 53.7167 45.2864 53.7005C45.398 53.7142 45.5049 53.735 45.6058 53.7603C47.3453 54.1953 49.2198 56.6563 49.292 56.7526L49.2916 56.7521C49.2994 56.7625 49.308 56.7741 49.3189 56.7893C49.758 57.4026 49.606 58.2483 48.9793 58.6781C48.3526 59.1079 47.4886 58.9591 47.0494 58.3458C47.0544 58.3526 47.0586 58.3583 47.0572 58.3565L47.0568 58.3559C46.7876 57.9964 45.4994 56.533 44.9196 56.388C44.9194 56.388 44.9266 56.3898 44.9407 56.3915C44.6478 56.3555 44.3981 56.2555 44.2191 56.1669C43.6362 55.8786 43.0116 55.3084 42.6802 54.6757L42.6802 54.6758C42.5533 54.4334 42.4166 54.0828 42.42 53.6691V53.669C42.4226 53.3504 42.4329 52.9269 42.5368 52.5323C42.6491 52.1061 42.8996 51.6022 43.4485 51.26L43.4488 51.2599C43.4359 51.2679 43.4285 51.2731 43.43 51.272L43.4297 51.2722C43.4366 51.2675 43.4506 51.2572 43.495 51.2239L43.4949 51.224C43.5609 51.1745 43.7064 51.0638 43.8698 50.9666L43.8699 50.9666C43.9627 50.9113 44.0876 50.8443 44.2361 50.7881L44.2361 50.7881C44.8139 50.5695 45.252 50.3229 45.5517 50.1396C45.6294 50.0921 45.7001 50.0474 45.7651 50.0063L45.765 50.0063C45.8115 49.9769 45.8612 49.9454 45.909 49.9161L45.9091 49.9161C45.9523 49.8897 46.1613 49.7342 46.4809 49.3092L46.4808 49.3093C46.4368 49.3678 46.4217 49.4072 46.4233 49.4033L46.4233 49.4032C46.4248 49.3996 46.4348 49.3735 46.4496 49.3113L46.432 49.3973L46.813 47.1603C46.8176 47.1334 46.823 47.1065 46.8292 47.0799C46.951 46.5608 47.2877 46.1069 47.7194 45.7829L47.7194 45.7828C47.9621 45.6007 48.2445 45.4511 48.5614 45.343C49.4265 45.0478 49.9168 45.1318 50.5853 45.2582C50.6749 45.2751 50.1903 45.1372 49.7054 45.4878L49.7053 45.4879C48.4673 46.3833 49.7911 47.7134 49.3199 47.0634L49.3199 47.0633C49.3188 47.0618 49.3208 47.0645 49.3191 47.0623L49.319 47.0621C49.2911 47.0252 49.2323 46.9652 49.2066 46.9434C48.4001 46.2598 49.6747 47.7724 50.8268 46.9393L50.8266 46.9395C52.2665 45.8988 50.3788 44.0912 51.1696 45.1384L51.1696 45.1385C51.954 46.1774 52.3162 47.0332 52.5892 47.6751C52.8933 48.3898 53.0233 48.65 53.3753 48.927C53.6656 49.1554 54.1816 49.3937 54.6458 49.5823C54.7261 49.615 54.795 49.6423 54.8629 49.6692C54.9102 49.688 54.9606 49.708 55.0027 49.7251L55.0027 49.7251C54.9199 49.6914 54.8619 49.6997 55.0728 49.7129C55.1513 49.7179 55.3067 49.7266 55.4691 49.7519C55.9763 49.831 56.5976 50.0813 57.0161 50.7735C57.0588 50.8442 57.1103 50.9166 57.1969 51.0362L57.197 51.0363C57.2889 51.1632 57.4652 51.4006 57.5973 51.6697C57.8585 52.202 57.9598 52.8772 57.6093 53.61C57.249 54.3636 56.6993 55.0301 55.6928 55.6051L55.6927 55.6051C55.7088 55.596 55.7169 55.5901 55.7162 55.5905L55.7161 55.5906C55.423 55.8023 54.7759 56.7999 54.5364 57.2874C54.2255 57.9203 54.1214 58.7588 54.047 59.4411L54.047 59.4411C54.0295 59.6016 54.0069 59.8181 53.9759 59.9823L53.9759 59.9821C53.9845 59.9369 53.9297 60.4315 53.5774 60.7969L53.5772 60.7971C53.3931 60.9879 53.1851 61.1065 53.0724 61.1664L53.0724 61.1664C52.4938 61.4737 51.2829 61.8194 50.3283 61.6835C50.2449 61.6716 50.1573 61.6553 50.0674 61.6331C49.5916 61.5152 49.2851 61.2028 49.1802 61.094L49.1803 61.0941C49.123 61.0347 49.0712 60.9756 49.0239 60.9187L49.0239 60.9187C48.7747 60.6188 48.5148 60.204 48.3186 59.8948C48.0727 59.507 47.8851 59.2158 47.7319 59.0315C47.2004 58.3916 46.7682 58.1296 46.6641 58.0645L46.6642 58.0645C46.655 58.0588 46.6402 58.0496 46.6266 58.0409L46.6266 58.0409C46.8933 58.2107 46.314 57.9185 46.0941 57.4478C45.7758 56.7689 46.0808 55.9638 46.7762 55.6514C47.4717 55.339 48.2943 55.6375 48.6135 56.3182Z" fill="#05276C"/>
<path d="M46.5453 41.4389C45.9678 41.4545 45.4543 41.8532 45.3278 42.4306L45.2245 42.9019L45.2227 42.902C45.1807 42.9321 45.1406 42.9648 45.1027 42.9997V42.9998C45.002 42.7741 44.8344 42.5794 44.6168 42.4436C44.3258 42.2621 44.0544 42.1747 43.8026 42.1815C43.5158 42.1892 43.2545 42.319 43.0185 42.5711L43.0186 42.5711C42.8353 42.4741 42.6529 42.399 42.4716 42.3457C42.2127 42.2696 41.9639 42.2348 41.7251 42.2412C41.274 42.2534 40.8588 42.4127 40.4795 42.7192C40.2846 42.8768 40.1416 43.0871 40.0686 43.3236C40.0654 43.334 40.0622 43.3443 40.0592 43.3547L40.059 43.3555C39.9793 43.6262 39.9478 43.9022 39.9645 44.1834V44.1835C39.9964 44.7213 40.2014 45.2485 40.5795 45.765L40.5794 45.7651C40.7685 46.0296 40.9882 46.2495 41.2383 46.4248V46.4249C41.2459 46.4301 41.2535 46.4354 41.2611 46.4406L41.2593 46.4408C41.2314 46.4607 41.2029 46.4801 41.1736 46.4989V46.499C41.1114 46.4749 41.0493 46.4519 40.9873 46.4299L40.9855 46.43C40.4779 46.1606 39.909 45.9734 39.2788 45.8683C39.2676 45.8664 39.2563 45.8647 39.245 45.8631C38.3659 45.7401 37.6515 45.686 37.1018 45.7007C36.8154 45.7084 36.5738 45.7348 36.3768 45.7799C36.0236 45.8608 35.7344 46.0061 35.509 46.2158C35.2157 46.4888 35.0713 46.8813 35.1195 47.2746C35.1676 47.6679 35.4027 48.0159 35.7536 48.2133C35.7922 48.235 35.8307 48.2564 35.8694 48.2774L35.8676 48.2775C35.8698 48.3626 35.8771 48.4499 35.8894 48.5394C35.9039 48.6447 35.932 48.7478 35.973 48.8462C36.3996 49.8688 37.2801 50.563 38.6148 50.9287C38.6365 50.9346 38.6584 50.94 38.6805 50.9448C38.7614 50.9626 38.8412 50.9786 38.9198 50.9929L38.918 50.993C39.0503 51.1135 39.1982 51.2302 39.3617 51.3433C39.3673 51.3472 39.3729 51.351 39.3785 51.3547C39.4446 51.3989 39.5117 51.4414 39.58 51.4823L39.5782 51.4824C39.6025 51.5111 39.6275 51.5394 39.6533 51.5674L39.6533 51.5674C39.9803 51.9224 40.4215 52.1986 40.9767 52.396C41.0047 52.406 41.0331 52.415 41.0619 52.423C41.3853 52.5136 41.6984 52.5548 42.0012 52.5466C42.1209 52.5434 42.2389 52.5325 42.3554 52.5138V52.5139C42.7205 52.4554 43.056 52.3242 43.3617 52.1203L43.3617 52.1203C43.4576 52.0563 43.5496 51.9857 43.6377 51.9083L43.6376 51.9084C43.6444 51.9024 43.6511 51.8965 43.6578 51.8906L43.656 51.8908C43.6667 51.8853 43.6774 51.8798 43.688 51.8743C44.0106 51.7057 44.2691 51.4912 44.4636 51.2307L44.4654 51.2308C44.6481 51.312 44.845 51.3498 45.056 51.3441C45.2473 51.3389 45.4502 51.2981 45.6647 51.2215L45.6648 51.2216C45.7911 51.1765 45.9133 51.1162 46.0312 51.0408C46.1612 50.9577 46.2744 50.8524 46.3656 50.7301L46.3638 50.7303C46.6602 50.5622 46.9212 50.3447 47.1469 50.0778L47.1468 50.0779C47.2404 49.9694 47.3221 49.8609 47.3919 49.7521C47.8275 49.0743 47.8786 48.4678 47.5451 47.9328L47.5432 47.933C47.8839 47.6197 48.1367 47.3199 48.3014 47.0337C48.4616 46.7554 48.5516 46.4752 48.5714 46.1932L48.5695 46.1933L49.1876 45.6226L49.1877 45.6227C49.2637 45.5534 49.3295 45.4892 49.385 45.43C49.918 44.8618 49.9824 44.2923 49.5782 43.7215L49.5782 43.7214C49.3284 43.3687 48.9162 43.1702 48.4892 43.1817C48.4042 43.184 48.3185 43.1946 48.2335 43.214L47.7551 43.3231V43.3232L47.8353 42.9568C47.9838 42.2791 47.5428 41.6119 46.8504 41.4666C46.7479 41.4451 46.6456 41.4362 46.5453 41.4389Z" fill="#05276C"/>
<path d="M41.2791 43.8417C41.2753 43.8418 41.2715 43.8419 41.2677 43.8421C40.9124 43.8538 40.578 44.0093 40.3444 44.2716C40.1957 44.4385 40.0762 44.6409 39.986 44.8788L39.986 44.8789C39.9429 44.9927 39.9054 45.117 39.8737 45.2519V45.2519C39.8587 45.3156 39.8488 45.3804 39.8441 45.4456C39.806 45.9745 39.7431 46.3512 39.6554 46.5755C39.6489 46.5921 39.6428 46.6088 39.637 46.6256C39.5357 46.9215 39.4208 47.137 39.2922 47.2721C39.2721 47.2933 39.2527 47.3151 39.2342 47.3376C39.1482 47.4414 39.0277 47.5356 38.8724 47.62L38.8724 47.6201C38.708 47.4172 38.5035 47.2169 38.2591 47.0193L38.2573 47.0195C38.2546 46.9854 38.2504 46.9512 38.2448 46.9169C38.1415 46.2884 37.5781 45.8444 36.9452 45.8614C36.889 45.863 36.8322 45.8681 36.7752 45.8771C36.4204 45.9329 36.0875 46.0022 35.7765 46.0849V46.085C35.3616 46.0166 34.9476 45.988 34.5342 45.9991C33.7773 46.0195 33.023 46.173 32.2714 46.4597C32.1785 46.4951 32.0901 46.541 32.0081 46.5965C31.5591 46.9001 31.2953 47.2562 31.2167 47.6647L31.2151 47.6649C31.0347 47.9387 30.9652 48.2593 31.0068 48.6266C31.0547 49.0497 31.2722 49.4214 31.6595 49.7419L31.6596 49.742C31.9215 49.9587 32.2993 50.1746 32.7927 50.3898L32.7911 50.3899C32.9493 50.4946 33.1302 50.5786 33.3336 50.6421C33.4048 50.6643 33.4818 50.6842 33.5646 50.7016L33.5629 50.7017C33.5687 50.7041 33.5746 50.7065 33.5805 50.709C33.5853 50.711 33.5902 50.713 33.5951 50.7149L33.5934 50.7151C33.8224 50.8557 34.0957 50.9867 34.4132 51.1083C34.4401 51.1186 34.4673 51.128 34.4948 51.1364C35.0822 51.3176 35.6769 51.4001 36.2789 51.3839C36.4973 51.3781 36.7165 51.3592 36.9368 51.3274C37.0139 51.3162 37.0899 51.2982 37.1637 51.2735C37.8512 51.0439 38.3752 50.7611 38.7359 50.4253C38.7834 50.381 38.8285 50.3363 38.871 50.291L38.8693 50.2911C39.1155 50.2243 39.3473 50.148 39.5645 50.0622L39.5663 50.0622C39.5679 50.0878 39.5699 50.1135 39.5723 50.1393V50.1394C39.6107 50.5505 39.7603 51.0011 40.021 51.491L40.0198 51.4911C40.0529 51.5572 40.0907 51.6237 40.1333 51.6907L40.1333 51.6907C40.3104 51.9689 40.6095 52.3006 41.0307 52.6858L41.0289 52.6859L40.4075 55.8787C40.3959 55.9382 40.3888 55.9984 40.3861 56.0588C40.3572 56.707 40.3298 57.229 40.3039 57.6247L40.3022 57.6248C40.2434 57.8107 40.226 58.0116 40.2502 58.2275L40.2484 58.2276C40.2289 58.3486 40.2104 58.4702 40.1928 58.5925L40.191 58.5926C39.7493 58.9971 39.6655 59.5666 39.9396 60.3013L39.9396 60.3014C39.9543 60.3408 39.9704 60.3807 39.9878 60.4213L39.9861 60.4214C39.9318 60.6142 39.8808 60.7986 39.8332 60.9745L39.8315 60.9747C39.7958 61.0628 39.7721 61.1561 39.7602 61.2547L39.7584 61.2549C39.6982 61.4833 39.6442 61.6959 39.5966 61.8928L39.5948 61.8929C39.5498 61.9086 39.505 61.9254 39.4605 61.9433C39.4059 61.9652 39.3529 61.9908 39.3019 62.0199C39.2362 62.0573 39.1736 62.0963 39.114 62.137V62.1371C38.2286 62.7413 37.9805 63.4813 38.3699 64.3571L38.3681 64.3573C38.3365 64.3946 38.3069 64.4341 38.2795 64.4756C37.888 65.0686 37.8762 65.7059 38.2443 66.3874L38.2443 66.3875C38.2756 66.4453 38.3099 66.5031 38.3472 66.5612L38.3455 66.5613C38.3908 66.8308 38.4955 67.0965 38.6596 67.3582L38.6597 67.3583C38.7077 67.435 38.7608 67.5104 38.819 67.5847C38.8487 67.6227 38.8806 67.659 38.9146 67.6934C39.1149 67.8963 39.3105 68.0593 39.5014 68.1826L39.5014 68.1826C39.8919 68.4346 40.2615 68.5559 40.6103 68.5465C40.982 68.5365 41.33 68.3782 41.6543 68.0715C41.7332 67.9969 41.8049 67.9146 41.8695 67.8246L41.8677 67.8247C42.1815 67.7379 42.4704 67.6302 42.7344 67.5014L42.7362 67.5015C42.7562 67.5054 42.7763 67.509 42.7965 67.5121C42.9847 67.5412 43.1663 67.5534 43.3414 67.5487C43.3678 67.548 43.394 67.5469 43.4201 67.5454C44.331 67.4939 44.9656 67.0575 45.3239 66.2363V66.2364C45.3383 66.2033 45.3521 66.1697 45.3652 66.1357C45.3676 66.1296 45.37 66.1234 45.3722 66.1171L45.3704 66.1173C45.5557 66.0959 45.7272 66.0613 45.885 66.0135C46.5112 65.8237 46.9399 65.4723 47.1711 64.9595L47.1693 64.9596C47.6583 64.8217 48.044 64.5254 48.3264 64.0706C48.4073 63.9403 48.4753 63.7997 48.5305 63.6487L48.5306 63.6486C48.5606 63.5665 48.5868 63.4813 48.6092 63.3931C48.6296 63.3123 48.6418 63.2297 48.6456 63.1466C48.65 63.0497 48.652 62.9538 48.6516 62.8589L48.6497 62.8591C48.8057 62.7317 48.9366 62.5708 49.0426 62.3763L49.0427 62.3762C49.0783 62.3108 49.109 62.2431 49.135 62.1729C49.1905 62.0228 49.2163 61.8637 49.2108 61.7041C49.1749 60.6436 48.7956 59.6748 48.0732 58.7975V58.7976C47.995 58.6973 47.8612 58.5475 47.6718 58.3483L47.67 58.3485C47.5765 57.5371 47.1732 56.7731 46.4603 56.0565L46.4585 56.0566C45.6812 55.155 44.6148 54.6856 43.2594 54.6485L43.2576 54.6486L43.6156 52.8089C43.6394 52.6866 43.6445 52.5615 43.6307 52.4377C43.61 52.2523 43.5749 52.0791 43.5256 51.9182V51.9182C43.4435 51.6506 43.3221 51.4158 43.1612 51.2137C43.1125 51.1525 43.058 51.0958 42.9986 51.0444C42.6396 50.7341 42.4147 50.514 42.3237 50.384L42.3219 50.3841C42.3135 50.3663 42.3047 50.3488 42.2955 50.3314C42.1903 50.1339 42.1339 49.9937 42.1262 49.9109L42.1274 49.9109C42.13 49.8024 42.1434 49.7014 42.1678 49.6081L42.1666 49.6083C42.5882 48.4199 42.9072 47.6205 43.1237 47.2101C43.1487 47.1628 43.1705 47.114 43.1892 47.0639C43.283 46.8118 43.3253 46.5408 43.3159 46.2507V46.2506C43.3139 46.1865 43.3093 46.1216 43.3021 46.0557C43.2937 45.9777 43.2777 45.9007 43.2546 45.8257C43.1017 45.3299 42.9292 44.9399 42.7372 44.6558C42.3596 44.0971 41.8735 43.8257 41.2791 43.8417Z" fill="#05276C"/>
<path d="M52.3605 42.7949C51.9624 42.8056 51.5751 42.9971 51.3342 43.3441C49.8873 45.4277 50.8216 47.679 54.1369 50.098C54.3752 50.2719 54.6583 50.3539 54.9385 50.3464C55.0835 50.3425 55.2279 50.3146 55.3648 50.2629L55.3667 50.263C56.0248 51.3925 56.8529 52.123 57.8511 52.4546C57.9457 52.486 58.0436 52.5065 58.1432 52.5157C58.15 52.5163 58.1568 52.5169 58.1637 52.5175L58.1637 52.5175C58.2924 52.5283 58.4148 52.5322 58.5311 52.5291C59.5071 52.5028 60.0438 51.9842 60.141 50.9731V50.9732C60.1473 50.9082 60.1504 50.842 60.1505 50.7744L60.1503 50.7745C60.1509 50.7332 60.1508 50.6909 60.1501 50.6474L60.1521 50.6475C60.2332 50.6734 60.3141 50.6947 60.3949 50.7115L60.3946 50.7116C60.4612 50.7259 60.5273 50.7376 60.5927 50.7467C60.757 50.7695 60.9137 50.779 61.0628 50.775C61.8638 50.7534 62.445 50.3437 62.8063 49.5457V49.5458C62.8342 49.4842 62.86 49.4206 62.8836 49.355C62.9224 49.2474 62.946 49.1353 62.9538 49.0215C63.0915 47.0189 62.1438 45.3726 60.111 44.0825C59.8849 43.939 59.6298 43.8742 59.3793 43.8809C58.9716 43.8919 58.5761 44.0926 58.3375 44.4528C58.3309 44.4627 58.3245 44.4728 58.3182 44.4828L58.3162 44.483C58.1953 44.4967 58.0815 44.5185 57.9749 44.5484V44.5485C57.643 44.3119 57.2525 44.1997 56.8036 44.2118C56.7548 44.2131 56.7054 44.2159 56.6552 44.2201C56.6261 44.2226 56.5972 44.226 56.5686 44.2303V44.2304C56.2844 44.0711 55.9962 43.9572 55.7042 43.8889C55.6182 43.8687 55.5304 43.8574 55.4422 43.8549L55.4402 43.8551C55.0956 43.5206 54.7064 43.2548 54.2726 43.0578C54.2043 43.0268 54.1334 43.0017 54.0606 42.9829C53.854 42.9294 53.6592 42.9051 53.4763 42.91C53.3305 42.914 53.1922 42.9365 53.0614 42.9775V42.9776C52.8436 42.8475 52.6001 42.7885 52.3605 42.7949Z" fill="#05276C"/>
<path d="M63.668 45.3309C63.5102 45.3351 63.3591 45.35 63.2147 45.3755V45.3756C63.065 45.3591 62.9189 45.3528 62.7762 45.3566C62.212 45.3718 61.703 45.5456 61.2493 45.8779C61.2371 45.8869 61.2251 45.8959 61.2132 45.9053C61.1494 45.9556 61.0888 46.0079 61.0315 46.0622L61.0315 46.0622C60.4611 46.6024 60.2376 47.2562 60.3611 48.0235C60.4033 48.2855 60.4896 48.5514 60.62 48.8213L60.62 48.8214C60.9244 49.4608 61.5538 50.0629 62.5081 50.6278C62.5325 50.6422 62.5573 50.6558 62.5827 50.6686C63.1788 50.9704 63.7675 51.1302 64.3487 51.1479L64.3467 51.148C64.3989 51.1531 64.4504 51.1566 64.501 51.1586C64.5723 51.1615 64.6416 51.162 64.709 51.1602C65.1492 51.1484 65.5098 51.0367 65.7909 50.8252L65.7888 50.8254C65.8057 50.8163 65.8225 50.8071 65.8391 50.7978L65.8411 50.7978C66.441 51.0567 67.0003 51.1791 67.5191 51.1652C67.5573 51.1642 67.5952 51.1624 67.6328 51.1599L67.6319 51.16C67.6581 51.1584 67.6841 51.1564 67.7097 51.1541C68.6076 51.0736 69.1522 50.6437 69.3435 49.8644C69.3556 49.8149 69.3646 49.7648 69.3705 49.7144C69.3775 49.6555 69.3822 49.596 69.3848 49.5361V49.5359C69.4078 48.9975 69.256 48.4379 68.9293 47.8572L68.9286 47.8573C68.6527 47.3342 68.3221 46.9005 67.9369 46.5564L67.9348 46.5565C67.8291 46.4503 67.7016 46.3528 67.5526 46.2641L67.5525 46.2641C67.2989 46.1131 66.9093 45.9488 66.3839 45.7711C66.2336 45.7202 66.0802 45.6984 65.9301 45.7024C65.8061 45.7057 65.6844 45.7268 65.5684 45.7638V45.7639C65.5203 45.738 65.471 45.7126 65.4206 45.6878C65.3887 45.6721 65.3562 45.6577 65.3231 45.6446C64.9174 45.4845 64.5075 45.3843 64.0932 45.344C64.0849 45.3431 64.0764 45.3424 64.068 45.3417C63.9302 45.331 63.7969 45.3274 63.668 45.3309Z" fill="#05276C"/>
<path d="M58.0063 52.6007C57.5619 52.6127 57.1544 52.7513 56.7836 53.0165C56.7792 53.0197 56.7748 53.0229 56.7704 53.0261C56.1287 53.4976 55.6861 53.8914 55.4424 54.2074V54.2075C55.296 54.3972 55.1925 54.5899 55.1318 54.7855L55.1299 54.7857C54.8755 55.444 54.5218 56.1689 54.0689 56.9602C54.0323 57.0242 54.0015 57.0912 53.9768 57.1605C53.7486 57.8013 53.4891 58.4198 53.1982 59.016C53.1663 59.0815 53.1402 59.1496 53.1203 59.2195C52.8062 60.3215 52.639 61.0752 52.6189 61.4805V61.4806C52.6074 61.7111 52.6333 61.9197 52.6967 62.1062L52.6948 62.1064C52.8417 62.791 53.2097 63.1569 53.7988 63.2042L53.7969 63.2044C53.7884 63.4166 53.7965 63.6034 53.821 63.765V63.7651C53.8269 63.8043 53.8337 63.8427 53.8414 63.8804C53.8452 63.899 53.8494 63.9176 53.8541 63.936C54.0608 64.7564 54.4992 65.1576 55.1692 65.1396C55.3017 65.136 55.4433 65.1161 55.5939 65.0797C55.7833 65.034 55.9584 64.9522 56.1191 64.8342L56.1211 64.8342C56.3349 65.4557 56.7856 65.7572 57.4729 65.7387C57.5804 65.7358 57.6936 65.7251 57.8126 65.7066C57.8993 65.6931 57.9873 65.6731 58.0765 65.6466L58.0784 65.6467C58.1111 65.8036 58.1537 65.9605 58.2062 66.1176C58.2472 66.2405 58.3074 66.3566 58.3847 66.4615C58.7515 66.9597 59.1566 67.2028 59.6001 67.1908C59.6687 67.189 59.7383 67.181 59.8088 67.167L59.8108 67.167C59.8327 67.1874 59.8531 67.2059 59.8722 67.2226C60.1408 67.458 60.4314 67.5846 60.7442 67.6022V67.6023C60.8115 67.606 60.8764 67.607 60.9387 67.6053C61.2323 67.5974 61.4707 67.529 61.6541 67.4L61.6521 67.4001C61.9228 67.2491 62.1509 67.0105 62.3365 66.6845L62.336 66.6846C62.6289 66.1936 62.8134 65.7546 62.8895 65.3676C62.8938 65.3457 62.8975 65.3238 62.9006 65.3018L63.1575 63.4785C63.1743 63.3593 63.1735 63.2385 63.1551 63.1196C63.0711 62.5751 62.9459 62.14 62.7797 61.8141L62.7797 61.814C62.7329 61.7222 62.682 61.6366 62.627 61.557V61.5571C62.457 61.3111 62.2759 61.1204 62.0839 60.9851L62.0819 60.9853C62.0856 60.9583 62.0885 60.9313 62.0904 60.9043C62.1245 60.4315 62.0684 60.0042 61.9223 59.6226L61.9223 59.6226C61.7587 59.1953 61.4938 58.8443 61.1277 58.5696L61.1277 58.5697C61.0806 58.5343 61.0311 58.5022 60.9795 58.4736C60.9394 58.4514 60.8987 58.4309 60.8572 58.4123L60.8553 58.4125C61.0302 57.6085 60.784 57.0268 60.1166 56.6674C59.9166 56.5596 59.691 56.5062 59.4632 56.5124C59.4513 56.5127 59.4393 56.5132 59.4274 56.5138C59.4039 56.5151 59.3804 56.5167 59.357 56.5186V56.5187C59.3737 56.4789 59.3884 56.442 59.4011 56.408V56.4081C59.4199 56.3575 59.436 56.3091 59.4493 56.263L59.4493 56.2629C59.6512 55.5644 59.4899 55.0742 58.9654 54.7924L58.9634 54.7925C59.2147 54.5732 59.3779 54.2581 59.3916 53.9029C59.4183 53.2103 58.8662 52.6276 58.1586 52.6015C58.1073 52.5996 58.0566 52.5993 58.0063 52.6007Z" fill="#05276C"/>
<path d="M37.9144 45.6169C37.4057 45.9856 36.8339 46.0623 36.3435 46.0136C36.3198 46.0112 36.2958 46.0085 36.2723 46.0056L36.2724 46.0056C35.9058 45.96 35.4981 46.1083 34.7026 46.4748C34.2325 46.6915 33.3687 47.1237 32.4724 47.099L32.4631 47.0987L32.463 47.0987L32.5114 45.7434L32.4723 47.0989C32.3857 47.0966 32.2974 47.0901 32.2077 47.079C32.1232 47.0684 32.0382 47.0538 31.9524 47.0345C31.8175 47.0042 31.688 46.9542 31.5682 46.8863L29.7808 45.8728L30.4088 46.0539C30.3736 46.0523 30.3432 46.0506 30.3199 46.0493L30.32 46.0493C30.2989 46.0482 30.2869 46.0475 30.276 46.047C30.2663 46.0465 30.263 46.0465 30.2625 46.0465C30.271 46.0467 30.2858 46.0461 30.2934 46.0454C30.2911 46.0456 30.2674 46.0481 30.1987 46.0596C30.0814 46.0792 29.9032 46.1025 29.7248 46.126C29.3497 46.1755 28.8166 46.2459 28.2019 46.3489C26.8681 46.5723 25.3161 46.9242 24.26 47.4528C24.2752 47.4452 24.301 47.4234 24.3149 47.4069L24.3147 47.4071C24.3162 47.4053 24.3121 47.4102 24.3137 47.4082L24.3141 47.4077C23.9806 47.817 23.8428 48.2176 23.833 48.6602C23.8258 48.9853 23.9413 49.3841 24.4893 49.7739C24.8248 50.0126 25.184 50.0982 25.7425 50.2092C25.8682 50.2342 26.0175 50.2637 26.1638 50.298L25.8553 50.2608C26.3066 50.2654 27.1203 50.2995 29.5136 50.7386C29.9152 50.8123 29.9804 50.8224 30.0115 50.8252C30.0104 50.8251 30.0078 50.8249 30.0066 50.8249C30.0126 50.8251 30.0241 50.8252 30.1026 50.8237C30.2514 50.8209 30.4787 50.8169 30.9098 50.8286L30.8444 50.8283L34.3752 50.7609L34.0781 50.7983C34.2322 50.762 34.3718 50.7529 34.4507 50.7493C34.7303 50.7365 35.1642 50.7655 35.5946 50.7919C35.7517 50.8015 35.9206 50.8119 36.1064 50.8226C36.1214 50.8235 36.1281 50.8225 36.1274 50.8226C36.125 50.8229 36.1153 50.8249 36.1014 50.8307L35.281 52.2947L34.7462 49.0826C34.7316 48.9949 34.7258 48.9059 34.729 48.817V48.8168C34.7338 48.6835 34.7541 48.5646 34.7718 48.4787L34.7717 48.4788C34.9105 47.8053 35.5623 46.2924 36.5148 44.1832V44.1832C36.7376 43.6899 37.4698 43.0287 38.4263 43.4424L38.4262 43.4424C38.8678 43.6334 39.134 44.0444 39.0694 43.9606L39.0694 43.9605C39.2717 44.223 38.9777 43.7535 38.5519 43.5692L38.5513 43.5689C38.0105 43.3352 37.1034 43.4323 36.7288 44.2578L36.7274 44.2609C36.4793 44.8112 36.7396 45.4553 36.6429 45.0875L36.6429 45.0877C36.6421 45.0848 36.6393 45.0744 36.632 45.0491L36.632 45.0492C36.952 46.1451 38.1985 45.908 37.7177 45.9284C37.6974 45.9293 37.6557 45.9339 37.54 45.9499C37.6428 45.9357 37.0695 46.0555 36.6301 45.9177L36.6299 45.9177L36.6225 45.9153L36.6226 45.9154L36.5948 45.9067L36.5678 45.8982L36.5678 45.8982C35.9989 45.7199 35.823 45.6676 35.7518 45.6536C35.7604 45.6553 35.9975 45.7 36.2844 45.5882C36.1544 45.6388 36.0174 45.6699 35.8779 45.6804L33.2341 45.8787L30.7037 46.0686L30.8646 46.0471C30.2542 46.1644 29.763 46.2491 29.3749 46.3161C29.1084 46.3621 28.9035 46.3975 28.7347 46.43C28.5395 46.4675 28.4405 46.4922 28.3907 46.5078C27.662 46.7365 26.8819 46.3437 26.6483 45.6305C26.4147 44.9173 26.816 44.1537 27.5447 43.9251C27.7535 43.8596 27.9812 43.8108 28.2011 43.7685C28.4015 43.73 28.6361 43.6896 28.8936 43.6451C29.2808 43.5783 29.7484 43.4976 30.331 43.3857C30.3842 43.3755 30.4379 43.3683 30.4919 43.3643L33.0223 43.1744L35.6661 42.9761L35.2597 43.0683C35.6705 42.9082 36.0391 42.9437 36.2974 42.9945C36.5637 43.0468 36.9407 43.1672 37.413 43.3152L37.413 43.3152L37.44 43.3237L37.4678 43.3324L37.468 43.3325L37.4755 43.3348L37.4753 43.3348C37.1313 43.2269 36.7853 43.3152 37.1514 43.2645C37.2368 43.2527 37.4173 43.2265 37.5973 43.2188C37.4223 43.2262 38.9239 43.028 39.2965 44.3039L39.2965 44.3039C39.3066 44.3388 39.3172 44.3758 39.3264 44.4109L39.3265 44.4111C39.2489 44.1165 39.5152 44.7958 39.2627 45.3557L39.2613 45.3588C38.8853 46.1874 37.9759 46.2851 37.4319 46.05L37.4312 46.0497C36.9949 45.8609 36.6811 45.3657 36.8574 45.5944L36.8574 45.5943C36.7431 45.4461 36.9372 45.7636 37.306 45.9231L37.306 45.9231C38.2029 46.3111 38.8751 45.6657 39.0495 45.2796L39.0495 45.2797C38.0213 47.5563 37.5507 48.7118 37.4882 49.015L37.4882 49.0151C37.4865 49.0234 37.4959 48.9828 37.4985 48.9123L37.4813 48.6464L38.0161 51.8585C38.1184 52.473 37.78 53.0767 37.1957 53.3225C37.0129 53.3994 36.7765 53.4745 36.4901 53.5115C36.3204 53.5334 36.1376 53.5414 35.943 53.5301C35.7507 53.519 35.5785 53.5084 35.4211 53.4988C34.8922 53.4663 34.6654 53.4547 34.5801 53.4586C34.563 53.4593 34.6273 53.4586 34.7263 53.4353C34.629 53.4582 34.5294 53.4707 34.4292 53.4726L30.8984 53.54C30.8766 53.5404 30.8548 53.5403 30.8331 53.5397C30.4573 53.5295 30.2752 53.5332 30.156 53.5354C30.097 53.5366 30.0084 53.5386 29.9163 53.5357C29.865 53.534 29.8133 53.531 29.7588 53.5261C29.5624 53.5085 29.3282 53.464 29.003 53.4044C26.6937 52.9806 26.0544 52.9751 25.8263 52.9728C25.7224 52.9718 25.6189 52.9593 25.5178 52.9355C25.4273 52.9143 25.3266 52.8941 25.1911 52.8672C24.657 52.761 23.7386 52.5928 22.8601 51.9679C21.5879 51.063 21.0354 49.8277 21.0625 48.6015C21.0857 47.5499 21.4449 46.5789 22.1477 45.7165L22.1481 45.716C22.1536 45.7092 22.1647 45.6959 22.1706 45.6888L22.1704 45.689C22.3252 45.5039 22.5835 45.2456 22.9982 45.038C24.4571 44.3078 26.3699 43.9041 27.7344 43.6755C28.4019 43.5637 28.9779 43.4878 29.3548 43.4381C29.5618 43.4108 29.6756 43.3956 29.7311 43.3863C29.8294 43.3698 29.9277 43.3552 30.0262 43.3458C30.1363 43.3354 30.2324 43.3328 30.3264 43.335C30.3571 43.3357 30.3851 43.3368 30.4091 43.3379L30.409 43.3379C30.4325 43.339 30.456 43.3403 30.4744 43.3413L30.4744 43.3413C30.4983 43.3426 30.5185 43.3437 30.5419 43.3448C30.763 43.3552 30.9783 43.4173 31.1699 43.526L32.9574 44.5395L32.5732 44.3913C32.5669 44.3898 32.5613 44.3889 32.5574 44.3884C32.553 44.3879 32.5506 44.3878 32.5506 44.3878L32.5114 45.7434L32.5598 44.3881L32.5599 44.3881L32.5506 44.3878C32.6462 44.3905 32.8508 44.3303 33.5222 44.021C34.1689 43.723 35.32 43.153 36.622 43.3151L36.6221 43.3151C36.6227 43.3152 36.6233 43.3152 36.6232 43.3152C36.6139 43.3143 36.4455 43.3066 36.2652 43.4372C36.8802 42.9915 37.7479 43.1181 38.2033 43.72C38.6587 44.3219 38.5293 45.1711 37.9144 45.6169Z" fill="#05276C"/>
<path d="M39.3943 57.262C38.9947 57.6866 38.7073 58.144 38.5322 58.634L38.596 58.3777C38.4362 59.4756 36.9482 63.4737 34.132 70.372L34.1755 70.2486L33.4098 72.8171C33.4025 72.8416 33.3945 72.866 33.3857 72.8902C33.2337 73.3102 33.2152 74.16 33.3304 75.4396L33.2936 75.2269C33.3845 75.5795 33.7559 76.1016 34.4076 76.7932L34.0668 76.5297C35.7711 77.4649 37.4536 77.2693 39.114 75.9427L39.0555 75.9923L42.5315 72.8833L42.3078 73.1403L44.5712 69.7647C44.5878 69.7399 44.6052 69.7157 44.6234 69.6921L48.9266 64.1085C49.3874 63.5106 50.2562 63.3915 50.8672 63.8425C51.4781 64.2935 51.5998 65.1439 51.139 65.7418L46.8358 71.3254L46.888 71.2528L44.6246 74.6284C44.5612 74.7228 44.4861 74.8092 44.4009 74.8854L40.9249 77.9944C40.9059 78.0114 40.8863 78.0279 40.8663 78.0439C38.2314 80.1489 35.5131 80.4328 32.7116 78.8955C32.5845 78.8258 32.4695 78.7369 32.3707 78.6321C31.4005 77.6027 30.8124 76.6887 30.6066 75.8903C30.5886 75.8205 30.5763 75.7493 30.5699 75.6776C30.4195 74.0062 30.4874 72.7751 30.7737 71.9844L30.7496 72.0575L31.5152 69.489C31.5276 69.4472 31.5421 69.406 31.5587 69.3656C34.2927 62.6687 35.724 58.8786 35.8525 57.9953C35.8652 57.908 35.8866 57.8221 35.9163 57.7389C36.2176 56.8956 36.6975 56.1241 37.3562 55.4243C37.8747 54.8735 38.7513 54.8383 39.3141 55.3458C39.8769 55.8532 39.9128 56.7112 39.3943 57.262Z" fill="#05276C"/>
<path d="M27.5345 48.7652C27.0846 48.9305 26.7992 49.0321 26.6783 49.0698L26.6783 49.0697C26.5934 49.0962 26.5141 49.1154 26.4404 49.1271L26.7084 49.0569C26.6334 49.0846 26.5515 49.1166 26.4625 49.1529C26.4328 49.165 26.4027 49.1761 26.3722 49.1862C26.4617 49.1567 26.5302 49.1242 26.5776 49.0888L26.5777 49.0887C26.5729 49.0923 26.5657 49.0982 26.5561 49.1066L26.6492 49.018C27.2323 48.4086 27.2186 47.824 26.6081 47.2644L26.608 47.2643C26.5476 47.2089 26.494 47.1697 26.4474 47.1465L26.4475 47.1466C26.45 47.1478 26.4539 47.1496 26.4594 47.152L26.3568 47.1116C26.3206 47.099 26.2758 47.0929 26.2226 47.0933C26.2654 47.093 26.3081 47.0946 26.3506 47.0981C25.935 47.0638 25.5985 47.1862 25.3411 47.4653C25.8538 46.9093 26.7299 46.8654 27.298 47.3673C27.8661 47.8691 27.9109 48.7266 27.3982 49.2826C27.0418 49.669 26.6151 49.8417 26.1179 49.8007L26.2459 49.8054C25.9718 49.8077 25.6987 49.7614 25.4266 49.6665C25.3919 49.6544 25.3577 49.6409 25.324 49.6261C25.2787 49.6062 25.2352 49.5859 25.1937 49.5653L25.1938 49.5653C25.0055 49.4719 24.8455 49.3647 24.7138 49.244L24.7137 49.2439C23.9759 48.5676 23.9469 47.8743 24.6266 47.164C24.6562 47.1331 24.6873 47.1035 24.7197 47.0754C24.7797 47.0234 24.8388 46.9757 24.8969 46.9323L24.8969 46.9323C25.0915 46.787 25.2883 46.6816 25.4874 46.6159L25.397 46.6492C25.514 46.6015 25.6242 46.5585 25.7276 46.5202C25.8143 46.4881 25.904 46.4646 25.9955 46.45C25.9347 46.4597 25.8819 46.4716 25.837 46.4856L25.837 46.4856C25.9133 46.4618 26.1545 46.3753 26.5605 46.2261C27.2769 45.9628 28.0757 46.3178 28.3447 47.019C28.6137 47.7201 28.251 48.502 27.5345 48.7652Z" fill="#05276C"/>
<path d="M53.3168 63.2504C54.3357 65.0516 55.2631 66.358 56.099 67.1697L56.0618 67.1349L64.6571 74.8827L64.6249 74.8546C66.1295 76.1283 67.5492 76.0628 68.884 74.6579L68.7649 74.8018C69.5467 73.7126 69.1788 71.3168 67.6611 67.6145L67.6638 67.621C65.9976 63.6166 64.665 60.7419 63.6659 58.9968C63.6446 58.9597 63.6252 58.9216 63.6076 58.8827C63.2559 58.105 62.329 56.7756 60.8269 54.8946C60.7941 54.8535 60.7638 54.8106 60.736 54.7661C60.6134 54.5695 60.5174 54.3883 60.4482 54.2224L60.4482 54.2225C60.3551 53.9996 60.302 53.7847 60.2889 53.5778C60.2415 52.8303 60.8223 52.1867 61.586 52.1403C62.3498 52.094 63.0074 52.6623 63.0548 53.4099C63.0491 53.32 63.0353 53.2488 63.0135 53.1965L63.0135 53.1966C63.0266 53.2281 63.0559 53.2802 63.1012 53.3528L63.0103 53.2244C64.6535 55.2821 65.6973 56.8024 66.1417 57.7851L66.0834 57.671C67.1387 59.5142 68.521 62.4899 70.2303 66.5981L70.233 66.6046C72.1238 71.2171 72.3903 74.4692 71.0324 76.3609C70.9961 76.4115 70.9563 76.4596 70.9133 76.5048C68.3649 79.187 65.6645 79.3207 62.812 76.9059C62.8011 76.8967 62.7903 76.8873 62.7797 76.8777L54.1845 69.1299C54.1718 69.1185 54.1594 69.1069 54.1472 69.0951C53.1241 68.1015 52.0391 66.5912 50.8924 64.5642C50.5217 63.909 50.764 63.0837 51.4334 62.7209C52.1029 62.3582 52.9461 62.5952 53.3168 63.2504Z" fill="#05276C"/>
<path d="M62.9958 70.3205C63.3574 70.8429 63.9958 71.3486 64.9112 71.8374C64.9156 71.8397 64.9198 71.842 64.9241 71.8443C65.6898 72.2636 66.1996 72.4825 66.4536 72.5011C66.3212 72.4914 66.1738 72.5415 66.0116 72.6515C66.0234 72.6435 66.0355 72.6356 66.0476 72.6279C65.8935 72.7255 65.8023 72.8348 65.774 72.9556L65.774 72.9554C65.7749 72.9516 65.7759 72.9456 65.777 72.9374L65.766 73.1547C65.7487 72.6088 65.6948 72.1985 65.6045 71.9238L65.62 71.9682C65.3265 71.1719 64.9561 70.6437 64.5086 70.3837L64.5995 70.4321C64.4968 70.3822 64.4227 70.3529 64.377 70.3441C64.6953 70.4051 64.9396 70.2688 65.1099 69.9353L65.1816 69.7678C65.2267 69.6388 65.2433 69.5303 65.2316 69.4423C65.2672 69.7091 65.5278 70.296 66.0134 71.2027C66.0169 71.2092 66.0203 71.2157 66.0237 71.2223C66.5534 72.2514 67.0952 73.0158 67.6491 73.5154L67.5569 73.4392C67.5864 73.4615 67.6086 73.4764 67.6233 73.4836C67.375 73.3608 67.16 73.4034 66.9781 73.6115L66.9079 73.6988C66.9933 73.5831 67.0354 73.328 67.0341 72.9335C67.034 72.9048 67.0348 72.8763 67.0366 72.8477C67.0609 72.4515 67.0049 72.0963 66.8687 71.782C66.8612 71.7648 66.8541 71.7473 66.8474 71.7298C66.5824 71.0402 65.5552 69.8717 63.7658 68.2242C63.2084 67.7111 63.1816 66.8528 63.7059 66.3073C64.2303 65.7618 65.1072 65.7356 65.6646 66.2487C67.7664 68.1838 69.0253 69.6926 69.4412 70.7751L69.4199 70.7229C69.7255 71.428 69.8531 72.1905 69.8028 73.0104L69.8052 72.9246C69.8085 73.9073 69.5914 74.6949 69.1539 75.2874C69.1318 75.3174 69.1083 75.3465 69.0838 75.3747C68.3227 76.2453 67.419 76.4218 66.3728 75.904C66.2015 75.8193 66.0317 75.7133 65.8634 75.5861C65.8316 75.562 65.8008 75.5366 65.7712 75.5099C64.9703 74.7876 64.2295 73.7651 63.5487 72.4424L63.559 72.4619C62.9204 71.2695 62.562 70.3801 62.4837 69.7935C62.4395 69.4623 62.4648 69.1612 62.5595 68.8902C62.5795 68.8329 62.6035 68.7769 62.6311 68.7227C63.0892 67.8258 63.8487 67.4791 64.9097 67.6825C65.1994 67.738 65.5069 67.8448 65.8323 68.003C65.8632 68.0181 65.8935 68.0342 65.9232 68.0514C66.9406 68.6426 67.7085 69.6415 68.2268 71.0481C68.2322 71.0628 68.2374 71.0777 68.2423 71.0926C68.4126 71.6102 68.5104 72.2695 68.5359 73.0704C68.5382 73.1431 68.5345 73.2157 68.5249 73.2878C68.5123 73.3825 68.4956 73.4742 68.4747 73.563L68.4748 73.5628C68.3354 74.1566 68.0283 74.6039 67.5535 74.9047L67.5894 74.8812C67.214 75.1356 66.7665 75.2438 66.2468 75.2058C65.5853 75.1573 64.6934 74.8258 63.5711 74.2113L63.5839 74.2183C62.2752 73.5194 61.3144 72.7272 60.7014 71.8416C60.2723 71.2215 60.438 70.3783 61.0715 69.9583C61.7051 69.5383 62.5666 69.7004 62.9958 70.3205Z" fill="#05276C"/>
<path d="M63.4693 52.0204C63.4678 52.0197 63.4666 52.0192 63.4666 52.0192L63.4667 52.0193C63.6138 52.0801 64.2181 52.189 65.5507 52.1646C66.6519 52.1445 69.2676 51.9444 73.4807 51.5839C74.3029 51.5135 75.427 51.5286 76.738 51.5443C76.986 51.5472 77.2446 51.5503 77.5118 51.5531C77.7974 51.556 78.0307 51.5108 78.2661 51.4573C79.1712 51.2516 79.5637 51.086 79.6569 51.0264L79.657 51.0264C79.7298 50.9799 79.4077 51.1458 79.3135 51.6059C79.3424 51.465 79.3939 51.3294 79.4663 51.2044C79.8806 50.4881 79.8151 50.1963 79.783 50.1252C79.4507 49.3874 78.743 48.6615 77.6299 47.8638L77.754 47.9431C76.8525 47.432 76.6033 47.3394 73.4415 46.2236L73.4414 46.2236L73.0684 46.092L73.2501 46.1427C72.1609 45.9159 71.9703 45.8689 71.8436 45.8367C71.821 45.8309 71.8155 45.8293 71.771 45.82L71.771 45.82C71.675 45.8 71.4748 45.761 70.9386 45.6579L71.0584 45.6756L60.6877 44.5902C60.6789 44.5892 60.6701 44.5882 60.6613 44.5872C59.9106 44.4943 59.2675 44.3944 58.8719 44.2674L58.8718 44.2674C58.8393 44.2569 58.8055 44.2454 58.7704 44.2325C58.0541 43.9689 57.6918 43.1869 57.9611 42.4859C58.2304 41.7849 59.0294 41.4302 59.7457 41.6938C59.7388 41.6913 59.7354 41.6902 59.7356 41.6903L59.7356 41.6903C59.8369 41.7228 60.2144 41.7981 61.0088 41.8963L60.9824 41.8933L71.3531 42.9788C71.3932 42.983 71.4332 42.9889 71.4729 42.9965C71.9968 43.0973 72.2257 43.1418 72.3477 43.1672L72.3477 43.1672C72.4423 43.1869 72.4892 43.1986 72.5406 43.2116C72.6001 43.2268 72.7343 43.2624 73.8268 43.4899C73.8884 43.5027 73.9491 43.5197 74.0084 43.5406L74.3814 43.6722C77.4784 44.7651 77.9835 44.9388 79.1431 45.5962C79.1858 45.6204 79.2273 45.6469 79.2671 45.6755C80.5061 46.5634 81.69 47.6352 82.3187 49.031C82.8967 50.3141 82.4152 51.6116 81.8778 52.5406L82.0306 52.1391C81.8972 52.7902 81.4036 53.1494 81.1722 53.2973L81.1722 53.2973C80.6269 53.6458 79.7966 53.8939 78.8929 54.0992C78.5897 54.1681 78.1013 54.2715 77.4827 54.2651C77.2121 54.2623 76.9525 54.2592 76.7042 54.2563C75.3281 54.2398 74.3727 54.2301 73.7221 54.2858C69.556 54.6423 66.8228 54.8541 65.6024 54.8764C64.305 54.9001 63.1428 54.83 62.3875 54.5174L62.3877 54.5175C62.3609 54.5064 62.3345 54.495 62.3077 54.4829C61.613 54.1689 61.3098 53.3632 61.6305 52.6832C61.9513 52.0032 62.7745 51.7065 63.4693 52.0204Z" fill="#05276C"/>
<path d="M70.7414 46.9486C71.4769 47.6891 72.4703 48.2901 73.7214 48.7514L73.5959 48.7117C74.8455 49.0438 75.7679 49.0894 76.3632 48.8485C76.3749 48.8438 76.3866 48.8393 76.3983 48.8349C76.6254 48.75 76.7719 48.6769 76.8377 48.6156C76.7692 48.6794 76.727 48.7792 76.7112 48.9151L76.7044 49.1439C76.7144 49.3206 76.7623 49.4517 76.8481 49.537L76.8481 49.5371C76.8041 49.4933 76.7114 49.4348 76.5698 49.3617L76.6944 49.4185C76.0211 49.1501 75.2605 49.0319 74.4125 49.0638L74.414 49.0637C73.8202 49.0867 73.2331 49.2486 72.6526 49.5494L72.7121 49.5166C72.6491 49.5533 72.6064 49.5821 72.5841 49.6031L72.5841 49.6031C72.8076 49.3929 72.8358 49.1292 72.6686 48.8121L72.424 48.4819C72.5824 48.6391 73.0059 48.7389 73.6946 48.7814C73.6995 48.7817 73.7044 48.782 73.7094 48.7824C74.9783 48.8741 76.0155 48.8199 76.821 48.62L76.774 48.6325C76.2952 48.7691 76.0811 49.116 76.1317 49.6733C76.0978 49.2992 76.2238 48.9281 76.4797 48.6484L76.4797 48.6485C75.9955 49.1777 75.9449 49.6902 76.3279 50.1861L76.3279 50.1861C76.3 50.1501 76.2408 50.0866 76.1503 49.9958L76.2179 50.0592C75.6524 49.5636 74.6979 49.0992 73.3544 48.666L73.4588 48.6952C72.8781 48.5562 72.0862 48.6013 71.0832 48.8306C70.338 49.0009 69.5928 48.5478 69.4188 47.8184C69.2448 47.0891 69.7078 46.3598 70.453 46.1895C71.8861 45.8619 73.1075 45.819 74.1172 46.0607C74.1524 46.0691 74.1873 46.0789 74.2217 46.09C75.9318 46.6414 77.2134 47.291 78.0665 48.0386C78.0898 48.059 78.1123 48.0802 78.1341 48.102C78.3058 48.2743 78.4406 48.4238 78.5385 48.5506L78.5385 48.5506C79.0727 49.2423 79.0746 49.878 78.5441 50.4578L78.892 49.433C78.9759 50.3562 78.5283 50.9573 77.549 51.2365C77.5335 51.241 77.5178 51.2451 77.5021 51.249C76.4057 51.5211 75.0735 51.6005 73.5054 51.4873L73.5202 51.4883C72.1274 51.4023 71.1042 51.0349 70.4506 50.386C70.3525 50.2886 70.27 50.1773 70.206 50.0558C69.7413 49.1745 69.894 48.3718 70.6639 47.6476L70.6639 47.6476C70.8397 47.4823 71.0505 47.3281 71.2964 47.1851C71.316 47.1737 71.3358 47.1628 71.3559 47.1524C72.3079 46.6591 73.2908 46.3928 74.3046 46.3536L74.3061 46.3536C75.5526 46.3067 76.6971 46.491 77.7396 46.9066C77.782 46.9235 77.8236 46.9425 77.8641 46.9634C78.2589 47.1675 78.5787 47.3913 78.8235 47.6349L78.8235 47.6349C79.2267 48.036 79.4427 48.489 79.4713 48.9937C79.4756 49.07 79.4733 49.1466 79.4645 49.2225C79.4042 49.7393 79.1652 50.1921 78.7475 50.581C78.4133 50.8919 77.9598 51.1545 77.3869 51.3686L77.4221 51.3549C76.2447 51.8314 74.7273 51.8228 72.8698 51.3292C72.8273 51.3179 72.7855 51.3047 72.7443 51.2895C71.1073 50.6858 69.7773 49.869 68.7544 48.839C68.221 48.302 68.2334 47.4434 68.7821 46.9214C69.3308 46.3994 70.208 46.4115 70.7414 46.9486Z" fill="#05276C"/>
<path d="M37.7875 70.2917C37.4788 70.3053 37.2443 70.5267 37.084 70.9558L37.086 70.9504C36.5812 72.3194 36.3984 73.1872 36.5377 73.5538L36.5377 73.5539C36.5336 73.5431 36.5257 73.5293 36.5141 73.5124L36.5102 73.5069C36.4636 73.44 36.4184 73.3942 36.3746 73.3694C36.4408 73.4068 36.5721 73.4424 36.7687 73.476C36.7832 73.4785 36.7976 73.4812 36.812 73.4842C37.2896 73.5814 37.6063 73.6196 37.7619 73.5987C37.6954 73.6077 37.6163 73.6397 37.5247 73.6949C37.5293 73.6921 37.5339 73.6894 37.5385 73.6867C38.046 73.3889 38.4435 72.7313 38.7312 71.7138L38.704 71.8291C38.7623 71.5203 38.7718 71.3132 38.7325 71.2079C38.7547 71.2672 38.7955 71.3091 38.855 71.3336L38.8549 71.3336C38.8542 71.3332 38.8529 71.3328 38.8512 71.3322C38.8313 71.3254 38.8114 71.3182 38.7917 71.3105C38.9918 71.3886 39.1616 71.4053 39.3011 71.3604C39.1962 71.3941 39.0171 71.5024 38.7638 71.6852L38.7956 71.6616C38.5522 71.8481 38.4047 71.9899 38.3531 72.087L38.3531 72.0871C38.3574 72.079 38.362 72.0669 38.367 72.051C38.1436 72.7673 37.3691 73.1706 36.6372 72.9519C35.9053 72.7332 35.4932 71.9752 35.7167 71.2589C35.7612 71.1161 35.8205 70.975 35.8944 70.8359L35.8944 70.8359C36.1308 70.3909 36.5285 69.9542 37.0873 69.526C37.0978 69.518 37.1084 69.5101 37.1191 69.5024C37.6108 69.1475 38.0497 68.9079 38.436 68.7837C38.9342 68.6235 39.395 68.626 39.8184 68.7913L39.7589 68.7696C39.8164 68.7891 39.8728 68.8103 39.9281 68.833L39.928 68.8329C40.6121 69.1141 41.0813 69.5958 41.3357 70.278C41.5478 70.8466 41.5789 71.5278 41.4291 72.3217C41.4218 72.3605 41.4127 72.399 41.402 72.437C40.9174 74.1513 40.1045 75.3433 38.9635 76.0128L38.9773 76.0046C38.7371 76.1493 38.4574 76.243 38.138 76.2859C37.667 76.349 37.0369 76.3002 36.2475 76.1395L36.2908 76.1476C35.7716 76.0587 35.3372 75.9152 34.9875 75.7173C34.6669 75.5359 34.4113 75.3085 34.2208 75.035L34.2169 75.0295C34.1053 74.8675 34.013 74.6907 33.9402 74.4991L33.9402 74.4991C33.5651 73.5116 33.7448 72.0218 34.4794 70.0297L34.4814 70.0242C35.0642 68.4644 36.1245 67.6504 37.6622 67.5822C38.4266 67.5484 39.0744 68.1274 39.109 68.8756C39.1436 69.6238 38.5519 70.2578 37.7875 70.2917Z" fill="#05276C"/>
<path d="M27.5602 36.8237C27.3535 36.7525 27.1446 36.6732 26.9678 36.5859L26.9678 36.5859C26.8957 36.5503 26.8017 36.5002 26.7053 36.4344L26.746 36.4611L25.2491 35.5165L25.3822 35.5906C24.4184 35.1208 23.4525 34.5755 22.4786 34.007C21.9304 33.6871 21.3058 33.4085 20.7654 33.1687C20.5746 33.0841 20.3792 32.9975 20.2194 32.9214C19.5312 32.5939 19.2446 31.7823 19.5793 31.1088C19.914 30.4353 20.7431 30.1548 21.4313 30.4823C21.5496 30.5386 21.7073 30.6088 21.9096 30.6985C22.4301 30.9295 23.1951 31.2674 23.8979 31.6776C24.8569 32.2373 25.7503 32.74 26.6178 33.163C26.6635 33.1853 26.7079 33.21 26.7508 33.2371L28.2477 34.1817C28.2614 34.1903 28.275 34.1993 28.2884 34.2084C28.2403 34.1756 28.2099 34.1614 28.2158 34.1643L28.2159 34.1644C28.2333 34.1729 28.3102 34.2067 28.4812 34.2657C29.2029 34.5146 29.5818 35.2891 29.3275 35.9954C29.0732 36.7018 28.2819 37.0727 27.5602 36.8237Z" fill="#05276C"/>
<path d="M28.5849 61.8144C27.8923 62.4063 27.0177 63.0148 25.9609 63.6399L26.0056 63.6123C25.4031 64.0002 24.1512 64.6517 22.2498 65.5667L22.3189 65.5311C22.0128 65.7 21.7149 65.881 21.4251 66.0742L21.4582 66.0514L21.0559 66.3368L21.133 66.2779C21.1239 66.2854 21.1174 66.2908 21.1136 66.2941L21.1137 66.2941C21.7496 65.7414 21.7808 65.1302 21.2072 64.4604L21.207 64.4602C20.7286 63.9018 20.1708 63.7884 19.5338 64.1198C19.5866 64.0924 19.6411 64.0683 19.6971 64.0477L19.6971 64.0477C19.5033 64.1189 19.3484 64.2157 19.2323 64.338L19.2322 64.3381C19.2411 64.3287 19.2563 64.3115 19.278 64.2864C19.7714 63.714 20.6456 63.6415 21.2305 64.1245C21.8153 64.6074 21.8894 65.463 21.396 66.0354C21.346 66.0933 21.3017 66.1427 21.2631 66.1835L21.263 66.1836C21.0825 66.3737 20.8853 66.5082 20.6711 66.5868L20.8345 66.5147C20.1503 66.8707 19.5667 66.7668 19.0836 66.203L19.0834 66.2028C18.5036 65.5257 18.567 64.8801 19.2737 64.2659L19.2738 64.2659C19.2971 64.2456 19.3234 64.2235 19.3527 64.1995C19.3777 64.179 19.4034 64.1593 19.4298 64.1406L19.832 63.8553C19.843 63.8476 19.854 63.84 19.8651 63.8325C20.2195 63.5963 20.5838 63.375 20.9579 63.1685C20.9806 63.156 21.0036 63.1441 21.027 63.1329C22.8248 62.2677 23.9767 61.6722 24.4827 61.3464C24.4975 61.3369 24.5123 61.3277 24.5275 61.3188C25.4462 60.7753 26.1911 60.2595 26.7622 59.7714C27.3386 59.2788 28.2139 59.3368 28.7172 59.9009C29.2206 60.4651 29.1613 61.3218 28.5849 61.8144Z" fill="#05276C"/>
<path d="M52.1888 75.524C52.2596 75.8632 52.3056 76.2333 52.3269 76.6342L52.3265 76.628C52.3406 76.8705 52.3446 77.349 52.3387 78.0635L52.3386 78.0715C52.3327 78.4818 52.3156 78.8879 52.2873 79.2898L52.2872 79.29C52.2778 79.4244 52.267 79.5581 52.2551 79.691L52.2552 79.6904C52.22 80.0848 52.1729 80.5963 52.1141 81.2249L52.1164 81.197C52.117 81.1891 52.117 81.1896 52.1163 81.1985L52.1161 81.2019C52.1001 81.4144 52.0913 81.5546 52.0897 81.6226C52.0896 81.6274 52.0895 81.6321 52.0893 81.637C52.0818 81.8577 52.0807 82.0673 52.0859 82.2656L52.085 82.2401C52.1195 83.0038 52.1363 83.4625 52.1352 83.6163V83.616C52.1351 83.6265 52.135 83.6367 52.1348 83.6467L52.135 83.6051C52.1382 83.8825 52.1304 84.136 52.1118 84.3653C52.0511 85.1119 51.3835 85.669 50.6206 85.6096C49.8578 85.5502 49.2886 84.8968 49.3493 84.1502C49.3613 84.0026 49.3662 83.831 49.364 83.6355C49.3638 83.6216 49.3639 83.6078 49.3642 83.5939C49.3641 83.5959 49.3641 83.5974 49.3641 83.5982V83.5979C49.3648 83.4903 49.349 83.0778 49.3165 82.3602C49.3161 82.3517 49.3158 82.3432 49.3156 82.3347C49.309 82.0834 49.3104 81.8208 49.3197 81.547L49.3193 81.5614C49.3219 81.4474 49.3329 81.2613 49.3523 81.0029L49.3521 81.0062C49.3515 81.0144 49.3515 81.0141 49.3522 81.0054C49.353 80.9936 49.3537 80.9856 49.3545 80.9775C49.4129 80.3536 49.4596 79.8459 49.4945 79.4544L49.4946 79.4538C49.505 79.3371 49.5144 79.2201 49.5227 79.103L49.5226 79.1032C49.5475 78.7506 49.5625 78.394 49.5677 78.0334L49.5676 78.0415C49.573 77.3853 49.5704 76.9653 49.5598 76.7812L49.5594 76.775C49.5453 76.5092 49.5168 76.2732 49.4737 76.0667C49.3205 75.3329 49.8042 74.6165 50.554 74.4667C51.3037 74.3168 52.0357 74.7902 52.1888 75.524Z" fill="#05276C"/>
<path d="M76.5488 59.9023C78.0665 61.0813 79.4691 62.0512 80.7567 62.8122C80.839 62.8609 80.9159 62.9178 80.9862 62.9821L80.986 62.9819C80.9516 62.9504 80.9219 62.9263 80.897 62.9096L80.8969 62.9095C81.2001 63.1132 82.5279 63.7624 84.8803 64.857C84.8992 64.8658 84.9178 64.875 84.9362 64.8846C85.2605 65.0534 85.5361 65.232 85.7632 65.4203C86.347 65.9044 86.4193 66.7601 85.9247 67.3316C85.43 67.903 84.5557 67.9738 83.9718 67.4896C83.8961 67.4268 83.7837 67.3566 83.6345 67.2789L83.6905 67.3065C81.2061 66.1505 79.752 65.4301 79.3284 65.1455L79.3282 65.1454C79.2392 65.0855 79.1613 65.0252 79.0948 64.9643L79.3241 65.1339C77.9355 64.3132 76.4362 63.2775 74.826 62.0268C74.2266 61.5612 74.1264 60.7082 74.6021 60.1215C75.0778 59.5349 75.9494 59.4367 76.5488 59.9023Z" fill="#05276C"/>
<path d="M73.0372 34.4902C73.8781 33.9458 74.361 33.6258 74.4859 33.5303L74.486 33.5302C74.48 33.5348 74.4725 33.5409 74.4633 33.5487L74.4643 33.5478C75.8977 32.3422 76.8396 31.5872 77.2901 31.2826L77.2885 31.2836L80.2579 29.2699C80.8869 28.8433 81.7501 28.9966 82.1859 29.6122C82.6218 30.2278 82.4652 31.0726 81.8362 31.4992L78.8669 33.513L78.8653 33.514C78.4949 33.7645 77.63 34.4614 76.2705 35.6048L76.2715 35.6039C76.2474 35.6242 76.2208 35.6455 76.1917 35.6678L76.1918 35.6677C76.0097 35.8069 75.4678 36.1685 74.5663 36.7522C73.9281 37.1655 73.0684 36.9941 72.6462 36.3695C72.2239 35.7448 72.399 34.9035 73.0372 34.4902Z" fill="#05276C"/>
<path d="M48.1227 18.614L48.1227 18.6141C48.1163 18.5543 48.1116 18.4983 48.1087 18.4461L48.1087 18.4459C48.1035 18.3497 48.104 18.2601 48.1104 18.177L48.1098 18.1846C48.1543 17.559 48.1774 17.1693 48.1789 17.0155C48.179 17.0072 48.1792 16.999 48.1794 16.9906C48.192 16.5569 48.1946 16.2564 48.1874 16.0892C48.1871 16.0823 48.1868 16.0756 48.1867 16.0686C48.1822 15.9062 48.1742 15.7401 48.1627 15.5703L48.1631 15.5772C48.1381 15.2342 48.0872 14.6042 48.0105 13.6872L48.0099 13.6791C47.9823 13.3238 47.9586 12.9685 47.9387 12.6132L47.9385 12.6102C47.8907 11.72 47.8672 11.0225 47.8682 10.5179L47.8682 10.5205C47.8682 10.1275 47.8878 9.75293 47.9271 9.39669C47.9281 9.38807 47.9291 9.37961 47.9302 9.37101L47.9341 9.34349L47.9342 9.34309L47.9303 9.37062C47.9912 8.90225 48.0641 8.45249 48.1488 8.02135C48.2934 7.28588 49.0197 6.80434 49.7712 6.9458C50.5227 7.08727 51.0147 7.79817 50.8701 8.53365C50.7964 8.90861 50.7328 9.30184 50.6792 9.71334L50.6754 9.74087L50.6753 9.74127L50.6823 9.68807C50.6536 9.94732 50.6393 10.2247 50.6394 10.5203L50.6393 10.5229C50.6385 10.9781 50.6607 11.6264 50.7059 12.4677L50.7057 12.4648C50.7246 12.8012 50.747 13.1376 50.7731 13.4739L50.7724 13.4658C50.8499 14.3921 50.9015 15.0315 50.9273 15.384L50.9277 15.3909C50.9416 15.5961 50.9513 15.7974 50.9568 15.995L50.9561 15.9744C50.9661 16.2055 50.9639 16.5698 50.9495 17.0674L50.95 17.0425C50.9479 17.2501 50.9227 17.6936 50.8743 18.3729L50.8738 18.3805C50.8763 18.3475 50.877 18.3209 50.8759 18.3009L50.8759 18.3006C50.8763 18.3068 50.8772 18.3168 50.8787 18.3307C50.9586 19.0757 50.4064 19.7429 49.6453 19.8211C48.8843 19.8993 48.2026 19.3589 48.1227 18.614Z" fill="#05276C"/>
<path d="M34.0267 45.6383L34.1056 45.5371C34.7458 44.7161 35.9448 44.5585 36.7837 45.1851C37.6226 45.8117 37.7836 46.9852 37.1434 47.8063L37.0645 47.9074C36.4243 48.7284 35.2252 48.886 34.3864 48.2594C33.5475 47.6328 33.3865 46.4593 34.0267 45.6383Z" fill="#05276C"/>
<path d="M48.4827 30.2426C48.6481 30.0952 48.8258 29.8924 49.0158 29.6342L48.8918 29.8262C49.609 28.5497 50.0705 27.7647 50.2765 27.4714L50.2765 27.4715C50.5201 27.1246 50.8143 26.8772 51.1591 26.7292L50.3586 27.3729C50.6289 26.9931 51.0164 26.5725 51.5211 26.1112L51.1898 26.5111C51.2718 26.3782 51.3787 26.2446 51.5104 26.1102C51.8903 25.7229 53.5127 24.3339 56.3776 21.9434C56.3979 21.9264 56.4187 21.9099 56.4397 21.8937C57.0636 21.4159 57.6764 21.0978 58.2782 20.9394C58.8368 20.7924 59.3796 20.7793 59.9065 20.9002C60.1736 20.9615 60.4241 21.0783 60.641 21.2429C61.8638 22.1705 62.4751 23.621 62.4749 25.5944L62.1349 24.5294C62.3878 24.8867 62.505 25.3159 62.4868 25.8172V25.8171C62.468 26.3317 62.2611 27.6963 61.8661 29.9109L61.8849 29.7779L61.3382 35.0568C61.2318 36.0844 60.2945 36.833 59.2446 36.7288C58.1947 36.6247 57.4298 35.7073 57.5362 34.6797L58.0829 29.4008C58.0875 29.3562 58.0937 29.3119 58.1016 29.2677C58.4665 27.2218 58.6552 26.0272 58.6677 25.6838V25.6837C58.6558 26.0102 58.7643 26.3353 58.9934 26.659C58.772 26.3463 58.6533 25.9747 58.6534 25.594C58.6535 24.8429 58.5356 24.3779 58.2998 24.199L59.0343 24.5416C59.1315 24.5639 59.2103 24.5671 59.2708 24.5512C59.1693 24.5779 59.0106 24.674 58.7947 24.8393L58.8569 24.7896C56.0889 27.0992 54.5591 28.4027 54.2674 28.7002C54.3319 28.6344 54.3964 28.5492 54.461 28.4446C54.3698 28.5924 54.2583 28.7269 54.1296 28.8445C53.8221 29.1256 53.6103 29.3478 53.4942 29.5109C53.293 29.7935 53.016 30.0162 52.6937 30.1546C53.014 30.0171 53.2581 29.8289 53.4258 29.59L53.4258 29.5901C53.2916 29.7811 52.8965 30.4605 52.2405 31.6282C52.2032 31.6946 52.1618 31.7588 52.1166 31.8202C51.7712 32.2895 51.4176 32.6854 51.0556 33.008C50.2754 33.7034 49.0669 33.648 48.3564 32.8844C47.6459 32.1207 47.7024 30.938 48.4827 30.2426Z" fill="#05276C"/>
<path d="M45.5513 28.4605L45.5589 28.4622L45.559 28.4622L45.5514 28.4606C45.6854 28.489 45.8156 28.5214 45.9422 28.5579C45.9528 28.561 45.9635 28.5641 45.974 28.5674L45.9841 28.5705L45.9843 28.5706L45.9746 28.5676C46.0284 28.5841 46.0794 28.6014 46.1278 28.6195L46.1288 28.6199L46.3663 28.709C47.3516 29.0787 47.8441 30.1602 47.4663 31.1246C47.0885 32.089 45.9835 32.571 44.9982 32.2013L44.7607 32.1121L44.7616 32.1125C44.7866 32.1219 44.8098 32.1298 44.8311 32.1364L44.8214 32.1334L44.8212 32.1333L44.863 32.1459C44.8255 32.135 44.7851 32.1251 44.7419 32.1159L44.7344 32.1143L44.7342 32.1142C43.7105 31.8971 43.0556 30.9015 43.2791 29.8921C43.5027 28.8827 44.5199 28.2418 45.5513 28.4605Z" fill="#05276C"/>
<path d="M50.0625 32.0908L50.0625 32.0907C50.2519 32.3718 50.4691 32.5636 50.714 32.6661C50.6299 32.6309 50.4507 32.5756 50.1765 32.5004L50.3869 32.5458C50.1837 32.5136 50.0469 32.4956 49.9764 32.4919C49.9128 32.4886 49.8494 32.4822 49.7865 32.4727L49.115 32.3714L49.2764 32.3889L48.5521 32.3406L48.5802 32.3423C48.5884 32.3427 48.5964 32.3428 48.604 32.3426L48.6888 32.3379C48.5137 32.3513 48.3186 32.36 48.1037 32.3639C48.0374 32.3651 47.9712 32.3629 47.9052 32.3573C48.0181 32.3668 48.1225 32.367 48.2183 32.3578L48.2184 32.3578C48.1722 32.3622 48.0441 32.3774 47.8341 32.4035L47.8751 32.3979L47.4116 32.4654L47.6176 32.424C47.3712 32.4875 47.0648 32.5509 46.6984 32.6142L46.7832 32.5976C46.7204 32.6113 46.6508 32.6234 46.5742 32.6338L46.5742 32.6338C46.5093 32.6426 46.4255 32.6522 46.3228 32.6625C45.2731 32.768 44.3347 32.0206 44.2269 30.9932C44.1192 29.9658 44.8828 29.0474 45.9325 28.9419C45.9898 28.9362 46.0284 28.9319 46.0482 28.9292L46.0483 28.9292C46.0216 28.9329 45.9888 28.9389 45.9498 28.9475C45.9781 28.9413 46.0063 28.9358 46.0347 28.9309C46.2966 28.8856 46.4996 28.8445 46.6436 28.8073C46.7114 28.7898 46.7801 28.776 46.8495 28.7659L47.313 28.6984C47.3266 28.6965 47.3403 28.6946 47.3539 28.6929C47.5998 28.6624 47.7638 28.6433 47.8459 28.6354H47.8459C47.983 28.6223 48.1117 28.6207 48.232 28.6309L48.0334 28.6243C48.1723 28.6218 48.2914 28.6168 48.3907 28.6092C48.4189 28.607 48.4471 28.6055 48.4755 28.6045C48.5785 28.6011 48.6812 28.6021 48.7835 28.6074C48.7929 28.6079 48.8023 28.6085 48.8117 28.6091L49.536 28.6574C49.5901 28.661 49.6439 28.6668 49.6975 28.6749L50.3689 28.7763L50.179 28.757C50.3865 28.7678 50.6595 28.8 50.9981 28.8537C51.069 28.865 51.1393 28.8801 51.2085 28.8991C51.6432 29.0185 51.9792 29.1278 52.2166 29.2271C52.6752 29.4191 53.0204 29.687 53.2523 30.031C53.8334 30.893 53.5905 32.053 52.7097 32.6218C51.8289 33.1906 50.6437 32.9529 50.0625 32.0908Z" fill="#05276C"/>
<path d="M50.833 30.4733C51.0312 30.9642 51.3467 31.2915 51.7797 31.4551C51.7406 31.4404 51.6639 31.4162 51.5497 31.3828L51.736 31.4275L51.1517 31.3174L51.2524 31.3337L49.792 31.137L49.8692 31.1458C49.6118 31.1216 49.4212 31.1087 49.2976 31.1072L49.432 31.1042C49.2077 31.117 49.0662 31.1265 49.0074 31.1329L49.0074 31.1329C49.0644 31.1267 49.1307 31.1142 49.2062 31.0952C49.1651 31.1055 49.1237 31.1145 49.082 31.1221L47.6038 31.3915C47.563 31.3989 47.5219 31.405 47.4807 31.4099C47.3656 31.4233 47.2304 31.4419 47.0751 31.4655C47.0423 31.4705 47.0093 31.4746 46.9762 31.478C46.6835 31.5073 46.4993 31.5283 46.4235 31.5408L46.4231 31.5409C46.4242 31.5407 46.4252 31.5405 46.4261 31.5404C46.403 31.5443 46.3797 31.5478 46.3564 31.5509C46.2837 31.5605 46.1561 31.5914 45.9736 31.6436C44.9607 31.9333 43.8996 31.3646 43.6036 30.3732C43.3076 29.3818 43.8887 28.3433 44.9016 28.0536C45.2682 27.9487 45.5828 27.879 45.8455 27.8443L45.7758 27.8548C45.7787 27.8543 45.7818 27.8538 45.785 27.8532L45.7846 27.8533C45.9431 27.827 46.2106 27.795 46.587 27.7572L46.4881 27.7697C46.6879 27.7393 46.8677 27.7148 47.0275 27.6961L46.9043 27.7145L48.3825 27.4451L48.2582 27.472C48.3569 27.4473 48.4672 27.4283 48.589 27.4152L48.589 27.4152C48.713 27.4018 48.9199 27.3869 49.2098 27.3703C49.2545 27.3678 49.2993 27.3668 49.3441 27.3673C49.5747 27.3701 49.8719 27.3886 50.2357 27.4229C50.2615 27.4253 50.2872 27.4283 50.3129 27.4317L51.7733 27.6284C51.807 27.6329 51.8406 27.6384 51.8741 27.6447L52.4584 27.7547C52.5212 27.7666 52.5834 27.7815 52.6447 27.7995C52.8542 27.8608 53.0247 27.9163 53.1564 27.9661C53.7649 28.1961 54.1751 28.5737 54.3872 29.099C54.7749 30.0596 54.2936 31.1459 53.3122 31.5254C52.3307 31.9049 51.2207 31.4339 50.833 30.4733Z" fill="#05276C"/>
<path d="M45.1018 29.7037L45.1018 29.7036C45.1025 29.7072 45.103 29.7098 45.1034 29.7116L45.1035 29.7119C45.0874 29.6436 45.0402 29.5276 44.9619 29.364L45.1362 29.656C44.6418 28.9772 44.0413 27.8751 43.3345 26.3497L43.5243 26.6705L41.2924 23.6385L41.3887 23.7585C41.0503 23.3701 40.6598 23.0642 40.2173 22.8409C40.0527 22.7578 39.9013 22.6518 39.7679 22.5262L39.7679 22.5262C40.1781 22.9125 40.6019 23.0663 41.0393 22.9876C40.9744 22.9993 40.8594 23.0341 40.6942 23.0922L41.2889 22.7545C41.2833 22.7592 41.2792 22.7629 41.2767 22.7654L41.2767 22.7654C41.3244 22.7177 41.3627 22.6426 41.3914 22.5402C41.382 22.574 41.3715 22.6075 41.3601 22.6407C40.9447 23.8487 40.7249 24.6086 40.7007 24.9204L40.7007 24.9205C40.7027 24.8945 40.702 24.8593 40.6987 24.8148C40.7045 24.8919 40.7055 24.9693 40.7015 25.0465C40.6888 25.296 40.6872 25.5161 40.6966 25.7068L40.6918 25.6372C40.9473 28.5534 41.0834 30.8016 41.1001 32.3818L41.0987 32.3263C41.1088 32.5745 41.155 32.9908 41.2372 33.5753C41.3811 34.5985 40.6503 35.5421 39.6049 35.683C38.5595 35.8238 37.5954 35.1086 37.4514 34.0854C37.3524 33.3813 37.2953 32.8448 37.2803 32.4759C37.2795 32.4574 37.279 32.439 37.2788 32.4204C37.2632 30.934 37.1317 28.7795 36.8843 25.9568C36.8823 25.9336 36.8807 25.9105 36.8795 25.8872C36.8641 25.5742 36.8659 25.2318 36.8848 24.8601L36.8877 25.0918C36.8769 24.9495 36.8777 24.798 36.8902 24.6372L36.8902 24.6372C36.9385 24.0145 37.2212 22.9513 37.7382 21.4477L37.7068 21.5482C37.8529 21.0286 38.1326 20.5622 38.5459 20.1489L38.5459 20.149C38.6281 20.0668 38.7154 19.9871 38.8078 19.9099C38.9835 19.763 39.185 19.6486 39.4025 19.5722C39.7635 19.4453 40.0789 19.3576 40.3484 19.3091C41.1964 19.1565 41.8861 19.3305 42.4177 19.8311L41.9684 19.5165C42.8569 19.9648 43.633 20.57 44.2969 21.3321C44.3306 21.3708 44.3627 21.4109 44.3931 21.4522L46.625 24.4841C46.6989 24.5847 46.7626 24.6921 46.8148 24.805C47.4195 26.11 47.8972 27.0033 48.248 27.485C48.315 27.577 48.3734 27.6747 48.4224 27.777C48.6159 28.1812 48.751 28.5469 48.8279 28.8741L48.8279 28.8744C48.8405 28.928 48.8517 28.981 48.8614 29.0334C49.0506 30.0494 48.3623 31.0232 47.3241 31.2083C46.2859 31.3935 45.291 30.7198 45.1018 29.7037Z" fill="#05276C"/>
<path d="M44.0119 28.507C44.0173 28.5642 44.0244 28.6101 44.0332 28.6444L44.0332 28.6445C43.9997 28.514 43.8913 28.2347 43.7078 27.8066L43.721 27.8366C43.5643 27.4881 43.413 27.193 43.2671 26.9514C43.2167 26.8679 43.173 26.7806 43.1364 26.6905L43.1364 26.6905C42.6525 25.4985 43.0102 24.6693 44.2095 24.2029L44.2099 24.2027C44.7959 23.975 45.3886 24.0266 45.9882 24.3576C46.1229 24.4319 46.2478 24.522 46.3603 24.6258C46.8413 25.0697 47.251 25.6086 47.5894 26.2426L47.5333 26.1447C47.5601 26.1883 47.5873 26.2357 47.6151 26.287L47.615 26.287C47.6531 26.3573 47.696 26.4424 47.7438 26.5423C47.7559 26.5677 47.7674 26.5932 47.7784 26.6191C47.9784 27.0911 48.0986 27.3694 48.1388 27.4539L48.1389 27.454C47.6381 26.4023 46.8249 26.1051 45.6993 26.5624L45.7012 26.5617C44.7832 26.9335 44.3968 27.5997 44.5419 28.5602C44.4047 27.6527 44.9604 26.7818 45.8538 26.5042C46.7471 26.2265 47.7143 26.624 48.1373 27.4427C48.1423 27.4525 48.1462 27.4596 48.1488 27.464L48.1488 27.4641C48.1168 27.4105 48.0633 27.3489 47.9883 27.2795C48.2276 27.501 48.4043 27.7793 48.5012 28.0874L48.5012 28.0873C48.5289 28.1751 48.5507 28.2482 48.5669 28.3066L48.5669 28.3066C48.6221 28.5066 48.6492 28.6954 48.6483 28.8731C48.6427 29.9059 47.7827 30.7387 46.7274 30.7332C45.6721 30.7278 44.8212 29.886 44.8268 28.8532C44.826 29.0133 44.843 29.1565 44.8778 29.2827L44.8778 29.2827C44.8732 29.2659 44.8636 29.2346 44.8492 29.1887L45.3621 29.9965C45.1724 29.8209 45.0016 29.6059 44.8497 29.3517L44.8498 29.3517C44.808 29.2817 44.767 29.2079 44.7269 29.1303L48.3223 28.0129C48.468 28.9771 48.0815 29.6453 47.1627 30.0175L47.1645 30.0168C46.0353 30.4755 45.2054 30.1479 44.675 29.0338L44.6751 29.0339C44.6117 28.9008 44.4695 28.5735 44.2485 28.0519L44.2831 28.1287C44.2617 28.0839 44.2464 28.0531 44.2374 28.0364L44.2373 28.0364C44.2422 28.0454 44.2493 28.0574 44.2585 28.0724C44.2387 28.0402 44.22 28.0076 44.2023 27.9745C44.0623 27.7123 43.9078 27.5031 43.7387 27.347L44.1108 27.6153C44.5717 27.8697 45.0748 27.8909 45.6203 27.6788L45.6207 27.6787C46.7889 27.2244 47.1446 26.4347 46.6878 25.3095L46.5571 25.0486C46.7802 25.4182 47.0008 25.8453 47.2187 26.33C47.2232 26.3399 47.2276 26.3499 47.2319 26.36C47.49 26.9622 47.6592 27.4202 47.7397 27.7338L47.7397 27.7339C47.7786 27.8857 47.8044 28.0284 47.817 28.162C47.9144 29.1905 47.1414 30.1014 46.0907 30.1967C45.0399 30.2919 44.1092 29.5354 44.0119 28.507Z" fill="#05276C"/>
<path d="M41.5659 37.6262C40.9243 37.6435 40.3512 37.9747 40.017 38.4783L40.0153 38.4785C39.6316 38.8019 39.3861 39.2956 39.2787 39.9598L39.2787 39.9599C39.2618 40.064 39.2485 40.1752 39.2387 40.2936C39.2366 40.3181 39.2351 40.3426 39.2339 40.4299L39.2321 40.43C39.2248 40.7359 39.2377 41.2918 39.2707 42.0978C39.2713 42.1129 39.2721 42.1279 39.2731 42.143C39.3176 42.819 39.3539 43.3997 39.3822 43.8854V43.8855C39.1028 43.8356 38.828 43.8144 38.5579 43.8216C37.8474 43.8407 37.1688 44.0572 36.5223 44.471C36.445 44.5204 36.3716 44.5753 36.3025 44.6351C36.1889 44.7334 36.0843 44.8334 35.9889 44.9349L35.9889 44.935C35.7263 45.2144 35.529 45.5085 35.3968 45.8173L35.3951 45.8174C34.6547 46.2338 34.1666 46.8901 33.9306 47.7864C33.8709 48.0128 33.8552 48.2482 33.8843 48.4803C34.1069 50.26 35.2854 51.6572 37.4197 52.6717C37.4321 52.6776 37.4445 52.6834 37.4571 52.689C38.1872 53.0172 38.9633 53.1702 39.7854 53.148C39.9949 53.1424 40.2074 53.1254 40.4228 53.097L40.4246 53.0971C40.4658 53.1092 40.5063 53.1205 40.546 53.131L40.546 53.131C40.9007 53.2244 41.2237 53.2672 41.5151 53.2593C42.3342 53.2373 42.9031 52.8152 43.2218 51.9931L43.22 51.9932C43.5762 51.6453 43.799 51.2183 43.8884 50.7124L43.8866 50.7126C44.2 50.0484 44.126 49.3155 43.6644 48.5139L43.6626 48.514C43.6076 48.3172 43.5446 48.125 43.4736 47.9376C43.4714 47.9316 43.4689 47.9252 43.4665 47.9192C43.3868 47.7153 43.304 47.5189 43.2182 47.3301L43.2164 47.3303C43.2304 47.1042 43.242 46.8999 43.2513 46.7175L43.2495 46.7176C43.2695 46.6809 43.2882 46.6435 43.3057 46.6056C43.3883 46.4263 43.4479 46.2196 43.4845 45.9857L43.4845 45.9856C43.5166 45.7801 43.5438 45.4731 43.5659 45.0645C43.5685 45.0172 43.5692 44.9698 43.5681 44.9225C43.5439 43.8909 43.5263 43.0064 43.5154 42.2689L43.5136 42.269C43.5268 42.0371 43.5408 41.8043 43.5558 41.5707C43.5562 41.5636 43.5567 41.5563 43.557 41.5493C43.5733 41.2379 43.5667 40.8194 43.5372 40.2938C43.5353 40.2593 43.5323 40.2248 43.5285 40.1906C43.5229 40.1415 43.5167 40.0936 43.5097 40.0468L43.5079 40.047C43.5118 39.8723 43.5176 39.7391 43.5252 39.6472C43.6107 38.6178 42.8274 37.7154 41.7756 37.6317C41.705 37.6261 41.6351 37.6243 41.5659 37.6262Z" fill="#05276C"/>
<path d="M39.7561 46.938C40.1255 47.6375 40.4315 48.654 40.6743 49.9876L40.6726 49.9789C40.8518 50.9367 40.955 51.5456 40.9824 51.8056L40.9823 51.8053C40.9867 51.8463 40.99 51.8849 40.9924 51.9212L40.9861 51.8477C41.0362 52.3171 41.0513 52.8005 41.0314 53.2978C41.0311 53.3052 41.0308 53.3123 41.0304 53.3197C41.0005 53.8965 40.9514 54.3855 40.8832 54.7866L40.8845 54.7785C40.7868 55.3691 40.5363 56.6571 40.1331 58.6425L40.1455 58.5749L39.8295 60.4974L39.8397 60.4272C39.6612 61.8573 39.5174 62.8215 39.4085 63.3198C39.1876 64.3297 38.172 64.9732 37.1401 64.7571C36.1082 64.5409 35.4507 63.5469 35.6716 62.537C35.7568 62.1476 35.8817 61.2932 36.0464 59.9736C36.0493 59.9502 36.0527 59.9267 36.0565 59.9034L36.3725 57.9808C36.3763 57.9582 36.3804 57.9358 36.385 57.9133C36.7793 55.9717 37.0217 54.7275 37.1122 54.1806L37.1136 54.1725C37.1579 53.9119 37.1913 53.5644 37.2139 53.1299L37.2129 53.1518C37.2256 52.8332 37.2164 52.528 37.1852 52.2362C37.1826 52.2118 37.1805 52.1872 37.1789 52.1627C37.1796 52.1738 37.1803 52.1826 37.181 52.1891L37.181 52.1888C37.1639 52.0261 37.0747 51.5139 36.9136 50.6523L36.912 50.6435C36.737 49.6819 36.5534 49.0192 36.3613 48.6555C35.8767 47.738 36.2438 46.6098 37.1813 46.1355C38.1187 45.6612 39.2715 46.0205 39.7561 46.938Z" fill="#05276C"/>
<path d="M36.1564 59.5882C36.1395 59.6275 36.1295 59.6591 36.1264 59.6832V59.6832C36.1272 59.6765 36.1277 59.6659 36.1278 59.6515C36.1279 59.621 36.1288 59.5906 36.1305 59.5602C36.1476 59.2462 36.1387 58.9435 36.1037 58.652C36.1023 58.6411 36.1011 58.6304 36.1 58.6195C36.0715 58.3398 36.05 58.1607 36.0356 58.0823L36.0507 58.156C35.8859 57.4276 35.6915 56.3418 35.4674 54.8988L35.478 54.96C35.4654 54.8941 35.4653 54.8933 35.4776 54.9577L35.478 54.96C35.2323 53.6777 35.0933 52.9189 35.0613 52.6836L35.0613 52.6839C35.0551 52.6383 35.0503 52.5962 35.0469 52.5576L35.0773 52.7654C34.9646 52.2163 34.8893 51.8756 34.8515 51.7431C34.8364 51.6904 34.8237 51.637 34.8134 51.5832C34.7017 50.998 34.4705 50.3386 34.1199 49.605C33.6728 48.6695 34.0852 47.5564 35.0411 47.1187C35.9969 46.6811 37.1343 47.0848 37.5814 48.0203C38.0692 49.0409 38.3987 49.9995 38.5699 50.8961L38.5318 50.7361C38.5952 50.9578 38.6925 51.3887 38.8239 52.0286C38.838 52.0973 38.8481 52.1667 38.8543 52.2364C38.8526 52.217 38.8509 52.2011 38.8492 52.1887L38.8492 52.1891C38.8724 52.3591 39.0006 53.0529 39.234 54.2705L39.2344 54.2729C39.247 54.339 39.2472 54.3399 39.2349 54.2755C39.2385 54.2943 39.2422 54.3155 39.2455 54.3368C39.4567 55.6971 39.6355 56.7007 39.7818 57.3474C39.7874 57.3719 39.7924 57.3964 39.7969 57.4211C39.8289 57.5955 39.8642 57.8711 39.9026 58.2477L39.899 58.2152C39.9594 58.7183 39.9753 59.2332 39.9465 59.7598L39.9492 59.6685C39.9485 59.8325 39.9382 59.9922 39.9183 60.1474V60.1474C39.8776 60.4663 39.7969 60.7653 39.6764 61.0444C39.2655 61.9957 38.1445 62.4409 37.1725 62.0388C36.2005 61.6367 35.7456 60.5395 36.1564 59.5882Z" fill="#05276C"/>
<path d="M35.5309 51.0309C33.9637 51.3012 32.3701 51.3336 30.7501 51.1281L30.8002 51.1338C30.2865 51.082 29.8631 51.0182 29.5299 50.9421L29.5427 50.945C28.9016 50.8032 28.0526 50.5606 26.9958 50.2173L27.141 50.2583C27.0426 50.2346 26.9754 50.2198 26.9394 50.2139L26.9394 50.2139C27.9992 50.3887 28.6682 49.923 28.9465 48.8166L28.9471 48.8142C29.0722 48.314 28.9982 47.845 28.7252 47.4071C28.8436 47.5969 28.9264 47.8059 28.9698 48.0243L28.9698 48.0243C28.9155 47.7511 28.8189 47.5469 28.68 47.412C28.7323 47.4629 28.8393 47.5403 29.0008 47.6443L28.9151 47.5923C29.1619 47.7335 29.6755 47.9544 30.4557 48.255C30.6567 48.3324 30.8428 48.4426 31.0061 48.5809C30.8395 48.4398 30.6775 48.3431 30.52 48.2907C30.8773 48.4096 32.1665 48.6644 34.3876 49.0552C35.4262 49.238 36.1168 50.2102 35.9301 51.2267C35.7434 52.2432 34.7501 52.9191 33.7114 52.7364C31.302 52.3125 29.8281 52.0109 29.2897 51.8317C28.9764 51.7274 28.715 51.5866 28.5056 51.4093L29.056 51.7352C28.0928 51.3642 27.4029 51.0595 26.9863 50.8211C26.9572 50.8044 26.9287 50.7871 26.9006 50.769C26.5256 50.5275 26.2212 50.2933 25.9876 50.0663L25.9876 50.0663C25.5703 49.6608 25.3139 49.2181 25.2186 48.7384L25.4632 49.3556C25.1844 48.9086 25.1085 48.4317 25.2352 47.9249L25.2358 47.9225C25.5229 46.7814 26.3025 46.3158 27.5748 46.5257C27.7042 46.5471 27.864 46.5807 28.0544 46.6266C28.1033 46.6383 28.1518 46.652 28.1996 46.6676C29.1376 46.9723 29.8661 47.182 30.385 47.2968C30.3892 47.2977 30.3935 47.2987 30.3977 47.2996C30.5737 47.3398 30.8382 47.3777 31.1913 47.4132C31.2081 47.4149 31.2248 47.4168 31.2415 47.4189C32.4752 47.5755 33.6839 47.5517 34.8676 47.3475C35.9068 47.1682 36.8978 47.8474 37.0809 48.8646C37.2641 49.8817 36.5701 50.8516 35.5309 51.0309Z" fill="#05276C"/>
<path d="M42.2602 59.1454C42.1828 59.2053 42.1058 59.2585 42.029 59.3048V59.3049C42.0281 59.3014 42.0272 59.2979 42.0263 59.2944L42.0245 59.2946C42.1051 59.251 42.1833 59.2014 42.2584 59.1455L42.2602 59.1454ZM41.3173 55.5789C40.8553 55.5914 40.3708 55.8093 39.8637 56.2327C39.2659 56.7317 39.0601 57.5136 39.2767 58.2048L39.275 58.205C38.789 58.431 38.4615 58.887 38.2924 59.5728L38.2933 59.5729L37.3235 62.936L37.3217 62.9362C36.5934 63.6035 35.8131 64.7859 34.9806 66.4836L34.9791 66.4837C34.6344 67.135 34.259 68.1238 33.8531 69.4502C33.8385 69.498 33.8258 69.5465 33.8151 69.5954C33.7683 69.8094 33.7274 70.0132 33.6924 70.2067L33.6907 70.2069C33.4141 70.8888 33.1315 71.6588 32.8428 72.5166C32.8166 72.5945 32.7957 72.6739 32.7802 72.7545C32.6883 73.2308 32.6394 73.6208 32.6336 73.9246C32.6156 74.8618 32.9146 75.5093 33.5305 75.867L33.5288 75.8671C33.8227 76.4568 34.229 77.0197 34.7475 77.556C34.7882 77.5982 34.831 77.6385 34.8756 77.6768C34.9453 77.7366 35.0151 77.7928 35.085 77.8452V77.8453C35.7038 78.3098 36.2889 78.5346 36.8401 78.5198C37.4122 78.5044 37.9479 78.2309 38.4472 77.6991C39.1612 76.9386 39.1102 75.7556 38.3331 75.0568C38.0013 74.7583 37.5908 74.5965 37.1737 74.5681L37.1719 74.5683C37.106 74.476 37.0483 74.3844 36.999 74.2934L36.9973 74.2935C37.1207 74.0571 37.2318 73.8276 37.3308 73.6049L37.3291 73.6051C37.4457 73.5192 37.5598 73.4226 37.6713 73.3152C38.3175 72.6924 39.0506 71.454 39.8705 69.5998C39.8946 69.5454 39.916 69.4898 39.9347 69.4334C40.1772 68.7008 40.3167 68.1124 40.3532 67.6681V67.668C40.3614 67.5679 40.3659 67.4706 40.3665 67.3763L40.3647 67.3765C40.3924 67.2607 40.4188 67.1463 40.444 67.0335L40.4422 67.0336C40.5659 66.9291 40.6776 66.8074 40.7736 66.6693C40.8247 66.5958 40.8721 66.5163 40.9157 66.4306L40.9145 66.4308C41.9182 64.3972 42.5148 62.9815 42.7041 62.1838L42.7023 62.184C43.0356 60.9703 43.2544 59.7371 43.3587 58.4844L43.3586 58.4845C43.3797 58.2654 43.3881 58.0674 43.3839 57.8904V57.8905C43.3691 57.2776 43.1905 56.7747 42.848 56.3818C42.3688 55.832 41.8586 55.5644 41.3173 55.5789Z" fill="#05276C"/>
<path d="M48.7395 59.6819C48.5674 59.6866 48.3889 59.7067 48.2043 59.7423C47.6201 59.8548 46.8416 60.1622 45.8688 60.6645C44.9355 61.1465 44.578 62.2777 45.0704 63.1912C45.1351 63.3112 45.2113 63.4215 45.2969 63.5215L45.2951 63.5216C45.011 63.8149 44.7871 64.0945 44.6233 64.3603C44.4613 64.6232 44.3429 64.8844 44.2681 65.144V65.1441C44.1424 65.1254 44.0098 65.1179 43.8703 65.1216C43.6572 65.1273 43.4279 65.1592 43.1824 65.2172C42.8938 65.2854 42.6041 65.4102 42.3134 65.5916L42.3134 65.5917C42.2042 65.6598 42.0923 65.7374 41.9776 65.8243L41.9758 65.8245C41.459 66.1901 40.8356 66.6531 40.1056 67.2135V67.2136C40.4389 66.5215 40.3146 65.6705 39.7315 65.0967C39.3447 64.7162 38.8322 64.5326 38.324 64.5462C37.8544 64.5589 37.3887 64.74 37.0293 65.0898C35.9394 66.1509 35.3097 68.0277 35.1403 70.7201C35.1351 70.8029 35.1355 70.886 35.1416 70.9688C35.2779 72.8279 35.8392 74.4014 36.8254 75.6894C36.8301 75.6956 36.8349 75.7018 36.8397 75.7079C37.3029 76.2973 37.8205 76.5844 38.3927 76.569C38.8473 76.5567 39.3363 76.3537 39.8598 75.9597L39.8599 75.9596C39.883 75.9422 39.9063 75.9243 39.9296 75.9058L39.9297 75.9057C39.9837 75.863 40.0408 75.8147 40.101 75.7608L40.1027 75.7609C40.1908 75.7702 40.2787 75.7736 40.3663 75.7713C40.7112 75.762 41.0526 75.6619 41.3904 75.4711C41.4118 75.4589 41.433 75.4464 41.454 75.4335C41.5366 75.3825 41.6186 75.3269 41.7003 75.2666L41.7004 75.2665C42.5355 74.6492 43.529 73.279 44.6809 71.1559C44.6836 71.1509 44.6865 71.1454 44.6892 71.1403C45.0198 70.5169 45.283 69.8863 45.4788 69.2486L45.477 69.2487C45.9784 68.9506 46.4931 68.6296 47.021 68.2858C47.0297 68.2801 47.0386 68.2742 47.0472 68.2684C48.9548 66.981 50.2767 65.7409 51.013 64.548C51.041 64.5026 51.067 64.456 51.091 64.4085C51.1713 64.2492 51.2379 64.0999 51.291 63.9605C51.6438 63.0329 51.5771 62.2992 51.091 61.7594L51.0891 61.7596C51.1213 60.5659 50.4802 59.8806 49.1658 59.7038V59.7039C49.0283 59.6853 48.8862 59.678 48.7395 59.6819Z" fill="#05276C"/>
<path d="M30.0165 48.02L30.0165 48.0201C29.6974 49.0548 30.0067 49.7107 30.9445 49.9877L30.9444 49.9877C30.9477 49.9887 30.9503 49.9894 30.9521 49.9899L30.9521 49.9899C30.9302 49.9844 30.8933 49.9781 30.8413 49.9713C30.8234 49.9689 30.8055 49.9663 30.7877 49.9634C30.2997 49.885 29.2814 49.7713 27.7327 49.6223L27.7871 49.6268C27.0819 49.5788 26.6597 49.5549 26.5205 49.5551C27.1985 49.5539 27.7193 49.244 28.083 48.6254C27.7838 49.1343 27.2578 49.4762 26.6624 49.5486C26.6485 49.5502 26.6385 49.5517 26.6321 49.5528C27.5191 49.3881 27.8972 48.7906 27.7665 47.7605L27.7664 47.7603C27.7307 47.4788 27.633 47.2325 27.4733 47.0216L27.1553 46.6933C27.3923 46.8851 27.6179 47.0037 27.8322 47.0491C27.8862 47.0605 27.9397 47.0742 27.9926 47.0902C28.118 47.1282 28.2901 47.1279 28.5087 47.0893L28.266 47.1485C28.3852 47.1111 28.4669 47.0818 28.511 47.0604C27.7673 47.4202 27.5453 48.0584 27.8449 48.9751L27.8448 48.9748C27.9289 49.2323 28.0649 49.4541 28.2528 49.6404L28.3732 49.7498C28.1028 49.5243 27.6898 49.3167 27.1343 49.1271L27.2179 49.1535C26.7847 49.0272 26.4883 48.9697 26.3287 48.9811C26.3359 48.9806 26.3461 48.9791 26.3595 48.9767C26.3511 48.9782 26.3427 48.9797 26.3344 48.9812C26.4546 48.9606 26.5738 48.8882 26.692 48.7639L26.7462 48.7043C26.7449 48.7058 26.744 48.7069 26.7434 48.7076L26.7436 48.7074C26.8621 48.5607 26.906 48.3527 26.8752 48.0835L26.8706 48.0467C26.8284 47.7331 26.7238 47.5036 26.5571 47.3581C26.5604 47.361 26.566 47.3654 26.5736 47.3712L26.4936 47.3136C26.8432 47.5518 27.0543 47.6933 27.127 47.7382L27.1271 47.7382C26.8802 47.5859 26.5955 47.5002 26.2732 47.4813C26.6456 47.5032 27.0033 47.6313 27.3022 47.8498L27.3023 47.8499C27.1296 47.7236 26.9649 47.6398 26.8082 47.5985L26.8082 47.5985C26.8114 47.5994 26.8166 47.6006 26.8238 47.6023C27.8504 47.8415 28.4844 48.85 28.24 49.8547C27.9956 50.8594 26.9652 51.48 25.9386 51.2408C25.8955 51.2307 25.8543 51.2205 25.8152 51.2102L25.8151 51.2102C25.5002 51.1273 25.2335 51.0059 25.015 50.8461L26.0442 51.2148C25.7138 51.1953 25.3954 51.0911 25.0891 50.9022L25.0892 50.9022C24.9672 50.827 24.7076 50.654 24.3102 50.3832C24.2831 50.3647 24.2564 50.3455 24.2302 50.3257C24.1542 50.2679 24.0821 50.2093 24.014 50.1499C23.4742 49.6789 23.1636 49.1409 23.082 48.536C23.0803 48.5237 23.0788 48.5115 23.0774 48.4992C22.9917 47.7493 23.2145 47.0455 23.7458 46.3878L23.7459 46.3876C23.7763 46.35 23.8076 46.3127 23.8399 46.2758C23.8576 46.2555 23.8756 46.2357 23.8941 46.2162C24.3595 45.7266 24.9541 45.4201 25.6779 45.2966L25.6528 45.301C25.7809 45.2774 25.9132 45.2607 26.0495 45.251C26.6751 45.2061 27.4284 45.3122 28.3094 45.5692C28.3375 45.5773 28.3654 45.5862 28.393 45.5956C29.3988 45.939 30.2183 46.3747 30.8516 46.9029C30.8933 46.9376 30.9335 46.9741 30.9719 47.0123C31.2123 47.2505 31.3832 47.525 31.4848 47.8358L31.4847 47.8356C31.8532 48.9629 31.4264 49.8222 30.2043 50.4134C29.9892 50.5175 29.7311 50.6166 29.4302 50.7108C29.3507 50.7357 29.2696 50.7555 29.1874 50.77C28.3572 50.9166 27.5825 50.8811 26.8633 50.6634L27.0237 50.7046C26.2034 50.5308 25.4357 50.1547 24.7206 49.5762C24.6014 49.4798 24.4946 49.3696 24.4026 49.248C24.1638 48.9325 24.021 48.5904 23.9742 48.2216L23.9741 48.2214C23.8103 46.9307 24.4588 46.1496 25.9195 45.8783C26.006 45.8622 26.0966 45.8484 26.1913 45.8369L24.7708 46.76C25.1404 46.1314 25.7213 45.8163 26.5136 45.815C26.7437 45.8146 27.2565 45.8414 28.0522 45.8956C28.0704 45.8968 28.0885 45.8983 28.1066 45.9C29.7373 46.0569 30.8375 46.1811 31.407 46.2727L31.3533 46.2648C31.5551 46.2915 31.7401 46.3261 31.9084 46.3687C31.9563 46.3808 32.0031 46.3936 32.0488 46.4071L32.0487 46.4071C33.5499 46.8506 34.092 47.7485 33.675 49.1007C33.3701 50.0895 32.3039 50.6492 31.2937 50.3507C30.2834 50.0523 29.7116 49.0088 30.0165 48.02Z" fill="#05276C"/>
<path d="M66.442 73.105L66.442 73.1051C66.5506 73.1502 66.6614 73.2086 66.7746 73.2803V73.2804C66.6987 73.2322 66.6194 73.1895 66.5373 73.1524C66.5068 73.1386 66.4743 73.1228 66.44 73.105L66.442 73.105ZM61.0557 48.1213C61.0527 48.1214 61.0498 48.1215 61.0468 48.1216C60.7138 48.132 60.4063 48.17 60.1246 48.2353C59.5537 48.3678 59.0792 48.6119 58.7012 48.9675L58.7009 48.9676C58.4098 49.2366 58.173 49.5669 57.9904 49.9583V49.9584C57.8288 50.3049 57.7087 50.7076 57.6301 51.1665L57.6281 51.1666C57.5804 51.1906 57.5326 51.2162 57.4847 51.2435L57.4845 51.2435C57.401 51.2911 57.3205 51.3439 57.243 51.4019C56.5695 51.9062 56.3162 52.7846 56.6209 53.5592C57.1838 54.9898 57.6169 55.936 57.9205 56.3978L57.9205 56.3978C58.3157 56.999 58.7754 57.3506 59.2996 57.4526L59.2976 57.4527C59.7227 58.2662 60.1756 59.1135 60.6562 59.9947C60.6844 60.0463 60.715 60.0967 60.748 60.1455L60.8211 60.2537V60.2538C60.6662 60.2198 60.5091 60.2054 60.3532 60.2096C59.8511 60.2231 59.3626 60.4301 59.0059 60.8055C58.6909 61.1371 58.5173 61.5593 58.4965 61.9916V61.9917C58.2801 61.5777 57.9065 61.2417 57.4223 61.0771C57.1975 61.0007 56.968 60.9678 56.7435 60.9739C56.3131 60.9855 55.9008 61.1401 55.5737 61.4057V61.4058C55.5235 61.404 55.4739 61.4038 55.4251 61.4051C54.7201 61.424 54.1682 61.761 53.7695 62.416L53.7694 62.416C53.392 63.0362 53.3711 63.7353 53.7067 64.5135L53.7067 64.5135C53.9534 65.0854 54.5131 65.9072 55.3858 66.9791C55.4074 67.0057 55.4299 67.0318 55.453 67.0572C55.7538 67.3879 56.0411 67.705 56.3149 68.0086L56.313 68.0087C56.7767 68.6592 57.867 69.9256 59.5841 71.8081L59.5821 71.8083C59.9717 72.3159 60.3044 72.7743 60.58 73.1836C60.8155 73.5331 61.1522 73.7818 61.5291 73.9142L61.5271 73.9143C61.7873 74.1936 62.0567 74.4821 62.3354 74.7798L62.3355 74.7799C62.4011 74.8499 62.4721 74.915 62.5479 74.9746C63.4761 75.7039 64.2348 76.211 64.824 76.496L64.822 76.4961C65.3154 76.7872 65.7745 76.9271 66.1993 76.9157C66.8308 76.8987 67.3866 76.5473 67.8666 75.8615C68.0135 75.6517 68.1151 75.4148 68.1652 75.1654C68.1942 75.021 68.2139 74.8726 68.2244 74.7203L68.2244 74.7201C68.2754 73.9732 68.0918 73.0976 67.6735 72.0935L67.6756 72.0935C67.6904 72.0935 67.7051 72.0933 67.7198 72.0929C68.2885 72.0776 68.7784 71.7438 69.1895 71.0915V71.0916C69.4586 70.6647 69.546 70.1606 69.4515 69.5794V69.5795C69.441 69.5145 69.428 69.4458 69.4127 69.3736C69.4056 69.3406 69.3977 69.3078 69.3889 69.2752L68.2893 65.2187C68.285 65.2029 68.2805 65.1872 68.2758 65.1716C68.0739 64.4983 67.6466 63.6446 66.994 62.6104C66.9836 62.594 66.973 62.5777 66.9621 62.5616L63.9958 58.1715L63.9938 58.1717C63.0145 56.3746 62.1563 54.7267 61.4191 53.228L61.4171 53.2281C61.3496 52.8358 61.3206 52.5522 61.3301 52.3774L61.3282 52.3775C61.3409 52.3093 61.3496 52.2406 61.3544 52.1715C61.3624 52.058 61.372 51.9575 61.3835 51.8699L61.3854 51.8699C63.1514 51.9244 64.3987 52.0031 65.1274 52.1059C65.2377 52.1215 65.3471 52.1275 65.4548 52.1246C66.3673 52.1 67.1566 51.4361 67.2913 50.5218C67.4418 49.4995 66.7172 48.5513 65.6727 48.404C64.7547 48.2745 63.2516 48.1803 61.1632 48.1214C61.1274 48.1204 61.0915 48.1203 61.0557 48.1213Z" fill="#05276C"/>
<path d="M59.6726 43.4436C60.3356 43.0325 61.0601 42.9553 61.846 43.2119C61.9632 43.2502 62.0763 43.2994 62.1838 43.3591C62.9302 43.7733 64.2157 44.1522 66.0402 44.4959L65.9105 44.476L65.9112 44.4761L65.9131 44.4763C66.9795 44.6047 67.5858 44.6746 67.732 44.6859C66.5516 44.5943 65.8857 45.1385 65.7343 46.3185L65.7405 46.2749C65.6578 46.8159 65.7919 47.2992 66.1427 47.725C65.6802 47.1637 65.5887 46.3922 65.9074 45.7422C66.2262 45.0921 66.8983 44.6793 67.635 44.6811C69.2376 44.6852 70.2998 44.7207 70.8215 44.7876C70.8295 44.7887 70.8374 44.7897 70.8454 44.7909L73.8338 45.2119L73.7205 45.1993L76.2475 45.4058C76.3586 45.4149 76.4686 45.4334 76.5763 45.4613C77.6689 45.7436 78.5228 46.13 79.1381 46.6205C79.1529 46.6324 79.1677 46.6446 79.1822 46.6568C79.9853 47.3376 80.5453 47.959 80.8622 48.5211L80.8622 48.5212C81.4838 49.624 81.4168 50.6023 80.6613 51.4562L80.6613 51.4561C80.324 51.8373 79.8733 52.1129 79.3092 52.2829L79.3108 52.2825C79.3063 52.2838 79.3014 52.2853 79.2963 52.2868C79.2921 52.2881 79.2881 52.2892 79.2839 52.2904C78.7906 52.4338 78.2943 52.4849 77.7949 52.4436L77.7916 52.4434C76.0741 52.2986 75.0832 52.2269 74.8187 52.2285C74.9499 52.2278 75.096 52.2037 75.257 52.1564C75.0848 52.207 74.9062 52.2336 74.7264 52.2353L69.3952 52.2869L69.5727 52.2771C69.1178 52.3231 68.828 52.3605 68.7033 52.3894L68.7033 52.3894C69.6624 52.1671 70.0858 51.5251 69.9735 50.4633L69.9736 50.4637C69.8793 49.5696 69.4311 49.0467 68.629 48.895C68.663 48.9014 68.7257 48.9094 68.8172 48.919C69.8664 49.0292 70.6257 49.951 70.5132 50.9779C70.4006 52.0049 69.4588 52.748 68.4095 52.6379C68.2116 52.6171 68.043 52.5935 67.9039 52.5672C66.8494 52.3678 66.2722 51.7946 66.1723 50.8478L66.1723 50.8482C66.0543 49.7317 66.6044 49.0323 67.8227 48.7499L67.8227 48.7499C68.1082 48.6837 68.5607 48.6193 69.18 48.5567C69.239 48.5507 69.2982 48.5475 69.3575 48.5469L74.6886 48.4953L74.1579 48.5742C74.3477 48.5185 74.5601 48.4899 74.7952 48.4884C75.1771 48.4861 76.2852 48.5623 78.1196 48.717L78.1162 48.7167C78.1368 48.7184 78.1634 48.7145 78.1961 48.705L78.1838 48.7086C78.1832 48.7088 78.1829 48.7089 78.1829 48.7089L78.1845 48.7084C78.0507 48.7487 77.9133 48.8485 77.7725 49.0076L77.7726 49.0076C77.365 49.4681 77.2795 49.9082 77.5161 50.3279L77.5161 50.3279C77.4187 50.1551 77.1401 49.8738 76.6803 49.4841L76.7245 49.5204C76.5358 49.37 76.1613 49.2224 75.6008 49.0776L75.9296 49.133L73.4026 48.9265C73.3647 48.9235 73.3269 48.9193 73.2893 48.9139L70.3008 48.4929L70.3247 48.4961C69.9646 48.4499 69.0647 48.4249 67.6252 48.4213L69.1176 45.3774C69.4685 45.8034 69.6026 46.287 69.5199 46.8281L69.5261 46.7845C69.3743 47.9678 68.6756 48.5111 67.43 48.4144C67.2287 48.3988 66.5676 48.3235 65.4465 48.1885L65.4484 48.1887L65.4477 48.1886C65.4029 48.1833 65.3603 48.1767 65.3179 48.1687C63.0825 47.7476 61.4095 47.2289 60.299 46.6127L60.6367 46.7599C60.9984 46.878 61.3587 46.8257 61.7177 46.6031C60.8263 47.1558 59.6458 46.8966 59.0811 46.0242C58.5163 45.1517 58.7812 43.9963 59.6726 43.4436Z" fill="#05276C"/>
</g>
<defs>
<clipPath id="clip0_293_19159">
<rect width="99" height="96.8936" fill="white"/>
</clipPath>
</defs>
</svg>
