<svg width="266" height="259" viewBox="0 0 266 259" fill="none" xmlns="http://www.w3.org/2000/svg">
<g clip-path="url(#clip0_2177_1034)">
<path d="M116.11 94.37C114.335 92.1772 112.675 91.2734 110.332 90.021C109.015 89.3172 107.473 88.4952 105.773 87.3038C104.26 86.2433 103.802 86.7943 103.537 87.1355C103.081 87.7215 102.604 89.0054 102.832 90.9808C102.962 92.1054 103.067 93.119 103.161 94.0396C103.242 94.825 103.315 95.5328 103.391 96.1898C103.702 98.881 104.047 100.496 104.965 102.211C105.359 102.948 105.392 103.823 105.055 104.606C104.623 105.608 104.327 108.66 105.219 114.344C105.422 115.64 106.113 117.073 107.275 118.823L106.963 118.435L112.67 124.365C113.215 124.931 113.489 125.692 113.428 126.472C113.368 127.252 112.978 127.985 112.35 128.5C110.318 130.165 106.717 131.931 101.974 133.831L102.854 133.296L94.9824 140.08L95.2491 139.821C92.7898 142.525 93.0428 143.717 93.2641 144.151C93.487 144.588 94.0892 145.241 95.8894 145.247C100.513 145.264 104.921 144.218 109.647 143.081C110.089 142.974 110.538 142.866 110.984 142.76C114.445 141.935 117.265 143.651 117.343 143.698C117.817 143.979 118.195 144.386 118.432 144.871C119.785 147.642 120.331 153.717 120.309 153.499L120.175 152.883C120.244 153.084 120.289 153.292 120.31 153.503C120.674 157.283 120.319 161.094 119.989 164.671C119.858 166.082 120.064 168.254 120.718 171.25C121.474 174.708 123.04 176.616 124.829 177.57L123.675 177.23C126.386 177.468 129.246 176.249 132.308 172.249L132.308 172.249C132.586 171.886 132.93 171.458 133.295 171.005C133.818 170.355 134.426 169.598 135.094 168.726C137.342 165.789 140.235 161.577 142.352 156.33C142.954 154.838 144.691 154.061 146.231 154.594C147.771 155.127 148.532 156.769 147.93 158.261C145.539 164.187 142.301 168.875 139.886 172.03C139.17 172.966 138.521 173.773 137.999 174.422C137.619 174.895 137.325 175.261 137.101 175.554L137.101 175.554C133.287 180.536 128.547 183.436 122.954 182.944C122.547 182.908 122.155 182.792 121.801 182.604C118.205 180.687 115.864 177.201 114.855 172.583C114.162 169.412 113.815 166.589 114.023 164.333C114.362 160.666 114.653 157.376 114.346 154.198L114.48 154.818L114.347 154.202C114.323 153.961 113.811 149.102 112.994 147.427L114.083 148.601C114.161 148.647 113.18 148.109 112.267 148.326C111.831 148.43 111.386 148.537 110.944 148.644C106.323 149.756 101.189 151.006 95.6906 150.986C92.1203 150.973 89.2421 149.485 87.8684 146.792C85.9911 143.111 87.9047 139.291 90.7839 136.124C90.8672 136.033 90.9563 135.946 91.0506 135.865L98.9226 129.081C99.1832 128.856 99.4811 128.675 99.8032 128.546C104.56 126.641 107.327 125.176 108.534 124.186L108.213 128.321L102.506 122.391C102.39 122.271 102.286 122.141 102.194 122.003C100.896 120.047 99.6824 117.825 99.2956 115.36C98.4076 109.7 98.3893 105.195 99.5286 102.551L99.6184 104.946C98.2114 102.315 97.7732 99.8819 97.4384 96.9871C97.3577 96.2899 97.2811 95.5449 97.2012 94.7682L97.2013 94.7682C97.1066 93.8475 97.0051 92.8615 96.8798 91.7781C96.5362 88.8074 97.1261 85.9118 98.7718 83.7952C101.378 80.4431 105.723 80.0595 109.401 82.6379C110.783 83.607 112.044 84.2834 113.366 84.9902C115.787 86.2848 118.346 87.6364 120.883 90.7708C121.882 92.005 121.623 93.8112 120.305 94.805C118.987 95.7989 117.109 95.6041 116.11 94.37Z" fill="#94C595"/>
<path d="M148.881 154.07C149.383 154.798 150.661 155.73 161.11 159.289C168.158 161.689 170.179 159.725 170.212 159.664C170.387 159.345 170.621 159.058 170.903 158.818C172.279 157.648 172.782 156.248 171.43 153.043L171.43 153.044C171.433 153.051 171.432 153.049 171.433 153.05L171.433 153.052C171.093 152.31 168.635 149.062 162.741 143.292C162.65 143.203 162.566 143.108 162.488 143.008L155.439 133.908C154.928 133.248 154.748 132.399 154.947 131.582C155.145 130.765 155.703 130.061 156.473 129.653L169.218 122.904L169.208 122.91C170.576 122.179 171.48 121.464 172.197 120.884C174.17 119.286 174.815 117.686 174.365 115.57L174.365 115.569C174.412 115.79 174.487 115.897 174.478 115.883L174.478 115.883C174.076 115.271 171.153 113.36 167.019 113.3C161.983 113.226 155.786 115.249 148.021 118.48C147.055 118.882 145.954 118.779 145.116 118.209C144.278 117.639 143.823 116.684 143.914 115.686C144.766 106.37 142.93 102.711 140.857 101.674C140.014 101.252 139.446 100.461 139.331 99.5487C139.216 98.6361 139.568 97.7133 140.277 97.0688L140.277 97.0689C140.266 97.0787 140.261 97.0846 140.261 97.0841L140.261 97.0843C140.751 96.5528 142.212 92.4702 139.277 84.2713L139.277 84.2719C139.277 84.2697 139.28 84.2787 139.278 84.2741L139.279 84.2751C138.873 83.1922 136.223 78.7484 135.153 77.9915C135.068 77.9315 135.386 78.199 136.018 78.2449L136.018 78.2449C136.033 78.246 136.041 78.2459 136.04 78.2459C135.642 78.2505 134.571 78.726 134.198 79.0503C134.155 79.0874 134.312 78.9659 134.484 78.6916L134.484 78.6915C132.589 81.7236 126.667 93.8996 126.618 94.002C125.912 95.4544 124.127 96.1181 122.632 95.4844C121.136 94.8507 120.496 93.1596 121.201 91.7073C121.151 91.8099 127.259 79.2271 129.37 75.851L129.37 75.8509C129.657 75.3913 130.017 75.0516 130.246 74.8521C131.353 73.8896 133.812 72.535 136.144 72.508C136.306 72.5061 136.474 72.5105 136.645 72.5229L136.645 72.5229C137.657 72.5964 138.41 73.0636 138.8 73.3391C141.299 75.1062 144.426 80.8712 144.922 82.1977L144.923 82.1987C144.934 82.2298 144.937 82.2354 144.948 82.2676L144.948 82.2681C147.968 90.7054 147.591 97.6748 144.697 100.812L144.697 100.812C144.583 100.937 144.461 101.058 144.332 101.176L143.751 96.5707C149.485 99.4397 150.711 106.935 149.88 116.02L145.773 113.227C153.489 110.016 160.797 107.467 167.286 107.562C172.575 107.639 177.761 109.966 179.574 112.726L179.574 112.726C179.845 113.138 180.105 113.656 180.235 114.265L180.235 114.265C181.189 118.749 179.422 122.437 175.983 125.221C175.166 125.883 173.9 126.891 172.005 127.902L171.995 127.908L159.251 134.656L160.285 130.401L167.334 139.501L167.081 139.217C172.829 144.844 176.09 148.791 176.927 150.613L176.928 150.614C176.948 150.659 176.971 150.711 176.991 150.759L176.991 150.759C178.844 155.151 178.905 159.572 174.805 163.059L175.497 162.213C172.951 166.858 165.929 167.076 158.958 164.702C149.46 161.467 145.685 159.983 143.856 157.333C142.956 156.029 143.351 154.242 144.739 153.341C146.127 152.44 147.981 152.767 148.881 154.07Z" fill="#94C595"/>
<path d="M136.361 92.1267C137.293 90.9688 138.725 90.6192 139.932 90.8134C140.281 90.8695 140.972 90.9361 142.22 91.0528C142.369 91.0668 142.672 91.0952 142.843 91.1112C144.415 91.2594 145.779 91.5616 146.888 91.9837C150.302 93.2826 152.76 97.6843 153.24 98.9695L153.239 98.9692C153.27 99.0515 153.303 99.1456 153.332 99.2421L153.332 99.2415C154.452 102.905 155.045 105.625 155.062 108.334C155.076 110.576 155.252 114.266 155.252 114.279C155.328 115.859 154.05 117.236 152.398 117.355C150.746 117.474 149.345 116.289 149.27 114.709C149.27 114.723 149.088 110.913 149.073 108.537C149.061 106.627 148.652 104.509 147.58 101.002L147.58 101.001C147.589 101.029 147.594 101.043 147.594 101.042L147.594 101.042C147.255 100.134 145.547 97.7096 144.538 97.3255C144.038 97.1354 143.229 96.9302 142.083 96.8221C141.938 96.8084 141.592 96.776 141.465 96.7641C140.342 96.6591 139.378 96.5708 138.772 96.4733C139.371 96.5696 140.366 96.4115 141.062 95.5473C140.038 96.8196 138.155 97.0852 136.857 96.1407C135.559 95.1961 135.337 93.399 136.361 92.1267Z" fill="#94C595"/>
<path d="M130.58 75.6225C129.187 76.0957 128.133 76.9081 127.417 78.0594L127.413 78.061C125.878 78.6599 124.654 79.9454 123.74 81.9174C123.127 83.2395 122.942 84.7339 123.185 86.4007C123.243 86.799 123.326 87.2168 123.434 87.6541C123.457 87.747 123.483 87.8394 123.51 87.9309C123.802 88.8943 124.109 89.822 124.432 90.714L124.428 90.7155C124.044 90.9205 123.66 91.1405 123.276 91.3756C123.244 91.3951 123.212 91.4149 123.181 91.4349C123.05 91.5178 122.922 91.6028 122.795 91.6898L122.795 91.69C122.406 91.9574 122.038 92.2415 121.689 92.5424L121.689 92.5426C119.406 92.3079 117.318 92.4471 115.424 92.96L115.42 92.9615C115.078 92.8666 114.731 92.7773 114.379 92.6935L114.376 92.695C113.44 90.9223 112.643 89.6137 111.985 88.769L111.985 88.7689C111.149 87.6968 110.199 86.9276 109.135 86.4613L109.135 86.4615C107.703 85.8341 106.059 85.773 104.55 86.2856C104.485 86.3078 104.419 86.3311 104.355 86.3555C102.793 86.9423 101.528 88.1039 100.848 89.5749C100.708 89.8786 100.583 90.1734 100.475 90.4593L100.475 90.4594C99.2558 93.6873 99.7725 96.2785 102.025 98.2333L102.025 98.2333C102.088 98.2876 102.152 98.3406 102.217 98.3923C102.274 98.4379 102.331 98.4836 102.389 98.5294L102.385 98.5308C102.348 98.8428 102.326 99.1663 102.318 99.5014L102.318 99.5015C102.288 100.834 102.632 102.182 103.351 103.544L103.351 103.544C103.366 103.573 103.382 103.602 103.398 103.631L103.394 103.633C103.107 104.234 102.877 104.913 102.704 105.669L102.704 105.669C102.439 106.828 102.47 108.06 102.797 109.365L102.797 109.365C102.901 109.795 103.035 110.222 103.198 110.648L103.198 110.648C103.335 111.007 103.494 111.365 103.674 111.722L103.67 111.723C103.773 113.117 104.314 114.479 105.295 115.81L105.295 115.81C105.328 115.855 105.362 115.9 105.396 115.945L105.392 115.946C105.437 116.755 105.659 117.562 106.075 118.318C107.272 120.494 109.73 121.6 112.167 121.285L112.164 121.287C114.557 122.671 116.985 123.63 119.447 124.163C120.414 124.373 121.394 124.347 122.315 124.122L122.311 124.123C123.108 124.193 123.869 124.104 124.595 123.857C125.31 123.614 125.992 123.218 126.639 122.668L126.643 122.667C129.203 122.957 131.462 122.809 133.421 122.223L133.422 122.223C133.543 122.187 133.663 122.149 133.783 122.109C133.798 122.104 133.812 122.099 133.827 122.094C133.851 122.086 133.875 122.078 133.899 122.069C134.793 121.754 135.619 121.374 136.376 120.931C136.556 120.826 136.731 120.719 136.901 120.609L136.905 120.608C138.363 120.536 139.731 120.283 141.007 119.849C142.075 119.487 143.078 118.998 144.019 118.382L144.019 118.382C144.154 118.294 144.287 118.203 144.418 118.11L144.418 118.11C145.22 117.54 145.95 116.884 146.607 116.141C146.965 115.736 147.267 115.287 147.504 114.808C147.562 114.691 147.619 114.573 147.674 114.454L147.67 114.456C150.183 111.324 150.619 107.943 148.979 104.313L148.979 104.313C148.855 104.038 148.718 103.765 148.568 103.493L148.564 103.495C148.377 102.767 148.144 102.031 147.866 101.286L147.865 101.287C147.281 99.6368 146.604 98.1446 145.833 96.8102L145.829 96.8118C145.908 94.7096 145.542 92.2264 144.73 89.362C144.677 89.1751 144.614 88.9911 144.542 88.8108C142.405 83.4785 139.956 79.4938 137.195 76.8566C135.811 75.5356 133.828 74.955 131.868 75.298C131.411 75.3781 130.982 75.4862 130.58 75.6225Z" fill="#94C595"/>
<path d="M135.962 145.702L135.965 145.705C135.224 144.91 133.888 144.71 134.631 144.901L134.631 144.901C134.635 144.902 134.646 144.905 134.676 144.912L134.676 144.912C135.281 145.063 137 145.506 139.218 146.9C140.033 147.413 140.917 148.15 141.572 148.69C142.287 149.281 142.759 149.663 143.075 149.862L143.075 149.862C143.115 149.887 143.133 149.897 143.136 149.898L143.136 149.899C143.29 149.98 142.835 149.676 142.063 149.727C142.033 149.729 142.018 149.732 142.019 149.731C142.472 149.656 143.642 148.992 144.004 148.636L144.004 148.636C144.056 148.585 143.879 148.739 143.709 149.064L143.709 149.065C143.255 149.933 143.453 150.764 143.41 150.379L143.41 150.379C143.402 150.302 143.369 150.118 143.284 149.677L143.284 149.677C143.04 148.404 142.492 145.69 142.933 143.08C143.116 141.997 143.983 138.238 145.454 136.335L145.454 136.335C145.564 136.193 145.689 136.045 145.83 135.897L145.83 135.897C146.703 134.985 146.897 134.384 146.994 133.766C146.947 134.065 147.123 134.423 147.234 134.537C147.195 134.497 147.107 134.424 146.745 134.161L146.745 134.161C146.518 133.996 146.174 133.748 145.832 133.453C146.171 133.746 146.679 133.773 146.838 133.749C146.812 133.753 146.761 133.763 146.545 133.816C146.26 133.886 145.405 134.121 144.447 134.05L144.447 134.05C144.38 134.045 144.29 134.039 144.173 134.031C144.018 134.021 143.832 134.009 143.618 133.993C142.573 133.915 140.563 133.737 138.935 133.141C136.471 132.24 135.2 130.716 134.149 129.506C133.246 128.464 132.332 127.416 130.66 126.253L130.661 126.253C132.688 127.664 127.551 125.145 129.912 122.092L129.911 122.092C131.81 119.633 135.61 121.911 133.811 121.179C134.226 121.348 134.775 121.627 135.251 121.959L135.251 121.959C135.285 121.982 135.312 122.002 135.346 122.027L135.346 122.026C134.515 121.423 138.459 123.663 136.233 126.547L136.233 126.547C135.335 127.709 133.982 127.853 133.712 127.886C132.623 128.017 132.815 127.993 132.486 128.229C132.394 128.295 132.364 128.336 132.365 128.335L132.365 128.335C132.34 128.368 132.495 128.191 132.467 127.756L132.451 127.583L133.059 132.327C133.067 132.388 133.073 132.449 133.076 132.511L133.076 132.511C133.096 132.835 133.1 133.192 133.064 133.565L133.064 133.565C133.03 133.922 132.955 134.34 132.792 134.777L132.792 134.777C132.249 136.229 131.59 137.415 130.836 138.25L130.836 138.25C130.792 138.299 130.743 138.355 130.655 138.456L130.655 138.456C130.546 138.58 130.401 138.746 130.235 138.93C129.575 139.661 128.544 140.729 127.084 141.845L127.084 141.845C127.179 141.773 127.224 141.723 127.216 141.731L127.216 141.731C127.192 141.757 127.145 141.815 127.006 142.001L127.006 142.001C126.954 142.071 126.862 142.195 126.769 142.311L126.768 142.312C126.726 142.365 126.673 142.429 126.61 142.5L126.61 142.499C126.98 142.082 126.986 141.66 126.985 141.637C126.988 141.716 127.027 141.965 127.226 142.625C127.117 142.264 126.943 142.114 126.975 142.145L126.975 142.145C127.125 142.292 127.607 142.522 127.837 142.556C127.873 142.562 127.713 142.53 127.429 142.582C127.669 142.538 127.904 142.511 128.129 142.496C132.006 142.25 137.43 145.991 137.64 146.138L137.638 146.137C137.661 146.153 137.686 146.171 137.718 146.195C139.012 147.145 139.225 148.943 138.195 150.211C137.165 151.479 135.281 151.737 133.987 150.786C134.002 150.797 134.014 150.806 134.01 150.803L134.009 150.802C133.226 150.253 129.641 148.14 128.349 148.222C128.348 148.222 128.364 148.221 128.395 148.216C127.765 148.332 127.185 148.292 126.759 148.229C125.37 148.025 123.719 147.281 122.637 146.222L122.637 146.222C122.222 145.817 121.72 145.2 121.469 144.365L121.469 144.365C121.275 143.723 121.031 142.865 121 142.005C120.967 141.075 121.171 139.901 122.095 138.859L122.095 138.858C122.074 138.883 122.061 138.898 122.064 138.895L122.063 138.896C122.075 138.882 122.097 138.852 122.169 138.756L122.168 138.757C122.274 138.615 122.507 138.298 122.785 137.997L122.785 137.997C122.943 137.827 123.16 137.611 123.432 137.403L123.432 137.403C124.493 136.591 125.247 135.813 125.754 135.251C125.885 135.105 126.004 134.97 126.113 134.846L126.113 134.846C126.191 134.756 126.274 134.661 126.355 134.572L126.355 134.571C126.428 134.49 126.764 134.043 127.161 132.983L127.161 132.983C127.106 133.129 127.099 133.218 127.1 133.209L127.1 133.209C127.101 133.201 127.105 133.142 127.097 133.007L127.115 133.191L126.506 128.448C126.499 128.391 126.493 128.333 126.49 128.276C126.418 127.154 126.832 126.024 127.524 125.094L127.524 125.094C127.913 124.572 128.405 124.089 128.994 123.667C130.603 122.517 131.672 122.37 133.136 122.193C133.333 122.169 132.242 122.204 131.456 123.222L131.456 123.222C129.449 125.82 133.025 127.641 131.642 126.638L131.642 126.638C131.638 126.635 131.644 126.64 131.639 126.636L131.639 126.636C131.558 126.58 131.399 126.497 131.332 126.47C129.233 125.615 132.82 127.835 134.688 125.417L134.687 125.418C137.021 122.398 131.979 119.979 134.273 121.576L134.273 121.576C136.548 123.159 137.834 124.647 138.801 125.762C139.877 127.003 140.31 127.442 141.212 127.772C141.957 128.045 143.175 128.191 144.255 128.271C144.442 128.285 144.602 128.296 144.759 128.306C144.869 128.314 144.986 128.321 145.084 128.329L145.084 128.329C144.892 128.314 144.777 128.368 145.222 128.259C145.388 128.218 145.715 128.136 146.068 128.082C147.168 127.914 148.613 128.017 149.913 129.14C150.045 129.254 150.197 129.366 150.452 129.551L150.452 129.551C150.722 129.747 151.236 130.111 151.677 130.567C152.552 131.469 153.183 132.762 152.915 134.461C152.639 136.208 151.916 137.902 150.19 139.707L150.189 139.707C150.217 139.678 150.23 139.661 150.229 139.663L150.229 139.663C149.754 140.277 149.036 142.7 148.844 143.835C148.595 145.308 148.903 147.061 149.176 148.48L149.176 148.481C149.24 148.814 149.328 149.264 149.367 149.614L149.367 149.614C149.356 149.518 149.552 150.547 149.05 151.509L149.049 151.51C148.787 152.012 148.43 152.384 148.234 152.577L148.234 152.577C147.227 153.568 144.933 155.043 142.869 155.385C142.689 155.415 142.497 155.439 142.297 155.452C141.237 155.521 140.407 155.091 140.121 154.939L140.122 154.94C139.966 154.857 139.821 154.772 139.688 154.688L139.688 154.688C138.984 154.245 138.186 153.579 137.586 153.083C136.834 152.462 136.263 151.997 135.83 151.725C134.329 150.781 133.269 150.533 133.012 150.469L133.013 150.469C132.99 150.463 132.954 150.454 132.92 150.446L132.92 150.446C133.579 150.615 132.196 150.401 131.446 149.596C130.362 148.436 130.491 146.621 131.737 145.545C132.983 144.468 134.875 144.539 135.962 145.702Z" fill="#94C595"/>
<path d="M122.376 117.116C121.189 117.52 120.374 118.652 120.472 119.895L120.553 120.909L120.549 120.91C120.481 120.998 120.418 121.09 120.362 121.184L120.362 121.184C120.012 120.795 119.543 120.512 119.007 120.379C118.29 120.202 117.673 120.201 117.155 120.377C116.566 120.577 116.105 121.006 115.774 121.665L115.774 121.665C115.333 121.588 114.908 121.555 114.499 121.564C113.915 121.578 113.378 121.668 112.887 121.835C111.959 122.15 111.198 122.738 110.604 123.599C110.298 124.041 110.133 124.556 110.13 125.079C110.129 125.102 110.129 125.125 110.13 125.147L110.13 125.149C110.134 125.745 110.241 126.32 110.451 126.875L110.451 126.875C110.853 127.936 111.608 128.864 112.715 129.659L112.714 129.659C113.272 130.069 113.864 130.369 114.492 130.561L114.492 130.561C114.511 130.567 114.53 130.572 114.549 130.578L114.546 130.579C114.501 130.637 114.453 130.695 114.405 130.751L114.405 130.752C114.261 130.743 114.118 130.737 113.975 130.733L113.972 130.734C112.751 130.519 111.455 130.509 110.083 130.704C110.059 130.708 110.034 130.711 110.01 130.716C108.111 131.035 106.596 131.386 105.466 131.77C104.877 131.97 104.393 132.179 104.013 132.396C103.331 132.786 102.822 133.265 102.486 133.832C102.049 134.57 101.995 135.452 102.341 136.212C102.686 136.971 103.391 137.52 104.242 137.691C104.335 137.709 104.429 137.727 104.522 137.745L104.518 137.746C104.576 137.916 104.646 138.087 104.727 138.259C104.823 138.461 104.946 138.65 105.092 138.822C106.615 140.603 108.874 141.432 111.869 141.307C111.918 141.305 111.967 141.302 112.016 141.297C112.194 141.281 112.37 141.261 112.542 141.24L112.538 141.241C112.888 141.398 113.267 141.537 113.677 141.659C113.691 141.664 113.705 141.668 113.719 141.672C113.883 141.718 114.049 141.76 114.216 141.798L114.212 141.8C114.281 141.842 114.35 141.883 114.421 141.922L114.421 141.922C115.321 142.425 116.408 142.697 117.682 142.736C117.746 142.738 117.811 142.738 117.875 142.735C118.602 142.709 119.277 142.59 119.9 142.379C120.146 142.295 120.384 142.197 120.613 142.084L120.613 142.085C121.334 141.732 121.947 141.252 122.453 140.645L122.453 140.645C122.612 140.454 122.758 140.253 122.893 140.041L122.893 140.041C122.903 140.025 122.913 140.008 122.923 139.992L122.92 139.994C122.939 139.976 122.957 139.958 122.976 139.94C123.539 139.393 123.941 138.795 124.181 138.146L124.185 138.145C124.614 138.191 125.046 138.14 125.48 137.992C125.873 137.859 126.268 137.646 126.665 137.354L126.665 137.354C126.899 137.182 127.114 136.982 127.312 136.754C127.529 136.503 127.698 136.219 127.811 135.914L127.807 135.916C128.316 135.387 128.721 134.781 129.022 134.099L129.022 134.099C129.148 133.821 129.25 133.55 129.327 133.287C129.806 131.643 129.533 130.391 128.507 129.53L128.503 129.531C129.014 128.682 129.35 127.916 129.513 127.235C129.671 126.572 129.682 125.95 129.547 125.371L129.543 125.372L130.468 123.826L130.468 123.826C130.582 123.638 130.678 123.467 130.757 123.312C131.506 121.826 131.284 120.639 130.089 119.752L130.089 119.752C129.351 119.204 128.373 119.07 127.495 119.368C127.32 119.428 127.149 119.504 126.985 119.598L126.061 120.125L126.061 120.126L125.999 119.337C125.883 117.879 124.552 116.822 123.026 116.976C122.8 116.998 122.582 117.046 122.376 117.116Z" fill="#94C595"/>
<path d="M112.96 125.341C112.953 125.343 112.945 125.346 112.937 125.349C112.208 125.601 111.612 126.129 111.292 126.807C111.088 127.239 110.967 127.723 110.928 128.259L110.928 128.259C110.91 128.516 110.91 128.79 110.929 129.082L110.929 129.082C110.937 129.219 110.957 129.356 110.988 129.49C111.24 130.578 111.345 131.376 111.303 131.884C111.3 131.921 111.298 131.959 111.297 131.996C111.272 132.656 111.168 133.164 110.986 133.518C110.958 133.574 110.931 133.63 110.907 133.687C110.793 133.952 110.602 134.219 110.333 134.488L110.333 134.488C109.866 134.186 109.317 133.915 108.687 133.676L108.683 133.677C108.656 133.61 108.626 133.544 108.593 133.479C107.986 132.282 106.541 131.752 105.24 132.194C105.124 132.233 105.01 132.28 104.897 132.335C104.197 132.676 103.55 133.03 102.957 133.396L102.957 133.396C102.054 133.526 101.178 133.735 100.328 134.024C98.7723 134.553 97.3048 135.347 95.926 136.408C95.7556 136.539 95.6011 136.688 95.4658 136.853C94.725 137.753 94.4008 138.638 94.4931 139.511L94.4898 139.512C94.287 140.179 94.3434 140.868 94.6591 141.58C95.0228 142.4 95.7061 143.007 96.7092 143.402L96.7092 143.402C97.3877 143.669 98.3056 143.86 99.4629 143.974L99.4595 143.976C99.853 144.084 100.28 144.137 100.742 144.133C100.903 144.132 101.075 144.122 101.258 144.104L101.254 144.106C101.268 144.107 101.281 144.108 101.295 144.109C101.306 144.11 101.318 144.11 101.329 144.111L101.326 144.113C101.888 144.248 102.537 144.335 103.271 144.375C103.333 144.378 103.395 144.38 103.458 144.379C104.788 144.365 106.073 144.148 107.31 143.727C107.759 143.575 108.202 143.396 108.638 143.19C108.791 143.118 108.938 143.033 109.075 142.935C110.356 142.031 111.266 141.125 111.804 140.217C111.875 140.097 111.94 139.978 112 139.86L111.996 139.861C112.465 139.568 112.898 139.265 113.294 138.953L113.298 138.952C113.317 139.002 113.337 139.053 113.359 139.103L113.359 139.103C113.695 139.905 114.287 140.715 115.133 141.532L115.131 141.533C115.241 141.644 115.361 141.754 115.491 141.861L115.491 141.861C116.032 142.306 116.859 142.781 117.973 143.284L117.969 143.285L118.677 150.105C118.69 150.232 118.713 150.358 118.745 150.481C119.09 151.803 119.36 152.87 119.553 153.683L119.55 153.684C119.544 154.096 119.634 154.511 119.819 154.929L119.815 154.931C119.85 155.186 119.888 155.443 119.928 155.7L119.924 155.702C119.262 156.799 119.444 157.999 120.471 159.299L120.471 159.299C120.526 159.369 120.585 159.439 120.646 159.509L120.642 159.511C120.65 159.933 120.66 160.337 120.671 160.721L120.668 160.723C120.649 160.923 120.658 161.126 120.695 161.332L120.691 161.333C120.709 161.831 120.73 162.294 120.755 162.72L120.751 162.722C120.668 162.782 120.585 162.845 120.504 162.909C120.405 162.989 120.311 163.074 120.223 163.166C120.111 163.283 120.005 163.402 119.907 163.522L119.907 163.522C118.45 165.308 118.398 166.955 119.752 168.466L119.749 168.467C119.707 168.563 119.67 168.661 119.639 168.762C119.198 170.207 119.572 171.496 120.761 172.629L120.761 172.629C120.862 172.725 120.969 172.819 121.083 172.912L121.079 172.913C121.342 173.426 121.725 173.893 122.228 174.313L122.229 174.313C122.376 174.437 122.533 174.554 122.7 174.666C122.786 174.723 122.875 174.776 122.967 174.823C123.508 175.102 124.016 175.304 124.488 175.429L124.488 175.429C125.455 175.684 126.297 175.689 127.014 175.446C127.778 175.186 128.401 174.644 128.881 173.818C128.998 173.617 129.096 173.406 129.173 173.183L129.17 173.184C129.766 172.808 130.297 172.405 130.764 171.976L130.768 171.975C130.812 171.97 130.856 171.964 130.899 171.958C131.308 171.895 131.692 171.802 132.052 171.68C132.106 171.662 132.16 171.642 132.213 171.623C134.069 170.932 135.111 169.646 135.341 167.764L135.341 167.764C135.35 167.688 135.357 167.612 135.363 167.535C135.364 167.521 135.365 167.507 135.366 167.493L135.363 167.495C135.733 167.332 136.067 167.152 136.364 166.954C137.544 166.169 138.213 165.187 138.371 164.007L138.368 164.008C139.295 163.416 139.909 162.571 140.21 161.475C140.297 161.161 140.35 160.834 140.37 160.495L140.37 160.495C140.381 160.31 140.382 160.122 140.373 159.93C140.365 159.755 140.339 159.581 140.295 159.411C140.243 159.214 140.187 159.02 140.127 158.829L140.123 158.831C140.367 158.474 140.538 158.066 140.636 157.607L140.636 157.606C140.669 157.452 140.69 157.296 140.7 157.138C140.722 156.801 140.676 156.464 140.565 156.147C139.827 154.038 138.436 152.334 136.39 151.035L136.39 151.036C136.165 150.884 135.794 150.669 135.277 150.391L135.274 150.392C134.573 148.821 133.259 147.545 131.334 146.563L131.33 146.565C129.155 145.252 126.652 144.996 123.819 145.794L123.816 145.796L123.408 141.866C123.381 141.605 123.313 141.35 123.207 141.11C123.048 140.75 122.867 140.425 122.664 140.133L122.665 140.133C122.327 139.648 121.929 139.254 121.469 138.951C121.33 138.859 121.181 138.78 121.026 138.715C120.088 138.323 119.484 138.025 119.214 137.822L119.211 137.824C119.182 137.793 119.153 137.764 119.123 137.735C118.782 137.405 118.577 137.16 118.509 136.998L118.512 136.998C118.449 136.778 118.414 136.566 118.406 136.363L118.404 136.364C118.535 133.703 118.697 131.89 118.889 130.925C118.911 130.814 118.926 130.702 118.933 130.589C118.97 130.022 118.888 129.449 118.688 128.872L118.688 128.872C118.643 128.745 118.593 128.617 118.537 128.489C118.471 128.338 118.39 128.193 118.295 128.057C117.668 127.159 117.067 126.486 116.492 126.038C115.36 125.158 114.183 124.926 112.96 125.341Z" fill="#94C595"/>
<path d="M135.278 116.096C134.459 116.374 133.776 117.009 133.493 117.862C131.797 122.983 135.14 126.908 143.524 129.636C144.126 129.832 144.764 129.815 145.341 129.619C145.639 129.518 145.921 129.369 146.172 129.177L146.176 129.176C148.246 131.023 150.419 131.958 152.695 131.982C152.911 131.984 153.127 131.962 153.339 131.916C153.353 131.913 153.368 131.91 153.382 131.907L153.383 131.907C153.656 131.846 153.912 131.775 154.151 131.693C156.158 131.012 156.946 129.623 156.516 127.528L156.516 127.528C156.488 127.393 156.453 127.258 156.411 127.122L156.411 127.122C156.386 127.039 156.36 126.954 156.331 126.867L156.335 126.866C156.519 126.866 156.701 126.856 156.878 126.838L156.878 126.838C157.025 126.824 157.169 126.805 157.31 126.781C157.665 126.721 157.996 126.639 158.302 126.535C159.949 125.976 160.898 124.778 161.148 122.94L161.148 122.941C161.167 122.799 161.181 122.654 161.189 122.507C161.202 122.266 161.181 122.025 161.126 121.791C160.16 117.676 157.167 114.976 152.147 113.692C151.589 113.549 151.019 113.583 150.504 113.758C149.666 114.043 148.972 114.701 148.702 115.579C148.695 115.603 148.688 115.628 148.681 115.652L148.677 115.653C148.435 115.759 148.213 115.876 148.011 116.005L148.011 116.005C147.175 115.743 146.295 115.769 145.372 116.083C145.272 116.117 145.171 116.154 145.07 116.195C145.011 116.219 144.953 116.244 144.897 116.271L144.897 116.272C144.208 116.134 143.54 116.091 142.892 116.142C142.701 116.157 142.512 116.19 142.327 116.242L142.324 116.244C141.4 115.793 140.427 115.51 139.405 115.393C139.244 115.375 139.081 115.37 138.919 115.379C138.457 115.405 138.038 115.481 137.662 115.609C137.362 115.711 137.09 115.845 136.844 116.012L136.844 116.012C136.312 115.891 135.77 115.929 135.278 116.096Z" fill="#94C595"/>
<path d="M160.298 113.911C159.974 114.021 159.67 114.148 159.387 114.293L159.387 114.293C159.066 114.356 158.759 114.437 158.466 114.537C157.306 114.931 156.36 115.608 155.627 116.569C155.607 116.595 155.588 116.621 155.569 116.647C155.469 116.79 155.376 116.934 155.291 117.08L155.291 117.08C154.446 118.534 154.391 119.992 155.127 121.455C155.378 121.955 155.723 122.434 156.162 122.893L156.162 122.893C157.193 123.982 158.874 124.788 161.205 125.309C161.264 125.322 161.324 125.333 161.385 125.343C162.809 125.565 164.129 125.507 165.345 125.169L165.341 125.17C165.452 125.147 165.561 125.121 165.667 125.092C165.817 125.052 165.961 125.008 166.1 124.961C167.004 124.654 167.682 124.197 168.133 123.591L168.128 123.592C168.158 123.563 168.187 123.534 168.215 123.504L168.22 123.503C169.625 123.637 170.861 123.523 171.927 123.161C172.006 123.134 172.083 123.106 172.16 123.077L172.158 123.078C172.211 123.058 172.264 123.037 172.315 123.016C174.126 122.275 174.986 121.06 174.896 119.37C174.89 119.263 174.877 119.156 174.858 119.051C174.836 118.928 174.808 118.805 174.776 118.683L174.776 118.683C174.487 117.585 173.823 116.558 172.783 115.601L172.781 115.601C171.882 114.727 170.926 114.068 169.913 113.625L169.908 113.626C169.623 113.481 169.298 113.367 168.933 113.285L168.933 113.284C168.313 113.144 167.403 113.065 166.203 113.046C165.86 113.041 165.528 113.096 165.219 113.2C164.965 113.287 164.725 113.408 164.508 113.557L164.508 113.557C164.392 113.536 164.274 113.517 164.154 113.499C164.078 113.488 164.002 113.48 163.925 113.475C162.984 113.415 162.072 113.477 161.188 113.663C161.17 113.667 161.152 113.671 161.134 113.675C160.842 113.742 160.563 113.821 160.298 113.911Z" fill="#94C595"/>
<path d="M153.108 132.175C152.194 132.486 151.436 133.027 150.833 133.799C150.826 133.808 150.819 133.818 150.812 133.827C149.777 135.188 149.105 136.265 148.798 137.058L148.798 137.058C148.613 137.534 148.519 137.988 148.515 138.42L148.511 138.422C148.396 139.909 148.115 141.595 147.671 143.478C147.635 143.63 147.613 143.784 147.606 143.94C147.533 145.375 147.382 146.786 147.151 148.172C147.126 148.324 147.115 148.478 147.117 148.632C147.155 151.05 147.279 152.673 147.491 153.501L147.491 153.501C147.611 153.972 147.795 154.375 148.043 154.709L148.039 154.71C148.772 155.992 149.763 156.491 151.014 156.207L151.01 156.208C151.125 156.64 151.259 157.011 151.41 157.32L151.41 157.32C151.447 157.395 151.485 157.468 151.525 157.539C151.544 157.574 151.565 157.608 151.586 157.642C152.527 159.159 153.686 159.683 155.064 159.215C155.336 159.123 155.617 158.991 155.907 158.821C156.271 158.607 156.583 158.33 156.842 157.989L156.846 157.988C157.678 159.1 158.8 159.416 160.213 158.936C160.434 158.861 160.662 158.766 160.897 158.652C161.069 158.569 161.238 158.472 161.407 158.362L161.411 158.36C161.577 158.655 161.763 158.943 161.97 159.225C162.132 159.446 162.329 159.64 162.555 159.802C163.627 160.567 164.618 160.795 165.53 160.485C165.671 160.437 165.81 160.376 165.948 160.303L165.952 160.301C166.01 160.328 166.064 160.352 166.114 160.374C166.818 160.674 167.499 160.741 168.158 160.575L168.159 160.575C168.3 160.539 168.435 160.5 168.564 160.456C169.167 160.251 169.619 159.96 169.918 159.582L169.914 159.584C170.381 159.106 170.704 158.479 170.885 157.704L170.884 157.704C171.185 156.529 171.293 155.527 171.209 154.7C171.204 154.653 171.198 154.607 171.19 154.56L170.583 150.729C170.544 150.478 170.466 150.236 170.354 150.008C169.84 148.968 169.308 148.174 168.76 147.625L168.76 147.625C168.606 147.471 168.447 147.331 168.283 147.207L168.283 147.207C167.777 146.822 167.282 146.555 166.8 146.407L166.796 146.408C166.787 146.352 166.776 146.296 166.763 146.24C166.538 145.267 166.155 144.445 165.613 143.771L165.613 143.771C165.007 143.017 164.239 142.482 163.308 142.166L163.308 142.166C163.188 142.125 163.066 142.093 162.941 142.068C162.844 142.049 162.747 142.035 162.649 142.024L162.645 142.025C162.505 140.296 161.631 139.285 160.024 138.992C159.542 138.905 159.041 138.943 158.572 139.102C158.548 139.11 158.523 139.119 158.499 139.128C158.451 139.146 158.403 139.164 158.356 139.183L158.356 139.183C158.366 139.092 158.373 139.008 158.378 138.932L158.378 138.932C158.386 138.818 158.389 138.711 158.388 138.609L158.388 138.609C158.37 137.075 157.729 136.193 156.466 135.964L156.462 135.966C156.845 135.363 156.987 134.624 156.793 133.901C156.415 132.491 154.907 131.675 153.424 132.079C153.317 132.108 153.211 132.14 153.108 132.175Z" fill="#94C595"/>
<path d="M107.097 131.078C106.273 132.147 105.136 132.67 104.089 132.888C104.038 132.898 103.987 132.908 103.936 132.918L103.936 132.918C103.148 133.062 102.396 133.623 100.976 134.872C100.137 135.611 98.6166 137.036 96.7434 137.564L96.7238 137.57L96.7236 137.57L95.977 134.813L96.7431 137.564C96.5621 137.615 96.375 137.659 96.1822 137.695C96.0004 137.728 95.815 137.753 95.6252 137.77C95.3266 137.796 95.0269 137.779 94.7363 137.719L90.3979 136.833L91.8128 136.792C91.7389 136.812 91.6747 136.828 91.6257 136.84L91.6258 136.84C91.5815 136.852 91.5561 136.858 91.5333 136.864C91.5129 136.869 91.5059 136.871 91.5049 136.872C91.5227 136.867 91.553 136.856 91.5684 136.85C91.5637 136.852 91.5162 136.872 91.3809 136.939C91.1501 137.054 90.7953 137.216 90.4402 137.378C89.6935 137.719 88.6326 138.204 87.4229 138.807C84.7979 140.116 81.8009 141.823 79.9422 143.567C79.9691 143.542 80.0089 143.481 80.0273 143.439L80.027 143.439C80.029 143.435 80.0237 143.447 80.0258 143.442L80.0263 143.441C79.5907 144.479 79.5555 145.373 79.8118 146.27C80.0001 146.928 80.4886 147.655 81.8681 148.086C82.7129 148.35 83.5108 148.291 84.7379 148.154C85.0141 148.123 85.3419 148.086 85.6666 148.061L85.0038 148.185C85.9422 147.903 87.65 147.448 92.8853 146.789C93.7636 146.678 93.9052 146.656 93.9713 146.642C93.9689 146.643 93.9636 146.644 93.9609 146.645C93.9736 146.641 93.9975 146.634 94.1592 146.58C94.466 146.479 94.9345 146.324 95.8353 146.07L95.6996 146.112L102.976 143.701L102.384 143.968C102.68 143.796 102.964 143.688 103.125 143.629C103.697 143.424 104.614 143.202 105.523 142.978C105.854 142.896 106.211 142.808 106.603 142.71C106.635 142.702 106.648 142.696 106.646 142.697C106.642 142.699 106.623 142.709 106.597 142.73L105.812 146.202L102.696 140.088C102.611 139.921 102.543 139.746 102.494 139.565L102.494 139.564C102.421 139.293 102.389 139.041 102.372 138.857L102.372 138.857C102.238 137.414 102.644 133.952 103.3 129.097L103.3 129.097C103.453 127.962 104.558 126.16 106.799 126.376L106.799 126.376C107.833 126.476 108.642 127.131 108.456 127.004L108.456 127.004C109.039 127.401 108.136 126.646 107.138 126.55L107.137 126.55C105.87 126.428 104.051 127.208 103.79 129.109L103.789 129.116C103.619 130.383 104.561 131.51 104.13 130.833L104.131 130.833C104.127 130.828 104.115 130.809 104.084 130.763L104.084 130.763C105.432 132.76 107.868 131.48 106.884 131.831C106.842 131.846 106.759 131.882 106.529 131.989C106.733 131.894 105.62 132.504 104.623 132.51L104.622 132.51L104.606 132.511L104.606 132.511L104.543 132.511L104.481 132.511L104.481 132.511C103.191 132.519 102.794 132.527 102.637 132.545C102.656 132.543 103.175 132.48 103.7 132.071C103.463 132.256 103.198 132.407 102.915 132.518L97.5595 134.62L92.4333 136.632L92.7534 136.485C91.5615 137.114 90.5963 137.601 89.8337 137.986C89.3101 138.25 88.9076 138.453 88.578 138.627C88.1967 138.828 88.007 138.942 87.9135 139.005C86.546 139.935 84.6835 139.647 83.7536 138.364C82.8236 137.08 83.1784 135.286 84.5459 134.357C84.9376 134.091 85.3791 133.846 85.8085 133.619C86.1999 133.413 86.6608 133.181 87.1669 132.925C87.9276 132.541 88.8463 132.078 89.984 131.478C90.0878 131.423 90.1947 131.374 90.3041 131.331L95.4303 129.319L100.786 127.217L100.001 127.664C100.753 127.077 101.539 126.911 102.106 126.847C102.691 126.781 103.548 126.78 104.619 126.773L104.619 126.773L104.68 126.773L104.743 126.772L104.744 126.772L104.761 126.772L104.76 126.772C103.98 126.777 103.318 127.178 104.045 126.84C104.215 126.761 104.572 126.592 104.941 126.461C104.583 126.588 107.571 125.222 109.141 127.548L109.141 127.548C109.184 127.611 109.229 127.679 109.27 127.743L109.27 127.744C108.925 127.201 109.902 128.396 109.728 129.684L109.727 129.691C109.466 131.6 107.642 132.382 106.367 132.26L106.366 132.26C105.344 132.161 104.383 131.368 104.892 131.714L104.892 131.714C104.562 131.489 105.163 132.003 106.027 132.086L106.027 132.086C108.129 132.288 109.119 130.557 109.239 129.669L109.239 129.669C108.53 134.909 108.277 137.535 108.337 138.185L108.337 138.186C108.339 138.203 108.333 138.116 108.294 137.972L108.093 137.449L111.208 143.563C111.805 144.732 111.481 146.164 110.423 147.035C110.092 147.307 109.649 147.611 109.079 147.869C108.741 148.023 108.367 148.157 107.956 148.259C107.551 148.361 107.187 148.451 106.855 148.533C105.738 148.808 105.261 148.931 105.087 148.994C105.052 149.006 105.185 148.963 105.375 148.853C105.188 148.961 104.989 149.051 104.783 149.119L97.5064 151.529C97.4615 151.544 97.4163 151.558 97.3708 151.571C96.5855 151.793 96.2104 151.917 95.9647 151.999C95.843 152.039 95.6608 152.1 95.468 152.153C95.3606 152.183 95.2516 152.21 95.1356 152.236C94.7175 152.327 94.2042 152.388 93.4929 152.478C88.4414 153.114 87.113 153.514 86.6388 153.657C86.4227 153.722 86.2004 153.763 85.9761 153.78C85.7753 153.796 85.5538 153.82 85.256 153.854C84.0827 153.984 82.074 154.238 79.8625 153.547C76.6601 152.547 74.7428 150.419 74.0326 147.936C73.4235 145.807 73.5611 143.623 74.4789 141.436L74.4794 141.435C74.4866 141.418 74.5011 141.384 74.509 141.366L74.5088 141.366C74.7139 140.895 75.0879 140.209 75.8178 139.524C78.3853 137.116 82.0976 135.072 84.783 133.733C86.0968 133.078 87.2431 132.555 87.9932 132.212C88.4053 132.024 88.6317 131.92 88.7409 131.865C88.9343 131.769 89.129 131.676 89.3274 131.594C89.549 131.502 89.7465 131.435 89.9427 131.378C90.0068 131.36 90.0656 131.344 90.1159 131.331L90.1158 131.331C90.1652 131.318 90.2146 131.306 90.2534 131.296L90.2535 131.296C90.3038 131.283 90.3464 131.272 90.3955 131.259C90.8604 131.138 91.3455 131.124 91.8105 131.219L96.1489 132.105L95.26 132.055C95.246 132.056 95.2338 132.058 95.2254 132.059C95.216 132.061 95.211 132.062 95.2108 132.063L95.977 134.813L95.2303 132.057L95.2304 132.057L95.2108 132.063C95.4107 132.006 95.7973 131.753 96.9956 130.699C98.1497 129.683 100.179 127.795 102.979 127.282L102.98 127.282C102.981 127.282 102.982 127.282 102.982 127.282C102.962 127.286 102.608 127.379 102.316 127.758C103.312 126.465 105.19 126.161 106.51 127.078C107.83 127.995 108.093 129.786 107.097 131.078Z" fill="#94C595"/>
<path d="M117.442 153.539C116.879 154.65 116.57 155.755 116.513 156.853L116.485 156.297C116.84 158.607 116.255 167.605 114.729 183.29L114.742 183.014L114.76 188.672C114.76 188.726 114.759 188.78 114.756 188.834C114.703 189.777 115.196 191.497 116.234 193.996L116.025 193.592C116.434 194.242 117.53 195.053 119.313 196.024L118.442 195.713C122.559 196.496 125.924 195.018 128.537 191.281L128.446 191.419L133.708 182.928L133.405 183.589L135.987 175.343C136.006 175.283 136.027 175.223 136.05 175.164L141.479 161.164C142.061 159.665 143.787 158.866 145.335 159.379C146.884 159.892 147.667 161.524 147.086 163.023L141.656 177.022L141.719 176.843L139.137 185.088C139.065 185.319 138.963 185.541 138.834 185.749L133.572 194.24C133.544 194.286 133.513 194.332 133.482 194.377C129.336 200.307 123.879 202.629 117.112 201.344C116.805 201.285 116.511 201.181 116.24 201.033C113.586 199.589 111.796 198.13 110.87 196.657C110.789 196.528 110.719 196.393 110.661 196.253C109.305 192.989 108.676 190.47 108.775 188.696L108.771 188.858L108.753 183.2C108.753 183.108 108.757 183.016 108.766 182.924C110.247 167.697 110.845 159.154 110.56 157.295C110.531 157.112 110.522 156.925 110.532 156.739C110.629 154.849 111.142 152.989 112.069 151.157C112.8 149.716 114.595 149.08 116.078 149.738C117.562 150.396 118.173 152.098 117.442 153.539Z" fill="#94C595"/>
<path d="M87.5502 144.096C86.721 144.718 86.1928 145.106 85.9658 145.26L85.9658 145.26C85.8063 145.368 85.6539 145.457 85.5084 145.528L86.02 145.215C85.8821 145.319 85.7322 145.436 85.5705 145.566C85.5165 145.61 85.461 145.651 85.4041 145.691C85.5711 145.574 85.6928 145.465 85.769 145.363L85.769 145.363C85.7614 145.373 85.7502 145.39 85.7354 145.413L85.8731 145.174C86.7009 143.573 86.3071 142.407 84.6918 141.675L84.6917 141.675C84.5318 141.602 84.3963 141.558 84.2852 141.541L84.2855 141.541C84.2913 141.542 84.3006 141.543 84.3134 141.545L84.0755 141.53C83.9926 141.528 83.8961 141.544 83.7861 141.579C83.8744 141.551 83.9639 141.527 84.0543 141.506C83.1714 141.705 82.5504 142.168 82.1913 142.895C82.9065 141.447 84.6951 140.794 86.1862 141.437C87.6773 142.08 88.3062 143.776 87.5909 145.224C87.0938 146.231 86.3171 146.853 85.261 147.091L85.5292 147.018C84.9625 147.199 84.3676 147.282 83.7443 147.266C83.6648 147.264 83.5854 147.259 83.5065 147.251C83.3999 147.24 83.2972 147.227 83.1982 147.213L83.1985 147.213C82.7499 147.146 82.3513 147.034 82.0027 146.876L82.0026 146.876C80.0506 145.991 79.5571 144.616 80.522 142.75C80.564 142.668 80.61 142.589 80.6597 142.512C80.7516 142.368 80.8442 142.234 80.9375 142.11L80.9376 142.11C81.2501 141.692 81.5922 141.353 81.9637 141.093L81.7972 141.218C82.0099 141.047 82.2114 140.89 82.4017 140.746C82.5614 140.626 82.7327 140.52 82.9133 140.432C82.7933 140.491 82.6911 140.549 82.6068 140.606L82.6069 140.606C82.7502 140.509 83.196 140.179 83.9444 139.618C85.2647 138.627 87.1423 138.826 88.1381 140.063C89.1338 141.299 88.8706 143.105 87.5502 144.096Z" fill="#94C595"/>
<path d="M150.044 156.61C153.281 159.575 156.02 161.604 158.26 162.698L158.161 162.652L180.819 172.693L180.735 172.657C184.65 174.249 187.551 173.202 189.44 169.517L189.283 169.883C190.223 167.19 187.963 162.61 182.503 156.143L182.513 156.154C176.557 149.176 171.998 144.254 168.836 141.389C168.769 141.328 168.705 141.264 168.644 141.197C167.429 139.86 164.677 137.784 160.388 134.97C160.294 134.908 160.205 134.842 160.119 134.77C159.742 134.454 159.43 134.151 159.183 133.862L159.183 133.862C158.851 133.474 158.606 133.076 158.45 132.669C157.884 131.196 158.686 129.528 160.24 128.943C161.794 128.357 163.512 129.077 164.078 130.549C164.01 130.372 163.937 130.238 163.859 130.147L163.859 130.147C163.906 130.202 163.999 130.288 164.138 130.405L163.87 130.205C168.562 133.284 171.675 135.668 173.211 137.358L173.018 137.166C176.358 140.192 181.083 145.285 187.193 152.444L187.203 152.455C194.005 160.512 196.59 166.879 194.957 171.557C194.914 171.683 194.861 171.805 194.801 171.924C191.195 178.959 185.681 180.967 178.259 177.949C178.231 177.938 178.203 177.926 178.175 177.914L155.517 167.873C155.484 167.858 155.45 167.842 155.418 167.826C152.676 166.488 149.483 164.15 145.84 160.813C144.662 159.735 144.648 157.919 145.809 156.758C146.97 155.598 148.866 155.531 150.044 156.61Z" fill="#94C595"/>
<path d="M174.523 164.59C175.599 165.407 177.238 166.013 179.441 166.406C179.452 166.408 179.462 166.41 179.472 166.412C181.321 166.761 182.515 166.873 183.053 166.747C182.773 166.813 182.498 167.008 182.231 167.334C182.25 167.31 182.271 167.286 182.291 167.263C182.032 167.559 181.912 167.837 181.928 168.098L181.928 168.098C181.928 168.09 181.926 168.077 181.923 168.06L182.036 168.504C181.659 167.417 181.291 166.627 180.932 166.133L180.992 166.212C179.886 164.8 178.788 163.977 177.698 163.742L177.917 163.781C177.673 163.747 177.501 163.736 177.401 163.748C178.099 163.665 178.52 163.234 178.664 162.453L178.708 162.07C178.721 161.782 178.688 161.553 178.608 161.384C178.849 161.897 179.756 162.909 181.329 164.42C181.341 164.431 181.352 164.441 181.363 164.452C183.104 166.18 184.705 167.368 186.165 168.016L185.926 167.922C186.001 167.948 186.057 167.964 186.092 167.969C185.5 167.882 185.081 168.106 184.834 168.642L184.743 168.862C184.848 168.575 184.776 168.034 184.527 167.242C184.508 167.185 184.492 167.127 184.478 167.068C184.281 166.256 183.943 165.578 183.464 165.033C183.438 165.004 183.412 164.973 183.387 164.942C182.407 163.726 179.548 162.039 174.809 159.879C173.333 159.206 172.741 157.498 173.487 156.063C174.233 154.628 176.034 154.011 177.51 154.683C183.076 157.22 186.628 159.443 188.167 161.351L188.09 161.26C189.164 162.481 189.905 163.932 190.313 165.613L190.265 165.439C190.886 167.413 190.928 169.136 190.392 170.61C190.364 170.684 190.334 170.758 190.301 170.83C189.267 173.071 187.505 174.008 185.012 173.641C184.604 173.581 184.186 173.477 183.758 173.33C183.677 173.302 183.597 173.271 183.519 173.236C181.408 172.3 179.233 170.721 176.995 168.5L177.029 168.533C174.96 166.547 173.661 164.989 173.132 163.86C172.834 163.223 172.698 162.601 172.725 161.995C172.731 161.867 172.745 161.739 172.769 161.612C173.158 159.514 174.515 158.327 176.841 158.053C177.477 157.978 178.181 157.994 178.954 158.103C179.027 158.113 179.1 158.126 179.173 158.141C181.651 158.675 183.867 160.188 185.82 162.683C185.841 162.709 185.861 162.735 185.88 162.762C186.557 163.693 187.172 164.956 187.725 166.55C187.775 166.695 187.813 166.843 187.838 166.994C187.871 167.193 187.894 167.388 187.906 167.58L187.906 167.579C187.988 168.863 187.631 169.96 186.835 170.871L186.895 170.801C186.276 171.554 185.416 172.06 184.315 172.318C182.913 172.647 180.858 172.555 178.147 172.043L178.178 172.048C175.029 171.486 172.542 170.512 170.718 169.127C169.441 168.156 169.258 166.354 170.308 165.101C171.359 163.849 173.246 163.62 174.523 164.59Z" fill="#94C595"/>
<path d="M164.067 127.489C164.063 127.489 164.06 127.489 164.06 127.489L164.061 127.489C164.403 127.516 165.724 127.346 168.471 126.438C170.741 125.688 176.037 123.601 184.545 120.162C186.205 119.49 188.544 118.797 191.272 117.983C191.787 117.83 192.325 117.669 192.881 117.503C193.475 117.324 193.93 117.083 194.385 116.824C196.132 115.827 196.842 115.241 196.998 115.062L196.998 115.062C197.12 114.921 196.556 115.462 196.648 116.448C196.62 116.146 196.642 115.84 196.714 115.542C197.125 113.835 196.807 113.29 196.696 113.168C195.546 111.899 193.626 110.895 190.82 110.008L191.127 110.088C188.939 109.641 188.364 109.615 181.113 109.409L181.113 109.409L180.258 109.385L180.666 109.37C178.267 109.615 177.842 109.643 177.56 109.66C177.509 109.663 177.497 109.664 177.399 109.674L177.399 109.674C177.187 109.695 176.748 109.746 175.572 109.884L175.831 109.842L153.657 114.341C153.638 114.345 153.62 114.349 153.601 114.352C151.987 114.649 150.591 114.863 149.692 114.862L149.692 114.862C149.618 114.862 149.541 114.861 149.46 114.857C147.81 114.789 146.57 113.45 146.691 111.867C146.811 110.284 148.245 109.056 149.894 109.124C149.879 109.124 149.871 109.124 149.871 109.124L149.871 109.124C150.102 109.124 150.931 109.032 152.639 108.718L152.583 108.729L174.757 104.23C174.843 104.212 174.929 104.199 175.016 104.188C176.165 104.053 176.667 103.995 176.936 103.968L176.936 103.968C177.144 103.947 177.249 103.94 177.364 103.933C177.496 103.925 177.797 103.91 180.203 103.664C180.339 103.65 180.476 103.645 180.612 103.649L181.467 103.673C188.569 103.875 189.725 103.899 192.539 104.474C192.643 104.495 192.745 104.522 192.846 104.554C195.969 105.541 199.093 106.933 201.268 109.334C203.268 111.542 203.081 114.461 202.548 116.675L202.613 115.77C202.744 117.165 201.945 118.205 201.558 118.651L201.558 118.651C200.646 119.703 199.08 120.737 197.335 121.732C196.749 122.066 195.802 122.589 194.516 122.974C193.953 123.143 193.413 123.304 192.896 123.458C190.034 124.312 188.048 124.908 186.734 125.439C178.321 128.84 172.789 131.026 170.273 131.858C167.599 132.741 165.146 133.349 163.385 133.207L163.385 133.207C163.323 133.202 163.261 133.196 163.198 133.189C161.562 133.005 160.43 131.581 160.67 130.007C160.909 128.433 162.43 127.306 164.067 127.489Z" fill="#94C595"/>
<path d="M175.971 112.605C177.958 113.62 180.392 114.189 183.274 114.31L182.989 114.311C185.787 114.174 187.727 113.671 188.811 112.804C188.832 112.787 188.853 112.77 188.875 112.754C189.292 112.437 189.55 112.195 189.649 112.03C189.546 112.202 189.521 112.43 189.573 112.713L189.702 113.178C189.834 113.527 190.015 113.759 190.246 113.876L190.246 113.876C190.127 113.816 189.899 113.758 189.56 113.702L189.853 113.736C188.29 113.63 186.64 113.883 184.902 114.493L184.905 114.492C183.688 114.921 182.573 115.625 181.557 116.603L181.66 116.499C181.553 116.614 181.482 116.699 181.449 116.756L181.449 116.756C181.781 116.189 181.675 115.641 181.13 115.111L180.417 114.604C180.843 114.818 181.783 114.746 183.237 114.388C183.248 114.385 183.258 114.383 183.269 114.38C185.956 113.747 188.072 112.97 189.617 112.049L189.527 112.105C188.62 112.688 188.393 113.523 188.846 114.611C188.542 113.881 188.571 113.054 188.927 112.326L188.927 112.326C188.254 113.702 188.469 114.765 189.573 115.516L189.573 115.516C189.493 115.461 189.331 115.372 189.086 115.248L189.266 115.332C187.784 114.699 185.515 114.381 182.46 114.375L182.695 114.367C181.404 114.461 179.791 115.062 177.855 116.169C176.417 116.992 174.589 116.561 173.773 115.206C172.956 113.852 173.46 112.087 174.898 111.265C177.664 109.683 180.169 108.81 182.413 108.645C182.491 108.639 182.569 108.637 182.648 108.637C186.537 108.644 189.599 109.124 191.835 110.078C191.896 110.104 191.956 110.132 192.015 110.162C192.478 110.398 192.851 110.611 193.133 110.803L193.133 110.803C194.673 111.85 195.074 113.127 194.337 114.634L194.417 112.35C195.168 114.152 194.616 115.649 192.761 116.841C192.731 116.86 192.702 116.879 192.671 116.897C190.569 118.15 187.857 119.168 184.536 119.951L184.568 119.943C181.627 120.668 179.276 120.588 177.516 119.704C177.252 119.572 177.011 119.401 176.803 119.198C175.289 117.725 175.104 116.013 176.247 114.061L176.247 114.061C176.508 113.615 176.848 113.169 177.269 112.723C177.302 112.688 177.337 112.653 177.372 112.619C179.037 111.014 180.907 109.845 182.984 109.113L182.987 109.112C185.542 108.215 188.029 107.848 190.45 108.012C190.548 108.019 190.646 108.03 190.743 108.046C191.689 108.202 192.492 108.446 193.152 108.778L193.152 108.778C194.238 109.325 194.969 110.097 195.343 111.093C195.4 111.244 195.443 111.399 195.472 111.558C195.671 112.635 195.458 113.7 194.835 114.751C194.337 115.592 193.561 116.412 192.507 117.211L192.572 117.161C190.429 118.878 187.279 119.838 183.12 120.042C183.025 120.047 182.93 120.047 182.835 120.043C179.065 119.884 175.798 119.099 173.033 117.687C171.592 116.95 171.081 115.216 171.892 113.813C172.704 112.41 174.529 111.869 175.971 112.605Z" fill="#94C595"/>
<path d="M122.256 180.773C121.625 180.999 121.277 181.596 121.213 182.562L121.214 182.549C121.023 185.627 121.187 187.49 121.705 188.138L121.705 188.138C121.689 188.119 121.664 188.096 121.63 188.069L121.618 188.061C121.48 187.956 121.358 187.893 121.251 187.872C121.412 187.904 121.706 187.891 122.135 187.832C122.166 187.828 122.198 187.824 122.23 187.821C123.28 187.709 123.961 187.581 124.27 187.439C124.138 187.5 123.994 187.615 123.839 187.785C123.846 187.777 123.854 187.768 123.862 187.76C124.728 186.834 125.141 185.256 125.101 183.024L125.117 183.274C125.045 182.615 124.935 182.193 124.788 182.006C124.871 182.111 124.981 182.169 125.12 182.18L125.12 182.18C125.118 182.18 125.115 182.18 125.111 182.18C125.066 182.179 125.02 182.177 124.975 182.175C125.438 182.203 125.8 182.127 126.061 181.947C125.865 182.082 125.562 182.415 125.151 182.946L125.202 182.878C124.814 183.41 124.597 183.79 124.551 184.019L124.551 184.019C124.555 184 124.557 183.972 124.557 183.937C124.542 185.521 123.188 186.831 121.535 186.863C119.881 186.895 118.553 185.636 118.569 184.052C118.572 183.736 118.606 183.414 118.673 183.087L118.673 183.087C118.884 182.04 119.436 180.906 120.326 179.685C120.343 179.662 120.36 179.639 120.378 179.617C121.175 178.586 121.935 177.822 122.658 177.323C123.591 176.68 124.547 176.388 125.528 176.448L125.391 176.442C125.523 176.445 125.653 176.451 125.782 176.461L125.781 176.461C127.375 176.586 128.649 177.252 129.602 178.459C130.397 179.466 130.887 180.816 131.073 182.509C131.082 182.591 131.087 182.675 131.089 182.758C131.156 186.517 130.216 189.438 128.269 191.519L128.293 191.494C127.886 191.939 127.364 192.308 126.729 192.6C125.792 193.03 124.456 193.338 122.719 193.524L122.814 193.512C121.682 193.668 120.692 193.659 119.844 193.486C119.066 193.328 118.394 193.036 117.828 192.608L117.817 192.6C117.484 192.346 117.182 192.05 116.911 191.712L116.912 191.712C115.517 189.968 114.958 186.856 115.236 182.378L115.236 182.365C115.47 178.853 117.159 176.534 120.303 175.406C121.866 174.845 123.571 175.592 124.11 177.074C124.65 178.556 123.82 180.212 122.256 180.773Z" fill="#94C595"/>
<path d="M80.1397 120.068C79.6669 120.058 79.1844 120.033 78.7632 119.971L78.7633 119.971C78.5917 119.946 78.3654 119.906 78.1244 119.836L78.2256 119.863L74.5326 118.928L74.8546 118.992C72.5634 118.668 70.2205 118.194 67.8466 117.678C66.5104 117.388 65.0417 117.23 63.7717 117.096C63.3232 117.049 62.8641 117.001 62.4853 116.951C60.8542 116.736 59.753 115.288 60.0257 113.719C60.2985 112.149 61.8418 111.051 63.4729 111.266C63.7534 111.303 64.1241 111.342 64.5994 111.392C65.8227 111.521 67.6195 111.708 69.3326 112.08C71.67 112.587 73.8361 113.023 75.8985 113.314C76.0072 113.33 76.1147 113.351 76.2206 113.378L79.9135 114.313C79.9474 114.321 79.9812 114.33 80.0147 114.34C79.8945 114.305 79.8225 114.296 79.8366 114.298L79.8368 114.298C79.8781 114.304 80.0589 114.323 80.4501 114.331C82.1016 114.367 83.371 115.68 83.2853 117.264C83.1996 118.848 81.7913 120.103 80.1397 120.068Z" fill="#94C595"/>
<path d="M97.8827 169.657C96.8171 171.293 95.3845 173.08 93.5848 175.018L93.6603 174.934C92.6539 176.102 90.4661 178.218 87.0969 181.283L87.2178 181.167C86.689 181.704 86.1846 182.26 85.7047 182.835L85.759 182.768L85.1036 183.601L85.2266 183.433C85.2123 183.454 85.2023 183.469 85.1965 183.478L85.1966 183.478C86.1693 181.957 85.8519 180.708 84.2444 179.731L84.2439 179.73C82.9032 178.916 81.6763 179.047 80.563 180.124C80.6553 180.034 80.7532 179.951 80.8564 179.874L80.8565 179.873C80.4993 180.141 80.2386 180.436 80.0746 180.757L80.0744 180.757C80.0869 180.732 80.1078 180.688 80.1369 180.624C80.802 179.155 82.5686 178.446 84.0827 179.04C85.5968 179.634 86.2851 181.307 85.6201 182.776C85.5528 182.924 85.4918 183.052 85.4371 183.159L85.437 183.159C85.1818 183.658 84.857 184.055 84.4623 184.351L84.7558 184.101C83.5601 185.258 82.2855 185.425 80.9318 184.602L80.9313 184.602C79.3063 183.614 79.0343 182.275 80.1153 180.585L80.1154 180.585C80.1511 180.529 80.1918 180.468 80.2374 180.401C80.2764 180.343 80.3174 180.287 80.3604 180.233L81.0159 179.4C81.0337 179.377 81.0518 179.355 81.0702 179.333C81.6572 178.629 82.2739 177.95 82.9203 177.293C82.9595 177.254 82.9998 177.215 83.0412 177.177C86.2268 174.279 88.2422 172.34 89.0874 171.359C89.1121 171.33 89.1372 171.302 89.1629 171.274C90.7276 169.59 91.9492 168.073 92.8279 166.723C93.7148 165.361 95.5653 164.914 96.9612 165.724C98.357 166.534 98.7696 168.295 97.8827 169.657Z" fill="#94C595"/>
<path d="M155.376 182.016C155.735 182.653 156.061 183.367 156.356 184.16L156.351 184.147C156.532 184.626 156.839 185.585 157.274 187.026L157.279 187.042C157.523 187.871 157.741 188.698 157.934 189.525L157.934 189.525C157.998 189.802 158.059 190.077 158.118 190.352L158.117 190.351C158.291 191.167 158.513 192.225 158.784 193.527L158.771 193.47C158.768 193.453 158.768 193.454 158.772 193.473L158.774 193.48C158.873 193.917 158.943 194.205 158.982 194.343C158.985 194.352 158.988 194.362 158.99 194.372C159.113 194.82 159.241 195.243 159.376 195.638L159.358 195.587C159.907 197.101 160.228 198.012 160.322 198.322L160.322 198.321C160.329 198.343 160.335 198.363 160.341 198.384L160.315 198.3C160.495 198.855 160.637 199.37 160.742 199.843C161.083 201.384 160.047 202.934 158.429 203.306C156.811 203.678 155.222 202.731 154.882 201.19C154.814 200.886 154.717 200.538 154.59 200.146C154.581 200.118 154.573 200.09 154.565 200.062C154.566 200.066 154.567 200.069 154.567 200.071L154.567 200.07C154.501 199.854 154.211 199.034 153.695 197.612C153.689 197.596 153.683 197.579 153.677 197.562C153.506 197.061 153.345 196.532 153.193 195.975L153.201 196.004C153.136 195.774 153.042 195.392 152.921 194.86L152.922 194.867C152.926 194.884 152.926 194.883 152.922 194.865C152.916 194.841 152.913 194.824 152.909 194.808C152.641 193.516 152.42 192.465 152.248 191.655L152.248 191.654C152.196 191.412 152.143 191.171 152.087 190.93L152.087 190.931C151.918 190.206 151.726 189.479 151.511 188.751L151.516 188.767C151.117 187.444 150.849 186.601 150.712 186.238L150.708 186.226C150.512 185.7 150.306 185.244 150.087 184.857C149.311 183.48 149.866 181.728 151.326 180.943C152.787 180.159 154.6 180.639 155.376 182.016Z" fill="#94C595"/>
<path d="M196.105 134.91C199.988 136.303 203.501 137.349 206.645 138.05C206.846 138.095 207.042 138.16 207.227 138.243L207.227 138.243C207.136 138.202 207.059 138.173 206.997 138.155L206.997 138.155C207.753 138.369 210.911 138.819 216.471 139.505C216.515 139.51 216.56 139.517 216.604 139.524C217.381 139.655 218.064 139.836 218.653 140.068C220.165 140.666 220.85 142.34 220.182 143.807C219.514 145.275 217.746 145.981 216.233 145.383C216.037 145.306 215.76 145.237 215.402 145.177L215.535 145.196C209.663 144.473 206.199 143.961 205.143 143.662L205.143 143.661C204.921 143.598 204.722 143.527 204.546 143.448L205.127 143.641C201.736 142.885 197.981 141.769 193.862 140.291C192.328 139.741 191.587 138.091 192.207 136.605C192.826 135.119 194.571 134.36 196.105 134.91Z" fill="#94C595"/>
<path d="M172.942 86.0763C174.345 84.4397 175.146 83.4853 175.345 83.2129L175.345 83.2126C175.335 83.2256 175.324 83.2428 175.309 83.2643L175.311 83.2618C177.528 79.9144 179.009 77.7893 179.752 76.8866L179.75 76.8898L184.646 70.9276C185.683 69.6647 187.568 69.4167 188.856 70.3737C190.144 71.3307 190.348 73.1303 189.311 74.3933L184.414 80.3555L184.412 80.3586C183.801 81.1008 182.443 83.0594 180.34 86.2343L180.342 86.2318C180.305 86.2883 180.263 86.3482 180.216 86.4117L180.217 86.4114C179.926 86.8088 179.029 87.8848 177.525 89.6394C176.46 90.8815 174.571 91.0908 173.306 90.1068C172.04 89.1229 171.877 87.3184 172.942 86.0763Z" fill="#94C595"/>
<path d="M111.378 70.2059L111.378 70.206C111.328 70.09 111.283 69.9804 111.245 69.8772L111.244 69.8768C111.173 69.6868 111.119 69.5062 111.08 69.3351L111.083 69.3507C110.785 68.0641 110.589 67.2657 110.496 66.9555C110.491 66.9388 110.486 66.922 110.481 66.9052C110.236 66.0249 110.054 65.419 109.935 65.0876C109.93 65.0738 109.925 65.0604 109.92 65.0465C109.809 64.723 109.689 64.3942 109.559 64.0601L109.564 64.0736C109.298 63.4 108.799 62.166 108.067 60.3716L108.06 60.3559C107.781 59.6592 107.51 58.9601 107.247 58.2584L107.244 58.2525C106.589 56.4934 106.104 55.1061 105.791 54.0909L105.793 54.096C105.547 53.3059 105.354 52.5401 105.212 51.7984C105.209 51.7805 105.206 51.7628 105.203 51.7448L105.194 51.687L105.193 51.6861L105.203 51.744C105.036 50.7629 104.906 49.8117 104.812 48.8902C104.652 47.3182 105.857 45.882 107.503 45.6823C109.149 45.4826 110.613 46.5951 110.773 48.167C110.855 48.9684 110.969 49.8001 111.115 50.662L111.124 50.7199L111.124 50.7207L111.105 50.6093C111.208 51.149 111.352 51.716 111.536 52.3103L111.538 52.3155C111.821 53.2314 112.272 54.5207 112.891 56.1832L112.889 56.1773C113.139 56.8417 113.395 57.5036 113.659 58.1629L113.653 58.1472C114.393 59.9597 114.899 61.2121 115.173 61.9043L115.178 61.9179C115.335 62.3214 115.481 62.7201 115.616 63.1139L115.602 63.0729C115.767 63.5311 115.99 64.265 116.271 65.2748L116.256 65.2244C116.382 65.6433 116.607 66.5513 116.931 67.9483L116.935 67.9639C116.919 67.8959 116.904 67.842 116.89 67.8024L116.889 67.802C116.894 67.8141 116.902 67.8336 116.914 67.8607C117.545 69.307 116.818 71.0044 115.289 71.652C113.76 72.2995 112.01 71.6521 111.378 70.2059Z" fill="#94C595"/>
<path d="M99.0511 133.626L99.1514 133.371C99.9653 131.308 102.352 130.219 104.482 130.938C106.613 131.658 107.68 133.913 106.866 135.977L106.766 136.231C105.952 138.294 103.565 139.384 101.435 138.664C99.3045 137.945 98.2372 135.689 99.0511 133.626Z" fill="#94C595"/>
<path d="M119.392 93.3552C119.643 92.9523 119.884 92.4301 120.117 91.7885L119.98 92.2544C120.668 89.2256 121.135 87.35 121.378 86.6275L121.378 86.6277C121.666 85.7732 122.122 85.0861 122.744 84.5665L121.487 86.3765C121.81 85.4387 122.35 84.3434 123.108 83.0906L122.671 84.1082C122.758 83.7881 122.896 83.4506 123.085 83.0955C123.63 82.0719 126.125 78.2339 130.569 71.5815C130.601 71.5343 130.633 71.4876 130.667 71.4416C131.661 70.079 132.733 69.0445 133.881 68.3383C134.947 67.6827 136.064 67.3067 137.232 67.2103C137.824 67.1615 138.416 67.2351 138.968 67.4262C142.083 68.5036 144.256 71.0263 145.489 74.9943L144.119 73.0719C144.866 73.6274 145.378 74.415 145.653 75.4346L145.653 75.4345C145.936 76.4814 146.36 79.3585 146.925 84.0658L146.881 83.7863L149.047 94.7529C149.469 96.8876 147.994 98.9967 145.752 99.4637C143.511 99.9307 141.352 98.5788 140.931 96.4442L138.765 85.4775C138.746 85.385 138.731 85.2917 138.72 85.198C138.198 80.8492 137.842 78.3254 137.654 77.6269L137.654 77.6267C137.833 78.291 138.261 78.8747 138.938 79.3779C138.284 78.8918 137.806 78.221 137.568 77.4556C137.099 75.9452 136.564 75.0862 135.963 74.8784L137.7 75.0942C137.915 75.0764 138.08 75.0321 138.196 74.9611C138.002 75.0802 137.733 75.3755 137.389 75.847L137.487 75.7071C133.193 82.1344 130.837 85.741 130.418 86.5269C130.511 86.3532 130.591 86.1404 130.66 85.8884C130.563 86.2444 130.416 86.5866 130.223 86.906C129.761 87.6694 129.461 88.2525 129.322 88.6552C129.082 89.3531 128.647 89.9795 128.065 90.4652C128.643 89.9824 129.032 89.4468 129.23 88.8585L129.23 88.8586C129.071 89.3291 128.677 90.9497 128.047 93.7204C128.011 93.8779 127.965 94.0335 127.91 94.1863C127.488 95.3523 127.002 96.3762 126.453 97.258C125.271 99.1589 122.731 99.8263 120.781 98.7485C118.831 97.6708 118.209 95.2561 119.392 93.3552Z" fill="#94C595"/>
<path d="M112.204 91.6605L112.221 91.6589L112.222 91.6588L112.205 91.6604C112.5 91.6313 112.791 91.6126 113.076 91.6044C113.1 91.6037 113.124 91.6032 113.147 91.6029L113.17 91.6027L113.171 91.6027L113.149 91.6029C113.271 91.6014 113.387 91.6033 113.499 91.6086L113.501 91.6087L114.049 91.6349C116.322 91.7435 118.019 93.6009 117.839 95.7833C117.659 97.9658 115.669 99.647 113.396 99.5383L112.848 99.5121L112.85 99.5122C112.908 99.515 112.961 99.516 113.009 99.5155L112.987 99.5157L112.987 99.5157L113.081 99.514C112.997 99.5164 112.907 99.5224 112.812 99.5318L112.795 99.5334L112.794 99.5334C110.537 99.7564 108.557 98.1764 108.39 96.0028C108.222 93.8292 109.93 91.8851 112.204 91.6605Z" fill="#94C595"/>
<path d="M123.824 96.053L123.824 96.0529C124.392 96.496 124.962 96.7417 125.534 96.79C125.338 96.7734 124.932 96.7778 124.316 96.8031L124.781 96.7588C124.34 96.825 124.045 96.8771 123.896 96.9151C123.762 96.9494 123.627 96.9774 123.491 96.9988L122.036 97.2276L122.381 97.1589L120.849 97.5285L120.909 97.5138C120.926 97.5093 120.943 97.5044 120.958 97.4989L121.131 97.435C120.777 97.5748 120.378 97.7178 119.935 97.8641C119.798 97.9092 119.659 97.9475 119.519 97.9788C119.759 97.9252 119.975 97.8582 120.168 97.778L120.168 97.778C120.076 97.8166 119.82 97.9297 119.401 98.1174L119.482 98.0799L118.564 98.5141L118.965 98.2981C118.494 98.5847 117.898 98.9096 117.178 99.2728L117.344 99.1848C117.222 99.2528 117.085 99.322 116.933 99.3923L116.933 99.3923C116.804 99.4519 116.636 99.5251 116.43 99.612C114.32 100.5 111.908 99.6022 111.043 97.6058C110.177 95.6093 111.186 93.2707 113.296 92.3823C113.411 92.3338 113.488 92.3005 113.528 92.2823L113.528 92.2822C113.475 92.3067 113.41 92.3401 113.335 92.3823C113.39 92.3517 113.445 92.3224 113.5 92.2943C114.015 92.0346 114.41 91.821 114.685 91.6536C114.815 91.5747 114.949 91.5026 115.086 91.4376L116.005 91.0034C116.032 90.9906 116.059 90.9781 116.086 90.9659C116.577 90.7462 116.905 90.602 117.07 90.5333L117.07 90.5333C117.346 90.4185 117.612 90.3326 117.867 90.2754L117.452 90.3902C117.738 90.2957 117.982 90.2088 118.183 90.1296C118.24 90.107 118.298 90.0857 118.356 90.0656C118.567 89.9924 118.781 89.9282 118.996 89.873C119.016 89.8679 119.036 89.863 119.055 89.8582L120.587 89.4886C120.701 89.461 120.817 89.438 120.933 89.4198L122.388 89.191L121.982 89.2747C122.419 89.1627 123.005 89.0516 123.74 88.9414C123.894 88.9184 124.049 88.9036 124.205 88.8972C125.18 88.857 125.945 88.8604 126.499 88.9072C127.57 88.9977 128.453 89.314 129.148 89.8562C130.892 91.2151 131.113 93.704 129.643 95.4152C128.173 97.1264 125.567 97.412 123.824 96.053Z" fill="#94C595"/>
<path d="M124.41 92.3042C125.128 93.1636 125.986 93.6183 126.986 93.6685C126.896 93.6639 126.722 93.6649 126.464 93.6712L126.878 93.6411L125.598 93.7962L125.817 93.7639L122.667 94.3094L122.833 94.2775C122.284 94.3945 121.881 94.4914 121.624 94.5681L121.901 94.4754C121.444 94.6456 121.156 94.756 121.039 94.8066L121.038 94.8066C121.153 94.7576 121.282 94.6896 121.427 94.6029C121.348 94.65 121.268 94.6948 121.186 94.7369L118.291 96.2309C118.211 96.2721 118.13 96.3109 118.047 96.3472C117.817 96.4484 117.548 96.5727 117.241 96.7203C117.176 96.7515 117.111 96.7811 117.044 96.8091C116.456 97.0567 116.087 97.2175 115.938 97.2916L115.937 97.292C115.939 97.2909 115.941 97.2899 115.943 97.289C115.897 97.3118 115.851 97.3339 115.805 97.3551C115.66 97.4212 115.415 97.5655 115.069 97.7881C113.151 99.0232 110.596 98.5632 109.363 96.7606C108.13 94.958 108.685 92.4954 110.604 91.2603C111.298 90.8133 111.907 90.4703 112.429 90.2313L112.291 90.2973C112.297 90.2944 112.303 90.2914 112.31 90.2883L112.309 90.2887C112.621 90.1336 113.155 89.8969 113.912 89.5786L113.715 89.6674C114.11 89.4775 114.467 89.3123 114.787 89.1718L114.543 89.2881L117.438 87.7942L117.198 87.9283C117.387 87.815 117.603 87.7059 117.848 87.601L117.848 87.601C118.096 87.4942 118.516 87.3308 119.106 87.1109C119.197 87.0769 119.29 87.046 119.383 87.0182C119.863 86.8752 120.49 86.721 121.266 86.5556C121.321 86.5438 121.376 86.5332 121.431 86.5236L124.581 85.9781C124.654 85.9655 124.727 85.9548 124.8 85.9459L126.08 85.7908C126.218 85.7741 126.356 85.7641 126.494 85.7606C126.967 85.749 127.355 85.7508 127.659 85.766C129.064 85.8365 130.15 86.3315 130.918 87.2511C132.322 88.9327 132.004 91.4271 130.206 92.8225C128.409 94.2179 125.814 93.9859 124.41 92.3042Z" fill="#94C595"/>
<path d="M112.048 94.4504L112.048 94.4502C112.051 94.4569 112.054 94.4619 112.056 94.4652L112.056 94.4657C111.98 94.3387 111.81 94.1359 111.545 93.8573L112.089 94.3322C110.64 93.2859 108.707 91.4568 106.288 88.8449L106.882 89.3677L100.361 84.7092L100.636 84.8886C99.6916 84.3254 98.691 83.9619 97.6342 83.7981C97.2411 83.7371 96.8611 83.6215 96.5061 83.4548L96.5061 83.4549C97.5978 83.9673 98.5723 84.0035 99.4297 83.5635C99.3026 83.6288 99.0859 83.773 98.7798 83.9962L99.8014 82.934C99.7927 82.9472 99.7865 82.9571 99.7828 82.9637L99.7828 82.9638C99.8519 82.837 99.8843 82.6615 99.88 82.4371C99.8814 82.511 99.8807 82.5852 99.8778 82.6593C99.7718 85.3559 99.7911 87.0255 99.9359 87.668L99.9359 87.6681C99.9238 87.6145 99.9004 87.5442 99.8656 87.457C99.926 87.6082 99.9763 87.7631 100.016 87.9209C100.146 88.4309 100.28 88.8746 100.419 89.2519L100.365 89.115C102.718 94.814 104.405 99.2469 105.427 102.413L105.389 102.303C105.565 102.795 105.921 103.603 106.457 104.725C107.395 106.689 106.47 109.058 104.391 110.014C102.312 110.971 99.8668 110.154 98.929 108.19C98.2837 106.838 97.8301 105.796 97.5683 105.064C97.5551 105.027 97.5426 104.99 97.5306 104.953C96.5692 101.974 94.9501 97.7269 92.6732 92.2107C92.6545 92.1653 92.6368 92.1198 92.6198 92.0738C92.3922 91.4543 92.1819 90.7648 91.9888 90.0053L92.1396 90.4691C92.0283 90.19 91.9353 89.8848 91.8607 89.5535L91.8607 89.5536C91.5716 88.2702 91.493 85.9504 91.625 82.594L91.6228 82.8162C91.6007 81.6774 91.889 80.5593 92.4875 79.4621L92.4874 79.4622C92.6064 79.244 92.7376 79.0275 92.8808 78.8128C93.1533 78.4043 93.4995 78.0444 93.9024 77.7506C94.5715 77.2628 95.1702 76.8833 95.6986 76.6121C97.3609 75.7591 98.8994 75.6646 100.314 76.3287L99.186 75.9855C101.308 76.3145 103.295 77.0313 105.147 78.1361C105.241 78.1922 105.333 78.2521 105.422 78.3155L111.943 82.974C112.159 83.1284 112.358 83.3035 112.537 83.4967C114.606 85.7311 116.154 87.2196 117.182 87.9621C117.379 88.1039 117.561 88.2629 117.726 88.437C118.38 89.125 118.889 89.7732 119.252 90.3817L119.253 90.3822C119.312 90.4819 119.369 90.5813 119.421 90.6803C120.448 92.6014 119.631 95.0028 117.594 96.0439C115.558 97.0851 113.075 96.3716 112.048 94.4504Z" fill="#94C595"/>
<path d="M109.043 92.7453C109.09 92.8569 109.133 92.9444 109.173 93.0078L109.173 93.008C109.022 92.7671 108.623 92.2754 107.975 91.5328L108.021 91.5847C107.478 90.9849 106.98 90.4891 106.527 90.0972C106.37 89.9618 106.225 89.8145 106.093 89.6568L106.093 89.6569C104.345 87.5719 104.568 85.6741 106.763 83.9635L106.763 83.963C107.835 83.1275 109.096 82.8494 110.546 83.1286C110.872 83.1913 111.187 83.2919 111.485 83.4282C112.759 84.0108 113.945 84.8305 115.043 85.8872L114.865 85.7266C114.948 85.797 115.034 85.8748 115.124 85.9601L115.124 85.96C115.247 86.0769 115.389 86.2204 115.55 86.3905C115.591 86.4336 115.631 86.4776 115.67 86.5225C116.38 87.3427 116.802 87.8248 116.939 87.9689L116.939 87.969C115.244 86.177 113.372 86.1033 111.325 87.748L111.328 87.7454C109.658 89.0846 109.274 90.673 110.175 92.5107C109.323 90.7744 109.931 88.6653 111.609 87.5314C113.287 86.3976 115.54 86.5737 116.928 87.9474C116.945 87.9638 116.958 87.9756 116.966 87.9828L116.966 87.9829C116.866 87.8957 116.717 87.8065 116.518 87.7152C117.152 88.0065 117.692 88.4522 118.086 89.0092L118.086 89.009C118.198 89.1677 118.289 89.3006 118.359 89.4077L118.359 89.4077C118.598 89.7741 118.773 90.1364 118.882 90.4943C119.516 92.5746 118.253 94.8032 116.063 95.4721C113.872 96.1409 111.582 94.9967 110.948 92.9164C111.047 93.2389 111.171 93.5158 111.323 93.7471L111.322 93.747C111.302 93.7163 111.263 93.6594 111.204 93.5765L112.772 94.8703C112.269 94.6394 111.781 94.3172 111.307 93.9038L111.308 93.9039C111.177 93.7901 111.046 93.6681 110.915 93.5379L117.668 88.9746C118.573 90.8195 118.189 92.4121 116.518 93.7525L116.521 93.7499C114.467 95.3998 112.542 95.2756 110.747 93.3772L110.747 93.3774C110.532 93.1507 110.033 92.5842 109.249 91.6778L109.369 91.8098C109.296 91.7336 109.245 91.6815 109.216 91.6537L109.216 91.6537C109.232 91.6688 109.254 91.6884 109.282 91.7125C109.221 91.6605 109.162 91.607 109.105 91.5518C108.651 91.1147 108.2 90.7938 107.752 90.5889L108.691 90.8885C109.805 91.1031 110.861 90.8215 111.859 90.0438L111.86 90.0432C113.997 88.3771 114.241 86.56 112.591 84.592L112.157 84.1516C112.85 84.7509 113.575 85.4676 114.329 86.3017C114.345 86.3189 114.36 86.3362 114.375 86.3537C115.287 87.3983 115.924 88.21 116.286 88.7889L116.286 88.7891C116.462 89.0691 116.605 89.3394 116.714 89.6001C117.559 91.6053 116.526 93.9348 114.408 94.8034C112.289 95.6719 109.887 94.7504 109.043 92.7453Z" fill="#94C595"/>
<path d="M109.671 112.659C108.351 113.107 107.371 114.142 106.993 115.37L106.989 115.371C106.396 116.269 106.196 117.42 106.388 118.825L106.388 118.825C106.418 119.045 106.46 119.277 106.514 119.521C106.525 119.572 106.537 119.622 106.589 119.799L106.586 119.8C106.762 120.42 107.136 121.529 107.708 123.129C107.719 123.159 107.73 123.188 107.741 123.218C108.256 124.548 108.694 125.693 109.056 126.651L109.056 126.651C108.446 126.731 107.863 126.865 107.308 127.054C105.847 127.55 104.576 128.423 103.494 129.671C103.365 129.82 103.247 129.978 103.141 130.143C102.967 130.414 102.813 130.682 102.679 130.948L102.679 130.948C102.309 131.679 102.084 132.397 102.003 133.103L101.999 133.105C100.725 134.419 100.123 136.053 100.194 138.007C100.212 138.501 100.327 138.984 100.532 139.432C102.106 142.867 105.422 144.917 110.48 145.582C110.509 145.586 110.539 145.59 110.568 145.593C112.286 145.782 113.991 145.59 115.681 145.016C116.112 144.87 116.541 144.699 116.97 144.503L116.974 144.502C117.067 144.5 117.158 144.496 117.247 144.492L117.247 144.492C118.04 144.451 118.737 144.329 119.336 144.125C121.02 143.553 121.935 142.338 122.082 140.48L122.078 140.481C122.599 139.552 122.794 138.55 122.663 137.475L122.66 137.477C122.894 135.939 122.283 134.513 120.825 133.199L120.821 133.2C120.584 132.84 120.333 132.494 120.069 132.163C120.061 132.152 120.052 132.141 120.043 132.131C119.75 131.772 119.456 131.43 119.16 131.106L119.156 131.108C119.044 130.644 118.941 130.226 118.846 129.853L118.842 129.854C118.861 129.768 118.876 129.68 118.889 129.593C118.948 129.179 118.942 128.725 118.872 128.231L118.872 128.231C118.81 127.797 118.674 127.162 118.465 126.326C118.441 126.23 118.413 126.134 118.381 126.04C117.686 123.981 117.097 122.214 116.613 120.738L116.609 120.739C116.492 120.265 116.375 119.787 116.26 119.308C116.257 119.294 116.253 119.279 116.249 119.264C116.089 118.628 115.813 117.79 115.424 116.753C115.398 116.684 115.371 116.617 115.341 116.551C115.299 116.455 115.256 116.363 115.212 116.274L115.209 116.275C115.108 115.921 115.036 115.65 114.995 115.46C114.529 113.335 112.341 112.025 110.109 112.535C109.959 112.569 109.813 112.61 109.671 112.659Z" fill="#94C595"/>
<path d="M111.74 132.548C112.943 133.716 114.213 135.563 115.549 138.088L115.54 138.072C116.51 139.882 117.105 141.04 117.324 141.545L117.324 141.545C117.358 141.624 117.389 141.7 117.417 141.771L117.358 141.627C117.755 142.539 118.089 143.501 118.358 144.514C118.362 144.529 118.366 144.543 118.37 144.559C118.668 145.738 118.872 146.753 118.982 147.603L118.979 147.586C119.146 148.836 119.432 151.588 119.837 155.839L119.82 155.695L120.367 159.765L120.344 159.617C120.868 162.608 121.172 164.639 121.258 165.711C121.431 167.884 119.729 169.832 117.455 170.062C115.181 170.293 113.197 168.718 113.023 166.545C112.956 165.707 112.681 163.908 112.198 161.149C112.189 161.1 112.182 161.051 112.175 161.001L111.629 156.932C111.622 156.884 111.617 156.836 111.612 156.788C111.216 152.63 110.941 149.972 110.787 148.814L110.784 148.797C110.713 148.244 110.565 147.524 110.341 146.636L110.352 146.681C110.179 146.032 109.97 145.424 109.723 144.857C109.702 144.81 109.682 144.762 109.664 144.714C109.672 144.736 109.679 144.753 109.685 144.765L109.684 144.765C109.547 144.449 109.042 143.476 108.17 141.848L108.161 141.831C107.197 140.01 106.403 138.796 105.777 138.188C104.199 136.656 104.255 134.151 105.902 132.593C107.548 131.036 110.162 131.015 111.74 132.548Z" fill="#94C595"/>
<path d="M112.184 160.303C112.173 160.393 112.172 160.463 112.181 160.513L112.181 160.513C112.179 160.499 112.173 160.478 112.164 160.449C112.145 160.387 112.128 160.325 112.113 160.263C111.952 159.621 111.744 159.018 111.489 158.454C111.48 158.433 111.471 158.413 111.462 158.391C111.228 157.847 111.071 157.501 110.992 157.353L111.07 157.491C110.273 156.133 109.191 154.075 107.825 151.318L107.885 151.434C107.818 151.309 107.817 151.308 107.883 151.43L107.885 151.434C106.574 149.014 105.812 147.578 105.599 147.125L105.599 147.126C105.558 147.038 105.521 146.957 105.49 146.881L105.683 147.279C105.106 146.248 104.737 145.611 104.576 145.369C104.512 145.273 104.452 145.174 104.397 145.072C103.8 143.968 102.909 142.791 101.723 141.542C100.212 139.949 100.371 137.445 102.079 135.949C103.787 134.453 106.396 134.532 107.908 136.125C109.557 137.863 110.839 139.578 111.754 141.27L111.575 140.973C111.845 141.378 112.316 142.182 112.988 143.384C113.06 143.513 113.125 143.646 113.181 143.782C113.165 143.744 113.152 143.713 113.141 143.69L113.141 143.69C113.295 144.017 113.995 145.33 115.239 147.628L115.242 147.632C115.309 147.757 115.31 147.759 115.245 147.637C115.264 147.673 115.285 147.713 115.305 147.754C116.593 150.353 117.59 152.255 118.298 153.462C118.325 153.507 118.35 153.553 118.375 153.6C118.551 153.93 118.796 154.461 119.111 155.194L119.083 155.131C119.523 156.104 119.878 157.129 120.147 158.206L120.096 158.021C120.196 158.351 120.275 158.679 120.331 159.004L120.331 159.004C120.446 159.671 120.465 160.324 120.39 160.963C120.133 163.14 118.088 164.758 115.822 164.576C113.556 164.393 111.927 162.48 112.184 160.303Z" fill="#94C595"/>
<path d="M105.539 143.499C102.46 145.053 99.1768 146.145 95.6906 146.775L95.798 146.754C94.701 146.981 93.7834 147.125 93.0453 147.187L93.0734 147.185C91.656 147.313 89.7447 147.372 87.3396 147.362L87.6662 147.351C87.4475 147.367 87.2989 147.381 87.2206 147.392L87.2207 147.392C89.5266 147.061 90.6222 145.693 90.5076 143.289L90.5073 143.284C90.454 142.198 90.0075 141.302 89.1678 140.598C89.5319 140.903 89.8342 141.27 90.0606 141.681L90.0606 141.681C89.7773 141.167 89.4495 140.819 89.0772 140.637C89.2176 140.705 89.4877 140.792 89.8875 140.897L89.6773 140.848C90.2772 140.973 91.4796 141.086 93.2846 141.188C93.7497 141.214 94.2043 141.316 94.6294 141.488C94.1958 141.312 93.7994 141.222 93.4403 141.218C94.2553 141.227 97.0867 140.909 101.935 140.264C104.202 139.962 106.241 141.472 106.489 143.636C106.737 145.8 105.101 147.799 102.834 148.101C97.5748 148.801 94.3313 149.144 93.1032 149.131C92.3886 149.123 91.7589 149.008 91.214 148.786L92.5587 149.087C90.3303 148.962 88.7098 148.793 87.6973 148.583C87.6267 148.568 87.5567 148.551 87.4871 148.533C86.5589 148.289 85.7817 148.014 85.1555 147.708L85.1556 147.708C84.0371 147.162 83.2291 146.437 82.7317 145.534L83.6245 146.617C82.7673 145.898 82.3117 144.988 82.2577 143.887L82.2575 143.882C82.1392 141.403 83.4643 139.964 86.2325 139.567C86.5141 139.526 86.8665 139.491 87.2897 139.46C87.3985 139.453 87.5075 139.449 87.6163 139.449C89.751 139.458 91.392 139.41 92.5393 139.307C92.5487 139.306 92.5582 139.305 92.5675 139.304C92.9573 139.271 93.5293 139.177 94.2834 139.021C94.3191 139.014 94.355 139.007 94.3909 139C97.0459 138.52 99.5364 137.694 101.862 136.521C103.904 135.491 106.383 136.218 107.398 138.145C108.413 140.072 107.581 142.469 105.539 143.499Z" fill="#94C595"/>
<path d="M124.561 155.479C124.438 155.65 124.311 155.806 124.181 155.949L124.181 155.949C124.177 155.942 124.173 155.936 124.169 155.93L124.166 155.931C124.305 155.792 124.436 155.641 124.557 155.481L124.561 155.479ZM120.377 148.916C119.428 149.238 118.56 149.989 117.773 151.167C116.846 152.555 116.908 154.26 117.789 155.51L117.786 155.512C116.92 156.279 116.526 157.407 116.604 158.895L116.606 158.895L116.697 166.282L116.694 166.283C115.601 168.094 114.723 170.975 114.058 174.924L114.055 174.926C113.748 176.457 113.588 178.687 113.576 181.616C113.575 181.721 113.579 181.827 113.587 181.932C113.624 182.393 113.667 182.829 113.715 183.24L113.712 183.242C113.565 184.791 113.46 186.521 113.398 188.432C113.392 188.606 113.399 188.779 113.417 188.951C113.524 189.968 113.666 190.784 113.844 191.398C114.393 193.294 115.417 194.404 116.917 194.726L116.914 194.727C117.892 195.724 119.086 196.594 120.495 197.338C120.606 197.397 120.72 197.45 120.836 197.498C121.018 197.574 121.198 197.642 121.376 197.702L121.376 197.702C122.949 198.238 124.302 198.313 125.435 197.928C126.611 197.528 127.551 196.633 128.253 195.242C129.258 193.253 128.413 190.907 126.366 190.003C125.491 189.616 124.539 189.555 123.657 189.767L123.653 189.769C123.459 189.626 123.282 189.478 123.123 189.327L123.12 189.329C123.228 188.774 123.315 188.241 123.381 187.729L123.377 187.731C123.565 187.483 123.741 187.215 123.905 186.927C124.855 185.259 125.601 182.296 126.142 178.04C126.157 177.915 126.167 177.789 126.171 177.664C126.215 176.035 126.137 174.762 125.935 173.845L125.935 173.845C125.889 173.638 125.838 173.439 125.78 173.249L125.776 173.251C125.761 173 125.745 172.753 125.726 172.51L125.723 172.512C125.914 172.222 126.069 171.905 126.182 171.566C126.242 171.385 126.29 171.194 126.327 170.994L126.325 170.995C127.134 166.259 127.486 163.029 127.38 161.303L127.376 161.304C127.309 158.649 126.991 156.029 126.425 153.443L126.424 153.443C126.331 152.989 126.225 152.585 126.106 152.232L126.106 152.232C125.692 151.009 125.007 150.113 124.052 149.544C122.715 148.747 121.49 148.538 120.377 148.916Z" fill="#94C595"/>
<path d="M138.325 152.384C137.971 152.504 137.614 152.66 137.253 152.85C136.113 153.453 134.691 154.573 132.989 156.209C131.356 157.78 131.322 160.285 132.913 161.804C133.122 162.004 133.349 162.176 133.589 162.322L133.585 162.324C133.18 163.096 132.89 163.803 132.717 164.443C132.546 165.076 132.464 165.677 132.471 166.248L132.471 166.248C132.199 166.291 131.919 166.361 131.632 166.459C131.194 166.608 130.739 166.819 130.266 167.094C129.71 167.417 129.188 167.855 128.699 168.407L128.699 168.407C128.515 168.614 128.332 168.842 128.148 169.091L128.145 169.093C127.302 170.161 126.299 171.493 125.136 173.09L125.136 173.091C125.395 171.484 124.605 169.853 123.038 169.075C121.998 168.559 120.821 168.52 119.777 168.875C118.811 169.203 117.959 169.867 117.433 170.802C115.837 173.638 115.705 177.817 117.036 183.34C117.077 183.51 117.13 183.677 117.194 183.84C118.639 187.49 120.785 190.292 123.635 192.247C123.648 192.256 123.662 192.265 123.676 192.274C125.004 193.161 126.257 193.405 127.433 193.005C128.368 192.688 129.254 191.964 130.093 190.835L130.093 190.835C130.13 190.785 130.167 190.734 130.204 190.682L130.204 190.681C130.289 190.561 130.378 190.427 130.469 190.28L130.472 190.279C130.661 190.241 130.845 190.191 131.025 190.13C131.734 189.889 132.379 189.468 132.96 188.866C132.997 188.828 133.033 188.789 133.069 188.75C133.208 188.594 133.343 188.429 133.475 188.256L133.475 188.255C134.82 186.476 136.023 183.081 137.084 178.07C137.086 178.058 137.089 178.045 137.091 178.033C137.387 176.567 137.538 175.129 137.545 173.721L137.542 173.722C138.395 172.8 139.261 171.823 140.14 170.791C140.155 170.774 140.17 170.757 140.184 170.739C143.333 166.922 145.298 163.577 146.079 160.704C146.108 160.594 146.133 160.484 146.153 160.373C146.22 160.001 146.265 159.658 146.288 159.343C146.439 157.251 145.842 155.819 144.497 155.046L144.494 155.048C143.814 152.627 142.057 151.662 139.222 152.153L139.222 152.154C138.926 152.205 138.627 152.282 138.325 152.384Z" fill="#94C595"/>
<path d="M92.2286 140.998L92.2286 140.998C92.214 143.284 93.265 144.404 95.3817 144.357L95.3816 144.357C95.3892 144.356 95.395 144.356 95.3989 144.356L95.399 144.356C95.3501 144.359 95.2697 144.37 95.1577 144.39C95.1191 144.397 95.0804 144.403 95.0416 144.409C93.9811 144.565 91.7993 144.993 88.4963 145.691L88.6117 145.665C87.1201 146.023 86.2301 146.247 85.9416 146.337C87.3461 145.898 88.2321 144.939 88.5993 143.461C88.2972 144.677 87.4205 145.703 86.2317 146.232C86.204 146.245 86.184 146.254 86.1716 146.26C87.907 145.358 88.3174 143.913 87.4026 141.926L87.4024 141.925C87.1524 141.382 86.7959 140.95 86.3331 140.629L85.4688 140.174C86.0799 140.407 86.6217 140.5 87.0942 140.453C87.2133 140.441 87.3329 140.434 87.4524 140.432C87.7362 140.428 88.0926 140.316 88.5217 140.098L88.0554 140.373C88.2792 140.221 88.4302 140.11 88.5083 140.038C87.1917 141.241 87.1304 142.667 88.3243 144.317L88.324 144.317C88.6592 144.78 89.0798 145.139 89.5856 145.392L89.9035 145.535C89.2021 145.256 88.2164 145.104 86.9464 145.081L87.1362 145.08C86.1594 145.105 85.5091 145.181 85.1854 145.306C85.2 145.301 85.2203 145.291 85.2464 145.278C85.2299 145.286 85.2136 145.294 85.1971 145.303C85.4335 145.184 85.6353 144.962 85.8025 144.635L85.8778 144.481C85.876 144.485 85.8748 144.487 85.8741 144.489L85.8743 144.489C86.0282 144.117 85.9892 143.671 85.7572 143.149L85.7247 143.078C85.4411 142.475 85.081 142.081 84.6443 141.896C84.6532 141.899 84.6673 141.905 84.6868 141.911L84.4851 141.847C85.3584 142.101 85.8844 142.249 86.0632 142.293L86.0635 142.293C85.4564 142.146 84.8129 142.157 84.1329 142.326C84.9185 142.13 85.7401 142.158 86.4962 142.404L86.4964 142.404C86.0594 142.262 85.6657 142.199 85.3152 142.217L85.3151 142.217C85.3223 142.217 85.3339 142.216 85.3498 142.215C87.6272 142.035 89.5717 143.654 89.6929 145.831C89.8143 148.009 88.0665 149.921 85.7891 150.101C85.6934 150.109 85.6017 150.115 85.5142 150.119L85.5141 150.119C84.8094 150.155 84.1807 150.083 83.628 149.903L85.9916 149.981C85.2947 150.155 84.5697 150.15 83.8167 149.968L83.817 149.968C83.5171 149.895 82.8707 149.714 81.8779 149.426C81.81 149.406 81.7427 149.385 81.6761 149.362C81.4824 149.295 81.2964 149.223 81.1181 149.148C79.7049 148.548 78.7248 147.667 78.1776 146.503C78.1665 146.479 78.1557 146.456 78.1452 146.432C77.4989 144.979 77.5208 143.421 78.2109 141.756L78.2111 141.756C78.2506 141.66 78.2922 141.565 78.3359 141.47C78.36 141.418 78.385 141.366 78.4111 141.315C79.0698 140.031 80.1106 139.032 81.5336 138.317L81.4844 138.342C81.7352 138.212 81.9989 138.093 82.2753 137.986C83.5441 137.493 85.1718 137.221 87.1585 137.17C87.2218 137.168 87.2851 137.168 87.3483 137.169C89.6475 137.211 91.6185 137.56 93.2613 138.214C93.3693 138.257 93.4755 138.304 93.5791 138.356C94.2262 138.68 94.7521 139.122 95.1567 139.681L95.1565 139.681C96.6248 141.711 96.2772 143.713 94.1137 145.689C93.7327 146.037 93.2599 146.403 92.695 146.786C92.5458 146.887 92.39 146.979 92.2288 147.061C90.5996 147.891 88.9717 148.319 87.3449 148.344L87.7031 148.324C85.8941 148.503 84.0678 148.241 82.2242 147.539C81.9169 147.422 81.6266 147.269 81.3599 147.084C80.6677 146.603 80.1579 146.007 79.8303 145.296L79.8301 145.296C78.684 142.806 79.5399 140.818 82.398 139.331C82.5672 139.243 82.7463 139.157 82.9356 139.073L80.568 141.844C80.9412 140.342 81.9485 139.334 83.5899 138.821C84.0664 138.672 85.1463 138.396 86.8293 137.992C86.8677 137.983 86.9062 137.974 86.9448 137.966C90.423 137.231 92.7809 136.771 94.0185 136.589L93.9024 136.607C94.3374 136.531 94.7425 136.481 95.1179 136.459C95.2247 136.452 95.3297 136.448 95.4328 136.445L95.4327 136.445C98.8215 136.37 100.506 137.826 100.487 140.814C100.473 142.998 98.6129 144.811 96.3324 144.861C94.0519 144.912 92.2146 143.182 92.2286 140.998Z" fill="#94C595"/>
<path d="M183.407 167.968L183.407 167.969C183.66 167.989 183.926 168.035 184.206 168.107L184.206 168.107C184.018 168.059 183.827 168.024 183.634 168.002C183.562 167.994 183.485 167.983 183.403 167.97L183.407 167.968ZM156.628 121.204C156.622 121.206 156.616 121.208 156.61 121.21C155.926 121.445 155.312 121.72 154.769 122.033C153.669 122.667 152.838 123.463 152.277 124.422L152.276 124.422C151.841 125.151 151.556 125.967 151.423 126.872L151.423 126.872C151.304 127.673 151.307 128.56 151.431 129.534L151.427 129.535C151.343 129.614 151.26 129.696 151.177 129.782L151.177 129.782C151.034 129.932 150.9 130.09 150.776 130.256C149.695 131.704 149.719 133.634 150.834 134.995C152.895 137.509 154.384 139.132 155.302 139.865L155.302 139.865C156.497 140.819 157.67 141.23 158.82 141.097L158.816 141.099C160.205 142.461 161.674 143.873 163.221 145.335C163.311 145.421 163.406 145.502 163.505 145.579L163.724 145.749L163.724 145.75C163.382 145.781 163.047 145.853 162.727 145.962C161.695 146.313 160.812 147.044 160.307 148.029C159.861 148.898 159.765 149.859 159.992 150.742L159.992 150.742C159.285 150.049 158.301 149.614 157.194 149.595C156.68 149.586 156.184 149.668 155.723 149.825C154.838 150.125 154.08 150.702 153.568 151.447L153.568 151.447C153.463 151.475 153.36 151.507 153.259 151.541C151.81 152.033 150.877 153.066 150.46 154.64L150.459 154.64C150.065 156.131 150.458 157.55 151.64 158.898L151.64 158.898C152.509 159.889 154.183 161.181 156.662 162.774C156.723 162.814 156.786 162.852 156.85 162.888C157.68 163.359 158.474 163.812 159.231 164.246L159.227 164.247C160.595 165.256 163.646 167.1 168.382 169.779L168.378 169.781C169.503 170.55 170.479 171.258 171.306 171.903C172.012 172.454 172.865 172.737 173.729 172.761L173.725 172.762C174.439 173.156 175.178 173.563 175.942 173.982L175.942 173.982C176.122 174.08 176.31 174.166 176.504 174.236C178.884 175.105 180.773 175.636 182.173 175.829L182.168 175.831C183.373 176.098 184.412 176.084 185.285 175.787C186.584 175.346 187.516 174.281 188.083 172.593C188.256 172.077 188.318 171.535 188.266 171.001C188.236 170.692 188.184 170.381 188.111 170.068L188.111 170.068C187.75 168.533 186.822 166.891 185.327 165.141L185.332 165.14C185.362 165.13 185.393 165.12 185.423 165.11C186.592 164.713 187.399 163.726 187.843 162.15L187.843 162.15C188.134 161.118 188 160.048 187.441 158.94L187.441 158.941C187.379 158.817 187.309 158.687 187.232 158.552C187.197 158.49 187.16 158.429 187.122 158.369L182.307 150.921C182.288 150.892 182.269 150.864 182.25 150.835C181.41 149.611 179.991 148.17 177.992 146.511C177.96 146.485 177.928 146.459 177.895 146.434L169.003 139.517L168.999 139.519C165.846 136.537 163.037 133.776 160.573 131.237L160.569 131.239C160.184 130.494 159.946 129.942 159.857 129.584L159.853 129.586C159.836 129.441 159.812 129.297 159.778 129.155C159.724 128.921 159.681 128.713 159.65 128.53L159.654 128.528C163.349 127.5 165.983 126.855 167.558 126.592C167.796 126.552 168.027 126.494 168.248 126.419C170.124 125.781 171.345 123.938 171.053 122.013C170.726 119.86 168.631 118.421 166.374 118.797C164.391 119.128 161.216 119.907 156.851 121.134C156.776 121.155 156.702 121.179 156.628 121.204Z" fill="#94C595"/>
<path d="M150.837 112.689C151.954 111.436 153.407 110.814 155.197 110.823C155.463 110.825 155.729 110.851 155.989 110.902C157.795 111.254 160.696 111.187 164.693 110.703L164.411 110.746L164.413 110.746L164.417 110.745C166.708 110.316 168.008 110.066 168.318 109.995C165.814 110.571 164.774 112.095 165.198 114.565L165.183 114.473C165.35 115.614 165.93 116.5 166.923 117.13C165.614 116.299 164.942 114.807 165.196 113.294C165.451 111.782 166.586 110.519 168.114 110.048C171.438 109.023 173.662 108.411 174.785 108.209C174.803 108.206 174.82 108.203 174.837 108.2L181.294 107.121L181.052 107.169L186.418 105.956C186.654 105.903 186.894 105.869 187.134 105.856C189.575 105.72 191.587 105.946 193.169 106.536C193.207 106.551 193.245 106.566 193.283 106.581C195.373 107.432 196.922 108.321 197.93 109.247L197.93 109.247C199.908 111.064 200.381 113.074 199.348 115.278L199.348 115.278C198.887 116.262 198.125 117.106 197.063 117.812L197.066 117.81C197.057 117.815 197.048 117.821 197.038 117.828C197.03 117.833 197.023 117.838 197.015 117.843C196.082 118.449 195.085 118.872 194.024 119.11L194.017 119.112C190.367 119.927 188.268 120.422 187.721 120.595C187.992 120.509 188.28 120.367 188.584 120.168C188.259 120.381 187.905 120.549 187.534 120.668L176.516 124.207L176.878 124.073C175.963 124.458 175.386 124.72 175.146 124.859L175.146 124.859C176.995 123.794 177.471 122.23 176.575 120.167L176.575 120.168C175.821 118.431 174.565 117.669 172.808 117.88C172.882 117.871 173.017 117.847 173.213 117.807C175.457 117.353 177.607 118.717 178.015 120.855C178.424 122.992 176.936 125.093 174.692 125.548C174.269 125.633 173.905 125.695 173.6 125.731C171.29 126.01 169.735 125.229 168.936 123.39L168.937 123.39C167.994 121.221 168.697 119.461 171.046 118.108L171.046 118.108C171.596 117.791 172.494 117.37 173.739 116.845C173.857 116.795 173.978 116.75 174.1 116.711L185.118 113.173L184.067 113.673C184.426 113.439 184.848 113.244 185.335 113.09C186.125 112.839 188.469 112.279 192.368 111.408L192.361 111.41C192.405 111.4 192.457 111.375 192.519 111.334L192.496 111.35C192.495 111.35 192.494 111.351 192.494 111.351L192.497 111.349C192.245 111.516 192.023 111.805 191.83 112.216L191.83 112.216C191.274 113.404 191.371 114.344 192.124 115.036L192.124 115.036C191.814 114.751 191.061 114.365 189.864 113.878L189.978 113.922C189.494 113.741 188.625 113.686 187.373 113.756L188.089 113.655L182.722 114.868C182.641 114.886 182.56 114.902 182.479 114.916L176.022 115.995L176.073 115.986C175.298 116.125 173.417 116.654 170.431 117.575L171.622 110.493C172.616 111.123 173.196 112.009 173.363 113.15L173.348 113.059C173.773 115.536 172.664 117.078 170.022 117.686C169.595 117.785 168.178 118.059 165.77 118.51L165.774 118.509L165.772 118.51C165.676 118.528 165.584 118.542 165.491 118.553C160.594 119.147 156.803 119.182 154.116 118.658L154.908 118.736C155.731 118.741 156.445 118.404 157.05 117.725C155.548 119.41 152.939 119.65 151.223 118.259C149.507 116.869 149.334 114.375 150.837 112.689Z" fill="#94C595"/>
</g>
<defs>
<clipPath id="clip0_2177_1034">
<rect width="214.885" height="204.02" fill="white" transform="translate(0 63.7824) rotate(-17.2668)"/>
</clipPath>
</defs>
</svg>
