<svg width="146" height="139" viewBox="0 0 146 139" fill="none" xmlns="http://www.w3.org/2000/svg">
<path d="M69.1646 43.3803C68.4553 41.5948 67.5603 40.671 66.2928 39.3824C65.5807 38.6583 64.7455 37.8115 63.8831 36.6927C63.1155 35.6969 62.7069 35.9626 62.466 36.1309C62.0522 36.4201 61.4837 37.1589 61.2336 38.4903C61.0912 39.2483 60.9544 39.9288 60.8301 40.5469C60.7242 41.0742 60.6287 41.5494 60.5455 41.9922C60.2047 43.8061 60.103 44.9263 60.3524 46.2279C60.4595 46.7872 60.3043 47.3632 59.9276 47.8043C59.4455 48.3688 58.6377 50.2946 58.0701 54.1729C57.9407 55.057 58.1 56.1292 58.5008 57.5027L58.3768 57.187L60.8841 62.1995C61.1233 62.6777 61.1474 63.2281 60.9507 63.7236C60.754 64.2191 60.3537 64.6168 59.8421 64.8249C58.1883 65.4976 55.4954 65.9179 52.0348 66.195L52.714 66.0254L46.2385 68.8471L46.4639 68.7321C44.3228 69.9944 44.2466 70.821 44.3027 71.148C44.3591 71.4775 44.6183 72.0239 45.7849 72.3922C48.7813 73.3381 51.8523 73.5488 55.148 73.7646C55.4564 73.7848 55.7697 73.8053 56.0801 73.8263C58.492 73.9898 59.9754 75.6764 60.0166 75.7222C60.2677 76.0013 60.4307 76.3425 60.4865 76.7061C60.8056 78.7824 59.9346 82.845 59.9647 82.6989L60.0021 82.2714C60.0062 82.4158 59.9935 82.5602 59.9641 82.7019C59.4385 85.2347 58.4393 87.6423 57.5036 89.9028C57.1346 90.7942 56.8297 92.249 56.6501 94.3304C56.4429 96.7333 57.0744 98.2912 58.0428 99.2733L57.363 98.8188C59.0738 99.5221 61.1751 99.3076 63.9685 97.3243L63.9685 97.3243C64.2219 97.1445 64.5318 96.9356 64.8598 96.7142C65.33 96.397 65.8771 96.0278 66.4862 95.5953C68.5372 94.1392 71.2636 91.9842 73.6953 88.9986C74.3869 88.1496 75.6705 87.995 76.5623 88.6534C77.4541 89.3118 77.6165 90.5338 76.9249 91.3829C74.1787 94.7546 71.1325 97.1502 68.9293 98.7143C68.2756 99.1785 67.6924 99.5719 67.2228 99.8887C66.8808 100.119 66.6159 100.298 66.4116 100.443L66.4116 100.443C62.9324 102.914 59.2722 103.842 55.7428 102.391C55.4859 102.285 55.2546 102.13 55.0631 101.936C53.1163 99.9618 52.3003 97.2205 52.5771 94.012C52.7671 91.8089 53.1112 89.902 53.7014 88.4763C54.6605 86.1591 55.5129 84.0775 55.9548 81.9478L55.9168 82.3783L55.9542 81.9508C55.9875 81.789 56.6356 78.5242 56.4428 77.2693L56.9127 78.2532C56.9539 78.299 56.4264 77.7505 55.7899 77.7073C55.4864 77.6868 55.1756 77.6664 54.8675 77.6462C51.6452 77.4352 48.0621 77.2102 44.4987 76.0853C42.1848 75.3549 40.6174 73.805 40.2693 71.7749C39.7936 69.0008 41.8056 66.902 44.3123 65.4242C44.3848 65.3814 44.4601 65.343 44.5377 65.3092L51.0132 62.4875C51.2276 62.3941 51.4574 62.3367 51.6924 62.3178C55.1628 62.04 57.2537 61.6467 58.2365 61.2469L57.1944 63.8724L54.6871 58.8599C54.6363 58.7583 54.5948 58.6526 54.5631 58.5442C54.1153 57.0094 53.7762 55.318 54.0224 53.6359C54.5876 49.7743 55.4842 46.8398 56.7567 45.3498L56.3319 46.9261C55.9495 44.9301 56.156 43.2583 56.5226 41.3072C56.6108 40.8373 56.7114 40.3371 56.8162 39.8156L56.8162 39.8156C56.9405 39.1974 57.0735 38.5355 57.2107 37.8053C57.5868 35.8031 58.5535 34.0384 60.0481 32.9942C62.4151 31.3403 65.3114 31.9694 67.1779 34.3907C67.8793 35.3008 68.5607 35.9957 69.2759 36.723C70.586 38.0549 71.9732 39.4516 72.9871 42.0039C73.3863 43.0089 72.8543 44.1316 71.7987 44.5117C70.7431 44.8918 69.5638 44.3853 69.1646 43.3803Z" fill="black"/>
<path d="M78.3874 88.8485C78.5666 89.4236 79.208 90.2883 85.2695 94.7165C89.3583 97.7037 91.0656 96.834 91.0993 96.8014C91.2772 96.629 91.4873 96.4898 91.7187 96.3907C92.8473 95.9076 93.4557 95.0988 93.2247 92.7401L93.2248 92.7405C93.2253 92.7459 93.2252 92.7445 93.2253 92.7455L93.2254 92.7465C93.154 92.1949 92.2142 89.5844 89.5542 84.6391C89.5132 84.5627 89.4774 84.4839 89.4473 84.403L86.7088 77.0568C86.5103 76.5241 86.5649 75.9355 86.8585 75.4442C87.1521 74.9529 87.6556 74.6074 88.2381 74.4977L97.8679 72.6844L97.8603 72.6859C98.8951 72.4872 99.626 72.205 100.208 71.9724C101.811 71.3318 102.552 70.4212 102.687 68.9533V68.9532C102.672 69.1065 102.7 69.1908 102.697 69.1804V69.1803C102.559 68.7007 101.048 66.8664 98.3779 65.9908C95.1256 64.9244 90.6969 64.9873 85.0073 65.5192C84.2993 65.5854 83.6061 65.2963 83.1772 64.7559C82.7484 64.2155 82.6456 63.5017 82.9058 62.8714C85.3375 56.9825 84.8841 54.2306 83.7487 53.1368C83.2867 52.6918 83.0777 52.0624 83.1871 51.4454C83.2965 50.8284 83.711 50.2992 84.3008 50.0233L84.3007 50.0233C84.2918 50.0275 84.287 50.0302 84.2874 50.03L84.2873 50.0301C84.7125 49.7834 86.4836 47.4227 86.233 41.495L86.233 41.4954C86.2329 41.4938 86.2332 41.5003 86.2331 41.497L86.2331 41.4977C86.1884 40.7112 85.3652 37.2841 84.8234 36.5753C84.7805 36.5191 84.9329 36.7575 85.3338 36.9151L85.3336 36.9151C85.3433 36.9189 85.3483 36.9204 85.3481 36.9203C85.0888 36.8428 84.298 36.9355 83.9906 37.0711C83.9554 37.0866 84.0816 37.0393 84.2482 36.8955L84.2482 36.8955C82.4072 38.4849 76.1098 45.2091 76.0569 45.2657C75.3061 46.0679 74.0145 46.1388 73.1719 45.4241C72.3293 44.7094 72.2548 43.4796 73.0055 42.6774C72.9525 42.7341 79.453 35.7829 81.503 34.0132L81.5031 34.0131C81.7821 33.7722 82.084 33.6239 82.2731 33.5405C83.1855 33.1382 85.0541 32.7542 86.5727 33.2082C86.678 33.2397 86.786 33.2765 86.8945 33.3192L86.8944 33.3192C87.5361 33.5716 87.9307 34.028 88.1279 34.2859C89.3929 35.941 90.2592 40.3241 90.3139 41.2876L90.314 41.2883C90.3152 41.3109 90.3154 41.3149 90.3164 41.3382L90.3164 41.3385C90.5743 47.4385 88.9238 51.8965 86.414 53.3526L86.4138 53.3527C86.3143 53.4104 86.2108 53.4649 86.1033 53.5152L86.6553 50.4017C89.7969 53.4279 89.0806 58.552 86.7093 64.2949L84.6079 61.647C90.2621 61.1184 95.5177 60.9379 99.7087 62.3121C103.124 63.432 106.02 65.9943 106.64 68.157L106.64 68.1569C106.732 68.4797 106.797 68.8694 106.758 69.2918V69.2917C106.473 72.4018 104.582 74.4437 101.79 75.5599C101.126 75.8251 100.101 76.2247 98.6683 76.4999L98.6608 76.5014L89.031 78.3146L90.5602 75.7555L93.2987 83.1017L93.1918 82.8656C95.786 87.6885 97.1062 90.9161 97.2815 92.2707L97.2817 92.2717C97.2859 92.3048 97.2904 92.3436 97.2938 92.3785L97.2938 92.3789C97.6103 95.6108 96.7585 98.4992 93.3948 99.9393L94.0142 99.5286C91.4259 102.036 86.8255 100.758 82.7816 97.8033C77.2718 93.7781 75.1217 92.049 74.4693 89.9547C74.1485 88.9246 74.7655 87.8419 75.8474 87.5365C76.9294 87.231 78.0666 87.8184 78.3874 88.8485Z" fill="black"/>
<path d="M82.7569 46.0164C83.5953 45.4516 84.5949 45.5138 85.3389 45.8842C85.5535 45.9911 85.9889 46.1743 86.7747 46.5025C86.8687 46.5418 87.0599 46.6216 87.1671 46.6665C88.1572 47.0808 88.9812 47.5532 89.6158 48.0522C91.5687 49.5876 92.2758 52.9485 92.3279 53.8816V53.8814C92.3312 53.9412 92.3335 54.009 92.3331 54.0778V54.0773C92.3205 56.6874 92.1571 58.5765 91.6217 60.3424C91.1786 61.8038 90.5486 64.2401 90.5463 64.2489C90.2767 65.2922 89.1697 65.9298 88.0738 65.673C86.978 65.4163 86.3083 64.3624 86.5779 63.3191C86.5757 63.3279 87.2256 60.8124 87.6952 59.2634C88.0726 58.0187 88.2343 56.5578 88.2464 54.0594L88.2464 54.059C88.2463 54.0788 88.2469 54.089 88.2469 54.0884L88.2469 54.0882C88.2101 53.4292 87.5911 51.5064 87.0136 51.0523C86.7276 50.8275 86.2444 50.5305 85.5226 50.2285C85.431 50.1901 85.2129 50.099 85.1329 50.0656C84.4259 49.7703 83.8181 49.5179 83.4449 49.332C83.8137 49.5156 84.4915 49.6141 85.1173 49.1926C84.1961 49.8132 82.9209 49.6052 82.269 48.7282C81.6172 47.8511 81.8356 46.637 82.7569 46.0164Z" fill="black"/>
<path d="M82.3342 34.1097C81.3348 34.1358 80.4868 34.4511 79.7903 35.0554L79.7875 35.0556C78.671 35.135 77.6174 35.7238 76.6267 36.8219C75.9624 37.5581 75.541 38.493 75.3624 39.6265C75.3198 39.8974 75.2894 40.186 75.2713 40.4924C75.2675 40.5574 75.2654 40.6227 75.2649 40.6878C75.2599 41.3736 75.2721 42.0393 75.3018 42.6849L75.299 42.6852C75.0083 42.7408 74.7146 42.8063 74.418 42.8815C74.3934 42.8877 74.3687 42.8942 74.3444 42.9008C74.243 42.9284 74.1425 42.9577 74.0428 42.9888V42.9889C73.7365 43.0842 73.44 43.1945 73.1534 43.3198V43.3199C71.7195 42.7056 70.3364 42.3738 69.0041 42.3245L69.0014 42.3247C68.7983 42.1937 68.5912 42.0654 68.3801 41.9399L68.3774 41.9401C68.1277 40.5975 67.8745 39.5849 67.6178 38.9023L67.6178 38.9022C67.2919 38.0357 66.8307 37.3432 66.2342 36.8246L66.2341 36.8247C65.4318 36.127 64.3776 35.7548 63.295 35.7831C63.2481 35.7844 63.2011 35.7863 63.1541 35.7891C62.0225 35.855 60.9673 36.3549 60.2297 37.1745C60.0773 37.3437 59.9373 37.5104 59.8096 37.6745L59.8095 37.6746C58.3673 39.528 58.18 41.3184 59.2475 43.0457L59.2475 43.0458C59.2771 43.0937 59.3079 43.1412 59.3396 43.1879C59.3676 43.2292 59.3955 43.2705 59.4234 43.3118L59.4208 43.312C59.334 43.5076 59.2543 43.7135 59.1817 43.93L59.1817 43.9301C58.893 44.7911 58.8446 45.7374 59.0365 46.7691L59.0365 46.7691C59.0406 46.791 59.0448 46.8131 59.0492 46.8352L59.0466 46.8354C58.7391 47.1688 58.4531 47.5639 58.1883 48.0209V48.021C57.7825 48.7212 57.5542 49.5288 57.5032 50.4439L57.503 50.444C57.4842 50.7448 57.4847 51.0501 57.5045 51.3599L57.5045 51.36C57.5213 51.6213 57.5521 51.8862 57.5969 52.1547L57.5943 52.1549C57.3796 53.0822 57.4561 54.0779 57.8241 55.1422L57.8241 55.1424C57.8365 55.1782 57.8492 55.2142 57.8623 55.2503L57.8597 55.2505C57.7259 55.7857 57.707 56.3562 57.8243 56.9315C58.1623 58.5893 59.5337 59.8063 61.1789 60.0944L61.1762 60.0946C62.4499 61.4792 63.8316 62.5939 65.3213 63.4386C65.9069 63.7707 66.5476 63.9523 67.1905 63.992L67.1879 63.9923C67.6906 64.1983 68.2024 64.2945 68.7233 64.2809C69.2365 64.2675 69.7584 64.1474 70.2892 63.9206L70.2919 63.9206C71.8943 64.6271 73.3902 64.9878 74.7797 65.0026L74.7797 65.0027C74.8658 65.0036 74.9517 65.0032 75.0372 65.0015C75.0477 65.0013 75.0582 65.0011 75.0687 65.0008C75.086 65.0004 75.1034 64.9998 75.1207 64.9992C75.7643 64.9747 76.3765 64.8949 76.9572 64.7597C77.0948 64.7277 77.23 64.6931 77.3627 64.6561L77.3655 64.6561C78.3262 64.9041 79.2644 65.0161 80.1801 64.9921C80.9457 64.9721 81.6957 64.857 82.4299 64.6467L82.4299 64.6467C82.5352 64.6166 82.6397 64.5845 82.7436 64.5504L82.7437 64.5504C83.3792 64.3421 83.9849 64.0627 84.5608 63.7122C84.8754 63.5207 85.1617 63.2901 85.412 63.0263C85.4735 62.9616 85.534 62.8963 85.5936 62.8306L85.5907 62.8308C87.8527 61.3016 88.8176 59.19 88.4853 56.4961V56.4962C88.4602 56.2923 88.4265 56.087 88.3842 55.8802L88.3813 55.8804C88.4067 55.3688 88.4042 54.8427 88.3739 54.3021L88.3732 54.3023C88.3268 53.1107 88.1882 52.0029 87.9575 50.9789L87.9546 50.9792C88.4299 49.6275 88.6929 47.9378 88.7436 45.91C88.7469 45.7777 88.7433 45.6453 88.7328 45.5133C88.4218 41.612 87.6365 38.5243 86.3768 36.2502C85.7458 35.111 84.5757 34.3321 83.2352 34.159C82.9223 34.1186 82.622 34.1022 82.3342 34.1097Z" fill="black"/>
<path d="M71.693 80.7912L71.6943 80.7939C71.374 80.1267 70.5476 79.7263 70.9911 80.001L70.9911 80.001C70.9937 80.0026 70.9999 80.0064 71.0181 80.0174L71.0182 80.0175C71.3801 80.2376 72.4064 80.8737 73.5639 82.2291C73.9897 82.7276 74.4147 83.386 74.7302 83.8698C75.0752 84.3988 75.3041 84.743 75.4692 84.9364L75.4691 84.9363C75.4901 84.9608 75.5001 84.971 75.5014 84.9724L75.5016 84.9726C75.5851 85.0568 75.3507 84.767 74.8398 84.6439C74.82 84.6391 74.8098 84.6378 74.8104 84.6378C75.1192 84.6806 76.0126 84.4852 76.3195 84.3266L76.3195 84.3265C76.3633 84.304 76.2174 84.3682 76.0415 84.5456L76.0412 84.5458C75.5719 85.0194 75.5322 85.5998 75.5825 85.3407L75.5826 85.3404C75.5926 85.2884 75.6084 85.1622 75.6424 84.8586L75.6424 84.8586C75.7407 83.9809 75.9322 82.1043 76.7447 80.4956C77.0821 79.8275 78.4023 77.5575 79.7407 76.617L79.7406 76.6171C79.841 76.5465 79.9518 76.4754 80.0732 76.4079L80.0731 76.408C80.8236 75.991 81.0703 75.6393 81.2582 75.257C81.1673 75.4419 81.209 75.7103 81.2579 75.8072C81.2407 75.7731 81.1986 75.7076 81.0168 75.4634L81.0169 75.4635C80.9028 75.3102 80.7296 75.0793 80.5675 74.8184C80.7283 75.0771 81.0525 75.1976 81.1602 75.2139C81.1428 75.2113 81.1075 75.2077 80.9565 75.1984C80.7578 75.1862 80.1554 75.1664 79.5482 74.9264L79.5483 74.9264C79.506 74.9097 79.4488 74.8876 79.3742 74.8588C79.276 74.8209 79.1573 74.7751 79.0218 74.7215C78.3596 74.4597 77.0913 73.9372 76.155 73.2206C74.7379 72.1361 74.2207 70.8876 73.7833 69.8874C73.4071 69.027 73.0258 68.1606 72.1758 67.0656L72.1759 67.0656C73.2069 68.3939 70.3818 65.7165 72.5291 64.2069L72.5287 64.2072C74.2568 62.9917 76.2624 65.2421 75.2434 64.4017C75.4783 64.5954 75.778 64.8883 76.0202 65.2005L76.02 65.2002C76.0373 65.2224 76.0511 65.2406 76.0683 65.2637L76.0682 65.2635C75.6506 64.703 77.7581 66.9582 75.732 68.3837L75.7319 68.3837C74.9153 68.9581 74.0081 68.7787 73.826 68.7453C73.0935 68.6106 73.2229 68.6339 72.9615 68.7206C72.8889 68.7447 72.8607 68.7657 72.8615 68.7651L72.8616 68.765C72.8392 68.7814 72.9753 68.6974 73.0449 68.4089L73.0689 68.2934L72.5071 71.5025C72.4999 71.5438 72.4912 71.5849 72.4812 71.6257L72.4812 71.6258C72.4285 71.8403 72.359 72.0736 72.2606 72.309L72.2606 72.3089C72.1664 72.5346 72.0336 72.7914 71.8397 73.0422L71.8396 73.0424C71.1943 73.8774 70.5277 74.5156 69.8703 74.9068L69.8703 74.9067C69.8318 74.9296 69.7889 74.956 69.7112 75.0039L69.7111 75.0039C69.6155 75.0627 69.4882 75.1411 69.3432 75.2274C68.7678 75.5697 67.8832 76.0557 66.711 76.4871L66.7111 76.4871C66.7872 76.4591 66.8261 76.4354 66.8197 76.4391L66.8197 76.4391C66.7983 76.4515 66.7565 76.4795 66.6292 76.5724L66.629 76.5725C66.5807 76.6077 66.4964 76.6695 66.4122 76.7264L66.4117 76.7267C66.3735 76.7525 66.3264 76.7834 66.2711 76.8169L66.2715 76.8167C66.5959 76.62 66.6848 76.3463 66.6888 76.3316C66.6748 76.3833 66.6499 76.5532 66.6458 77.0226C66.648 76.7661 66.565 76.6329 66.5796 76.6601L66.5797 76.6601C66.6473 76.7857 66.9133 77.0332 67.0561 77.1019C67.0783 77.1125 66.9812 77.0593 66.7864 77.036C66.951 77.0557 67.1087 77.0856 67.2574 77.1217C69.8227 77.7458 72.5872 81.2763 72.6936 81.4145L72.693 81.4137C72.7046 81.4287 72.7172 81.4453 72.7333 81.4671C73.3809 82.3469 73.1567 83.5601 72.2325 84.1767C71.3083 84.7933 70.0341 84.5798 69.3865 83.6999C69.3937 83.7098 69.4 83.7179 69.398 83.7153L69.3973 83.7145C69.0004 83.1988 67.1006 81.0995 66.2455 80.8914C66.2452 80.8914 66.2558 80.894 66.2766 80.8965C65.8447 80.8448 65.4764 80.7014 65.2124 80.5743C64.3528 80.1606 63.4316 79.3427 62.9429 78.435L62.9429 78.4351C62.7557 78.0875 62.5541 77.5845 62.5592 76.9909V76.9909C62.5631 76.5338 62.5782 75.9262 62.7314 75.3602C62.897 74.7488 63.2665 74.0259 64.076 73.535L64.0764 73.5348C64.0574 73.5463 64.0465 73.5537 64.0487 73.5522L64.0483 73.5525C64.0584 73.5457 64.079 73.531 64.1445 73.4832L64.1444 73.4834C64.2417 73.4124 64.4563 73.2536 64.6973 73.1141L64.6974 73.114C64.8343 73.0348 65.0185 72.9386 65.2375 72.858L65.2375 72.858C66.0896 72.5444 66.7357 72.1906 67.1777 71.9277C67.2923 71.8595 67.3965 71.7954 67.4923 71.7365L67.4922 71.7365C67.5608 71.6943 67.6341 71.6491 67.7046 71.6071L67.7047 71.6071C67.7684 71.5692 68.0767 71.3461 68.5479 70.7364L68.5478 70.7365C68.483 70.8204 68.4607 70.877 68.463 70.8715L68.4631 70.8713C68.4652 70.8661 68.48 70.8286 68.5019 70.7395L68.4759 70.8628L69.0377 67.6538C69.0445 67.6151 69.0525 67.5765 69.0617 67.5383C69.2413 66.7937 69.7378 66.1426 70.3745 65.6777L70.3745 65.6776C70.7323 65.4164 71.1488 65.2018 71.6162 65.0467C72.892 64.6232 73.615 64.7437 74.601 64.925C74.7331 64.9493 74.0184 64.7514 73.3033 65.2544L73.3032 65.2545C71.4774 66.539 73.4297 68.4472 72.7348 67.5146L72.7348 67.5145C72.7331 67.5123 72.7361 67.5163 72.7337 67.5131L72.7335 67.5128C72.6924 67.4599 72.6056 67.3739 72.5676 67.3426C71.3783 66.3618 73.2581 68.5318 74.9571 67.3366L74.9567 67.3369C77.0803 65.844 74.2965 63.2509 75.4626 64.7532L75.4626 64.7533C76.6195 66.2437 77.1537 67.4713 77.5563 68.3922C78.0046 69.4175 78.1964 69.7908 78.7154 70.1881C79.1436 70.5158 79.9046 70.8576 80.5891 71.1282C80.7076 71.1751 80.8092 71.2143 80.9093 71.2529C80.9791 71.2798 81.0535 71.3085 81.1155 71.333L81.1155 71.333C80.9934 71.2847 80.9079 71.2966 81.2188 71.3156C81.3346 71.3227 81.5638 71.3352 81.8033 71.3716C82.5513 71.485 83.4675 71.844 84.0847 72.8371C84.1477 72.9384 84.2237 73.0423 84.3514 73.2139L84.3515 73.214C84.487 73.3962 84.7471 73.7367 84.9418 74.1227C85.3271 74.8864 85.4764 75.855 84.9596 76.9063C84.4282 77.9873 83.6176 78.9434 82.1332 79.7683L82.1331 79.7684C82.1568 79.7552 82.1687 79.7467 82.1677 79.7474L82.1676 79.7475C81.7353 80.0513 80.781 81.4824 80.4278 82.1817C79.9693 83.0896 79.8158 84.2925 79.7061 85.2713L79.7061 85.2713C79.6803 85.5015 79.647 85.8121 79.6013 86.0477L79.6013 86.0474C79.6139 85.9825 79.5331 86.6921 79.0135 87.2162L79.0132 87.2165C78.7418 87.4902 78.435 87.6604 78.2688 87.7463L78.2688 87.7463C77.4155 88.1872 75.6297 88.6831 74.222 88.4882C74.099 88.4711 73.9698 88.4478 73.8372 88.4158C73.1355 88.2468 72.6835 87.7986 72.5288 87.6425L72.529 87.6427C72.4445 87.5574 72.3681 87.4727 72.2983 87.391L72.2982 87.3909C71.9308 86.9607 71.5474 86.3657 71.2581 85.9221C70.8954 85.3659 70.6188 84.9481 70.3929 84.6836C69.609 83.7657 68.9717 83.3898 68.8181 83.2964L68.8183 83.2965C68.8048 83.2883 68.7829 83.2751 68.7628 83.2626L68.7628 83.2626C69.1562 83.5062 68.3019 83.087 67.9776 82.4117C67.5081 81.4378 67.9579 80.2829 68.9835 79.8347C70.0092 79.3865 71.2223 79.8148 71.693 80.7912Z" fill="black"/>
<path d="M68.6434 59.4465C67.7918 59.4688 67.0344 60.0408 66.8479 60.8691L66.6956 61.5451L66.693 61.5454C66.631 61.5885 66.5719 61.6354 66.516 61.6855V61.6856C66.3675 61.3618 66.1203 61.0825 65.7994 60.8877C65.3702 60.6273 64.97 60.502 64.5987 60.5117C64.1757 60.5227 63.7903 60.709 63.4424 61.0705L63.4424 61.0707C63.1721 60.9315 62.9032 60.8237 62.6357 60.7473C62.254 60.6382 61.887 60.5882 61.5349 60.5974C60.8696 60.6148 60.2573 60.8434 59.698 61.2831C59.4105 61.5091 59.1996 61.8109 59.0919 62.1501C59.0872 62.165 59.0826 62.1799 59.0781 62.1947L59.0777 62.1959C58.9603 62.5843 58.9138 62.9802 58.9384 63.3836V63.3838C58.9854 64.1552 59.2878 64.9115 59.8454 65.6525L59.8452 65.6527C60.1242 66.032 60.4481 66.3474 60.8169 66.599V66.5991C60.8281 66.6066 60.8393 66.6142 60.8506 66.6217L60.8479 66.6219C60.8069 66.6506 60.7647 66.6784 60.7216 66.7053V66.7054C60.6298 66.6708 60.5382 66.6378 60.4468 66.6063L60.4442 66.6065C59.6956 66.22 58.8566 65.9514 57.9272 65.8007C57.9106 65.798 57.894 65.7955 57.8773 65.7932C56.5809 65.6167 55.5273 65.5391 54.7166 65.5603C54.2943 65.5713 53.9379 65.6092 53.6474 65.6739C53.1266 65.7899 52.7001 65.9983 52.3677 66.2992C51.9352 66.6908 51.7222 67.2538 51.7932 67.8181C51.8643 68.3824 52.211 68.8816 52.7285 69.1648C52.7853 69.1959 52.8422 69.2265 52.8991 69.2566L52.8966 69.2569C52.8998 69.3789 52.9106 69.5041 52.9287 69.6325C52.9501 69.7836 52.9915 69.9315 53.052 70.0727C53.681 71.5396 54.9797 72.5354 56.9479 73.0601C56.98 73.0686 57.0123 73.0763 57.0448 73.0833C57.1642 73.1087 57.2818 73.1317 57.3977 73.1522L57.3952 73.1524C57.5903 73.3252 57.8084 73.4927 58.0494 73.6549C58.0577 73.6604 58.0659 73.6659 58.0742 73.6713C58.1717 73.7347 58.2707 73.7957 58.3714 73.8543L58.3688 73.8545C58.4045 73.8956 58.4414 73.9362 58.4795 73.9764L58.4795 73.9764C58.9618 74.4857 59.6123 74.8819 60.4311 75.1651C60.4725 75.1794 60.5144 75.1923 60.5568 75.2039C61.0337 75.3337 61.4955 75.3928 61.942 75.3811C62.1185 75.3765 62.2926 75.3608 62.4644 75.3341V75.3342C63.0029 75.2503 63.4975 75.0621 63.9484 74.7696L63.9484 74.7695C64.0899 74.6778 64.2255 74.5764 64.3554 74.4654L64.3553 74.4655C64.3653 74.457 64.3752 74.4485 64.3851 74.4401L64.3825 74.4403C64.3983 74.4324 64.414 74.4245 64.4296 74.4166C64.9054 74.1748 65.2866 73.8671 65.5735 73.4934L65.5762 73.4935C65.8456 73.61 66.1359 73.6642 66.4471 73.656C66.7292 73.6486 67.0284 73.59 67.3448 73.4802L67.3449 73.4804C67.5312 73.4156 67.7114 73.3291 67.8853 73.221C68.077 73.1018 68.244 72.9506 68.3785 72.7753L68.3758 72.7755C68.8128 72.5344 69.1978 72.2224 69.5307 71.8394L69.5305 71.8396C69.6685 71.684 69.789 71.5282 69.892 71.3723C70.5344 70.3998 70.6097 69.5298 70.1178 68.7624L70.1151 68.7626C70.6176 68.3131 70.9903 67.8831 71.2333 67.4725C71.4695 67.0732 71.6022 66.6713 71.6314 66.2667L71.6286 66.2669L72.5402 65.4482L72.5403 65.4483C72.6524 65.3489 72.7494 65.2568 72.8313 65.1718C73.6174 64.3568 73.7123 63.5398 73.1162 62.7209L73.1162 62.7208C72.7478 62.2148 72.14 61.9301 71.5103 61.9466C71.3848 61.9499 71.2585 61.9651 71.1331 61.9929L70.4276 62.1494V62.1495L70.5459 61.624C70.7648 60.6518 70.1145 59.6946 69.0934 59.4862C68.9422 59.4553 68.7914 59.4426 68.6434 59.4465Z" fill="black"/>
<path d="M60.8757 62.893C60.8701 62.8932 60.8645 62.8934 60.859 62.8935C60.335 62.9103 59.8419 63.1335 59.4973 63.5097C59.278 63.7492 59.1018 64.0395 58.9688 64.3808L58.9687 64.3809C58.9051 64.5442 58.8499 64.7225 58.8031 64.916V64.9161C58.781 65.0075 58.7664 65.1004 58.7595 65.1939C58.7034 65.9527 58.6106 66.493 58.4811 66.8148C58.4716 66.8386 58.4626 66.8625 58.4541 66.8867C58.3047 67.3111 58.1352 67.6203 57.9456 67.8142C57.9159 67.8445 57.8874 67.8758 57.86 67.908C57.7333 68.057 57.5554 68.1921 57.3265 68.3132L57.3265 68.3133C57.084 68.0223 56.7825 67.735 56.422 67.4515L56.4194 67.4517C56.4154 67.4028 56.4092 67.3537 56.4009 67.3045C56.2486 66.4029 55.4177 65.766 54.4843 65.7905C54.4014 65.7926 54.3177 65.8 54.2336 65.8129C53.7103 65.893 53.2194 65.9924 52.7608 66.111V66.1111C52.149 66.0131 51.5383 65.972 50.9288 65.988C49.8125 66.0172 48.7002 66.2374 47.5916 66.6487C47.4546 66.6995 47.3243 66.7654 47.2033 66.845C46.5412 67.2805 46.1522 67.7913 46.0363 68.3774L46.0338 68.3776C45.7678 68.7704 45.6654 69.2303 45.7267 69.7573C45.7973 70.3642 46.1182 70.8975 46.6893 71.3572L46.6894 71.3573C47.0757 71.6682 47.6328 71.9779 48.3605 72.2866L48.358 72.2869C48.5915 72.4369 48.8582 72.5575 49.1582 72.6486C49.2631 72.6805 49.3767 72.7089 49.4988 72.734L49.4963 72.7342C49.5049 72.7376 49.5135 72.741 49.5222 72.7445C49.5294 72.7474 49.5366 72.7503 49.5437 72.7531L49.5412 72.7533C49.879 72.955 50.282 73.143 50.7502 73.3173C50.7899 73.3321 50.83 73.3456 50.8706 73.3578C51.7369 73.6177 52.614 73.736 53.5018 73.7128C53.8237 73.7044 54.1471 73.6773 54.472 73.6317C54.5857 73.6157 54.6978 73.5898 54.8066 73.5545C55.8204 73.225 56.5933 72.8194 57.1251 72.3376C57.1953 72.2741 57.2617 72.2098 57.3245 72.1449L57.3219 72.1451C57.6851 72.0493 58.0268 71.9398 58.3472 71.8166L58.3498 71.8167C58.3521 71.8534 58.3551 71.8902 58.3586 71.9273V71.9275C58.4153 72.5172 58.6359 73.1636 59.0204 73.8664L59.0186 73.8666C59.0674 73.9614 59.1231 74.0568 59.1859 74.1528L59.186 74.1529C59.4471 74.552 59.8882 75.0278 60.5094 75.5804L60.5068 75.5806L59.5904 80.1608C59.5733 80.2461 59.5627 80.3325 59.5587 80.4192C59.5161 81.3491 59.4757 82.0979 59.4376 82.6655L59.4351 82.6657C59.3483 82.9324 59.3227 83.2206 59.3584 83.5303L59.3558 83.5305C59.327 83.704 59.2997 83.8785 59.2737 84.054L59.2711 84.0542C58.6197 84.6343 58.4961 85.4514 58.9003 86.5053L58.9004 86.5054C58.9221 86.562 58.9458 86.6193 58.9715 86.6774L58.9689 86.6776C58.8888 86.9542 58.8137 87.2187 58.7435 87.4711L58.7409 87.4713C58.6883 87.5977 58.6532 87.7317 58.6357 87.8731L58.6331 87.8733C58.5443 88.201 58.4648 88.506 58.3945 88.7884L58.3919 88.7886C58.3255 88.8111 58.2595 88.8352 58.1938 88.8608C58.1133 88.8923 58.0351 88.929 57.9598 88.9707C57.863 89.0244 57.7707 89.0804 57.6828 89.1388V89.1389C56.377 90.0056 56.0112 91.0672 56.5854 92.3237L56.5828 92.3239C56.5362 92.3774 56.4925 92.4341 56.4521 92.4936C55.8747 93.3443 55.8574 94.2585 56.4003 95.2363L56.4002 95.2364C56.4463 95.3192 56.4969 95.4023 56.552 95.4855L56.5494 95.4857C56.6163 95.8724 56.7707 96.2534 57.0127 96.6289L57.0127 96.629C57.0836 96.739 57.1619 96.8473 57.2477 96.9538C57.2915 97.0083 57.3386 97.0604 57.3887 97.1098C57.6841 97.4008 57.9725 97.6347 58.254 97.8115L58.2541 97.8115C58.8299 98.173 59.375 98.347 59.8895 98.3336C60.4375 98.3192 60.9507 98.0921 61.4291 97.6522C61.5454 97.5452 61.6512 97.4271 61.7465 97.2979L61.7438 97.2981C62.2065 97.1737 62.6326 97.0191 63.022 96.8343L63.0246 96.8344C63.0541 96.8401 63.0838 96.8453 63.1136 96.8497C63.3911 96.8914 63.659 96.9089 63.9172 96.9022C63.9561 96.9011 63.9948 96.8996 64.0332 96.8975C65.3765 96.8235 66.3124 96.1975 66.8408 95.0195V95.0196C66.8621 94.9721 66.8824 94.924 66.9017 94.8752C66.9053 94.8663 66.9087 94.8574 66.9121 94.8485L66.9094 94.8487C67.1827 94.8181 67.4356 94.7685 67.6684 94.6998C68.5918 94.4275 69.224 93.9235 69.5649 93.1878L69.5623 93.188C70.2834 92.9902 70.8523 92.565 71.2687 91.9126C71.388 91.7257 71.4884 91.524 71.5698 91.3074L71.5698 91.3073C71.6141 91.1894 71.6528 91.0672 71.6857 90.9407C71.7159 90.8248 71.7339 90.7064 71.7395 90.5871C71.746 90.4481 71.7489 90.3106 71.7483 90.1744L71.7455 90.1746C71.9756 89.9919 72.1687 89.7611 72.3249 89.4821L72.3251 89.4818C72.3775 89.3881 72.4229 89.291 72.4612 89.1903C72.5431 88.9749 72.5811 88.7467 72.573 88.5177C72.52 86.9964 71.9608 85.6066 70.8953 84.3481V84.3482C70.78 84.2043 70.5827 83.9894 70.3034 83.7037L70.3007 83.7039C70.1628 82.5399 69.5681 81.4439 68.5167 80.4159L68.5141 80.4161C67.3677 79.1226 65.795 78.4492 63.7961 78.396L63.7935 78.3962L64.3215 75.7571C64.3566 75.5816 64.3641 75.4021 64.3437 75.2245C64.3132 74.9585 64.2615 74.7101 64.1887 74.4792V74.4793C64.0677 74.0954 63.8886 73.7585 63.6514 73.4686C63.5795 73.3808 63.4992 73.2994 63.4115 73.2257C62.8822 72.7806 62.5504 72.4648 62.4163 72.2783L62.4136 72.2785C62.4013 72.253 62.3883 72.2278 62.3747 72.2029C62.2196 71.9195 62.1364 71.7184 62.125 71.5996L62.1268 71.5997C62.1306 71.4439 62.1504 71.2991 62.1864 71.1653L62.1846 71.1655C62.8063 69.4607 63.2768 68.3139 63.5961 67.7252C63.6329 67.6573 63.6651 67.5873 63.6926 67.5155C63.831 67.1539 63.8933 66.765 63.8796 66.3489V66.3487C63.8765 66.2568 63.8697 66.1636 63.8592 66.0691C63.8467 65.9572 63.8233 65.8468 63.7891 65.7391C63.5636 65.0279 63.3093 64.4685 63.0261 64.0609C62.4692 63.2594 61.7524 62.8701 60.8757 62.893Z" fill="black"/>
<path d="M77.2194 61.3918C76.6323 61.4072 76.0611 61.6819 75.7058 62.1797C73.5721 65.1687 74.9499 68.3983 79.8391 71.8686C80.1905 72.118 80.608 72.2357 81.0212 72.2249C81.2352 72.2193 81.448 72.1792 81.6499 72.1052L81.6528 72.1052C82.6233 73.7255 83.8446 74.7735 85.3166 75.2492C85.4561 75.2943 85.6006 75.3237 85.7474 75.3369C85.7574 75.3378 85.7675 75.3386 85.7776 75.3395L85.7776 75.3395C85.9674 75.355 86.148 75.3605 86.3194 75.3561C87.7588 75.3184 88.5502 74.5744 88.6937 73.1239V73.124C88.7029 73.0309 88.7075 72.9358 88.7077 72.8388L88.7074 72.839C88.7082 72.7798 88.7081 72.719 88.7071 72.6567L88.71 72.6568C88.8296 72.694 88.949 72.7246 89.068 72.7486L89.0676 72.7488C89.1659 72.7693 89.2633 72.786 89.3598 72.7991C89.6021 72.8319 89.8332 72.8454 90.053 72.8397C91.2344 72.8088 92.0915 72.221 92.6243 71.0762V71.0764C92.6654 70.988 92.7034 70.8967 92.7383 70.8026C92.7955 70.6484 92.8303 70.4874 92.8419 70.3242C93.0448 67.4514 91.6473 65.0897 88.6494 63.239C88.3159 63.0331 87.9397 62.94 87.5703 62.9497C86.9691 62.9654 86.3859 63.2534 86.0339 63.7701C86.0242 63.7844 86.0147 63.7988 86.0054 63.8132L86.0026 63.8134C85.8242 63.8332 85.6564 63.8645 85.4992 63.9073V63.9075C85.0097 63.5681 84.4339 63.407 83.7718 63.4244C83.6999 63.4263 83.6269 63.4302 83.553 63.4363C83.51 63.4399 83.4674 63.4448 83.4252 63.451V63.4511C83.0061 63.2226 82.5812 63.0592 82.1504 62.9611C82.0236 62.9323 81.8942 62.916 81.764 62.9125L81.7612 62.9127C81.253 62.4329 80.679 62.0516 80.0392 61.7689C79.9385 61.7244 79.8339 61.6885 79.7266 61.6614C79.4218 61.5847 79.1346 61.5499 78.8649 61.557C78.6498 61.5626 78.4459 61.5949 78.253 61.6537V61.6539C77.9318 61.4672 77.5727 61.3826 77.2194 61.3918Z" fill="black"/>
<path d="M93.8947 65.0297C93.662 65.0357 93.4391 65.0571 93.2262 65.0937V65.0938C93.0054 65.0702 92.7899 65.0611 92.5796 65.0666C91.7475 65.0884 90.9968 65.3377 90.3277 65.8145C90.3097 65.8273 90.2921 65.8403 90.2746 65.8537C90.1804 65.9259 90.0911 66.001 90.0065 66.0788L90.0065 66.0789C89.1653 66.8538 88.8357 67.7916 89.0179 68.8924C89.08 69.2683 89.2073 69.6498 89.3997 70.0369L89.3996 70.0371C89.8486 70.9543 90.7768 71.8181 92.1842 72.6284C92.2202 72.6491 92.2568 72.6687 92.2941 72.687C93.1733 73.1199 94.0415 73.3491 94.8985 73.3746L94.8956 73.3748C94.9727 73.382 95.0486 73.387 95.1232 73.39C95.2283 73.3941 95.3305 73.3948 95.43 73.3922C96.0791 73.3753 96.6109 73.2151 97.0254 72.9117L97.0224 72.9119C97.0473 72.8988 97.072 72.8856 97.0965 72.8723L97.0995 72.8723C97.9841 73.2437 98.809 73.4194 99.5741 73.3994C99.6304 73.3979 99.6863 73.3954 99.7419 73.3918L99.7405 73.3919C99.7791 73.3896 99.8174 73.3868 99.8552 73.3835C101.179 73.268 101.983 72.6513 102.265 71.5333C102.282 71.4623 102.296 71.3904 102.305 71.3182C102.315 71.2336 102.322 71.1483 102.326 71.0623V71.0621C102.36 70.2897 102.136 69.487 101.654 68.6538L101.653 68.654C101.246 67.9035 100.758 67.2814 100.19 66.7877L100.187 66.7879C100.031 66.6356 99.8433 66.4957 99.6235 66.3684L99.6234 66.3684C99.2493 66.1518 98.6748 65.9161 97.8999 65.6612C97.6783 65.5883 97.4521 65.5569 97.2307 65.5626C97.0479 65.5674 96.8684 65.5976 96.6974 65.6507V65.6508C96.6263 65.6137 96.5536 65.5773 96.4793 65.5417C96.4323 65.5191 96.3844 65.4985 96.3356 65.4797C95.7373 65.25 95.1327 65.1063 94.5218 65.0484C94.5095 65.0473 94.497 65.0462 94.4847 65.0453C94.2814 65.0299 94.0847 65.0247 93.8947 65.0297Z" fill="black"/>
<path d="M85.5457 75.4582C84.8904 75.4754 84.2893 75.6742 83.7425 76.0548C83.7361 76.0593 83.7295 76.0639 83.7231 76.0685C82.7768 76.745 82.1239 77.3098 81.7646 77.7632V77.7633C81.5487 78.0354 81.3961 78.3118 81.3066 78.5925L81.3038 78.5927C80.9285 79.5372 80.407 80.577 79.7391 81.7122C79.6851 81.804 79.6396 81.9001 79.6032 81.9995C79.2666 82.9188 78.8839 83.8061 78.455 84.6614C78.4079 84.7553 78.3694 84.853 78.34 84.9533C77.8768 86.5342 77.6303 87.6154 77.6006 88.1968V88.197C77.5836 88.5277 77.6219 88.8269 77.7153 89.0945L77.7125 89.0948C77.9292 90.0769 78.4719 90.6018 79.3406 90.6697L79.3378 90.6699C79.3254 90.9743 79.3372 91.2424 79.3734 91.4741V91.4743C79.3822 91.5305 79.3922 91.5856 79.4035 91.6397C79.4091 91.6664 79.4154 91.6931 79.4222 91.7195C79.7271 92.8964 80.3736 93.472 81.3617 93.4461C81.5571 93.441 81.7659 93.4124 81.9881 93.3602C82.2673 93.2946 82.5255 93.1772 82.7626 93.0079L82.7654 93.008C83.0809 93.8995 83.7454 94.332 84.7591 94.3055C84.9176 94.3014 85.0845 94.286 85.26 94.2594C85.3879 94.2401 85.5176 94.2114 85.6492 94.1734L85.6521 94.1735C85.7003 94.3986 85.7631 94.6238 85.8404 94.8491C85.901 95.0255 85.9898 95.1919 86.1037 95.3424C86.6446 96.0571 87.2421 96.4058 87.8961 96.3887C87.9974 96.3861 88.1 96.3747 88.2039 96.3545L88.2068 96.3545C88.2391 96.3837 88.2693 96.4103 88.2974 96.4343C88.6935 96.772 89.1222 96.9536 89.5834 96.9788V96.9789C89.6827 96.9843 89.7783 96.9857 89.8703 96.9833C90.3032 96.972 90.6549 96.8738 90.9253 96.6887L90.9224 96.6889C91.3215 96.4722 91.6579 96.13 91.9317 95.6623L91.9309 95.6625C92.3628 94.9582 92.6349 94.3284 92.7472 93.7731C92.7535 93.7418 92.759 93.7103 92.7635 93.6788L93.1424 91.0631C93.1671 90.8922 93.166 90.7188 93.1389 90.5482C93.015 89.7672 92.8304 89.1429 92.5853 88.6754L92.5852 88.6753C92.5162 88.5437 92.4412 88.4208 92.3601 88.3067V88.3068C92.1093 87.9538 91.8423 87.6803 91.5591 87.4862L91.5562 87.4865C91.5617 87.4478 91.5659 87.409 91.5688 87.3702C91.619 86.692 91.5363 86.0791 91.3208 85.5316L91.3208 85.5316C91.0795 84.9186 90.6889 84.415 90.1489 84.021L90.149 84.0211C90.0795 83.9703 90.0065 83.9243 89.9305 83.8833C89.8713 83.8514 89.8112 83.8221 89.7501 83.7954L89.7472 83.7956C90.0052 82.6422 89.6421 81.8077 88.6579 81.2921C88.3629 81.1376 88.0302 81.061 87.6943 81.0698C87.6767 81.0702 87.659 81.0709 87.6414 81.0719C87.6068 81.0737 87.5722 81.076 87.5376 81.0787V81.0789C87.5623 81.0217 87.584 80.9688 87.6026 80.9201V80.9202C87.6304 80.8476 87.6541 80.7782 87.6738 80.712L87.6738 80.7119C87.9716 79.7099 87.7337 79.0067 86.9601 78.6024L86.9572 78.6026C87.3277 78.2879 87.5684 77.8359 87.5886 77.3264C87.628 76.3328 86.8139 75.4969 85.7702 75.4594C85.6947 75.4567 85.6198 75.4563 85.5457 75.4582Z" fill="black"/>
<path d="M55.9142 65.4401C55.164 65.969 54.3208 66.0791 53.5977 66.0092C53.5626 66.0059 53.5272 66.002 53.4926 65.9978L53.4928 65.9978C52.9521 65.9324 52.3508 66.1451 51.1777 66.6709C50.4844 66.9817 49.2106 67.6017 47.8888 67.5662L47.875 67.5658L47.8749 67.5658L47.9463 65.6216L47.8886 67.5662C47.7609 67.5628 47.6306 67.5536 47.4984 67.5376C47.3738 67.5225 47.2483 67.5015 47.1218 67.4738C46.9229 67.4303 46.7319 67.3586 46.5553 67.2612L43.9192 65.8072L44.8454 66.0671C44.7935 66.0647 44.7486 66.0623 44.7143 66.0605L44.7144 66.0605C44.6834 66.0588 44.6656 66.0579 44.6496 66.0572C44.6353 66.0565 44.6304 66.0564 44.6296 66.0564C44.6422 66.0567 44.664 66.0559 44.6753 66.0549C44.6718 66.0552 44.637 66.0587 44.5356 66.0752C44.3626 66.1034 44.0998 66.1368 43.8367 66.1705C43.2835 66.2415 42.4973 66.3425 41.5908 66.4902C39.6238 66.8108 37.335 67.3155 35.7774 68.0739C35.7999 68.0629 35.8379 68.0317 35.8584 68.008L35.8581 68.0083C35.8603 68.0057 35.8544 68.0127 35.8567 68.0099L35.8573 68.0092C35.3654 68.5964 35.1622 69.171 35.1478 69.806C35.1372 70.2724 35.3074 70.8444 36.1156 71.4036C36.6105 71.746 37.1401 71.8689 37.9638 72.0281C38.1492 72.064 38.3693 72.1063 38.5851 72.1555L38.1301 72.1021C38.7957 72.1087 39.9957 72.1576 43.5253 72.7876C44.1174 72.8932 44.2137 72.9078 44.2595 72.9118C44.2578 72.9116 44.2541 72.9114 44.2522 72.9113C44.2612 72.9116 44.2781 72.9118 44.3938 72.9097C44.6133 72.9057 44.9485 72.8998 45.5842 72.9166L45.4878 72.9162L50.6949 72.8196L50.2567 72.8732C50.484 72.8211 50.6899 72.8081 50.8061 72.8029C51.2186 72.7846 51.8584 72.8261 52.4932 72.864C52.7249 72.8778 52.9739 72.8927 53.2479 72.9081C53.2701 72.9094 53.2799 72.9079 53.2789 72.9081C53.2754 72.9085 53.261 72.9113 53.2405 72.9197L52.0306 75.0199L51.242 70.412C51.2204 70.2861 51.2119 70.1584 51.2166 70.0309V70.0306C51.2237 69.8393 51.2536 69.6688 51.2797 69.5456L51.2796 69.5458C51.4843 68.5796 52.4455 66.4092 53.8503 63.3834V63.3835C54.1788 62.6757 55.2587 61.7272 56.6692 62.3207L56.6691 62.3207C57.3203 62.5947 57.7129 63.1844 57.6176 63.0641L57.6176 63.064C57.916 63.4405 57.4823 62.7669 56.8545 62.5026L56.8535 62.5022C56.056 62.1669 54.7183 62.3062 54.1658 63.4905L54.1637 63.4949C53.7979 64.2843 54.1818 65.2083 54.0391 64.6807L54.0392 64.681C54.038 64.6768 54.0339 64.6619 54.023 64.6257L54.023 64.6258C54.495 66.1978 56.3332 65.8577 55.6242 65.8871C55.5943 65.8883 55.5327 65.8949 55.3621 65.9179C55.5137 65.8975 54.6683 66.0693 54.0203 65.8717L54.02 65.8717L54.009 65.8683L54.0092 65.8684L53.9681 65.8558L53.9283 65.8437L53.9284 65.8437C53.0894 65.5879 52.83 65.5129 52.725 65.4928C52.7377 65.4953 53.0873 65.5594 53.5104 65.399C53.3188 65.4716 53.1167 65.5162 52.911 65.5312L49.012 65.8158L45.2803 66.0881L45.5177 66.0574C44.6175 66.2255 43.8931 66.3471 43.3207 66.4432C42.9276 66.5092 42.6255 66.56 42.3766 66.6065C42.0886 66.6603 41.9427 66.6958 41.8692 66.7182C40.7946 67.0462 39.6441 66.4827 39.2996 65.4596C38.9551 64.4365 39.547 63.3412 40.6216 63.0132C40.9295 62.9192 41.2653 62.8491 41.5896 62.7885C41.8852 62.7333 42.2311 62.6753 42.611 62.6115C43.182 62.5157 43.8715 62.3999 44.7307 62.2394C44.8091 62.2247 44.8883 62.2144 44.968 62.2086L48.6997 61.9363L52.5987 61.6518L51.9992 61.784C52.6051 61.5544 53.1487 61.6053 53.5296 61.6782C53.9223 61.7532 54.4783 61.9259 55.1748 62.1383L55.1749 62.1383L55.2147 62.1504L55.2557 62.1629L55.256 62.163L55.267 62.1664L55.2667 62.1663C54.7594 62.0116 54.2492 62.1383 54.7891 62.0655C54.9149 62.0485 55.1811 62.0109 55.4466 61.9999C55.1886 62.0106 57.403 61.7262 57.9525 63.5565L57.9525 63.5566C57.9675 63.6066 57.983 63.6597 57.9967 63.71L57.9967 63.7104C57.8824 63.2877 58.275 64.2622 57.9027 65.0655L57.9007 65.0699C57.3461 66.2585 56.005 66.3988 55.2027 66.0615L55.2017 66.0611C54.5583 65.7902 54.0954 65.0798 54.3555 65.4078L54.3554 65.4078C54.1869 65.1952 54.4732 65.6506 55.0171 65.8795L55.0171 65.8795C56.3398 66.4361 57.3311 65.5101 57.5882 64.9563L57.5882 64.9564C56.0719 68.2224 55.3779 69.8799 55.2858 70.3149L55.2857 70.3151C55.2832 70.3269 55.2971 70.2688 55.3009 70.1676L55.2755 69.7862L56.0642 74.3941C56.2151 75.2756 55.7162 76.1417 54.8543 76.4943C54.5848 76.6046 54.2362 76.7123 53.8138 76.7654C53.5635 76.7969 53.2939 76.8083 53.007 76.7922C52.7234 76.7762 52.4695 76.7611 52.2373 76.7472C51.4573 76.7006 51.1228 76.6839 50.997 76.6895C50.9719 76.6906 51.0667 76.6895 51.2127 76.6561C51.0691 76.689 50.9222 76.707 50.7745 76.7097L45.5675 76.8063C45.5353 76.8069 45.5032 76.8068 45.4711 76.8059C44.9169 76.7913 44.6484 76.7966 44.4726 76.7998C44.3855 76.8014 44.2549 76.8043 44.1191 76.8001C44.0434 76.7978 43.9672 76.7934 43.8868 76.7864C43.5972 76.7612 43.2518 76.6974 42.7722 76.6118C39.3665 76.0039 38.4238 75.996 38.0874 75.9927C37.9342 75.9912 37.7815 75.9732 37.6325 75.9392C37.499 75.9087 37.3505 75.8798 37.1506 75.8412C36.3629 75.6889 35.0086 75.4475 33.713 74.5511C31.8368 73.2529 31.022 71.4808 31.0619 69.7218C31.0962 68.2131 31.6259 66.8202 32.6624 65.583L32.663 65.5823C32.6711 65.5726 32.6874 65.5534 32.6961 65.5433L32.6959 65.5436C32.9241 65.2781 33.3051 64.9075 33.9167 64.6097C36.0682 63.5622 38.889 62.9831 40.9013 62.6552C41.8858 62.4947 42.7352 62.3859 43.291 62.3146C43.5963 62.2754 43.7642 62.2535 43.846 62.2402C43.9909 62.2166 44.136 62.1956 44.2812 62.1822C44.4435 62.1672 44.5852 62.1635 44.7239 62.1666C44.7692 62.1676 44.8105 62.1692 44.8458 62.1708L44.8457 62.1708C44.8804 62.1724 44.915 62.1742 44.9421 62.1757L44.9422 62.1757C44.9774 62.1776 45.0072 62.1791 45.0417 62.1807C45.3678 62.1956 45.6854 62.2847 45.9679 62.4406L48.6039 63.8945L48.0374 63.6819C48.0281 63.6798 48.0198 63.6786 48.014 63.6778C48.0076 63.6771 48.0041 63.677 48.004 63.677L47.9463 65.6216L48.0177 63.6774L48.0178 63.6774L48.004 63.677C48.145 63.6807 48.4468 63.5945 49.437 63.1507C50.3906 62.7233 52.0882 61.9056 54.0084 62.1381L54.0085 62.1381C54.0094 62.1382 54.0102 62.1383 54.01 62.1383C53.9964 62.137 53.748 62.1258 53.4822 62.3133C54.3891 61.6738 55.6688 61.8555 56.3404 62.7189C57.012 63.5824 56.8212 64.8007 55.9142 65.4401Z" fill="black"/>
<path d="M58.0971 82.1454C57.5078 82.7545 57.084 83.4106 56.8258 84.1137L56.9198 83.7459C56.6842 85.321 54.4898 91.0565 50.3365 100.952L50.4006 100.775L49.2715 104.46C49.2607 104.495 49.2489 104.53 49.236 104.565C49.0117 105.167 48.9845 106.387 49.1544 108.222L49.1002 107.917C49.2342 108.423 49.7818 109.172 50.743 110.164L50.2403 109.786C52.7538 111.128 55.235 110.847 57.6838 108.944L57.5974 109.015L62.7236 104.555L62.3938 104.924L65.7318 100.081C65.7562 100.046 65.7819 100.011 65.8088 99.9772L72.1548 91.9672C72.8344 91.1094 74.1157 90.9385 75.0167 91.5855C75.9177 92.2325 76.0971 93.4524 75.4175 94.3102L69.0715 102.32L69.1485 102.216L65.8104 107.059C65.717 107.194 65.6062 107.318 65.4806 107.427L60.3544 111.887C60.3263 111.912 60.2975 111.935 60.268 111.958C56.3821 114.978 52.3734 115.385 48.2418 113.18C48.0544 113.08 47.8848 112.953 47.7391 112.802C46.3082 111.325 45.441 110.014 45.1376 108.869C45.111 108.769 45.0929 108.667 45.0834 108.564C44.8615 106.166 44.9617 104.4 45.3839 103.266L45.3483 103.37L46.4774 99.6858C46.4958 99.6258 46.5172 99.5668 46.5415 99.5088C50.5735 89.9017 52.6843 84.4645 52.8739 83.1973C52.8926 83.0721 52.9241 82.9489 52.968 82.8295C53.4123 81.6198 54.1201 80.513 55.0914 79.5091C55.8561 78.7189 57.1488 78.6685 57.9788 79.3965C58.8088 80.1244 58.8618 81.3552 58.0971 82.1454Z" fill="black"/>
<path d="M40.6067 69.9567C39.9432 70.1939 39.5222 70.3395 39.3439 70.3936L39.344 70.3936C39.2187 70.4316 39.1017 70.459 38.993 70.4758L39.3883 70.3751C39.2778 70.4149 39.1569 70.4608 39.0257 70.5129C38.9819 70.5302 38.9375 70.5462 38.8925 70.5606C39.0245 70.5182 39.1255 70.4717 39.1955 70.4208L39.1955 70.4208C39.1885 70.4259 39.1779 70.4344 39.1636 70.4464L39.301 70.3193C40.161 69.4451 40.1408 68.6065 39.2403 67.8036L39.2403 67.8036C39.1511 67.7241 39.0722 67.6678 39.0034 67.6346L39.0036 67.6346C39.0072 67.6364 39.013 67.639 39.0211 67.6424L38.8698 67.5845C38.8163 67.5664 38.7504 67.5576 38.6719 67.5583C38.735 67.5578 38.7979 67.56 38.8607 67.5651C38.2477 67.5159 37.7514 67.6915 37.3718 68.0919C38.128 67.2943 39.4201 67.2313 40.2578 67.9512C41.0956 68.6711 41.1617 69.9013 40.4056 70.6989C39.88 71.2532 39.2506 71.501 38.5174 71.4422L38.7062 71.449C38.302 71.4522 37.8993 71.3857 37.498 71.2496C37.4468 71.2322 37.3963 71.2129 37.3467 71.1917C37.2798 71.1631 37.2157 71.134 37.1544 71.1044L37.1546 71.1045C36.877 70.9704 36.641 70.8168 36.4467 70.6435L36.4467 70.6435C35.3586 69.6732 35.3157 68.6787 36.3181 67.6597C36.3618 67.6153 36.4076 67.5728 36.4555 67.5325C36.544 67.458 36.6311 67.3896 36.7168 67.3273L36.7168 67.3273C37.0038 67.1189 37.2941 66.9676 37.5876 66.8734L37.4544 66.9211C37.6269 66.8527 37.7894 66.7911 37.9418 66.7361C38.0697 66.6901 38.2021 66.6563 38.337 66.6354C38.2473 66.6493 38.1694 66.6663 38.1032 66.6864L38.1032 66.6864C38.2157 66.6523 38.5714 66.5282 39.1702 66.3141C40.2267 65.9365 41.4048 66.4457 41.8015 67.4516C42.1981 68.4575 41.6632 69.579 40.6067 69.9567Z" fill="black"/>
<path d="M78.6298 90.7359C80.1324 93.3197 81.5001 95.1939 82.7329 96.3583L82.678 96.3084L95.3539 107.423L95.3063 107.383C97.5253 109.21 99.619 109.116 101.587 107.101L101.412 107.307C102.565 105.744 102.022 102.308 99.784 96.9965L99.788 97.0058C97.3308 91.2612 95.3655 87.1372 93.8921 84.6338C93.8607 84.5805 93.832 84.5259 93.8061 84.4701C93.2875 83.3544 91.9206 81.4473 89.7053 78.7489C89.657 78.69 89.6122 78.6284 89.5713 78.5646C89.3904 78.2826 89.2489 78.0226 89.1468 77.7846L89.1468 77.7847C89.0096 77.4649 88.9313 77.1567 88.912 76.8599C88.842 75.7876 89.6985 74.8643 90.8248 74.7977C91.9512 74.7312 92.921 75.5466 92.9909 76.6189C92.9825 76.49 92.9622 76.388 92.9299 76.3128L92.93 76.313C92.9494 76.3582 92.9925 76.4329 93.0593 76.5371L92.9253 76.3529C95.3487 79.3048 96.888 81.4857 97.5433 82.8956L97.4572 82.7318C99.0136 85.376 101.052 89.6448 103.573 95.5383L103.577 95.5477C106.365 102.165 106.758 106.83 104.756 109.544C104.702 109.616 104.644 109.685 104.58 109.75C100.822 113.598 96.8395 113.79 92.6328 110.326C92.6167 110.312 92.6009 110.299 92.5852 110.285L79.9094 99.1703C79.8908 99.154 79.8724 99.1373 79.8545 99.1204C78.3456 97.695 76.7455 95.5284 75.0544 92.6206C74.5078 91.6806 74.865 90.4967 75.8523 89.9763C76.8396 89.4558 78.0831 89.7959 78.6298 90.7359Z" fill="black"/>
<path d="M92.9033 100.878C93.4366 101.628 94.3782 102.353 95.7281 103.054C95.7346 103.058 95.7408 103.061 95.7471 103.064C96.8763 103.666 97.6282 103.98 98.0028 104.007C97.8074 103.993 97.5902 104.065 97.351 104.222C97.3684 104.211 97.3862 104.2 97.4039 104.189C97.1768 104.329 97.0423 104.485 97.0004 104.659L97.0005 104.658C97.0018 104.653 97.0033 104.644 97.0049 104.632L96.9887 104.944C96.9632 104.161 96.8838 103.572 96.7505 103.178L96.7734 103.242C96.3406 102.1 95.7943 101.342 95.1343 100.969L95.2684 101.039C95.117 100.967 95.0076 100.925 94.9404 100.912C95.4097 101 95.7699 100.804 96.0212 100.326L96.1269 100.085C96.1933 99.9005 96.2179 99.7449 96.2006 99.6186C96.2531 100.001 96.6374 100.843 97.3536 102.144C97.3587 102.153 97.3637 102.163 97.3687 102.172C98.1499 103.648 98.9489 104.745 99.7658 105.462L99.6298 105.352C99.6734 105.384 99.7061 105.406 99.7278 105.416C99.3616 105.24 99.0445 105.301 98.7762 105.6L98.6727 105.725C98.7987 105.559 98.8608 105.193 98.8588 104.627C98.8587 104.586 98.8599 104.545 98.8625 104.504C98.8983 103.936 98.8158 103.426 98.615 102.975C98.6039 102.95 98.5934 102.925 98.5835 102.9C98.1927 101.911 96.6779 100.235 94.039 97.8712C93.217 97.1351 93.1774 95.9039 93.9507 95.1213C94.7239 94.3387 96.0171 94.301 96.8391 95.0372C99.9388 97.8132 101.795 99.9777 102.409 101.531L102.377 101.456C102.828 102.467 103.016 103.561 102.942 104.737L102.946 104.614C102.95 106.024 102.63 107.154 101.985 108.004C101.952 108.047 101.918 108.089 101.882 108.129C100.759 109.378 99.4265 109.631 97.8836 108.888C97.631 108.767 97.3806 108.615 97.1324 108.432C97.0854 108.398 97.04 108.361 96.9964 108.323C95.8152 107.287 94.7227 105.82 93.7188 103.922L93.7339 103.95C92.7922 102.24 92.2636 100.964 92.1482 100.122C92.083 99.6473 92.1203 99.2154 92.2599 98.8266C92.2895 98.7443 92.3248 98.664 92.3656 98.5863C93.0411 97.2997 94.1612 96.8022 95.7259 97.094C96.1531 97.1737 96.6066 97.327 97.0865 97.5539C97.132 97.5754 97.1768 97.5986 97.2205 97.6233C98.721 98.4714 99.8534 99.9043 100.618 101.922C100.626 101.943 100.633 101.965 100.641 101.986C100.892 102.729 101.036 103.674 101.074 104.823C101.077 104.928 101.072 105.032 101.057 105.135C101.039 105.271 101.014 105.403 100.983 105.53L100.983 105.53C100.778 106.382 100.325 107.023 99.6248 107.455L99.6778 107.421C99.1241 107.786 98.4642 107.941 97.6978 107.887C96.7222 107.817 95.4069 107.342 93.7517 106.46L93.7707 106.47C91.8407 105.467 90.4237 104.331 89.5198 103.061C88.8869 102.171 89.1312 100.961 90.0656 100.359C90.9999 99.7563 92.2704 99.9889 92.9033 100.878Z" fill="black"/>
<path d="M93.6007 74.6262C93.5985 74.6252 93.5966 74.6244 93.5966 74.6244L93.5969 74.6246C93.8138 74.7118 94.7051 74.868 96.6702 74.833C98.2942 74.8042 102.152 74.5171 108.365 73.9999C109.578 73.899 111.235 73.9206 113.169 73.9431C113.534 73.9473 113.916 73.9518 114.31 73.9557C114.731 73.9599 115.075 73.8951 115.422 73.8183C116.757 73.5233 117.336 73.2857 117.473 73.2002L117.473 73.2002C117.581 73.1334 117.106 73.3715 116.967 74.0315C117.009 73.8293 117.085 73.6349 117.192 73.4555C117.803 72.4279 117.707 72.0093 117.659 71.9073C117.169 70.849 116.126 69.8076 114.484 68.6632L114.667 68.777C113.338 68.0438 112.97 67.911 108.307 66.3103L108.307 66.3103L107.757 66.1215L108.025 66.1942C106.419 65.8688 106.137 65.8014 105.951 65.7552C105.917 65.7469 105.909 65.7446 105.844 65.7313L105.844 65.7313C105.702 65.7026 105.407 65.6466 104.616 65.4987L104.793 65.5241L89.4985 63.967C89.4855 63.9657 89.4726 63.9642 89.4596 63.9627C88.3525 63.8295 87.4041 63.6861 86.8207 63.504L86.8206 63.5039C86.7725 63.4889 86.7228 63.4725 86.671 63.4539C85.6146 63.0758 85.0803 61.954 85.4775 60.9483C85.8747 59.9426 87.053 59.4339 88.1093 59.812C88.0992 59.8084 88.0941 59.8068 88.0945 59.8069L88.0944 59.8069C88.2438 59.8536 88.8005 59.9616 89.972 60.1025L89.9331 60.0982L105.227 61.6554C105.286 61.6614 105.345 61.6699 105.404 61.6808C106.177 61.8254 106.514 61.8892 106.694 61.9256L106.694 61.9256C106.834 61.9539 106.903 61.9706 106.979 61.9894C107.066 62.0111 107.264 62.0622 108.875 62.3885C108.966 62.407 109.056 62.4313 109.143 62.4613L109.693 62.6502C114.261 64.218 115.005 64.4671 116.716 65.4102C116.779 65.445 116.84 65.483 116.899 65.524C118.726 66.7978 120.472 68.3353 121.399 70.3377C122.251 72.1783 121.541 74.0397 120.749 75.3724L120.974 74.7964C120.777 75.7305 120.049 76.2457 119.708 76.4579L119.708 76.4579C118.904 76.9579 117.679 77.3137 116.347 77.6083C115.899 77.7072 115.179 77.8554 114.267 77.8463C113.868 77.8423 113.485 77.8379 113.119 77.8336C111.089 77.8101 109.68 77.7961 108.721 77.876C102.577 78.3874 98.5463 78.6912 96.7465 78.7232C94.8331 78.7572 93.1192 78.6566 92.0053 78.2082L92.0056 78.2083C91.9661 78.1924 91.9271 78.1761 91.8877 78.1587C90.8631 77.7083 90.4159 76.5525 90.889 75.577C91.362 74.6015 92.5761 74.1758 93.6007 74.6262Z" fill="black"/>
<path d="M104.326 67.3495C105.411 68.4119 106.876 69.274 108.721 69.9359L108.536 69.8789C110.378 70.3553 111.739 70.4207 112.617 70.0752C112.634 70.0684 112.651 70.0619 112.669 70.0556C113.003 69.9338 113.219 69.829 113.317 69.741C113.215 69.8325 113.153 69.9757 113.13 70.1706L113.12 70.4989C113.135 70.7524 113.205 70.9404 113.332 71.0628L113.332 71.0629C113.267 71.0001 113.13 70.9162 112.921 70.8113L113.105 70.8928C112.112 70.5078 110.991 70.3382 109.74 70.384L109.742 70.3839C108.866 70.4168 108.001 70.6491 107.144 71.0806L107.232 71.0336C107.139 71.0862 107.076 71.1276 107.043 71.1577L107.044 71.1577C107.373 70.8561 107.415 70.4778 107.168 70.0229L106.807 69.5492C107.041 69.7747 107.665 69.9179 108.681 69.9789C108.688 69.9793 108.696 69.9798 108.703 69.9803C110.574 70.1118 112.104 70.0341 113.292 69.7474L113.222 69.7653C112.516 69.9612 112.201 70.4588 112.275 71.2583C112.225 70.7217 112.411 70.1894 112.789 69.7881L112.788 69.7882C112.074 70.5473 112 71.2826 112.565 71.994L112.565 71.994C112.524 71.9423 112.436 71.8513 112.303 71.721L112.402 71.812C111.568 71.101 110.161 70.4348 108.18 69.8133L108.333 69.8553C107.477 69.6558 106.309 69.7206 104.83 70.0495C103.731 70.2938 102.632 69.6437 102.375 68.5975C102.119 67.5512 102.802 66.5049 103.901 66.2606C106.014 65.7907 107.815 65.7291 109.304 66.0758C109.356 66.0879 109.408 66.1019 109.458 66.1178C111.98 66.9089 113.87 67.8408 115.129 68.9133C115.163 68.9425 115.196 68.9729 115.228 69.0043C115.482 69.2514 115.68 69.4659 115.825 69.6477L115.825 69.6478C116.613 70.6401 116.615 71.5521 115.833 72.3838L116.346 70.9136C116.47 72.238 115.81 73.1004 114.365 73.5009C114.343 73.5073 114.319 73.5133 114.296 73.5189C112.679 73.9092 110.715 74.0231 108.402 73.8606L108.424 73.862C106.37 73.7387 104.861 73.2116 103.897 72.2807C103.752 72.1411 103.631 71.9814 103.536 71.8071C102.851 70.5428 103.076 69.3912 104.212 68.3523L104.212 68.3523C104.471 68.1152 104.782 67.894 105.144 67.6889C105.173 67.6725 105.203 67.6569 105.232 67.6419C106.636 66.9343 108.086 66.5523 109.581 66.4961L109.583 66.496C111.421 66.4288 113.109 66.6932 114.647 67.2894C114.709 67.3136 114.77 67.3408 114.83 67.3709C115.412 67.6636 115.884 67.9847 116.245 68.3341L116.245 68.3341C116.84 68.9096 117.158 69.5593 117.2 70.2834C117.207 70.3928 117.203 70.5027 117.19 70.6117C117.101 71.353 116.749 72.0026 116.133 72.5604C115.64 73.0066 114.971 73.3832 114.126 73.6904L114.178 73.6708C112.442 74.3543 110.204 74.342 107.465 73.6338C107.402 73.6176 107.34 73.5986 107.28 73.5769C104.866 72.7109 102.904 71.5391 101.396 70.0615C100.609 69.2911 100.627 68.0595 101.436 67.3106C102.246 66.5617 103.539 66.5791 104.326 67.3495Z" fill="black"/>
<path d="M55.7282 100.837C55.273 100.857 54.9271 101.174 54.6907 101.79L54.6937 101.782C53.9492 103.746 53.6796 104.991 53.885 105.517L53.885 105.517C53.879 105.502 53.8674 105.482 53.8502 105.457L53.8446 105.45C53.7758 105.354 53.7092 105.288 53.6446 105.252C53.7421 105.306 53.9359 105.357 54.2257 105.405C54.2471 105.409 54.2683 105.413 54.2896 105.417C54.994 105.556 55.461 105.611 55.6905 105.581C55.5923 105.594 55.4757 105.64 55.3407 105.719C55.3475 105.715 55.3542 105.711 55.361 105.707C56.1094 105.28 56.6957 104.337 57.1199 102.877L57.0799 103.043C57.1658 102.6 57.1798 102.303 57.1219 102.151C57.1545 102.237 57.2148 102.297 57.3025 102.332L57.3024 102.332C57.3013 102.331 57.2995 102.331 57.297 102.33C57.2675 102.32 57.2382 102.31 57.2092 102.299C57.5043 102.411 57.7547 102.435 57.9604 102.37C57.8057 102.419 57.5416 102.574 57.168 102.836L57.2149 102.802C56.856 103.07 56.6385 103.273 56.5624 103.413L56.5623 103.413C56.5687 103.401 56.5755 103.384 56.5829 103.361C56.2533 104.389 55.1111 104.967 54.0318 104.653C52.9525 104.34 52.3447 103.252 52.6743 102.225C52.74 102.02 52.8274 101.817 52.9364 101.618L52.9364 101.618C53.2851 100.979 53.8715 100.353 54.6956 99.7388C54.711 99.7272 54.7267 99.7159 54.7425 99.7048C55.4676 99.1957 56.1149 98.8521 56.6846 98.6739C57.4193 98.444 58.0989 98.4477 58.7233 98.6848L58.6356 98.6537C58.7204 98.6817 58.8036 98.712 58.8851 98.7445L58.885 98.7445C59.8938 99.1479 60.5858 99.8389 60.961 100.817C61.2737 101.633 61.3196 102.611 61.0987 103.749C61.0879 103.805 61.0745 103.86 61.0587 103.915C60.344 106.374 59.1452 108.084 57.4625 109.045L57.4828 109.033C57.1286 109.24 56.7161 109.375 56.2452 109.436C55.5505 109.527 54.6212 109.457 53.4572 109.226L53.521 109.238C52.7553 109.11 52.1146 108.905 51.5989 108.621C51.1261 108.36 50.7492 108.034 50.4682 107.642L50.4626 107.634C50.2978 107.401 50.1618 107.148 50.0545 106.873L50.0545 106.873C49.5012 105.456 49.7662 103.319 50.8495 100.461L50.8525 100.454C51.7121 98.2158 53.2757 97.048 55.5434 96.9503C56.6707 96.9017 57.626 97.7324 57.6771 98.8057C57.7281 99.879 56.8556 100.789 55.7282 100.837Z" fill="black"/>
<path d="M40.6445 52.8252C40.3397 52.723 40.0316 52.6093 39.7708 52.484L39.7709 52.4841C39.6646 52.433 39.5259 52.361 39.3837 52.2668L39.4438 52.3051L37.2363 50.95L37.4325 51.0563C36.0112 50.3822 34.5867 49.5999 33.1504 48.7845C32.342 48.3256 31.4209 47.9259 30.6239 47.5819C30.3425 47.4604 30.0543 47.3362 29.8187 47.2271C28.8038 46.7572 28.3811 45.593 28.8747 44.6268C29.3683 43.6606 30.5911 43.2582 31.606 43.7281C31.7805 43.8089 32.013 43.9095 32.3113 44.0382C33.079 44.3695 34.2071 44.8543 35.2436 45.4427C36.6578 46.2457 37.9754 46.9669 39.2547 47.5736C39.3221 47.6056 39.3876 47.6411 39.4509 47.68L41.6584 49.0351C41.6786 49.0475 41.6987 49.0603 41.7185 49.0734C41.6475 49.0264 41.6026 49.006 41.6114 49.0101L41.6115 49.0102C41.6371 49.0225 41.7506 49.071 42.0027 49.1556C43.0671 49.5127 43.6259 50.6236 43.2508 51.637C42.8758 52.6503 41.7089 53.1823 40.6445 52.8252Z" fill="black"/>
<path d="M42.1558 88.676C41.1345 89.5251 39.8445 90.398 38.2861 91.2948L38.3521 91.2552C37.4635 91.8117 35.6172 92.7463 32.8131 94.059L32.915 94.0078C32.4637 94.2501 32.0243 94.5098 31.5969 94.7869L31.6457 94.7543L31.0525 95.1636L31.1662 95.0792C31.1527 95.09 31.1432 95.0977 31.1376 95.1024L31.1377 95.1023C32.0755 94.3095 32.1215 93.4327 31.2755 92.4719L31.2753 92.4716C30.5697 91.6706 29.7472 91.5078 28.8077 91.9833C28.8856 91.9439 28.966 91.9093 29.0485 91.8798L29.0486 91.8798C28.7628 91.9819 28.5343 92.1207 28.3632 92.2962L28.363 92.2964C28.3761 92.283 28.3986 92.2583 28.4305 92.2223C29.1582 91.4011 30.4474 91.2971 31.3099 91.9899C32.1724 92.6828 32.2817 93.9101 31.554 94.7313C31.4803 94.8144 31.415 94.8852 31.358 94.9437L31.3578 94.9438C31.0917 95.2166 30.8008 95.4095 30.485 95.5224L30.726 95.4188C29.7169 95.9295 28.8562 95.7805 28.1438 94.9717L28.1435 94.9714C27.2884 94.0001 27.382 93.074 28.4242 92.1929L28.4243 92.1929C28.4587 92.1637 28.4975 92.132 28.5406 92.0976C28.5775 92.0681 28.6154 92.04 28.6543 92.0131L29.2475 91.6038C29.2637 91.5927 29.2799 91.5818 29.2964 91.5712C29.819 91.2322 30.3562 90.9147 30.908 90.6185C30.9414 90.6006 30.9754 90.5835 31.0098 90.5674C33.6611 89.3262 35.3598 88.472 36.1061 88.0046C36.1279 87.991 36.1498 87.9778 36.1721 87.965C37.527 87.1853 38.6256 86.4454 39.4678 85.7452C40.3179 85.0385 41.6087 85.1217 42.351 85.931C43.0933 86.7403 43.0059 87.9693 42.1558 88.676Z" fill="black"/>
<path d="M76.9654 108.344C77.0698 108.83 77.1377 109.361 77.1691 109.936L77.1686 109.927C77.1892 110.275 77.1952 110.962 77.1865 111.987L77.1863 111.998C77.1777 112.587 77.1524 113.169 77.1106 113.746L77.1106 113.746C77.0966 113.939 77.0808 114.131 77.0632 114.321L77.0633 114.321C77.0114 114.886 76.942 115.62 76.8553 116.522L76.8587 116.482C76.8595 116.471 76.8595 116.471 76.8585 116.484L76.8582 116.489C76.8346 116.794 76.8216 116.995 76.8193 117.092C76.8192 117.099 76.819 117.106 76.8187 117.113C76.8077 117.43 76.806 117.73 76.8136 118.015L76.8123 117.978C76.8633 119.074 76.888 119.732 76.8864 119.953V119.952C76.8863 119.967 76.8861 119.982 76.8858 119.996L76.8861 119.936C76.8908 120.334 76.8794 120.698 76.8519 121.027C76.7623 122.098 75.7778 122.897 74.6528 122.812C73.5278 122.727 72.6884 121.789 72.7779 120.718C72.7956 120.507 72.8028 120.261 72.7995 119.98C72.7993 119.96 72.7994 119.94 72.7998 119.92C72.7997 119.923 72.7997 119.925 72.7997 119.927V119.926C72.8008 119.772 72.7774 119.18 72.7295 118.151C72.7289 118.138 72.7285 118.126 72.7282 118.114C72.7185 117.754 72.7205 117.377 72.7342 116.984L72.7336 117.005C72.7375 116.841 72.7537 116.574 72.7824 116.204L72.782 116.208C72.7811 116.22 72.7812 116.22 72.7821 116.207C72.7834 116.19 72.7844 116.179 72.7855 116.167C72.8717 115.272 72.9405 114.544 72.992 113.982L72.9921 113.981C73.0075 113.814 73.0214 113.646 73.0336 113.478L73.0335 113.478C73.0702 112.972 73.0923 112.461 73.1 111.944L73.0998 111.955C73.1078 111.014 73.104 110.411 73.0883 110.147L73.0878 110.138C73.067 109.757 73.0248 109.418 72.9613 109.122C72.7355 108.07 73.4488 107.042 74.5545 106.827C75.6602 106.612 76.7396 107.291 76.9654 108.344Z" fill="black"/>
<path d="M112.891 85.9329C115.129 87.6242 117.198 89.0156 119.096 90.1073C119.218 90.1772 119.331 90.2588 119.435 90.351L119.435 90.3507C119.384 90.3056 119.34 90.271 119.303 90.247L119.303 90.2468C119.75 90.5391 121.709 91.4704 125.178 93.0407C125.206 93.0533 125.233 93.0665 125.26 93.0802C125.738 93.3225 126.145 93.5786 126.48 93.8487C127.341 94.5433 127.448 95.7708 126.718 96.5906C125.989 97.4104 124.699 97.5119 123.838 96.8174C123.726 96.7273 123.561 96.6265 123.341 96.5151L123.423 96.5546C119.759 94.8963 117.615 93.8629 116.99 93.4545L116.99 93.4544C116.859 93.3685 116.744 93.2819 116.646 93.1946L116.984 93.438C114.936 92.2606 112.725 90.7748 110.35 88.9805C109.466 88.3126 109.318 87.0889 110.02 86.2473C110.722 85.4057 112.007 85.265 112.891 85.9329Z" fill="black"/>
<path d="M107.711 49.4775C108.951 48.6965 109.663 48.2374 109.847 48.1005L109.848 48.1003C109.839 48.1069 109.828 48.1157 109.814 48.1268L109.816 48.1255C111.93 46.3961 113.319 45.3129 113.983 44.876L113.981 44.8775L118.36 41.9886C119.287 41.3767 120.56 41.5965 121.203 42.4797C121.846 43.3628 121.615 44.5748 120.687 45.1867L116.308 48.0756L116.306 48.0771C115.76 48.4364 114.484 49.4362 112.479 51.0765L112.481 51.0752C112.445 51.1044 112.406 51.1349 112.363 51.1668L112.363 51.1667C112.095 51.3664 111.296 51.8851 109.966 52.7225C109.025 53.3153 107.757 53.0695 107.134 52.1734C106.512 51.2774 106.77 50.0704 107.711 49.4775Z" fill="black"/>
<path d="M70.9681 26.7024L70.9681 26.7025C70.9587 26.6167 70.9518 26.5364 70.9476 26.4615L70.9476 26.4612C70.9398 26.3232 70.9406 26.1946 70.95 26.0755L70.9492 26.0864C71.0148 25.1889 71.0488 24.6299 71.0511 24.4093C71.0512 24.3973 71.0514 24.3855 71.0518 24.3735C71.0703 23.7513 71.0742 23.3202 71.0635 23.0804C71.0631 23.0705 71.0628 23.0608 71.0625 23.0508C71.0558 22.8179 71.044 22.5796 71.0271 22.336L71.0278 22.3459C70.9909 21.8538 70.9158 20.95 70.8027 19.6345L70.8017 19.623C70.7611 19.1133 70.7261 18.6036 70.6968 18.0938L70.6966 18.0895C70.626 16.8124 70.5914 15.8119 70.5928 15.088L70.5928 15.0917C70.5928 14.528 70.6217 13.9906 70.6798 13.4795C70.6812 13.4672 70.6827 13.455 70.6843 13.4427L70.69 13.4032L70.6901 13.4027L70.6844 13.4422C70.7743 12.7702 70.8817 12.125 71.0067 11.5065C71.2198 10.4515 72.291 9.76066 73.3992 9.9636C74.5075 10.1665 75.2331 11.1864 75.0199 12.2415C74.9112 12.7794 74.8174 13.3435 74.7384 13.9338L74.7327 13.9733L74.7326 13.9739L74.7428 13.8976C74.7006 14.2695 74.6795 14.6674 74.6796 15.0915L74.6796 15.0951C74.6783 15.7482 74.711 16.6782 74.7777 17.8852L74.7774 17.8809C74.8052 18.3636 74.8383 18.8461 74.8768 19.3285L74.8759 19.317C74.9901 20.6458 75.0662 21.563 75.1042 22.0687L75.1049 22.0786C75.1254 22.3729 75.1397 22.6618 75.1477 22.9453L75.1467 22.9157C75.1614 23.2472 75.1582 23.7698 75.1369 24.4836L75.1377 24.4479C75.1346 24.7458 75.0974 25.382 75.0261 26.3565L75.0253 26.3674C75.029 26.32 75.0301 26.2819 75.0285 26.2532L75.0285 26.2528C75.029 26.2616 75.0303 26.276 75.0325 26.296C75.1504 27.3647 74.336 28.3218 73.2137 28.434C72.0913 28.5462 71.0859 27.7709 70.9681 26.7024Z" fill="black"/>
<path d="M50.1805 65.4704L50.2968 65.3253C51.241 64.1475 53.0093 63.9214 54.2464 64.8203C55.4836 65.7192 55.721 67.4027 54.7769 68.5805L54.6606 68.7256C53.7164 69.9034 51.9481 70.1295 50.711 69.2306C49.4738 68.3317 49.2364 66.6482 50.1805 65.4704Z" fill="black"/>
<path d="M71.4993 43.3839C71.7432 43.1724 72.0052 42.8815 72.2854 42.5111L72.1026 42.7866C73.1603 40.9553 73.8409 39.8293 74.1447 39.4085L74.1447 39.4086C74.504 38.911 74.9378 38.556 75.4463 38.3437L74.2658 39.2671C74.6645 38.7223 75.2359 38.119 75.9802 37.4572L75.4915 38.0308C75.6125 37.8402 75.7701 37.6485 75.9645 37.4557C76.5247 36.9001 78.9173 34.9076 83.1423 31.4782C83.1723 31.4538 83.2028 31.4301 83.2339 31.4069C84.1539 30.7215 85.0577 30.2652 85.9452 30.0379C86.769 29.827 87.5694 29.8082 88.3465 29.9816C88.7404 30.0696 89.1099 30.2372 89.4297 30.4732C91.233 31.804 92.1345 33.8849 92.1342 36.7157L91.6329 35.1879C92.0058 35.7005 92.1787 36.3163 92.1517 37.0354V37.0353C92.1241 37.7735 91.819 39.7311 91.2365 42.9081L91.2641 42.7172L90.458 50.2902C90.3011 51.7643 88.9187 52.8382 87.3704 52.6888C85.822 52.5394 84.6941 51.2233 84.851 49.7492L85.6571 42.1763C85.6639 42.1123 85.6731 42.0487 85.6847 41.9854C86.2229 39.0504 86.5012 37.3366 86.5196 36.844V36.8439C86.502 37.3123 86.6621 37.7787 86.9999 38.243C86.6735 37.7944 86.4984 37.2613 86.4985 36.7152C86.4986 35.6377 86.3248 34.9706 85.9771 34.7139L87.0602 35.2055C87.2036 35.2375 87.3198 35.2421 87.409 35.2193C87.2593 35.2576 87.0253 35.3954 86.707 35.6325L86.7986 35.5612C82.7166 38.8746 80.4605 40.7445 80.0303 41.1712C80.1254 41.0769 80.2206 40.9547 80.3158 40.8046C80.1812 41.0166 80.0168 41.2096 79.8271 41.3783C79.3736 41.7816 79.0612 42.1002 78.89 42.3342C78.5933 42.7396 78.1848 43.0592 77.7094 43.2576C78.1818 43.0604 78.5418 42.7905 78.7891 42.4478L78.7891 42.4479C78.5912 42.7219 78.0086 43.6965 77.0411 45.3717C76.9861 45.467 76.9251 45.559 76.8583 45.6472C76.349 46.3203 75.8275 46.8883 75.2937 47.351C74.143 48.3486 72.3608 48.2692 71.313 47.1737C70.2652 46.0782 70.3486 44.3815 71.4993 43.3839Z" fill="black"/>
<path d="M67.1776 40.828L67.1888 40.8304L67.189 40.8304L67.1779 40.8281C67.3754 40.8689 67.5675 40.9154 67.7542 40.9677C67.7698 40.9721 67.7855 40.9766 67.801 40.9813L67.8159 40.9857L67.8162 40.9859L67.8019 40.9815C67.8812 41.0052 67.9565 41.03 68.0279 41.0561L68.0293 41.0566L68.3795 41.1844C69.8326 41.7148 70.559 43.2663 70.0018 44.6498C69.4447 46.0332 67.815 46.7247 66.3619 46.1943L66.0117 46.0665L66.0131 46.067C66.05 46.0804 66.0841 46.0918 66.1156 46.1012L66.1013 46.0969L66.1009 46.0968L66.1626 46.1148C66.1072 46.0993 66.0477 46.085 65.984 46.0719L65.9729 46.0695L65.9726 46.0695C64.4629 45.758 63.4971 44.3297 63.8268 42.8817C64.1564 41.4337 65.6566 40.5142 67.1776 40.828Z" fill="black"/>
<path d="M73.8304 46.0354L73.8303 46.0353C74.1098 46.4385 74.43 46.7136 74.7911 46.8606C74.6672 46.8101 74.403 46.7309 73.9986 46.6229L74.3089 46.6881C74.0092 46.6418 73.8074 46.6161 73.7034 46.6109C73.6097 46.6061 73.5161 46.5969 73.4233 46.5833L72.4331 46.4379L72.6712 46.463L71.6029 46.3938L71.6444 46.3962C71.6565 46.3968 71.6683 46.3969 71.6796 46.3966L71.8046 46.3899C71.5463 46.4092 71.2586 46.4216 70.9416 46.4271C70.8439 46.4288 70.7462 46.4257 70.6489 46.4177C70.8154 46.4313 70.9693 46.4316 71.1107 46.4184L71.1108 46.4184C71.0427 46.4247 70.8538 46.4466 70.5441 46.4839L70.6045 46.476L69.921 46.5728L70.2247 46.5133C69.8614 46.6045 69.4095 46.6955 68.8692 46.7862L68.9943 46.7624C68.9017 46.7821 68.7989 46.7994 68.686 46.8144L68.6861 46.8144C68.5903 46.827 68.4667 46.8408 68.3153 46.8556C66.7672 47.0069 65.3833 45.9347 65.2244 44.4608C65.0655 42.9869 66.1916 41.6694 67.7398 41.5181C67.8243 41.5098 67.8811 41.5038 67.9104 41.4999L67.9104 41.4999C67.8711 41.5051 67.8227 41.5138 67.7653 41.526C67.8069 41.5172 67.8485 41.5093 67.8904 41.5023C68.2767 41.4374 68.576 41.3783 68.7883 41.325C68.8884 41.2999 68.9898 41.2801 69.0921 41.2656L69.7756 41.1688C69.7957 41.166 69.8158 41.1633 69.836 41.1609C70.1986 41.1172 70.4404 41.0897 70.5615 41.0784H70.5615C70.7637 41.0595 70.9534 41.0574 71.1308 41.0719L70.838 41.0625C71.0429 41.0589 71.2185 41.0517 71.3649 41.0408C71.4065 41.0377 71.4482 41.0354 71.4899 41.0341C71.6419 41.0292 71.7933 41.0306 71.9443 41.0383C71.9581 41.039 71.9719 41.0398 71.9857 41.0407L73.054 41.1099C73.1337 41.1151 73.2131 41.1235 73.2921 41.1351L74.2823 41.2805L74.0023 41.2529C74.3082 41.2683 74.7108 41.3146 75.2102 41.3916C75.3148 41.4077 75.4184 41.4295 75.5204 41.4567C76.1616 41.6279 76.6571 41.7848 77.0071 41.9273C77.6834 42.2026 78.1925 42.587 78.5345 43.0804C79.3915 44.317 79.0333 45.9811 77.7343 46.7971C76.4354 47.6131 74.6875 47.2721 73.8304 46.0354Z" fill="black"/>
<path d="M74.9668 43.7147C75.2591 44.4189 75.7244 44.8884 76.3629 45.1232C76.3054 45.102 76.1923 45.0674 76.0237 45.0194L76.2985 45.0835L75.4368 44.9256L75.5854 44.9489L73.4317 44.6668L73.5455 44.6795C73.1659 44.6447 72.8849 44.6262 72.7025 44.6241L72.9007 44.6198C72.5699 44.6381 72.3612 44.6518 72.2746 44.6609L72.2745 44.6609C72.3586 44.6521 72.4563 44.6341 72.5678 44.6069C72.5072 44.6217 72.446 44.6346 72.3845 44.6455L70.2046 45.0319C70.1444 45.0426 70.0838 45.0514 70.023 45.0583C69.8533 45.0776 69.654 45.1042 69.4249 45.1381C69.3765 45.1452 69.3278 45.1512 69.2791 45.156C68.8474 45.198 68.5757 45.2281 68.464 45.2461L68.4634 45.2462C68.465 45.246 68.4665 45.2457 68.4678 45.2455C68.4337 45.2511 68.3993 45.2561 68.365 45.2606C68.2578 45.2743 68.0696 45.3187 67.8005 45.3935C66.3067 45.8092 64.7418 44.9933 64.3053 43.5711C63.8687 42.1489 64.7257 40.6591 66.2195 40.2435C66.7601 40.093 67.2242 39.993 67.6116 39.9432L67.5087 39.9583C67.5131 39.9575 67.5176 39.9568 67.5223 39.9561L67.5217 39.9561C67.7555 39.9184 68.1499 39.8725 68.705 39.8183L68.5592 39.8362C68.8539 39.7926 69.1191 39.7574 69.3547 39.7306L69.1731 39.757L71.353 39.3706L71.1697 39.4091C71.3152 39.3737 71.4778 39.3465 71.6576 39.3277L71.6575 39.3277C71.8404 39.3085 72.1455 39.287 72.573 39.2633C72.6389 39.2597 72.7051 39.2582 72.7712 39.259C73.1111 39.2629 73.5494 39.2895 74.086 39.3387C74.1241 39.3422 74.162 39.3464 74.1998 39.3514L76.3535 39.6335C76.4033 39.64 76.4529 39.6478 76.5022 39.6568L77.3639 39.8148C77.4566 39.8317 77.5483 39.8532 77.6387 39.8789C77.9475 39.9668 78.1991 40.0465 78.3933 40.1179C79.2906 40.4479 79.8957 40.9896 80.2084 41.7432C80.7802 43.1212 80.0704 44.6796 78.623 45.2241C77.1756 45.7685 75.5387 45.0927 74.9668 43.7147Z" fill="black"/>
<path d="M66.5132 42.6115L66.5132 42.6114C66.5141 42.6165 66.5149 42.6203 66.5155 42.6228L66.5156 42.6232C66.492 42.5252 66.4224 42.3588 66.3069 42.1241L66.5639 42.543C65.8348 41.5692 64.9491 39.9882 63.9068 37.7999L64.1868 38.2601L60.8953 33.9106L61.0372 34.0828C60.5382 33.5255 59.9624 33.0867 59.3097 32.7663C59.067 32.6472 58.8438 32.4951 58.647 32.3149L58.6471 32.3149C59.252 32.8691 59.8769 33.0897 60.522 32.9768C60.4263 32.9936 60.2567 33.0436 60.0131 33.1269L60.8901 32.6424C60.8818 32.6492 60.8758 32.6544 60.8721 32.658L60.872 32.658C60.9425 32.5896 60.9989 32.4819 61.0413 32.335C61.0273 32.3834 61.0119 32.4315 60.9951 32.4791C60.3825 34.2121 60.0583 35.3023 60.0227 35.7496L60.0226 35.7496C60.0256 35.7123 60.0246 35.6618 60.0196 35.5981C60.0283 35.7087 60.0297 35.8196 60.0239 35.9304C60.0051 36.2884 60.0027 36.6042 60.0166 36.8777L60.0095 36.7779C60.3864 40.9613 60.5871 44.1865 60.6117 46.4534L60.6096 46.3738C60.6245 46.7298 60.6926 47.3271 60.8139 48.1656C61.0261 49.6334 59.9484 50.9871 58.4066 51.1891C56.8649 51.3912 55.4431 50.3651 55.2308 48.8973C55.0848 47.8873 55.0006 47.1176 54.9784 46.5884C54.9772 46.5618 54.9765 46.5354 54.9762 46.5088C54.9532 44.3764 54.7592 41.2856 54.3944 37.2364C54.3914 37.2031 54.3891 37.1699 54.3874 37.1365C54.3646 36.6874 54.3672 36.1963 54.3952 35.6631L54.3994 35.9954C54.3835 35.7913 54.3847 35.5739 54.4031 35.3433L54.4031 35.3433C54.4744 34.4499 54.8912 32.9247 55.6537 30.7677L55.6075 30.9119C55.8228 30.1665 56.2353 29.4974 56.8449 28.9046L56.8448 28.9046C56.9661 28.7867 57.0948 28.6724 57.2311 28.5616C57.4903 28.351 57.7874 28.1869 58.1081 28.0772C58.6406 27.8951 59.1056 27.7693 59.5031 27.6997C60.7537 27.4809 61.7709 27.7305 62.5548 28.4487L61.8922 27.9973C63.2024 28.6404 64.3471 29.5086 65.3261 30.6019C65.3758 30.6575 65.4231 30.7149 65.4679 30.7741L68.7594 35.1237C68.8686 35.2679 68.9624 35.4221 69.0394 35.5839C69.9311 37.456 70.6357 38.7376 71.1531 39.4286C71.2519 39.5606 71.3379 39.7008 71.4101 39.8475C71.6955 40.4273 71.8949 40.952 72.0082 41.4214L72.0083 41.4218C72.0268 41.4987 72.0433 41.5747 72.0577 41.6499C72.3366 43.1074 71.3216 44.5044 69.7905 44.7699C68.2595 45.0355 66.7922 44.0692 66.5132 42.6115Z" fill="black"/>
<path d="M64.9074 40.8941C64.9154 40.9762 64.9259 41.0419 64.9389 41.0912L64.9389 41.0913C64.8895 40.9041 64.7296 40.5034 64.459 39.8892L64.4785 39.9324C64.2474 39.4324 64.0242 39.0091 63.8091 38.6625C63.7347 38.5427 63.6702 38.4175 63.6163 38.2881L63.6163 38.2882C62.9027 36.5782 63.4302 35.3886 65.1989 34.7195L65.1995 34.7193C66.0636 34.3926 66.9378 34.4666 67.822 34.9414C68.0206 35.0481 68.2049 35.1773 68.3708 35.3262C69.0801 35.963 69.6843 36.7361 70.1834 37.6456L70.1006 37.5052C70.1401 37.5677 70.1803 37.6357 70.2212 37.7093L70.2212 37.7093C70.2773 37.8102 70.3406 37.9323 70.4111 38.0756C70.429 38.112 70.4459 38.1486 70.4621 38.1857C70.7571 38.8628 70.9343 39.262 70.9936 39.3833L70.9937 39.3834C70.2552 37.8747 69.056 37.4484 67.396 38.1044L67.3987 38.1034C66.0449 38.6368 65.475 39.5925 65.6891 40.9703C65.4868 39.6685 66.3063 38.4192 67.6237 38.0208C68.9412 37.6225 70.3676 38.1928 70.9913 39.3672C70.9988 39.3813 71.0045 39.3915 71.0084 39.3978L71.0084 39.3979C70.9612 39.321 70.8823 39.2327 70.7717 39.1331C71.1246 39.4509 71.3851 39.8502 71.5281 40.2921L71.5281 40.292C71.5688 40.4179 71.6011 40.5228 71.6249 40.6066L71.6249 40.6065C71.7064 40.8934 71.7464 41.1643 71.7449 41.4193C71.7367 42.9009 70.4684 44.0956 68.9121 44.0877C67.3559 44.0799 66.101 42.8724 66.1093 41.3908C66.108 41.6204 66.1331 41.8258 66.1845 42.0069L66.1845 42.0068C66.1776 41.9827 66.1636 41.9378 66.1423 41.872L66.8986 43.0308C66.6189 42.7789 66.367 42.4705 66.1431 42.1058L66.1431 42.1059C66.0814 42.0054 66.0211 41.8996 65.9619 41.7883L71.2642 40.1852C71.4791 41.5684 70.9091 42.527 69.554 43.061L69.5567 43.0599C67.8914 43.7181 66.6676 43.248 65.8853 41.6497L65.8854 41.6499C65.792 41.459 65.5823 40.9895 65.2564 40.2412L65.3074 40.3513C65.2758 40.2871 65.2533 40.2429 65.2399 40.2189L65.2399 40.2189C65.2472 40.2319 65.2576 40.2491 65.2711 40.2705C65.242 40.2244 65.2143 40.1776 65.1883 40.1301C64.9819 39.7539 64.7539 39.4539 64.5045 39.23L65.0534 39.6148C65.733 39.9798 66.475 40.0102 67.2795 39.706L67.2801 39.7058C69.0028 39.0541 69.5274 37.9211 68.8538 36.3071L68.661 35.9328C68.9901 36.4629 69.3153 37.0757 69.6367 37.7709C69.6433 37.7853 69.6498 37.7996 69.6562 37.8141C70.0368 38.678 70.2864 39.3349 70.405 39.7849L70.405 39.785C70.4624 40.0027 70.5004 40.2074 70.5191 40.3992C70.6626 41.8745 69.5228 43.1813 67.9731 43.318C66.4235 43.4546 65.0509 42.3694 64.9074 40.8941Z" fill="black"/>
<path d="M61.2986 53.9771C60.3523 54.0019 59.5072 54.477 59.0144 55.1995L59.0118 55.1997C58.446 55.6637 58.0839 56.372 57.9255 57.3248L57.9255 57.3249C57.9006 57.4742 57.881 57.6338 57.8665 57.8036C57.8635 57.8388 57.8612 57.874 57.8594 57.9991L57.8568 57.9993C57.8461 58.4382 57.865 59.2357 57.9137 60.3919C57.9146 60.4136 57.9158 60.4351 57.9172 60.4568C57.9828 61.4264 58.0365 62.2596 58.0782 62.9563V62.9565C57.6661 62.8849 57.2609 62.8544 56.8625 62.8648C55.8146 62.8922 54.814 63.2028 53.8605 63.7964C53.7466 63.8673 53.6383 63.946 53.5364 64.0318C53.3688 64.1728 53.2146 64.3162 53.0739 64.4619L53.0739 64.462C52.6867 64.8629 52.3956 65.2848 52.2007 65.7277L52.1982 65.7279C51.1063 66.3252 50.3864 67.2667 50.0384 68.5525C49.9504 68.8773 49.9273 69.215 49.9701 69.548C50.2984 72.1011 52.0364 74.1054 55.1839 75.5609C55.2022 75.5693 55.2206 75.5776 55.2391 75.5857C56.3158 76.0564 57.4603 76.2759 58.6728 76.2442C58.9817 76.2361 59.2951 76.2117 59.6128 76.171L59.6154 76.1711C59.6762 76.1885 59.7359 76.2047 59.7944 76.2197L59.7945 76.2197C60.3175 76.3537 60.7939 76.4151 61.2236 76.4038C62.4315 76.3722 63.2705 75.7667 63.7406 74.5873L63.7379 74.5875C64.2632 74.0883 64.5918 73.4759 64.7237 72.7501L64.721 72.7503C65.1832 71.7975 65.074 70.7461 64.3934 69.5962L64.3907 69.5964C64.3095 69.314 64.2166 69.0383 64.112 68.7695C64.1086 68.7609 64.105 68.7516 64.1015 68.7431C63.9839 68.4505 63.8618 68.1688 63.7352 67.898L63.7326 67.8982C63.7532 67.5738 63.7704 67.2808 63.7841 67.0191L63.7814 67.0194C63.8109 66.9666 63.8386 66.913 63.8643 66.8586C63.9862 66.6013 64.0741 66.3049 64.128 65.9693L64.128 65.9691C64.1754 65.6744 64.2154 65.234 64.2481 64.6478C64.2518 64.5799 64.2529 64.512 64.2513 64.4441C64.2156 62.9642 64.1897 61.6953 64.1735 60.6373L64.1709 60.6375C64.1903 60.3048 64.2111 59.9708 64.2331 59.6357C64.2338 59.6256 64.2344 59.6151 64.235 59.605C64.259 59.1583 64.2492 58.558 64.2057 57.8039C64.2029 57.7544 64.1986 57.705 64.1929 57.6558C64.1847 57.5854 64.1754 57.5167 64.1652 57.4497L64.1625 57.4499C64.1683 57.1993 64.1768 57.0082 64.1881 56.8764C64.3142 55.3996 63.1589 54.1051 61.6078 53.985C61.5038 53.977 61.4006 53.9744 61.2986 53.9771Z" fill="black"/>
<path d="M58.6304 67.3352C59.1753 68.3386 59.6266 69.7969 59.9846 71.7101L59.9822 71.6975C60.2463 73.0715 60.3986 73.9451 60.439 74.3181L60.4389 74.3176C60.4453 74.3764 60.4502 74.4318 60.4538 74.4839L60.4444 74.3784C60.5183 75.0519 60.5406 75.7453 60.5113 76.4587C60.5109 76.4693 60.5104 76.4794 60.5098 76.4901C60.4657 77.3176 60.3933 78.0191 60.2927 78.5944L60.2947 78.5829C60.1506 79.4302 59.7812 81.2779 59.1865 84.126L59.2048 84.029L58.7388 86.787L58.7538 86.6862C58.4905 88.7379 58.2786 90.1211 58.1178 90.8359C57.7921 92.2847 56.2944 93.2079 54.7726 92.8977C53.2508 92.5876 52.2812 91.1617 52.6069 89.7129C52.7325 89.1544 52.9167 87.9286 53.1596 86.0356C53.164 86.0019 53.1689 85.9683 53.1746 85.9348L53.6406 83.1768C53.6461 83.1444 53.6522 83.1122 53.659 83.0799C54.2405 80.2946 54.598 78.5097 54.7315 77.7251L54.7335 77.7135C54.7988 77.3397 54.8481 76.8411 54.8814 76.2179L54.8799 76.2492C54.8986 75.7922 54.8851 75.3544 54.8392 74.9358C54.8353 74.9007 54.8322 74.8655 54.8298 74.8303C54.8309 74.8463 54.8319 74.8589 54.8329 74.8682L54.8329 74.8678C54.8076 74.6344 54.6762 73.8996 54.4385 72.6636L54.4362 72.651C54.1781 71.2715 53.9074 70.3208 53.624 69.799C52.9094 68.4828 53.4508 66.8643 54.8333 66.1839C56.2158 65.5036 57.9158 66.019 58.6304 67.3352Z" fill="black"/>
<path d="M53.3212 85.4824C53.2962 85.5387 53.2815 85.5841 53.2769 85.6186V85.6187C53.2782 85.6091 53.2789 85.5939 53.279 85.5732C53.2792 85.5295 53.2805 85.4858 53.2829 85.4422C53.3082 84.9918 53.2951 84.5575 53.2434 84.1394C53.2415 84.1238 53.2397 84.1084 53.2381 84.0927C53.196 83.6915 53.1643 83.4346 53.1431 83.3221L53.1653 83.4278C52.9223 82.3829 52.6356 80.8253 52.3051 78.7551L52.3207 78.843C52.3022 78.7484 52.302 78.7472 52.3201 78.8396L52.3207 78.843C51.9583 77.0034 51.7535 75.9148 51.7062 75.5773L51.7062 75.5778C51.6971 75.5124 51.69 75.4519 51.685 75.3965L51.7298 75.6946C51.5635 74.9069 51.4525 74.4181 51.3968 74.2281C51.3745 74.1525 51.3558 74.0759 51.3407 73.9987C51.1759 73.1593 50.8349 72.2133 50.3179 71.1609C49.6585 69.8188 50.2667 68.2219 51.6764 67.5942C53.086 66.9664 54.7633 67.5454 55.4227 68.8875C56.1421 70.3517 56.628 71.7268 56.8805 73.013L56.8244 72.7835C56.9178 73.1016 57.0613 73.7196 57.2551 74.6377C57.2758 74.7362 57.2908 74.8358 57.2999 74.9358C57.2974 74.9079 57.2949 74.8851 57.2924 74.8674L57.2924 74.8679C57.3266 75.1117 57.5157 76.1071 57.8599 77.8539L57.8605 77.8572C57.8791 77.952 57.8793 77.9533 57.8613 77.8611C57.8666 77.8879 57.872 77.9183 57.8769 77.949C58.1884 79.9004 58.452 81.34 58.6678 82.2679C58.676 82.303 58.6834 82.3382 58.6901 82.3736C58.7373 82.6238 58.7892 83.0191 58.8459 83.5594L58.8406 83.5127C58.9297 84.2345 58.9531 84.9731 58.9107 85.7286L58.9146 85.5975C58.9135 85.8329 58.8983 86.0619 58.8691 86.2846V86.2847C58.809 86.7421 58.69 87.171 58.5123 87.5714C57.9064 88.9361 56.2532 89.5748 54.8197 88.9979C53.3862 88.4211 52.7153 86.8471 53.3212 85.4824Z" fill="black"/>
<path d="M52.3986 73.2065C50.0873 73.5943 47.7372 73.6407 45.3482 73.3459L45.4221 73.354C44.6645 73.2798 44.0401 73.1882 43.5487 73.0791L43.5675 73.0832C42.622 72.8798 41.37 72.5318 39.8115 72.0393L40.0256 72.0982C39.8805 72.0642 39.7814 72.0429 39.7283 72.0344L39.7284 72.0344C41.2912 72.2852 42.2779 71.6171 42.6883 70.0299L42.6892 70.0265C42.8737 69.309 42.7646 68.6361 42.3619 68.0079C42.5365 68.2802 42.6586 68.5801 42.7226 68.8933L42.7226 68.8933C42.6426 68.5013 42.5001 68.2085 42.2952 68.0149C42.3725 68.0879 42.5302 68.199 42.7684 68.3482L42.642 68.2735C43.006 68.4761 43.7633 68.793 44.9139 69.2242C45.2104 69.3353 45.4848 69.4934 45.7258 69.6919C45.48 69.4894 45.241 69.3506 45.0088 69.2754C45.5358 69.446 47.437 69.8116 50.7126 70.3722C52.2443 70.6344 53.2627 72.0291 52.9874 73.4873C52.712 74.9456 51.2471 75.9153 49.7154 75.6531C46.1621 75.045 43.9884 74.6124 43.1944 74.3553C42.7323 74.2057 42.3469 74.0037 42.038 73.7493L42.8498 74.2169C41.4293 73.6846 40.4119 73.2474 39.7975 72.9055C39.7547 72.8816 39.7125 72.8567 39.6711 72.8307C39.118 72.4844 38.6692 72.1483 38.3246 71.8226L38.3247 71.8227C37.7092 71.241 37.3312 70.606 37.1906 69.9177L37.5513 70.8031C37.1402 70.1619 37.0282 69.4777 37.2151 68.7507L37.216 68.7473C37.6393 67.1103 38.7891 66.4424 40.6653 66.7435C40.8562 66.7742 41.0919 66.8224 41.3727 66.8882C41.4448 66.9051 41.5163 66.9247 41.5868 66.947C42.9701 67.3841 44.0444 67.685 44.8097 67.8497C44.816 67.851 44.8223 67.8524 44.8285 67.8538C45.088 67.9114 45.4782 67.9657 45.9989 68.0167C46.0235 68.0191 46.0482 68.0218 46.0728 68.0249C47.8922 68.2495 49.6748 68.2153 51.4204 67.9224C52.953 67.6652 54.4144 68.6396 54.6846 70.0988C54.9547 71.5579 53.9312 72.9493 52.3986 73.2065Z" fill="black"/>
<path d="M62.3239 84.8472C62.2098 84.9331 62.0962 85.0093 61.983 85.0758V85.0759C61.9817 85.0709 61.9804 85.0658 61.979 85.0609L61.9764 85.0611C62.0952 84.9986 62.2105 84.9274 62.3213 84.8472L62.3239 84.8472ZM60.9333 79.7308C60.2521 79.7486 59.5376 80.0612 58.7897 80.6686C57.908 81.3846 57.6046 82.5062 57.9241 83.4978L57.9215 83.498C57.2049 83.8223 56.7218 84.4764 56.4724 85.4603L56.4738 85.4604L55.0435 90.285L55.0409 90.2852C53.9669 91.2425 52.816 92.9388 51.5884 95.3742L51.5862 95.3744C51.0778 96.3087 50.5243 97.7272 49.9256 99.63C49.904 99.6986 49.8853 99.7681 49.8695 99.8382C49.8005 100.145 49.7402 100.438 49.6886 100.715L49.6861 100.715C49.2781 101.694 48.8613 102.798 48.4357 104.029C48.3971 104.141 48.3662 104.255 48.3433 104.37C48.2077 105.054 48.1357 105.613 48.1271 106.049C48.1006 107.393 48.5415 108.322 49.4498 108.835L49.4473 108.835C49.8808 109.681 50.4799 110.489 51.2446 111.258C51.3047 111.319 51.3677 111.377 51.4335 111.432C51.5364 111.517 51.6393 111.598 51.7423 111.673V111.673C52.655 112.34 53.5178 112.662 54.3307 112.641C55.1744 112.619 55.9644 112.226 56.7007 111.464C57.7537 110.373 57.6784 108.675 56.5325 107.673C56.0432 107.245 55.4377 107.013 54.8226 106.972L54.82 106.972C54.7227 106.84 54.6377 106.708 54.565 106.578L54.5625 106.578C54.7444 106.239 54.9084 105.91 55.0543 105.59L55.0517 105.59C55.2238 105.467 55.3921 105.329 55.5564 105.175C56.5095 104.281 57.5906 102.505 58.7998 99.8447C58.8353 99.7666 58.8669 99.6868 58.8944 99.6059C59.2521 98.555 59.4578 97.7108 59.5116 97.0734V97.0734C59.5237 96.9297 59.5303 96.7902 59.5312 96.6549L59.5286 96.6551C59.5694 96.489 59.6084 96.3249 59.6454 96.1631L59.6429 96.1633C59.8252 96.0132 59.9901 95.8387 60.1316 95.6406C60.207 95.5352 60.2768 95.4211 60.3412 95.2982L60.3393 95.2984C61.8196 92.3811 62.6994 90.3502 62.9785 89.2059L62.9759 89.2061C63.4674 87.4651 63.7901 85.696 63.944 83.8989L63.9438 83.899C63.9749 83.5847 63.9874 83.3006 63.9811 83.0467V83.0469C63.9593 82.1677 63.6959 81.4463 63.1909 80.8826C62.4842 80.0938 61.7316 79.7099 60.9333 79.7308Z" fill="black"/>
<path d="M71.8786 85.6167C71.6247 85.6234 71.3616 85.6522 71.0892 85.7032C70.2277 85.8647 69.0797 86.3057 67.645 87.0263C66.2685 87.7177 65.7414 89.3405 66.4676 90.651C66.563 90.8231 66.6753 90.9813 66.8015 91.1247L66.7988 91.1249C66.38 91.5457 66.0497 91.9467 65.8081 92.3282C65.5693 92.7052 65.3947 93.0799 65.2844 93.4524V93.4525C65.099 93.4256 64.9035 93.4149 64.6976 93.4203C64.3834 93.4285 64.0453 93.4742 63.6833 93.5574C63.2575 93.6552 62.8304 93.8343 62.4017 94.0945L62.4017 94.0946C62.2406 94.1924 62.0755 94.3036 61.9065 94.4284L61.9039 94.4286C61.1417 94.953 60.2223 95.6173 59.1457 96.4212V96.4213C59.6373 95.4285 59.454 94.2076 58.5941 93.3846C58.0236 92.8386 57.2677 92.5752 56.5183 92.5948C55.8258 92.613 55.1389 92.8728 54.609 93.3746C53.0016 94.8969 52.073 97.5892 51.8232 101.452C51.8155 101.57 51.8161 101.69 51.8251 101.808C52.026 104.475 52.8538 106.733 54.3083 108.58C54.3152 108.589 54.3223 108.598 54.3294 108.607C55.0124 109.453 55.7758 109.864 56.6197 109.842C57.2901 109.825 58.0112 109.533 58.7832 108.968L58.7833 108.968C58.8175 108.943 58.8517 108.917 58.8862 108.891L58.8863 108.891C58.9659 108.83 59.0501 108.76 59.1389 108.683L59.1415 108.683C59.2714 108.696 59.4009 108.701 59.5301 108.698C60.0389 108.685 60.5423 108.541 61.0405 108.267C61.0721 108.25 61.1033 108.232 61.1343 108.213C61.256 108.14 61.3771 108.06 61.4975 107.974L61.4976 107.974C62.7291 107.088 64.1943 105.123 65.8931 102.077C65.8971 102.07 65.9014 102.062 65.9054 102.055C66.393 101.16 66.7811 100.256 67.0698 99.3407L67.0672 99.3409C67.8066 98.9131 68.5656 98.4527 69.3442 97.9595C69.3571 97.9513 69.3701 97.9429 69.3829 97.9345C72.196 96.0877 74.1455 94.3086 75.2314 92.5973C75.2726 92.5322 75.311 92.4655 75.3464 92.3973C75.4648 92.1688 75.5631 91.9546 75.6413 91.7546C76.1616 90.4239 76.0633 89.3714 75.3464 88.597L75.3436 88.5972C75.3911 86.8847 74.4456 85.9017 72.5072 85.6481V85.6482C72.3044 85.6216 72.0948 85.6111 71.8786 85.6167Z" fill="black"/>
<path d="M44.2671 68.8871L44.2671 68.8872C43.7965 70.3716 44.2527 71.3125 45.6355 71.7099L45.6354 71.7099C45.6404 71.7113 45.6442 71.7124 45.6468 71.713L45.6468 71.713C45.6145 71.7051 45.5601 71.6962 45.4835 71.6863C45.457 71.6829 45.4307 71.6792 45.4044 71.675C44.6847 71.5625 43.1829 71.3994 40.8991 71.1857L40.9792 71.1921C39.9393 71.1232 39.3166 71.089 39.1113 71.0893C40.1111 71.0876 40.8793 70.643 41.4157 69.7556C40.9744 70.4857 40.1986 70.9761 39.3206 71.0799C39.3002 71.0823 39.2853 71.0844 39.276 71.086C40.5839 70.8497 41.1416 69.9926 40.9488 68.5148L40.9488 68.5145C40.896 68.1107 40.7519 67.7574 40.5164 67.4548L40.0474 66.9839C40.397 67.259 40.7298 67.4291 41.0457 67.4942C41.1254 67.5106 41.2043 67.5303 41.2823 67.5533C41.4673 67.6078 41.721 67.6073 42.0435 67.5519L41.6854 67.6368C41.8613 67.5833 41.9817 67.5412 42.0468 67.5105C40.9501 68.0266 40.6226 68.9422 41.0645 70.2572L41.0644 70.2569C41.1884 70.6262 41.389 70.9445 41.6661 71.2116L41.8436 71.3686C41.4448 71.0451 40.8358 70.7473 40.0165 70.4752L40.1398 70.5132C39.501 70.3319 39.0638 70.2495 38.8284 70.2659C38.8391 70.2652 38.8542 70.263 38.8738 70.2595C38.8615 70.2617 38.8492 70.2639 38.8368 70.2659C39.0141 70.2365 39.1899 70.1326 39.3642 69.9542L39.4442 69.8688C39.4423 69.8709 39.4409 69.8725 39.4401 69.8735L39.4403 69.8732C39.6151 69.6627 39.6798 69.3644 39.6345 68.9782L39.6277 68.9254C39.5654 68.4756 39.4112 68.1463 39.1653 67.9375C39.1702 67.9417 39.1784 67.948 39.1897 67.9564L39.0717 67.8738C39.5872 68.2154 39.8985 68.4184 40.0057 68.4828L40.0059 68.4829C39.6418 68.2643 39.222 68.1414 38.7465 68.1143C39.2958 68.1457 39.8234 68.3295 40.2642 68.643L40.2643 68.6431C40.0095 68.4619 39.7666 68.3416 39.5357 68.2825L39.5356 68.2824C39.5403 68.2837 39.548 68.2855 39.5586 68.2879C41.0726 68.6311 42.0076 70.0777 41.6471 71.5191C41.2867 72.9604 39.7672 73.8507 38.2532 73.5075C38.1896 73.4931 38.1289 73.4784 38.0712 73.4637L38.0711 73.4637C37.6066 73.3447 37.2133 73.1706 36.8911 72.9414L38.4089 73.4702C37.9216 73.4423 37.4521 73.2928 37.0004 73.0217L37.0006 73.0218C36.8207 72.9139 36.4377 72.6657 35.8517 72.2773C35.8117 72.2507 35.7723 72.2232 35.7338 72.1947C35.6216 72.1118 35.5153 72.0277 35.4149 71.9425C34.6188 71.2668 34.1607 70.4951 34.0404 69.6273C34.038 69.6097 34.0357 69.5921 34.0337 69.5746C33.9073 68.4988 34.2358 67.4891 35.0193 66.5456L35.0196 66.5453C35.0644 66.4914 35.1106 66.4379 35.1581 66.3849C35.1842 66.3558 35.2108 66.3274 35.2381 66.2995C35.9244 65.5971 36.8013 65.1574 37.8687 64.9802L37.8317 64.9865C38.0206 64.9527 38.2156 64.9288 38.4167 64.9147C39.3394 64.8504 40.4503 65.0025 41.7496 65.3712C41.791 65.3829 41.832 65.3956 41.8728 65.4091C43.356 65.9017 44.5646 66.5268 45.4986 67.2845C45.56 67.3343 45.6193 67.3867 45.6761 67.4415C46.0305 67.7832 46.2826 68.177 46.4324 68.6228L46.4323 68.6225C46.9757 70.2398 46.3463 71.4725 44.544 72.3206C44.2267 72.4699 43.8462 72.6121 43.4024 72.7473C43.2851 72.783 43.1655 72.8113 43.0443 72.8322C41.82 73.0425 40.6775 72.9915 39.6169 72.6792L39.8535 72.7383C38.6436 72.489 37.5114 71.9494 36.4569 71.1196C36.2812 70.9813 36.1237 70.8232 35.988 70.6487C35.6358 70.1961 35.4252 69.7053 35.3561 69.1763L35.356 69.176C35.1145 67.3244 36.0709 66.2039 38.225 65.8146C38.3525 65.7916 38.4861 65.7718 38.6259 65.7553L36.5309 67.0796C37.076 66.1777 37.9327 65.7258 39.1012 65.7238C39.4404 65.7232 40.1968 65.7618 41.3702 65.8395C41.397 65.8412 41.4237 65.8434 41.4504 65.8459C43.8553 66.0709 45.4778 66.2491 46.3176 66.3804L46.2385 66.3692C46.5361 66.4075 46.809 66.4571 47.0571 66.5182C47.1277 66.5356 47.1967 66.5539 47.2641 66.5733L47.264 66.5733C49.478 67.2095 50.2774 68.4976 49.6624 70.4375C49.2127 71.856 47.6404 72.6588 46.1505 72.2306C44.6606 71.8025 43.8174 70.3056 44.2671 68.8871Z" fill="black"/>
<path d="M97.9853 104.873L97.9853 104.873C98.1454 104.938 98.3089 105.022 98.4758 105.124V105.125C98.3639 105.055 98.247 104.994 98.1259 104.941C98.0809 104.921 98.033 104.898 97.9823 104.873L97.9853 104.873ZM90.0418 69.0323C90.0375 69.0324 90.0332 69.0325 90.0288 69.0326C89.5376 69.0477 89.0842 69.1021 88.6687 69.1959C87.8268 69.3859 87.127 69.736 86.5696 70.2462L86.5691 70.2463C86.1398 70.6323 85.7906 71.106 85.5214 71.6676V71.6677C85.283 72.1648 85.1059 72.7425 84.9899 73.4007L84.987 73.401C84.9167 73.4353 84.8462 73.4721 84.7755 73.5112L84.7753 73.5113C84.6521 73.5795 84.5334 73.6552 84.4191 73.7384C83.4258 74.4619 83.0523 75.7221 83.5017 76.8332C84.3317 78.8856 84.9706 80.2429 85.4182 80.9054L85.4182 80.9054C86.001 81.7678 86.679 82.2722 87.4521 82.4186L87.4492 82.4188C88.0761 83.5857 88.7439 84.8012 89.4528 86.0654C89.4943 86.1395 89.5395 86.2117 89.5882 86.2817L89.696 86.4369V86.4371C89.4675 86.3883 89.2357 86.3676 89.0059 86.3736C88.2655 86.393 87.5451 86.69 87.019 87.2286C86.5545 87.7042 86.2983 88.3099 86.2677 88.9301V88.9302C85.9485 88.3363 85.3977 87.8542 84.6835 87.6182C84.352 87.5086 84.0136 87.4614 83.6824 87.4701C83.0478 87.4867 82.4397 87.7085 81.9574 88.0896V88.0897C81.8832 88.0871 81.8102 88.0868 81.7382 88.0887C80.6984 88.1159 79.8845 88.5993 79.2966 89.5389L79.2965 89.539C78.7398 90.4286 78.709 91.4316 79.204 92.5479L79.204 92.5479C79.5677 93.3683 80.3931 94.5473 81.6802 96.085C81.7121 96.1232 81.7452 96.1605 81.7793 96.197C82.2229 96.6714 82.6466 97.1263 83.0504 97.5618L83.0476 97.562C83.7314 98.4951 85.3394 100.312 87.8717 103.012L87.8688 103.013C88.4433 103.741 88.9339 104.399 89.3404 104.986C89.6876 105.487 90.1842 105.844 90.74 106.034L90.7371 106.034C91.1208 106.435 91.5181 106.849 91.9292 107.276L91.9292 107.276C92.026 107.376 92.1308 107.47 92.2425 107.555C93.6113 108.601 94.7303 109.329 95.5992 109.737L95.5962 109.738C96.3238 110.155 97.0009 110.356 97.6274 110.34C98.5587 110.315 99.3784 109.811 100.086 108.827C100.303 108.526 100.453 108.186 100.527 107.829C100.569 107.622 100.598 107.409 100.614 107.19L100.614 107.19C100.689 106.118 100.418 104.862 99.8015 103.422L99.8045 103.422C99.8263 103.422 99.8481 103.422 99.8697 103.421C100.708 103.399 101.431 102.92 102.037 101.984V101.985C102.434 101.372 102.563 100.649 102.424 99.8152V99.8154C102.408 99.7221 102.389 99.6236 102.366 99.52C102.356 99.4727 102.344 99.4257 102.331 99.3789L100.71 93.5595C100.703 93.5369 100.697 93.5144 100.69 93.4919C100.392 92.5261 99.7618 91.3014 98.7993 89.8178C98.7841 89.7943 98.7684 89.7709 98.7523 89.7478L94.3778 83.4499L94.3748 83.4501C92.9306 80.8721 91.665 78.5081 90.5779 76.3581L90.5749 76.3583C90.4753 75.7955 90.4325 75.3887 90.4466 75.1379L90.4438 75.1381C90.4624 75.0402 90.4753 74.9416 90.4825 74.8424C90.4942 74.6797 90.5084 74.5355 90.5252 74.4098L90.5281 74.4099C93.1325 74.4881 94.972 74.6009 96.0467 74.7484C96.2093 74.7707 96.3707 74.7793 96.5295 74.7752C97.8752 74.74 99.0392 73.7875 99.2378 72.4759C99.4598 71.0094 98.3911 69.6492 96.8508 69.4378C95.497 69.252 93.2803 69.1168 90.2004 69.0324C90.1476 69.0309 90.0947 69.0309 90.0418 69.0323Z" fill="black"/>
<path d="M88.0016 62.3215C88.9794 61.7317 90.0478 61.6209 91.2069 61.9891C91.3797 62.044 91.5465 62.1147 91.7049 62.2002C92.8058 62.7944 94.7016 63.3381 97.3922 63.8311L97.2009 63.8025L97.202 63.8026L97.2048 63.8029C98.7775 63.9871 99.6716 64.0874 99.8872 64.1037C98.1464 63.9723 97.1644 64.753 96.9412 66.4458L96.9502 66.3831C96.8283 67.1592 97.026 67.8526 97.5433 68.4634C96.8614 67.6582 96.7264 66.5515 97.1964 65.6189C97.6664 64.6864 98.6577 64.0941 99.7442 64.0968C102.108 64.1026 103.674 64.1535 104.443 64.2496C104.455 64.251 104.467 64.2526 104.479 64.2542L108.886 64.8583L108.719 64.8402L112.445 65.1364C112.609 65.1494 112.771 65.176 112.93 65.216C114.542 65.6209 115.801 66.1753 116.708 66.879C116.73 66.8959 116.752 66.9134 116.773 66.931C117.958 67.9076 118.784 68.7991 119.251 69.6055L119.251 69.6056C120.168 71.1876 120.069 72.5911 118.955 73.816L118.955 73.8159C118.457 74.3628 117.793 74.7581 116.961 75.0021L116.963 75.0014C116.956 75.0033 116.949 75.0054 116.942 75.0076C116.935 75.0094 116.93 75.0111 116.923 75.0128C116.196 75.2185 115.464 75.2917 114.727 75.2326L114.723 75.2322C112.19 75.0245 110.728 74.9217 110.338 74.924C110.532 74.9229 110.747 74.8884 110.985 74.8205C110.731 74.8931 110.467 74.9312 110.202 74.9337L102.34 75.0077L102.602 74.9937C101.931 75.0596 101.503 75.1134 101.32 75.1548L101.32 75.1548C102.734 74.8359 103.358 73.9149 103.193 72.3916L103.193 72.3922C103.054 71.1096 102.393 70.3594 101.21 70.1418C101.26 70.151 101.353 70.1626 101.488 70.1763C103.035 70.3344 104.155 71.6567 103.989 73.1299C103.823 74.6031 102.434 75.6693 100.886 75.5112C100.594 75.4814 100.346 75.4476 100.141 75.4099C98.5855 75.1237 97.7343 74.3015 97.587 72.9432L97.5871 72.9438C97.413 71.3421 98.2243 70.3388 100.021 69.9337L100.021 69.9337C100.442 69.8388 101.109 69.7464 102.023 69.6565C102.11 69.648 102.197 69.6433 102.284 69.6425L110.146 69.5685L109.364 69.6817C109.644 69.6017 109.957 69.5606 110.304 69.5586C110.867 69.5553 112.501 69.6646 115.206 69.8865L115.201 69.8861C115.232 69.8885 115.271 69.8829 115.319 69.8693L115.301 69.8745C115.3 69.8747 115.3 69.8749 115.3 69.8749L115.302 69.8742C115.105 69.932 114.902 70.0751 114.694 70.3034L114.694 70.3033C114.093 70.964 113.967 71.5953 114.316 72.1974L114.316 72.1974C114.173 71.9495 113.762 71.546 113.084 70.9869L113.149 71.039C112.871 70.8232 112.318 70.6115 111.492 70.4037L111.977 70.4833L108.25 70.1871C108.194 70.1827 108.138 70.1766 108.083 70.169L103.676 69.565L103.711 69.5696C103.18 69.5033 101.853 69.4675 99.7297 69.4623L101.931 65.0957C102.448 65.7068 102.646 66.4005 102.524 67.1768L102.533 67.1142C102.309 68.8117 101.279 69.5911 99.4418 69.4524C99.145 69.43 98.1699 69.322 96.5166 69.1283L96.5194 69.1286L96.5183 69.1285C96.4524 69.1208 96.3895 69.1114 96.3271 69.0999C93.0304 68.4958 90.5631 67.7518 88.9254 66.8677L89.4234 67.0789C89.9568 67.2483 90.4882 67.1733 91.0176 66.854C89.703 67.6469 87.9621 67.2751 87.1292 66.0234C86.2964 64.7718 86.687 63.1144 88.0016 62.3215Z" fill="black"/>
</svg>
