<svg width="94" height="92" viewBox="0 0 94 92" fill="none" xmlns="http://www.w3.org/2000/svg">
<rect x="1" width="91.9997" height="91.9997" rx="45.9998" fill="#FFE485"/>
<path d="M39.9477 47.0591C40.1894 54.8557 32.2221 61.0312 22.7133 61.3074C13.2045 61.5837 4.86909 55.8818 4.62743 48.0853C4.38576 40.2888 12.353 34.1133 21.8617 33.837C31.3705 33.5607 39.706 39.2626 39.9477 47.0591ZM37.8336 47.1205C37.6401 40.8758 30.7557 35.627 21.9252 35.8836C13.0947 36.1402 6.54789 41.7792 6.74147 48.0239C6.93501 54.2685 13.8193 59.5174 22.6498 59.2608C31.4804 59.0043 38.0272 53.3652 37.8336 47.1205Z" fill="#05276C"/>
<path d="M20.0353 36.2161C17.8909 39.6439 16.3441 45.5589 16.6271 48.1405C17.1271 52.7018 18.6509 56.7143 20.5756 59.3466C20.913 59.808 20.8001 60.4469 20.3235 60.7735C19.8468 61.1001 19.1869 60.9908 18.8496 60.5294C16.6745 57.5547 15.054 53.1898 14.5242 48.3565C14.1797 45.2136 15.9135 38.8527 18.2266 35.1556C18.5291 34.672 19.1792 34.5175 19.6787 34.8103C20.1782 35.1032 20.3379 35.7326 20.0353 36.2161Z" fill="#05276C"/>
<path d="M25.1164 59.0124C26.6445 57.8206 28.9946 51.7709 28.5636 46.5461C28.1395 41.4063 27.0135 39.4185 24.3779 36.0416C24.0258 35.5906 24.1181 34.9487 24.5841 34.6079C25.05 34.267 25.713 34.3564 26.0651 34.8075C28.8931 38.4309 30.2094 40.7813 30.6716 46.3831C31.1267 51.8998 28.7651 58.7956 26.4431 60.6066C25.9884 60.9613 25.3227 60.8919 24.9564 60.4517C24.59 60.0114 24.6617 59.367 25.1164 59.0124Z" fill="#05276C"/>
<path d="M5.94188 44.6025L5.94495 44.6027C5.70602 44.5856 5.42001 44.681 5.60154 44.6329L5.60193 44.6328C5.63416 44.6243 5.76612 44.5868 5.98869 44.5236C6.71671 44.3165 8.35397 43.8498 8.88353 43.7448C12.0282 43.1208 19.2122 42.5925 23.4198 42.4597C26.4113 42.3654 36.7461 42.8877 38.4605 43.625L38.4604 43.625C38.5407 43.6595 38.6414 43.7085 38.7423 43.7768C39.221 44.1006 39.3378 44.7387 39.0033 45.2021C38.6688 45.6655 38.0096 45.7787 37.531 45.4548C37.5773 45.4862 37.6072 45.4981 37.6021 45.496L37.602 45.4959C36.4182 44.9868 26.6183 44.4071 23.4886 44.5059C19.2956 44.6382 12.2647 45.1636 9.30811 45.7503C8.8915 45.8329 7.38032 46.2615 6.58464 46.4878C6.38023 46.5459 6.21672 46.5925 6.15897 46.6077L6.15935 46.6076C6.32428 46.564 6.02934 46.6616 5.78896 46.6444C5.20956 46.6045 4.7709 46.1149 4.81227 45.551C4.85365 44.9871 5.35939 44.5624 5.94188 44.6025Z" fill="#05276C"/>
<path d="M7.16529 49.8083L7.16541 49.8083C7.15061 49.8 7.14271 49.7965 7.14311 49.7967L7.14327 49.7968C8.23876 50.2883 17.1363 51.055 24.285 51.1077C31.3416 51.1597 35.2338 50.1315 37.669 49.0243C38.1976 48.784 38.8273 49.004 39.0756 49.5157C39.3238 50.0274 39.0965 50.6371 38.568 50.8774C35.7693 52.1498 31.5433 53.2085 24.2689 53.1548C17.3419 53.1038 7.86826 52.3785 6.25394 51.6541L6.2541 51.6542C6.20578 51.6325 6.15314 51.6067 6.10001 51.5767C5.59567 51.2921 5.42516 50.6653 5.71929 50.177C6.01342 49.6886 6.66081 49.5235 7.16529 49.8083Z" fill="#05276C"/>
<path d="M66.4393 38.2025C66.3933 38.9979 66.386 40.7039 66.3969 40.924C66.3975 40.9367 66.3979 40.9493 66.3981 40.9621L66.503 50.4603L66.5024 50.435L66.6859 55.4242L66.6078 55.0745C67.2075 56.4876 67.547 56.7956 67.6196 56.8573L67.6196 56.8573C68.837 57.8915 72.4994 59.0876 76.3022 58.8088C80.032 58.5353 81.9917 57.3108 83.2292 56.2239C83.6582 55.8471 84.3215 55.8783 84.7107 56.2936C85.0999 56.7089 85.0677 57.3511 84.6387 57.7279C83.0794 59.0975 80.6866 60.5238 76.4606 60.8337C72.3075 61.1383 68.014 59.8942 66.236 58.3837C65.8058 58.0182 65.3152 57.3724 64.6675 55.8462C64.6203 55.735 64.5939 55.6166 64.5894 55.4965L64.406 50.5073C64.4057 50.4988 64.4054 50.4904 64.4054 50.482L64.3005 40.9838L64.3016 41.0218C64.2863 40.7135 64.2959 38.9346 64.3449 38.089C64.3772 37.5291 64.8723 37.1006 65.4507 37.132C66.029 37.1633 66.4717 37.6426 66.4393 38.2025Z" fill="#05276C"/>
<path d="M82.8679 56.7006C82.7866 52.451 82.7173 50.7569 82.718 50.7714L83.7656 50.7232L82.7169 50.7386C82.7138 50.5428 82.7037 50.1739 82.6889 49.6411L82.6889 49.6411C82.6508 48.2674 82.5826 45.8094 82.5271 42.2648C82.5171 41.6245 82.5073 40.938 82.4984 40.226V40.2259C82.4969 40.1072 82.4995 39.9824 82.5018 39.8701C82.5046 39.7355 82.5071 39.6073 82.5054 39.4761C82.4972 38.8251 82.3871 38.2531 81.8316 37.7826C80.2491 36.4421 77.37 36.1226 73.9295 36.3886C71.3985 36.5842 68.6219 37.179 67.6716 37.5395C67.2875 37.6853 66.7245 37.9313 66.4612 38.2173L66.4621 38.2164L66.4623 38.2162L66.4612 38.2173C66.4334 38.2483 66.3911 38.3553 66.3877 38.4179L66.3877 38.418C66.3862 38.4462 66.3982 38.3606 66.3484 38.2233L66.3483 38.223C66.5223 38.7017 66.8073 38.8877 67.5001 39.1787C69.6094 40.0648 72.3382 40.3441 73.5668 40.4433C75.3956 40.591 78.5812 40.1395 80.7156 39.308C81.8736 38.8569 81.901 38.703 82.1022 37.9328C82.2442 37.3892 82.8146 37.0599 83.3761 37.1974C83.9377 37.3348 84.2779 37.887 84.1359 38.4307C83.7606 39.8673 83.2401 40.5136 81.4987 41.192C79.0815 42.1336 75.5688 42.6428 73.3924 42.4671C72.1624 42.3677 69.1223 42.0738 66.6651 41.0417C65.8694 40.7074 64.852 40.2246 64.3695 38.897L64.3694 38.8968C64.2866 38.669 64.2855 38.447 64.2929 38.3112L64.2929 38.3113C64.3146 37.9109 64.4736 37.336 64.8773 36.8859L64.8763 36.887C64.8827 36.8799 64.8877 36.8744 64.8941 36.8673L64.895 36.8664C65.5405 36.165 66.5811 35.7721 66.9061 35.6488C68.1182 35.189 71.1179 34.5687 73.7626 34.3642C77.2078 34.098 80.9146 34.3075 83.2129 36.2542C84.4397 37.2934 84.5921 38.591 84.6029 39.4513C84.6051 39.6216 84.6018 39.7771 84.5991 39.9101C84.5966 40.0292 84.5949 40.1224 84.5959 40.2014L84.5959 40.2013C84.6048 40.9141 84.6145 41.5928 84.6246 42.234C84.6799 45.7669 84.7478 48.2158 84.7858 49.5866C84.8004 50.1111 84.8111 50.4976 84.8144 50.7079L83.7656 50.7232L84.8133 50.6751C84.8141 50.6921 84.8839 52.4097 84.9652 56.663C84.976 57.2237 84.5152 57.6866 83.936 57.697C83.3568 57.7074 82.8786 57.2613 82.8679 56.7006Z" fill="#05276C"/>
<path d="M66.4592 44.4458C67.4407 45.2627 68.6437 45.9859 70.646 46.563C71.741 46.8787 72.8861 47.0762 75.0871 47.063C76.0238 47.0573 76.8073 46.8407 78.5204 46.3499L78.5204 46.3499C78.6012 46.3267 78.7453 46.2854 78.832 46.2606C79.1613 46.1665 81.0596 45.0755 81.1566 45.0191L81.0218 45.1122C81.9507 44.3571 83.0337 43.6332 83.037 43.631C83.5136 43.3122 84.1668 43.4279 84.4961 43.8892C84.8254 44.3506 84.7059 44.983 84.2294 45.3018C84.2321 45.2999 83.2186 45.9783 82.3707 46.6674C82.3284 46.7018 82.2833 46.733 82.2359 46.7605C82.3329 46.7041 80.0906 48.0183 79.4262 48.2083L79.4262 48.2083C79.329 48.2361 79.2077 48.2708 79.1158 48.2971L79.1158 48.2971C77.4743 48.7675 76.3908 49.0859 75.1001 49.0937C72.7315 49.108 71.3753 48.8921 70.0473 48.5094C67.7656 47.8516 66.2997 46.9912 65.0917 45.9858C64.6524 45.6202 64.6025 44.9791 64.9801 44.5539C65.3577 44.1286 66.0199 44.0803 66.4592 44.4458Z" fill="#05276C"/>
<path d="M67.0343 51.4255L67.0342 51.4254C66.9558 51.2929 66.8713 51.2365 66.894 51.254C67.2709 51.5444 69.2132 52.2408 69.5202 52.3323L69.5196 52.3321C69.5203 52.3323 69.5196 52.3321 69.5146 52.3307L69.5162 52.3311C69.5908 52.3523 69.6791 52.3779 69.7664 52.4033C69.8779 52.4357 69.9975 52.4705 70.1293 52.5079H70.1294C71.0721 52.7753 72.512 53.1389 74.0114 53.1698C76.5561 53.2224 79.2989 52.6671 79.7952 52.5039C80.6431 52.2251 82.1437 50.9613 82.7985 50.39C83.2289 50.0146 83.8921 50.048 84.2799 50.4646C84.6676 50.8812 84.6331 51.5232 84.2028 51.8986C83.6859 52.3496 81.8236 53.9817 80.4698 54.4268C79.7258 54.6714 76.738 55.2574 73.9667 55.2001C72.1808 55.1633 70.5237 54.7359 69.5395 54.4567C69.4 54.4171 69.2743 54.3806 69.1632 54.3483C69.0739 54.3224 68.993 54.2989 68.9263 54.28L68.9279 54.2804C68.9198 54.2781 68.9077 54.2746 68.9038 54.2734L68.9032 54.2732C68.6986 54.2123 66.3354 53.4191 65.5877 52.843L65.5877 52.843C65.4993 52.7748 65.335 52.6391 65.2142 52.4351C64.9262 51.9484 65.1002 51.328 65.6028 51.0492C66.1055 50.7704 66.7464 50.9389 67.0343 51.4255Z" fill="#05276C"/>
<path d="M39.6646 46.2351L39.664 46.2352C39.7465 46.2186 39.8237 46.2137 39.8304 46.2132L39.8301 46.2132C40.6058 46.1541 51.9727 46.0014 53.893 46.0286C64.6845 46.1815 65.7132 46.3788 65.855 46.4103L65.6142 47.4254L65.3734 48.4405C65.515 48.472 64.7923 48.2663 53.8615 48.1114C51.9453 48.0842 40.6661 48.239 39.9989 48.2898L39.9986 48.2898C39.9739 48.2917 40.03 48.289 40.1014 48.2747C39.519 48.3914 38.9496 48.0293 38.8292 47.4661C38.7087 46.9028 39.0828 46.3517 39.6646 46.2351Z" fill="#05276C"/>
<path d="M51.6263 39.1597L51.6263 39.1598C51.6454 39.2349 51.652 39.3044 51.6548 39.3551L51.6548 39.3551C51.687 39.9413 51.2618 41.748 50.9233 43.0495L50.9234 43.049C50.9217 43.0556 50.9209 43.0586 50.9189 43.066L50.9188 43.0662C50.7888 43.54 50.1805 44.6228 49.009 45.6385C47.7925 46.6932 45.4891 47.5868 45.5142 47.577L45.6686 46.399C47.0315 47.3747 47.8226 48.0548 48.4036 48.5545C48.5444 48.6756 48.6702 48.7838 48.7876 48.882L48.7881 48.8824C48.7932 48.8867 48.7968 48.8897 48.8008 48.8932L48.7999 48.8925C49.0058 49.0691 49.6515 49.7735 49.6221 49.742L49.1013 50.1989L49.6307 49.7513C50.3747 50.5761 50.5392 50.9709 51.1833 52.4821L51.1833 52.4821C51.2411 52.6178 51.2985 52.7524 51.3648 52.9073C51.4812 53.1794 51.5838 53.4336 51.6803 53.6729C51.7719 53.8998 51.8599 54.1179 51.9522 54.3337C52.0649 54.5969 52.1855 54.861 52.331 55.1453L51.0225 55.2707C51.6427 53.0388 52.9926 50.4372 53.8098 49.3643C54.6684 48.2371 56.0381 47.4261 57.3262 46.68L57.2746 47.8149C57.193 47.7576 56.998 47.6702 56.6007 47.5012C55.9925 47.2424 55.1016 46.8654 54.2531 46.27C53.8465 45.9847 53.4436 45.6455 53.0799 45.2387C51.4384 43.4027 50.5234 40.353 50.3295 39.7144L50.3295 39.7144C50.3102 39.6507 50.3014 39.622 50.2979 39.6116L50.2979 39.6114C50.287 39.5789 50.3053 39.6426 50.3412 39.7072C50.1573 39.3763 50.2854 38.9637 50.6273 38.7857C50.9692 38.6077 51.3954 38.7317 51.5793 39.0627C51.6176 39.1318 51.6402 39.207 51.6354 39.1926L51.6353 39.1925C51.6465 39.2258 51.6624 39.2784 51.6782 39.3307L51.6782 39.3306C51.8881 40.0217 52.7344 42.7728 54.1428 44.3481C54.4236 44.6621 54.7424 44.9326 55.0781 45.1682C55.7897 45.6675 56.5509 45.9935 57.1663 46.2553C57.4884 46.3924 57.8641 46.5478 58.0996 46.713C58.2908 46.8472 58.3996 47.0654 58.3893 47.2939C58.3789 47.5223 58.2507 47.7305 58.048 47.8479C56.7111 48.6222 55.6033 49.3027 54.9413 50.1719C54.238 51.0953 52.9593 53.5394 52.38 55.6242C52.3041 55.8975 52.0614 56.0967 51.7705 56.1246C51.4797 56.1525 51.2013 56.0032 51.0715 55.7497C50.9089 55.432 50.775 55.1385 50.6535 54.8544C50.5546 54.6232 50.462 54.3936 50.371 54.1681C50.2735 53.9267 50.1765 53.6863 50.066 53.428C49.997 53.2667 49.944 53.1423 49.8839 53.0012V53.0012C49.2406 51.492 49.149 51.2862 48.5719 50.6465L49.1013 50.1989L48.5805 50.6559C48.5497 50.623 47.9967 50.0218 47.8675 49.9108L47.8666 49.9101C47.8655 49.9092 47.8674 49.9108 47.8677 49.911L47.8682 49.9115C47.7422 49.806 47.6093 49.6917 47.47 49.5719C46.9017 49.0832 46.1469 48.4339 44.8328 47.4932C44.6283 47.3468 44.5214 47.1048 44.5535 46.8604C44.5855 46.6161 44.7514 46.4076 44.9873 46.3153C45.0123 46.3055 47.0708 45.4921 48.0712 44.6247C49.0974 43.735 49.5184 42.869 49.5602 42.7167L49.5602 42.7169C49.5604 42.7161 49.5596 42.719 49.56 42.7177L49.5601 42.7172C49.9299 41.2955 50.2689 39.7521 50.251 39.4275L50.251 39.4276C50.2508 39.4226 50.2513 39.4458 50.2611 39.4841C50.1685 39.1193 50.3991 38.7508 50.7761 38.6611C51.1531 38.5715 51.5337 38.7947 51.6263 39.1597Z" fill="#05276C"/>
<path d="M49.8163 46.6861L49.8335 46.6956L49.8555 46.7078L49.8541 46.7078L49.8974 47.0509C49.9068 47.1059 49.9226 47.158 49.9447 47.2073C49.7852 47.2923 49.6761 47.4187 49.6173 47.5864C49.5306 47.5011 49.4451 47.4404 49.3608 47.4043L49.1076 47.1701C49.0695 47.1367 49.0305 47.1073 48.9907 47.0819C49.1486 46.9748 49.2748 46.8981 49.3692 46.8519C49.5247 46.7822 49.6738 46.7269 49.8163 46.6861ZM51.1369 47.3272L51.1572 47.336C51.3871 47.4364 51.5743 47.5107 51.7189 47.5588L51.7175 47.5589L51.7999 47.8609C51.6935 47.7607 51.5902 47.6707 51.4899 47.5908C51.4398 47.5509 51.3904 47.5135 51.3418 47.4786L51.2694 47.4282C51.2221 47.3958 51.1745 47.3661 51.1268 47.3388C51.1297 47.335 51.1326 47.3311 51.1355 47.3272L51.1369 47.3272ZM51.0046 41.7804L50.9838 41.7811C50.6446 41.808 50.4311 41.9385 50.3432 42.1727C50.311 42.251 50.2908 42.3408 50.2827 42.4424L50.2806 42.6268L50.4053 43.3359C50.2781 43.3602 50.1645 43.4501 50.0645 43.6058C49.9989 43.6104 49.9103 43.655 49.7988 43.7396C49.7378 43.7938 49.6844 43.8628 49.6386 43.9466L48.2766 45.2356C48.0794 45.4594 47.9694 45.6001 47.9468 45.6577C47.6825 46.115 47.5563 46.5581 47.5681 46.987C47.5675 47.161 47.6625 47.3159 47.8532 47.4516C47.8144 47.6907 47.8359 47.8645 47.9176 47.9728L48.0607 48.1452C48.1378 48.2119 48.2277 48.2596 48.3303 48.2883L48.7397 48.6689L49.6994 49.8902C50.1347 50.625 50.5357 51.3824 50.9023 52.1624C50.951 52.2446 51.0147 52.3139 51.0936 52.3701C51.1683 53.178 51.1863 53.6259 51.1478 53.714C51.1429 53.789 51.1795 53.9102 51.2576 54.0776C51.3536 54.2645 51.5686 54.363 51.9025 54.373C52.2434 54.3559 52.4766 54.1649 52.6021 53.7999L52.6477 53.5538C52.7492 52.4675 52.8149 51.6925 52.8449 51.2288C53.2507 51.0992 53.6309 50.8459 53.9855 50.4689L55.5954 48.1153C55.6593 48.0453 55.6971 47.9159 55.7088 47.7272C55.6888 47.3579 55.4557 47.1436 55.0095 47.0843C54.8609 47.0872 54.725 47.1336 54.6018 47.2235L54.0018 47.8018C53.9802 47.726 53.9225 47.6229 53.8289 47.4926C53.8431 47.4361 53.8495 47.3789 53.8483 47.3208C54.1173 47.4276 54.3733 47.3751 54.6165 47.1633C54.8131 46.9413 54.8535 46.6953 54.7375 46.4252C53.6601 44.7417 52.722 43.3923 51.9231 42.3772C51.6202 41.9731 51.314 41.7742 51.0046 41.7804Z" fill="#05276C"/>
<path d="M49.6955 47.2433C49.4796 47.2473 49.2691 47.3496 49.1391 47.536C48.9269 47.8403 49.0097 48.2534 49.324 48.4588C50.1266 48.9833 50.7622 49.5816 51.2309 50.2536C51.3662 50.4476 51.5888 50.5505 51.8138 50.5463C51.9416 50.5439 52.0702 50.507 52.1841 50.4326C52.4984 50.2272 52.5811 49.814 52.369 49.5098C51.8009 48.6953 51.042 47.9777 50.0923 47.357C49.9706 47.2775 49.832 47.2408 49.6955 47.2433Z" fill="#05276C"/>
<path d="M48.2169 46.9406C48.0079 46.9444 47.8175 47.0404 47.6931 47.1919C47.6872 47.1886 47.6813 47.1853 47.6753 47.182C47.5631 47.1193 47.4403 47.0908 47.3196 47.093C47.087 47.0974 46.8623 47.2161 46.7375 47.4255C46.548 47.7435 46.6606 48.15 46.9891 48.3334C47.0632 48.3748 47.1169 48.4062 47.1502 48.4279L47.1488 48.4279C47.8719 49.2469 48.3703 49.7469 48.6443 49.9278L48.6429 49.9279C48.9657 50.173 49.2342 50.3562 49.4483 50.4773C49.4534 50.4802 49.4585 50.483 49.4637 50.4857C49.5553 50.5345 49.6473 50.573 49.7399 50.6012L49.74 50.6012C49.8734 50.6419 50.0062 50.661 50.1382 50.6585C50.1682 50.658 50.1981 50.6563 50.228 50.6535C50.2602 50.6505 50.2922 50.6453 50.3237 50.638C50.4699 50.6038 50.5971 50.5433 50.7053 50.4566C51.0082 50.2137 51.0946 49.8879 50.9646 49.4792C50.8791 49.2107 50.6627 48.8732 50.3154 48.4668C49.5982 47.6175 49.0007 47.1244 48.5228 46.9875L48.5228 46.9874C48.4508 46.9668 48.3795 46.9526 48.3089 46.9448L48.3088 46.9448C48.2779 46.9414 48.2472 46.94 48.2169 46.9406Z" fill="#05276C"/>
</svg>
