<svg width="116" height="116" viewBox="0 0 116 116" fill="none" xmlns="http://www.w3.org/2000/svg">
<path d="M50.4582 58.4643C50.7754 69.0316 40.3924 77.0956 28.4357 77.4545C16.4789 77.8134 5.63094 70.3868 5.31372 59.8195C4.99651 49.2522 15.3795 41.1883 27.3362 40.8294C39.293 40.4704 50.141 47.8971 50.4582 58.4643ZM46.0542 58.5965C45.8372 51.3686 38.012 44.9169 27.4684 45.2334C16.9248 45.5499 9.50075 52.4593 9.71772 59.6873C9.93469 66.9152 17.7599 73.367 28.3035 73.0505C38.8471 72.734 46.2711 65.8245 46.0542 58.5965Z" fill="black"/>
<path d="M25.8965 45.2191C23.3376 49.4441 21.5201 56.743 21.8409 59.7666C22.4416 65.4271 24.2698 70.3564 26.5239 73.5409C27.2269 74.534 26.9917 75.9089 25.9986 76.6118C25.0056 77.3148 23.6307 77.0796 22.9277 76.0865C20.152 72.1651 18.1223 66.4773 17.4595 60.2316C17.0105 56 19.2178 47.7414 22.1279 42.9366C22.7582 41.8959 24.1128 41.5632 25.1535 42.1935C26.1942 42.8238 26.5269 44.1784 25.8965 45.2191Z" fill="black"/>
<path d="M30.7897 72.9352C32.3245 71.6987 35.2029 64.4062 34.6844 57.9135C34.1805 51.604 32.8804 49.2452 29.7291 45.0746C28.9957 44.1039 29.188 42.7224 30.1587 41.9889C31.1295 41.2554 32.511 41.4478 33.2445 42.4185C36.7966 47.1197 38.4931 50.2591 39.0764 57.5628C39.645 64.6834 36.7428 73.7971 33.5539 76.3663C32.6064 77.1296 31.2196 76.9803 30.4563 76.0328C29.693 75.0854 29.8422 73.6985 30.7897 72.9352Z" fill="black"/>
<path d="M7.89574 54.4757L7.89489 54.4756C7.3947 54.4404 6.77953 54.654 7.17451 54.5444L7.17446 54.5444C7.21545 54.533 7.36972 54.4878 7.63454 54.41C8.49855 54.1563 10.5616 53.5479 11.2593 53.4049C15.1981 52.5975 24.0777 51.9268 29.2463 51.7583C32.876 51.64 45.2667 52.2732 47.8472 53.2122C48.0212 53.2755 48.3086 53.391 48.5936 53.5902C49.591 54.287 49.8346 55.6605 49.1377 56.6578C48.4409 57.6552 47.0674 57.8987 46.0701 57.2019C46.2462 57.3249 46.3735 57.3646 46.3405 57.3526C44.6796 56.7482 33.132 56.04 29.3898 56.162C24.2513 56.3294 15.691 56.9941 12.144 57.7211C11.6814 57.8159 9.88131 58.3422 8.8762 58.6374C8.63918 58.7071 8.43501 58.7671 8.35279 58.7899L8.35273 58.7899C8.7188 58.6883 8.08763 58.9061 7.58549 58.8707C6.371 58.7848 5.45679 57.7313 5.5427 56.5176C5.62861 55.304 6.68209 54.3898 7.89574 54.4757Z" fill="black"/>
<path d="M9.78951 61.1939C9.70063 61.1421 9.64517 61.1223 9.65549 61.1263C11.1896 61.7141 21.734 62.6519 30.3444 62.7175C38.9088 62.7828 43.5413 61.4931 46.3734 60.1631C47.4747 59.6459 48.7867 60.1194 49.3039 61.2207C49.8211 62.3219 49.3476 63.634 48.2463 64.1512C44.6568 65.8369 39.3292 67.1921 30.3109 67.1234C21.9838 67.0599 10.5214 66.1765 8.07892 65.2406C7.93783 65.1865 7.75703 65.1091 7.57031 65.0002C6.51923 64.3874 6.16395 63.0386 6.77677 61.9875C7.38959 60.9364 8.73844 60.5811 9.78951 61.1939Z" fill="black"/>
<path d="M82.9705 47.3189C82.9165 48.2838 82.907 50.3768 82.919 50.6759L82.919 50.6754C82.9191 50.6762 82.9189 50.6735 82.9189 50.6732C82.9202 50.7005 82.921 50.7278 82.9213 50.7551L83.05 62.7927L83.0487 62.7378L83.2739 69.0609L83.11 68.3021C83.7812 69.9359 84.1292 70.2409 84.1095 70.2223C84.1095 70.2223 84.109 70.2218 84.1082 70.2211L84.1082 70.2211C85.357 71.3169 89.5749 72.8112 94.0874 72.4694C98.4467 72.1392 100.662 70.6785 102.04 69.4285C102.941 68.6109 104.334 68.6787 105.151 69.5797C105.969 70.4808 105.901 71.874 105 72.6916C102.946 74.5549 99.8218 76.4536 94.4202 76.8628C89.1717 77.2604 83.6285 75.6621 81.2021 73.5328L81.202 73.5327C81.1625 73.498 81.1216 73.4609 81.0797 73.4212C80.4342 72.8098 79.7977 71.8339 79.0346 69.9764C78.9355 69.7352 78.88 69.4783 78.8707 69.2177L78.6456 62.8946C78.6449 62.8764 78.6445 62.8581 78.6443 62.8398L78.5156 50.8022L78.518 50.8842C78.5175 50.8731 78.5171 50.8644 78.5166 50.8531L78.5166 50.8526C78.4982 50.394 78.5106 48.1585 78.5714 47.0726C78.6394 45.8578 79.6793 44.9282 80.8941 44.9962C82.1089 45.0642 83.0385 46.1041 82.9705 47.3189Z" fill="black"/>
<path d="M101.295 70.7283C101.196 65.351 101.111 63.204 101.112 63.2229C101.111 63.205 101.11 63.1871 101.11 63.1693C101.106 62.9239 101.094 62.4719 101.076 61.7892C101.029 60.0487 100.945 56.928 100.877 52.4331C100.865 51.6141 100.853 50.7536 100.842 49.8434C100.84 49.6759 100.844 49.5012 100.846 49.363C100.85 49.19 100.852 49.0432 100.851 48.893C100.842 48.1625 100.725 47.7649 100.337 47.425C98.7077 45.9997 95.5369 45.5453 91.3179 45.8821C88.262 46.1261 84.953 46.8684 83.9013 47.2806L83.9013 47.2806C83.4043 47.4753 82.9222 47.7208 82.7661 47.896L82.766 47.8961C82.8052 47.8521 83.0539 47.6896 82.8078 46.99L82.8077 46.9897C82.8864 47.2134 82.9163 47.3152 83.7214 47.6646L83.7213 47.6645C86.1573 48.7215 89.3695 49.069 90.8761 49.1947C92.9681 49.3692 96.7335 48.823 99.2288 47.8189C100.036 47.4939 100.176 47.3411 100.179 47.3374L100.18 47.3374C100.178 47.3385 100.177 47.3406 100.176 47.3417C100.181 47.334 100.249 47.2359 100.384 46.7014C100.682 45.5218 101.88 44.8074 103.06 45.1057C104.239 45.404 104.954 46.6021 104.655 47.7816C104.501 48.391 104.285 49.1384 103.813 49.8288C103.694 50.0032 103.561 50.1698 103.415 50.3283L103.415 50.3283C102.717 51.0831 101.807 51.5309 100.874 51.9064C97.7843 53.1495 93.3319 53.8209 90.5098 53.5854C89.0003 53.4595 85.1341 53.0804 81.9676 51.7064L81.9675 51.7064C80.9465 51.2634 79.3781 50.5174 78.6515 48.4521L78.6514 48.4518C78.2496 47.3096 78.7028 45.8333 79.4765 44.9649L79.4765 44.965C80.4353 43.8888 81.9206 43.3246 82.2936 43.1784L82.2937 43.1784C83.895 42.5508 87.6728 41.7532 90.9672 41.4901C95.1963 41.1525 100.106 41.3685 103.238 44.1091C105.036 45.6827 105.242 47.6544 105.256 48.8393C105.259 49.0701 105.255 49.285 105.251 49.45C105.248 49.6057 105.247 49.706 105.248 49.7898C105.259 50.7006 105.27 51.5465 105.283 52.3663C105.351 56.8357 105.434 59.9368 105.48 61.671C105.498 62.3366 105.511 62.8248 105.516 63.1025L105.514 63.0489C105.515 63.0669 105.601 65.246 105.701 70.6467C105.723 71.8632 104.755 72.8676 103.539 72.8901C102.322 72.9126 101.318 71.9448 101.295 70.7283Z" fill="black"/>
<path d="M82.6763 54.4853C83.7815 55.4355 85.1428 56.2901 87.4772 56.9852C88.7189 57.355 90.0317 57.5971 92.6589 57.5807C93.6535 57.5745 94.4841 57.3459 96.6171 56.7146C96.7534 56.6742 96.8557 56.644 96.9998 56.6014C96.9525 56.6154 96.9272 56.6256 96.9317 56.6239L96.9317 56.6238C97.4636 56.4164 99.5316 55.186 99.64 55.121L99.3568 55.3229C100.531 54.3366 101.891 53.3979 101.898 53.3936C102.899 52.7021 104.271 52.9529 104.962 53.9539C105.654 54.9549 105.403 56.327 104.402 57.0186C104.408 57.0143 103.195 57.8536 102.19 58.6972C102.101 58.7718 102.006 58.8393 101.907 58.8991C102.015 58.834 99.5109 60.3471 98.5328 60.7286L98.5328 60.7286C98.4558 60.7587 98.3573 60.7946 98.2477 60.827C98.1001 60.8706 98.0092 60.8975 97.8676 60.9394C95.8848 61.5263 94.4246 61.9758 92.6864 61.9866C89.7069 62.0052 87.9509 61.7234 86.2198 61.208C83.2983 60.338 81.3851 59.1857 79.804 57.8264C78.8814 57.0332 78.7765 55.6423 79.5696 54.7197C80.3628 53.7971 81.7537 53.6922 82.6763 54.4853Z" fill="black"/>
<path d="M83.5817 63.5703C83.3493 63.1647 83.0565 63.0014 83.1557 63.0693C83.6431 63.4031 85.7039 64.1717 86.1102 64.3005L86.1104 64.3006C86.1124 64.3012 86.1042 64.2986 86.0891 64.2942L86.0894 64.2943C86.187 64.3229 86.2932 64.3548 86.4021 64.3875C86.538 64.4283 86.6841 64.4721 86.8415 64.5182C87.9801 64.8519 89.6519 65.2839 91.3665 65.3204C94.387 65.3849 97.6432 64.6961 98.1485 64.5249L98.1423 64.527C98.1483 64.525 98.1625 64.5202 98.152 64.5237C98.1531 64.5234 98.1474 64.5253 98.1485 64.5249C98.9679 64.2466 100.651 62.8111 101.515 62.0327C102.418 61.2183 103.811 61.2907 104.626 62.1946C105.44 63.0985 105.368 64.4914 104.464 65.3059C103.89 65.8231 101.447 68.0577 99.5655 68.6968L99.5619 68.698C99.5486 68.7025 99.5654 68.6969 99.5685 68.6958L99.5623 68.6979C98.5391 69.0446 94.7696 69.8 91.2725 69.7254C88.9561 69.676 86.828 69.1055 85.6025 68.7464C85.4295 68.6957 85.2699 68.6478 85.1352 68.6074C85.0216 68.5733 84.932 68.5463 84.8504 68.5225L84.8507 68.5225C84.8221 68.5142 84.7966 68.5062 84.7781 68.5003L84.7783 68.5004C84.4754 68.4043 81.7787 67.4664 80.6661 66.7045C80.5264 66.6088 80.0652 66.2955 79.7587 65.7606C79.1538 64.7048 79.5193 63.3587 80.575 62.7539C81.6307 62.1491 82.9768 62.5146 83.5817 63.5703Z" fill="black"/>
<path d="M49.0273 56.5828L49.0276 56.5828C49.212 56.5446 49.3912 56.5358 49.3816 56.5365C50.5143 56.4595 64.3211 56.2685 66.6761 56.3029C79.8495 56.4957 81.2524 56.7412 81.554 56.813C82.7376 57.0947 83.4688 58.2826 83.187 59.4662C82.9053 60.6498 81.7174 61.3809 80.5338 61.0992C80.8354 61.171 80.0927 60.9058 66.6116 60.7085C64.2895 60.6745 50.6281 60.8679 49.6805 60.9323C49.6124 60.9369 49.7531 60.932 49.9202 60.8974C48.7291 61.144 47.5633 60.3781 47.3167 59.1867C47.07 57.9953 47.8359 56.8295 49.0273 56.5828Z" fill="black"/>
<path d="M65.1842 48.1615C65.275 48.5313 65.2623 48.8705 65.2569 48.999C65.2152 49.9975 64.7045 52.2105 64.3198 53.7383C64.2819 53.8888 64.2346 54.0264 64.1911 54.1402C63.8652 54.993 63.0195 56.3887 61.5655 57.6908L61.5655 57.6908C59.8674 59.2115 56.8094 60.4227 56.8864 60.3915L56.0601 60.5524L57.3699 56.5781C59.089 57.8492 60.0935 58.7413 60.8188 59.3855C60.9931 59.5404 61.1403 59.6711 61.2762 59.7886L61.2763 59.7887C61.6143 60.0809 62.5096 61.0969 62.4308 61.0083C62.4351 61.013 62.4393 61.0178 62.4435 61.0226C63.5157 62.2502 63.7869 62.9367 64.578 64.854C64.6495 65.0271 64.7187 65.1949 64.8 65.3913L64.8 65.3914C64.9489 65.7508 65.0791 66.0842 65.1972 66.3866C65.311 66.678 65.4127 66.938 65.5207 67.1988C65.6502 67.5116 65.7859 67.818 65.948 68.1451L61.8468 68.5513C62.6467 65.5777 64.3709 62.1256 65.4822 60.6184L65.4822 60.6184C66.723 58.9357 68.6534 57.7793 70.1872 56.8617L70.0253 60.5359C70.061 60.5617 70.0821 60.5738 70.0796 60.5724L70.0795 60.5723C70.0135 60.5336 69.8574 60.461 69.4459 60.2801C68.7067 59.9553 67.4898 59.4272 66.3183 58.5781C65.7519 58.1675 65.1773 57.6698 64.652 57.0628C62.4157 54.4791 61.2277 50.3198 61.005 49.5623C60.9851 49.4947 60.977 49.4673 60.9735 49.456L60.9736 49.4561C60.929 49.312 60.9978 49.5736 61.1243 49.8092C60.5486 48.7374 60.9507 47.4018 62.0226 46.826C63.0944 46.2503 64.43 46.6525 65.0058 47.7243C65.1366 47.968 65.2143 48.256 65.1831 48.1553L65.1831 48.1553C65.1979 48.2032 65.2168 48.2676 65.2322 48.3198C65.5048 49.2472 66.4777 52.4397 67.9834 54.1794C68.2489 54.4861 68.5596 54.761 68.904 55.0106C69.6467 55.5489 70.4567 55.9117 71.2187 56.2466C71.526 56.3816 71.9676 56.5718 72.3091 56.7721L72.309 56.772C72.3993 56.825 72.5034 56.8904 72.6111 56.9685C73.2105 57.4029 73.5516 58.1094 73.5191 58.8491C73.4865 59.5887 73.0846 60.2625 72.4493 60.6426C70.7625 61.6518 69.6532 62.3859 69.0284 63.2332L69.0284 63.2333C68.2742 64.256 66.7733 67.1985 66.1016 69.6958C65.8636 70.5804 65.103 71.2255 64.1913 71.3158C63.2797 71.4061 62.4073 70.9227 62.0004 70.1019C61.7843 69.6659 61.6078 69.2658 61.45 68.8846C61.3221 68.5759 61.2045 68.2747 61.0932 67.9897C60.9735 67.6834 60.8586 67.3894 60.7293 67.0771L60.7293 67.0771C60.6474 66.8794 60.5758 66.7058 60.5052 66.5346C59.7168 64.624 59.6739 64.5494 59.1251 63.921L59.1377 63.9354C59.059 63.8468 58.4466 63.1666 58.3946 63.1216L58.3947 63.1217C58.232 62.981 58.0618 62.8298 57.8926 62.6795C57.2078 62.0712 56.3155 61.2781 54.7503 60.1207C53.9856 59.5553 53.6701 58.5631 53.9678 57.6599C54.2654 56.7566 55.1091 56.1464 56.0601 56.1464L55.2338 56.3072C55.3152 56.2743 57.6052 55.3229 58.6261 54.4086L58.6261 54.4086C59.5994 53.537 60.0193 52.7141 60.0756 52.5671C60.0782 52.5603 60.0642 52.5949 60.0472 52.6625C60.4747 50.9644 60.8363 49.2572 60.8548 48.8151C60.8575 48.7489 60.8382 48.9388 60.9053 49.2123C60.6151 48.0307 61.3378 46.8376 62.5194 46.5475C63.7009 46.2573 64.894 46.98 65.1842 48.1615Z" fill="black"/>
<path d="M61.6611 58.0191C61.6768 58.0281 61.6928 58.0373 61.7091 58.0466L61.7075 58.0467C61.725 58.1835 61.7408 58.3144 61.7548 58.4393C61.7644 58.5242 61.7863 58.6049 61.8187 58.6797L61.8169 58.6797C61.6284 58.7818 61.4842 58.9531 61.4169 59.1601C61.3798 59.1252 61.3429 59.0919 61.3063 59.06C61.244 59.0058 61.1758 58.9622 61.104 58.9293L61.1023 58.9293L60.8121 58.6516C60.8053 58.6451 60.7985 58.6388 60.7915 58.6326C60.7864 58.628 60.7815 58.6236 60.7766 58.6194C60.7349 58.5828 60.6926 58.5499 60.6498 58.5206L60.6481 58.5207C60.7362 58.4562 60.8551 58.3784 61.0048 58.2873L61.0047 58.2873C61.1504 58.2009 61.3687 58.1115 61.6594 58.0191L61.6611 58.0191ZM63.2813 58.8316C63.356 58.8652 63.4317 58.8989 63.5085 58.9327L63.5154 58.9357C63.6974 59.0138 63.8574 59.077 63.9954 59.1252L63.9937 59.1252C64.0274 59.2534 64.0611 59.381 64.0948 59.5079C63.8011 59.2223 63.5264 59.0018 63.2707 58.8463L63.2689 58.8463C63.2725 58.8415 63.2761 58.8366 63.2796 58.8316L63.2813 58.8316ZM63.119 51.8019C63.0998 51.8023 63.0807 51.8033 63.0616 51.8049L63.0617 51.8049C62.4852 51.8528 62.2078 52.1995 62.2295 52.8449L62.2295 52.8449C62.2305 52.8742 62.2323 52.9046 62.2349 52.9362L62.2349 52.9364C62.2372 52.9638 62.2408 52.9912 62.2458 53.0183L62.3837 53.7732L62.382 53.7733C62.1963 53.8286 62.0575 53.9426 61.9656 54.1153L61.9639 54.1153C61.7432 54.1643 61.5696 54.3082 61.4431 54.5472L61.4414 54.5472L59.7951 56.1573C59.7873 56.165 59.7796 56.1728 59.772 56.1808C59.3095 56.67 59.0207 57.2966 58.9057 58.0607C58.9019 58.0856 58.8993 58.1108 58.8977 58.1376C58.8976 58.1384 58.8976 58.1389 58.8976 58.1393L58.8974 58.1419C58.874 58.5599 58.9924 58.8424 59.2525 58.9893L59.2509 58.9893C59.239 59.0501 59.2309 59.1153 59.2264 59.1847L59.2264 59.1847L59.2264 59.1847C59.2004 59.5885 59.4635 59.9442 59.838 60.0496L59.8363 60.0497L60.3402 60.532L60.3386 60.532C60.7895 61.11 61.1826 61.6259 61.5176 62.0798L61.5159 62.0798C61.955 62.8212 62.4367 63.7599 62.9609 64.8959C63.021 65.0261 63.1131 65.1384 63.2282 65.2227L63.2265 65.2227C63.3015 66.0341 63.3292 66.5236 63.3099 66.6914L63.3084 66.6915C63.2915 66.7755 63.2875 66.8618 63.2967 66.9473C63.3528 67.4707 63.6389 67.7421 64.1551 67.7612C64.1708 67.7617 64.1866 67.7619 64.2024 67.7616C64.2755 67.7602 64.3482 67.7493 64.4186 67.7291C64.7985 67.62 65.0296 67.3408 65.1119 66.8913L65.1119 66.8912C65.1243 66.8239 65.1334 66.7504 65.1394 66.6706L65.1392 66.6707L65.1394 66.6693C65.2415 65.5587 65.3212 64.5943 65.3786 63.7762L65.3768 63.7762C65.797 63.6559 66.2421 63.3591 66.7119 62.8861C66.7511 62.8466 66.7863 62.8034 66.8169 62.757L68.7514 59.8304C68.9906 59.4687 68.916 58.9844 68.579 58.7114C68.4191 58.5819 68.225 58.52 68.0326 58.5237C67.8195 58.5278 67.6084 58.6125 67.4485 58.7749C67.2152 59.0118 66.9978 59.2312 66.7963 59.4331C66.7816 59.3852 66.7626 59.3385 66.7395 59.2938C66.6915 59.2008 66.6403 59.1166 66.586 59.0411L66.5842 59.0412C66.6015 58.97 66.6095 58.8968 66.608 58.8235L66.6098 58.8234C66.719 58.8694 66.8361 58.8914 66.953 58.8891C67.1379 58.8856 67.3223 58.8213 67.4742 58.6954C67.8002 58.4251 67.8749 57.9548 67.6486 57.5968C65.5848 54.3319 64.2995 52.4884 63.7928 52.0664C63.6331 51.9333 63.4677 51.8503 63.2968 51.8172C63.2448 51.8071 63.1919 51.8019 63.139 51.8018C63.1323 51.8017 63.1257 51.8018 63.119 51.8019Z" fill="black"/>
<path d="M62.761 57.7421C64.0721 58.6271 65.1253 59.6587 65.9207 60.8368C66.6014 61.8452 66.3359 63.2145 65.3275 63.8953C64.3191 64.5761 62.9498 64.3105 62.269 63.3021C61.7924 62.5962 61.1347 61.9601 60.2958 61.3939C59.2874 60.7131 59.0218 59.3438 59.7025 58.3354C60.3832 57.327 61.7526 57.0613 62.761 57.7421Z" fill="black"/>
<path d="M59.9652 56.9954C60.4407 57.0497 60.9108 57.227 61.3756 57.5273C61.9509 57.8989 62.601 58.5281 63.326 59.4149L63.3171 59.4041C63.6511 59.8074 63.9074 60.1722 64.0859 60.4986C64.8287 61.857 64.6731 62.9727 63.6189 63.8458C63.3246 64.0895 62.9857 64.2577 62.6023 64.3504C62.5014 64.3748 62.3988 64.392 62.2954 64.4019C61.7039 64.4587 61.1294 64.3337 60.5718 64.027C60.5552 64.0178 60.5387 64.0085 60.5223 63.9989C60.1973 63.809 59.804 63.5321 59.3424 63.1681L59.5014 63.2825C59.4005 63.2165 59.2971 63.1402 59.1915 63.0535L59.1915 63.0535C58.789 62.7233 58.1651 62.0627 57.3198 61.0717C57.2156 60.9495 57.1251 60.8164 57.0498 60.6746C57.2116 60.9795 57.4071 61.2081 57.6362 61.3605L57.6361 61.3604C57.6136 61.3455 57.5722 61.3206 57.5117 61.2857C56.4578 60.6777 56.0963 59.3305 56.7043 58.2766C57.3123 57.2227 58.6595 56.8613 59.7134 57.4692C59.8548 57.5508 59.9758 57.625 60.0761 57.6918L60.0761 57.6917C60.4664 57.9513 60.7549 58.2572 60.9418 58.6094L60.6719 58.2123C61.3476 59.0045 61.7856 59.4827 61.986 59.6471L61.986 59.6471C61.9685 59.6328 61.9435 59.615 61.9111 59.5938C61.9657 59.6295 62.0188 59.6676 62.0701 59.7081C62.3714 59.9456 62.5964 60.1078 62.7452 60.1947L62.6957 60.1667C62.459 60.0364 62.1852 59.9863 61.8744 60.0161L61.5675 60.0676C61.2905 60.1346 61.0375 60.2629 60.8085 60.4525C59.9965 61.125 59.8004 61.8451 60.2202 62.6127C60.1769 62.5335 60.0781 62.4007 59.9238 62.2144C59.9208 62.2108 59.9179 62.2073 59.9149 62.2036C59.4822 61.6743 59.1721 61.3492 58.9848 61.2281C59.0975 61.3009 59.2576 61.3492 59.4652 61.3729C58.2564 61.2349 57.3884 60.143 57.5264 58.9342C57.6645 57.7254 58.7564 56.8573 59.9652 56.9954Z" fill="black"/>
</svg>
