<svg width="92" height="92" viewBox="0 0 92 92" fill="none" xmlns="http://www.w3.org/2000/svg">
<rect x="1" y="1" width="89.9997" height="89.9997" rx="44.9998" fill="#FFE485"/>
<rect x="1" y="1" width="89.9997" height="89.9997" rx="44.9998" stroke="#05276C" stroke-width="2"/>
<path d="M41.0575 45.9785C41.2803 53.4003 33.9879 59.064 25.5902 59.3161C17.1925 59.5681 9.57347 54.3521 9.35068 46.9303C9.12789 39.5085 16.4203 33.8448 24.818 33.5927C33.2157 33.3407 40.8347 38.5567 41.0575 45.9785ZM37.9644 46.0714C37.812 40.9949 32.316 36.4636 24.9108 36.6858C17.5056 36.9081 12.2914 41.761 12.4438 46.8374C12.5962 51.9139 18.0921 56.4452 25.4973 56.2229C32.9025 56.0007 38.1168 51.1479 37.9644 46.0714Z" fill="#05276C"/>
<path d="M23.8064 36.6757C22.0091 39.6431 20.7326 44.7694 20.9579 46.893C21.3798 50.8686 22.6638 54.3307 24.247 56.5673C24.7407 57.2648 24.5755 58.2304 23.8781 58.7241C23.1806 59.2178 22.2149 59.0526 21.7212 58.3552C19.7717 55.601 18.3462 51.6062 17.8807 47.2196C17.5653 44.2476 19.1156 38.4472 21.1595 35.0726C21.6022 34.3417 22.5536 34.108 23.2845 34.5507C24.0154 34.9934 24.249 35.9448 23.8064 36.6757Z" fill="#05276C"/>
<path d="M27.2442 56.142C28.3222 55.2735 30.3438 50.1516 29.9796 45.5916C29.6257 41.1602 28.7126 39.5035 26.4994 36.5743C25.9842 35.8925 26.1193 34.9222 26.8011 34.4071C27.4829 33.8919 28.4532 34.027 28.9683 34.7088C31.4632 38.0107 32.6546 40.2156 33.0643 45.3453C33.4637 50.3464 31.4254 56.7473 29.1856 58.5517C28.5202 59.0878 27.5462 58.983 27.0101 58.3176C26.474 57.6521 26.5788 56.6781 27.2442 56.142Z" fill="#05276C"/>
<path d="M11.1644 43.1765L11.1638 43.1765C10.8125 43.1518 10.3804 43.3018 10.6578 43.2248L10.6578 43.2248C10.6866 43.2168 10.7949 43.1851 10.9809 43.1304C11.5878 42.9522 13.0367 42.5249 13.5268 42.4244C16.2931 41.8574 22.5296 41.3863 26.1597 41.268C28.709 41.1849 37.4115 41.6296 39.2239 42.2892C39.3461 42.3336 39.548 42.4147 39.7482 42.5546C40.4487 43.044 40.6197 44.0087 40.1303 44.7091C39.6409 45.4096 38.6763 45.5807 37.9758 45.0913C38.0995 45.1777 38.1889 45.2055 38.1657 45.1971C36.9992 44.7726 28.8888 44.2752 26.2605 44.3609C22.6516 44.4785 16.6393 44.9453 14.1481 45.4559C13.8232 45.5225 12.5589 45.8922 11.853 46.0995C11.6865 46.1484 11.5431 46.1906 11.4854 46.2066L11.4853 46.2066C11.7424 46.1353 11.2991 46.2882 10.9465 46.2634C10.0935 46.203 9.4514 45.4631 9.51174 44.6107C9.57207 43.7583 10.312 43.1162 11.1644 43.1765Z" fill="#05276C"/>
<path d="M12.4938 47.8953C12.4314 47.8589 12.3924 47.845 12.3997 47.8478C13.4771 48.2607 20.8829 48.9193 26.9304 48.9654C32.9455 49.0112 36.1991 48.1054 38.1882 47.1713C38.9616 46.808 39.8831 47.1406 40.2464 47.9141C40.6096 48.6875 40.2771 49.609 39.5036 49.9723C36.9825 51.1562 33.2407 52.108 26.9068 52.0598C21.0584 52.0152 13.0078 51.3948 11.2924 50.7374C11.1933 50.6994 11.0663 50.6451 10.9352 50.5686C10.197 50.1382 9.94743 49.1909 10.3778 48.4526C10.8082 47.7144 11.7556 47.4649 12.4938 47.8953Z" fill="#05276C"/>
<path d="M63.8924 38.1506C63.8545 38.8283 63.8479 40.2984 63.8563 40.5084L63.8563 40.508C63.8563 40.5086 63.8562 40.5067 63.8562 40.5065C63.8571 40.5257 63.8577 40.5449 63.8579 40.5641L63.9483 49.0185L63.9474 48.98L64.1055 53.4209L63.9904 52.888C64.4618 54.0355 64.7062 54.2497 64.6924 54.2366C64.6924 54.2367 64.6921 54.2363 64.6915 54.2358L64.6915 54.2358C65.5685 55.0054 68.5309 56.0549 71.7003 55.8149C74.762 55.5829 76.3178 54.557 77.2855 53.6791C77.9184 53.1049 78.8969 53.1525 79.4711 53.7853C80.0452 54.4182 79.9977 55.3967 79.3648 55.9709C77.9224 57.2796 75.7278 58.6131 71.934 58.9005C68.2478 59.1798 64.3546 58.0572 62.6504 56.5617L62.6504 56.5617C62.6226 56.5373 62.5939 56.5112 62.5645 56.4833C62.1111 56.0539 61.664 55.3685 61.1281 54.064C61.0585 53.8945 61.0195 53.7141 61.013 53.531L60.8548 49.0901C60.8544 49.0773 60.8541 49.0644 60.854 49.0516L60.7636 40.5971L60.7653 40.6547C60.7649 40.6469 60.7646 40.6408 60.7643 40.6329L60.7643 40.6325C60.7514 40.3104 60.7601 38.7403 60.8028 37.9777C60.8505 37.1245 61.5809 36.4715 62.4341 36.5193C63.2873 36.5671 63.9402 37.2974 63.8924 38.1506Z" fill="#05276C"/>
<path d="M76.7627 54.5917C76.6928 50.815 76.633 49.307 76.6336 49.3203C76.6331 49.3078 76.6327 49.2952 76.6325 49.2827C76.6299 49.1103 76.6214 48.7929 76.6086 48.3134C76.5757 47.0909 76.5169 44.8992 76.469 41.7422C76.4603 41.167 76.452 40.5626 76.4442 39.9234C76.4428 39.8057 76.4453 39.683 76.4472 39.586C76.4496 39.4644 76.4516 39.3613 76.4503 39.2558C76.444 38.7428 76.3622 38.4636 76.0893 38.2248C74.9452 37.2238 72.7182 36.9046 69.755 37.1412C67.6088 37.3125 65.2848 37.8339 64.5461 38.1234L64.5461 38.1234C64.197 38.2602 63.8584 38.4326 63.7488 38.5556L63.7488 38.5557C63.7762 38.5248 63.9509 38.4107 63.7781 37.9193L63.778 37.9191C63.8333 38.0762 63.8543 38.1477 64.4197 38.3931L64.4197 38.3931C66.1306 39.1354 68.3866 39.3795 69.4448 39.4677C70.9141 39.5903 73.5587 39.2067 75.3112 38.5015C75.8785 38.2732 75.9765 38.1659 75.9789 38.1633L75.9789 38.1633C75.9782 38.1641 75.9771 38.1655 75.9765 38.1663C75.9802 38.1609 76.0275 38.092 76.1224 37.7166C76.3319 36.8881 77.1733 36.3864 78.0018 36.5959C78.8302 36.8054 79.332 37.6468 79.1225 38.4753C79.0142 38.9033 78.8625 39.4282 78.5309 39.9131C78.4471 40.0356 78.3541 40.1526 78.2512 40.2639L78.2513 40.2639C77.7612 40.794 77.1218 41.1085 76.4664 41.3723C74.2967 42.2453 71.1696 42.7169 69.1875 42.5515C68.1273 42.4631 65.4119 42.1968 63.188 41.2318L63.1879 41.2318C62.4708 40.9207 61.3693 40.3967 60.8589 38.9462L60.8589 38.946C60.5767 38.1437 60.895 37.1069 61.4384 36.497L61.4384 36.497C62.1118 35.7412 63.155 35.3449 63.417 35.2422L63.417 35.2422C64.5416 34.8015 67.195 34.2412 69.5088 34.0565C72.479 33.8194 75.927 33.9711 78.127 35.8959C79.3901 37.0011 79.5344 38.3859 79.5446 39.2182C79.5465 39.3802 79.5434 39.5312 79.5411 39.647C79.539 39.7564 79.5377 39.8269 79.5385 39.8857C79.5462 40.5254 79.5544 41.1195 79.5632 41.6953C79.6108 44.8343 79.6692 47.0123 79.7019 48.2303C79.7145 48.6978 79.7237 49.0407 79.7267 49.2358L79.7257 49.1981C79.7262 49.2108 79.7864 50.7413 79.8567 54.5344C79.8725 55.3888 79.1927 56.0942 78.3383 56.11C77.484 56.1258 76.7785 55.446 76.7627 54.5917Z" fill="#05276C"/>
<path d="M63.6858 43.1837C64.4621 43.8511 65.4181 44.4513 67.0577 44.9395C67.9298 45.1992 68.8519 45.3692 70.697 45.3578C71.3956 45.3534 71.979 45.1929 73.477 44.7494C73.5728 44.7211 73.6446 44.6998 73.7458 44.6699C73.7126 44.6797 73.6948 44.6869 73.698 44.6857L73.698 44.6857C74.0716 44.54 75.524 43.6759 75.6001 43.6302L75.4012 43.772C76.2262 43.0793 77.1814 42.42 77.1857 42.417C77.8888 41.9313 78.8525 42.1074 79.3382 42.8105C79.8239 43.5135 79.6478 44.4772 78.9447 44.963C78.9491 44.9599 78.0967 45.5494 77.3911 46.1419C77.3287 46.1943 77.2622 46.2417 77.1922 46.2837C77.2684 46.238 75.5095 47.3007 74.8225 47.5687L74.8225 47.5687C74.7684 47.5898 74.6993 47.615 74.6223 47.6377C74.5186 47.6683 74.4548 47.6872 74.3553 47.7167C72.9627 48.1289 71.9371 48.4446 70.7163 48.4522C68.6237 48.4652 67.3904 48.2673 66.1746 47.9053C64.1227 47.2943 62.779 46.485 61.6685 45.5303C61.0205 44.9732 60.9468 43.9963 61.5039 43.3483C62.061 42.7004 63.0378 42.6267 63.6858 43.1837Z" fill="#05276C"/>
<path d="M64.3217 49.5644C64.1585 49.2795 63.9528 49.1648 64.0225 49.2125C64.3648 49.4469 65.8122 49.9868 66.0976 50.0773L66.0977 50.0773C66.0991 50.0778 66.0934 50.0759 66.0828 50.0728L66.083 50.0729C66.1515 50.0929 66.2261 50.1153 66.3026 50.1383C66.3981 50.167 66.5006 50.1978 66.6112 50.2301C67.4109 50.4645 68.585 50.7679 69.7893 50.7936C71.9107 50.8388 74.1977 50.3551 74.5525 50.2349L74.5482 50.2363C74.5524 50.2349 74.5624 50.2315 74.5551 50.234C74.5558 50.2338 74.5518 50.2351 74.5525 50.2349C75.1281 50.0394 76.31 49.0312 76.9167 48.4845C77.5516 47.9125 78.5299 47.9634 79.1019 48.5982C79.674 49.233 79.6231 50.2113 78.9882 50.7834C78.5851 51.1466 76.8694 52.7161 75.5478 53.165L75.5453 53.1658C75.5359 53.169 75.5477 53.165 75.5499 53.1643L75.5455 53.1657C74.8269 53.4092 72.1795 53.9398 69.7233 53.8874C68.0964 53.8527 66.6017 53.452 65.741 53.1998C65.6195 53.1642 65.5074 53.1305 65.4128 53.1021C65.333 53.0782 65.2701 53.0593 65.2128 53.0425L65.2129 53.0425C65.1929 53.0367 65.175 53.0311 65.162 53.027L65.1621 53.027C64.9494 52.9595 63.0554 52.3008 62.274 51.7657C62.1759 51.6985 61.8519 51.4784 61.6366 51.1027C61.2118 50.3612 61.4685 49.4158 62.21 48.991C62.9515 48.5662 63.8969 48.8229 64.3217 49.5644Z" fill="#05276C"/>
<path d="M40.0522 44.657L40.0525 44.6569C40.182 44.6301 40.3078 44.624 40.3011 44.6244C41.0966 44.5703 50.7937 44.4362 52.4477 44.4604C61.6999 44.5958 62.6852 44.7682 62.8971 44.8186C63.7284 45.0165 64.2419 45.8508 64.044 46.6821C63.8462 47.5134 63.0119 48.0269 62.1806 47.829C62.3924 47.8794 61.8707 47.6931 52.4024 47.5546C50.7715 47.5307 41.1765 47.6665 40.511 47.7118C40.4632 47.7151 40.562 47.7116 40.6794 47.6873C39.8428 47.8605 39.024 47.3226 38.8508 46.4858C38.6776 45.649 39.2155 44.8302 40.0522 44.657Z" fill="#05276C"/>
<path d="M51.3999 38.7418C51.4637 39.0015 51.4548 39.2398 51.451 39.33C51.4217 40.0313 51.063 41.5856 50.7928 42.6587C50.7662 42.7643 50.733 42.861 50.7025 42.9409C50.4735 43.5399 49.8796 44.5201 48.8584 45.4346L48.8584 45.4347C47.6658 46.5027 45.518 47.3534 45.572 47.3315L44.9917 47.4445L45.9116 44.6531C47.119 45.5459 47.8246 46.1724 48.3339 46.6249C48.4564 46.7337 48.5597 46.8255 48.6552 46.908L48.6552 46.9081C48.8926 47.1133 49.5215 47.8269 49.4661 47.7646C49.4691 47.768 49.4721 47.7714 49.475 47.7747C50.2281 48.6369 50.4185 49.1191 50.9742 50.4657C51.0244 50.5873 51.073 50.7051 51.1301 50.8431L51.1301 50.8431C51.2347 51.0955 51.3261 51.3297 51.4091 51.542C51.489 51.7467 51.5604 51.9293 51.6363 52.1125C51.7272 52.3322 51.8225 52.5474 51.9364 52.7771L49.056 53.0624C49.6177 50.974 50.8287 48.5494 51.6093 47.4908L51.6092 47.4908C52.4807 46.309 53.8365 45.4968 54.9137 44.8523L54.8001 47.4329C54.8251 47.451 54.8399 47.4595 54.8382 47.4585L54.8381 47.4585C54.7918 47.4313 54.6821 47.3803 54.3931 47.2533C53.874 47.0251 53.0192 46.6542 52.1965 46.0578C51.7986 45.7695 51.3951 45.4199 51.0261 44.9936C49.4555 43.1789 48.6211 40.2577 48.4647 39.7257C48.4508 39.6782 48.4451 39.6589 48.4426 39.651L48.4426 39.6511C48.4114 39.5499 48.4596 39.7336 48.5485 39.8991C48.1441 39.1463 48.4266 38.2083 49.1794 37.8039C49.9322 37.3995 50.8703 37.682 51.2746 38.4348C51.3665 38.6059 51.421 38.8082 51.3992 38.7375L51.3992 38.7375C51.4096 38.7711 51.4228 38.8163 51.4336 38.853C51.6251 39.5044 52.3084 41.7466 53.366 42.9685C53.5524 43.1839 53.7706 43.3769 54.0125 43.5523C54.5341 43.9303 55.1031 44.1851 55.6382 44.4203C55.8541 44.5152 56.1642 44.6487 56.404 44.7894L56.404 44.7894C56.4674 44.8265 56.5405 44.8725 56.6162 44.9273C57.0372 45.2325 57.2767 45.7287 57.2539 46.2482C57.231 46.7676 56.9487 47.2409 56.5025 47.5078C55.3178 48.2166 54.5387 48.7322 54.0999 49.3273L54.0999 49.3273C53.5702 50.0457 52.5161 52.1123 52.0443 53.8662C51.8771 54.4876 51.3429 54.9406 50.7026 55.004C50.0623 55.0674 49.4496 54.728 49.1638 54.1515C49.012 53.8453 48.8881 53.5642 48.7772 53.2965C48.6875 53.0797 48.6048 52.8681 48.5267 52.668C48.4426 52.4528 48.3619 52.2464 48.2711 52.027L48.2711 52.0271C48.2136 51.8882 48.1633 51.7663 48.1137 51.646C47.5599 50.3041 47.5298 50.2517 47.1444 49.8104L47.1533 49.8205C47.098 49.7583 46.6679 49.2805 46.6313 49.2489L46.6314 49.249C46.5171 49.1502 46.3976 49.044 46.2787 48.9384C45.7978 48.5112 45.1711 47.9541 44.0718 47.1413C43.5347 46.7442 43.3131 46.0473 43.5222 45.4129C43.7312 44.7786 44.3238 44.35 44.9917 44.35L44.4113 44.4629C44.4685 44.4398 46.0769 43.7716 46.7939 43.1294L46.7939 43.1295C47.4775 42.5172 47.7724 41.9393 47.8119 41.836C47.8138 41.8313 47.8039 41.8556 47.792 41.903C48.0923 40.7104 48.3462 39.5114 48.3592 39.2008C48.3611 39.1544 48.3475 39.2878 48.3947 39.4798C48.1909 38.65 48.6984 37.812 49.5283 37.6082C50.3582 37.4044 51.1961 37.912 51.3999 38.7418Z" fill="#05276C"/>
<path d="M48.9265 45.6655C48.9375 45.6719 48.9488 45.6783 48.9602 45.6849L48.959 45.6849C48.9713 45.781 48.9824 45.8729 48.9923 45.9606C48.999 46.0203 49.0144 46.077 49.0371 46.1295L49.0359 46.1295C48.9035 46.2012 48.8022 46.3215 48.755 46.4669C48.7289 46.4424 48.703 46.419 48.6773 46.3966C48.6335 46.3585 48.5856 46.3279 48.5352 46.3048L48.534 46.3048L48.3302 46.1097C48.3254 46.1052 48.3206 46.1008 48.3157 46.0964C48.3122 46.0932 48.3087 46.0901 48.3053 46.0871C48.276 46.0615 48.2463 46.0383 48.2162 46.0178L48.215 46.0178C48.2769 45.9725 48.3604 45.9179 48.4655 45.8539L48.4654 45.8539C48.5678 45.7932 48.7211 45.7304 48.9253 45.6655L48.9265 45.6655ZM50.0644 46.2362C50.1169 46.2598 50.1701 46.2835 50.224 46.3072L50.2288 46.3093C50.3566 46.3642 50.469 46.4085 50.5659 46.4424L50.5647 46.4424C50.5884 46.5324 50.6121 46.622 50.6357 46.7112C50.4295 46.5106 50.2365 46.3557 50.0569 46.2465L50.0557 46.2465C50.0583 46.2431 50.0608 46.2397 50.0632 46.2362L50.0644 46.2362ZM49.9504 41.2989C49.937 41.2992 49.9235 41.2999 49.9101 41.301L49.9102 41.301C49.5053 41.3347 49.3105 41.5782 49.3257 42.0315L49.3257 42.0315C49.3264 42.052 49.3276 42.0734 49.3295 42.0956L49.3295 42.0957C49.3311 42.115 49.3336 42.1342 49.3371 42.1532L49.434 42.6835L49.4328 42.6835C49.3024 42.7224 49.2049 42.8024 49.1404 42.9237L49.1392 42.9237C48.9841 42.9581 48.8622 43.0592 48.7733 43.227L48.7721 43.2271L47.6159 44.3579C47.6104 44.3633 47.605 44.3688 47.5997 44.3744C47.2748 44.718 47.072 45.1581 46.9912 45.6947C46.9886 45.7123 46.9867 45.7299 46.9856 45.7488C46.9856 45.7493 46.9856 45.7497 46.9855 45.7499L46.9854 45.7518C46.969 46.0454 47.0521 46.2437 47.2348 46.3469L47.2337 46.3469C47.2253 46.3897 47.2196 46.4354 47.2165 46.4841L47.2165 46.4842L47.2165 46.4842C47.1982 46.7678 47.383 47.0176 47.646 47.0917L47.6448 47.0917L47.9988 47.4304L47.9976 47.4305C48.3143 47.8364 48.5904 48.1987 48.8257 48.5175L48.8245 48.5175C49.1329 49.0383 49.4712 49.6975 49.8394 50.4954C49.8816 50.5868 49.9463 50.6657 50.0271 50.7249L50.0259 50.7249C50.0786 51.2948 50.0981 51.6386 50.0845 51.7565L50.0835 51.7565C50.0716 51.8155 50.0688 51.8761 50.0752 51.9361C50.1146 52.3038 50.3156 52.4943 50.6781 52.5078C50.6892 52.5082 50.7003 52.5083 50.7113 52.5081C50.7627 52.5071 50.8137 52.4994 50.8632 52.4852C51.13 52.4087 51.2923 52.2125 51.3501 51.8968L51.3501 51.8968C51.3588 51.8495 51.3652 51.7978 51.3694 51.7419L51.3693 51.7419L51.3694 51.7409C51.4411 50.9609 51.4971 50.2836 51.5374 49.709L51.5362 49.709C51.8313 49.6245 52.1439 49.4161 52.4739 49.0838C52.5014 49.0561 52.5261 49.0257 52.5476 48.9931L53.9063 46.9377C54.0743 46.6836 54.0219 46.3435 53.7852 46.1518C53.6729 46.0608 53.5366 46.0173 53.4015 46.0199C53.2517 46.0228 53.1035 46.0823 52.9912 46.1964C52.8274 46.3627 52.6747 46.5168 52.5331 46.6587C52.5228 46.625 52.5095 46.5922 52.4932 46.5608C52.4595 46.4955 52.4236 46.4364 52.3854 46.3833L52.3842 46.3834C52.3963 46.3334 52.402 46.282 52.4009 46.2305L52.4021 46.2304C52.4789 46.2627 52.5611 46.2782 52.6432 46.2766C52.7731 46.2741 52.9026 46.229 53.0093 46.1405C53.2382 45.9507 53.2907 45.6204 53.1318 45.3689C51.6822 43.0758 50.7795 41.7811 50.4236 41.4847C50.3115 41.3912 50.1954 41.3329 50.0753 41.3096C50.0387 41.3026 50.0016 41.2989 49.9644 41.2988C49.9598 41.2988 49.9551 41.2989 49.9504 41.2989Z" fill="#05276C"/>
<path d="M49.6983 45.4711C50.6191 46.0927 51.3588 46.8172 51.9174 47.6446C52.3956 48.3528 52.209 49.3146 51.5008 49.7927C50.7926 50.2709 49.8308 50.0843 49.3527 49.3761C49.018 48.8803 48.556 48.4336 47.9669 48.0359C47.2586 47.5578 47.072 46.596 47.5502 45.8878C48.0283 45.1795 48.99 44.9929 49.6983 45.4711Z" fill="#05276C"/>
<path d="M47.7348 44.9467C48.0688 44.9848 48.399 45.1093 48.7255 45.3202C49.1295 45.5812 49.5861 46.0231 50.0953 46.646L50.089 46.6384C50.3236 46.9216 50.5036 47.1779 50.629 47.4071C51.1507 48.3612 51.0414 49.1448 50.301 49.758C50.0943 49.9292 49.8563 50.0473 49.587 50.1124C49.5161 50.1295 49.4441 50.1416 49.3715 50.1486C48.956 50.1884 48.5525 50.1007 48.1609 49.8852C48.1492 49.8788 48.1377 49.8722 48.1261 49.8655C47.8979 49.7321 47.6216 49.5376 47.2974 49.282L47.4091 49.3623C47.3382 49.316 47.2656 49.2624 47.1914 49.2015L47.1914 49.2015C46.9088 48.9696 46.4706 48.5057 45.8769 47.8096C45.8037 47.7238 45.7401 47.6303 45.6873 47.5307C45.8009 47.7448 45.9382 47.9054 46.0991 48.0124L46.099 48.0124C46.0832 48.0019 46.0541 47.9844 46.0116 47.9599C45.2715 47.5329 45.0176 46.5867 45.4446 45.8465C45.8716 45.1063 46.8178 44.8525 47.558 45.2795C47.6573 45.3368 47.7423 45.3889 47.8127 45.4358L47.8127 45.4357C48.0868 45.618 48.2895 45.8329 48.4208 46.0802L48.2312 45.8014C48.7058 46.3577 49.0134 46.6936 49.1541 46.8091L49.1541 46.8091C49.1418 46.799 49.1243 46.7865 49.1015 46.7716C49.1399 46.7967 49.1772 46.8235 49.2132 46.8519C49.4248 47.0187 49.5829 47.1327 49.6873 47.1937L49.6526 47.174C49.4863 47.0825 49.2941 47.0473 49.0758 47.0682L48.8602 47.1044C48.6657 47.1514 48.488 47.2415 48.3271 47.3747C47.7568 47.8471 47.6191 48.3528 47.9139 48.8919C47.8835 48.8363 47.8141 48.743 47.7058 48.6122C47.7036 48.6097 47.7016 48.6072 47.6995 48.6046C47.3956 48.2329 47.1778 48.0045 47.0462 47.9195C47.1254 47.9706 47.2379 48.0045 47.3837 48.0212C46.5347 47.9242 45.925 47.1573 46.022 46.3083C46.119 45.4593 46.8858 44.8497 47.7348 44.9467Z" fill="#05276C"/>
</svg>
