<svg width="115" height="113" viewBox="0 0 115 113" fill="none" xmlns="http://www.w3.org/2000/svg">
<path d="M58.7832 26.7621L58.7832 26.7619C58.6276 27.166 58.7309 27.5218 58.7019 27.3491L58.7019 27.3491C58.6684 27.1499 58.2965 25.8508 56.6267 22.8554C56.052 21.8245 54.824 20.3897 53.7217 19.2305C53.1002 18.5769 51.7847 18.4233 50.8777 18.9897C50.8826 18.9867 50.8854 18.9846 50.8851 18.9849L50.8851 18.9848C50.4322 19.3214 49.6361 21.3784 49.3628 24.1647C49.1764 26.0663 49.2455 27.7169 49.8419 30.2542C49.9036 30.5168 49.8879 30.7911 49.7966 31.0453L48.4939 34.6715C48.2276 35.4128 47.3979 35.8024 46.6406 35.5417C45.8833 35.281 45.4853 34.4687 45.7517 33.7274L47.0543 30.1012L47.009 30.8924C46.346 28.072 46.2514 26.1141 46.4692 23.8928C46.7201 21.334 47.5083 17.9214 49.1276 16.7181L49.1277 16.7181C49.187 16.674 49.2489 16.6315 49.3142 16.5907C51.2521 15.3803 54.1546 15.5091 55.8495 17.2915C56.9587 18.4581 58.4129 20.1191 59.1784 21.4921C60.8707 24.5278 61.452 26.1835 61.5702 26.8871L61.5702 26.8871C61.568 26.8737 61.6731 27.3249 61.5032 27.766C61.22 28.5012 60.3816 28.8726 59.6305 28.5954C58.8793 28.3182 58.5 27.4974 58.7832 26.7621Z" fill="#FFA462"/>
<path d="M48.5677 34.5901C47.9476 35.9358 47.7723 36.6927 47.5105 37.8228L47.5105 37.8229L47.4906 37.909L47.4906 37.9091C47.3972 38.3119 47.2845 38.7428 47.1802 39.1421C47.0778 39.534 46.9839 39.8939 46.9113 40.207C46.8222 40.5915 46.7935 40.7913 46.7916 40.8542L46.7916 40.8543C46.7916 40.8546 46.7918 40.8488 46.7914 40.8375C46.8485 42.5296 47.2686 45.458 48.4439 46.7005C48.8334 47.1123 49.2466 47.4965 49.6658 47.8854C50.015 48.2096 50.3867 48.5536 50.7016 48.8865C51.0308 49.2346 51.412 49.6855 51.6328 50.2112C51.8729 50.7831 51.9431 51.5067 51.541 52.2148C50.3706 54.2759 48.3923 55.2403 46.0245 56.4551L46.0244 56.4552L45.9068 56.5156L45.904 56.517L45.8992 56.5194L45.9 56.519C45.881 56.5287 45.9192 56.5092 45.8961 56.521L45.8973 56.5204C44.6552 57.1579 44.0324 57.463 42.0938 59.2513C41.5095 59.7902 40.5897 59.7634 40.0392 59.1914C39.4887 58.6195 39.516 57.719 40.1003 57.1801C42.2541 55.1934 43.0998 54.743 44.5476 54L44.5488 53.9994C44.5558 53.9958 44.5434 54.0022 44.5545 53.9965L44.5554 53.996L44.5602 53.9935L44.5574 53.995L44.6751 53.9346L44.6751 53.9346C47.2569 52.61 48.333 52.0072 49.0002 50.8322C48.8762 51.0506 48.9316 51.2631 48.9442 51.2931L48.9442 51.2932C48.9288 51.2565 48.8446 51.1117 48.5687 50.82C48.3311 50.5689 48.034 50.2923 47.6659 49.9507C47.2559 49.5702 46.7749 49.1245 46.311 48.634C44.3064 46.5148 43.9395 42.5146 43.8861 40.9314C43.8842 40.8756 43.8845 40.822 43.8859 40.7721L43.8859 40.7721C43.8969 40.3988 43.9899 39.9507 44.0764 39.5774C44.1595 39.219 44.2642 38.8188 44.3639 38.437C44.4705 38.0292 44.5727 37.6373 44.6557 37.2794L44.6557 37.2795L44.6756 37.1935L44.6756 37.1936C44.9512 36.0037 45.1773 35.0272 45.9179 33.4199C46.248 32.7036 47.1087 32.3849 47.8404 32.708C48.5722 33.0311 48.8978 33.8737 48.5677 34.5901Z" fill="#FFA462"/>
<path d="M60.6232 25.9079C61.7531 26.1194 65.5056 25.8068 66.6898 25.3931C66.8388 25.341 66.9956 25.3131 67.1539 25.3105C66.6012 25.3196 66.3137 25.6571 66.4305 25.5506L66.4305 25.5506C66.681 25.3223 67.4678 24.1854 68.7396 21.8454C68.7717 21.7863 68.8123 21.7115 68.8441 21.6527L68.8441 21.6528C68.8701 21.6047 68.9196 21.5134 68.9455 21.4657C69.3095 20.796 69.7276 20.0338 70.2679 19.4449C71.621 17.9699 73.9345 15.7138 76.5584 16.4311C79.0668 17.1168 80.1059 20.1731 80.7557 21.9385C81.6763 24.4392 81.8127 25.5429 82.0357 27.3933C82.0732 27.7047 82.1131 28.0357 82.16 28.4004C82.1748 28.5151 82.1862 28.6294 82.1961 28.7271C82.2082 28.848 82.2198 28.963 82.2369 29.0954C82.3122 29.6804 82.5135 30.7667 83.4035 33.4544C84.5091 36.793 84.3556 38.9853 84.2196 40.9175C84.1875 41.3737 84.1582 41.7934 84.1446 42.2167C84.0935 43.8102 83.4114 46.5355 82.0252 48.6265C81.2869 49.7401 80.5854 50.6389 80.0932 51.2699C79.7929 51.6549 79.6126 51.8878 79.5152 52.0347L79.5152 52.0347C79.4982 52.0604 79.4911 52.0725 79.49 52.0744L79.4903 52.0739C79.4902 52.0741 79.4915 52.0719 79.4937 52.0677L78.8766 50.1559C81.6131 51.5606 83.5406 55.0588 84.409 58.4796C85.4896 62.7364 85.3539 64.0765 83.1129 69.3508C81.4152 73.3463 78.0436 77.0067 75.5599 77.2469C75.431 77.2593 75.2972 77.2638 75.1594 77.2572L75.1593 77.2572C74.9805 77.2485 74.8084 77.2421 74.623 77.2351H74.6231C74.4448 77.2285 74.2696 77.2219 74.0872 77.2131H74.0871C73.3083 77.1756 72.0998 77.1072 71.2052 76.4646C70.9145 76.2558 70.6568 75.9891 70.4572 75.6578C68.0732 71.7012 69.5623 67.3308 70.352 64.8916C70.5911 64.153 70.7559 63.6357 70.8281 63.2539C70.9743 62.4812 71.7327 61.9708 72.522 62.1139C73.3113 62.257 73.8326 62.9994 73.6865 63.7721C73.5739 64.3672 73.341 65.0782 73.1231 65.7514C72.2643 68.4038 71.3329 71.5099 72.961 74.212C72.9472 74.1892 72.9296 74.1736 72.9248 74.1702L72.9248 74.1702C73.0051 74.2278 73.3038 74.3262 74.2302 74.3708H74.2302C74.3914 74.3786 74.5558 74.3848 74.7343 74.3915H74.7344C74.916 74.3983 75.1061 74.4054 75.3024 74.4149H75.3023C75.2838 74.414 75.2739 74.4149 75.2741 74.4149C75.9925 74.3454 78.7729 72.1551 80.4288 68.2579C82.495 63.3952 82.4821 62.6888 81.5879 59.1659C80.791 56.0269 79.1597 53.5145 77.5266 52.6761C76.8193 52.3131 76.5438 51.4593 76.9096 50.7643C76.9247 50.7356 76.939 50.7097 76.954 50.6835L76.9542 50.683C76.9944 50.6129 77.0362 50.5468 77.0768 50.4856L77.0768 50.4855C77.2502 50.224 77.5162 49.8848 77.7828 49.5429C78.2733 48.9141 78.9146 48.0912 79.5867 47.0773C80.6587 45.4604 81.2031 43.2493 81.2391 42.1274C81.2546 41.6425 81.2881 41.1697 81.3195 40.722C81.4471 38.9086 81.5715 37.1502 80.6382 34.3319C79.721 31.562 79.4602 30.286 79.3528 29.4514C79.3302 29.2763 79.3151 29.1255 79.3031 29.0058C79.2925 28.9004 79.2849 28.8259 79.2759 28.7563C79.2273 28.3789 79.1862 28.0373 79.1487 27.7267C78.94 25.9943 78.8386 25.1246 78.0209 22.9032C77.1497 20.5365 76.519 19.375 75.7765 19.172C75.1496 19.0006 74.0663 19.5634 72.4307 21.3463C72.1685 21.6322 71.9079 22.0736 71.5118 22.8023C71.4885 22.8453 71.4366 22.9409 71.412 22.9864L71.412 22.9864C71.3845 23.0371 71.3347 23.1289 71.3059 23.182C70.1051 25.3914 69.0924 27.0128 68.411 27.6337L68.411 27.6337C68.3241 27.7128 67.8743 28.1447 67.2028 28.1558L67.6669 28.0732C66.0289 28.6455 61.7509 29.0163 60.0772 28.703C59.2888 28.5554 58.7718 27.81 58.9226 27.0382C59.0734 26.2663 59.8348 25.7603 60.6232 25.9079Z" fill="#FFA462"/>
<path d="M54.9266 62.7961C53.3177 65.0224 52.3368 66.3489 51.8696 66.9109L51.8694 66.9111C51.8721 66.908 51.8728 66.907 51.8731 66.9066L51.873 66.9068C51.7943 67.0065 51.5992 67.3212 51.1745 68.0194C51.0111 68.288 50.8245 68.5947 50.6106 68.9423C50.2722 69.4921 48.9418 71.3889 48.5968 71.7962L48.597 71.796C48.5747 71.8224 48.5361 71.8671 48.4897 71.9141C47.9318 72.4791 47.0117 72.4944 46.4345 71.9482C45.8573 71.4021 45.8417 70.5013 46.3996 69.9363C46.3704 69.9658 46.3546 69.9851 46.359 69.98L46.3591 69.9798C46.5799 69.7191 47.8269 67.9511 48.1207 67.4737C48.3308 67.1323 48.5128 66.833 48.6769 66.5633C49.0359 65.9732 49.355 65.4427 49.5728 65.1668L49.5726 65.167C49.5859 65.1501 49.6003 65.1323 49.6151 65.1145L49.6149 65.1148C50.0052 64.6451 50.9199 63.413 52.5536 61.1525C53.0172 60.511 53.9243 60.3589 54.5796 60.8128C55.2349 61.2666 55.3903 62.1546 54.9266 62.7961Z" fill="#FFA462"/>
<path d="M49.8913 65.8195L49.8917 65.8193C50.316 65.5316 50.9002 65.5439 50.6913 65.5585L50.6912 65.5585C51.2158 65.5218 53.4404 65.5688 53.8607 65.5796C53.8907 65.5804 53.9207 65.582 53.9505 65.5846L54.7113 65.6503L54.5948 65.6449C54.8884 65.6471 55.2007 65.6616 55.5033 65.6754C55.6594 65.6825 55.8131 65.6895 55.9749 65.6956L55.975 65.6957C56.1519 65.7024 56.2932 65.7041 56.4134 65.7054H56.4134C56.4787 65.7062 56.5619 65.707 56.6312 65.7097L56.6323 65.7097C56.6378 65.7099 56.6461 65.7102 56.6544 65.7106L56.6558 65.7107C56.6793 65.7118 56.7057 65.7132 56.7366 65.7157L56.7199 65.7145L59.1655 65.8796C59.1815 65.8807 59.1975 65.882 59.2135 65.8836L59.2129 65.8836C59.1801 65.8803 59.1593 65.8796 59.165 65.8798L59.1646 65.8798C59.2678 65.8843 59.6995 65.8838 60.5578 65.88H60.5577C60.6805 65.8795 60.7828 65.8838 60.8422 65.8862L60.8424 65.8862C60.8692 65.8873 60.8819 65.8878 60.888 65.8879L60.8204 65.8877L60.8207 65.8877L60.8886 65.8879C61.4323 65.9024 62.1535 65.9522 63.0032 66.0105C63.2928 66.0304 63.545 66.0478 63.8685 66.0693C64.3891 66.1039 64.7446 66.1045 64.9492 66.1049C64.9675 66.1049 65.0122 66.1051 65.029 66.1051H65.0289C65.2595 66.1064 65.339 66.1052 65.375 66.102L65.3742 66.102C65.3734 66.1021 65.379 66.1016 65.3739 66.1021L65.3773 66.1017L65.3813 66.1013L65.3779 66.1017C65.8547 66.0529 66.2862 66.0091 66.5455 66.0067H66.5447C66.5537 66.0066 66.5644 66.0065 66.5737 66.0066L66.5442 66.0068L67.6128 65.9864C67.6372 65.9859 67.6616 65.986 67.6859 65.9868C68.0772 65.9985 68.2717 65.9985 68.3227 65.9961L68.3228 65.9961C68.324 65.996 68.3141 65.9964 68.2967 65.998L68.4028 65.9922H68.403L68.2972 65.998C68.5603 65.9741 68.8456 65.9217 69.155 65.8341C69.9261 65.6158 70.7321 66.0508 70.9551 66.8057C71.1781 67.5606 70.7337 68.3495 69.9626 68.5678C69.4918 68.7011 69.0262 68.7897 68.5659 68.8315L68.4601 68.8374H68.4599L68.566 68.8315C68.5267 68.8351 68.4908 68.8372 68.4611 68.8386L68.4612 68.8386C68.2773 68.8472 67.9707 68.8424 67.5965 68.8312L67.6697 68.8316L66.6011 68.852C66.5913 68.8522 66.5814 68.8523 66.5716 68.8523C66.5722 68.8523 66.5739 68.8523 66.5738 68.8523L66.573 68.8523C66.4884 68.8531 66.2341 68.8753 65.68 68.932L65.6766 68.9324L65.6726 68.9328L65.6759 68.9324C65.6639 68.9336 65.6495 68.935 65.6414 68.9357L65.6406 68.9358C65.4307 68.9547 65.1852 68.9518 65.0128 68.9508H65.0127C65.0017 68.9508 64.9646 68.9507 64.9435 68.9506C64.7153 68.9502 64.286 68.9494 63.6714 68.9085C63.3522 68.8872 63.0814 68.8686 62.7998 68.8493C61.9227 68.7891 61.276 68.745 60.8098 68.7326L60.8777 68.7329H60.8775L60.8099 68.7326C60.7775 68.7318 60.7425 68.7303 60.7213 68.7295L60.7215 68.7295C60.6627 68.7271 60.6204 68.7255 60.571 68.7257H60.571C59.7726 68.7293 59.232 68.7313 59.0355 68.7228L59.0352 68.7227C59.0106 68.7217 58.9672 68.7195 58.918 68.7146L58.9654 68.7186L56.5198 68.5534C56.5142 68.553 56.5089 68.5527 56.5032 68.5522C56.513 68.553 56.5208 68.5534 56.5185 68.5533L56.5199 68.5533C56.5192 68.5533 56.5211 68.5534 56.5171 68.5532L56.5182 68.5532C56.4971 68.5524 56.4619 68.5519 56.3793 68.551H56.3794C56.2573 68.5496 56.0808 68.5476 55.8615 68.5392L55.8616 68.5392C55.6871 68.5326 55.523 68.5251 55.3681 68.518C55.051 68.5036 54.7986 68.4923 54.5721 68.4905C54.5333 68.4902 54.4944 68.4884 54.4557 68.485L53.695 68.4193L53.7848 68.4244C53.2685 68.4112 51.2413 68.373 50.8987 68.397L50.8985 68.397C50.6041 68.4176 51.1358 68.4373 51.5468 68.1587C50.8874 68.6061 49.9818 68.4453 49.5246 67.7995C49.0674 67.1536 49.2315 66.2671 49.8913 65.8195Z" fill="#FFA462"/>
<path d="M83.0973 65.4548L83.0973 65.4548C83.0399 65.4417 83.007 65.4407 83.0113 65.441H83.0115C83.0194 65.4413 83.0722 65.4422 83.1854 65.4297L83.1454 65.4347L83.9298 65.3264L83.867 65.3364L84.3153 65.2548C84.3325 65.2517 84.3497 65.2488 84.3669 65.2463C84.4735 65.2308 84.5817 65.2195 84.6889 65.2129L84.687 65.213C84.7402 65.2097 84.7989 65.2098 84.7769 65.21L84.7778 65.21C84.9443 65.2087 87.0206 65.2172 87.2328 65.222L87.2335 65.222C87.1867 65.2209 87.3007 65.2213 87.4007 65.234C88.1967 65.3351 88.7583 66.0488 88.655 66.8281C88.5517 67.6074 87.8226 68.1572 87.0266 68.056C87.1239 68.0684 87.2286 68.0684 87.1657 68.067L87.1664 68.067C86.994 68.0631 84.9492 68.0545 84.8012 68.0556H84.8021C84.7694 68.0559 84.8232 68.0561 84.8738 68.0529L84.8719 68.053C84.848 68.0545 84.8213 68.0572 84.7952 68.061L84.8468 68.0526L84.3985 68.1342C84.3777 68.138 84.3568 68.1413 84.3358 68.1442L83.5514 68.2525C83.5382 68.2544 83.5248 68.256 83.5115 68.2575C83.3045 68.2804 83.085 68.2936 82.8694 68.2833H82.8696C82.7414 68.2772 82.5933 68.2618 82.4372 68.2262C81.6555 68.0478 81.1695 67.2828 81.3518 66.5175C81.534 65.7522 82.3155 65.2764 83.0973 65.4548Z" fill="#FFA462"/>
<path d="M32.3104 65.8791L32.3103 65.8792C32.383 65.8419 32.4779 65.7889 32.6231 65.7074C32.8008 65.6077 33.0304 65.4787 33.2873 65.347C34.1469 64.9063 35.5713 64.2923 37.1659 64.5229C37.9733 64.6398 39.5938 64.8628 40.7078 66.1498C41.5902 67.1691 42.6676 68.5222 42.9333 70.0289C43.2425 71.782 43.5373 74.3291 43.0743 75.7059C42.4253 77.6359 40.4831 79.3858 38.4421 79.6016C35.8835 79.8722 33.9683 78.4579 32.7458 77.2728C31.6394 76.2001 30.5991 74.2807 30.5268 72.3489C30.4288 69.7312 30.7457 67.56 31.698 66.4421L31.698 66.4421C31.8155 66.3042 31.9519 66.1705 32.1105 66.051C32.7465 65.5716 33.6591 65.6877 34.1488 66.3104C34.6386 66.933 34.52 67.8264 33.884 68.3058C33.9166 68.2812 33.9312 68.2639 33.9305 68.2647C33.7597 68.4652 33.3325 69.5922 33.4317 72.2447C33.4736 73.3639 34.1411 74.6204 34.7912 75.2508C35.8347 76.2623 36.9133 76.901 38.1299 76.7723C38.8651 76.6946 39.9637 75.8553 40.3132 74.8161C40.5094 74.2327 40.405 72.4195 40.0688 70.5131C39.9543 69.864 39.4094 69.0516 38.49 67.9895C38.1665 67.6157 37.6329 67.4671 36.741 67.3381C36.1027 67.2458 35.3801 67.4864 34.6359 67.8679C34.4343 67.9713 34.2503 68.0744 34.0689 68.1762C33.94 68.2486 33.7911 68.3324 33.659 68.4001C32.9479 68.7646 32.0695 68.4959 31.6971 67.7997C31.3247 67.1036 31.5993 66.2437 32.3104 65.8791Z" fill="#FFA462"/>
<path d="M49.7134 73.7824C51.163 74.0302 53.6959 74.0513 54.6839 73.9695C55.2642 73.9215 56.0852 73.7896 57.2461 73.6016C59.093 73.3023 61.6255 72.8918 64.8485 72.5947C66.6799 72.4259 68.3439 73.0858 69.6973 73.5999C71.3293 74.2198 72.7399 74.735 74.4283 74.5793H74.4283C74.4794 74.5746 74.5296 74.5694 74.5811 74.5635L74.5811 74.5635C76.2962 74.3652 76.3554 76.3579 76.3124 76.0013V76.0013C76.3185 76.0513 76.3225 76.0989 76.3253 76.1423C76.3423 76.4078 76.3197 76.7092 76.3103 76.851C76.3033 76.9563 76.3009 76.9984 76.3006 77.0174L76.3006 77.0175C76.3003 77.0327 76.3025 76.9826 76.2932 76.9055L76.2932 76.9056C76.381 77.6337 76.4186 75.497 74.697 75.6971L74.6982 75.697C73.6207 75.8213 73.3182 77.1184 73.6215 76.3991C73.8899 75.7624 74.5857 75.4054 75.2733 75.5515C75.9609 75.6976 76.4428 76.3048 76.4175 76.9932L76.1502 84.2619C76.1469 84.3513 76.135 84.4402 76.1146 84.5275C75.2389 88.2814 73.6597 91.9714 71.3964 95.5955C71.3132 95.7286 71.2083 95.8474 71.0858 95.9472C70.3609 96.5375 69.333 96.798 68.2179 96.8224C65.3211 96.8857 62.6742 97.0439 60.2475 97.1891C58.2757 97.3071 56.4313 97.4176 54.7468 97.4567C51.4533 97.5331 46.9124 97.5552 41.1091 97.4688C39.1144 97.439 37.5905 97.0137 36.5934 96.7375C36.3746 96.6769 36.1948 96.6272 36.0398 96.5886L36.0399 96.5886C34.955 96.3182 34.6471 95.4005 34.6016 94.8114C34.5774 94.499 34.6069 94.1769 34.6418 93.9015L34.6418 93.9016C34.6445 93.8808 34.6474 93.8599 34.6504 93.8399C34.7512 93.173 35.3284 91.4901 36.1823 89.0228C36.5395 87.9906 37.9576 85.323 40.5492 81.2046C40.9702 80.5356 41.8656 80.3273 42.549 80.7395C43.2325 81.1517 43.4452 82.0282 43.0242 82.6972C40.4043 86.8605 39.1697 89.259 38.9355 89.9358C38.012 92.6044 37.5767 93.921 37.526 94.2565C37.5261 94.2559 37.5262 94.2554 37.5266 94.2524L37.5266 94.2525C37.4978 94.4792 37.4985 94.5741 37.5002 94.5967C37.4985 94.5744 37.3907 93.9887 36.7571 93.8308H36.7572C36.9571 93.8807 37.1754 93.9412 37.3849 93.9992C38.3519 94.2671 39.5645 94.5997 41.1533 94.6234C46.9281 94.7094 51.4308 94.687 54.678 94.6117C56.2978 94.5741 58.084 94.4675 60.0702 94.3486C62.4917 94.2038 65.1934 94.042 68.153 93.9774C68.9183 93.9606 69.201 93.7805 69.2268 93.7594L68.9162 94.1112C71.0344 90.7195 72.4827 87.3142 73.2806 83.8939L73.2451 84.1595L73.5125 76.8908L76.3085 77.4849C76.5136 76.9985 76.151 78.3947 75.0385 78.5231L75.0397 78.523C73.2986 78.7254 73.3245 76.5613 73.4063 77.2394L73.4063 77.2395C73.3923 77.1232 73.3932 77.0207 73.394 76.9723L73.394 76.9723C73.3957 76.8672 73.4043 76.7434 73.4095 76.666C73.4227 76.4667 73.427 76.3657 73.424 76.3199C73.424 76.3196 73.4243 76.3245 73.4255 76.3349L73.4255 76.3349C73.3536 75.738 73.3449 77.5719 74.922 77.3896L74.9221 77.3896C74.847 77.3983 74.7751 77.4057 74.7008 77.4126H74.7008C72.2412 77.6393 70.2269 76.8535 68.6458 76.2529C67.1604 75.6887 66.1504 75.3331 65.1211 75.428C62.0064 75.7151 59.5595 76.1112 57.7207 76.4091C56.6116 76.5888 55.653 76.7452 54.9288 76.8052C53.7579 76.9021 50.9663 76.8854 49.2135 76.5858C48.4227 76.4506 47.8936 75.7135 48.0316 74.9394C48.1697 74.1652 48.9227 73.6472 49.7134 73.7824Z" fill="#FFA462"/>
<path d="M61.4208 88.1612C61.451 86.3846 61.3153 85.562 61.2398 85.37L61.2398 85.37C61.2368 85.3623 61.2547 85.4122 61.3085 85.488C60.5177 84.3733 59.9251 83.9558 59.458 83.8461C59.0943 83.7608 58.653 83.7658 57.9895 83.8235C57.3673 83.8776 56.3483 84.0804 54.8804 84.4927C53.7558 84.8086 53.1837 85.2002 52.9121 85.5999C52.3547 86.4201 52.3132 87.2113 52.7105 88.1183L52.7105 88.1182C52.6263 87.926 52.522 87.8439 52.5415 87.8611L52.5416 87.8612C52.5955 87.9089 52.8694 88.0949 53.5478 88.3643C53.7878 88.4597 54.0744 88.5048 54.4142 88.4457C54.8656 88.3672 55.0852 88.1662 55.102 87.6314C55.1138 87.2573 54.8474 86.6088 53.7516 85.8346C52.7252 85.1095 51.9285 84.9625 51.4037 84.984L51.4039 84.984C51.7219 84.9709 51.9212 84.8449 51.8421 84.8854L51.8421 84.8854C51.7467 84.9343 51.5165 85.092 51.0803 85.3997C50.4916 85.8152 49.4407 86.5774 48.5976 86.8496C47.8352 87.0957 47.0134 86.6903 46.762 85.944C46.5106 85.1977 46.9248 84.3932 47.6871 84.147C47.9965 84.0472 48.6103 83.6347 49.3805 83.0912C49.72 82.8517 50.1654 82.5326 50.4942 82.3641L50.4943 82.3641C50.5656 82.3276 50.8837 82.1571 51.282 82.1408L51.2821 82.1407C52.5464 82.0889 53.9734 82.4819 55.4527 83.527C56.8495 84.5138 58.0638 85.9385 58.0076 87.7192C57.9468 89.6469 56.6807 90.9419 54.9226 91.2476C54.0162 91.4052 53.1755 91.2875 52.4549 91.0013C51.6989 90.701 51.0369 90.3651 50.5939 89.9737L50.5939 89.9738C50.4184 89.8187 50.1865 89.5768 50.0389 89.2399L50.0389 89.2399C49.2907 87.5319 49.3421 85.7156 50.4918 84.0238C51.3253 82.7971 52.6904 82.1473 54.0787 81.7574C55.6025 81.3294 56.8319 81.0673 57.7323 80.989C58.4174 80.9294 59.2731 80.8763 60.1358 81.0788C61.6799 81.4412 62.7997 82.6013 63.6961 83.8647C63.8157 84.0333 63.8965 84.2048 63.9526 84.3475L63.9526 84.3475C64.2589 85.1262 64.3567 86.4841 64.3273 88.2085C64.314 88.9943 63.6525 89.6206 62.8499 89.6075C62.0473 89.5945 61.4074 88.9469 61.4208 88.1612Z" fill="#FFA462"/>
<path d="M51.3903 78.5364C51.2655 79.1758 51.0699 80.0119 50.6725 81.0991C50.499 81.5739 49.4429 85.2355 49.4296 85.2819C49.3024 85.7233 48.9657 86.0777 48.5251 86.2337C48.0846 86.3897 47.5942 86.3283 47.208 86.0687C41.6751 82.3497 41.2229 81.9726 41.1142 81.8714C40.5324 81.3301 40.509 80.4295 41.0621 79.8599C41.6151 79.2903 42.5351 79.2674 43.1169 79.8088C43.0082 79.7077 43.1731 79.9047 48.8534 83.7227L46.6318 84.5095C46.6185 84.5556 47.7175 80.7368 47.9355 80.1404C48.2713 79.2217 48.4315 78.5327 48.535 78.0025C48.6856 77.2307 49.4468 76.7245 50.2353 76.8719C51.0238 77.0193 51.5409 77.7646 51.3903 78.5364Z" fill="#FFA462"/>
<path d="M48.5978 78.4251C46.0245 73.2107 44.4555 69.7824 43.6543 68.0318C43.4152 67.5093 43.2515 67.1518 43.1501 66.9401L41.222 62.9151L41.2471 62.9649C40.8107 62.1392 40.4256 61.3885 40.0818 60.7184C39.7985 60.1662 39.5458 59.6736 39.3122 59.2316C38.6266 57.9346 38.2117 57.2947 37.898 57.0072C37.7018 56.8274 37.2602 56.4309 34.908 56.8807L34.9081 56.8807C34.996 56.8639 35.0459 56.8435 35.0327 56.8484L35.0326 56.8484C34.6681 56.9849 33.3884 57.7818 33.011 58.2534L33.0109 58.2535C33.068 58.1822 33.0938 58.1324 33.0854 58.1474L33.0854 58.1474C32.9404 58.4055 32.6225 59.3205 32.6276 59.6721C32.6424 60.6914 33.2635 61.8768 34.6228 63.7869C35.0817 64.4317 34.9198 65.3186 34.2611 65.7678C33.6025 66.217 32.6966 66.0585 32.2377 65.4137C30.9332 63.5807 29.7501 61.7196 29.721 59.7125C29.7059 58.6669 30.2735 57.2475 30.5381 56.7764L30.5381 56.7764C30.5719 56.7161 30.6349 56.6082 30.7227 56.4985L30.7226 56.4986C31.5128 55.511 33.2892 54.4545 33.9939 54.1906L33.9938 54.1906C34.0744 54.1604 34.2019 54.1162 34.3507 54.0878L34.3507 54.0878C37.0023 53.5807 38.6508 53.799 39.8846 54.9297C40.6267 55.6098 41.2535 56.7121 41.8939 57.9237C42.1368 58.3832 42.3988 58.8941 42.6795 59.4413C43.024 60.1127 43.4014 60.8485 43.8288 61.6571C43.8375 61.6735 43.8459 61.6901 43.8539 61.7069L45.782 65.7318C45.8968 65.9716 46.0741 66.359 46.3072 66.8683C47.1031 68.6074 48.6592 72.0076 51.2152 77.1872C51.5644 77.8948 51.2616 78.7455 50.5388 79.0873C49.816 79.4292 48.947 79.1327 48.5978 78.4251Z" fill="#FFA462"/>
<path d="M41.9667 78.3567L41.9667 78.3568C41.9141 78.1761 41.8284 78.0594 41.8624 78.1127L41.8625 78.1128C41.9396 78.2338 42.2432 78.6131 42.4874 78.9152L42.4873 78.915L42.5018 78.933L42.5019 78.9331C42.7376 79.2248 42.9909 79.5696 43.1362 79.8382C43.1623 79.8864 43.2871 80.1081 43.3252 80.3828C43.4216 81.0775 42.9245 81.7171 42.2149 81.8115C41.5053 81.9058 40.852 81.4192 40.7556 80.7245C40.7863 80.9463 40.876 81.0845 40.8443 81.026L40.8443 81.026C40.8133 80.9687 40.6803 80.7708 40.4682 80.5083L40.4683 80.5084L40.4538 80.4905L40.4537 80.4903C40.2691 80.262 39.8379 79.7321 39.6623 79.4564L39.6623 79.4565C39.6507 79.4384 39.5352 79.2668 39.4729 79.0531C39.2765 78.379 39.6755 77.6767 40.3641 77.4843C41.0527 77.292 41.7702 77.6826 41.9667 78.3567Z" fill="#FFA462"/>
<path d="M47.5802 82.145L47.5801 82.1449C47.758 82.2715 47.938 82.3193 48.12 82.2882H48.1201C48.1038 82.291 48.0738 82.298 48.0302 82.3092L48.1507 82.2682C47.6694 82.4745 47.1818 82.6461 46.6878 82.7832L46.7819 82.7509L46.5023 82.866L46.5622 82.8385C46.2136 83.0156 45.9798 83.1273 45.8607 83.1735L45.8605 83.1736C45.8493 83.1779 45.8385 83.182 45.8282 83.1857L46.2469 82.8459C46.5268 82.3885 46.4333 82.023 45.9665 81.7495L45.9643 81.7482C45.8647 81.6903 45.7669 81.6566 45.6708 81.6472L45.6707 81.6472C45.6711 81.6472 45.6715 81.6473 45.6719 81.6473L45.6427 81.6454C45.7741 81.6518 45.8664 81.6577 45.9196 81.6629H45.9193C45.9603 81.6669 45.9974 81.6723 46.0308 81.6791L45.9376 81.6654L45.9378 81.6655L45.9689 81.6688C46.0559 81.6799 46.1411 81.6956 46.2243 81.7158C46.2358 81.7186 46.2472 81.7216 46.2586 81.7249L46.5754 81.8164C46.5935 81.8216 46.6114 81.8275 46.6291 81.8339L47.0775 81.9972L47.0628 81.992C47.0654 81.9929 47.0675 81.9934 47.0692 81.9937C47.0933 81.9977 47.1172 82.0027 47.1408 82.0088C47.0368 81.9821 46.9478 81.98 46.874 82.0026L47.1016 81.9664L46.8397 82.0138C46.5057 82.132 46.3365 82.3553 46.332 82.6839C46.338 82.2416 46.7092 81.8879 47.161 81.8938C47.6128 81.8997 47.9741 82.2631 47.968 82.7053C47.9624 83.1157 47.7716 83.3874 47.3956 83.5203L47.1337 83.5678C47.3841 83.5244 47.3728 83.5281 47.3613 83.5316C47.1365 83.6003 46.9247 83.6092 46.726 83.5582L46.7977 83.5733C46.7041 83.5578 46.6121 83.5346 46.5217 83.5036C46.5168 83.5019 46.5119 83.5002 46.5071 83.4984L46.0587 83.3352L46.1125 83.3527L45.7957 83.2612L45.8301 83.2704C45.8072 83.2648 45.7832 83.2604 45.7579 83.2572L45.7891 83.2606L45.7889 83.2606C45.737 83.2546 45.7162 83.2511 45.6956 83.2469C45.7192 83.2517 45.7396 83.255 45.7567 83.2567L45.7565 83.2567C45.7302 83.2541 45.665 83.2502 45.5608 83.2451C45.551 83.2447 45.5412 83.244 45.5315 83.2432C45.5234 83.2425 45.5158 83.2418 45.5085 83.2411L45.5085 83.2411C45.3637 83.227 45.237 83.1883 45.1284 83.1252L45.1262 83.1239C44.6567 82.8488 44.5624 82.4817 44.8433 82.0227C44.938 81.8669 45.0862 81.7463 45.262 81.6829C45.2604 81.6834 45.2591 81.6839 45.2581 81.6843L45.2579 81.6844C45.3255 81.6582 45.509 81.569 45.8083 81.4169C45.8279 81.4069 45.8478 81.3978 45.8681 81.3894L46.1476 81.2744C46.1783 81.2617 46.2097 81.251 46.2417 81.2421C46.6639 81.125 47.0815 80.9779 47.4946 80.8009C47.5336 80.7842 47.5739 80.7705 47.6151 80.7599C47.7032 80.7373 47.7779 80.7207 47.8394 80.7102L47.8395 80.7102C48.1122 80.6637 48.3463 80.71 48.5418 80.849C48.9073 81.1089 48.9884 81.6097 48.7229 81.9676C48.4573 82.3255 47.9457 82.4049 47.5802 82.145Z" fill="#FFA462"/>
<path d="M48.6627 77.9558C48.6583 78.1045 48.6902 78.2195 48.7586 78.3007C48.7373 78.2755 48.6924 78.2363 48.6237 78.183C48.6183 78.1789 48.613 78.1746 48.6077 78.1704C48.34 77.952 48.1561 77.8246 48.056 77.7882H48.056C48.0641 77.7911 48.0756 77.794 48.0905 77.7968C48.0128 77.7821 47.9377 77.7564 47.8676 77.7205C47.7519 77.6614 47.525 77.6689 47.1869 77.743L47.2464 77.7277C47.1959 77.7427 47.1522 77.7642 47.1153 77.7921L47.1796 77.7381C46.9411 77.9606 46.6845 78.1801 46.4096 78.3966L46.4493 78.3632C46.4465 78.3657 46.4444 78.3677 46.4432 78.369C46.4491 78.3628 46.4563 78.3534 46.4646 78.3406L46.518 78.2453C46.3967 78.5017 46.2751 78.7025 46.1533 78.8477L46.1533 78.8478C46.1061 78.9041 46.0571 78.9546 46.0064 78.9992C45.6989 79.27 45.2333 79.2735 44.9216 79.0073C44.757 78.8667 44.4752 78.7352 44.0762 78.6125L44.203 78.6409C44.0026 78.6123 43.8095 78.6493 43.6236 78.7521L43.6528 78.7352C43.2714 78.9669 43.0356 79.1463 42.9452 79.2736L42.9727 79.2322C42.876 79.3881 42.8364 79.488 42.854 79.5317C43.0193 79.9434 42.8124 80.4083 42.3919 80.5701C41.9714 80.7319 41.4965 80.5294 41.3312 80.1177C41.1159 79.5813 41.1969 79.0091 41.5742 78.4008C41.5829 78.3868 41.592 78.373 41.6016 78.3595C41.8208 78.0508 42.2169 77.7223 42.79 77.3742C42.7996 77.3684 42.8093 77.3627 42.8191 77.3573C43.3298 77.075 43.8699 76.9746 44.4394 77.056C44.4824 77.0621 44.5248 77.0716 44.5662 77.0843C45.1833 77.2739 45.6603 77.5126 45.9971 77.8002L44.9123 77.8083C44.9016 77.8177 44.8938 77.8254 44.8887 77.8315L44.8886 77.8315C44.9222 77.7915 44.9705 77.7049 45.0335 77.5719C45.049 77.539 45.0669 77.5071 45.0869 77.4765C45.1336 77.4051 45.1891 77.3361 45.2533 77.2695C45.2818 77.2399 45.3121 77.2108 45.3441 77.1821C45.357 77.1705 45.3703 77.1594 45.3839 77.1486C45.6231 76.9602 45.8454 76.7702 46.0507 76.5786C46.0712 76.5596 46.0926 76.5415 46.115 76.5246C46.3099 76.3772 46.5281 76.2674 46.7697 76.1954C46.7893 76.1896 46.8091 76.1844 46.8291 76.1801C47.5569 76.0204 48.1556 76.0606 48.6251 76.3007L48.4022 76.2244C48.4752 76.2383 48.5498 76.259 48.6259 76.2867L48.6259 76.2867C48.901 76.3868 49.244 76.6045 49.6551 76.9398L49.6392 76.9271C49.799 77.0509 49.9264 77.1693 50.0215 77.2824C50.2135 77.5105 50.3057 77.7506 50.2982 78.0025C50.2851 78.4446 49.9083 78.7926 49.4567 78.7797C49.005 78.7668 48.6496 78.3979 48.6627 77.9558Z" fill="#FFA462"/>
<path d="M42.5586 64.4735L42.5862 64.4766L42.586 64.4766L42.5584 64.4735C42.4306 64.4569 42.3445 64.4499 42.3002 64.4522C42.3043 64.452 42.31 64.4514 42.3173 64.4504C42.3096 64.4514 42.3018 64.4524 42.2941 64.4533L41.3542 64.5569L41.3982 64.5508C41.243 64.5763 40.9452 64.6715 40.5048 64.8363C40.4779 64.8464 40.4505 64.8551 40.4227 64.8623L40.4226 64.8623C40.4266 64.8613 40.4298 64.8604 40.4319 64.8597L40.432 64.8597C40.304 64.9009 39.997 65.0659 39.5112 65.3547C39.4195 65.4092 39.3176 65.4455 39.2116 65.4616C39.3506 65.4405 39.4627 65.3949 39.5477 65.3247L39.5477 65.3247C39.493 65.3699 39.3703 65.4956 39.1795 65.7019C39.1628 65.72 39.1453 65.7373 39.1269 65.7538L39.1269 65.7539C39.0781 65.7978 39.0216 65.8402 38.9575 65.8809C38.8799 65.9303 38.7823 65.9826 38.6647 66.0378C38.2575 66.2294 37.7687 66.0614 37.5731 65.6628C37.3774 65.2641 37.5489 64.7856 37.9562 64.5941C38.0108 64.5684 38.0476 64.5495 38.0666 64.5374C38.0537 64.5456 38.0379 64.5582 38.0191 64.5751L37.9665 64.627C38.2065 64.3674 38.3819 64.1919 38.4928 64.1003L38.4928 64.1003C38.6418 63.9773 38.7981 63.9034 38.9615 63.8786L38.6619 63.9856C39.2546 63.6332 39.6744 63.4174 39.9213 63.3379L39.9214 63.3379C39.9492 63.329 39.9763 63.3211 40.0027 63.3142L39.9205 63.3402C40.4625 63.1373 40.8647 63.0143 41.1272 62.9712C41.1418 62.9688 41.1564 62.9668 41.1712 62.9651L42.1111 62.8616L42.0879 62.8644C42.127 62.859 42.168 62.8551 42.2108 62.8529C42.3568 62.845 42.5441 62.8559 42.7729 62.8855L42.7453 62.8824L42.7455 62.8825C43.221 62.9435 43.5361 63.346 43.4769 63.7845C43.4177 64.223 43.0066 64.5315 42.5586 64.4735Z" fill="#FFA462"/>
<path d="M32.3433 63.115C32.7863 62.5065 33.1934 62.0846 33.5648 61.8493L33.3729 62.0184C33.4243 61.9562 33.4896 61.8966 33.569 61.8398L33.5691 61.8398C33.726 61.7276 34.1547 61.4809 34.8551 61.0998L34.7921 61.1378C35.6427 60.5708 36.1535 60.2421 36.3245 60.1515L36.3244 60.1515C36.7865 59.9068 37.1573 59.9852 37.4368 60.3867L37.4372 60.3872C37.6157 60.6442 37.6351 60.9128 37.4953 61.1929L36.3905 60.1269C36.9986 59.8253 37.4413 59.6469 37.7188 59.5916L37.7189 59.5916C37.745 59.5864 37.7705 59.582 37.7956 59.5783L37.7147 59.5943C38.0754 59.5042 38.5191 59.4151 39.046 59.3269L39.1677 59.3156H39.1678L39.025 59.3307C39.0342 59.3289 39.0437 59.3272 39.0533 59.3255L39.0535 59.3255C39.2057 59.299 39.5197 59.2732 39.9956 59.2479L39.9624 59.2504C39.9628 59.2503 39.9632 59.2503 39.9635 59.2502L39.9633 59.2503C39.9626 59.2504 39.9617 59.2506 39.9606 59.251C40.3879 59.1072 40.8533 59.3298 41.0002 59.7481C41.1471 60.1664 40.9197 60.622 40.4924 60.7658C40.4038 60.7956 40.3129 60.8178 40.2199 60.8322L40.2198 60.8322C40.1858 60.8375 40.1517 60.8417 40.1172 60.8449C40.1061 60.846 40.095 60.8468 40.084 60.8474C39.6745 60.8691 39.4265 60.8875 39.3399 60.9025L39.3401 60.9025C39.3407 60.9024 39.3415 60.9022 39.3427 60.902L39.1999 60.9171H39.1998C39.3352 60.9034 39.3285 60.9047 39.3216 60.9058C38.8381 60.9867 38.4374 61.0668 38.1193 61.1463C38.0927 61.153 38.0657 61.1583 38.0385 61.1623C38.0414 61.1619 38.0435 61.1615 38.0449 61.1612L38.0451 61.1612C37.9118 61.1878 37.6067 61.3193 37.13 61.5557C36.8164 61.7113 36.4363 61.6533 36.186 61.4117C35.9356 61.1701 35.8709 60.7989 36.0252 60.4897C35.8871 60.7665 35.9068 61.0327 36.0843 61.2882L36.0847 61.2888C36.3597 61.6837 36.6991 61.7742 37.103 61.5603L37.103 61.5603C36.9808 61.625 36.5175 61.9255 35.713 62.4618C35.6926 62.4754 35.6716 62.488 35.65 62.4998C35.0086 62.8488 34.6367 63.06 34.5342 63.1332L34.5343 63.1332C34.5701 63.1076 34.6072 63.0715 34.6455 63.0251C34.5912 63.091 34.5264 63.1481 34.4536 63.1941C34.2572 63.3186 33.9979 63.602 33.6758 64.0445C33.4136 64.4047 32.9028 64.4887 32.5348 64.232C32.1669 63.9753 32.0811 63.4752 32.3433 63.115Z" fill="#FFA462"/>
<path d="M41.1905 62.5923C41.2807 62.5891 41.3555 62.5738 41.4151 62.5463L41.4582 62.525C41.314 62.6019 41.2177 62.652 41.1694 62.6752L41.1696 62.6751C40.8475 62.8299 40.5513 62.8032 40.2808 62.5949L41.1083 62.7019C41.0882 62.7102 41.0671 62.7185 41.0449 62.7266L41.0447 62.7266C40.9777 62.751 40.8909 62.7772 40.7842 62.8054L41.0822 62.6577C40.9623 62.7515 40.8159 62.8105 40.6429 62.8349L40.6429 62.8349C40.5853 62.843 40.5015 62.8512 40.3915 62.8596L40.381 62.8604L39.9509 62.8878L39.9745 62.886C39.9606 62.8873 39.9414 62.8903 39.9169 62.8951C39.912 62.896 39.907 62.897 39.902 62.8979C39.7105 62.9317 39.5852 62.962 39.5262 62.9888C39.5379 62.9834 39.5528 62.9744 39.5709 62.9617C39.204 63.2198 38.6928 63.1378 38.4292 62.7786C38.1655 62.4194 38.2492 61.919 38.6162 61.6609C38.6819 61.6147 38.7558 61.5729 38.8377 61.5357C39.0241 61.4511 39.2821 61.3797 39.6118 61.3215L39.5969 61.3243C39.6764 61.3087 39.7511 61.2978 39.8208 61.2913C39.8287 61.2906 39.8366 61.29 39.8444 61.2895L40.2745 61.262L40.2641 61.2627C40.3389 61.257 40.3876 61.2526 40.4102 61.2494L40.4102 61.2494C40.2893 61.2664 40.1727 61.3188 40.0607 61.4065C40.1485 61.3377 40.25 61.2874 40.3586 61.2588C40.4164 61.2435 40.4552 61.2323 40.4751 61.2251L40.4749 61.2251C40.4726 61.226 40.4693 61.2273 40.4651 61.229C40.7403 61.114 41.0575 61.155 41.2926 61.336C41.0237 61.129 40.7423 61.0961 40.4484 61.2373L40.4485 61.2373C40.4759 61.2241 40.5514 61.1845 40.6751 61.1186C40.6892 61.111 40.7036 61.1039 40.7181 61.0972C40.8606 61.0315 40.9983 60.9963 41.1314 60.9916C41.583 60.9756 41.9622 61.321 41.9785 61.763C41.9949 62.2051 41.6421 62.5763 41.1905 62.5923Z" fill="#FFA462"/>
<path d="M42.8585 75.0566L42.8083 74.903L42.8322 74.9667L42.5677 74.3446C42.5591 74.3244 42.5514 74.304 42.5445 74.2832C42.3899 73.8151 42.1596 73.1838 41.8535 72.3892L41.8562 72.3961C41.5564 71.6387 41.3158 71.0789 41.1344 70.7165C40.9356 70.3193 41.1033 69.8395 41.5091 69.6449C41.9148 69.4502 42.4049 69.6144 42.6037 70.0117C42.8057 70.4153 43.0651 71.0171 43.3819 71.8173L43.3845 71.8241C43.6998 72.6426 43.9388 73.2981 44.1014 73.7904L44.0782 73.729L44.3427 74.3511C44.3516 74.372 44.3596 74.3932 44.3666 74.4148L44.4169 74.5684C44.5546 74.9897 44.3174 75.4405 43.8871 75.5753C43.4567 75.7101 42.9963 75.4779 42.8585 75.0566Z" fill="#FFA462"/>
<path d="M54.3552 37.4448C54.1629 37.4485 53.9539 37.4723 53.7283 37.5163C53.6079 37.5397 53.4921 37.5817 53.3842 37.6411L53.3839 37.6413L53.3839 37.6414C52.7665 37.9815 52.3508 38.2381 52.1367 38.4109L52.1367 38.411C52.064 38.4696 52.0005 38.5285 51.9461 38.5876L51.9458 38.5877C51.5964 38.9554 51.3641 39.3752 51.2489 39.8472L51.2484 39.8473C51.2117 39.9844 51.1895 40.127 51.1818 40.2751L51.1818 40.2752C51.174 40.4236 51.1811 40.5777 51.2029 40.7373L51.2024 40.7374C51.2044 41.0526 51.2313 41.3175 51.2833 41.5321C51.3433 41.7798 51.4403 41.9917 51.5744 42.1679L51.5738 42.168C51.6539 42.3007 51.7521 42.4264 51.8685 42.5451L51.8685 42.5452C52.0591 42.7395 52.3003 42.9154 52.5921 43.0728L52.5921 43.0729C52.647 43.1025 52.7043 43.1277 52.7634 43.1483C53.5672 43.4284 54.1163 43.5926 54.4108 43.641L54.4109 43.6411C54.5205 43.6591 54.6253 43.6671 54.7253 43.6652C54.8307 43.6632 54.9308 43.65 55.0255 43.6258L55.0256 43.6258C55.063 43.6162 55.0998 43.6048 55.136 43.5917C55.2261 43.5589 55.31 43.5198 55.3877 43.4741L55.3882 43.4742C55.4173 43.5149 55.4494 43.5543 55.4847 43.5921C55.7194 43.8433 56.0428 43.9678 56.3652 43.9616C56.6375 43.9564 56.9091 43.8579 57.1259 43.6639C57.3257 43.485 57.487 43.2729 57.6098 43.0274C57.8786 42.4905 57.9477 41.8098 57.8171 40.9854L57.817 40.9855C57.6557 39.9034 57.1954 39.005 56.4362 38.2901L56.4356 38.2902C56.329 38.1724 56.202 38.0654 56.0547 37.9691L56.0547 37.9692C55.8038 37.8052 55.4755 37.6633 55.0699 37.5435L55.0693 37.5436C54.9123 37.4917 54.743 37.4602 54.5615 37.4489L54.5615 37.449C54.495 37.4448 54.4263 37.4434 54.3552 37.4448Z" fill="#FFA462"/>
<path d="M72.1755 37.5247C72.1195 37.5258 72.0628 37.529 72.0055 37.5345L72.0048 37.5346C71.0031 37.6029 69.9916 38.0909 68.9701 38.9983C68.958 39.0091 68.9461 39.0202 68.9345 39.0314C68.532 39.4206 68.254 39.7297 68.1005 39.9586L68.1005 39.9586C68.0575 40.0227 68.0201 40.0858 67.9882 40.1477L67.9876 40.1478C67.671 40.699 67.4627 41.2904 67.3625 41.9221C67.2641 42.5428 67.6983 43.124 68.3323 43.2203C68.4004 43.2307 68.468 43.235 68.5347 43.2337C69.0881 43.2231 69.5706 42.8249 69.6584 42.271C69.66 42.2609 69.6617 42.2508 69.6634 42.2408L69.6641 42.2408C70.0139 42.7469 70.4348 43.0954 70.9266 43.2864L70.9267 43.2865C70.9933 43.3123 71.0608 43.3351 71.1293 43.3547L71.1293 43.3547C71.1635 43.3645 71.1982 43.3727 71.2331 43.3794C71.4313 43.4172 71.6243 43.4344 71.812 43.4308C71.9111 43.4289 72.0087 43.4212 72.1048 43.4077L72.1048 43.4078C72.1235 43.4051 72.1421 43.4023 72.1607 43.3992L72.16 43.3993C72.5303 43.3541 72.9209 43.2326 73.3318 43.0346C73.3991 43.0022 73.463 42.9635 73.5227 42.919C74.4019 42.2636 74.7578 41.3322 74.5903 40.1248C74.5848 40.085 74.5771 40.0456 74.5673 40.0066C74.3499 39.1398 74.0261 38.5023 73.596 38.094C73.1854 37.7041 72.7119 37.5144 72.1755 37.5247Z" fill="#FFA462"/>
<path d="M71.4374 41.5864C71.4224 41.4443 71.3378 41.3419 71.1838 41.2791L71.1422 41.2631C71.2337 41.2963 71.3489 41.3183 71.4878 41.3292L71.4283 41.3261C71.5286 41.3287 71.5959 41.3287 71.6304 41.3261L71.6305 41.3261C71.407 41.343 71.2017 41.4491 71.0146 41.6444C71.44 41.2004 72.1525 41.178 72.6061 41.5944C73.0597 42.0109 73.0826 42.7084 72.6572 43.1525C72.4457 43.3732 72.1613 43.4971 71.8038 43.5241H71.8039C71.6915 43.5326 71.5462 43.5345 71.3678 43.5299C71.348 43.5293 71.3281 43.5283 71.3083 43.5267C70.9623 43.4997 70.6461 43.4342 70.3597 43.3303C70.3458 43.3252 70.3319 43.3199 70.3181 43.3143C69.6482 43.0412 69.2746 42.5411 69.1975 41.8141C69.1333 41.2086 69.5827 40.6667 70.2012 40.6039C70.8198 40.541 71.3732 40.9809 71.4374 41.5864Z" fill="#FFA462"/>
<path d="M71.4688 41.117L71.5739 41.5797L71.5376 41.4542C71.5294 41.4311 71.5219 41.4133 71.5152 41.4009L71.5152 41.401C71.5313 41.4306 71.5661 41.4795 71.6196 41.5477L71.5385 41.4551C71.5433 41.46 71.547 41.4635 71.5495 41.4654C71.5344 41.4537 71.513 41.445 71.4851 41.4393C71.5 41.4424 71.515 41.4458 71.5298 41.4494C71.5182 41.4466 71.5092 41.4449 71.5027 41.4445H71.5026C71.5419 41.4469 71.6082 41.4352 71.7014 41.4092L71.7036 41.4086C71.9143 41.3503 72.0529 41.3019 72.1193 41.2634L72.1194 41.2633C72.0859 41.2828 72.0479 41.316 72.0054 41.3629C72.0143 41.3531 72.0233 41.3435 72.0325 41.334C72.2069 41.1542 72.2938 40.9477 72.2933 40.7146L72.3119 40.9151C72.2779 40.7315 72.1597 40.58 71.9574 40.4608C71.4078 40.1367 71.2306 39.4379 71.5616 38.8999C71.8925 38.3618 72.6064 38.1883 73.156 38.5123C73.9582 38.9852 74.4389 39.6508 74.598 40.5089C74.6102 40.575 74.6165 40.6421 74.6166 40.7094C74.6186 41.5497 74.3189 42.2799 73.7175 42.9L73.7445 42.8711C73.6262 43.0019 73.4794 43.1181 73.3043 43.2198L73.3044 43.2197C73.0636 43.3595 72.7405 43.4854 72.3348 43.5975L72.3371 43.5969C71.9884 43.694 71.6619 43.7332 71.3575 43.7146H71.3575C71.2201 43.7061 71.0873 43.686 70.9591 43.6542L71.0037 43.6644C70.6771 43.5967 70.3791 43.4587 70.1097 43.2505C70.0221 43.1828 69.9383 43.108 69.8586 43.0263C69.8299 42.9969 69.8028 42.966 69.7774 42.9337C69.6452 42.7652 69.5407 42.6103 69.4639 42.4691L69.464 42.4691C69.4141 42.3773 69.3735 42.2872 69.3422 42.1988C69.3276 42.1576 69.3155 42.1157 69.3058 42.0733L69.2008 41.6105C69.0616 40.9974 69.4564 40.3899 70.0827 40.2536C70.709 40.1173 71.3296 40.5039 71.4688 41.117Z" fill="#FFA462"/>
<path d="M56.6042 35.1175C56.6342 35.1589 56.6612 35.1893 56.6851 35.2088C56.6734 35.1993 56.6527 35.1852 56.6229 35.1666L56.7384 35.23C56.6371 35.1816 56.5672 35.1513 56.5285 35.139L56.5285 35.139C56.6808 35.1876 56.8587 35.1808 57.0623 35.1189C57.0217 35.1312 56.9805 35.1414 56.9387 35.1493C57.2764 35.0851 57.4581 34.9121 57.4838 34.6302L57.4875 34.4838C57.4871 34.4747 57.4865 34.4678 57.4856 34.463L57.4856 34.4631C57.5012 34.5481 57.5751 34.6899 57.7073 34.8882L57.6854 34.8567C57.7932 35.0071 57.8782 35.0985 57.9403 35.131L57.9404 35.1311C57.9403 35.131 57.9401 35.1309 57.9397 35.1307L57.9318 35.1269C58.0077 35.163 58.0609 35.186 58.0913 35.1958C58.0162 35.1715 57.921 35.1634 57.8055 35.1713C57.8719 35.1667 57.9386 35.1678 58.0049 35.1744C58.032 35.1771 58.0515 35.1777 58.0634 35.176C58.0572 35.1769 58.049 35.1792 58.0386 35.183C58.0668 35.1726 58.0955 35.1633 58.1245 35.1551C58.0436 35.178 57.9826 35.2054 57.9415 35.2372C57.9623 35.2211 57.9939 35.1895 58.0362 35.1424L57.9941 35.192C57.8199 35.4097 57.765 35.6303 57.8295 35.8538C57.8258 35.8409 57.8223 35.8279 57.8191 35.8149L57.8191 35.8148C57.8194 35.8163 57.8197 35.8175 57.82 35.8182L57.8199 35.818C57.797 35.739 57.7225 35.5998 57.5965 35.4004L57.6266 35.4456C57.6033 35.4124 57.5767 35.3847 57.5466 35.3626L57.591 35.3937C57.5963 35.3972 57.6005 35.3998 57.6035 35.4016C57.5123 35.3491 57.3016 35.2712 56.9715 35.1679L56.9788 35.1702C56.9922 35.1743 57.0027 35.1771 57.0103 35.1785L57.0103 35.1785C56.9672 35.1703 56.8874 35.1654 56.7707 35.164C56.1292 35.1562 55.6156 34.6408 55.6236 34.0127C55.6315 33.3847 56.1581 32.8819 56.7996 32.8897C57.0567 32.8929 57.2757 32.9118 57.4567 32.9464L57.4566 32.9464C57.5322 32.9609 57.6039 32.9785 57.6715 32.9992L57.6788 33.0014C58.1734 33.1562 58.5407 33.3026 58.7807 33.4407C58.8219 33.4644 58.861 33.4885 58.8979 33.5131C58.913 33.5232 58.9277 33.5335 58.9423 33.5442C59.1754 33.7157 59.3755 33.9206 59.5425 34.1589C59.5529 34.1737 59.5629 34.1888 59.5726 34.2041C59.8121 34.5833 59.9728 34.914 60.0548 35.1963L60.0547 35.1961C60.0624 35.2223 60.0694 35.2485 60.0759 35.2744L60.0654 35.2354C60.2148 35.753 60.134 36.2061 59.8231 36.5946C59.8096 36.6115 59.7955 36.628 59.7811 36.6442C59.6456 36.795 59.5121 36.9212 59.3805 37.0228C59.1842 37.1745 58.9811 37.2801 58.7714 37.3396L58.8573 37.3116C58.7069 37.3671 58.5496 37.406 58.3855 37.4285C58.1879 37.4556 57.9822 37.4585 57.7685 37.4371L57.9678 37.4402C57.7791 37.4531 57.5775 37.4249 57.3631 37.3556C57.2346 37.3141 57.0858 37.2532 56.9169 37.1729L56.909 37.1691C56.8878 37.1589 56.8668 37.1483 56.8459 37.1374L56.8461 37.1375C56.4577 36.9345 56.1035 36.6096 55.7833 36.1627C55.7759 36.1523 55.7686 36.1418 55.7615 36.1312C55.4572 35.6746 55.2696 35.2522 55.1986 34.8637L55.1986 34.8637C55.1807 34.7659 55.1698 34.6695 55.166 34.5745C55.164 34.5256 55.1652 34.4768 55.1696 34.4281C55.2475 33.5737 55.6896 33.0698 56.4958 32.9166L56.3723 32.947C56.6397 32.8656 56.9317 32.8754 57.2484 32.9764L57.2483 32.9764C57.3891 33.0213 57.5585 33.091 57.7564 33.1855C57.7962 33.2044 57.8347 33.2256 57.872 33.2488C57.9852 33.3195 58.0855 33.3905 58.1731 33.4621C58.3031 33.5682 58.4112 33.6805 58.4973 33.799C58.8692 34.3108 58.7469 35.0208 58.2242 35.3849C57.7014 35.749 56.9761 35.6293 56.6042 35.1175Z" fill="#FFA462"/>
<path d="M69.4095 35.2446C69.2104 35.289 69.0822 35.3211 69.0249 35.3409L69.0249 35.3409C69.1593 35.2943 69.2869 35.2041 69.4078 35.0702C69.2561 35.2382 69.0571 35.3585 68.8357 35.4161L68.8357 35.4161C68.9552 35.385 69.0496 35.3437 69.1188 35.292C69.0722 35.3268 68.9865 35.4068 68.8618 35.5321L68.9631 35.4157C68.8659 35.5439 68.8097 35.6378 68.7944 35.6973C68.8064 35.6505 68.8006 35.5916 68.7769 35.5205C68.7813 35.5336 68.7855 35.5469 68.7894 35.5603C68.7368 35.3805 68.6142 35.2412 68.4214 35.1424C68.4386 35.1513 68.4556 35.1605 68.4724 35.1702C68.3448 35.0966 68.2296 35.0574 68.1267 35.0526C68.1548 35.054 68.2047 35.0514 68.2763 35.0451L68.2297 35.0502L68.2298 35.0502L68.227 35.0505C68.3815 35.0303 68.5419 34.9915 68.7082 34.934L68.7041 34.9354C68.6758 34.9453 68.6539 34.9544 68.6383 34.9627L68.6383 34.9628C68.6895 34.9353 68.7814 34.8699 68.914 34.7665L68.8741 34.7991C68.8754 34.798 68.8763 34.7971 68.8769 34.7966C68.8542 34.8188 68.8385 34.8511 68.8297 34.8935L68.8097 35.0332C68.8104 35.024 68.8107 35.0173 68.8106 35.013C68.8139 35.1277 68.8772 35.2417 69.0003 35.3553C68.9866 35.3426 68.9732 35.3296 68.9601 35.3163C69.0704 35.4285 69.1801 35.487 69.2891 35.4917L69.289 35.4917C69.2884 35.4916 69.2875 35.4916 69.2862 35.4916L69.5006 35.4725C69.343 35.5011 69.2401 35.5227 69.1919 35.5371L69.1919 35.5371C69.1975 35.5354 69.205 35.5328 69.2145 35.5293C69.2077 35.5318 69.2009 35.5343 69.194 35.5367C69.2936 35.5021 69.3681 35.4617 69.4174 35.4157C69.4159 35.4171 69.4137 35.4193 69.4106 35.4224C68.9702 35.8792 68.235 35.8999 67.7684 35.4687C67.3019 35.0375 67.2808 34.3178 67.7212 33.8611C67.752 33.8291 67.7828 33.7988 67.8136 33.77C68.0037 33.5924 68.2049 33.4668 68.4173 33.393L68.3968 33.4004C68.4336 33.3868 68.4729 33.3738 68.5148 33.3613L68.5148 33.3613C68.646 33.3222 68.8329 33.2805 69.0757 33.2363C69.1464 33.2235 69.2182 33.217 69.2901 33.2172C69.3245 33.2172 69.3585 33.218 69.3921 33.2194L69.392 33.2194C69.9009 33.2415 70.3148 33.4145 70.6335 33.7385L70.5933 33.6995C70.9383 34.0177 71.1182 34.4341 71.1331 34.9489C71.1355 35.0329 71.1332 35.1192 71.1263 35.2078C71.1226 35.2547 71.1159 35.3014 71.1063 35.3475C71.0224 35.7508 70.8277 36.1024 70.5224 36.4023C70.4839 36.4401 70.4438 36.4769 70.402 36.5125C70.389 36.5236 70.3757 36.5345 70.3622 36.5451C70.1248 36.7303 69.9216 36.8682 69.7526 36.9586L69.7526 36.9586C69.6612 37.0075 69.5723 37.047 69.4859 37.0773L69.4818 37.0787C69.164 37.1885 68.8483 37.264 68.5345 37.305L68.5317 37.3053L68.5316 37.3054C68.518 37.3071 68.5015 37.3089 68.4851 37.3104C68.3073 37.3261 68.151 37.3308 68.0163 37.3246C67.7367 37.3115 67.4957 37.2467 67.2933 37.13L67.3443 37.1578C66.9486 36.9551 66.6857 36.6311 66.5556 36.1858L66.568 36.2256C66.453 35.8804 66.4442 35.5189 66.5415 35.1411C66.6319 34.7905 66.8169 34.4304 67.0967 34.061C67.1278 34.02 67.1616 33.9811 67.198 33.9446C67.4024 33.7393 67.5733 33.5854 67.7107 33.4829C67.8858 33.3523 68.062 33.2639 68.2394 33.2178L67.6672 33.5637C67.8118 33.4036 68.0057 33.2814 68.2492 33.197L68.2492 33.197C68.3916 33.1476 68.6064 33.0909 68.8936 33.0269C69.5191 32.8874 70.1417 33.2708 70.2842 33.8832C70.4267 34.4956 70.0351 35.1051 69.4095 35.2446Z" fill="#FFA462"/>
<path d="M67.03 35.3336C66.855 34.7882 66.975 34.2815 67.3902 33.8136C67.4304 33.7683 67.4741 33.7263 67.521 33.6878C67.8301 33.4341 68.1344 33.2525 68.4338 33.1429L68.4338 33.1429C68.5346 33.106 68.6353 33.0769 68.7361 33.0557C68.7522 33.0523 68.7683 33.0492 68.7846 33.0465C69.0272 33.0058 69.2721 33.0203 69.5192 33.0901L69.5212 33.0906C69.6194 33.1185 69.7519 33.161 69.9185 33.2181C69.9317 33.2226 69.9447 33.2274 69.9576 33.2323C70.1118 33.2913 70.2466 33.3685 70.3622 33.464C70.4111 33.5045 70.4566 33.5488 70.4981 33.5966C70.9171 34.0792 71.033 34.5894 70.8456 35.127C70.6385 35.7215 69.9783 36.039 69.3711 35.8362C68.7639 35.6335 68.4395 34.9872 68.6466 34.3928C68.5499 34.6703 68.577 34.8959 68.7277 35.0696L68.8636 35.2022C68.9441 35.2687 69.0268 35.3182 69.1117 35.3507L69.1508 35.3648C69.0239 35.3214 68.9316 35.2914 68.8738 35.275L68.8757 35.2756C68.9695 35.302 69.0699 35.3063 69.1769 35.2883L69.2254 35.2791C69.2352 35.277 69.2426 35.2751 69.2477 35.2732L69.2476 35.2733C69.1971 35.2918 69.119 35.3443 69.0135 35.4309L69.1443 35.3051C69.297 35.133 69.3311 34.9152 69.2466 34.6517C69.4389 35.2509 69.0986 35.8893 68.4865 36.0776C67.8745 36.2659 67.2224 35.9328 67.03 35.3336Z" fill="#FFA462"/>
<path d="M44.2214 42.801C44.0636 42.7588 43.9542 42.7281 43.886 42.709L43.8861 42.709C43.845 42.6974 43.8287 42.6929 43.8156 42.6894L43.8158 42.6894C43.8139 42.6889 43.8113 42.6882 43.8119 42.6884L43.812 42.6884C43.8122 42.6885 43.8158 42.6894 43.8223 42.6909C43.8179 42.6899 43.8132 42.6888 43.8088 42.6877L43.2958 42.567L43.3341 42.5754L42.4063 42.3838L42.4702 42.3955C42.2711 42.3637 42.1474 42.3513 42.0771 42.3485H42.0773C42.0519 42.3475 42.0276 42.346 42.0122 42.3449L42.012 42.3449C41.8191 42.3315 41.1311 42.2575 40.6452 42.1381C39.8967 41.9541 39.4423 41.2109 39.6303 40.4781C39.8183 39.7454 40.5774 39.3005 41.326 39.4845C41.5896 39.5493 42.0974 39.608 42.2103 39.6159L42.2101 39.6158C42.2117 39.6159 42.2052 39.6154 42.1901 39.6148L42.1903 39.6148C42.424 39.6241 42.6742 39.656 42.9193 39.6951C42.9407 39.6985 42.962 39.7024 42.9833 39.7068L43.9111 39.8984C43.9239 39.9011 43.9367 39.9039 43.9494 39.9069L44.4624 40.0277L44.4489 40.0246C44.4732 40.03 44.4964 40.0357 44.5169 40.0409L44.517 40.041C44.5281 40.0438 44.5404 40.047 44.5504 40.0497L44.5506 40.0497C44.5856 40.0591 44.624 40.0699 44.6574 40.0793L44.6575 40.0793C44.7223 40.0976 44.8154 40.1237 44.9564 40.1613C45.7009 40.36 46.14 41.1119 45.9371 41.8408C45.7341 42.5698 44.966 42.9996 44.2214 42.801Z" fill="#FFA462"/>
<path d="M45.6807 46.5682L45.7704 46.5694H45.7702L45.6803 46.5682C45.693 46.5688 45.7332 46.5699 45.7923 46.5612L45.7924 46.5612C45.5724 46.5934 45.3764 46.6186 45.2036 46.6402L45.2044 46.6401C45.1227 46.6504 45.0346 46.6518 45.0643 46.6508C45.0472 46.6514 45.0273 46.6519 45.007 46.6524C44.9858 46.653 44.9213 46.6548 44.8771 46.6561H44.8772C44.8402 46.6572 44.7994 46.6592 44.7391 46.6622H44.7392C44.6996 46.6641 44.6586 46.6662 44.6103 46.6682H44.6102C44.5978 46.6687 44.5798 46.6701 44.5191 46.6758L44.5187 46.6759L44.51 46.6767L44.5085 46.6768C44.5111 46.6766 44.5121 46.6765 44.5114 46.6765L44.5123 46.6764C44.4853 46.6793 44.4244 46.6885 44.2631 46.7142L44.2632 46.7142C44.1937 46.7252 44.0981 46.7404 44.0047 46.7547L44.0354 46.7497L44.0351 46.7497L44.0043 46.7548C43.7928 46.7872 43.6102 46.7998 43.4994 46.8077L43.4997 46.8077C43.51 46.807 43.4547 46.811 43.4672 46.8101H43.4672C43.3657 46.8175 43.2608 46.8248 43.1797 46.8275L43.1803 46.8275C43.1716 46.8278 43.1606 46.8281 43.1511 46.8283L43.1521 46.8283C43.08 46.8299 42.9712 46.8332 42.8275 46.8395C42.8173 46.84 42.8071 46.8403 42.7968 46.8405L42.6032 46.8448L42.6593 46.8424L42.4217 46.8572C42.4061 46.8582 42.3906 46.8589 42.3749 46.8594C42.1409 46.866 42.0136 46.8706 41.9961 46.8713L41.9941 46.8714C41.9894 46.8716 41.9999 46.8711 42.0003 46.8711L42.0053 46.8709L42.0024 46.871L42.0018 46.8711C41.9839 46.872 41.935 46.8762 41.8143 46.8883L41.8138 46.8884C41.7778 46.892 41.7433 46.8939 41.7355 46.8944L41.735 46.8944C41.6281 46.9005 41.333 46.9095 41.0691 46.9146C40.3182 46.929 39.6976 46.3449 39.6829 45.6098C39.6681 44.8748 40.2648 44.2673 41.0157 44.2528C41.2786 44.2478 41.528 44.2394 41.5778 44.2366L41.5773 44.2366C41.5857 44.2362 41.5659 44.2371 41.5363 44.24L41.5358 44.2401C41.6381 44.2298 41.7584 44.2177 41.8571 44.2126L41.8565 44.2126L41.8594 44.2125L41.8644 44.2122C41.8735 44.2118 41.8741 44.2117 41.8798 44.2115L41.8778 44.2116C41.9175 44.2099 42.0619 44.2049 42.2956 44.1982L42.2488 44.2004L42.4864 44.1856C42.5051 44.1844 42.5238 44.1836 42.5425 44.1832L42.7361 44.179L42.7055 44.18C42.8696 44.1727 42.9963 44.1689 43.0892 44.1668L43.0901 44.1668C43.0867 44.1668 43.0877 44.1668 43.0861 44.1669L43.0867 44.1668C43.1029 44.1663 43.1529 44.1634 43.2651 44.1552H43.2652C43.2928 44.1532 43.2743 44.1545 43.3006 44.1526L43.3009 44.1526C43.4137 44.1445 43.4952 44.1381 43.5837 44.1246L43.5529 44.1297L43.5531 44.1296L43.5837 44.1246C43.6736 44.1108 43.7524 44.0983 43.8273 44.0864L43.8273 44.0863C43.9513 44.0666 44.1016 44.0422 44.2178 44.0298L44.2187 44.0297C44.2293 44.0286 44.239 44.0276 44.252 44.0264L44.2505 44.0266L44.2593 44.0257L44.2588 44.0258C44.3083 44.0211 44.3974 44.0124 44.494 44.0084L44.4939 44.0084C44.5288 44.0069 44.563 44.0052 44.6021 44.0033H44.6022C44.6567 44.0006 44.7247 43.9972 44.7928 43.9951H44.793C44.8428 43.9936 44.9114 43.9918 44.9331 43.9912C44.9593 43.9905 44.967 43.9903 44.9726 43.9901C45.0162 43.9886 44.937 43.9896 44.858 43.9996L44.8588 43.9995C45.025 43.9787 45.1979 43.9564 45.3907 43.9282L45.3907 43.9282C45.5439 43.9058 45.6853 43.9034 45.8066 43.9089L45.7168 43.9077H45.717C46.5569 43.9429 47.1368 44.5659 47.102 45.3002C47.0672 46.0346 46.4308 46.6023 45.6807 46.5682Z" fill="#FFA462"/>
<path d="M83.3855 39.4977L83.3856 39.4977C83.4069 39.4932 83.429 39.4887 83.4375 39.487L83.4392 39.4866C83.4412 39.4862 83.4426 39.486 83.443 39.4859L83.4431 39.4858C83.444 39.4857 83.4395 39.4866 83.4394 39.4866L83.4435 39.4857C83.4522 39.484 83.4413 39.4862 83.4403 39.4864L83.4359 39.4874C83.4984 39.474 83.5486 39.4634 83.5755 39.4579L83.5748 39.4581C83.5684 39.4594 83.6079 39.4511 83.6482 39.4448L83.6057 39.4521L83.7416 39.4266L83.7203 39.4308C83.7441 39.426 83.7678 39.4209 83.7954 39.4143L83.7956 39.4143C84.001 39.3651 84.1625 39.3273 84.2603 39.3069L84.2602 39.3069C84.3597 39.2861 84.5222 39.254 84.7449 39.2121L84.745 39.2121C84.8138 39.1992 84.8762 39.1885 84.9339 39.1788C84.9392 39.178 84.9442 39.1772 84.9494 39.1763L85.2791 39.125L85.2419 39.1313C85.3472 39.112 85.5606 39.0765 85.5563 39.0772L85.5564 39.0772C85.6319 39.0646 85.6946 39.0545 85.7547 39.0448C85.8061 39.0365 85.8448 39.0303 85.8827 39.024L85.8828 39.024C85.9005 39.021 85.9154 39.0185 85.9289 39.0161C85.9393 39.0143 85.9497 39.0126 85.9601 39.011L86.1248 38.986L86.1088 38.9885C86.1372 38.9839 86.1444 38.9825 86.147 38.982L86.1467 38.982C86.1478 38.9818 86.1458 38.9822 86.1459 38.9822L86.1463 38.9821C86.2825 38.9532 86.4121 38.9234 86.5354 38.8942C87.2976 38.7139 88.0647 39.1725 88.2489 39.9186C88.4331 40.6647 87.9646 41.4157 87.2025 41.596C87.0672 41.628 86.9156 41.6631 86.7473 41.6988L86.7477 41.6987C86.7337 41.7017 86.7288 41.7027 86.7159 41.7053L86.7155 41.7053C86.658 41.7168 86.6073 41.7251 86.5769 41.7301C86.5715 41.731 86.5662 41.7318 86.5609 41.7326L86.3962 41.7577L86.4274 41.7526C86.4064 41.7563 86.3799 41.7608 86.3594 41.7642L86.3595 41.7642C86.3122 41.772 86.2655 41.7796 86.2161 41.7875C86.1584 41.7968 86.0969 41.8067 86.033 41.8174L86.0331 41.8174C86.0279 41.8183 85.8405 41.8495 85.7626 41.8638C85.7502 41.866 85.7378 41.8681 85.7254 41.8701L85.3957 41.9214L85.4113 41.9189C85.3641 41.9268 85.3218 41.9341 85.2798 41.942L85.2799 41.942C85.0685 41.9817 84.9248 42.0103 84.8524 42.0254L84.8524 42.0254C84.8034 42.0356 84.684 42.0632 84.4701 42.1144L84.4703 42.1143C84.3975 42.1317 84.3384 42.1441 84.296 42.1527C84.2889 42.1541 84.2819 42.1555 84.2748 42.1568L84.139 42.1822C84.1248 42.1849 84.1107 42.1873 84.0965 42.1895C84.135 42.1835 84.1665 42.1767 84.1508 42.1799L84.15 42.1801C84.1416 42.1818 84.108 42.1888 84.0412 42.2031L84.0368 42.204C84.0324 42.205 84.0258 42.2063 84.0309 42.2053L84.0351 42.2044C84.0278 42.2059 84.0316 42.2051 84.0247 42.2066L84.0248 42.2065C84.0196 42.2076 84.0181 42.2079 84.0125 42.209L84.0141 42.2087C84.0063 42.2103 83.9928 42.213 83.9798 42.2158C83.2131 42.3764 82.4585 41.8982 82.2944 41.1476C82.1303 40.397 82.6188 39.6583 83.3855 39.4977Z" fill="#FFA462"/>
<path d="M83.6233 43.0147L83.6449 43.0201L83.645 43.0202L83.6235 43.0148C83.7114 43.036 83.8986 43.0851 84.0951 43.1985L84.1357 43.2229L84.1358 43.2229L84.0953 43.1986C84.298 43.3157 84.4009 43.3652 84.4251 43.3756L84.4249 43.3755C84.4246 43.3754 84.4221 43.3743 84.4171 43.3724L84.4155 43.3718C84.4123 43.3705 84.4111 43.37 84.4098 43.3696C84.4281 43.3764 84.54 43.416 84.757 43.4831L84.7568 43.483C84.7455 43.4795 84.7411 43.4784 84.7408 43.4783L84.7415 43.4785C84.7529 43.4816 84.7922 43.4911 84.8818 43.5109L84.93 43.5225L84.9301 43.5225L84.8823 43.511C84.9802 43.5327 85.1452 43.5613 85.3941 43.5937L85.3945 43.5938C85.4653 43.603 85.4932 43.6063 85.5036 43.6073L85.5085 43.6078C85.5016 43.6071 85.5001 43.607 85.4989 43.6069L85.5032 43.6073C85.6926 43.625 85.9292 43.649 86.2143 43.681L86.2142 43.681C86.3565 43.6969 86.4918 43.7141 86.6226 43.7322L86.6227 43.7322C86.6952 43.7422 86.8035 43.7573 86.9328 43.7799C87.6604 43.9073 88.1447 44.588 88.0146 45.3003C87.8844 46.0126 87.1891 46.4867 86.4615 46.3593C86.3843 46.3457 86.3172 46.3363 86.2481 46.3267L86.2482 46.3268C86.1374 46.3114 86.0266 46.2974 85.9102 46.2843L85.91 46.2843C85.6384 46.2539 85.4214 46.2318 85.249 46.2158L85.2534 46.2162C85.2505 46.2159 85.2433 46.2152 85.2346 46.2144L85.2395 46.2148C85.1761 46.2087 85.1025 46.1992 85.0406 46.1911L85.041 46.1911C84.7546 46.1538 84.5014 46.1131 84.2933 46.0671L84.2455 46.0556L84.2453 46.0556L84.2936 46.0672C84.2072 46.0481 84.1099 46.0262 84.0288 46.0042L84.0294 46.0044C84.0072 45.9984 83.9788 45.9904 83.951 45.9818L83.9507 45.9817C83.7086 45.9068 83.5433 45.8503 83.4588 45.8189C83.4464 45.8143 83.4396 45.8117 83.4285 45.8074L83.4269 45.8068C83.4012 45.7968 83.3782 45.7873 83.3539 45.7769L83.3537 45.7768C83.1794 45.7023 82.9662 45.5888 82.7355 45.4556L82.695 45.4313L82.6949 45.4312L82.7355 45.4556C82.8749 45.5361 82.9862 45.5597 82.9819 45.5587L82.9604 45.5533L82.9602 45.5533C82.2643 45.3853 81.8261 44.6753 82.0032 43.9728C82.1803 43.2703 82.9057 42.8414 83.6233 43.0147Z" fill="#FFA462"/>
<path d="M59.0786 45.3759C60.3597 46.1616 61.2449 46.7701 61.7285 47.1702L61.7285 47.1702C61.5351 47.0102 61.2253 46.98 60.9972 47.1552C61.3244 46.904 61.5666 46.7273 61.747 46.5956C61.86 46.5131 61.9391 46.4553 62.0037 46.4056C62.1029 46.3295 62.1307 46.3003 62.1436 46.2853L62.1438 46.2851C62.5385 45.8252 62.6624 45.6306 62.6867 45.5332C62.7444 45.3015 62.7284 45.0715 62.5988 44.7668L62.5988 44.7667C62.6493 44.8856 62.7264 44.9344 62.7222 44.9316L62.7222 44.9316C62.687 44.9086 62.6027 44.8722 62.3408 44.7749C62.2411 44.7379 62.125 44.6948 61.9996 44.6448L62.3037 44.7027C62.0428 44.7034 61.961 44.7368 61.7711 44.8273C61.8198 44.8041 61.8439 44.7839 61.8383 44.7883C61.7646 44.8457 61.6069 45.033 61.4692 45.2037L61.4692 45.2037C61.4485 45.2293 61.4211 45.2633 61.4015 45.2864L61.4003 45.2878C61.4054 45.2819 61.3939 45.2954 61.3959 45.293L61.3963 45.2926C61.1618 45.5665 60.9929 45.8313 60.8147 46.1126C60.7263 46.2522 60.63 46.4046 60.5268 46.55C60.2747 46.9053 59.776 46.9933 59.4131 46.7464C59.0502 46.4996 58.9603 46.0114 59.2125 45.6561C59.2875 45.5504 59.3617 45.4337 59.4546 45.287C59.6308 45.0089 59.8533 44.6558 60.1697 44.2862L60.1701 44.2858C60.1655 44.2912 60.1719 44.2837 60.1704 44.2855L60.1692 44.2869C60.1738 44.2814 60.1869 44.2653 60.2136 44.2323L60.2135 44.2323C60.3021 44.1227 60.5889 43.7594 60.8417 43.5624C60.8945 43.5213 60.9731 43.4651 61.0708 43.4186C61.4158 43.2542 61.7369 43.1374 62.2995 43.136C62.4037 43.1357 62.507 43.1554 62.6036 43.1939C62.7083 43.2357 62.8072 43.2724 62.9087 43.3102L62.9087 43.3102C63.1015 43.3818 63.3904 43.4841 63.6128 43.6299L63.6128 43.63C63.7707 43.7335 63.964 43.9005 64.0763 44.1647L64.0763 44.1647C64.3147 44.7254 64.3927 45.2978 64.2414 45.9046C64.1108 46.4286 63.6945 46.9138 63.3691 47.2929L63.3692 47.2927C63.251 47.4306 63.1223 47.5379 62.9914 47.6384C62.9079 47.7025 62.8113 47.773 62.7036 47.8516C62.5258 47.9813 62.2958 48.1492 61.9849 48.388C61.573 48.7042 61.039 48.651 60.6954 48.3667L60.6955 48.3668C60.3021 48.0413 59.4963 47.4808 58.229 46.7036C57.8545 46.4739 57.7411 45.9905 57.9757 45.6239C58.2103 45.2572 58.7041 45.1462 59.0786 45.3759Z" fill="#FFA462"/>
<path d="M61.4192 44.2933C61.3452 44.2976 61.2723 44.3249 61.2124 44.3757C61.1143 44.4588 61.0748 44.585 61.0999 44.7024L61.0994 44.7025C61.0315 44.7314 60.9672 44.7712 60.9067 44.8218C60.8979 44.8291 60.8895 44.8368 60.8816 44.8449C60.6601 45.0707 60.5359 45.3311 60.509 45.6263L60.5084 45.6263C60.4815 45.6576 60.4575 45.6954 60.4363 45.7398V45.7399C60.4162 45.7816 60.404 45.8265 60.3998 45.8744C60.3981 45.8925 60.398 45.9107 60.3994 45.9289C60.4015 45.957 60.4059 45.986 60.4126 46.0156C60.452 46.1892 60.595 46.4358 60.8416 46.7554C60.8467 46.762 60.8521 46.7684 60.8577 46.7747C61.0518 46.9911 61.2119 47.1325 61.338 47.1986L61.338 47.1987C61.4189 47.2411 61.4989 47.2624 61.5779 47.2626L61.5831 47.2625C61.5948 47.2624 61.6064 47.262 61.6177 47.2613C61.7646 47.2529 61.8735 47.2022 61.9443 47.1091L61.9437 47.1091C61.9652 47.0981 61.9862 47.0858 62.0069 47.0721C62.0146 47.067 62.0221 47.0615 62.0293 47.0559C62.1026 46.9983 62.1588 46.9224 62.198 46.8284C62.2444 46.7171 62.2665 46.5744 62.2642 46.4003L62.2648 46.4002C62.2961 46.4093 62.3273 46.413 62.3583 46.4112C62.4235 46.4075 62.4881 46.3799 62.5523 46.3284L62.5529 46.3284C62.5586 46.332 62.5644 46.3355 62.5703 46.3389C62.6527 46.3856 62.728 46.407 62.7963 46.4032C62.8982 46.3973 62.9843 46.3351 63.0547 46.2164L63.0547 46.2164C63.1113 46.1208 63.118 46.0159 63.0746 45.9017L63.074 45.9018C63.1285 45.8792 63.1778 45.8428 63.2159 45.7933C63.3074 45.6743 63.3269 45.5332 63.2743 45.3699L63.2743 45.37C63.2146 45.1845 63.0172 44.9128 62.6823 44.5548L62.6822 44.5548C62.6351 44.5023 62.5932 44.4608 62.5562 44.4304V44.4305C62.4624 44.3533 62.3648 44.3176 62.2634 44.3234C62.2457 44.3244 62.2278 44.3267 62.2099 44.3303L62.2098 44.3303C62.2015 44.3319 62.1933 44.3337 62.1853 44.3356V44.3357C62.1814 44.3336 62.1776 44.3316 62.1738 44.3298L62.1738 44.3298C62.0931 44.2904 62.0201 44.2726 61.9547 44.2763C61.8607 44.2817 61.7826 44.3317 61.7202 44.4262V44.4263C61.706 44.4124 61.6927 44.3996 61.6804 44.3879C61.6081 44.3198 61.5129 44.288 61.4192 44.2933Z" fill="#FFA462"/>
<path d="M59.9263 47.1406L59.9265 47.1403C60.3092 46.6083 61.0142 47.2714 60.6588 47.0271L60.6592 47.0274C60.6695 47.0344 60.6788 47.0412 60.6872 47.0475L60.6873 47.0476C60.7568 47.0997 60.8749 47.2042 61.0212 47.3373L60.9901 47.3112L61.1912 47.467C61.2262 47.494 61.2574 47.5255 61.284 47.5605L61.2835 47.5597C61.2497 47.5155 61.208 47.4804 61.2303 47.5008L61.2305 47.501C61.2983 47.563 61.9768 48.1375 62.4348 48.45L61.8143 49.2479C61.0006 48.5867 60.6792 48.3637 60.6921 48.3727C60.6774 48.3624 60.6632 48.3513 60.6496 48.3396L60.0725 47.8394C59.8606 47.6556 59.8409 47.3385 60.0286 47.131C60.2163 46.9235 60.5403 46.9042 60.7522 47.0879L61.3293 47.5881L61.2867 47.555C61.2997 47.5641 61.6414 47.803 62.4691 48.4756C62.6805 48.6473 62.716 48.9517 62.5496 49.1657C62.3831 49.3797 62.074 49.4272 61.8486 49.2734C61.3394 48.926 60.6225 48.3185 60.5306 48.2344L60.5308 48.2346C60.5445 48.2471 60.498 48.2073 60.4628 48.1614L60.5551 48.2541L60.354 48.0984C60.3433 48.0901 60.3329 48.0814 60.3229 48.0723C60.1662 47.9296 60.0864 47.8612 60.0639 47.8444L60.0639 47.8444C60.0639 47.8444 60.0655 47.8456 60.0691 47.8481L60.0695 47.8484C59.6921 47.5889 60.3848 48.2464 60.7648 47.7181C60.6022 47.9446 60.2824 47.9992 60.0508 47.8397C59.8192 47.6803 59.7635 47.3673 59.9263 47.1406Z" fill="#FFA462"/>
</svg>
