<svg width="104" height="101" viewBox="0 0 104 101" fill="none" xmlns="http://www.w3.org/2000/svg">
<path d="M53.13 23.9254L53.13 23.9253C52.9911 24.286 53.0833 24.6036 53.0574 24.4495L53.0574 24.4494C53.0275 24.2716 52.6955 23.1118 51.2047 20.4376C50.6916 19.5172 49.5953 18.2363 48.6112 17.2013C48.0563 16.6178 46.8819 16.4807 46.0722 16.9864C46.0766 16.9837 46.079 16.9819 46.0787 16.9821L46.0788 16.982C45.6744 17.2825 44.9636 19.119 44.7197 21.6065C44.5532 23.3042 44.6149 24.7778 45.1474 27.0431C45.2025 27.2775 45.1885 27.5225 45.1069 27.7494L43.944 30.9867C43.7062 31.6486 42.9654 31.9964 42.2893 31.7637C41.6133 31.5309 41.258 30.8057 41.4957 30.1439L42.6587 26.9065L42.6183 27.6128C42.0264 25.0949 41.9419 23.3469 42.1363 21.3638C42.3604 19.0793 43.064 16.0326 44.5097 14.9583L44.5097 14.9583C44.5627 14.919 44.618 14.881 44.6763 14.8446C46.4064 13.764 48.9977 13.8789 50.5108 15.4703C51.5011 16.5118 52.7994 17.9946 53.4828 19.2205C54.9936 21.9307 55.5127 23.4089 55.6182 24.037L55.6182 24.037C55.6162 24.0251 55.7101 24.4278 55.5583 24.8217C55.3056 25.4781 54.557 25.8096 53.8864 25.5621C53.2158 25.3147 52.8772 24.5819 53.13 23.9254Z" fill="black"/>
<path d="M44.0103 30.9141C43.4566 32.1155 43.3001 32.7912 43.0665 33.8002L43.0664 33.8003L43.0486 33.8771L43.0486 33.8772C42.9653 34.2368 42.8647 34.6215 42.7715 34.978C42.6801 35.3279 42.5963 35.6492 42.5315 35.9288C42.4519 36.272 42.4263 36.4503 42.4246 36.5065L42.4246 36.5066C42.4246 36.5069 42.4248 36.5017 42.4244 36.4916C42.4754 38.0023 42.8505 40.6167 43.8997 41.726C44.2475 42.0936 44.6164 42.4366 44.9906 42.7839C45.3024 43.0732 45.6342 43.3804 45.9154 43.6776C46.2093 43.9884 46.5496 44.3909 46.7467 44.8603C46.9611 45.3708 47.0237 46.0168 46.6647 46.6491C45.6198 48.4892 43.8537 49.3501 41.7397 50.4347L41.7397 50.4348L41.6346 50.4887L41.6322 50.4899L41.6278 50.4921L41.6286 50.4917C41.6116 50.5004 41.6457 50.483 41.6251 50.4935L41.6262 50.493C40.5172 51.0621 39.9613 51.3345 38.2305 52.931C37.7089 53.4121 36.8876 53.3882 36.3962 52.8776C35.9047 52.367 35.9291 51.5631 36.4507 51.0819C38.3736 49.3083 39.1286 48.9062 40.4212 48.2428L40.4223 48.2423C40.4286 48.239 40.4174 48.2447 40.4274 48.2397L40.4281 48.2393L40.4325 48.2371L40.43 48.2383L40.535 48.1844L40.535 48.1845C42.84 47.0018 43.8007 46.4637 44.3964 45.4147C44.2857 45.6097 44.3351 45.7994 44.3464 45.8262L44.3464 45.8262C44.3326 45.7935 44.2575 45.6643 44.0112 45.4038C43.7991 45.1796 43.5338 44.9327 43.2052 44.6277C42.8391 44.2879 42.4097 43.8901 41.9955 43.4522C40.2059 41.5602 39.8783 37.9889 39.8306 36.5755C39.8289 36.5257 39.8292 36.4778 39.8305 36.4332L39.8305 36.4333C39.8403 36.1 39.9233 35.6999 40.0006 35.3666C40.0747 35.0467 40.1682 34.6893 40.2572 34.3485C40.3523 33.9844 40.4436 33.6346 40.5177 33.315L40.5177 33.3151L40.5355 33.2383L40.5355 33.2384C40.7815 32.1761 40.9834 31.3043 41.6446 29.8694C41.9392 29.2299 42.7077 28.9453 43.361 29.2338C44.0142 29.5222 44.3049 30.2745 44.0103 30.9141Z" fill="black"/>
<path d="M54.773 23.1628C55.7818 23.3516 59.1319 23.0726 60.1891 22.7032C60.3222 22.6567 60.4622 22.6318 60.6035 22.6295C60.1101 22.6376 59.8533 22.9389 59.9576 22.8438L59.9576 22.8439C60.1813 22.64 60.8838 21.625 62.0191 19.5359C62.0478 19.4831 62.084 19.4163 62.1125 19.3639L62.1124 19.3639C62.1357 19.321 62.1799 19.2395 62.203 19.197C62.5279 18.599 62.9013 17.9186 63.3836 17.3928C64.5916 16.076 66.6571 14.0617 68.9996 14.7021C71.2391 15.3143 72.1668 18.0429 72.7469 19.619C73.5688 21.8517 73.6905 22.837 73.8896 24.489C73.9231 24.767 73.9587 25.0625 74.0007 25.388C74.0139 25.4905 74.024 25.5926 74.0328 25.6798C74.0437 25.7877 74.054 25.8904 74.0693 26.0086C74.1365 26.5308 74.3162 27.5006 75.1108 29.9001C76.0979 32.8809 75.9608 34.838 75.8394 36.5631C75.8107 36.9704 75.7845 37.3451 75.7724 37.723C75.7268 39.1456 75.1179 41.5787 73.8803 43.4455C73.2211 44.4397 72.5949 45.2421 72.1554 45.8055C71.8873 46.1492 71.7264 46.3571 71.6394 46.4883L71.6394 46.4883C71.6242 46.5112 71.6179 46.522 71.6169 46.5237L71.6172 46.5233C71.6171 46.5234 71.6182 46.5215 71.6202 46.5178L71.0693 44.8109C73.5123 46.065 75.2332 49.1881 76.0085 52.2422C76.9732 56.0425 76.8521 57.239 74.8513 61.9477C73.3356 65.5149 70.3256 68.7827 68.1082 68.9972C67.9931 69.0083 67.8736 69.0123 67.7506 69.0064L67.7505 69.0064C67.5909 68.9987 67.4372 68.9929 67.2718 68.9867H67.2718C67.1127 68.9807 66.9563 68.9749 66.7934 68.9671H66.7933C66.098 68.9335 65.0191 68.8725 64.2204 68.2988C63.9608 68.1123 63.7308 67.8743 63.5526 67.5785C61.4242 64.0461 62.7536 60.1443 63.4587 57.9667C63.6722 57.3072 63.8193 56.8454 63.8838 56.5046C64.0143 55.8147 64.6913 55.359 65.396 55.4868C66.1007 55.6145 66.5661 56.2773 66.4356 56.9672C66.3351 57.4985 66.1272 58.1333 65.9326 58.7343C65.166 61.1023 64.3344 63.8753 65.7879 66.2877C65.7757 66.2673 65.7599 66.2534 65.7556 66.2504L65.7557 66.2504C65.8273 66.3018 66.094 66.3896 66.9211 66.4295H66.921C67.065 66.4365 67.2117 66.442 67.3711 66.4479H67.3712C67.5333 66.454 67.7031 66.4604 67.8783 66.4688H67.8782C67.8617 66.468 67.8528 66.4689 67.853 66.4689C68.4944 66.4068 70.9767 64.4513 72.4551 60.972C74.2997 56.6307 74.2882 56 73.4898 52.8549C72.7784 50.0524 71.3221 47.8094 69.864 47.061C69.2326 46.7368 68.9866 45.9746 69.3131 45.3541C69.3266 45.3285 69.3394 45.3054 69.3528 45.2819L69.353 45.2815C69.3889 45.2189 69.4262 45.1599 69.4624 45.1053L69.4624 45.1052C69.6172 44.8717 69.8547 44.5689 70.0927 44.2637C70.5306 43.7023 71.1032 42.9676 71.7033 42.0625C72.6603 40.6188 73.1463 38.6448 73.1784 37.6432C73.1923 37.2103 73.2222 36.7882 73.2503 36.3885C73.3642 34.7696 73.4752 33.1997 72.642 30.6836C71.8231 28.2107 71.5903 27.0715 71.4944 26.3264C71.4743 26.1701 71.4608 26.0355 71.45 25.9286C71.4406 25.8345 71.4338 25.768 71.4258 25.7058C71.3824 25.3689 71.3456 25.0639 71.3122 24.7866C71.1259 23.24 71.0354 22.4636 70.3054 20.4803C69.5276 18.3674 68.9645 17.3304 68.3016 17.1491C67.7419 16.9961 66.7747 17.4986 65.3145 19.0903C65.0804 19.3455 64.8478 19.7396 64.4942 20.3902C64.4733 20.4286 64.427 20.514 64.405 20.5546L64.405 20.5546C64.3805 20.5998 64.3361 20.6818 64.3103 20.7292C63.2383 22.7018 62.3341 24.1493 61.7258 24.7036L61.7258 24.7036C61.6482 24.7742 61.2466 25.1598 60.6472 25.1697L61.0615 25.096C59.5991 25.6069 55.7798 25.9379 54.2856 25.6582C53.5817 25.5264 53.1202 24.861 53.2548 24.1719C53.3894 23.4828 54.0691 23.031 54.773 23.1628Z" fill="black"/>
<path d="M49.6868 56.0959C48.2504 58.0834 47.3747 59.2677 46.9576 59.7695L46.9574 59.7697C46.9598 59.7669 46.9604 59.766 46.9607 59.7657L46.9606 59.7658C46.8904 59.8548 46.7162 60.1358 46.337 60.7591C46.1911 60.9989 46.0245 61.2727 45.8335 61.5831C45.5314 62.0739 44.3437 63.7674 44.0357 64.131L44.0358 64.1308C44.0159 64.1544 43.9815 64.1943 43.9401 64.2362C43.442 64.7407 42.6205 64.7543 42.1052 64.2667C41.59 63.7791 41.576 62.9749 42.0741 62.4705C42.048 62.4969 42.0339 62.5141 42.0378 62.5095L42.0379 62.5093C42.2351 62.2766 43.3483 60.6981 43.6106 60.2719C43.7982 59.9671 43.9607 59.7 44.1072 59.4591C44.4277 58.9323 44.7126 58.4587 44.907 58.2124L44.9069 58.2126C44.9187 58.1975 44.9316 58.1815 44.9448 58.1657L44.9446 58.166C45.2931 57.7467 46.1097 56.6466 47.5682 54.6285C47.9821 54.0558 48.792 53.92 49.377 54.3252C49.962 54.7304 50.1007 55.5232 49.6868 56.0959Z" fill="black"/>
<path d="M45.1914 58.795L45.1917 58.7948C45.5706 58.5379 46.0921 58.549 45.9057 58.562L45.9056 58.562C46.3739 58.5292 48.3599 58.5712 48.7352 58.5808C48.762 58.5815 48.7887 58.583 48.8154 58.5853L49.4946 58.644L49.3906 58.6391C49.6527 58.6411 49.9316 58.654 50.2017 58.6663C50.3411 58.6727 50.4782 58.6789 50.6227 58.6844L50.6228 58.6844C50.7808 58.6905 50.9069 58.6919 51.0142 58.6931H51.0142C51.0725 58.6938 51.1468 58.6946 51.2086 58.6969L51.2096 58.6969C51.2145 58.6972 51.222 58.6974 51.2294 58.6978L51.2306 58.6978C51.2516 58.6988 51.2752 58.7001 51.3027 58.7023L51.2878 58.7012L53.4712 58.8486C53.4855 58.8496 53.4998 58.8508 53.5141 58.8522L53.5135 58.8522C53.4843 58.8493 53.4657 58.8486 53.4707 58.8489L53.4704 58.8489C53.5625 58.8529 53.948 58.8524 54.7142 58.849H54.7142C54.8237 58.8485 54.9151 58.8524 54.9681 58.8545L54.9683 58.8545C54.9922 58.8555 55.0036 58.8559 55.009 58.8561L54.9487 58.8559L54.9489 58.8558L55.0096 58.8561C55.495 58.869 56.1388 58.9134 56.8974 58.9655C57.156 58.9833 57.3812 58.9988 57.6699 59.018C58.1348 59.0489 58.4521 59.0494 58.6347 59.0498C58.6511 59.0498 58.691 59.0499 58.7061 59.05H58.706C58.9118 59.0511 58.9828 59.0501 59.0149 59.0472L59.0142 59.0472C59.0135 59.0473 59.0185 59.0468 59.0139 59.0473L59.0169 59.047L59.0205 59.0466L59.0175 59.0469C59.4432 59.0034 59.8284 58.9643 60.0599 58.9621H60.0592C60.0673 58.962 60.0768 58.962 60.0851 58.962L60.0588 58.9622L61.0128 58.944C61.0346 58.9435 61.0563 58.9437 61.0781 58.9443C61.4274 58.9548 61.601 58.9548 61.6465 58.9526L61.6466 58.9526C61.6478 58.9526 61.6389 58.9529 61.6234 58.9544L61.7181 58.9491H61.7183L61.6238 58.9543C61.8587 58.933 62.1134 58.8862 62.3896 58.808C63.0781 58.6131 63.7976 59.0015 63.9967 59.6754C64.1958 60.3494 63.7991 61.0537 63.1106 61.2486C62.6903 61.3676 62.2746 61.4467 61.8637 61.4841L61.7692 61.4893H61.769L61.8638 61.484C61.8287 61.4872 61.7967 61.4891 61.7701 61.4904L61.7702 61.4903C61.6061 61.498 61.3323 61.4938 60.9983 61.4837L61.0635 61.4841L60.1095 61.5024C60.1008 61.5025 60.0919 61.5026 60.0832 61.5026C60.0838 61.5026 60.0853 61.5026 60.0852 61.5026L60.0845 61.5026C60.0089 61.5033 59.7819 61.5232 59.2872 61.5738L59.2842 61.5741L59.2806 61.5744L59.2836 61.5741C59.2728 61.5752 59.26 61.5764 59.2527 61.5771L59.2521 61.5772C59.0647 61.594 58.8455 61.5914 58.6915 61.5906H58.6915C58.6817 61.5905 58.6485 61.5904 58.6297 61.5904C58.426 61.59 58.0427 61.5892 57.494 61.5527C57.209 61.5338 56.9673 61.5172 56.7159 61.4999C55.9328 61.4462 55.3554 61.4068 54.9392 61.3958L54.9998 61.396H54.9997L54.9393 61.3958C54.9103 61.395 54.8791 61.3937 54.8602 61.3929L54.8604 61.393C54.8079 61.3908 54.7702 61.3894 54.726 61.3896H54.726C54.0132 61.3928 53.5306 61.3946 53.3552 61.387L53.3549 61.3869C53.3329 61.386 53.2942 61.3841 53.2503 61.3797L53.2926 61.3832L51.1092 61.2358C51.1041 61.2354 51.0994 61.2351 51.0944 61.2347C51.1031 61.2354 51.1101 61.2357 51.108 61.2356L51.1093 61.2357C51.1086 61.2357 51.1103 61.2357 51.1067 61.2356L51.1077 61.2356C51.089 61.2349 51.0575 61.2344 50.9838 61.2336H50.9838C50.8748 61.2324 50.7172 61.2306 50.5215 61.2231L50.5215 61.2231C50.3658 61.2172 50.2193 61.2105 50.081 61.2042C49.7979 61.1913 49.5726 61.1812 49.3704 61.1796C49.3357 61.1793 49.301 61.1777 49.2664 61.1747L48.5872 61.1161L48.6674 61.1205C48.2065 61.1088 46.3967 61.0747 46.0908 61.0961L46.0906 61.0962C45.8278 61.1145 46.3025 61.1321 46.6694 60.8834C46.0807 61.2828 45.2722 61.1393 44.864 60.5627C44.4558 59.986 44.6024 59.1946 45.1914 58.795Z" fill="black"/>
<path d="M74.8367 58.4694L74.8367 58.4694C74.7854 58.4577 74.7561 58.4569 74.7599 58.4571H74.7601C74.7671 58.4574 74.8143 58.4582 74.9154 58.447L74.8797 58.4515L75.5799 58.3548L75.5239 58.3637L75.9241 58.2909C75.9394 58.2881 75.9548 58.2856 75.9702 58.2833C76.0654 58.2694 76.1619 58.2594 76.2576 58.2535L76.256 58.2536C76.3035 58.2506 76.3558 58.2507 76.3362 58.2509L76.337 58.2509C76.4857 58.2497 78.3393 58.2573 78.5288 58.2616L78.5294 58.2616C78.4877 58.2606 78.5894 58.2609 78.6786 58.2723C79.3893 58.3625 79.8907 58.9997 79.7985 59.6955C79.7063 60.3912 79.0554 60.882 78.3447 60.7918C78.4315 60.8028 78.525 60.8028 78.4689 60.8015L78.4695 60.8015C78.3156 60.7981 76.4901 60.7904 76.3579 60.7914H76.3587C76.3295 60.7916 76.3775 60.7918 76.4227 60.7889L76.421 60.7891C76.3997 60.7904 76.3759 60.7928 76.3526 60.7962L76.3987 60.7887L75.9984 60.8615C75.9798 60.8649 75.9611 60.8679 75.9424 60.8705L75.2421 60.9672C75.2303 60.9688 75.2184 60.9703 75.2065 60.9716C75.0217 60.992 74.8257 61.0039 74.6333 60.9947H74.6334C74.519 60.9892 74.3868 60.9755 74.2474 60.9437C73.5495 60.7844 73.1156 60.1014 73.2783 59.4182C73.441 58.7349 74.1387 58.3101 74.8367 58.4694Z" fill="black"/>
<path d="M29.4953 58.8483L29.4952 58.8483C29.5601 58.815 29.6448 58.7677 29.7744 58.695C29.9331 58.606 30.1381 58.4908 30.3674 58.3732C31.1349 57.9797 32.4065 57.4315 33.8302 57.6375C34.551 57.7418 35.9977 57.941 36.9923 59.0899C37.78 60 38.742 61.2079 38.9792 62.5531C39.2552 64.1182 39.5184 66.3922 39.1051 67.6214C38.5256 69.3444 36.7917 70.9067 34.9696 71.0994C32.6852 71.341 30.9754 70.0783 29.884 69.0203C28.8962 68.0626 27.9674 66.349 27.9029 64.6243C27.8154 62.2874 28.0983 60.3489 28.9485 59.3509L28.9486 59.3509C29.0534 59.2278 29.1752 59.1084 29.3168 59.0017C29.8846 58.5737 30.6994 58.6774 31.1366 59.2333C31.5738 59.7891 31.4679 60.5867 30.9001 61.0148C30.9293 60.9928 30.9422 60.9774 30.9416 60.9781C30.7892 61.157 30.4077 62.1632 30.4964 64.5313C30.5338 65.5305 31.1296 66.6523 31.7101 67.2151C32.6417 68.1182 33.6046 68.6883 34.6908 68.5735C35.3472 68.5041 36.3279 67.7548 36.64 66.827C36.8151 66.3061 36.722 64.6874 36.4218 62.9854C36.3196 62.4059 35.8331 61.6806 35.0123 60.7324C34.7234 60.3986 34.2471 60.266 33.4508 60.1508C32.881 60.0684 32.2358 60.2832 31.5714 60.6238C31.3914 60.7161 31.2271 60.8082 31.0652 60.8991C30.9502 60.9636 30.8172 61.0385 30.6993 61.0989C30.0644 61.4244 29.2802 61.1844 28.9477 60.5629C28.6153 59.9414 28.8604 59.1738 29.4953 58.8483Z" fill="black"/>
<path d="M45.0336 65.9042C46.3277 66.1254 48.5891 66.1443 49.4711 66.0713C49.9892 66.0284 50.7222 65.9106 51.7586 65.7427C53.4075 65.4756 55.6685 65.1091 58.5459 64.8439C60.1809 64.6932 61.6664 65.2823 62.8747 65.7413C64.3318 66.2947 65.5911 66.7546 67.0985 66.6157H67.0985C67.1441 66.6115 67.1889 66.6068 67.2349 66.6015L67.2349 66.6015C68.7661 66.4245 68.819 68.2035 68.7806 67.8851V67.8852C68.786 67.9298 68.7896 67.9723 68.7921 68.011C68.8072 68.2481 68.7871 68.5172 68.7787 68.6438C68.7724 68.7378 68.7703 68.7754 68.77 68.7924L68.77 68.7924C68.7698 68.806 68.7717 68.7613 68.7634 68.6924L68.7634 68.6925C68.8419 69.3425 68.8754 67.435 67.3384 67.6136L67.3394 67.6135C66.3775 67.7245 66.1074 68.8825 66.3782 68.2403C66.6179 67.6719 67.239 67.3532 67.8529 67.4836C68.4667 67.614 68.897 68.1562 68.8744 68.7707L68.6357 75.26C68.6328 75.3399 68.6222 75.4193 68.604 75.4971C67.8222 78.8485 66.4123 82.1429 64.3917 85.3785C64.3174 85.4973 64.2238 85.6034 64.1144 85.6925C63.4672 86.2194 62.5496 86.4521 61.554 86.4738C58.9678 86.5303 56.6047 86.6716 54.4382 86.8012C52.6778 86.9065 51.0311 87.0052 49.5273 87.0401C46.5869 87.1083 42.5328 87.1281 37.3518 87.0509C35.571 87.0243 34.2105 86.6446 33.3203 86.398C33.1249 86.3439 32.9644 86.2995 32.826 86.265L32.8261 86.2651C31.8576 86.0237 31.5827 85.2044 31.5421 84.6784C31.5205 84.3995 31.5468 84.112 31.578 83.866L31.578 83.8662C31.5803 83.8476 31.5829 83.829 31.5856 83.8111C31.6757 83.2157 32.1909 81.7133 32.9532 79.5104C33.2721 78.589 34.5382 76.2074 36.8519 72.5306C37.2278 71.9333 38.0272 71.7474 38.6373 72.1153C39.2475 72.4833 39.4374 73.2658 39.0616 73.8632C36.7226 77.5801 35.6204 79.7213 35.4113 80.3256C34.5868 82.7081 34.1982 83.8835 34.1529 84.1831C34.153 84.1825 34.1531 84.182 34.1534 84.1794L34.1534 84.1795C34.1277 84.3819 34.1283 84.4666 34.1299 84.4867C34.1283 84.4668 34.0321 83.944 33.4664 83.803H33.4665C33.645 83.8475 33.8399 83.9016 34.0269 83.9534C34.8902 84.1925 35.9729 84.4894 37.3913 84.5106C42.5469 84.5874 46.5668 84.5674 49.4658 84.5001C50.912 84.4666 52.5067 84.3714 54.2799 84.2653C56.4417 84.1359 58.8538 83.9915 61.4961 83.9338C62.1793 83.9189 62.4316 83.7581 62.4547 83.7393L62.1774 84.0533C64.0685 81.0252 65.3615 77.9851 66.0739 74.9315L66.0422 75.1686L66.2809 68.6793L68.7771 69.2097C68.9602 68.7754 68.6365 70.022 67.6433 70.1366L67.6443 70.1365C66.0899 70.3172 66.1131 68.3852 66.1861 68.9905L66.1861 68.9906C66.1736 68.8868 66.1744 68.7953 66.1751 68.752L66.1751 68.7521C66.1766 68.6583 66.1843 68.5477 66.1889 68.4786C66.2007 68.3006 66.2045 68.2105 66.2019 68.1696C66.2019 68.1693 66.2021 68.1737 66.2032 68.183L66.2033 68.183C66.139 67.6501 66.1313 69.2874 67.5393 69.1246L67.5393 69.1246C67.4723 69.1324 67.4081 69.139 67.3418 69.1451H67.3418C65.1459 69.3475 63.3476 68.646 61.936 68.1098C60.6098 67.6061 59.7082 67.2886 58.7892 67.3733C56.0085 67.6296 53.8239 67.9833 52.1823 68.2493C51.1921 68.4097 50.3363 68.5493 49.6897 68.6028C48.6444 68.6893 46.1521 68.6744 44.5872 68.407C43.8812 68.2863 43.4089 67.6282 43.5321 66.9371C43.6554 66.246 44.3276 65.7835 45.0336 65.9042Z" fill="black"/>
<path d="M55.4847 78.7412C55.5117 77.1551 55.3905 76.4207 55.3231 76.2493L55.3231 76.2493C55.3204 76.2424 55.3364 76.2869 55.3845 76.3547C54.6784 75.3595 54.1494 74.9867 53.7324 74.8888C53.4077 74.8126 53.0137 74.8171 52.4214 74.8686C51.8659 74.9169 50.9561 75.098 49.6456 75.4661C48.6416 75.7481 48.1308 76.0977 47.8883 76.4546C47.3907 77.1868 47.3537 77.8932 47.7084 78.7029L47.7084 78.7029C47.6332 78.5312 47.5401 78.4579 47.5575 78.4733L47.5575 78.4733C47.6057 78.5159 47.8502 78.682 48.4559 78.9226C48.6702 79.0077 48.926 79.048 49.2294 78.9952C49.6324 78.9252 49.8284 78.7457 49.8435 78.2682C49.854 77.9342 49.6162 77.3553 48.6378 76.6641C47.7215 76.0167 47.0103 75.8855 46.5417 75.9047L46.5419 75.9047C46.8257 75.893 47.0037 75.7805 46.933 75.8167L46.9331 75.8167C46.8479 75.8603 46.6424 76.0011 46.253 76.2758C45.7274 76.6467 44.7892 77.3272 44.0364 77.5702C43.3558 77.79 42.6221 77.428 42.3977 76.7617C42.1732 76.0954 42.543 75.3772 43.2236 75.1575C43.4998 75.0683 44.0478 74.7 44.7354 74.2148C45.0385 74.001 45.4361 73.7161 45.7297 73.5657L45.7297 73.5657C45.7934 73.5331 46.0774 73.3809 46.433 73.3663L46.4332 73.3663C47.5619 73.32 48.8358 73.6709 50.1565 74.6039C51.4036 75.4849 52.4876 76.7569 52.4375 78.3466C52.3832 80.0676 51.2528 81.2238 49.6833 81.4967C48.8741 81.6374 48.1235 81.5323 47.4802 81.2768C46.8052 81.0087 46.2142 80.7088 45.8187 80.3594L45.8188 80.3594C45.662 80.221 45.455 80.005 45.3233 79.7043L45.3233 79.7043C44.6552 78.1794 44.7011 76.5579 45.7275 75.0474C46.4717 73.9523 47.6904 73.3721 48.9299 73.024C50.2903 72.6419 51.3879 72.4079 52.1917 72.338C52.8034 72.2848 53.5673 72.2374 54.3375 72.4182C55.716 72.7418 56.7158 73.7774 57.5161 74.9054C57.6228 75.0559 57.695 75.209 57.7451 75.3364L57.7451 75.3364C58.0185 76.0316 58.1058 77.244 58.0796 78.7835C58.0677 79.485 57.4772 80.0441 56.7606 80.0325C56.044 80.0208 55.4728 79.4427 55.4847 78.7412Z" fill="black"/>
<path d="M46.53 70.1485C46.4187 70.7193 46.244 71.4658 45.8892 72.4364C45.7343 72.8603 44.7915 76.1293 44.7796 76.1707C44.666 76.5648 44.3654 76.8812 43.9721 77.0205C43.5788 77.1598 43.141 77.1049 42.7962 76.8731C37.8565 73.5529 37.4528 73.2162 37.3558 73.1259C36.8363 72.6426 36.8155 71.8385 37.3092 71.33C37.803 70.8215 38.6243 70.8011 39.1437 71.2845C39.0467 71.1942 39.1939 71.37 44.2651 74.7787L42.2817 75.4811C42.2699 75.5223 43.2511 72.1129 43.4457 71.5804C43.7455 70.7603 43.8885 70.1452 43.9809 69.6719C44.1153 68.9827 44.795 68.5308 45.4989 68.6624C46.2028 68.794 46.6645 69.4594 46.53 70.1485Z" fill="black"/>
<path d="M44.0366 70.0491C41.7393 65.3938 40.3385 62.3331 39.6232 60.7702C39.4097 60.3037 39.2636 59.9845 39.173 59.7955L37.4517 56.2021L37.4741 56.2466C37.0845 55.5094 36.7407 54.8392 36.4338 54.2409C36.1809 53.7479 35.9553 53.3082 35.7467 52.9135C35.1346 51.7556 34.7641 51.1843 34.4841 50.9276C34.3089 50.7671 33.9147 50.4131 31.8147 50.8147L31.8148 50.8147C31.8933 50.7997 31.9378 50.7815 31.9261 50.7858L31.926 50.7859C31.6005 50.9078 30.458 51.6192 30.1211 52.0403L30.121 52.0403C30.172 51.9767 30.195 51.9322 30.1875 51.9456L30.1875 51.9456C30.0581 52.176 29.7743 52.9929 29.7788 53.3068C29.792 54.2168 30.3465 55.2751 31.5601 56.9805C31.9698 57.5561 31.8252 58.3479 31.2372 58.7489C30.6492 59.15 29.8404 59.0084 29.4307 58.4328C28.2661 56.7963 27.2098 55.1348 27.1839 53.3428C27.1703 52.4094 27.6771 51.1422 27.9133 50.7216L27.9133 50.7216C27.9436 50.6678 27.9998 50.5714 28.0781 50.4735L28.078 50.4736C28.7835 49.5919 30.3695 48.6486 30.9986 48.413L30.9985 48.4131C31.0705 48.3861 31.1843 48.3467 31.3171 48.3213L31.3172 48.3213C33.6844 47.8685 35.1562 48.0634 36.2577 49.0729C36.9202 49.68 37.4798 50.6642 38.0516 51.7459C38.2684 52.1561 38.5024 52.6122 38.753 53.1007C39.0605 53.7001 39.3975 54.3571 39.779 55.079C39.7868 55.0936 39.7943 55.1085 39.8014 55.1234L41.5228 58.7168C41.6253 58.9308 41.7835 59.2767 41.9916 59.7314C42.7022 61.2841 44.0915 64.3197 46.3735 68.9439C46.6852 69.5756 46.4148 70.3351 45.7695 70.6403C45.1242 70.9455 44.3484 70.6808 44.0366 70.0491Z" fill="black"/>
<path d="M38.1173 69.988L38.1173 69.9881C38.0703 69.8267 37.9939 69.7226 38.0242 69.7702L38.0242 69.7702C38.0931 69.8783 38.3641 70.2169 38.5821 70.4866L38.582 70.4865L38.595 70.5025L38.5951 70.5026C38.8056 70.763 39.0317 71.0709 39.1614 71.3106C39.1847 71.3537 39.2961 71.5516 39.3301 71.7969C39.4162 72.4171 38.9724 72.9881 38.3389 73.0724C37.7054 73.1566 37.1221 72.7222 37.036 72.102C37.0635 72.3 37.1435 72.4233 37.1152 72.3711L37.1152 72.3711C37.0876 72.32 36.9688 72.1433 36.7794 71.9089L36.7795 71.909L36.7666 71.893L36.7665 71.8929C36.6017 71.689 36.2167 71.2159 36.0599 70.9698L36.0599 70.9699C36.0496 70.9537 35.9465 70.8005 35.8909 70.6097C35.7155 70.008 36.0717 69.3809 36.6865 69.2092C37.3013 69.0375 37.9419 69.3862 38.1173 69.988Z" fill="black"/>
<path d="M43.1277 73.3701L43.1276 73.3701C43.2865 73.4831 43.4472 73.5257 43.6097 73.498H43.6098C43.5952 73.5005 43.5684 73.5067 43.5295 73.5167L43.6371 73.4801C43.2074 73.6643 42.772 73.8175 42.331 73.9399L42.415 73.9111L42.1654 74.0138L42.2189 73.9893C41.9077 74.1474 41.699 74.2471 41.5926 74.2884L41.5924 74.2884C41.5824 74.2923 41.5728 74.2959 41.5636 74.2993L41.9374 73.9959C42.1873 73.5875 42.1038 73.2613 41.6871 73.0171L41.6851 73.0159C41.5962 72.9642 41.5088 72.9341 41.4231 72.9257L41.423 72.9257C41.4233 72.9258 41.4237 72.9258 41.4241 72.9258L41.3979 72.9241C41.5153 72.9299 41.5977 72.9351 41.6452 72.9397H41.6449C41.6815 72.9433 41.7147 72.9481 41.7445 72.9542L41.6612 72.942L41.6614 72.942L41.6892 72.945C41.7669 72.9549 41.8429 72.9689 41.9172 72.987C41.9275 72.9895 41.9377 72.9922 41.9479 72.9951L42.2306 73.0768C42.2468 73.0814 42.2628 73.0867 42.2786 73.0924L42.6789 73.2382L42.6658 73.2335C42.6681 73.2343 42.67 73.2348 42.6715 73.2351C42.693 73.2386 42.7143 73.2431 42.7355 73.2485C42.6426 73.2247 42.5632 73.2228 42.4973 73.243L42.7005 73.2107L42.4667 73.2531C42.1685 73.3585 42.0174 73.5579 42.0134 73.8513C42.0188 73.4564 42.3501 73.1406 42.7535 73.1459C43.1568 73.1512 43.4794 73.4755 43.474 73.8704C43.469 74.2368 43.2986 74.4793 42.963 74.598L42.7292 74.6404C42.9526 74.6017 42.9426 74.605 42.9324 74.6081C42.7316 74.6694 42.5425 74.6773 42.3652 74.6318L42.4291 74.6453C42.3456 74.6315 42.2635 74.6108 42.1827 74.5831C42.1784 74.5816 42.174 74.58 42.1697 74.5785L41.7694 74.4327L41.8174 74.4484L41.5346 74.3667L41.5653 74.3749C41.5449 74.3699 41.5234 74.366 41.5008 74.3631L41.5286 74.3661L41.5285 74.3661C41.4821 74.3607 41.4636 74.3577 41.4452 74.3539C41.4663 74.3582 41.4845 74.3611 41.4998 74.3626L41.4995 74.3626C41.4761 74.3603 41.4179 74.3569 41.3248 74.3523C41.3161 74.3519 41.3074 74.3513 41.2987 74.3506C41.2915 74.35 41.2847 74.3493 41.2782 74.3487L41.2782 74.3487C41.1489 74.3361 41.0357 74.3016 40.9388 74.2452L40.9369 74.2441C40.5177 73.9985 40.4335 73.6707 40.6843 73.2609C40.7689 73.1219 40.9012 73.0142 41.0581 72.9576C41.0567 72.9581 41.0555 72.9585 41.0546 72.9589L41.0544 72.9589C41.1148 72.9355 41.2786 72.8559 41.5458 72.7201C41.5633 72.7112 41.5811 72.703 41.5992 72.6956L41.8488 72.5929C41.8761 72.5816 41.9042 72.572 41.9327 72.5641C42.3097 72.4595 42.6825 72.3282 43.0513 72.1701C43.0861 72.1552 43.1221 72.143 43.1589 72.1335C43.2375 72.1133 43.3043 72.0986 43.3591 72.0892L43.3592 72.0892C43.6027 72.0477 43.8117 72.089 43.9862 72.2131C44.3125 72.4451 44.3849 72.8923 44.1479 73.2118C43.9108 73.5313 43.4541 73.6022 43.1277 73.3701Z" fill="black"/>
<path d="M44.0945 69.6302C44.0906 69.763 44.1191 69.8656 44.1801 69.9381C44.1611 69.9156 44.121 69.8806 44.0597 69.8331C44.0549 69.8294 44.0501 69.8256 44.0454 69.8218C43.8064 69.6268 43.6422 69.5131 43.5528 69.4806H43.5529C43.5601 69.4832 43.5703 69.4858 43.5837 69.4883C43.5143 69.4751 43.4473 69.4522 43.3846 69.4201C43.2814 69.3673 43.0788 69.374 42.777 69.4403L42.83 69.4266C42.785 69.44 42.746 69.4592 42.713 69.4841L42.7704 69.4359C42.5575 69.6345 42.3284 69.8304 42.083 70.0237L42.1185 69.9939C42.1159 69.9962 42.1141 69.9979 42.113 69.9991C42.1183 69.9936 42.1246 69.9851 42.1321 69.9738L42.1798 69.8886C42.0714 70.1176 41.9629 70.2969 41.8542 70.4265L41.8542 70.4266C41.812 70.4769 41.7683 70.5219 41.7231 70.5618C41.4485 70.8035 41.0328 70.8066 40.7545 70.569C40.6076 70.4435 40.356 70.326 39.9998 70.2165L40.113 70.2419C39.9341 70.2163 39.7617 70.2494 39.5957 70.3411L39.6217 70.326C39.2813 70.5329 39.0707 70.6931 38.9901 70.8067L39.0146 70.7698C38.9283 70.909 38.8929 70.9981 38.9086 71.0372C39.0562 71.4047 38.8715 71.8197 38.4961 71.9642C38.1207 72.1086 37.6967 71.9278 37.5491 71.5603C37.3569 71.0815 37.4292 70.5705 37.766 70.0275C37.7738 70.015 37.782 70.0027 37.7905 69.9906C37.9862 69.715 38.3398 69.4218 38.8515 69.111C38.86 69.1058 38.8687 69.1007 38.8775 69.0959C39.3334 68.8439 39.8156 68.7542 40.324 68.8268C40.3624 68.8323 40.4003 68.8408 40.4373 68.8522C40.9882 69.0215 41.414 69.2345 41.7147 69.4913L40.7462 69.4985C40.7367 69.5069 40.7297 69.5138 40.7251 69.5192L40.7251 69.5193C40.7551 69.4835 40.7982 69.4062 40.8544 69.2875C40.8683 69.2581 40.8842 69.2296 40.9021 69.2023C40.9438 69.1386 40.9934 69.0769 41.0507 69.0175C41.0761 68.9911 41.1031 68.9651 41.1318 68.9394C41.1433 68.9291 41.1551 68.9192 41.1672 68.9096C41.3808 68.7414 41.5793 68.5717 41.7626 68.4007C41.7808 68.3837 41.8 68.3676 41.8199 68.3525C41.994 68.2208 42.1888 68.1229 42.4044 68.0586C42.422 68.0534 42.4397 68.0488 42.4575 68.0449C43.1072 67.9023 43.6417 67.9382 44.061 68.1526L43.8619 68.0845C43.9271 68.0968 43.9937 68.1154 44.0616 68.1401L44.0617 68.1401C44.3072 68.2294 44.6135 68.4238 44.9805 68.7231L44.9663 68.7118C45.1089 68.8223 45.2227 68.9281 45.3076 69.029C45.479 69.2327 45.5614 69.447 45.5547 69.6719C45.5429 70.0666 45.2065 70.3772 44.8033 70.3657C44.4001 70.3542 44.0828 70.0249 44.0945 69.6302Z" fill="black"/>
<path d="M38.6448 57.5934L38.6694 57.5961L38.6693 57.5961L38.6446 57.5933C38.5305 57.5786 38.4536 57.5722 38.4141 57.5744C38.4178 57.5742 38.4228 57.5736 38.4293 57.5727C38.4225 57.5737 38.4155 57.5745 38.4086 57.5753L37.5695 57.6678L37.6088 57.6624C37.4702 57.6852 37.2043 57.7701 36.8112 57.9173C36.7871 57.9263 36.7627 57.934 36.7379 57.9405L36.7378 57.9405C36.7414 57.9396 36.7442 57.9388 36.7461 57.9381L36.7462 57.9381C36.6319 57.9749 36.3578 58.1222 35.9241 58.38C35.8422 58.4287 35.7513 58.4612 35.6566 58.4755C35.7808 58.4567 35.8808 58.416 35.9567 58.3533L35.9567 58.3533C35.9079 58.3936 35.7983 58.5059 35.628 58.6901C35.6131 58.7062 35.5974 58.7217 35.581 58.7364L35.581 58.7364C35.5374 58.7757 35.487 58.8135 35.4298 58.8499C35.3605 58.8939 35.2734 58.9406 35.1684 58.99C34.8048 59.161 34.3685 59.011 34.1938 58.6551C34.0191 58.2992 34.1722 57.872 34.5358 57.701C34.5846 57.6781 34.6175 57.6612 34.6344 57.6504C34.6229 57.6577 34.6088 57.6689 34.592 57.684L34.545 57.7304C34.7593 57.4987 34.9159 57.3419 35.0149 57.2602L35.015 57.2602C35.148 57.1503 35.2874 57.0844 35.4334 57.0623L35.1659 57.1577C35.695 56.8432 36.0698 56.6505 36.2902 56.5796L36.2903 56.5795C36.3151 56.5715 36.3393 56.5645 36.3629 56.5584L36.2895 56.5816C36.7734 56.4005 37.1325 56.2906 37.3668 56.2521C37.3798 56.25 37.3929 56.2482 37.4061 56.2467L38.2452 56.1542L38.2245 56.1568C38.2594 56.152 38.296 56.1485 38.3343 56.1465C38.4646 56.1395 38.6319 56.1492 38.8361 56.1757L38.8114 56.1729L38.8116 56.1729C39.2361 56.2274 39.5175 56.5867 39.4646 56.9782C39.4117 57.3697 39.0447 57.6451 38.6448 57.5934Z" fill="black"/>
<path d="M29.5248 56.3806C29.9202 55.8373 30.2837 55.4606 30.6153 55.2506L30.444 55.4015C30.4898 55.346 30.5482 55.2929 30.6191 55.2422L30.6191 55.2421C30.7592 55.1419 31.1419 54.9217 31.7672 54.5814L31.711 54.6154C32.4704 54.1092 32.9264 53.8157 33.0791 53.7348L33.079 53.7349C33.4915 53.5164 33.8226 53.5864 34.0721 53.9448L34.0725 53.9453C34.2319 54.1747 34.2492 54.4145 34.1244 54.6646L33.1381 53.7128C33.6809 53.4436 34.0762 53.2843 34.3239 53.235L34.324 53.235C34.3473 53.2303 34.3701 53.2264 34.3925 53.2231L34.3203 53.2374C34.6423 53.1569 35.0384 53.0774 35.5088 52.9987L35.6175 52.9886H35.6175L35.49 53.0021C35.4983 53.0005 35.5067 52.9989 35.5153 52.9974L35.5155 52.9974C35.6514 52.9737 35.9317 52.9507 36.3566 52.9282L36.3269 52.9303C36.3273 52.9303 36.3276 52.9303 36.3279 52.9302L36.3278 52.9302C36.3271 52.9303 36.3263 52.9305 36.3254 52.9309C36.7068 52.8025 37.1224 53.0012 37.2535 53.3746C37.3846 53.7481 37.1816 54.1549 36.8001 54.2832C36.721 54.3099 36.6399 54.3297 36.5568 54.3426L36.5567 54.3426C36.5264 54.3473 36.4959 54.3511 36.4652 54.3539C36.4552 54.3548 36.4453 54.3556 36.4355 54.3561C36.0699 54.3755 35.8485 54.3919 35.7711 54.4053L35.7713 54.4053C35.7719 54.4052 35.7726 54.4051 35.7737 54.4049L35.6462 54.4183H35.6461C35.767 54.4061 35.761 54.4072 35.7548 54.4083C35.3232 54.4805 34.9654 54.552 34.6815 54.623C34.6577 54.6289 34.6336 54.6337 34.6093 54.6373C34.6119 54.6369 34.6138 54.6366 34.615 54.6363L34.6152 54.6363C34.4962 54.66 34.2238 54.7774 33.7982 54.9885C33.5182 55.1273 33.1789 55.0756 32.9554 54.8599C32.7319 54.6442 32.6741 54.3128 32.8119 54.0368C32.6886 54.2839 32.7061 54.5215 32.8647 54.7497L32.865 54.7502C33.1105 55.1028 33.4136 55.1836 33.7741 54.9926L33.7741 54.9926C33.6651 55.0504 33.2514 55.3186 32.5331 55.7974C32.5149 55.8095 32.4962 55.8208 32.4769 55.8313C31.9043 56.1429 31.5722 56.3315 31.4808 56.3969L31.4808 56.3968C31.5128 56.3739 31.5459 56.3418 31.5802 56.3003C31.5316 56.3591 31.4738 56.4101 31.4088 56.4512C31.2334 56.5623 31.002 56.8154 30.7144 57.2104C30.4803 57.532 30.0243 57.607 29.6958 57.3778C29.3672 57.1487 29.2907 56.7022 29.5248 56.3806Z" fill="black"/>
<path d="M37.4234 55.9139C37.5038 55.9111 37.5707 55.8974 37.6239 55.8729L37.6623 55.8538C37.5336 55.9225 37.4477 55.9672 37.4045 55.9879L37.4046 55.9878C37.1171 56.126 36.8527 56.1022 36.6112 55.9162L37.3499 56.0117C37.3321 56.0192 37.3132 56.0265 37.2933 56.0338L37.2932 56.0338C37.2334 56.0556 37.1558 56.079 37.0606 56.1041L37.3267 55.9723C37.2196 56.056 37.0889 56.1087 36.9344 56.1305L36.9345 56.1305C36.883 56.1377 36.8082 56.1451 36.71 56.1526L36.7007 56.1532L36.3167 56.1778L36.3377 56.1761C36.3253 56.1773 36.3082 56.18 36.2863 56.1842C36.282 56.1851 36.2774 56.1859 36.273 56.1867C36.102 56.2169 35.9902 56.2439 35.9375 56.2678C35.948 56.2631 35.9613 56.255 35.9774 56.2437C35.6499 56.4741 35.1935 56.4009 34.9581 56.0803C34.7227 55.7596 34.7975 55.3128 35.125 55.0824C35.1837 55.0411 35.2497 55.0038 35.3229 54.9706C35.4892 54.895 35.7196 54.8313 36.0139 54.7794L36.0006 54.7818C36.0716 54.768 36.1383 54.7582 36.2006 54.7524C36.2076 54.7518 36.2146 54.7512 36.2216 54.7508L36.6056 54.7262L36.5962 54.7269C36.6631 54.7218 36.7066 54.7178 36.7267 54.715L36.7267 54.715C36.6187 54.7302 36.5147 54.7769 36.4146 54.8552C36.4931 54.7938 36.5837 54.7489 36.6807 54.7233C36.7323 54.7097 36.7669 54.6997 36.7846 54.6933L36.7845 54.6933C36.7824 54.6941 36.7795 54.6952 36.7758 54.6968C37.0214 54.5941 37.3046 54.6307 37.5145 54.7923C37.2744 54.6075 37.0232 54.5781 36.7608 54.7042L36.7609 54.7041C36.7854 54.6924 36.8528 54.6571 36.9632 54.5982C36.9758 54.5915 36.9886 54.5851 37.0016 54.5791C37.1288 54.5205 37.2518 54.4891 37.3706 54.4849C37.7737 54.4706 38.1123 54.7789 38.1269 55.1736C38.1415 55.5682 37.8265 55.8997 37.4234 55.9139Z" fill="black"/>
<path d="M38.9132 67.0418L38.8684 66.9047L38.8897 66.9615L38.6536 66.4061C38.6459 66.3881 38.639 66.3698 38.6329 66.3513C38.4949 65.9334 38.2893 65.3698 38.016 64.6604L38.0184 64.6665C37.7507 63.9904 37.5359 63.4906 37.374 63.167C37.1965 62.8124 37.3462 62.3841 37.7085 62.2103C38.0707 62.0365 38.5082 62.1831 38.6857 62.5378C38.8661 62.8981 39.0977 63.4354 39.3804 64.1498L39.3828 64.1559C39.6643 64.8866 39.8776 65.4718 40.0228 65.9114L40.0021 65.8565L40.2383 66.4119C40.2462 66.4306 40.2534 66.4495 40.2596 66.4688L40.3045 66.6059C40.4274 66.982 40.2157 67.3845 39.8315 67.5049C39.4473 67.6252 39.0362 67.4179 38.9132 67.0418Z" fill="black"/>
<path d="M49.1773 33.4626C49.0055 33.4659 48.819 33.4872 48.6175 33.5264C48.51 33.5474 48.4066 33.5848 48.3103 33.6379L48.3101 33.638L48.3101 33.6381C47.7589 33.9418 47.3877 34.1708 47.1966 34.3251L47.1966 34.3252C47.1317 34.3776 47.075 34.4301 47.0264 34.4829L47.0261 34.483C46.7142 34.8112 46.5068 35.1861 46.404 35.6074L46.4035 35.6075C46.3707 35.7299 46.3509 35.8572 46.344 35.9895L46.344 35.9895C46.3371 36.1221 46.3434 36.2596 46.3629 36.4021L46.3624 36.4022C46.3642 36.6836 46.3883 36.9201 46.4347 37.1117C46.4882 37.3328 46.5749 37.522 46.6945 37.6793L46.6941 37.6794C46.7656 37.7979 46.8532 37.9101 46.9571 38.016L46.9571 38.0161C47.1273 38.1896 47.3426 38.3466 47.6031 38.4872L47.6031 38.4873C47.6522 38.5137 47.7033 38.5362 47.7561 38.5546C48.4737 38.8046 48.9639 38.9513 49.2269 38.9945L49.2269 38.9946C49.3248 39.0106 49.4184 39.0178 49.5076 39.0161C49.6018 39.0142 49.6911 39.0025 49.7756 38.9809L49.7758 38.9809C49.8091 38.9723 49.842 38.9622 49.8743 38.9504C49.9548 38.9212 50.0296 38.8862 50.099 38.8455L50.0995 38.8456C50.1254 38.8819 50.1541 38.9171 50.1856 38.9508C50.3951 39.1751 50.6839 39.2862 50.9717 39.2807C51.2148 39.2761 51.4573 39.1881 51.6509 39.0149C51.8292 38.8552 51.9732 38.6658 52.0829 38.4467C52.3228 37.9673 52.3845 37.3596 52.2679 36.6236L52.2678 36.6237C52.1238 35.6576 51.7129 34.8555 51.0351 34.2173L51.0346 34.2174C50.9394 34.1122 50.826 34.0167 50.6945 33.9307L50.6945 33.9308C50.4705 33.7843 50.1774 33.6577 49.8152 33.5507L49.8147 33.5508C49.6745 33.5045 49.5234 33.4764 49.3614 33.4663L49.3614 33.4664C49.3021 33.4627 49.2407 33.4614 49.1773 33.4626Z" fill="black"/>
<path d="M65.0862 33.534C65.0362 33.535 64.9856 33.5379 64.9344 33.5428L64.9338 33.5429C64.0395 33.6039 63.1364 34.0395 62.2245 34.8497C62.2137 34.8593 62.2031 34.8692 62.1926 34.8792C61.8334 35.2267 61.5852 35.5026 61.4481 35.707L61.4481 35.707C61.4097 35.7642 61.3763 35.8205 61.3479 35.8758L61.3473 35.8759C61.0647 36.368 60.8787 36.896 60.7893 37.46C60.7014 38.0141 61.089 38.533 61.6551 38.619C61.7159 38.6282 61.7762 38.6321 61.8357 38.6309C62.3299 38.6214 62.7606 38.266 62.839 37.7714C62.8404 37.7624 62.8419 37.7534 62.8434 37.7445L62.844 37.7445C63.1563 38.1963 63.5321 38.5075 63.9712 38.678L63.9713 38.678C64.0307 38.7011 64.091 38.7214 64.1521 38.7389L64.1522 38.7389C64.1827 38.7477 64.2136 38.755 64.2448 38.761C64.4218 38.7948 64.5941 38.8101 64.7617 38.8069C64.8501 38.8052 64.9372 38.7983 65.023 38.7863L65.023 38.7864C65.0397 38.784 65.0564 38.7814 65.0729 38.7787L65.0723 38.7788C65.4029 38.7385 65.7517 38.6299 66.1185 38.4532C66.1786 38.4243 66.2356 38.3897 66.2889 38.35C67.0739 37.7648 67.3916 36.9333 67.2421 35.8554C67.2371 35.8198 67.2303 35.7846 67.2216 35.7498C67.0274 34.976 66.7384 34.4068 66.3544 34.0423C65.9878 33.6943 65.565 33.5248 65.0862 33.534Z" fill="black"/>
<path d="M64.4281 37.1603C64.4146 37.0334 64.3391 36.9419 64.2016 36.8859L64.1645 36.8716C64.2461 36.9012 64.349 36.9209 64.473 36.9306L64.4199 36.9278C64.5094 36.9302 64.5695 36.9302 64.6003 36.9278L64.6004 36.9278C64.4009 36.9429 64.2176 37.0377 64.0505 37.212C64.4303 36.8156 65.0665 36.7956 65.4715 37.1674C65.8764 37.5392 65.8968 38.1619 65.517 38.5584C65.3282 38.7555 65.0743 38.8661 64.7552 38.8902H64.7552C64.6549 38.8978 64.5251 38.8995 64.3659 38.8953C64.3482 38.8948 64.3305 38.8939 64.3128 38.8925C64.0038 38.8683 63.7215 38.8099 63.4659 38.7171C63.4534 38.7126 63.4411 38.7079 63.4288 38.7029C62.8306 38.4591 62.4971 38.0126 62.4283 37.3635C62.371 36.8229 62.7722 36.3392 63.3244 36.283C63.8766 36.2269 64.3707 36.6197 64.4281 37.1603Z" fill="black"/>
<path d="M64.4551 36.7412L64.5489 37.1543L64.5164 37.0423C64.5091 37.0216 64.5025 37.0058 64.4965 36.9947L64.4965 36.9948C64.5109 37.0212 64.5419 37.0649 64.5897 37.1257L64.5173 37.0431C64.5216 37.0475 64.5249 37.0506 64.5271 37.0523C64.5136 37.0419 64.4945 37.0341 64.4696 37.0289C64.4829 37.0317 64.4963 37.0348 64.5095 37.038C64.4991 37.0355 64.4911 37.034 64.4853 37.0337H64.4852C64.5203 37.0358 64.5795 37.0253 64.6627 37.0021L64.6647 37.0016C64.8528 36.9496 64.9765 36.9064 65.0358 36.8719L65.0359 36.8719C65.0059 36.8893 64.972 36.9189 64.9341 36.9608C64.942 36.952 64.9501 36.9434 64.9583 36.935C65.114 36.7744 65.1916 36.5901 65.1911 36.382L65.2078 36.561C65.1774 36.397 65.0719 36.2618 64.8913 36.1554C64.4006 35.8661 64.2424 35.2422 64.5379 34.7618C64.8334 34.2815 65.4707 34.1266 65.9614 34.4158C66.6776 34.838 67.1067 35.4322 67.2487 36.1983C67.2597 36.2574 67.2652 36.3173 67.2654 36.3773C67.2671 37.1275 66.9995 37.7794 66.4626 38.3331L66.4868 38.3073C66.3811 38.4241 66.2501 38.5278 66.0937 38.6186L66.0938 38.6185C65.8789 38.7433 65.5904 38.8557 65.2282 38.9558L65.2302 38.9552C64.9189 39.0419 64.6274 39.0769 64.3557 39.0603H64.3557C64.233 39.0528 64.1144 39.0348 64 39.0064L64.0398 39.0155C63.7482 38.955 63.4822 38.8319 63.2417 38.646C63.1634 38.5855 63.0887 38.5188 63.0175 38.4458C62.9918 38.4196 62.9677 38.392 62.945 38.3631C62.827 38.2127 62.7337 38.0745 62.6651 37.9483L62.6652 37.9484C62.6206 37.8664 62.5844 37.7859 62.5564 37.707C62.5434 37.6703 62.5326 37.6329 62.524 37.595L62.4302 37.1818C62.3059 36.6345 62.6584 36.0921 63.2176 35.9704C63.7767 35.8487 64.3308 36.1939 64.4551 36.7412Z" fill="black"/>
<path d="M51.1847 31.385C51.2115 31.4219 51.2356 31.4491 51.257 31.4665C51.2466 31.458 51.2281 31.4454 51.2014 31.4288L51.3046 31.4854C51.2141 31.4422 51.1517 31.4152 51.1172 31.4042L51.1172 31.4041C51.2531 31.4475 51.412 31.4415 51.5937 31.3862C51.5575 31.3972 51.5207 31.4063 51.4834 31.4134C51.7849 31.3561 51.9471 31.2016 51.9701 30.9499L51.9733 30.8192C51.973 30.8111 51.9724 30.8049 51.9717 30.8007L51.9717 30.8007C51.9856 30.8767 52.0515 31.0032 52.1696 31.1803L52.1501 31.1521C52.2463 31.2864 52.3221 31.368 52.3776 31.397L52.3777 31.3971C52.3776 31.397 52.3774 31.3969 52.3771 31.3968L52.37 31.3934C52.4378 31.4256 52.4852 31.4461 52.5124 31.4549C52.4454 31.4332 52.3603 31.4259 52.2573 31.433C52.3166 31.4289 52.3761 31.4299 52.4353 31.4358C52.4595 31.4382 52.4769 31.4387 52.4875 31.4372C52.482 31.438 52.4746 31.4401 52.4653 31.4435C52.4906 31.4342 52.5161 31.4259 52.542 31.4185C52.4699 31.439 52.4154 31.4634 52.3787 31.4918C52.3972 31.4775 52.4254 31.4493 52.4632 31.4072L52.4257 31.4515C52.2701 31.6458 52.2211 31.8428 52.2787 32.0423C52.2754 32.0308 52.2723 32.0192 52.2694 32.0076L52.2693 32.0075C52.2697 32.0089 52.27 32.0099 52.2702 32.0105L52.2701 32.0104C52.2496 31.9399 52.1832 31.8156 52.0707 31.6375L52.0975 31.6779C52.0768 31.6482 52.053 31.6235 52.0261 31.6038L52.0657 31.6315C52.0705 31.6347 52.0742 31.637 52.0769 31.6386C51.9955 31.5918 51.8074 31.5222 51.5126 31.43L51.5192 31.432C51.5311 31.4357 51.5405 31.4382 51.5474 31.4395L51.5473 31.4395C51.5089 31.4321 51.4376 31.4278 51.3334 31.4265C50.7607 31.4195 50.3021 30.9594 50.3093 30.3987C50.3164 29.838 50.7865 29.3891 51.3592 29.3961C51.5888 29.3989 51.7843 29.4157 51.9458 29.4467L51.9457 29.4467C52.0133 29.4596 52.0772 29.4753 52.1376 29.4938L52.1441 29.4958C52.5857 29.6339 52.9136 29.7647 53.1279 29.888C53.1647 29.9091 53.1995 29.9307 53.2325 29.9526C53.246 29.9616 53.2592 29.9708 53.2721 29.9804C53.4803 30.1335 53.6589 30.3164 53.808 30.5292C53.8173 30.5424 53.8262 30.5558 53.8349 30.5695C54.0487 30.908 54.1922 31.2033 54.2654 31.4553L54.2653 31.4551C54.2721 31.4786 54.2784 31.5019 54.2842 31.5251L54.2749 31.4903C54.4082 31.9523 54.3361 32.3568 54.0585 32.7037C54.0464 32.7188 54.0339 32.7336 54.021 32.748C53.9001 32.8826 53.7809 32.9953 53.6634 33.086C53.4881 33.2214 53.3068 33.3157 53.1196 33.3688L53.1963 33.3438C53.062 33.3934 52.9216 33.4281 52.7751 33.4482C52.5987 33.4724 52.415 33.4749 52.2242 33.4558L52.4022 33.4586C52.2337 33.4702 52.0537 33.445 51.8623 33.3831C51.7475 33.3461 51.6148 33.2917 51.464 33.22L51.4568 33.2166C51.438 33.2075 51.4192 33.198 51.4006 33.1883L51.4007 33.1884C51.054 33.0071 50.7377 32.7171 50.4519 32.3181C50.4452 32.3088 50.4387 32.2994 50.4324 32.2899C50.1607 31.8824 49.9932 31.5052 49.9298 31.1584L49.9298 31.1584C49.9139 31.0711 49.9042 30.985 49.9007 30.9002C49.899 30.8566 49.9 30.8129 49.904 30.7695C49.9735 30.0067 50.3682 29.5569 51.088 29.42L50.9777 29.4472C51.2164 29.3745 51.4771 29.3833 51.7599 29.4735L51.7598 29.4735C51.8855 29.5136 52.0367 29.5758 52.2135 29.6601C52.2489 29.677 52.2834 29.6959 52.3166 29.7167C52.4176 29.7797 52.5073 29.8432 52.5855 29.907C52.7015 30.0018 52.798 30.102 52.8749 30.2078C53.2069 30.6647 53.0978 31.2986 52.631 31.6237C52.1643 31.9488 51.5168 31.8419 51.1847 31.385Z" fill="black"/>
<path d="M62.6178 31.4985C62.44 31.5382 62.3256 31.5668 62.2744 31.5846L62.2744 31.5846C62.3944 31.543 62.5083 31.4624 62.6163 31.3429C62.4808 31.4928 62.3031 31.6003 62.1055 31.6516L62.1054 31.6517C62.2122 31.6239 62.2964 31.587 62.3583 31.5409C62.3166 31.5719 62.2401 31.6434 62.1288 31.7552L62.2192 31.6513C62.1325 31.7657 62.0823 31.8496 62.0686 31.9027C62.0794 31.8609 62.0742 31.8083 62.053 31.7448C62.0569 31.7566 62.0607 31.7685 62.0641 31.7804C62.0172 31.6198 61.9077 31.4955 61.7356 31.4073C61.751 31.4152 61.7662 31.4235 61.7811 31.4321C61.6672 31.3664 61.5643 31.3315 61.4725 31.3272C61.4976 31.3283 61.5422 31.3261 61.6061 31.3205L61.5645 31.325L61.5646 31.325L61.5621 31.3253C61.7 31.3073 61.8432 31.2726 61.9917 31.2212L61.988 31.2225C61.9627 31.2314 61.9431 31.2395 61.9293 31.2469L61.9292 31.2469C61.975 31.2225 62.057 31.164 62.1754 31.0717L62.1398 31.1008C62.1409 31.0998 62.1417 31.0991 62.1422 31.0986C62.122 31.1184 62.108 31.1473 62.1001 31.1851L62.0823 31.3098C62.0829 31.3016 62.0832 31.2956 62.0831 31.2918C62.0861 31.3942 62.1425 31.496 62.2525 31.5974C62.2402 31.5861 62.2282 31.5745 62.2165 31.5626C62.3151 31.6627 62.413 31.7149 62.5103 31.7191L62.5102 31.7191C62.5097 31.7191 62.5088 31.7191 62.5076 31.7191L62.6991 31.702C62.5584 31.7276 62.4666 31.7468 62.4235 31.7597L62.4235 31.7597C62.4285 31.7582 62.4352 31.7559 62.4437 31.7527C62.4376 31.755 62.4315 31.7572 62.4254 31.7593C62.5143 31.7284 62.5808 31.6924 62.6248 31.6513C62.6235 31.6525 62.6215 31.6545 62.6188 31.6573C62.2256 32.0651 61.5692 32.0836 61.1527 31.6986C60.7361 31.3137 60.7173 30.6711 61.1105 30.2634C61.138 30.2349 61.1655 30.2078 61.193 30.1821C61.3627 30.0235 61.5424 29.9114 61.7319 29.8455L61.7136 29.8521C61.7465 29.84 61.7816 29.8284 61.819 29.8172L61.819 29.8172C61.9361 29.7823 62.103 29.7451 62.3198 29.7056C62.3829 29.6941 62.447 29.6884 62.5112 29.6885C62.5418 29.6885 62.5722 29.6892 62.6022 29.6905L62.6021 29.6905C63.0565 29.7102 63.426 29.8647 63.7105 30.1539L63.6746 30.1191C63.9826 30.4032 64.1433 30.7749 64.1565 31.2345C64.1587 31.3095 64.1567 31.3866 64.1505 31.4657C64.1472 31.5076 64.1412 31.5493 64.1326 31.5904C64.0577 31.9505 63.8839 32.2644 63.6113 32.5321C63.5769 32.5659 63.5411 32.5987 63.5039 32.6305C63.4923 32.6404 63.4804 32.6502 63.4683 32.6596C63.2563 32.825 63.0749 32.948 62.9241 33.0287L62.924 33.0288C62.8425 33.0724 62.7631 33.1077 62.686 33.1347L62.6823 33.136C62.3986 33.234 62.1167 33.3014 61.8366 33.338L61.8341 33.3383L61.834 33.3384C61.8219 33.3399 61.8071 33.3416 61.7924 33.3429C61.6337 33.3569 61.4942 33.3611 61.374 33.3555C61.1243 33.3439 60.9092 33.286 60.7285 33.1818L60.774 33.2066C60.4207 33.0257 60.186 32.7364 60.0698 32.3388L60.081 32.3744C59.9783 32.0662 59.9704 31.7435 60.0573 31.4062C60.138 31.0931 60.3032 30.7717 60.553 30.4419C60.5807 30.4053 60.6109 30.3706 60.6433 30.3379C60.8258 30.1546 60.9784 30.0172 61.1011 29.9257C61.2574 29.8091 61.4148 29.7302 61.5731 29.6891L61.0623 29.9978C61.1914 29.855 61.3645 29.7459 61.5818 29.6705L61.5819 29.6705C61.709 29.6264 61.9008 29.5758 62.1571 29.5186C62.7156 29.3941 63.2715 29.7364 63.3987 30.2831C63.5259 30.8298 63.1763 31.374 62.6178 31.4985Z" fill="black"/>
<path d="M60.4929 31.5779C60.3366 31.091 60.4438 30.6387 60.8144 30.2209C60.8503 30.1805 60.8893 30.143 60.9312 30.1086C61.2072 29.8822 61.4788 29.72 61.7461 29.6221L61.7461 29.6222C61.8361 29.5892 61.9261 29.5632 62.016 29.5443C62.0304 29.5412 62.0448 29.5385 62.0593 29.5361C62.2759 29.4997 62.4945 29.5127 62.7152 29.575L62.7169 29.5755C62.8046 29.6004 62.9229 29.6383 63.0717 29.6893C63.0834 29.6933 63.095 29.6976 63.1066 29.702C63.2442 29.7546 63.3646 29.8236 63.4677 29.9089C63.5114 29.945 63.552 29.9845 63.5891 30.0272C63.9632 30.4581 64.0666 30.9135 63.8993 31.3935C63.7144 31.9243 63.125 32.2077 62.5829 32.0267C62.0408 31.8457 61.7512 31.2687 61.9361 30.738C61.8498 30.9858 61.8739 31.1872 62.0085 31.3423L62.1299 31.4606C62.2017 31.52 62.2756 31.5642 62.3513 31.5932L62.3862 31.6059C62.2729 31.567 62.1905 31.5403 62.139 31.5257L62.1407 31.5261C62.2244 31.5498 62.314 31.5536 62.4096 31.5375L62.4529 31.5293C62.4616 31.5275 62.4682 31.5257 62.4727 31.5241L62.4727 31.5241C62.4275 31.5406 62.3579 31.5875 62.2637 31.6648L62.3804 31.5525C62.5168 31.3988 62.5472 31.2044 62.4718 30.9692C62.6435 31.5042 62.3397 32.0741 61.7932 32.2422C61.2468 32.4103 60.6646 32.1129 60.4929 31.5779Z" fill="black"/>
<path d="M40.1304 38.2446C39.9894 38.207 39.8918 38.1796 39.8309 38.1625L39.831 38.1625C39.7943 38.1522 39.7798 38.1481 39.768 38.145L39.7682 38.145C39.7666 38.1446 39.7642 38.144 39.7647 38.1441L39.7649 38.1441C39.765 38.1442 39.7682 38.145 39.774 38.1463C39.7701 38.1454 39.7659 38.1445 39.762 38.1436L39.304 38.0357L39.3382 38.0433L38.5099 37.8722L38.5669 37.8826C38.3892 37.8543 38.2787 37.8432 38.216 37.8407H38.2161C38.1935 37.8398 38.1717 37.8384 38.158 37.8375L38.1578 37.8375C37.9857 37.8255 37.3714 37.7595 36.9376 37.6528C36.2694 37.4885 35.8637 36.825 36.0315 36.1708C36.1993 35.5166 36.8771 35.1195 37.5454 35.2838C37.7808 35.3416 38.2341 35.394 38.3349 35.401L38.3347 35.401C38.3362 35.4011 38.3303 35.4006 38.3169 35.4001L38.317 35.4001C38.5257 35.4084 38.749 35.4369 38.9679 35.4718C38.987 35.4748 39.006 35.4783 39.025 35.4822L39.8533 35.6533C39.8647 35.6557 39.8761 35.6582 39.8875 35.6609L40.3455 35.7687L40.3335 35.7659C40.3552 35.7708 40.3758 35.7758 40.3941 35.7805L40.3943 35.7806C40.4042 35.7831 40.4152 35.786 40.424 35.7883L40.4242 35.7884C40.4555 35.7967 40.4898 35.8064 40.5196 35.8148L40.5197 35.8148C40.5776 35.8311 40.6606 35.8544 40.7865 35.888C41.4513 36.0654 41.8433 36.7367 41.6621 37.3875C41.4809 38.0382 40.7951 38.422 40.1304 38.2446Z" fill="black"/>
<path d="M41.4331 41.6079L41.5132 41.609H41.513L41.4328 41.6079C41.4441 41.6084 41.48 41.6094 41.5327 41.6017L41.5328 41.6017C41.3364 41.6304 41.1614 41.6529 41.0071 41.6722L41.0079 41.6721C40.9349 41.6813 40.8563 41.6825 40.8828 41.6816C40.8675 41.6821 40.8497 41.6826 40.8317 41.6831C40.8127 41.6836 40.7551 41.6851 40.7156 41.6863H40.7158C40.6827 41.6874 40.6463 41.6891 40.5925 41.6918H40.5925C40.5572 41.6935 40.5206 41.6953 40.4774 41.6971H40.4774C40.4663 41.6976 40.4502 41.6988 40.3961 41.7039L40.3957 41.704L40.3879 41.7047L40.3866 41.7048C40.3888 41.7046 40.3897 41.7045 40.3892 41.7046L40.39 41.7045C40.3659 41.7071 40.3115 41.7153 40.1675 41.7382L40.1676 41.7382C40.1056 41.748 40.0201 41.7616 39.9368 41.7744L39.9642 41.7699L39.964 41.7699L39.9364 41.7744C39.7476 41.8034 39.5846 41.8146 39.4857 41.8217L39.486 41.8217C39.4951 41.821 39.4458 41.8246 39.4569 41.8238H39.4569C39.3663 41.8304 39.2726 41.837 39.2003 41.8394L39.2008 41.8394C39.193 41.8396 39.1832 41.8399 39.1748 41.8401L39.1756 41.8401C39.1113 41.8416 39.0141 41.8445 38.8858 41.8501C38.8767 41.8505 38.8676 41.8508 38.8584 41.851L38.6856 41.8548L38.7357 41.8527L38.5236 41.8659C38.5096 41.8668 38.4957 41.8674 38.4818 41.8678C38.2728 41.8738 38.1592 41.8778 38.1436 41.8785L38.1418 41.8786C38.1376 41.8787 38.147 41.8783 38.1473 41.8783L38.1518 41.8781L38.1492 41.8782L38.1487 41.8783C38.1326 41.8791 38.089 41.8828 37.9812 41.8937L37.9808 41.8937C37.9486 41.8969 37.9179 41.8987 37.9109 41.8991L37.9105 41.8991C37.815 41.9045 37.5516 41.9126 37.3159 41.9171C36.6456 41.93 36.0915 41.4085 36.0784 40.7523C36.0652 40.0961 36.5979 39.5537 37.2682 39.5408C37.503 39.5363 37.7257 39.5288 37.7701 39.5263L37.7697 39.5263C37.7771 39.5259 37.7594 39.5267 37.7331 39.5293L37.7326 39.5294C37.824 39.5202 37.9313 39.5094 38.0194 39.5048L38.0189 39.5048L38.0215 39.5047L38.026 39.5045C38.0341 39.5041 38.0346 39.5041 38.0398 39.5039L38.038 39.5039C38.0734 39.5024 38.2023 39.498 38.411 39.492L38.3692 39.4939L38.5813 39.4807C38.598 39.4797 38.6147 39.4789 38.6314 39.4786L38.8042 39.4748L38.7769 39.4757C38.9234 39.4693 39.0365 39.4658 39.1194 39.4639L39.1203 39.4639C39.1173 39.464 39.1181 39.464 39.1167 39.464L39.1172 39.464C39.1317 39.4635 39.1763 39.4609 39.2765 39.4536H39.2766C39.3012 39.4518 39.2847 39.453 39.3082 39.4513L39.3084 39.4513C39.4091 39.4441 39.4819 39.4384 39.5609 39.4263L39.5334 39.4308L39.5336 39.4308L39.5609 39.4263C39.6412 39.4139 39.7116 39.4028 39.7784 39.3921L39.7785 39.3921C39.8891 39.3745 40.0233 39.3527 40.1271 39.3417L40.1279 39.3416C40.1373 39.3406 40.146 39.3397 40.1576 39.3386L40.1563 39.3388L40.1641 39.338L40.1637 39.3381C40.2078 39.3339 40.2874 39.3261 40.3736 39.3225L40.3736 39.3225C40.4047 39.3212 40.4352 39.3197 40.4701 39.318H40.4702C40.5189 39.3156 40.5796 39.3125 40.6404 39.3107H40.6405C40.685 39.3093 40.7462 39.3077 40.7657 39.3072C40.789 39.3065 40.7959 39.3064 40.8009 39.3062C40.8398 39.3049 40.7692 39.3058 40.6986 39.3146L40.6993 39.3145C40.8477 39.296 41.002 39.2761 41.1741 39.2509L41.1742 39.2509C41.3109 39.2309 41.4372 39.2288 41.5455 39.2337L41.4653 39.2326H41.4655C42.2153 39.2641 42.7331 39.8202 42.702 40.4759C42.6709 41.1315 42.1028 41.6383 41.4331 41.6079Z" fill="black"/>
<path d="M75.0947 35.2955L75.0948 35.2955C75.1138 35.2915 75.1336 35.2875 75.1412 35.2859L75.1426 35.2856C75.1444 35.2853 75.1456 35.285 75.146 35.2849L75.1461 35.2849C75.1469 35.2847 75.1429 35.2856 75.1428 35.2856L75.1465 35.2848C75.1543 35.2832 75.1445 35.2852 75.1436 35.2854L75.1397 35.2863C75.1955 35.2743 75.2403 35.2648 75.2644 35.26L75.2637 35.2601C75.258 35.2613 75.2933 35.2539 75.3292 35.2482L75.2913 35.2547L75.4126 35.232L75.3936 35.2357C75.4148 35.2314 75.436 35.227 75.4606 35.2211L75.4608 35.221C75.6442 35.1771 75.7884 35.1434 75.8757 35.1251L75.8756 35.1251C75.9644 35.1066 76.1095 35.0779 76.3084 35.0405L76.3085 35.0405C76.3698 35.029 76.4256 35.0194 76.4771 35.0108C76.4818 35.01 76.4863 35.0093 76.491 35.0086L76.7853 34.9627L76.752 34.9683C76.846 34.9512 77.0366 34.9194 77.0328 34.9201L77.0328 34.9201C77.1002 34.9088 77.1562 34.8998 77.2099 34.8912C77.2557 34.8838 77.2903 34.8782 77.3241 34.8726L77.3242 34.8725C77.34 34.8699 77.3534 34.8676 77.3654 34.8655C77.3747 34.8639 77.384 34.8624 77.3933 34.861L77.5403 34.8386L77.526 34.8409C77.5513 34.8367 77.5578 34.8355 77.5601 34.835L77.5598 34.8351C77.5608 34.8349 77.5591 34.8353 77.5592 34.8353L77.5595 34.8352C77.6811 34.8094 77.7968 34.7827 77.9069 34.7567C78.5873 34.5957 79.2722 35.0052 79.4367 35.6713C79.6011 36.3374 79.1828 37.0078 78.5024 37.1688C78.3817 37.1974 78.2463 37.2287 78.0961 37.2606L78.0964 37.2605C78.0839 37.2631 78.0795 37.264 78.068 37.2663L78.0677 37.2664C78.0163 37.2767 77.971 37.2841 77.9439 37.2885C77.9391 37.2893 77.9344 37.2901 77.9296 37.2908L77.7826 37.3132L77.8105 37.3086C77.7917 37.3119 77.7681 37.3159 77.7498 37.3189L77.7498 37.3189C77.7076 37.326 77.6659 37.3327 77.6218 37.3398C77.5703 37.3481 77.5154 37.357 77.4583 37.3665L77.4584 37.3665C77.4537 37.3672 77.2865 37.3952 77.2169 37.4079C77.2058 37.4099 77.1948 37.4118 77.1837 37.4135L76.8894 37.4593L76.9033 37.4571C76.8612 37.4641 76.8234 37.4707 76.7859 37.4777L76.786 37.4777C76.5972 37.5132 76.4689 37.5387 76.4044 37.5522L76.4043 37.5522C76.3606 37.5613 76.254 37.5859 76.063 37.6316L76.0632 37.6315C75.9982 37.6471 75.9454 37.6581 75.9076 37.6658C75.9013 37.6671 75.895 37.6683 75.8886 37.6695L75.7674 37.6922C75.7548 37.6946 75.7422 37.6967 75.7295 37.6987C75.7638 37.6933 75.792 37.6873 75.7779 37.6901L75.7773 37.6903C75.7697 37.6918 75.7397 37.6981 75.6801 37.7108L75.6762 37.7116C75.6722 37.7125 75.6663 37.7137 75.6709 37.7127L75.6746 37.712C75.6682 37.7133 75.6716 37.7126 75.6653 37.7139L75.6654 37.7139C75.6608 37.7148 75.6594 37.7151 75.6544 37.7161L75.6559 37.7158C75.6489 37.7172 75.6369 37.7197 75.6253 37.7221C74.9408 37.8655 74.2671 37.4386 74.1206 36.7685C73.9741 36.0984 74.4102 35.4389 75.0947 35.2955Z" fill="black"/>
<path d="M75.3067 38.4355L75.326 38.4403L75.3261 38.4403L75.3069 38.4355C75.3853 38.4545 75.5525 38.4983 75.7279 38.5996L75.7641 38.6213L75.7642 38.6214L75.7281 38.5997C75.909 38.7041 76.0009 38.7484 76.0225 38.7576L76.0223 38.7575C76.0221 38.7574 76.0199 38.7565 76.0154 38.7548L76.014 38.7542C76.0111 38.7531 76.01 38.7527 76.0089 38.7523C76.0252 38.7583 76.1251 38.7937 76.3189 38.8536L76.3186 38.8535C76.3085 38.8504 76.3047 38.8494 76.3044 38.8494L76.305 38.8495C76.3152 38.8523 76.3502 38.8608 76.4302 38.8784L76.4733 38.8888L76.4734 38.8888L76.4307 38.8786C76.5181 38.8979 76.6655 38.9234 76.8876 38.9524L76.888 38.9524C76.9512 38.9607 76.9761 38.9636 76.9854 38.9645L76.9898 38.965C76.9836 38.9643 76.9823 38.9642 76.9812 38.9641L76.985 38.9645C77.1542 38.9803 77.3653 39.0018 77.6199 39.0303L77.6198 39.0303C77.7468 39.0445 77.8676 39.0599 77.9844 39.076L77.9845 39.076C78.0492 39.085 78.1459 39.0984 78.2614 39.1186C78.911 39.2324 79.3434 39.8401 79.2271 40.476C79.1109 41.1119 78.4902 41.5352 77.8406 41.4214C77.7716 41.4093 77.7117 41.4009 77.6501 41.3924L77.6502 41.3924C77.5513 41.3787 77.4523 41.3661 77.3484 41.3545L77.3482 41.3545C77.1058 41.3273 76.912 41.3076 76.7581 41.2933L76.762 41.2936C76.7595 41.2934 76.753 41.2928 76.7453 41.292L76.7496 41.2925C76.693 41.287 76.6273 41.2785 76.5721 41.2713L76.5724 41.2713C76.3167 41.238 76.0907 41.2016 75.9048 41.1606L75.8622 41.1503L75.862 41.1503L75.9051 41.1606C75.828 41.1436 75.7412 41.124 75.6687 41.1044L75.6692 41.1046C75.6495 41.0992 75.6241 41.092 75.5992 41.0844L75.599 41.0843C75.3828 41.0175 75.2353 40.967 75.1598 40.939C75.1488 40.9349 75.1427 40.9326 75.1328 40.9287L75.1314 40.9282C75.1084 40.9192 75.0879 40.9108 75.0662 40.9015L75.066 40.9014C74.9104 40.8349 74.72 40.7335 74.5141 40.6146L74.478 40.5929L74.4779 40.5929L74.5141 40.6146C74.6386 40.6865 74.7379 40.7076 74.7341 40.7067L74.7148 40.7019L74.7147 40.7018C74.0934 40.5519 73.7022 39.918 73.8603 39.2908C74.0185 38.6636 74.666 38.2807 75.3067 38.4355Z" fill="black"/>
<path d="M53.3941 40.5434C54.5378 41.2449 55.3281 41.7881 55.7598 42.1453L55.7598 42.1454C55.5872 42.0025 55.3106 41.9756 55.1069 42.132C55.399 41.9077 55.6152 41.7499 55.7763 41.6324C55.8772 41.5587 55.9478 41.5071 56.0055 41.4628C56.094 41.3948 56.1189 41.3687 56.1304 41.3553L56.1306 41.3551C56.483 40.9446 56.5935 40.7709 56.6152 40.6838C56.6668 40.477 56.6525 40.2717 56.5368 39.9996L56.5368 39.9996C56.5819 40.1057 56.6507 40.1493 56.6469 40.1468L56.6469 40.1468C56.6156 40.1262 56.5403 40.0938 56.3065 40.0069C56.2174 39.9738 56.1137 39.9354 56.0018 39.8907L56.2733 39.9424C56.0404 39.943 55.9674 39.9729 55.7979 40.0537C55.8413 40.033 55.8628 40.0149 55.8578 40.0189C55.792 40.0701 55.6513 40.2373 55.5283 40.3897L55.5283 40.3897C55.5098 40.4126 55.4853 40.443 55.4679 40.4636L55.4668 40.4648C55.4713 40.4595 55.461 40.4716 55.4629 40.4695L55.4632 40.4691C55.2539 40.7136 55.1031 40.95 54.944 41.2012C54.8651 41.3258 54.7791 41.4618 54.687 41.5917C54.4618 41.9089 54.0167 41.9874 53.6927 41.767C53.3686 41.5466 53.2884 41.1109 53.5136 40.7936C53.5805 40.6993 53.6468 40.595 53.7297 40.464C53.887 40.2158 54.0856 39.9006 54.3682 39.5706L54.3685 39.5702C54.3644 39.575 54.3701 39.5683 54.3687 39.5699L54.3677 39.5712C54.3718 39.5663 54.3835 39.552 54.4073 39.5225L54.4073 39.5225C54.4863 39.4246 54.7424 39.1003 54.9681 38.9244C55.0152 38.8877 55.0854 38.8376 55.1726 38.796C55.4806 38.6492 55.7673 38.545 56.2696 38.5437C56.3626 38.5435 56.4549 38.561 56.541 38.5954C56.6345 38.6327 56.7228 38.6655 56.8135 38.6992L56.8134 38.6992C56.9856 38.7632 57.2435 38.8545 57.4421 38.9847L57.4421 38.9847C57.583 39.0771 57.7556 39.2263 57.8559 39.4622L57.8559 39.4621C58.0687 39.9627 58.1383 40.4737 58.0033 41.0154C57.8867 41.4833 57.515 41.9165 57.2245 42.2549L57.2246 42.2547C57.1191 42.3778 57.0041 42.4737 56.8873 42.5634C56.8127 42.6206 56.7265 42.6835 56.6303 42.7537C56.4716 42.8695 56.2663 43.0194 55.9887 43.2326C55.621 43.5149 55.1442 43.4674 54.8375 43.2136L54.8375 43.2136C54.4863 42.9231 53.767 42.4227 52.6355 41.7288C52.3011 41.5237 52.1999 41.0921 52.4094 40.7648C52.6188 40.4375 53.0597 40.3384 53.3941 40.5434Z" fill="black"/>
<path d="M55.484 39.5771C55.418 39.5809 55.3529 39.6052 55.2995 39.6506C55.2119 39.7248 55.1766 39.8374 55.199 39.9423L55.1985 39.9423C55.1379 39.9682 55.0806 40.0037 55.0265 40.0488C55.0187 40.0553 55.0112 40.0622 55.0041 40.0694C54.8063 40.271 54.6954 40.5035 54.6714 40.7671L54.6709 40.7671C54.6469 40.795 54.6255 40.8288 54.6065 40.8684V40.8685C54.5886 40.9058 54.5778 40.9458 54.5739 40.9886C54.5725 41.0047 54.5724 41.021 54.5736 41.0372C54.5755 41.0624 54.5794 41.0882 54.5854 41.1146C54.6205 41.2697 54.7482 41.4898 54.9684 41.7751C54.9729 41.781 54.9778 41.7868 54.9827 41.7923C55.156 41.9856 55.299 42.1117 55.4115 42.1708L55.4116 42.1709C55.4838 42.2088 55.5552 42.2278 55.6258 42.2279L55.6304 42.2279C55.6409 42.2278 55.6512 42.2274 55.6613 42.2268C55.7924 42.2193 55.8896 42.174 55.9529 42.0909L55.9524 42.0909C55.9715 42.0811 55.9903 42.0701 56.0088 42.0578C56.0156 42.0533 56.0223 42.0484 56.0287 42.0434C56.0942 41.992 56.1444 41.9243 56.1794 41.8403C56.2208 41.7409 56.2405 41.6135 56.2385 41.4581L56.239 41.458C56.2669 41.4662 56.2948 41.4694 56.3225 41.4679C56.3807 41.4645 56.4384 41.4399 56.4957 41.3939L56.4962 41.3939C56.5013 41.3971 56.5065 41.4003 56.5117 41.4033C56.5853 41.445 56.6526 41.4641 56.7135 41.4606C56.8045 41.4555 56.8814 41.3999 56.9442 41.2939L56.9442 41.2939C56.9948 41.2085 57.0007 41.1149 56.962 41.013L56.9615 41.0131C57.0101 40.9929 57.0541 40.9604 57.0881 40.9162C57.1698 40.81 57.1872 40.6839 57.1402 40.5382L57.1402 40.5382C57.0869 40.3727 56.9108 40.1301 56.6117 39.8104L56.6116 39.8105C56.5696 39.7636 56.5322 39.7266 56.4992 39.6994V39.6995C56.4154 39.6306 56.3283 39.5987 56.2378 39.6039C56.2219 39.6048 56.206 39.6068 56.19 39.61L56.1899 39.61C56.1825 39.6115 56.1751 39.6131 56.168 39.6148V39.6149C56.1646 39.613 56.1611 39.6112 56.1577 39.6096L56.1577 39.6096C56.0857 39.5744 56.0205 39.5585 55.9622 39.5618C55.8783 39.5667 55.8085 39.6113 55.7528 39.6957V39.6958C55.7401 39.6833 55.7283 39.6719 55.7173 39.6615C55.6527 39.6006 55.5677 39.5723 55.484 39.5771Z" fill="black"/>
<path d="M54.1507 42.1189L54.1509 42.1187C54.4925 41.6437 55.1219 42.2358 54.8047 42.0176L54.805 42.0179C54.8142 42.0242 54.8225 42.0302 54.83 42.0359L54.8301 42.0359C54.8921 42.0824 54.9976 42.1757 55.1281 42.2946L55.1004 42.2713L55.2799 42.4103C55.3112 42.4345 55.339 42.4626 55.3628 42.4938L55.3623 42.4931C55.3322 42.4537 55.295 42.4224 55.3148 42.4405L55.315 42.4407C55.3756 42.4961 55.9813 43.009 56.3902 43.288L55.8362 44.0003C55.1097 43.41 54.8229 43.2109 54.8344 43.2189C54.8212 43.2097 54.8085 43.1999 54.7964 43.1894L54.2812 42.7428C54.092 42.5788 54.0744 42.2956 54.242 42.1103C54.4096 41.9251 54.6988 41.9079 54.888 42.0719L55.4032 42.5185L55.3652 42.4889C55.3768 42.497 55.6819 42.7104 56.4208 43.3108C56.6096 43.4641 56.6412 43.7359 56.4927 43.9269C56.3441 44.118 56.0681 44.1604 55.8668 44.0231C55.4123 43.713 54.7722 43.1705 54.6902 43.0955L54.6903 43.0956C54.7026 43.1068 54.6611 43.0713 54.6297 43.0303L54.7121 43.1131L54.5325 42.974C54.5229 42.9666 54.5137 42.9589 54.5048 42.9507C54.3648 42.8233 54.2936 42.7623 54.2735 42.7473L54.2735 42.7473C54.2735 42.7473 54.275 42.7484 54.2782 42.7506L54.2786 42.7509C53.9416 42.5192 54.56 43.1062 54.8993 42.6346C54.7541 42.8367 54.4686 42.8855 54.2618 42.7431C54.0551 42.6008 54.0053 42.3213 54.1507 42.1189Z" fill="black"/>
</svg>
