<svg width="149" height="146" viewBox="0 0 149 146" fill="none" xmlns="http://www.w3.org/2000/svg">
<path d="M76.3571 34.2358L76.3572 34.2356C76.1549 34.7612 76.2892 35.2241 76.2515 34.9995L76.2515 34.9994C76.208 34.7403 75.7246 33.0502 73.5543 29.1535C72.8074 27.8123 71.2113 25.9458 69.7787 24.4377C68.9709 23.5874 67.2612 23.3876 66.0824 24.1245C66.0888 24.1205 66.0923 24.1179 66.0919 24.1182L66.092 24.1181C65.5033 24.556 64.4686 27.2321 64.1135 30.8568C63.8711 33.3307 63.9609 35.4779 64.7361 38.7788C64.8163 39.1204 64.7959 39.4773 64.6772 39.808L62.9842 44.5253C62.638 45.4897 61.5596 45.9966 60.5754 45.6574C59.5911 45.3183 59.0739 44.2615 59.42 43.2971L61.1131 38.5798L61.0542 39.609C60.1925 35.9399 60.0695 33.3928 60.3526 30.5031C60.6787 27.1743 61.7031 22.7347 63.8077 21.1693L63.8078 21.1693C63.8849 21.1119 63.9654 21.0566 64.0503 21.0036C66.569 19.4289 70.3413 19.5965 72.5442 21.9153C73.9858 23.4329 75.8759 25.5937 76.8708 27.38C79.0702 31.3292 79.8258 33.4831 79.9795 34.3984L79.9795 34.3984C79.9766 34.381 80.1132 34.9679 79.8923 35.5419C79.5244 36.4983 78.4346 36.9814 77.4584 36.6208C76.4821 36.2602 75.9891 35.1923 76.3571 34.2358Z" fill="#94C595"/>
<path d="M63.0807 44.4195C62.2747 46.1703 62.0469 47.1549 61.7067 48.625L61.7067 48.6252L61.6808 48.7371L61.6807 48.7373C61.5594 49.2614 61.4129 49.8218 61.2773 50.3414C61.1443 50.8512 61.0222 51.3194 60.9279 51.7268C60.8121 52.2269 60.7747 52.4868 60.7723 52.5687L60.7723 52.5687C60.7723 52.5692 60.7726 52.5616 60.7721 52.547C60.8463 54.7483 61.3923 58.5579 62.9198 60.1743C63.4261 60.71 63.9631 61.2098 64.5079 61.7158C64.9618 62.1374 65.4449 62.585 65.8542 63.0181C66.282 63.4709 66.7775 64.0575 67.0644 64.7415C67.3765 65.4854 67.4677 66.4267 66.9451 67.348C65.4239 70.0293 62.8527 71.2839 59.7753 72.8643L59.7752 72.8644L59.6223 72.9429L59.6187 72.9448L59.6124 72.948L59.6135 72.9474C59.5888 72.96 59.6384 72.9346 59.6084 72.95L59.6099 72.9492C57.9955 73.7785 57.1862 74.1755 54.6665 76.5019C53.9071 77.2029 52.7116 77.1681 51.9961 76.4241C51.2806 75.68 51.3162 74.5085 52.0755 73.8074C54.8748 71.2229 55.974 70.637 57.8557 69.6704L57.8573 69.6696C57.8665 69.6649 57.8502 69.6732 57.8647 69.6658L57.8658 69.6652L57.8721 69.662L57.8685 69.6638L58.0215 69.5853L58.0214 69.5853C61.377 67.862 62.7756 67.0779 63.6428 65.5493C63.4816 65.8334 63.5536 66.1099 63.57 66.149L63.57 66.149C63.55 66.1013 63.4406 65.913 63.082 65.5335C62.7732 65.2067 62.3871 64.847 61.9086 64.4025C61.3757 63.9075 60.7506 63.3277 60.1476 62.6896C57.5423 59.9326 57.0654 54.7287 56.996 52.6691C56.9936 52.5965 56.9939 52.5268 56.9958 52.4618L56.9958 52.4619C57.0101 51.9763 57.131 51.3932 57.2434 50.9076C57.3513 50.4414 57.4874 49.9207 57.617 49.4241C57.7555 48.8935 57.8884 48.3837 57.9962 47.9182L57.9962 47.9183L58.0221 47.8063L58.0221 47.8065C58.3803 46.2585 58.6741 44.9882 59.6367 42.8973C60.0657 41.9654 61.1844 41.5507 62.1355 41.9711C63.0865 42.3914 63.5097 43.4876 63.0807 44.4195Z" fill="#94C595"/>
<path d="M78.7491 33.1246C80.2177 33.3997 85.0947 32.9931 86.6339 32.4549C86.8276 32.3871 87.0314 32.3508 87.2371 32.3474C86.5188 32.3592 86.145 32.7983 86.2969 32.6598L86.2968 32.6598C86.6225 32.3628 87.6451 30.8838 89.298 27.8396C89.3398 27.7627 89.3925 27.6654 89.4338 27.5889L89.4338 27.589C89.4677 27.5265 89.532 27.4077 89.5657 27.3457C90.0387 26.4744 90.5822 25.4829 91.2844 24.7167C93.043 22.7979 96.0499 19.8628 99.4602 20.796C102.72 21.6881 104.071 25.6641 104.915 27.9607C106.112 31.214 106.289 32.6498 106.579 35.057C106.628 35.4621 106.68 35.8927 106.741 36.3671C106.76 36.5164 106.775 36.6651 106.787 36.7922C106.803 36.9495 106.818 37.0991 106.841 37.2714C106.938 38.0324 107.2 39.4455 108.357 42.942C109.794 47.2854 109.594 50.1373 109.417 52.651C109.376 53.2445 109.338 53.7905 109.32 54.3411C109.254 56.4142 108.367 59.9595 106.565 62.6798C105.606 64.1286 104.694 65.2978 104.054 66.1187C103.664 66.6196 103.43 66.9225 103.303 67.1137L103.303 67.1136C103.281 67.147 103.272 67.1628 103.27 67.1652L103.271 67.1647C103.271 67.1649 103.272 67.162 103.275 67.1566L102.473 64.6694C106.03 66.4969 108.535 71.0477 109.664 75.498C111.068 81.0357 110.892 82.7791 107.979 89.6406C105.773 94.8385 101.391 99.6003 98.1624 99.9128C97.9949 99.929 97.8209 99.9348 97.6419 99.9262L97.6417 99.9261C97.4093 99.9149 97.1856 99.9066 96.9447 99.8975H96.9448C96.7132 99.8888 96.4855 99.8803 96.2483 99.8689H96.2483C95.236 99.82 93.6654 99.731 92.5026 98.8951C92.1247 98.6234 91.7899 98.2765 91.5304 97.8455C88.4319 92.6982 90.3673 87.0127 91.3936 83.8395C91.7045 82.8786 91.9187 82.2056 92.0125 81.709C92.2025 80.7038 93.1881 80.0398 94.214 80.2259C95.2399 80.4121 95.9175 81.3778 95.7275 82.383C95.5812 83.1573 95.2785 84.0823 94.9952 84.958C93.8791 88.4087 92.6685 92.4494 94.7846 95.9646C94.7667 95.9349 94.7438 95.9147 94.7376 95.9102L94.7376 95.9102C94.8419 95.9852 95.2301 96.1131 96.4342 96.1713H96.4341C96.6437 96.1814 96.8574 96.1894 97.0894 96.1981H97.0895C97.3255 96.207 97.5726 96.2162 97.8277 96.2285H97.8276C97.8035 96.2274 97.7907 96.2286 97.791 96.2286C98.7247 96.1382 102.338 93.2887 104.491 88.2188C107.176 81.8927 107.159 80.9738 105.997 76.3908C104.961 72.3072 102.841 69.0387 100.719 67.9481C99.7993 67.4757 99.4412 66.3651 99.9166 65.4609C99.9362 65.4236 99.9548 65.39 99.9743 65.3558L99.9747 65.3552C100.027 65.264 100.081 65.178 100.134 65.0983L100.134 65.0983C100.359 64.758 100.705 64.3167 101.052 63.872C101.689 63.0539 102.523 61.9834 103.396 60.6645C104.789 58.5609 105.497 55.6844 105.544 54.2249C105.564 53.5941 105.607 52.979 105.648 52.3966C105.814 50.0375 105.976 47.75 104.763 44.0836C103.571 40.4802 103.232 38.8202 103.092 37.7344C103.063 37.5067 103.043 37.3105 103.027 37.1548C103.014 37.0177 103.004 36.9207 102.992 36.8301C102.929 36.3392 102.875 35.8947 102.827 35.4907C102.556 33.2371 102.424 32.1057 101.361 29.2158C100.229 26.1368 99.409 24.6258 98.444 24.3617C97.6291 24.1387 96.2211 24.8709 94.0954 27.1903C93.7546 27.5622 93.4159 28.1365 92.9011 29.0845C92.8708 29.1404 92.8034 29.2648 92.7714 29.3239L92.7713 29.324C92.7357 29.3899 92.671 29.5094 92.6334 29.5785C91.0728 32.4528 89.7566 34.562 88.871 35.3697L88.8709 35.3698C88.758 35.4727 88.1733 36.0346 87.3007 36.049L87.9039 35.9415C85.775 36.6861 80.2148 37.1684 78.0395 36.7608C77.0148 36.5688 76.3429 35.5991 76.5389 34.595C76.7348 33.5909 77.7244 32.9326 78.7491 33.1246Z" fill="#94C595"/>
<path d="M71.3444 81.1134C69.2532 84.0096 67.9784 85.7353 67.3712 86.4664L67.3709 86.4668C67.3743 86.4626 67.3753 86.4614 67.3757 86.4609L67.3755 86.4611C67.2733 86.5907 67.0197 87.0003 66.4677 87.9085C66.2553 88.2579 66.0128 88.6569 65.7348 89.1091C65.295 89.8244 63.5659 92.292 63.1175 92.8219L63.1177 92.8216C63.0887 92.856 63.0385 92.9141 62.9783 92.9752C62.2532 93.7102 61.0573 93.7301 60.3071 93.0196C59.557 92.3091 59.5367 91.1373 60.2618 90.4022C60.2238 90.4407 60.2033 90.4657 60.2089 90.4591L60.2091 90.4589C60.4961 90.1197 62.1167 87.8197 62.4986 87.1986C62.7718 86.7544 63.0083 86.3651 63.2216 86.0142C63.6881 85.2466 64.1028 84.5565 64.3859 84.1975L64.3857 84.1977C64.403 84.1758 64.4218 84.1525 64.4409 84.1295L64.4406 84.1298C64.948 83.5189 66.1368 81.9159 68.2601 78.9752C68.8627 78.1407 70.0416 77.9428 70.8933 78.5332C71.745 79.1237 71.9469 80.2789 71.3444 81.1134Z" fill="#94C595"/>
<path d="M64.8 85.0464L64.8005 85.0461C65.352 84.6718 66.1113 84.6879 65.8398 84.7069L65.8397 84.7069C66.5215 84.6591 69.4128 84.7203 69.9591 84.7343C69.998 84.7353 70.037 84.7375 70.0758 84.7408L71.0645 84.8263L70.9132 84.8192C71.2947 84.8221 71.7007 84.841 72.0939 84.8589C72.2969 84.8682 72.4966 84.8772 72.7069 84.8853L72.707 84.8853C72.937 84.8941 73.1206 84.8962 73.2768 84.898H73.2769C73.3617 84.899 73.4698 84.9001 73.5599 84.9035L73.5613 84.9036C73.5685 84.9039 73.5793 84.9043 73.5901 84.9048L73.5919 84.9048C73.6224 84.9063 73.6567 84.9082 73.6969 84.9113L73.6752 84.9097L76.8537 85.1246C76.8746 85.126 76.8954 85.1277 76.9162 85.1299L76.9153 85.1298C76.8728 85.1255 76.8457 85.1246 76.853 85.1249L76.8526 85.1249C76.9867 85.1307 77.5478 85.1301 78.6633 85.1251H78.6632C78.8228 85.1244 78.9557 85.13 79.033 85.1331L79.0333 85.1332C79.068 85.1346 79.0846 85.1352 79.0925 85.1354L79.0047 85.1351L79.005 85.1351L79.0933 85.1354C79.7999 85.1542 80.7372 85.219 81.8416 85.2949C82.2181 85.3208 82.5459 85.3433 82.9662 85.3713C83.6429 85.4164 84.1049 85.4172 84.3708 85.4177C84.3946 85.4177 84.4528 85.4179 84.4746 85.418H84.4745C84.7741 85.4196 84.8774 85.4181 84.9242 85.4139L84.9233 85.414C84.9222 85.4141 84.9294 85.4133 84.9228 85.414L84.9272 85.4136L84.9324 85.413L84.928 85.4135C85.5477 85.3501 86.1086 85.2931 86.4456 85.2899H86.4446C86.4563 85.2898 86.4701 85.2897 86.4823 85.2898L86.4439 85.2901L87.8328 85.2635C87.8645 85.2629 87.8961 85.263 87.9278 85.264C88.4363 85.2793 88.6891 85.2792 88.7554 85.2761L88.7555 85.2761C88.7572 85.276 88.7442 85.2766 88.7216 85.2786L88.8596 85.271H88.8598L88.7222 85.2786C89.0643 85.2475 89.435 85.1793 89.8372 85.0654C90.8394 84.7814 91.8869 85.3473 92.1767 86.3293C92.4666 87.3114 91.889 88.3377 90.8868 88.6218C90.2749 88.7952 89.6697 88.9104 89.0715 88.9648L88.9339 88.9724H88.9337L89.0717 88.9648C89.0206 88.9694 88.9739 88.9722 88.9353 88.974L88.9354 88.974C88.6964 88.9852 88.2979 88.979 87.8116 88.9644L87.9066 88.9649L86.5178 88.9915C86.5051 88.9917 86.4922 88.9919 86.4795 88.9919C86.4803 88.9919 86.4825 88.9918 86.4823 88.9918L86.4813 88.9919C86.3713 88.9929 86.0408 89.0218 85.3206 89.0955L85.3162 89.096L85.311 89.0965L85.3154 89.0961C85.2997 89.0977 85.281 89.0994 85.2705 89.1004L85.2695 89.1005C84.9967 89.125 84.6776 89.1213 84.4535 89.12H84.4534C84.4391 89.1199 84.3908 89.1198 84.3635 89.1198C84.0669 89.1192 83.5089 89.1181 82.7101 89.0649C82.2953 89.0373 81.9433 89.0131 81.5773 88.988C80.4373 88.9096 79.5967 88.8523 78.9908 88.8362L79.0791 88.8365H79.0788L78.991 88.8362C78.9488 88.8351 78.9034 88.8332 78.8758 88.8321L78.8761 88.8321C78.7997 88.829 78.7447 88.8269 78.6805 88.8272H78.6804C77.6428 88.8318 76.9402 88.8345 76.6848 88.8233L76.6844 88.8233C76.6525 88.8219 76.596 88.8192 76.5321 88.8128L76.5937 88.8179L73.4152 88.6031C73.4078 88.6026 73.4009 88.602 73.3935 88.6015C73.4062 88.6025 73.4165 88.603 73.4134 88.6028L73.4152 88.6029C73.4143 88.6029 73.4168 88.603 73.4115 88.6028L73.413 88.6028C73.3857 88.6018 73.3398 88.6011 73.2325 88.5999H73.2326C73.0739 88.5981 72.8445 88.5955 72.5596 88.5846L72.5596 88.5846C72.3328 88.5759 72.1196 88.5662 71.9183 88.557C71.5061 88.5382 71.1781 88.5235 70.8837 88.5212C70.8332 88.5208 70.7827 88.5184 70.7324 88.5141L69.7437 88.4286L69.8604 88.4351C69.1893 88.418 66.5547 88.3683 66.1093 88.3996L66.1091 88.3996C65.7265 88.4264 66.4175 88.452 66.9516 88.0895C66.0946 88.6715 64.9177 88.4624 64.3234 87.6222C63.7291 86.782 63.9425 85.6287 64.8 85.0464Z" fill="#94C595"/>
<path d="M107.958 84.5721L107.958 84.5721C107.883 84.5551 107.841 84.5538 107.846 84.5541H107.847C107.857 84.5546 107.925 84.5557 108.073 84.5394L108.021 84.5459L109.04 84.405L108.959 84.4181L109.541 84.3119C109.563 84.3078 109.586 84.3042 109.608 84.3009C109.747 84.2807 109.887 84.266 110.027 84.2574L110.024 84.2576C110.093 84.2532 110.17 84.2534 110.141 84.2536L110.142 84.2536C110.359 84.2519 113.057 84.263 113.333 84.2692L113.334 84.2692C113.273 84.2679 113.421 84.2683 113.551 84.2848C114.586 84.4163 115.316 85.3448 115.181 86.3587C115.047 87.3725 114.1 88.0877 113.065 87.9561C113.191 87.9722 113.328 87.9722 113.246 87.9703L113.247 87.9704C113.023 87.9654 110.365 87.9541 110.173 87.9556H110.174C110.131 87.9559 110.201 87.9562 110.267 87.952L110.265 87.9522C110.233 87.9541 110.199 87.9576 110.165 87.9626L110.232 87.9516L109.649 88.0578C109.622 88.0627 109.595 88.0671 109.568 88.0708L108.548 88.2117C108.531 88.2141 108.514 88.2163 108.496 88.2182C108.227 88.248 107.942 88.2652 107.662 88.2518H107.662C107.496 88.2438 107.303 88.2239 107.1 88.1775C106.084 87.9454 105.453 86.9502 105.689 85.9546C105.926 84.9589 106.942 84.34 107.958 84.5721Z" fill="#94C595"/>
<path d="M41.9501 85.1241L41.9501 85.1241C42.0446 85.0756 42.1678 85.0067 42.3565 84.9007C42.5875 84.771 42.8859 84.6031 43.2199 84.4318C44.3371 83.8585 46.1884 83.0597 48.2609 83.3598C49.3103 83.5117 51.4165 83.802 52.8643 85.4762C54.0111 86.8023 55.4115 88.5625 55.7568 90.5227C56.1587 92.8033 56.5419 96.1168 55.9401 97.908C55.0965 100.419 52.5723 102.695 49.9196 102.976C46.5941 103.328 44.1049 101.488 42.516 99.9463C41.078 98.5509 39.7259 96.0538 39.632 93.5407C39.5046 90.1354 39.9165 87.3107 41.1542 85.8565L41.1543 85.8564C41.3069 85.6771 41.4843 85.5032 41.6903 85.3477C42.517 84.724 43.7031 84.8751 44.3396 85.6851C44.9761 86.4951 44.822 87.6573 43.9953 88.281C44.0378 88.249 44.0567 88.2265 44.0558 88.2276C43.8339 88.4883 43.2785 89.9545 43.4076 93.4052C43.462 94.8612 44.3295 96.4959 45.1745 97.3158C46.5307 98.6318 47.9326 99.4627 49.5139 99.2953C50.4694 99.1942 51.8972 98.1023 52.3514 96.7503C52.6064 95.9914 52.4708 93.6326 52.0338 91.1525C51.885 90.3081 51.1767 89.2512 49.9819 87.8695C49.5613 87.3832 48.8678 87.19 47.7086 87.0221C46.8791 86.902 45.9398 87.215 44.9727 87.7113C44.7106 87.8458 44.4714 87.98 44.2356 88.1124C44.0682 88.2065 43.8746 88.3156 43.703 88.4036C42.7787 88.8779 41.6371 88.5282 41.1531 87.6226C40.6691 86.717 41.0259 85.5984 41.9501 85.1241Z" fill="#94C595"/>
<path d="M64.5704 95.4058C66.4543 95.7281 69.7464 95.7556 71.0305 95.6492C71.7848 95.5867 72.8518 95.4152 74.3606 95.1705C76.7611 94.7813 80.0526 94.2472 84.2416 93.8607C86.6218 93.6411 88.7844 94.4996 90.5435 95.1684C92.6647 95.9748 94.498 96.645 96.6924 96.4425H96.6925C96.7588 96.4364 96.8241 96.4296 96.891 96.4219L96.8911 96.4219C99.1201 96.1639 99.1971 98.7563 99.1412 98.2924V98.2924C99.1491 98.3575 99.1544 98.4194 99.158 98.4758C99.18 98.8212 99.1507 99.2133 99.1384 99.3978C99.1293 99.5348 99.1262 99.5896 99.1258 99.6143L99.1258 99.6144C99.1255 99.6342 99.1283 99.569 99.1162 99.4687L99.1163 99.4688C99.2304 100.416 99.2793 97.6364 97.0416 97.8967L97.0432 97.8965C95.6427 98.0583 95.2496 99.7457 95.6438 98.8099C95.9927 97.9816 96.897 97.5172 97.7907 97.7072C98.6843 97.8973 99.3107 98.6873 99.2778 99.5828L98.9303 109.039C98.926 109.155 98.9106 109.271 98.8841 109.384C97.746 114.268 95.6934 119.068 92.7518 123.783C92.6438 123.956 92.5074 124.111 92.3482 124.241C91.4061 125.008 90.0701 125.347 88.6208 125.379C84.8558 125.461 81.4155 125.667 78.2616 125.856C75.6988 126.01 73.3016 126.153 71.1123 126.204C66.8316 126.304 60.9298 126.332 53.3873 126.22C50.7947 126.181 48.8141 125.628 47.5182 125.269C47.2338 125.19 47.0001 125.125 46.7987 125.075L46.7988 125.075C45.3888 124.723 44.9886 123.529 44.9294 122.763C44.898 122.356 44.9363 121.938 44.9817 121.579L44.9817 121.579C44.9852 121.552 44.989 121.525 44.9929 121.499C45.1239 120.632 45.8741 118.442 46.9838 115.232C47.4481 113.89 49.2913 110.419 52.6596 105.062C53.2068 104.191 54.3705 103.92 55.2587 104.456C56.147 104.993 56.4235 106.133 55.8763 107.003C52.4712 112.419 50.8667 115.54 50.5622 116.42C49.3619 119.892 48.7962 121.605 48.7303 122.041C48.7304 122.04 48.7305 122.04 48.731 122.036L48.731 122.036C48.6936 122.331 48.6945 122.454 48.6968 122.484C48.6945 122.455 48.5545 121.693 47.7309 121.487H47.731C47.9909 121.552 48.2746 121.631 48.5469 121.706C49.8037 122.055 51.3798 122.488 53.4448 122.518C60.9503 122.63 66.8024 122.601 71.0228 122.503C73.1281 122.454 75.4497 122.316 78.0311 122.161C81.1783 121.972 84.6898 121.762 88.5364 121.678C89.5311 121.656 89.8984 121.422 89.932 121.394L89.5284 121.852C92.2813 117.44 94.1638 113.01 95.2008 108.56L95.1546 108.906L95.5021 99.4495L99.1361 100.222C99.4027 99.5897 98.9314 101.406 97.4855 101.573L97.4871 101.573C95.2242 101.836 95.2579 99.021 95.3642 99.903L95.3642 99.9032C95.3459 99.7519 95.3471 99.6185 95.3481 99.5555L95.3481 99.5556C95.3503 99.4189 95.3616 99.2578 95.3683 99.1572C95.3855 98.8978 95.391 98.7664 95.3872 98.7069C95.3871 98.7065 95.3875 98.7129 95.3891 98.7263L95.3891 98.7264C95.2956 97.9499 95.2844 100.336 97.3341 100.098L97.3342 100.098C97.2366 100.11 97.1431 100.119 97.0466 100.128H97.0466C93.8499 100.423 91.2318 99.4011 89.1768 98.6198C87.2462 97.8858 85.9336 97.4231 84.5957 97.5465C80.5476 97.92 77.3673 98.4354 74.9775 98.8229C73.536 99.0567 72.2901 99.2602 71.3488 99.3382C69.827 99.4642 66.1987 99.4425 63.9206 99.0527C62.8928 98.8769 62.2051 97.918 62.3846 96.9109C62.564 95.9038 63.5426 95.23 64.5704 95.4058Z" fill="#94C595"/>
<path d="M79.7849 114.111C79.8241 111.8 79.6478 110.73 79.5496 110.48L79.5496 110.48C79.5457 110.47 79.569 110.535 79.6389 110.634C78.6111 109.184 77.841 108.641 77.2339 108.498C76.7612 108.387 76.1876 108.393 75.3253 108.469C74.5166 108.539 73.1921 108.803 71.2843 109.339C69.8226 109.75 69.0791 110.26 68.7261 110.78C68.0017 111.847 67.9477 112.876 68.4641 114.056L68.4641 114.056C68.3546 113.806 68.219 113.699 68.2444 113.721L68.2445 113.721C68.3146 113.783 68.6706 114.025 69.5523 114.376C69.8642 114.5 70.2368 114.559 70.6783 114.482C71.2651 114.38 71.5504 114.118 71.5724 113.422C71.5877 112.936 71.2414 112.092 69.8171 111.085C68.4832 110.142 67.4478 109.95 66.7656 109.978L66.7659 109.978C67.1791 109.961 67.4382 109.797 67.3353 109.85L67.3354 109.85C67.2114 109.914 66.9122 110.119 66.3453 110.519C65.5801 111.06 64.2143 112.051 63.1185 112.405C62.1277 112.725 61.0595 112.198 60.7328 111.227C60.406 110.256 60.9443 109.21 61.9351 108.889C62.3373 108.759 63.1351 108.223 64.1361 107.516C64.5773 107.204 65.1561 106.789 65.5835 106.57L65.5836 106.57C65.6763 106.522 66.0897 106.301 66.6074 106.279L66.6076 106.279C68.2508 106.212 70.1054 106.723 72.0281 108.083C73.8435 109.367 75.4217 111.22 75.3487 113.537C75.2697 116.044 73.6241 117.729 71.3391 118.127C70.1611 118.332 69.0685 118.179 68.1319 117.806C67.1493 117.416 66.2888 116.979 65.7131 116.469L65.7132 116.47C65.485 116.268 65.1837 115.953 64.9918 115.515L64.9918 115.515C64.0193 113.293 64.0861 110.93 65.5804 108.729C66.6637 107.133 68.4379 106.288 70.2423 105.781C72.2228 105.224 73.8207 104.883 74.9909 104.781C75.8814 104.703 76.9935 104.634 78.1148 104.898C80.1216 105.369 81.5771 106.878 82.7421 108.522C82.8975 108.741 83.0025 108.965 83.0755 109.15L83.0755 109.15C83.4735 110.163 83.6006 111.93 83.5625 114.173C83.5452 115.195 82.6854 116.01 81.6423 115.993C80.5991 115.976 79.7675 115.134 79.7849 114.111Z" fill="#94C595"/>
<path d="M66.7491 101.591C66.587 102.422 66.3327 103.51 65.8162 104.924C65.5907 105.542 64.2182 110.305 64.2008 110.366C64.0355 110.94 63.5979 111.401 63.0253 111.604C62.4527 111.807 61.8153 111.727 61.3134 111.389C54.1222 106.551 53.5346 106.061 53.3933 105.929C52.6371 105.225 52.6067 104.053 53.3255 103.312C54.0443 102.571 55.24 102.541 55.9962 103.246C55.8549 103.114 56.0692 103.37 63.4519 108.337L60.5645 109.361C60.5472 109.421 61.9756 104.453 62.259 103.677C62.6954 102.482 62.9036 101.586 63.0381 100.896C63.2338 99.8918 64.2232 99.2333 65.248 99.4251C66.2728 99.6168 66.9449 100.586 66.7491 101.591Z" fill="#94C595"/>
<path d="M63.1196 101.445C59.7751 94.6618 57.7359 90.2019 56.6946 87.9245C56.3838 87.2447 56.171 86.7797 56.0392 86.5042L53.5333 81.2681L53.5659 81.3329C52.9986 80.2587 52.4981 79.2821 52.0513 78.4103C51.6832 77.6919 51.3547 77.0512 51.0511 76.4761C50.16 74.7888 49.6207 73.9563 49.213 73.5823C48.958 73.3484 48.3841 72.8326 45.327 73.4178L45.3271 73.4178C45.4413 73.3959 45.5061 73.3693 45.4891 73.3757L45.4889 73.3757C45.0151 73.5534 43.3519 74.5901 42.8614 75.2036L42.8613 75.2037C42.9355 75.1109 42.969 75.0461 42.9581 75.0656L42.958 75.0657C42.7696 75.4014 42.3565 76.5917 42.3631 77.0491C42.3823 78.3752 43.1895 79.9173 44.9563 82.4022C45.5527 83.2411 45.3422 84.3948 44.4862 84.9792C43.6301 85.5636 42.4527 85.3573 41.8563 84.5185C40.1609 82.134 38.6231 79.7128 38.5853 77.1017C38.5657 75.7415 39.3034 73.8949 39.6473 73.282L39.6473 73.2821C39.6913 73.2036 39.7732 73.0632 39.8872 72.9206L39.8871 72.9207C40.9141 71.6359 43.223 70.2614 44.1389 69.9181L44.1387 69.9181C44.2435 69.8789 44.4092 69.8214 44.6025 69.7844L44.6026 69.7844C48.0489 69.1247 50.1915 69.4087 51.7951 70.8796C52.7595 71.7643 53.5742 73.1985 54.4066 74.7747C54.7222 75.3724 55.0628 76.037 55.4276 76.7488C55.8753 77.6223 56.3659 78.5796 56.9214 79.6315C56.9327 79.6529 56.9436 79.6744 56.954 79.6962L59.4599 84.9324C59.6092 85.2443 59.8395 85.7482 60.1425 86.4109C61.177 88.6734 63.1994 93.0967 66.5215 99.8349C66.9754 100.755 66.5817 101.862 65.6423 102.307C64.7029 102.752 63.5734 102.366 63.1196 101.445Z" fill="#94C595"/>
<path d="M54.5016 101.357L54.5016 101.357C54.4332 101.122 54.3219 100.97 54.3661 101.039L54.3661 101.039C54.4664 101.197 54.8609 101.69 55.1783 102.083L55.1781 102.083L55.197 102.106L55.1971 102.107C55.5035 102.486 55.8328 102.935 56.0215 103.284C56.0555 103.347 56.2177 103.635 56.2672 103.992C56.3925 104.896 55.7464 105.728 54.8242 105.851C53.9019 105.974 53.0527 105.341 52.9275 104.437C52.9674 104.726 53.0839 104.905 53.0428 104.829L53.0428 104.829C53.0025 104.755 52.8297 104.497 52.5539 104.156L52.5541 104.156L52.5352 104.133L52.5351 104.132C52.2952 103.835 51.7348 103.146 51.5065 102.787L51.5065 102.787C51.4915 102.764 51.3413 102.541 51.2604 102.263C51.0051 101.386 51.5237 100.472 52.4187 100.222C53.3137 99.9715 54.2462 100.48 54.5016 101.357Z" fill="#94C595"/>
<path d="M61.7963 106.285L61.7962 106.285C62.0275 106.449 62.2614 106.511 62.498 106.471H62.4981C62.4769 106.475 62.4379 106.484 62.3813 106.498L62.5379 106.445C61.9123 106.713 61.2785 106.937 60.6366 107.115L60.7588 107.073L60.3955 107.223L60.4732 107.187C60.0203 107.417 59.7164 107.563 59.5615 107.623L59.5613 107.623C59.5467 107.629 59.5327 107.634 59.5192 107.639L60.0634 107.197C60.4272 106.602 60.3058 106.126 59.6991 105.77L59.6962 105.769C59.5667 105.693 59.4396 105.649 59.3147 105.637L59.3147 105.637C59.315 105.637 59.3156 105.637 59.3162 105.637L59.2781 105.635C59.449 105.643 59.569 105.651 59.6381 105.658H59.6377C59.691 105.663 59.7393 105.67 59.7827 105.679L59.6615 105.661L59.6617 105.661L59.7022 105.665C59.8153 105.68 59.9259 105.7 60.0341 105.726C60.049 105.73 60.0639 105.734 60.0787 105.738L60.4904 105.857C60.5139 105.864 60.5372 105.872 60.5602 105.88L61.143 106.092L61.1239 106.086C61.1273 106.087 61.13 106.088 61.1322 106.088C61.1635 106.093 61.1946 106.1 61.2253 106.108C61.0901 106.073 60.9745 106.07 60.8785 106.099L61.1743 106.052L60.834 106.114C60.3999 106.268 60.1799 106.558 60.1741 106.986C60.1819 106.41 60.6643 105.95 61.2515 105.958C61.8387 105.966 62.3083 106.438 62.3004 107.014C62.2931 107.548 62.0452 107.901 61.5565 108.074L61.2161 108.136C61.5415 108.079 61.5268 108.084 61.5119 108.089C61.2196 108.178 60.9444 108.19 60.6862 108.123L60.7793 108.143C60.6578 108.123 60.5382 108.093 60.4206 108.052C60.4143 108.05 60.4079 108.048 60.4016 108.045L59.8189 107.833L59.8887 107.856L59.4771 107.737L59.5218 107.749C59.4921 107.742 59.4608 107.736 59.4279 107.732L59.4684 107.736L59.4682 107.736C59.4007 107.728 59.3737 107.724 59.3469 107.718C59.3777 107.725 59.4042 107.729 59.4264 107.731L59.426 107.731C59.392 107.728 59.3072 107.723 59.1717 107.716C59.159 107.715 59.1463 107.714 59.1336 107.713C59.1232 107.713 59.1133 107.712 59.1038 107.711L59.1038 107.711C58.9155 107.692 58.7508 107.642 58.6098 107.56L58.6069 107.558C57.9966 107.2 57.8741 106.723 58.2392 106.126C58.3623 105.923 58.5549 105.766 58.7834 105.684C58.7814 105.684 58.7797 105.685 58.7783 105.685L58.7781 105.686C58.866 105.651 59.1044 105.535 59.4934 105.338C59.5188 105.325 59.5448 105.313 59.5712 105.302L59.9345 105.152C59.9743 105.136 60.0151 105.122 60.0567 105.11C60.6054 104.958 61.1482 104.766 61.6851 104.536C61.7358 104.514 61.7882 104.497 61.8417 104.483C61.9562 104.453 62.0534 104.432 62.1332 104.418L62.1334 104.418C62.4878 104.358 62.7921 104.418 63.0461 104.599C63.5212 104.937 63.6266 105.588 63.2815 106.054C62.9364 106.52 62.2715 106.623 61.7963 106.285Z" fill="#94C595"/>
<path d="M63.2033 100.835C63.1975 101.029 63.2391 101.178 63.3279 101.284C63.3003 101.251 63.2418 101.2 63.1526 101.131C63.1456 101.125 63.1387 101.12 63.1318 101.114C62.7839 100.83 62.5449 100.665 62.4147 100.617H62.4148C62.4252 100.621 62.4402 100.625 62.4596 100.628C62.3586 100.609 62.261 100.576 62.1699 100.529C62.0195 100.452 61.7246 100.462 61.2852 100.558L61.3625 100.538C61.2969 100.558 61.2401 100.586 61.1922 100.622L61.2756 100.552C60.9657 100.841 60.6322 101.127 60.2749 101.409L60.3266 101.365C60.3228 101.368 60.3202 101.371 60.3186 101.373C60.3263 101.365 60.3355 101.352 60.3464 101.336L60.4158 101.212C60.2581 101.545 60.1001 101.807 59.9418 101.996L59.9418 101.996C59.8804 102.069 59.8168 102.135 59.7509 102.193C59.3512 102.545 58.7461 102.549 58.341 102.203C58.127 102.02 57.7607 101.849 57.2421 101.69L57.407 101.726C57.1466 101.689 56.8955 101.737 56.654 101.871L56.6918 101.849C56.1962 102.15 55.8897 102.384 55.7723 102.549L55.8079 102.496C55.6823 102.699 55.6309 102.828 55.6537 102.885C55.8685 103.421 55.5996 104.026 55.0531 104.236C54.5066 104.447 53.8894 104.183 53.6745 103.648C53.3946 102.95 53.4999 102.205 53.9903 101.414C54.0016 101.396 54.0135 101.378 54.0259 101.36C54.3108 100.959 54.8256 100.531 55.5705 100.079C55.5829 100.071 55.5956 100.064 55.6083 100.057C56.2721 99.6893 56.974 99.5587 57.7142 99.6645C57.7701 99.6725 57.8252 99.6849 57.8791 99.7014C58.6811 99.9481 59.301 100.259 59.7388 100.633L58.3288 100.643C58.315 100.655 58.3047 100.666 58.2981 100.673L58.2981 100.673C58.3417 100.621 58.4045 100.509 58.4863 100.336C58.5066 100.293 58.5298 100.251 58.5558 100.212C58.6165 100.119 58.6886 100.029 58.7721 99.9423C58.8091 99.9039 58.8484 99.866 58.8901 99.8286C58.9069 99.8135 58.9241 99.7991 58.9418 99.7851C59.2527 99.54 59.5416 99.2928 59.8085 99.0436C59.835 99.0188 59.8629 98.9953 59.8919 98.9733C60.1453 98.7815 60.429 98.6387 60.7429 98.5451C60.7684 98.5374 60.7942 98.5308 60.8202 98.5251C61.766 98.3174 62.5441 98.3697 63.1544 98.6821L62.8647 98.5828C62.9596 98.6008 63.0565 98.6278 63.1554 98.6638L63.1555 98.6638C63.5129 98.794 63.9588 99.0772 64.4931 99.5134L64.4724 99.4969C64.6801 99.658 64.8457 99.812 64.9693 99.9591C65.2188 100.256 65.3387 100.568 65.329 100.896C65.3119 101.471 64.8222 101.924 64.2352 101.907C63.6482 101.89 63.1862 101.41 63.2033 100.835Z" fill="#94C595"/>
<path d="M55.2699 83.2954L55.3058 83.2994L55.3056 83.2994L55.2697 83.2953C55.1035 83.2738 54.9917 83.2646 54.9341 83.2677C54.9394 83.2674 54.9468 83.2666 54.9563 83.2653C54.9463 83.2667 54.9362 83.2679 54.9261 83.269L53.7046 83.4038L53.7618 83.3959C53.56 83.4292 53.1729 83.553 52.6005 83.7674C52.5656 83.7805 52.53 83.7917 52.4938 83.8012L52.4937 83.8012C52.499 83.7998 52.503 83.7987 52.5058 83.7978L52.506 83.7977C52.3395 83.8513 51.9406 84.066 51.3092 84.4417C51.1899 84.5126 51.0576 84.5599 50.9198 84.5808C51.1005 84.5534 51.2461 84.494 51.3566 84.4027L51.3567 84.4027C51.2855 84.4615 51.126 84.6251 50.8781 84.8934C50.8564 84.917 50.8336 84.9395 50.8097 84.961L50.8097 84.961C50.7462 85.0182 50.6729 85.0733 50.5896 85.1263C50.4886 85.1905 50.3618 85.2585 50.209 85.3305C49.6797 85.5796 49.0445 85.3612 48.7902 84.8425C48.5359 84.3238 48.7588 83.7014 49.2881 83.4522C49.3591 83.4188 49.407 83.3942 49.4317 83.3785C49.4149 83.3892 49.3943 83.4055 49.3699 83.4275L49.3015 83.4951C49.6134 83.1574 49.8415 82.929 49.9856 82.8099L49.9856 82.8098C50.1793 82.6498 50.3823 82.5537 50.5948 82.5215L50.2054 82.6606C50.9757 82.2022 51.5213 81.9214 51.8422 81.8181L51.8423 81.818C51.8784 81.8064 51.9137 81.7961 51.948 81.7872L51.8412 81.821C52.5456 81.5571 53.0684 81.3971 53.4094 81.341C53.4284 81.3378 53.4475 81.3352 53.4666 81.3331L54.6882 81.1983L54.6581 81.2021C54.7089 81.195 54.7622 81.19 54.8179 81.187C55.0076 81.1769 55.2511 81.191 55.5484 81.2295L55.5125 81.2255L55.5128 81.2255C56.1308 81.305 56.5404 81.8286 56.4634 82.399C56.3865 82.9695 55.8521 83.3708 55.2699 83.2954Z" fill="#94C595"/>
<path d="M41.9928 81.5283C42.5685 80.7366 43.0977 80.1877 43.5804 79.8817L43.331 80.1016C43.3978 80.0207 43.4827 79.9432 43.5859 79.8694L43.586 79.8693C43.79 79.7233 44.3471 79.4024 45.2574 78.9066L45.1755 78.956C46.281 78.2185 46.9449 77.7908 47.1672 77.673L47.1671 77.673C47.7676 77.3546 48.2496 77.4566 48.6128 77.9789L48.6133 77.9796C48.8455 78.3139 48.8706 78.6633 48.6889 79.0277L47.2531 77.6409C48.0433 77.2486 48.6187 77.0165 48.9794 76.9446L48.9796 76.9446C49.0134 76.9378 49.0466 76.932 49.0792 76.9273L48.9741 76.9481C49.4429 76.8308 50.0196 76.7149 50.7043 76.6003L50.8626 76.5856H50.8626L50.677 76.6052C50.6891 76.6029 50.7013 76.6006 50.7138 76.5984L50.7141 76.5984C50.9119 76.5639 51.3201 76.5303 51.9386 76.4975L51.8954 76.5006C51.896 76.5006 51.8964 76.5005 51.8968 76.5005L51.8966 76.5005C51.8957 76.5007 51.8945 76.501 51.8931 76.5014C52.4485 76.3144 53.0534 76.6039 53.2443 77.1481C53.4351 77.6923 53.1397 78.285 52.5843 78.4721C52.4691 78.5109 52.351 78.5397 52.2301 78.5585L52.2299 78.5585C52.1858 78.5654 52.1414 78.5709 52.0966 78.5751C52.0822 78.5764 52.0678 78.5775 52.0535 78.5782C51.5212 78.6065 51.1988 78.6304 51.0863 78.65L51.0866 78.6499C51.0873 78.6498 51.0885 78.6496 51.0899 78.6493L50.9044 78.6689H50.9043C51.0803 78.6512 51.0715 78.6527 51.0625 78.6542C50.4342 78.7595 49.9133 78.8637 49.5 78.9671C49.4653 78.9758 49.4302 78.9827 49.3949 78.9879C49.3986 78.9874 49.4014 78.9869 49.4032 78.9866L49.4035 78.9865C49.2302 79.0211 48.8337 79.1921 48.2141 79.4997C47.8065 79.7021 47.3126 79.6266 46.9872 79.3123C46.6618 78.998 46.5777 78.5152 46.7783 78.1129C46.5987 78.473 46.6243 78.8193 46.8551 79.1517L46.8556 79.1524C47.213 79.6663 47.6541 79.784 48.1791 79.5057L48.179 79.5057C48.0203 79.5899 47.4181 79.9808 46.3724 80.6784C46.3459 80.6961 46.3186 80.7126 46.2906 80.7279C45.4569 81.182 44.9735 81.4567 44.8404 81.552L44.8405 81.5519C44.887 81.5185 44.9352 81.4717 44.9851 81.4113C44.9144 81.497 44.8302 81.5712 44.7356 81.6312C44.4803 81.7931 44.1433 82.1618 43.7247 82.7375C43.3839 83.2061 42.72 83.3153 42.2418 82.9814C41.7635 82.6475 41.6521 81.9969 41.9928 81.5283Z" fill="#94C595"/>
<path d="M53.4919 80.8482C53.6091 80.8441 53.7064 80.8241 53.7838 80.7884L53.8398 80.7606C53.6524 80.8607 53.5273 80.9258 53.4645 80.956L53.4647 80.9559C53.0461 81.1573 52.6611 81.1225 52.3096 80.8516L53.385 80.9907C53.359 81.0016 53.3315 81.0123 53.3027 81.0229L53.3025 81.0229C53.2153 81.0546 53.1025 81.0888 52.9639 81.1254L53.3512 80.9332C53.1953 81.0553 53.005 81.1321 52.7801 81.1638L52.7802 81.1637C52.7053 81.1743 52.5964 81.185 52.4534 81.196L52.4398 81.1969L51.8808 81.2327L51.9115 81.2303C51.8934 81.2319 51.8685 81.2359 51.8366 81.2421C51.8303 81.2433 51.8237 81.2446 51.8173 81.2457C51.5684 81.2897 51.4055 81.3291 51.3288 81.364C51.344 81.357 51.3634 81.3453 51.3869 81.3287C50.9101 81.6645 50.2457 81.5579 49.903 81.0906C49.5603 80.6233 49.6691 79.9723 50.146 79.6365C50.2315 79.5763 50.3275 79.5221 50.434 79.4736C50.6762 79.3636 51.0115 79.2707 51.44 79.195L51.4207 79.1986C51.5241 79.1784 51.6211 79.1641 51.7118 79.1557C51.722 79.1548 51.7322 79.154 51.7424 79.1533L52.3014 79.1176L52.2878 79.1185C52.3851 79.1111 52.4484 79.1053 52.4777 79.1012L52.4778 79.1012C52.3206 79.1233 52.1691 79.1914 52.0234 79.3055C52.1376 79.2161 52.2695 79.1506 52.4107 79.1134C52.4858 79.0935 52.5363 79.0789 52.5621 79.0695L52.5619 79.0696C52.5588 79.0707 52.5546 79.0724 52.5491 79.0747C52.9068 78.925 53.3191 78.9784 53.6245 79.2139C53.2751 78.9445 52.9094 78.9017 52.5274 79.0855L52.5276 79.0854C52.5632 79.0683 52.6613 79.0168 52.822 78.931C52.8403 78.9212 52.859 78.9119 52.8779 78.9032C53.0631 78.8177 53.2422 78.772 53.4151 78.7658C54.002 78.745 54.4949 79.1944 54.5161 79.7694C54.5373 80.3444 54.0788 80.8274 53.4919 80.8482Z" fill="#94C595"/>
<path d="M55.6611 97.0633L55.5958 96.8635L55.6268 96.9463L55.283 96.137C55.2719 96.1108 55.2619 96.0841 55.2529 96.0571C55.052 95.4482 54.7527 94.6269 54.3549 93.5932L54.3583 93.6021C53.9687 92.6169 53.656 91.8885 53.4202 91.4171C53.1618 90.9004 53.3798 90.2762 53.9072 90.023C54.4345 89.7698 55.0715 89.9834 55.3299 90.5002C55.5924 91.0252 55.9296 91.8082 56.3412 92.8492L56.3447 92.858C56.7545 93.9229 57.065 94.7756 57.2764 95.4161L57.2463 95.3362L57.5901 96.1455C57.6016 96.1726 57.612 96.2003 57.6212 96.2283L57.6864 96.4282C57.8654 96.9762 57.5571 97.5627 56.9979 97.7381C56.4386 97.9134 55.8401 97.6114 55.6611 97.0633Z" fill="#94C595"/>
<path d="M70.6027 48.1332C70.3527 48.138 70.0811 48.169 69.7878 48.2262C69.6313 48.2567 69.4808 48.3113 69.3406 48.3886L69.3402 48.3888L69.3402 48.389C68.5378 48.8315 67.9975 49.1652 67.7193 49.3901L67.7193 49.3902C67.6248 49.4665 67.5422 49.5431 67.4715 49.62L67.471 49.6201C67.017 50.0984 66.7151 50.6446 66.5653 51.2586L66.5647 51.2587C66.517 51.4371 66.4881 51.6226 66.4781 51.8153L66.4781 51.8154C66.468 52.0085 66.4772 52.2089 66.5055 52.4165L66.5049 52.4166C66.5075 52.8268 66.5425 53.1714 66.6101 53.4505C66.688 53.7727 66.8141 54.0484 66.9884 54.2776L66.9877 54.2777C67.0917 54.4504 67.2194 54.614 67.3706 54.7683L67.3706 54.7684C67.6184 55.0212 67.9319 55.2501 68.3111 55.4549L68.3111 55.455C68.3825 55.4935 68.4569 55.5263 68.5337 55.5531C69.5784 55.9175 70.2921 56.1311 70.6749 56.1941L70.675 56.1942C70.8175 56.2176 70.9537 56.228 71.0836 56.2255C71.2207 56.2229 71.3507 56.2058 71.4738 56.1743L71.474 56.1742C71.5225 56.1618 71.5704 56.147 71.6174 56.1299C71.7346 56.0873 71.8436 56.0363 71.9445 55.977L71.9453 55.9771C71.983 56.03 72.0248 56.0813 72.0706 56.1304C72.3757 56.4573 72.796 56.6192 73.2151 56.6112C73.569 56.6044 73.922 56.4763 74.2037 56.2238C74.4634 55.9912 74.673 55.7152 74.8327 55.3958C75.182 54.6973 75.2718 53.8118 75.102 52.7393L75.1019 52.7394C74.8923 51.3317 74.2941 50.1629 73.3073 49.2329L73.3066 49.233C73.168 49.0798 73.0029 48.9406 72.8114 48.8153L72.8115 48.8154C72.4854 48.602 72.0587 48.4175 71.5315 48.2617L71.5307 48.2618C71.3266 48.1943 71.1066 48.1533 70.8708 48.1386L70.8708 48.1387C70.7844 48.1333 70.695 48.1315 70.6027 48.1332Z" fill="#94C595"/>
<path d="M93.7632 48.2371C93.6905 48.2385 93.6168 48.2427 93.5423 48.2498L93.5414 48.2499C92.2395 48.3389 90.9248 48.9736 89.5972 50.1542C89.5815 50.1682 89.566 50.1826 89.5508 50.1972C89.0278 50.7035 88.6665 51.1056 88.467 51.4034L88.467 51.4034C88.4111 51.4868 88.3624 51.5688 88.321 51.6494L88.3202 51.6496C87.9088 52.3666 87.638 53.1361 87.5078 53.9578C87.3799 54.7652 87.9442 55.5213 88.7683 55.6467C88.8567 55.6601 88.9447 55.6658 89.0312 55.6641C89.7506 55.6503 90.3777 55.1323 90.4918 54.4116C90.4939 54.3985 90.496 54.3854 90.4982 54.3724L90.4991 54.3724C90.9538 55.0308 91.5008 55.4842 92.1401 55.7327L92.1402 55.7327C92.2268 55.7664 92.3145 55.7959 92.4034 55.8214L92.4035 55.8215C92.4479 55.8342 92.493 55.8449 92.5384 55.8536C92.7961 55.9029 93.0469 55.9251 93.2908 55.9204C93.4196 55.918 93.5464 55.908 93.6713 55.8905L93.6713 55.8906C93.6957 55.8871 93.7199 55.8834 93.744 55.8794L93.7431 55.8796C94.2244 55.8208 94.7321 55.6626 95.2661 55.4051C95.3536 55.3629 95.4366 55.3126 95.5142 55.2547C96.657 54.4021 97.1195 53.1904 96.9018 51.6196C96.8946 51.5679 96.8846 51.5166 96.8719 51.4659C96.5893 50.3383 96.1685 49.5089 95.6095 48.9777C95.0758 48.4705 94.4604 48.2237 93.7632 48.2371Z" fill="#94C595"/>
<path d="M92.8049 53.5211C92.7853 53.3363 92.6754 53.203 92.4752 53.1213L92.4212 53.1005C92.5401 53.1436 92.6898 53.1723 92.8704 53.1865L92.7931 53.1824C92.9233 53.1858 93.0109 53.1859 93.0557 53.1825L93.0558 53.1825C92.7653 53.2044 92.4985 53.3425 92.2553 53.5965C92.8082 53.0189 93.7343 52.9897 94.3239 53.5315C94.9134 54.0733 94.9432 54.9807 94.3903 55.5584C94.1154 55.8456 93.7457 56.0068 93.2811 56.0419H93.2812C93.1351 56.053 92.9462 56.0555 92.7145 56.0494C92.6887 56.0487 92.6629 56.0473 92.6371 56.0453C92.1873 56.0101 91.7764 55.9249 91.4042 55.7898C91.3861 55.7832 91.368 55.7762 91.3502 55.7689C90.4794 55.4137 89.9939 54.7631 89.8937 53.8173C89.8102 53.0295 90.3943 52.3247 91.1982 52.2429C92.0021 52.1611 92.7215 52.7334 92.8049 53.5211Z" fill="#94C595"/>
<path d="M92.8444 52.9106L92.981 53.5126L92.9338 53.3493C92.9231 53.3192 92.9134 53.2961 92.9047 53.28L92.9047 53.2801C92.9257 53.3186 92.9709 53.3822 93.0404 53.4709L92.935 53.3504C92.9413 53.3568 92.946 53.3613 92.9493 53.3639C92.9297 53.3487 92.9018 53.3374 92.8656 53.3298C92.885 53.3339 92.9044 53.3383 92.9236 53.3431C92.9086 53.3394 92.8969 53.3372 92.8885 53.3367H92.8884C92.9394 53.3398 93.0255 53.3245 93.1467 53.2907L93.1496 53.2899C93.4234 53.2142 93.6035 53.1512 93.6899 53.101L93.69 53.101C93.6464 53.1263 93.597 53.1695 93.5419 53.2305C93.5534 53.2178 93.5651 53.2052 93.577 53.1929C93.8037 52.959 93.9167 52.6904 93.916 52.3871L93.9402 52.6479C93.896 52.4091 93.7424 52.2121 93.4795 52.0569C92.7651 51.6354 92.5348 50.7262 92.965 50.0263C93.3951 49.3263 94.323 49.1006 95.0373 49.5221C96.0799 50.1373 96.7046 51.0031 96.9114 52.1195C96.9274 52.2055 96.9355 52.2928 96.9357 52.3803C96.9382 53.4735 96.5487 54.4234 95.767 55.2302L95.8022 55.1926C95.6483 55.3628 95.4576 55.5139 95.23 55.6462L95.2301 55.6461C94.9172 55.8279 94.4972 55.9917 93.97 56.1376L93.9729 56.1368C93.5197 56.2631 93.0954 56.3141 92.6998 56.2898H92.6997C92.5211 56.2789 92.3485 56.2527 92.1819 56.2114L92.24 56.2246C91.8154 56.1365 91.4281 55.957 91.078 55.6862C90.9641 55.598 90.8553 55.5008 90.7516 55.3944C90.7143 55.3562 90.6791 55.316 90.6461 55.274C90.4743 55.0548 90.3384 54.8534 90.2387 54.6696L90.2387 54.6696C90.1739 54.5502 90.1211 54.4329 90.0804 54.3179C90.0615 54.2644 90.0457 54.2099 90.0332 54.1546L89.8967 53.5526C89.7157 52.755 90.2289 51.9647 91.0429 51.7874C91.8569 51.6101 92.6635 52.113 92.8444 52.9106Z" fill="#94C595"/>
<path d="M73.5257 45.1056C73.5647 45.1593 73.5998 45.1989 73.6309 45.2243C73.6157 45.2119 73.5888 45.1937 73.55 45.1694L73.7002 45.2519C73.5685 45.189 73.4776 45.1495 73.4274 45.1335L73.4274 45.1335C73.6253 45.1967 73.8565 45.1879 74.1211 45.1073C74.0684 45.1234 74.0148 45.1366 73.9606 45.1469C74.3995 45.0634 74.6356 44.8383 74.669 44.4716L74.6738 44.2811C74.6733 44.2693 74.6725 44.2603 74.6713 44.2541L74.6714 44.2542C74.6916 44.3649 74.7876 44.5492 74.9594 44.8073L74.9311 44.7662C75.0711 44.9619 75.1815 45.0809 75.2623 45.1231L75.2625 45.1232C75.2623 45.1231 75.262 45.123 75.2616 45.1228L75.2512 45.1178C75.3499 45.1647 75.419 45.1946 75.4585 45.2074C75.361 45.1758 75.2372 45.1652 75.0871 45.1755C75.1735 45.1696 75.2601 45.1709 75.3462 45.1796C75.3815 45.1831 75.4069 45.1838 75.4223 45.1817C75.4143 45.1828 75.4035 45.1858 75.39 45.1908C75.4267 45.1773 75.464 45.1651 75.5017 45.1544C75.3966 45.1843 75.3173 45.2199 75.2639 45.2612C75.2909 45.2403 75.3319 45.1992 75.3869 45.1379L75.3323 45.2024C75.1058 45.4856 75.0345 45.7726 75.1183 46.0634C75.1135 46.0466 75.109 46.0297 75.1048 46.0128L75.1047 46.0126C75.1052 46.0147 75.1056 46.0161 75.1059 46.0171L75.1058 46.0169C75.076 45.9141 74.9792 45.733 74.8155 45.4735L74.8546 45.5323C74.8243 45.4891 74.7897 45.4531 74.7506 45.4244L74.8083 45.4648C74.8152 45.4694 74.8206 45.4729 74.8245 45.4751C74.706 45.4068 74.4322 45.3055 74.0031 45.1712L74.0126 45.1741C74.03 45.1794 74.0437 45.183 74.0536 45.1849L74.0535 45.1849C73.9976 45.1742 73.8938 45.1679 73.7422 45.1661C72.9084 45.1559 72.2408 44.4854 72.2512 43.6683C72.2616 42.8513 72.9459 42.1972 73.7797 42.2074C74.1139 42.2115 74.3986 42.236 74.6337 42.2811L74.6336 42.2811C74.7319 42.3 74.825 42.3229 74.9129 42.3498L74.9224 42.3527C75.5652 42.554 76.0426 42.7445 76.3546 42.9241C76.4081 42.955 76.4589 42.9864 76.5069 43.0184C76.5265 43.0315 76.5457 43.0449 76.5645 43.0588C76.8676 43.2819 77.1277 43.5485 77.3447 43.8585C77.3582 43.8778 77.3712 43.8974 77.3838 43.9173C77.6951 44.4106 77.904 44.8408 78.0105 45.208L78.0104 45.2078C78.0203 45.2419 78.0295 45.2759 78.038 45.3097L78.0243 45.259C78.2184 45.9323 78.1135 46.5217 77.7094 47.0271C77.6918 47.0491 77.6736 47.0706 77.6547 47.0916C77.4787 47.2878 77.3052 47.452 77.1342 47.5842C76.879 47.7815 76.6151 47.9189 76.3425 47.9963L76.4541 47.9599C76.2586 48.0321 76.0542 48.0828 75.841 48.112C75.5841 48.1473 75.3168 48.151 75.039 48.1231L75.2981 48.1272C75.0528 48.144 74.7908 48.1074 74.5121 48.0172C74.345 47.9632 74.1518 47.884 73.9322 47.7795L73.9219 47.7745C73.8944 47.7612 73.8671 47.7474 73.84 47.7332L73.8402 47.7334C73.3354 47.4693 72.8749 47.0466 72.4588 46.4653C72.4492 46.4518 72.4397 46.4381 72.4305 46.4242C72.035 45.8303 71.7911 45.2807 71.6989 44.7753L71.6989 44.7754C71.6756 44.6482 71.6615 44.5228 71.6565 44.3991C71.6539 44.3356 71.6555 44.272 71.6612 44.2087C71.7624 43.0971 72.337 42.4417 73.3849 42.2423L73.2244 42.2819C73.5719 42.176 73.9514 42.1888 74.363 42.3202L74.363 42.3202C74.546 42.3786 74.7661 42.4692 75.0233 42.5921C75.075 42.6168 75.1251 42.6443 75.1735 42.6745C75.3206 42.7664 75.4511 42.8589 75.5649 42.9519C75.7338 43.09 75.8743 43.2361 75.9862 43.3902C76.4696 44.056 76.3107 44.9797 75.6312 45.4534C74.9518 45.9271 74.0091 45.7714 73.5257 45.1056Z" fill="#94C595"/>
<path d="M90.1695 45.2709C89.9107 45.3287 89.7441 45.3705 89.6696 45.3963L89.6697 45.3963C89.8443 45.3357 90.0101 45.2183 90.1673 45.0442C89.9701 45.2627 89.7114 45.4192 89.4237 45.4941L89.4236 45.4941C89.579 45.4537 89.7017 45.3999 89.7917 45.3327C89.7311 45.3779 89.6197 45.482 89.4577 45.645L89.5892 45.4935C89.463 45.6603 89.3899 45.7825 89.37 45.8599C89.3857 45.799 89.3781 45.7224 89.3473 45.6299C89.353 45.647 89.3584 45.6643 89.3635 45.6817C89.2952 45.4477 89.1358 45.2665 88.8852 45.1381C88.9076 45.1496 88.9297 45.1616 88.9515 45.1742C88.7857 45.0785 88.6359 45.0275 88.5022 45.0213C88.5388 45.023 88.6036 45.0197 88.6967 45.0115L88.6361 45.018L88.6363 45.018L88.6326 45.0185C88.8334 44.9922 89.0419 44.9417 89.258 44.8669L89.2527 44.8687C89.2159 44.8816 89.1874 44.8935 89.1672 44.9043L89.1671 44.9043C89.2337 44.8687 89.3532 44.7836 89.5254 44.649L89.4736 44.6914C89.4753 44.69 89.4765 44.6889 89.4772 44.6882C89.4478 44.7171 89.4273 44.7591 89.4159 44.8142L89.3899 44.996C89.3909 44.9841 89.3913 44.9753 89.3911 44.9698C89.3954 45.1189 89.4776 45.2673 89.6377 45.415C89.6198 45.3985 89.6024 45.3816 89.5854 45.3643C89.7288 45.5102 89.8713 45.5863 90.013 45.5924L90.0129 45.5924C90.0121 45.5924 90.0109 45.5924 90.0092 45.5924L90.2878 45.5674C90.0831 45.6047 89.9494 45.6327 89.8866 45.6515L89.8867 45.6515C89.8939 45.6493 89.9037 45.646 89.916 45.6414C89.9072 45.6447 89.8983 45.6478 89.8894 45.6509C90.0188 45.6059 90.1156 45.5535 90.1798 45.4935C90.1778 45.4953 90.1749 45.4983 90.171 45.5024C89.5985 46.0965 88.6429 46.1234 88.0366 45.5625C87.4302 45.0016 87.4027 44.0653 87.9752 43.4711C88.0152 43.4296 88.0552 43.3901 88.0953 43.3526C88.3424 43.1216 88.6039 42.9582 88.8799 42.8623L88.8532 42.8718C88.9011 42.8542 88.9522 42.8372 89.0066 42.821L89.0066 42.821C89.1771 42.7701 89.4201 42.7159 89.7356 42.6584C89.8275 42.6416 89.9208 42.6333 90.0143 42.6334C90.0589 42.6335 90.1031 42.6345 90.1469 42.6364L90.1467 42.6364C90.8082 42.6651 91.3461 42.8902 91.7603 43.3117L91.708 43.261C92.1565 43.6748 92.3903 44.2166 92.4096 44.8862C92.4128 44.9955 92.4098 45.1078 92.4008 45.2231C92.396 45.2842 92.3873 45.3449 92.3748 45.4049C92.2657 45.9295 92.0128 46.3869 91.6159 46.7771C91.5658 46.8263 91.5137 46.8741 91.4595 46.9204C91.4426 46.9349 91.4252 46.9491 91.4076 46.9628C91.0991 47.2038 90.835 47.3831 90.6154 47.5007L90.6154 47.5008C90.4966 47.5644 90.3811 47.6158 90.2687 47.6551L90.2635 47.657C89.8504 47.7999 89.44 47.898 89.0323 47.9514L89.0286 47.9519L89.0285 47.9519C89.0108 47.9542 88.9894 47.9566 88.968 47.9585C88.7369 47.9789 88.5338 47.985 88.3588 47.9769C87.9953 47.9599 87.6821 47.8756 87.419 47.7238L87.4854 47.7599C86.971 47.4962 86.6293 47.0747 86.4602 46.4954L86.4764 46.5472C86.3269 46.0981 86.3155 45.6279 86.4419 45.1364C86.5594 44.6802 86.7999 44.2118 87.1635 43.7312C87.2039 43.6779 87.2478 43.6273 87.2951 43.5798C87.5608 43.3127 87.7829 43.1125 87.9615 42.9791C88.1891 42.8092 88.4181 42.6943 88.6487 42.6343L87.905 43.0842C88.0929 42.876 88.345 42.717 88.6614 42.6072L88.6614 42.6072C88.8465 42.543 89.1257 42.4692 89.4989 42.3859C90.3119 42.2044 91.1212 42.7032 91.3063 43.4999C91.4915 44.2966 90.9825 45.0895 90.1695 45.2709Z" fill="#94C595"/>
<path d="M87.0763 45.3867C86.8488 44.6771 87.0048 44.018 87.5445 43.4093C87.5966 43.3504 87.6535 43.2957 87.7144 43.2456C88.1162 42.9157 88.5117 42.6794 88.9008 42.5368L88.9008 42.5368C89.0318 42.4888 89.1628 42.4509 89.2937 42.4233C89.3146 42.4189 89.3356 42.4149 89.3567 42.4113C89.672 42.3584 89.9903 42.3773 90.3115 42.468L90.3141 42.4687C90.4418 42.5051 90.6139 42.5604 90.8305 42.6347C90.8476 42.6405 90.8645 42.6467 90.8813 42.6531C91.0817 42.7298 91.2569 42.8303 91.4071 42.9545C91.4708 43.0072 91.5298 43.0648 91.5838 43.127C92.1284 43.7549 92.2789 44.4186 92.0355 45.118C91.7663 45.8913 90.9082 46.3044 90.119 46.0406C89.3298 45.7768 88.9082 44.9361 89.1774 44.1628C89.0517 44.5238 89.0869 44.8173 89.2828 45.0433L89.4594 45.2157C89.5641 45.3023 89.6716 45.3667 89.7818 45.4089L89.8326 45.4274C89.6677 45.3708 89.5478 45.3318 89.4727 45.3105L89.4752 45.3112C89.597 45.3456 89.7275 45.3511 89.8667 45.3278L89.9297 45.3158C89.9424 45.3131 89.9521 45.3106 89.9586 45.3082L89.9586 45.3082C89.8928 45.3323 89.7914 45.4007 89.6542 45.5133L89.8242 45.3497C90.0227 45.1257 90.0671 44.8424 89.9572 44.4996C90.2071 45.2792 89.7649 46.1096 88.9693 46.3546C88.1738 46.5995 87.3263 46.1662 87.0763 45.3867Z" fill="#94C595"/>
<path d="M57.4324 55.1011C57.2272 55.0463 57.0851 55.0064 56.9965 54.9814L56.9966 54.9815C56.9432 54.9664 56.922 54.9605 56.9049 54.9559L56.9052 54.956C56.9027 54.9554 56.8994 54.9545 56.9001 54.9547L56.9003 54.9547C56.9005 54.9548 56.9051 54.956 56.9136 54.9579C56.9079 54.9566 56.9018 54.9552 56.8961 54.9538L56.2294 54.7967L56.2792 54.8077L55.0733 54.5584L55.1563 54.5736C54.8976 54.5323 54.7367 54.5162 54.6454 54.5125H54.6456C54.6126 54.5112 54.581 54.5092 54.5611 54.5078L54.5608 54.5078C54.3101 54.4903 53.4159 54.3942 52.7844 54.2388C51.8116 53.9994 51.221 53.0325 51.4653 52.0793C51.7096 51.126 52.6963 50.5473 53.6691 50.7867C54.0118 50.871 54.6718 50.9473 54.8185 50.9575L54.8182 50.9575C54.8204 50.9577 54.8119 50.957 54.7923 50.9562L54.7925 50.9562C55.0962 50.9683 55.4214 51.0098 55.74 51.0606C55.7679 51.0651 55.7956 51.0701 55.8231 51.0758L57.029 51.3251C57.0457 51.3286 57.0623 51.3323 57.0788 51.3361L57.7456 51.4933L57.7281 51.4892C57.7597 51.4964 57.7897 51.5037 57.8164 51.5105L57.8165 51.5106C57.831 51.5143 57.847 51.5184 57.8599 51.5219L57.8602 51.522C57.9057 51.5341 57.9557 51.5482 57.999 51.5604L57.9992 51.5605C58.0834 51.5842 58.2043 51.6182 58.3876 51.6671C59.3553 51.9256 59.926 52.9038 59.6622 53.8521C59.3985 54.8004 58.4001 55.3596 57.4324 55.1011Z" fill="#94C595"/>
<path d="M59.3289 60.0022L59.4455 60.0037H59.4452L59.3285 60.0022C59.345 60.003 59.3972 60.0043 59.4739 59.9931L59.4741 59.9931C59.1882 60.0349 58.9334 60.0677 58.7088 60.0958L58.7099 60.0957C58.6037 60.1091 58.4893 60.1109 58.5278 60.1096C58.5056 60.1104 58.4797 60.111 58.4534 60.1117C58.4258 60.1125 58.3419 60.1148 58.2845 60.1165H58.2847C58.2365 60.118 58.1835 60.1205 58.1052 60.1244H58.1053C58.0538 60.1269 58.0005 60.1296 57.9377 60.1322H57.9376C57.9215 60.1329 57.8981 60.1347 57.8193 60.1421L57.8187 60.1422L57.8073 60.1433L57.8054 60.1434C57.8087 60.1431 57.8101 60.143 57.8092 60.1431L57.8104 60.1429C57.7753 60.1467 57.6961 60.1587 57.4865 60.1921L57.4866 60.192C57.3963 60.2064 57.272 60.2262 57.1507 60.2448L57.1905 60.2382L57.1902 60.2383L57.1501 60.2449C56.8752 60.2871 56.6379 60.3034 56.4939 60.3138L56.4943 60.3137C56.5077 60.3128 56.4358 60.318 56.452 60.3168H56.4521C56.3202 60.3264 56.1837 60.336 56.0784 60.3395L56.0791 60.3395C56.0679 60.3399 56.0536 60.3403 56.0413 60.3406L56.0425 60.3405C55.9488 60.3427 55.8074 60.3469 55.6206 60.3551C55.6074 60.3557 55.5941 60.3562 55.5808 60.3564L55.3291 60.3619L55.402 60.3589L55.0932 60.3781C55.073 60.3794 55.0527 60.3803 55.0324 60.3809C54.7282 60.3896 54.5629 60.3955 54.5401 60.3965L54.5375 60.3966C54.5314 60.3968 54.545 60.3962 54.5456 60.3962L54.552 60.3959L54.5482 60.3961L54.5475 60.3961C54.5242 60.3974 54.4607 60.4028 54.3037 60.4186L54.3031 60.4187C54.2563 60.4234 54.2115 60.4259 54.2014 60.4265L54.2007 60.4265C54.0618 60.4344 53.6782 60.4461 53.3352 60.4527C52.3593 60.4715 51.5527 59.7116 51.5336 58.7554C51.5144 57.7992 52.2899 57.0088 53.2658 56.99C53.6076 56.9835 53.9317 56.9726 53.9964 56.9689L53.9957 56.969C54.0066 56.9683 53.9809 56.9695 53.9424 56.9734L53.9418 56.9734C54.0748 56.96 54.2311 56.9444 54.3594 56.9376L54.3586 56.9377L54.3624 56.9375L54.3689 56.9372C54.3807 56.9366 54.3815 56.9366 54.3889 56.9363L54.3864 56.9364C54.4379 56.9342 54.6255 56.9277 54.9293 56.919L54.8685 56.9218L55.1773 56.9025C55.2016 56.901 55.2259 56.9 55.2502 56.8994L55.5019 56.8939L55.462 56.8952C55.6753 56.8858 55.84 56.8808 55.9607 56.8781L55.962 56.878C55.9576 56.8781 55.9588 56.8781 55.9567 56.8782L55.9575 56.8782C55.9785 56.8775 56.0435 56.8736 56.1894 56.863H56.1895C56.2253 56.8604 56.2014 56.8621 56.2355 56.8597L56.2359 56.8596C56.3825 56.8491 56.4885 56.8408 56.6035 56.8232L56.5634 56.8298L56.5636 56.8298L56.6035 56.8232C56.7203 56.8052 56.8228 56.7889 56.92 56.7734L56.9201 56.7734C57.0813 56.7478 57.2765 56.7161 57.4276 56.6999L57.4288 56.6998C57.4425 56.6984 57.4552 56.6971 57.4721 56.6955L57.4702 56.6957L57.4815 56.6946L57.4809 56.6947C57.5452 56.6886 57.6611 56.6773 57.7866 56.672L57.7865 56.672C57.8318 56.6701 57.8762 56.6679 57.927 56.6654H57.9272C57.998 56.6619 58.0864 56.6575 58.1749 56.6548H58.1751C58.2399 56.6528 58.329 56.6504 58.3573 56.6496C58.3913 56.6487 58.4014 56.6485 58.4086 56.6482C58.4653 56.6463 58.3624 56.6476 58.2596 56.6605L58.2607 56.6604C58.4767 56.6334 58.7014 56.6044 58.952 56.5677L58.9521 56.5677C59.1511 56.5386 59.335 56.5354 59.4926 56.5426L59.3759 56.541H59.3761C60.4677 56.5869 61.2214 57.3973 61.1762 58.3526C61.131 59.308 60.3039 60.0465 59.3289 60.0022Z" fill="#94C595"/>
<path d="M108.333 50.8039L108.333 50.8039C108.361 50.7981 108.39 50.7922 108.401 50.7899L108.403 50.7895C108.406 50.789 108.407 50.7886 108.408 50.7885L108.408 50.7885C108.409 50.7883 108.403 50.7895 108.403 50.7895L108.409 50.7884C108.42 50.786 108.406 50.789 108.405 50.7892L108.399 50.7905C108.48 50.7731 108.545 50.7593 108.58 50.7522L108.579 50.7524C108.571 50.754 108.622 50.7432 108.675 50.735L108.62 50.7445L108.796 50.7115L108.769 50.7168C108.799 50.7106 108.83 50.7041 108.866 50.6955L108.866 50.6954C109.133 50.6314 109.343 50.5822 109.47 50.5557L109.47 50.5557C109.599 50.5287 109.811 50.4868 110.1 50.4324L110.1 50.4324C110.19 50.4156 110.271 50.4016 110.346 50.3891C110.353 50.388 110.359 50.3869 110.366 50.3858L110.794 50.319L110.746 50.3272C110.883 50.3022 111.16 50.2559 111.155 50.2569L111.155 50.2569C111.253 50.2405 111.334 50.2274 111.413 50.2147C111.479 50.204 111.53 50.1959 111.579 50.1876L111.579 50.1876C111.602 50.1838 111.622 50.1805 111.639 50.1774C111.653 50.1751 111.666 50.1728 111.68 50.1708L111.894 50.1382L111.873 50.1415C111.91 50.1354 111.919 50.1337 111.923 50.133L111.922 50.1331C111.924 50.1328 111.921 50.1333 111.921 50.1333L111.922 50.1332C112.099 50.0956 112.267 50.0567 112.427 50.0188C113.418 49.7842 114.415 50.3809 114.654 51.3515C114.894 52.3221 114.285 53.2991 113.294 53.5337C113.119 53.5753 112.921 53.6209 112.703 53.6673L112.703 53.6672C112.685 53.6711 112.679 53.6724 112.662 53.6758L112.661 53.6759C112.587 53.6908 112.521 53.7016 112.481 53.7081C112.474 53.7092 112.467 53.7103 112.46 53.7114L112.246 53.744L112.287 53.7374C112.26 53.7421 112.225 53.748 112.199 53.7524L112.199 53.7524C112.137 53.7627 112.076 53.7725 112.012 53.7828C111.937 53.7949 111.857 53.8078 111.774 53.8217L111.774 53.8216C111.768 53.8228 111.524 53.8635 111.423 53.882C111.407 53.8849 111.391 53.8877 111.374 53.8902L110.946 53.957L110.966 53.9537C110.905 53.964 110.85 53.9735 110.795 53.9838L110.796 53.9837C110.521 54.0354 110.334 54.0726 110.24 54.0923L110.24 54.0923C110.176 54.1056 110.021 54.1414 109.743 54.208L109.743 54.2079C109.649 54.2306 109.572 54.2467 109.517 54.2579C109.508 54.2597 109.498 54.2615 109.489 54.2632L109.313 54.2963C109.294 54.2997 109.276 54.3029 109.257 54.3058C109.307 54.298 109.348 54.2891 109.328 54.2933L109.327 54.2935C109.316 54.2957 109.272 54.3049 109.186 54.3234L109.18 54.3246C109.174 54.3259 109.166 54.3276 109.172 54.3262L109.178 54.3251C109.168 54.3271 109.173 54.3261 109.164 54.3279L109.164 54.3279C109.157 54.3293 109.155 54.3297 109.148 54.3311L109.15 54.3307C109.14 54.3328 109.123 54.3364 109.106 54.3399C108.109 54.5489 107.129 53.9268 106.915 52.9503C106.702 51.9739 107.337 51.0129 108.333 50.8039Z" fill="#94C595"/>
<path d="M108.643 55.3794L108.671 55.3864L108.671 55.3865L108.643 55.3795C108.757 55.4071 109 55.4709 109.256 55.6185L109.309 55.6502L109.309 55.6503L109.256 55.6186C109.52 55.7709 109.653 55.8354 109.685 55.8488L109.684 55.8487C109.684 55.8486 109.681 55.8472 109.674 55.8447L109.672 55.8439C109.668 55.8422 109.667 55.8416 109.665 55.841C109.689 55.8499 109.834 55.9014 110.116 55.9887L110.116 55.9886C110.101 55.984 110.095 55.9826 110.095 55.9825L110.096 55.9827C110.111 55.9867 110.162 55.9992 110.278 56.0249L110.341 56.0399L110.341 56.04L110.279 56.025C110.406 56.0532 110.621 56.0904 110.944 56.1326L110.945 56.1327C111.037 56.1447 111.073 56.149 111.086 56.1503L111.093 56.1509C111.084 56.15 111.082 56.1499 111.08 56.1497L111.086 56.1503C111.332 56.1733 111.64 56.2046 112.01 56.2461L112.01 56.2461C112.195 56.2668 112.371 56.2892 112.541 56.3128L112.541 56.3128C112.635 56.3258 112.776 56.3454 112.944 56.3748C113.89 56.5406 114.519 57.4261 114.35 58.3527C114.181 59.2794 113.277 59.8962 112.331 59.7304C112.231 59.7128 112.144 59.7005 112.054 59.6881L112.054 59.6881C111.91 59.6682 111.766 59.6498 111.615 59.6329L111.615 59.6329C111.262 59.5933 110.98 59.5646 110.756 59.5437L110.761 59.5442C110.758 59.5439 110.748 59.543 110.737 59.5419L110.743 59.5425C110.661 59.5345 110.565 59.5221 110.485 59.5116L110.485 59.5117C110.113 59.4631 109.784 59.4101 109.513 59.3503L109.451 59.3354L109.451 59.3354L109.514 59.3504C109.402 59.3256 109.275 59.297 109.17 59.2685L109.17 59.2687C109.142 59.2609 109.105 59.2505 109.068 59.2393L109.068 59.2392C108.753 59.1418 108.539 59.0683 108.429 59.0274C108.413 59.0214 108.404 59.0181 108.389 59.0124L108.387 59.0117C108.354 58.9986 108.324 58.9863 108.292 58.9728L108.292 58.9727C108.066 58.8757 107.789 58.7281 107.489 58.5548L107.436 58.5232L107.436 58.5231L107.489 58.5548C107.67 58.6595 107.815 58.6903 107.809 58.6889L107.781 58.6819L107.781 58.6819C106.876 58.4634 106.307 57.5397 106.537 56.6258C106.767 55.7119 107.71 55.1539 108.643 55.3794Z" fill="#94C595"/>
<path d="M76.7417 58.4511C78.4067 59.4732 79.5573 60.2648 80.1858 60.7853L80.1858 60.7853C79.9344 60.5771 79.5318 60.5379 79.2353 60.7659C79.6606 60.439 79.9753 60.2091 80.2097 60.0378C80.3566 59.9305 80.4595 59.8553 80.5435 59.7907C80.6723 59.6917 80.7085 59.6536 80.7253 59.6341L80.7255 59.6338C81.2386 59.0356 81.3995 58.7824 81.4311 58.6557C81.5062 58.3542 81.4853 58.0551 81.3169 57.6586L81.3169 57.6586C81.3826 57.8132 81.4828 57.8767 81.4772 57.8731L81.4773 57.8731C81.4316 57.8431 81.322 57.7958 80.9816 57.6693C80.8519 57.621 80.701 57.565 80.5381 57.4999L80.9333 57.5753C80.5943 57.5761 80.4879 57.6197 80.2412 57.7374C80.3044 57.7072 80.3357 57.6809 80.3284 57.6866C80.2327 57.7613 80.0278 58.005 79.8488 58.227L79.8487 58.227C79.8218 58.2604 79.7862 58.3046 79.7608 58.3347L79.7592 58.3365C79.7658 58.3288 79.7508 58.3464 79.7535 58.3432L79.754 58.3427C79.4492 58.699 79.2298 59.0435 78.9981 59.4095C78.8832 59.591 78.7581 59.7893 78.6239 59.9785C78.2962 60.4407 77.6481 60.5551 77.1764 60.234C76.7047 59.9129 76.588 59.2779 76.9157 58.8157C77.0132 58.6781 77.1096 58.5262 77.2304 58.3354C77.4593 57.9737 77.7485 57.5143 78.1598 57.0335L78.1603 57.0329C78.1543 57.0399 78.1627 57.0301 78.1607 57.0325L78.1591 57.0343C78.1651 57.0273 78.1821 57.0063 78.2168 56.9633L78.2167 56.9634C78.3318 56.8207 78.7046 56.3481 79.0331 56.0919C79.1018 56.0384 79.204 55.9653 79.3309 55.9048C79.7794 55.6909 80.1967 55.539 80.9279 55.5371C81.0633 55.5368 81.1976 55.5624 81.3231 55.6125C81.4591 55.6668 81.5877 55.7146 81.7197 55.7637L81.7196 55.7637C81.9703 55.8569 82.3457 55.9899 82.6348 56.1797L82.6348 56.1797C82.84 56.3144 83.0913 56.5317 83.2373 56.8754L83.2372 56.8754C83.5471 57.6049 83.6484 58.3494 83.4518 59.1388C83.2821 59.8206 82.7409 60.4518 82.318 60.945L82.3182 60.9447C82.1646 61.124 81.9973 61.2637 81.8272 61.3944C81.7186 61.4779 81.5931 61.5695 81.453 61.6718C81.222 61.8405 80.9231 62.059 80.519 62.3696C79.9837 62.781 79.2896 62.7117 78.8431 62.3419L78.8431 62.342C78.3319 61.9186 77.2846 61.1894 75.6374 60.1783C75.1507 59.8795 75.0033 59.2506 75.3082 58.7736C75.6132 58.2967 76.255 58.1523 76.7417 58.4511Z" fill="#94C595"/>
<path d="M79.7842 57.0428C79.6881 57.0484 79.5932 57.0839 79.5154 57.1499C79.388 57.2581 79.3366 57.4222 79.3693 57.575L79.3685 57.5751C79.2803 57.6127 79.1968 57.6645 79.1181 57.7302C79.1067 57.7398 79.0958 57.7498 79.0855 57.7603C78.7976 58.054 78.6361 58.3929 78.6012 58.7769L78.6004 58.7769C78.5655 58.8176 78.5343 58.8669 78.5067 58.9245V58.9247C78.4806 58.979 78.4648 59.0373 78.4593 59.0996C78.4571 59.1232 78.457 59.1469 78.4587 59.1705C78.4615 59.2072 78.4672 59.2448 78.4759 59.2833C78.5271 59.5092 78.7129 59.83 79.0335 60.2457C79.0401 60.2543 79.0471 60.2627 79.0544 60.2709C79.3067 60.5524 79.5148 60.7363 79.6786 60.8224L79.6787 60.8225C79.7838 60.8777 79.8878 60.9054 79.9905 60.9056L79.9972 60.9055C80.0125 60.9053 80.0275 60.9048 80.0422 60.904C80.2331 60.893 80.3746 60.827 80.4667 60.7059L80.4659 60.706C80.4938 60.6916 80.5212 60.6756 80.5481 60.6577C80.558 60.6511 80.5678 60.644 80.5771 60.6367C80.6724 60.5617 80.7455 60.4631 80.7964 60.3408C80.8568 60.1959 80.8854 60.0103 80.8825 59.7838L80.8833 59.7837C80.9239 59.7956 80.9644 59.8004 81.0048 59.7981C81.0895 59.7932 81.1735 59.7573 81.2569 59.6903L81.2577 59.6902C81.2651 59.695 81.2726 59.6995 81.2803 59.7039C81.3874 59.7647 81.4853 59.7926 81.5741 59.7875C81.7065 59.78 81.8184 59.699 81.9099 59.5446L81.9099 59.5445C81.9835 59.4202 81.9921 59.2837 81.9358 59.1352L81.935 59.1353C82.0058 59.1059 82.0698 59.0586 82.1194 58.9941C82.2384 58.8394 82.2636 58.6558 82.1953 58.4433L82.1953 58.4434C82.1177 58.2022 81.8612 57.8487 81.4259 57.3829L81.4257 57.3829C81.3646 57.3146 81.31 57.2607 81.262 57.2212V57.2213C81.1401 57.1208 81.0133 57.0744 80.8815 57.0819C80.8584 57.0832 80.8352 57.0862 80.8118 57.0908L80.8118 57.0909C80.8009 57.093 80.7903 57.0953 80.7799 57.0978V57.0979C80.7749 57.0952 80.7699 57.0927 80.7649 57.0902L80.7649 57.0903C80.6601 57.039 80.5652 57.0158 80.4803 57.0207C80.3581 57.0277 80.2565 57.0927 80.1755 57.2157V57.2158C80.157 57.1977 80.1397 57.181 80.1237 57.1659C80.0298 57.0772 79.906 57.0359 79.7842 57.0428Z" fill="#94C595"/>
<path d="M77.8435 60.7468L77.8437 60.7465C78.3411 60.0543 79.2574 60.9171 78.7955 60.5992L78.796 60.5996C78.8094 60.6088 78.8215 60.6176 78.8324 60.6258L78.8325 60.6259C78.9228 60.6937 79.0764 60.8296 79.2664 61.0028L79.226 60.9688L79.4874 61.1714C79.5329 61.2067 79.5734 61.2476 79.6081 61.2931L79.6073 61.2921C79.5634 61.2347 79.5093 61.189 79.5382 61.2155L79.5385 61.2157C79.6266 61.2964 80.5085 62.0438 81.1037 62.4503L80.2973 63.4883C79.2396 62.6282 78.822 62.338 78.8388 62.3497C78.8196 62.3363 78.8011 62.322 78.7835 62.3066L78.0335 61.6559C77.758 61.4169 77.7324 61.0043 77.9764 60.7343C78.2203 60.4644 78.6414 60.4393 78.9169 60.6783L79.6669 61.3291L79.6116 61.286C79.6284 61.2978 80.0725 61.6087 81.1483 62.4836C81.4231 62.707 81.4692 63.103 81.2529 63.3814C81.0366 63.6598 80.6348 63.7216 80.3418 63.5216C79.68 63.0696 78.7483 62.2792 78.6288 62.1698L78.6291 62.17C78.6469 62.1864 78.5864 62.1346 78.5408 62.0748L78.6607 62.1955L78.3993 61.9929C78.3854 61.9821 78.3719 61.9708 78.3589 61.9589C78.1552 61.7733 78.0515 61.6844 78.0222 61.6624L78.0223 61.6625C78.0222 61.6624 78.0243 61.6641 78.029 61.6673L78.0296 61.6677C77.5391 61.3301 78.4394 62.1855 78.9333 61.4982C78.7218 61.7928 78.3063 61.8638 78.0053 61.6564C77.7042 61.449 77.6318 61.0418 77.8435 60.7468Z" fill="#94C595"/>
</svg>
