<svg width="84" height="82" viewBox="0 0 84 82" fill="none" xmlns="http://www.w3.org/2000/svg">
<path d="M9.67922 41.8579L40.4958 6.91554C41.0759 6.25781 42.0935 6.18262 42.7688 6.74762L78.6408 36.7616C79.3161 37.3265 79.3933 38.3177 78.8132 38.9755L47.9968 73.918C47.7182 74.2339 47.3223 74.429 46.896 74.4605C46.4697 74.492 46.0481 74.3573 45.7238 74.0859L9.8516 44.0718C9.52732 43.8005 9.32698 43.4148 9.29466 42.9997C9.26233 42.5845 9.40065 42.1737 9.67922 41.8579ZM12.1246 43.9039L11.9522 41.69L47.8244 71.7041L45.5514 71.872L76.3679 36.9295L76.5402 39.1434L40.6682 9.12948L42.9412 8.96155L12.1246 43.9039Z" fill="black"/>
<path d="M59.2817 21.5765L59.2817 21.5764C59.3024 21.6449 59.305 21.7195 59.2894 21.8002L59.2894 21.8002C59.1913 22.3105 57.8055 23.998 55.132 26.8627L55.1558 26.8341L48.8536 35.409C48.8112 35.4666 48.7502 35.5087 48.6804 35.5285L48.6805 35.5285C48.6948 35.5245 48.7059 35.5202 48.7139 35.5158L48.714 35.5157C48.1554 35.8263 44.057 40.513 36.4189 49.576L36.4317 49.5598L30.3823 57.7616C30.2776 57.9036 30.0746 57.936 29.9288 57.834C29.7831 57.732 29.7498 57.5343 29.8545 57.3923L35.9039 49.1905C35.908 49.185 35.9122 49.1796 35.9167 49.1744C43.6055 40.0513 47.7638 35.3152 48.3918 34.966L48.3919 34.966C48.4282 34.9458 48.4636 34.9308 48.4982 34.921L48.3251 35.0405L54.6274 26.4657C54.6347 26.4556 54.6427 26.4461 54.6512 26.437C57.242 23.6608 58.5751 22.0763 58.6507 21.6836L58.6507 21.6836C58.6471 21.7025 58.6496 21.7264 58.6583 21.7552C58.6077 21.5874 58.7062 21.4115 58.8783 21.3622C59.0505 21.3129 59.2311 21.4088 59.2817 21.5765Z" fill="black"/>
<path d="M25.8299 26.1118C27.1626 27.3866 30.5803 29.9553 36.0831 33.8179C36.0909 33.8235 36.0986 33.8294 36.1059 33.8356C46.4826 42.5968 52.5437 47.493 54.2892 48.5242C54.3024 48.5321 54.3151 48.5408 54.3271 48.5504C55.7289 49.6737 57.5107 51.3649 59.6726 53.6239L59.6418 53.5957L62.3389 55.7645C62.4773 55.8758 62.4969 56.0753 62.3827 56.2101C62.2684 56.3449 62.0636 56.3639 61.9252 56.2527L59.2281 54.0838C59.2172 54.075 59.2069 54.0656 59.1972 54.0556C57.0549 51.8169 55.2939 50.1448 53.9142 49.0392L53.9522 49.0654C52.1753 48.0157 46.0847 43.0985 35.6803 34.3138L35.7031 34.3314C30.1736 30.45 26.7308 27.8607 25.3746 26.5634C25.2466 26.4409 25.2447 26.2406 25.3704 26.1158C25.4962 25.9911 25.7019 25.9893 25.8299 26.1118Z" fill="black"/>
<path d="M21.8772 32.4487C21.9819 32.768 22.545 33.3358 23.5664 34.1519L23.5547 34.143L23.7181 34.2619L23.7038 34.252C25.5113 35.4242 27.0065 36.4408 28.1893 37.3016L28.1943 37.3053L43.7604 49.0961L43.7451 49.0852C52.2566 54.7863 57.0333 58.1808 58.0751 59.2686C58.1975 59.3964 58.1904 59.5967 58.0592 59.7159C57.9279 59.8351 57.7223 59.8282 57.5999 59.7004C56.5904 58.6463 51.8494 55.2817 43.3769 49.6067C43.3717 49.6032 43.3665 49.5996 43.3615 49.5958L27.7954 37.8049L27.8003 37.8086C26.6269 36.9546 25.1413 35.9447 23.3436 34.7789C23.3388 34.7757 23.334 34.7724 23.3293 34.769L23.1659 34.6502C23.1619 34.6473 23.1581 34.6443 23.1542 34.6413C22.0338 33.7461 21.4018 33.0794 21.2582 32.6412C21.2036 32.4747 21.2979 32.2966 21.4688 32.2435C21.6398 32.1903 21.8226 32.2822 21.8772 32.4487Z" fill="black"/>
<path d="M16.5492 37.1182C17.4911 38.1689 20.7014 40.4092 26.1799 43.8391C26.1943 43.848 26.2079 43.8582 26.2207 43.8692L30.4239 47.5257L30.4081 47.5127L49.2268 61.8992C49.2436 61.9121 49.2591 61.9264 49.2729 61.9422C50.1953 62.9903 51.506 64.1212 53.2049 65.3349C53.3496 65.4383 53.3809 65.6363 53.2747 65.7773C53.1686 65.9182 52.9653 65.9487 52.8206 65.8453C51.0814 64.6028 49.7344 63.4391 48.7796 62.3542L48.8256 62.3972L30.0068 48.0107C30.0014 48.0065 29.9961 48.0022 29.991 47.9978L25.7878 44.3413L25.8285 44.3715C20.2984 40.9093 17.0421 38.6303 16.0597 37.5345C15.9416 37.4029 15.9555 37.203 16.0907 37.088C16.2259 36.973 16.4311 36.9865 16.5492 37.1182Z" fill="black"/>
<path d="M31.0339 21.7051L31.0339 21.7051C31.0727 21.6383 31.0812 21.5789 31.0592 21.5269C31.1518 21.7464 31.8467 22.3745 33.1438 23.4111L33.13 23.4006L44.1914 31.3092C44.1997 31.3151 44.2076 31.3214 44.2153 31.328C49.8766 36.2398 56.1964 41.0861 63.1745 45.8669C63.1876 45.8759 63.2001 45.8858 63.2117 45.8966L66.2891 48.7514C66.419 48.8719 66.4241 49.0723 66.3003 49.1988C66.1765 49.3254 65.9709 49.3303 65.8409 49.2097L62.7635 46.355L62.8007 46.3846C55.8022 41.5899 49.4629 36.7285 43.783 31.8006L43.8069 31.8194L32.7455 23.9109C32.7408 23.9075 32.7362 23.9041 32.7316 23.9004C31.35 22.7963 30.5922 22.0853 30.4581 21.7674C30.4 21.6297 30.4035 21.505 30.4684 21.3933C30.5568 21.2412 30.7551 21.1877 30.9113 21.2738C31.0674 21.3599 31.1223 21.553 31.0339 21.7051Z" fill="black"/>
<path d="M36.532 16.1563L36.532 16.1562C36.5915 16.0104 36.5026 15.9041 36.5279 15.9447C36.6206 16.0931 37.2256 16.5782 37.8175 17.0456C38.035 17.2173 38.2395 17.3788 38.3825 17.4985L38.387 17.5023L44.2773 22.6189C44.2856 22.6261 44.2935 22.6337 44.301 22.6417C44.5421 22.8988 45.2277 23.3803 46.3839 24.1879C47.55 25.0024 49.1502 26.1202 51.1269 27.6093C51.5536 27.9307 52.4352 28.6746 53.7777 29.8068C56.3077 31.9408 60.5097 35.4848 66.5165 40.3024C66.5216 40.3065 66.5265 40.3107 66.5314 40.3151L71.7659 45.0643C71.8972 45.1834 71.9045 45.3837 71.7822 45.5116C71.6598 45.6395 71.4542 45.6466 71.3229 45.5274L66.0885 40.7783L66.1034 40.791C60.0889 35.9673 55.885 32.4214 53.3523 30.2853C51.9996 29.1444 51.1375 28.4174 50.7294 28.11C48.7621 26.6279 47.1708 25.5165 46.0052 24.7022C44.8918 23.9246 44.1218 23.3892 43.8212 23.0685L43.8448 23.0913L37.9545 17.9747L37.9589 17.9785C37.8254 17.8667 37.6282 17.7109 37.4083 17.5372C36.8925 17.13 36.1421 16.5449 35.9728 16.2737C35.9598 16.2529 35.856 16.0991 35.9281 15.9225C35.9944 15.76 36.1833 15.6807 36.3501 15.7453C36.5168 15.8098 36.5983 15.9938 36.532 16.1563Z" fill="black"/>
<path d="M53.1179 19.1319L53.0257 19.1089C52.8519 19.0656 52.747 18.8932 52.7915 18.7238C52.8359 18.5545 53.0129 18.4524 53.1868 18.4957L53.279 18.5186C53.4528 18.5619 53.5577 18.7343 53.5132 18.9037C53.4687 19.073 53.2917 19.1752 53.1179 19.1319Z" fill="black"/>
<path d="M34.5192 61.3662H34.5191C34.5008 61.3662 34.4864 61.3678 34.4759 61.3712H34.4758C35.0183 61.1968 37.6062 58.4942 42.2397 53.2633L42.22 53.2879C44.0203 50.7968 45.9942 48.3198 48.1417 45.8568L48.1408 45.8578L64.8659 26.518C64.9815 26.3843 65.1865 26.3672 65.3237 26.4798C65.461 26.5924 65.4785 26.7921 65.3629 26.9258L48.6378 46.2656L48.637 46.2666C46.5022 48.715 44.5403 51.1768 42.7514 53.6522C42.7452 53.6607 42.7387 53.6689 42.7317 53.6768C38.0199 58.9961 35.3358 61.7613 34.6795 61.9723H34.6794C34.623 61.9904 34.5687 61.9994 34.5165 61.9992C34.337 61.9985 34.1921 61.8562 34.1929 61.6814C34.1936 61.5066 34.3397 61.3655 34.5192 61.3662Z" fill="black"/>
<path d="M41.5458 65.9294L41.5461 65.9293C41.5141 65.9395 41.4884 65.9522 41.4689 65.9673C41.6891 65.7966 43.2946 64.0329 46.2854 60.6761L46.28 60.6824C47.3723 59.3904 48.6042 57.7951 49.9757 55.8967C49.9815 55.8886 49.9877 55.8808 49.9943 55.8732L58.1414 46.5842L58.1295 46.5986C59.2615 45.1435 60.4052 43.5302 61.5607 41.7587C61.5666 41.7496 61.5731 41.7407 61.5801 41.7322L69.7888 31.6224C69.9001 31.4853 70.1045 31.462 70.2452 31.5705C70.386 31.6789 70.4099 31.8779 70.2985 32.015L62.0898 42.1248L62.1092 42.0982C60.9442 43.8841 59.7903 45.5117 58.6474 46.9809C58.6436 46.9858 58.6396 46.9906 58.6355 46.9953L50.4884 56.2843L50.5071 56.2609C49.1261 58.1726 47.8842 59.7805 46.7816 61.0847L46.7762 61.091C43.7593 64.4771 42.125 66.2676 41.8735 66.4626L41.8735 66.4626C41.8321 66.4947 41.7904 66.5175 41.7484 66.5308C41.5783 66.5853 41.3946 66.495 41.3386 66.3289C41.2826 66.1629 41.3753 65.984 41.5458 65.9294Z" fill="black"/>
<path d="M52.3552 18.3963L46.8469 25.5274C46.8422 25.5333 46.8374 25.5392 46.8323 25.5448L40.7177 32.3899L40.7368 32.3665C38.3506 35.6113 36.6599 37.8062 35.6645 38.9513L35.6691 38.946C32.0485 43.3023 27.7624 48.0365 22.8108 53.1485C22.6876 53.2756 22.482 53.2815 22.3515 53.1615C22.2209 53.0416 22.215 52.8413 22.3381 52.7142C27.2784 47.6139 31.5536 42.8918 35.164 38.5477L35.1685 38.5424C36.1525 37.4104 37.8324 35.2289 40.2085 31.9979C40.2144 31.9898 40.2208 31.982 40.2275 31.9745L46.3421 25.1293L46.3276 25.1468L51.8359 18.0157C51.9438 17.8761 52.1475 17.848 52.2909 17.9531C52.4343 18.0582 52.463 18.2566 52.3552 18.3963Z" fill="black"/>
<path d="M48.2037 12.433C48.1719 12.7653 47.8767 13.2523 47.3182 13.894L47.3205 13.8914L29.5207 34.8026C29.5179 34.8059 29.515 34.8091 29.5121 34.8123L17.4088 47.9189C17.2888 48.0489 17.0833 48.0594 16.9499 47.9426C16.8165 47.8257 16.8056 47.6256 16.9256 47.4956L29.029 34.389L29.0204 34.3986L46.8202 13.4874L46.8225 13.4847C47.2928 12.9444 47.5375 12.5742 47.5566 12.3743C47.5733 12.2003 47.7316 12.0723 47.9103 12.0885C48.0889 12.1047 48.2203 12.2589 48.2037 12.433Z" fill="black"/>
<path d="M43.0208 33.6893V33.6893C43.0523 33.8093 43.119 33.8765 43.2208 33.891C43.1557 33.8817 42.9879 33.8971 42.7176 33.9369L42.7116 33.9377C42.5479 33.9588 42.4125 33.9953 42.3054 34.0473L42.3206 34.0394C41.9563 34.2404 41.7441 34.3715 41.6842 34.4325L41.684 34.4327C41.6852 34.4315 41.6868 34.4296 41.6888 34.4272C41.683 34.4343 41.6769 34.441 41.6705 34.4476C41.5634 34.5572 41.4685 34.7016 41.3858 34.8806L41.3921 34.8658C41.2587 35.1988 41.2563 35.5194 41.3851 35.8277C41.3884 35.8355 41.3913 35.8434 41.3939 35.8514C41.4506 36.0256 41.4956 36.1333 41.529 36.1743L41.5289 36.1742C41.5279 36.1729 41.5263 36.1712 41.5241 36.1691L41.527 36.172C41.7215 36.3672 41.8778 36.4998 41.996 36.5696L41.9541 36.5487C42.2914 36.6877 42.4987 36.762 42.576 36.7715H42.5759C42.5613 36.7697 42.5428 36.7708 42.5205 36.7748C42.5525 36.769 42.5852 36.768 42.6175 36.7717C42.9501 36.8094 43.1567 36.8136 43.2373 36.7844L43.2373 36.7844C43.2317 36.7864 43.2247 36.7903 43.2163 36.796C43.2401 36.7799 43.266 36.767 43.2934 36.7575C43.7921 36.5859 44.0825 36.4686 44.1646 36.4056L44.1645 36.4057C44.1586 36.4103 44.1516 36.4173 44.1437 36.4268C44.1599 36.4074 44.1785 36.3899 44.199 36.3748C44.2757 36.318 44.3723 36.1611 44.4889 35.904L44.4728 35.9483C44.6626 35.273 44.641 34.7821 44.4079 34.4756C44.4027 34.4687 44.3978 34.4617 44.3932 34.4545C44.2878 34.2897 44.1577 34.1588 44.0028 34.0618L44.0332 34.0787C43.8827 34.0054 43.7692 33.9608 43.6927 33.9448C43.6635 33.9387 43.6354 33.9287 43.609 33.9151L43.609 33.9152C43.6321 33.9271 43.6525 33.9346 43.6703 33.9379L43.6703 33.9378C43.6377 33.9319 43.5562 33.9275 43.4257 33.9245C43.3895 33.9237 43.3537 33.917 43.3198 33.9047L43.3076 33.9L43.3072 33.8998L43.3195 33.9046C43.2548 33.8811 43.2124 33.8672 43.1923 33.8629L43.1923 33.8629C43.2813 33.882 43.3653 33.8556 43.4442 33.7837C43.3131 33.903 43.1075 33.8962 42.985 33.7685C42.8625 33.6408 42.8695 33.4405 43.0007 33.3212C43.0881 33.2416 43.1986 33.2161 43.332 33.2448L43.332 33.2447C43.3816 33.2554 43.453 33.2776 43.5462 33.3114L43.5586 33.3161L43.5589 33.3163L43.4408 33.2918C43.6061 33.2955 43.7222 33.3034 43.789 33.3155L43.789 33.3155C43.8362 33.324 43.8774 33.3374 43.9128 33.3556L43.829 33.326C43.9592 33.3532 44.1241 33.4153 44.3237 33.5125C44.3342 33.5176 44.3444 33.5232 44.3542 33.5294C44.5911 33.6777 44.7879 33.8746 44.9448 34.1199L44.9301 34.0988C45.2885 34.5702 45.345 35.2424 45.0995 36.1155C45.0953 36.1306 45.0899 36.1454 45.0834 36.1598C44.9216 36.5165 44.7578 36.7562 44.592 36.8788L44.6473 36.8268C44.6251 36.8533 44.5983 36.8786 44.5668 36.9028L44.5667 36.9028C44.4284 37.0089 44.0761 37.1594 43.5099 37.3543L43.587 37.3159C43.5507 37.3404 43.5098 37.361 43.4643 37.3775L43.4643 37.3775C43.2859 37.4422 42.9786 37.4499 42.5423 37.4004L42.6392 37.3972C42.5952 37.4051 42.5469 37.4059 42.4945 37.3994L42.4944 37.3994C42.3578 37.3826 42.0933 37.2933 41.701 37.1317C41.6865 37.1257 41.6724 37.1187 41.659 37.1108C41.4932 37.0129 41.2938 36.8469 41.0606 36.6127L41.0636 36.6157C41.0486 36.601 41.034 36.5849 41.0198 36.5676L41.0197 36.5675C40.9369 36.4657 40.8551 36.2907 40.7744 36.0425L40.7832 36.0663C40.5893 35.6022 40.5905 35.1253 40.7868 34.6356C40.7888 34.6307 40.791 34.6256 40.7932 34.6208C40.9063 34.3762 41.0418 34.1731 41.1997 34.0114L41.1814 34.0318C41.1915 34.0194 41.2027 34.0071 41.2148 33.9948L41.2146 33.995C41.3186 33.8891 41.5805 33.7203 42.0003 33.4887C42.0053 33.4859 42.0103 33.4833 42.0155 33.4808C42.1874 33.3973 42.3911 33.3405 42.6265 33.3102L42.6204 33.311C42.9542 33.2618 43.1855 33.2464 43.3143 33.2646L43.3143 33.2646C43.4983 33.2906 43.6104 33.38 43.6504 33.5326C43.6948 33.7019 43.5899 33.8743 43.416 33.9175C43.2422 33.9608 43.0652 33.8586 43.0208 33.6893Z" fill="black"/>
<path d="M44.7798 44.1864C44.3888 43.9366 43.8029 44.0362 43.0222 44.4852C42.9963 44.5002 42.9683 44.5115 42.9391 44.5189L42.9392 44.5189C42.9696 44.5112 42.9926 44.5009 43.0082 44.4881C42.9274 44.5544 42.7743 44.7997 42.5488 45.2239L42.5729 45.1645C42.5096 45.3825 42.5062 45.6077 42.5626 45.8401L42.5597 45.8288C42.7577 46.5288 43.1389 46.9802 43.7031 47.183L43.6444 47.1678C44.078 47.2387 44.411 47.2431 44.6434 47.1809L44.6481 47.1797C44.9454 47.1048 45.1947 46.9482 45.3959 46.7101L45.3755 46.7369C45.5432 46.4891 45.6546 46.2817 45.7094 46.1146L45.6968 46.1697C45.7526 45.7564 45.7752 45.5091 45.7645 45.4278L45.7645 45.4278C45.7694 45.4647 45.7885 45.5028 45.8218 45.5421C45.8004 45.5169 45.7831 45.4885 45.7706 45.4581C45.4979 44.795 45.176 44.399 44.805 44.27C44.636 44.2112 44.5479 44.0301 44.6082 43.8655C44.6686 43.7009 44.8545 43.6151 45.0235 43.6739C45.5784 43.8668 46.0285 44.3831 46.3738 45.2228L46.3226 45.1388C46.3693 45.1937 46.3981 45.2634 46.4092 45.3478C46.4269 45.4833 46.4042 45.7848 46.341 46.2523C46.3385 46.271 46.3343 46.2894 46.3284 46.3074C46.2554 46.5297 46.1186 46.789 45.918 47.0853C45.9117 47.0946 45.9049 47.1036 45.8977 47.1122C45.6069 47.4564 45.2447 47.6831 44.8109 47.7925L44.8156 47.7912C44.491 47.8781 44.0647 47.8784 43.5368 47.792C43.5168 47.7887 43.4971 47.7837 43.4781 47.7768C42.7053 47.499 42.1903 46.9058 41.9332 45.997C41.9321 45.9933 41.9311 45.9895 41.9302 45.9857C41.8479 45.6468 41.8537 45.3156 41.9476 44.9923C41.9535 44.9717 41.9616 44.9518 41.9717 44.9328C42.2369 44.4341 42.4427 44.1246 42.5892 44.0042C42.6486 43.9555 42.7105 43.9229 42.7749 43.9065L42.6918 43.9402C43.7048 43.3576 44.5196 43.2633 45.1361 43.6571C45.2862 43.753 45.3281 43.9491 45.2297 44.0953C45.1313 44.2415 44.9298 44.2822 44.7798 44.1864Z" fill="black"/>
<path d="M38.4009 39.4816C38.4118 39.5274 38.4307 39.5595 38.4576 39.5779C38.4043 39.5415 38.2652 39.5078 38.0404 39.4768L38.1217 39.478H38.1216L38.0745 39.4797C37.9446 39.4752 37.748 39.5234 37.4848 39.6242L37.4852 39.6241C37.2911 39.6987 37.1003 39.8415 36.9129 40.0524C36.8974 40.0699 36.88 40.0856 36.8609 40.0994L36.861 40.0993C36.8746 40.0895 36.8847 40.0806 36.8912 40.0726L36.8912 40.0727C36.8506 40.122 36.7761 40.2708 36.6679 40.519L36.6849 40.4686C36.5826 40.887 36.6117 41.2763 36.772 41.6364L36.7592 41.6108C36.9903 42.0237 37.2697 42.2892 37.5975 42.4074L37.5282 42.3905C38.023 42.4557 38.4025 42.4063 38.6667 42.2425L38.6711 42.2399C39.05 42.0132 39.2777 41.7175 39.354 41.3527L39.351 41.3697C39.435 40.8154 39.3971 40.437 39.2374 40.2345C39.2326 40.2284 39.228 40.2222 39.2237 40.2157C39.1465 40.1016 39.058 40.0079 38.9582 39.9349L39.0046 39.9633C38.6018 39.7614 38.3578 39.6512 38.2726 39.6329L38.2724 39.6329C38.2729 39.633 38.2733 39.6331 38.2736 39.6331C38.0974 39.5999 37.9822 39.4339 38.0163 39.2623C38.0504 39.0907 38.2209 38.9785 38.3971 39.0117C38.402 39.0126 38.4071 39.0137 38.4124 39.0148L38.4122 39.0148C38.5525 39.0448 38.8491 39.1734 39.302 39.4005C39.3183 39.4087 39.3338 39.4181 39.3485 39.4289C39.5085 39.5459 39.6478 39.6922 39.7664 39.8676L39.7527 39.8489C40.0243 40.1932 40.1047 40.7309 39.9938 41.4622C39.993 41.4678 39.9919 41.4735 39.9907 41.4791C39.8769 42.0233 39.5504 42.4567 39.0112 42.7792L39.0156 42.7766C38.6177 43.0231 38.093 43.1035 37.4412 43.0178C37.4176 43.0147 37.3944 43.009 37.372 43.001C36.8919 42.8279 36.4974 42.4655 36.1886 41.9138C36.184 41.9055 36.1797 41.8969 36.1758 41.8882C35.9581 41.3991 35.9171 40.8771 36.0527 40.322C36.0569 40.3047 36.0627 40.2879 36.0698 40.2716C36.2014 39.9698 36.3062 39.7715 36.3841 39.6768L36.3841 39.6769C36.4124 39.6424 36.4421 39.6139 36.4734 39.5913L36.4215 39.6382C36.6786 39.3489 36.9536 39.148 37.2466 39.0353L37.247 39.0352C37.594 38.9022 37.8775 38.8396 38.0975 38.8472L38.0503 38.8489H38.0504C38.1089 38.8476 38.1204 38.8485 38.1317 38.8501C38.4591 38.8953 38.6919 38.965 38.8302 39.0593C38.9395 39.1338 39.0075 39.2271 39.0341 39.3391C39.0745 39.5094 38.9655 39.6793 38.7906 39.7187C38.6158 39.758 38.4413 39.6519 38.4009 39.4816Z" fill="black"/>
<path d="M37.9634 38.8365C37.8236 38.8515 37.6896 38.9043 37.5615 38.9948C37.4409 39.08 37.3982 39.2308 37.4473 39.3605L37.4458 39.3607C37.41 39.403 37.3817 39.4547 37.3608 39.5159L37.3607 39.5159C37.3577 39.5249 37.3548 39.5342 37.352 39.5439L37.352 39.544C37.326 39.543 37.3003 39.5438 37.2748 39.5466C37.2139 39.5531 37.1541 39.5703 37.0954 39.5982C37.0767 39.6072 37.0589 39.6178 37.0422 39.6301C36.9323 39.7109 36.87 39.8207 36.8551 39.9595L36.8536 39.9598C36.8263 40.0184 36.8099 40.0865 36.8041 40.164L36.8026 40.1642C36.7712 40.178 36.7401 40.1973 36.7092 40.2222L36.7088 40.2225C36.6138 40.2993 36.5741 40.4009 36.5897 40.5276L36.5897 40.5276C36.5915 40.5431 36.5944 40.5588 36.5984 40.5748L36.5969 40.575C36.5489 40.5812 36.5024 40.5978 36.4609 40.6245C36.3728 40.6812 36.3185 40.776 36.3152 40.8788C36.3135 40.9304 36.3238 40.9851 36.3461 41.0429L36.3461 41.0429C36.3468 41.0446 36.3474 41.0464 36.3481 41.0481L36.3466 41.0484C36.3257 41.1308 36.3146 41.2226 36.3135 41.324C36.3134 41.3332 36.3137 41.3424 36.3144 41.3516C36.3493 41.7973 36.509 42.136 36.7933 42.3676C36.8035 42.376 36.8144 42.3837 36.8256 42.3908C36.928 42.4551 37.0234 42.4979 37.112 42.5192L37.112 42.5192C37.1706 42.5333 37.2275 42.5384 37.2827 42.5348L37.2906 42.5342C37.2957 42.5337 37.3008 42.5332 37.3059 42.5327C37.3587 42.527 37.4057 42.517 37.4471 42.5026L37.4486 42.5025C37.573 42.6312 37.7277 42.7193 37.9125 42.7668C37.9258 42.7702 37.9393 42.7728 37.953 42.7746C38.0045 42.7812 38.0542 42.7827 38.1023 42.7791L38.1022 42.7792C38.1101 42.7785 38.118 42.7778 38.1258 42.7769C38.302 42.758 38.4396 42.6771 38.5385 42.5342L38.5369 42.5345C38.5717 42.5244 38.6061 42.5108 38.6404 42.4937C38.6675 42.4801 38.6925 42.463 38.7147 42.4426C38.7617 42.3997 38.8034 42.3559 38.84 42.3112L38.8385 42.3115C38.8516 42.307 38.8649 42.302 38.8783 42.2965L38.8784 42.2965C38.9002 42.2874 38.9232 42.2764 38.9472 42.2636V42.2637C39.2489 42.1041 39.4524 41.9846 39.5578 41.9052C39.5609 41.9028 39.5642 41.9003 39.5672 41.8978C39.6739 41.8111 39.7517 41.7204 39.8005 41.6258L39.8005 41.6258C39.8375 41.5539 39.8581 41.4804 39.8624 41.4052L39.8622 41.4053C39.8816 41.1441 39.8297 40.9015 39.7063 40.6773L39.7048 40.6775C39.8989 40.317 39.8452 39.9336 39.5436 39.5274C39.5281 39.5065 39.51 39.4875 39.4897 39.4709C39.2089 39.2404 38.8482 39.0524 38.4075 38.907L38.4066 38.9072C38.2528 38.8448 38.1051 38.8213 37.9634 38.8365Z" fill="black"/>
<path d="M49.0718 38.63C49.0082 38.7723 49.0393 38.8705 49.1651 38.9246L49.166 38.925C49.1652 38.9247 49.1654 38.9247 49.1665 38.9252L49.1651 38.9246C49.1285 38.9091 49.0484 38.897 48.9248 38.8884L48.9523 38.8892C48.4193 38.8962 48.0733 38.9503 47.9142 39.0518L47.9663 39.0105C47.5751 39.3925 47.4133 39.8024 47.4808 40.2401L47.4737 40.2068C47.6331 40.7976 47.971 41.2193 48.4872 41.4719L48.471 41.4645C48.6122 41.5243 48.8295 41.5402 49.1228 41.512L49.1084 41.5137C49.4334 41.4682 49.6377 41.3943 49.7212 41.2922C49.74 41.2691 49.7621 41.2487 49.7868 41.2315C50.1699 40.9655 50.3651 40.5199 50.3721 39.8945C50.3723 39.8798 50.3735 39.8653 50.3757 39.8508C50.4 39.694 50.3278 39.4564 50.159 39.138L50.1676 39.1531C50.0625 38.9788 49.9309 38.8602 49.7728 38.7975C49.7551 38.7904 49.738 38.7819 49.7219 38.772C49.5076 38.6402 49.1932 38.5653 48.7786 38.5472L48.8303 38.5454C48.5528 38.5765 48.3831 38.606 48.3209 38.6339L48.3211 38.6339C48.3241 38.6325 48.3279 38.6304 48.3328 38.6273C48.2468 38.6814 48.1397 38.6929 48.0437 38.6583L48.0436 38.6582C48.1267 38.6882 48.1995 38.687 48.2621 38.6546H48.2621C48.2156 38.6787 48.1049 38.7624 47.9301 38.9058L47.9442 38.8936C47.7221 39.0982 47.5659 39.3943 47.4754 39.782L47.4813 39.6747C47.509 39.9027 47.5466 40.0412 47.5941 40.0902C47.5757 40.0712 47.5509 40.0635 47.5197 40.0671L47.5195 40.0671C47.5188 40.0672 47.5182 40.0673 47.5176 40.0674C47.6945 40.0378 47.8625 40.1534 47.8929 40.3257C47.9232 40.498 47.8045 40.6616 47.6276 40.6912C47.6171 40.693 47.6066 40.6944 47.5962 40.6956L47.596 40.6957C47.411 40.717 47.2529 40.6601 47.1218 40.5249C46.9758 40.3744 46.8805 40.1158 46.8359 39.7491C46.8316 39.7133 46.8335 39.677 46.8417 39.6417C46.9613 39.1291 47.18 38.7264 47.4976 38.4338C47.5021 38.4296 47.5068 38.4255 47.5116 38.4216C47.7216 38.2494 47.8701 38.1408 47.9571 38.0957H47.9571C48.0661 38.0393 48.1702 38.0289 48.2693 38.0647L47.9801 38.0957C48.0008 38.0826 48.0236 38.0705 48.0484 38.0594L48.0485 38.0593C48.1737 38.003 48.4096 37.9554 48.7561 37.9166C48.7733 37.9147 48.7905 37.9141 48.8078 37.9149C49.3371 37.938 49.7574 38.0453 50.0688 38.2368L50.0179 38.2113C50.3119 38.3279 50.5486 38.535 50.728 38.8326C50.731 38.8375 50.7338 38.8426 50.7365 38.8477C50.9695 39.2875 51.0635 39.6533 51.0183 39.9451L51.0219 39.9014C51.0124 40.7413 50.7265 41.3565 50.164 41.747L50.2296 41.6863C50.039 41.9196 49.6961 42.0709 49.2009 42.1402C49.1961 42.1409 49.1914 42.1415 49.1865 42.1419C48.7812 42.1808 48.4562 42.1485 48.2118 42.0449C48.2063 42.0426 48.2009 42.0401 48.1955 42.0375C47.5045 41.6994 47.0543 41.1427 46.8452 40.3676C46.8422 40.3566 46.8399 40.3455 46.8382 40.3342C46.7382 39.6862 46.9609 39.096 47.5062 38.5635C47.522 38.548 47.5395 38.5342 47.5583 38.5222C47.8228 38.3535 48.2846 38.2649 48.9436 38.2563C48.9527 38.2562 48.9619 38.2564 48.9711 38.2571C49.1688 38.2708 49.3199 38.2999 49.4246 38.3443L49.4231 38.3437C49.4253 38.3446 49.4264 38.3451 49.4265 38.3451L49.4274 38.3455C49.6961 38.461 49.7761 38.64 49.6676 38.8827C49.596 39.043 49.4045 39.1163 49.24 39.0465C49.0755 38.9768 49.0002 38.7903 49.0718 38.63Z" fill="black"/>
<path d="M48.4087 38.3142C48.2502 38.3312 48.1596 38.4148 48.1368 38.5648L48.1352 38.565C48.1202 38.6086 48.1149 38.6538 48.1192 38.7005L48.1192 38.7005C48.1149 38.6984 48.1106 38.6963 48.1063 38.6942L48.1062 38.6943C48.0827 38.6827 48.0597 38.6727 48.0371 38.6644L48.0371 38.6643C47.9443 38.6299 47.8613 38.6166 47.7882 38.6245C47.6664 38.6375 47.5719 38.7092 47.5046 38.8396L47.5045 38.8396C47.4953 38.8575 47.4875 38.876 47.4809 38.8954C47.4581 38.9625 47.4591 39.0351 47.4836 39.1017C47.4848 39.1049 47.486 39.1081 47.4872 39.1114L47.4856 39.1116C47.4844 39.1143 47.4833 39.1171 47.482 39.1201L47.4819 39.1205C47.4461 39.2098 47.4282 39.3212 47.4283 39.4545L47.4267 39.4547C47.2214 39.4841 47.1212 39.6119 47.1261 39.8383V39.8384C47.1264 39.85 47.1271 39.8617 47.1283 39.8735C47.1306 39.897 47.1357 39.9202 47.142 39.9387L47.1421 39.9389L47.1434 39.9428C47.2416 40.2311 47.3714 40.5617 47.5327 40.9345L47.535 40.9398C47.6333 41.156 47.7128 41.3027 47.7734 41.3799L47.7734 41.38C47.8694 41.5023 47.9776 41.557 48.098 41.5441C48.1153 41.5422 48.133 41.5389 48.1509 41.5342L48.1525 41.5342C48.1578 41.5337 48.1631 41.5332 48.1684 41.5327C48.1714 41.5323 48.1745 41.532 48.1775 41.5316L48.1791 41.5315C48.2135 41.5531 48.2471 41.5715 48.2798 41.5867L48.2782 41.5869C48.4495 41.7489 48.6265 41.8323 48.8091 41.8374L48.8093 41.8373C48.819 41.8376 48.8285 41.8377 48.8377 41.8375C48.8479 41.8374 48.8579 41.8368 48.868 41.8357C48.8768 41.8347 48.8856 41.8334 48.8943 41.8318C48.9834 41.8149 49.0587 41.7765 49.1203 41.7165L49.122 41.7164C49.2468 41.7462 49.3599 41.7556 49.4613 41.7447C49.4862 41.7421 49.5103 41.7382 49.5338 41.733V41.7331C49.6903 41.6989 49.8099 41.6192 49.8928 41.494L49.8911 41.4943C50.0239 41.3525 50.1183 41.1825 50.1744 40.9842L50.1727 40.9844C50.2305 40.9409 50.2902 40.8902 50.3519 40.8321L50.3516 40.8322C50.4867 40.7136 50.5804 40.6099 50.6326 40.5213C50.6786 40.4432 50.7013 40.3661 50.7007 40.2899L50.6991 40.2902C50.704 40.1676 50.6606 40.0547 50.5688 39.9513L50.5688 39.9513C50.5485 39.9285 50.5258 39.9062 50.5006 39.8845L50.4989 39.8848C50.5034 39.8004 50.4985 39.7133 50.4842 39.6234C50.4817 39.6075 50.4779 39.5917 50.473 39.5764C50.3502 39.1974 50.191 38.9111 49.9956 38.7175L49.9943 38.7177C49.8813 38.5894 49.6786 38.47 49.3863 38.3596L49.3862 38.3597C49.3478 38.3443 49.3113 38.3323 49.2767 38.3238L49.2767 38.3239C49.2428 38.3156 49.2101 38.3104 49.1785 38.3083L49.1785 38.3084C49.1373 38.3056 49.099 38.3061 49.0637 38.3099C48.9495 38.3222 48.866 38.3686 48.8133 38.4489V38.449C48.7534 38.4078 48.7035 38.3776 48.6638 38.3585V38.3585C48.5985 38.3269 48.5353 38.3111 48.4743 38.3109H48.4741C48.4511 38.3109 48.4293 38.312 48.4087 38.3142Z" fill="black"/>
<path d="M23.0209 54.1467C18.7311 59.0972 17.5056 62.4679 18.1052 64.5521C18.6506 66.4474 19.6191 67.0896 22.3718 66.3382C23.0837 66.1439 23.8885 65.8522 24.7927 65.4564C29.2133 63.521 34.072 60.5051 39.4691 56.1233L39.469 56.1234C39.5389 56.0666 39.6317 55.9935 39.7441 55.9048L39.7442 55.9047C39.9766 55.7213 40.325 55.4463 40.7861 55.072C43.4944 52.8731 50.1958 47.1602 59.6639 36.7266C69.0199 26.4166 72.1987 17.443 71.1277 15.6884L71.4732 16.0947C69.5178 14.4121 66.0966 14.8416 64.8981 15.311C61.5502 16.6221 56.3187 18.7034 55.5544 19.1444C54.723 19.6241 53.6497 19.3566 53.1572 18.5468C52.6646 17.7369 52.9393 16.6915 53.7707 16.2118C54.8373 15.5963 60.4681 13.372 63.5926 12.1484C65.2446 11.5015 70.3423 10.5733 73.7902 13.5401C73.9263 13.6573 74.0429 13.7943 74.1357 13.9465C76.7492 18.2281 71.0247 29.3542 62.286 38.984C52.691 49.5573 45.8606 55.3895 43.0268 57.6903C42.5456 58.0809 42.1834 58.3668 41.9472 58.5532L41.9473 58.5531C41.8242 58.6503 41.757 58.7033 41.7098 58.7416L41.7097 58.7417C36.1336 63.2689 31.0071 66.4728 26.2275 68.5654C25.2079 69.0118 24.2362 69.3693 23.3161 69.6204C19.249 70.7306 15.9434 69.6701 14.7355 65.4719C13.5971 61.5154 16.0944 56.8552 20.3466 51.9482C20.9699 51.2289 22.0739 51.1379 22.8123 51.745C23.5508 52.3521 23.6442 53.4274 23.0209 54.1467Z" fill="black"/>
</svg>
