<svg width="93" height="91" viewBox="0 0 93 91" fill="none" xmlns="http://www.w3.org/2000/svg">
<path d="M10.7806 46.6889L45.2983 7.55002C45.948 6.8133 47.0879 6.72908 47.8442 7.36194L88.0244 40.9805C88.7808 41.6133 88.8673 42.7236 88.2175 43.4603L53.7001 82.5994C53.3881 82.9532 52.9445 83.1717 52.4671 83.207C51.9896 83.2423 51.5173 83.0914 51.1541 82.7875L10.9737 49.1687C10.6105 48.8648 10.3861 48.4328 10.3499 47.9678C10.3137 47.5027 10.4686 47.0427 10.7806 46.6889ZM13.5197 48.9807L13.3266 46.5008L53.507 80.1196L50.961 80.3076L85.4785 41.1686L85.6716 43.6484L45.4913 10.0299L48.0373 9.84176L13.5197 48.9807Z" fill="#FFA462"/>
<path d="M66.3403 23.9717L66.3403 23.9716C66.3634 24.0483 66.3663 24.1318 66.3489 24.2223L66.3489 24.2222C66.239 24.7938 64.6868 26.684 61.6923 29.8928L61.7189 29.8607L54.6597 39.4654C54.6123 39.53 54.544 39.5771 54.4658 39.5994L54.4659 39.5993C54.4819 39.5948 54.4944 39.59 54.5034 39.585L54.5034 39.585C53.8777 39.9329 49.2872 45.1825 40.7317 55.3339L40.746 55.3158L33.9701 64.5026C33.8528 64.6616 33.6254 64.6979 33.4622 64.5837C33.2989 64.4695 33.2617 64.248 33.3789 64.0889L40.1549 54.9022C40.1594 54.896 40.1642 54.8899 40.1691 54.8841C48.7813 44.6653 53.4391 39.3604 54.1426 38.9693L54.1426 38.9693C54.1833 38.9467 54.223 38.9298 54.2617 38.9188L54.0679 39.0527L61.127 29.448C61.1352 29.4368 61.1441 29.4261 61.1536 29.4159C64.0556 26.3063 65.5489 24.5316 65.6335 24.0917L65.6335 24.0916C65.6294 24.1128 65.6323 24.1396 65.642 24.1719C65.5853 23.984 65.6956 23.7869 65.8884 23.7317C66.0813 23.6764 66.2836 23.7839 66.3403 23.9717Z" fill="#FFA462"/>
<path d="M28.8709 29.0517C30.3636 30.4796 34.1918 33.3569 40.3554 37.6834C40.3642 37.6895 40.3728 37.6961 40.381 37.7031C52.0039 47.5165 58.7929 53.0007 60.7481 54.1558C60.7629 54.1646 60.7771 54.1744 60.7905 54.1851C62.3607 55.4434 64.3565 57.3377 66.778 59.868L66.7435 59.8364L69.7646 62.2657C69.9196 62.3903 69.9415 62.6138 69.8136 62.7647C69.6856 62.9157 69.4561 62.9371 69.3012 62.8124L66.2801 60.3831C66.2679 60.3733 66.2564 60.3627 66.2456 60.3515C63.8459 57.844 61.8734 55.971 60.3281 54.7327L60.3706 54.762C58.3803 53.5862 51.5582 48.0785 39.9043 38.2388L39.9299 38.2585C33.7363 33.911 29.88 31.0106 28.3609 29.5576C28.2175 29.4204 28.2154 29.1959 28.3562 29.0562C28.4971 28.9165 28.7275 28.9145 28.8709 29.0517Z" fill="#FFA462"/>
<path d="M24.4432 36.1497C24.5604 36.5073 25.1911 37.1433 26.3352 38.0574L26.3221 38.0474L26.5052 38.1806L26.4891 38.1695C28.5137 39.4825 30.1884 40.6212 31.5133 41.5854L31.5189 41.5895L48.9545 54.7964L48.9373 54.7841C58.4711 61.1699 63.8214 64.9721 64.9884 66.1906C65.1255 66.3337 65.1175 66.5581 64.9705 66.6916C64.8235 66.8251 64.5932 66.8174 64.4561 66.6742C63.3254 65.4935 58.0149 61.7249 48.5249 55.3683C48.519 55.3644 48.5133 55.3603 48.5077 55.3561L31.0721 42.1492L31.0777 42.1533C29.7633 41.1968 28.0993 40.0655 26.0857 38.7597C26.0802 38.7561 26.0749 38.7525 26.0696 38.7486L25.8866 38.6155C25.8822 38.6123 25.8778 38.609 25.8736 38.6055C24.6186 37.6028 23.9107 36.8561 23.7498 36.3653C23.6886 36.1788 23.7943 35.9793 23.9858 35.9198C24.1772 35.8602 24.382 35.9631 24.4432 36.1497Z" fill="#FFA462"/>
<path d="M18.476 41.3799C19.5311 42.5568 23.1269 45.0662 29.2633 48.908C29.2794 48.918 29.2947 48.9294 29.309 48.9418L34.017 53.0373L33.9993 53.0228L55.0782 69.1371C55.097 69.1515 55.1143 69.1676 55.1298 69.1853C56.163 70.3592 57.6311 71.6259 59.534 72.9854C59.6961 73.1012 59.7311 73.323 59.6122 73.4809C59.4933 73.6388 59.2656 73.6729 59.1035 73.5571C57.1555 72.1653 55.6467 70.8619 54.5772 69.6467L54.6288 69.6948L33.5499 53.5806C33.5438 53.5759 33.5379 53.5711 33.5322 53.5661L28.8241 49.4705L28.8698 49.5044C22.6755 45.6264 19.0281 43.0737 17.9277 41.8462C17.7955 41.6988 17.811 41.4749 17.9625 41.3461C18.1139 41.2173 18.3438 41.2325 18.476 41.3799Z" fill="#FFA462"/>
<path d="M34.6998 24.1157L34.6998 24.1157C34.7433 24.0409 34.7527 23.9743 34.7281 23.916C34.8318 24.1619 35.6102 24.8654 37.0631 26.0266L37.0476 26.0148L49.4375 34.8732C49.4468 34.8798 49.4557 34.8868 49.4642 34.8942C55.8055 40.396 62.8842 45.8243 70.7004 51.1793C70.7151 51.1894 70.729 51.2004 70.742 51.2125L74.1891 54.4101C74.3346 54.5452 74.3402 54.7696 74.2016 54.9113C74.063 55.0531 73.8326 55.0586 73.6871 54.9236L70.24 51.7259L70.2817 51.7592C62.4427 46.3886 55.3421 40.9434 48.9801 35.4237L49.0068 35.4447L36.6169 26.5864C36.6116 26.5826 36.6065 26.5787 36.6014 26.5746C35.0539 25.3379 34.205 24.5415 34.0548 24.1854C33.9898 24.0312 33.9937 23.8915 34.0664 23.7664C34.1654 23.596 34.3875 23.5361 34.5624 23.6326C34.7373 23.729 34.7988 23.9453 34.6998 24.1157Z" fill="#FFA462"/>
<path d="M40.858 17.9005L40.858 17.9004C40.9246 17.7371 40.8251 17.618 40.8535 17.6635C40.9573 17.8297 41.635 18.3731 42.2979 18.8966C42.5416 19.0889 42.7706 19.2698 42.9308 19.4039L42.9358 19.4082L49.5336 25.1392C49.5429 25.1473 49.5517 25.1558 49.5601 25.1648C49.8302 25.4528 50.5981 25.9921 51.8931 26.8967C53.1993 27.809 54.9917 29.061 57.2058 30.729C57.6837 31.089 58.6713 31.9222 60.1749 33.1904C63.0088 35.5807 67.7154 39.5503 74.4436 44.9465C74.4493 44.9511 74.4549 44.9558 74.4603 44.9608L80.3235 50.2803C80.4705 50.4137 80.4787 50.638 80.3417 50.7813C80.2047 50.9245 79.9744 50.9325 79.8273 50.7991L73.9642 45.4795L73.9809 45.4938C67.2441 40.0908 62.5353 36.1191 59.6984 33.7264C58.1833 32.4484 57.2177 31.6342 56.7605 31.2898C54.557 29.6298 52.7746 28.3848 51.4689 27.4728C50.2219 26.6017 49.3594 26.0021 49.0226 25.6428L49.0491 25.6684L42.4513 19.9373L42.4563 19.9415C42.3067 19.8163 42.0859 19.6418 41.8396 19.4473C41.2619 18.9912 40.4214 18.3358 40.2317 18.032C40.2171 18.0087 40.1009 17.8365 40.1816 17.6386C40.2559 17.4566 40.4675 17.3678 40.6543 17.4401C40.8411 17.5124 40.9323 17.7185 40.858 17.9005Z" fill="#FFA462"/>
<path d="M59.4366 21.2334L59.3334 21.2076C59.1387 21.1591 59.0212 20.966 59.071 20.7764C59.1208 20.5867 59.3191 20.4723 59.5138 20.5208L59.6171 20.5465C59.8118 20.595 59.9293 20.7881 59.8794 20.9778C59.8296 21.1675 59.6314 21.2819 59.4366 21.2334Z" fill="#FFA462"/>
<path d="M38.6037 68.5401H38.6037C38.5832 68.54 38.5671 68.5419 38.5553 68.5457H38.5552C39.1628 68.3503 42.0616 65.3231 47.2515 59.464L47.2294 59.4915C49.246 56.7013 51.4569 53.9268 53.8623 51.168L53.8614 51.1691L72.5951 29.5066C72.7246 29.3569 72.9542 29.3377 73.1079 29.4639C73.2616 29.59 73.2813 29.8136 73.1518 29.9633L54.4181 51.6259L54.4171 51.627C52.026 54.3694 49.8285 57.1269 47.8246 59.8996C47.8178 59.9091 47.8104 59.9183 47.8026 59.9271C42.5249 65.8853 39.5185 68.9826 38.7833 69.2189H38.7833C38.7201 69.2392 38.6592 69.2493 38.6008 69.249C38.3997 69.2482 38.2374 69.0889 38.2383 68.8931C38.2391 68.6973 38.4028 68.5393 38.6037 68.5401Z" fill="#FFA462"/>
<path d="M46.474 73.6514L46.4744 73.6512C46.4385 73.6627 46.4097 73.6768 46.3879 73.6937C46.6345 73.5026 48.4328 71.5271 51.7829 67.7671L51.7768 67.7741C53.0003 66.3269 54.3801 64.5401 55.9163 62.4137C55.9228 62.4046 55.9298 62.3959 55.9372 62.3874L65.0627 51.9828L65.0494 51.999C66.3173 50.3691 67.5984 48.562 68.8926 46.5778C68.8993 46.5675 68.9066 46.5576 68.9144 46.548L78.109 35.2241C78.2337 35.0705 78.4625 35.0445 78.6202 35.1659C78.7778 35.2874 78.8046 35.5103 78.6799 35.6639L69.4853 46.9878L69.507 46.958C68.2022 48.9585 66.9097 50.7815 65.6295 52.4271C65.6253 52.4327 65.6208 52.438 65.6162 52.4433L56.4906 62.8479L56.5116 62.8217C54.9646 64.9629 53.5737 66.764 52.3387 68.2248L52.3326 68.2318C48.9533 72.0246 47.1228 74.0302 46.8411 74.2485L46.8411 74.2485C46.7947 74.2845 46.748 74.31 46.701 74.325C46.5104 74.386 46.3047 74.2848 46.2419 74.0988C46.1792 73.9128 46.2831 73.7125 46.474 73.6514Z" fill="#FFA462"/>
<path d="M58.5817 20.4094L52.4118 28.3969C52.4066 28.4036 52.4012 28.4101 52.3955 28.4165L45.5466 36.0837L45.5679 36.0574C42.8952 39.6919 41.0014 42.1504 39.8865 43.4331L39.8916 43.4271C35.8362 48.3066 31.0354 53.6094 25.489 59.3353C25.3511 59.4777 25.1207 59.4843 24.9745 59.3499C24.8283 59.2155 24.8216 58.9912 24.9596 58.8488C30.4932 53.136 35.2819 47.8468 39.3258 42.981L39.3309 42.975C40.433 41.7071 42.3148 39.2636 44.9762 35.6446C44.9828 35.6355 44.99 35.6267 44.9975 35.6183L51.8464 27.9511L51.8302 27.9707L58 19.9832C58.1208 19.8267 58.349 19.7953 58.5096 19.913C58.6702 20.0307 58.7025 20.253 58.5817 20.4094Z" fill="#FFA462"/>
<path d="M53.9315 13.7301C53.8959 14.1023 53.5653 14.6478 52.9397 15.3666L52.9423 15.3636L33.0047 38.7863C33.0016 38.7899 32.9984 38.7935 32.9952 38.7971L19.4382 53.4778C19.3038 53.6233 19.0737 53.6352 18.9243 53.5043C18.7748 53.3734 18.7627 53.1492 18.8971 53.0037L32.454 38.3229L32.4444 38.3337L52.3819 14.9111L52.3845 14.9081C52.9113 14.3029 53.1854 13.8883 53.2068 13.6643C53.2254 13.4694 53.4028 13.3261 53.6029 13.3443C53.803 13.3624 53.9502 13.5351 53.9315 13.7301Z" fill="#FFA462"/>
<path d="M48.1262 37.539V37.5391C48.1615 37.6735 48.2362 37.7488 48.3503 37.765C48.2773 37.7547 48.0894 37.7718 47.7866 37.8164L47.7799 37.8173C47.5965 37.8409 47.4448 37.8818 47.3249 37.9401L47.3419 37.9312C46.9338 38.1564 46.6962 38.3032 46.6291 38.3716L46.6289 38.3718C46.6302 38.3704 46.632 38.3683 46.6343 38.3656C46.6278 38.3735 46.621 38.3811 46.6138 38.3885C46.4938 38.5113 46.3875 38.6729 46.2948 38.8735L46.302 38.8569C46.1525 39.2299 46.1498 39.589 46.2941 39.9343C46.2978 39.943 46.3011 39.9519 46.304 39.9609C46.3674 40.156 46.4179 40.2766 46.4553 40.3225L46.4551 40.3224C46.454 40.321 46.4522 40.3191 46.4498 40.3167L46.4531 40.32C46.6708 40.5386 46.8459 40.6871 46.9784 40.7653L46.9314 40.7419C47.3093 40.8976 47.5415 40.9808 47.628 40.9915H47.6279C47.6116 40.9894 47.5909 40.9907 47.5658 40.9952C47.6016 40.9887 47.6383 40.9875 47.6744 40.9916C48.0471 41.0339 48.2785 41.0387 48.3687 41.0059L48.3687 41.0059C48.3625 41.0082 48.3546 41.0125 48.3452 41.0189C48.3719 41.0008 48.4009 40.9864 48.4315 40.9758C48.9902 40.7836 49.3155 40.6522 49.4074 40.5816L49.4073 40.5817C49.4006 40.5868 49.3929 40.5947 49.3839 40.6053C49.4021 40.5836 49.4229 40.564 49.4459 40.5471C49.5318 40.4835 49.6401 40.3077 49.7707 40.0198L49.7526 40.0694C49.9652 39.313 49.941 38.7632 49.6799 38.4198C49.6741 38.4121 49.6686 38.4043 49.6634 38.3962C49.5454 38.2116 49.3996 38.065 49.2261 37.9563L49.2603 37.9753C49.0917 37.8932 48.9645 37.8432 48.8789 37.8253C48.8462 37.8185 48.8146 37.8073 48.785 37.7921L48.7851 37.7921C48.811 37.8054 48.8338 37.8139 48.8537 37.8175L48.8537 37.8175C48.8173 37.8109 48.7259 37.8059 48.5797 37.8026C48.5392 37.8017 48.4991 37.7941 48.4612 37.7804L48.4474 37.7751L48.447 37.7749L48.4608 37.7802C48.3883 37.7539 48.3408 37.7384 48.3184 37.7336L48.3183 37.7335C48.418 37.7549 48.5121 37.7254 48.6005 37.6449C48.4536 37.7785 48.2233 37.7709 48.0861 37.6278C47.9489 37.4847 47.9568 37.2604 48.1037 37.1268C48.2017 37.0376 48.3254 37.0091 48.4748 37.0412L48.4748 37.0411C48.5304 37.0531 48.6104 37.0779 48.7148 37.1158L48.7286 37.1211L48.729 37.1213L48.5967 37.0938C48.7818 37.098 48.9118 37.1069 48.9867 37.1205L48.9867 37.1204C49.0395 37.13 49.0857 37.1449 49.1253 37.1653L49.0315 37.1321C49.1773 37.1626 49.362 37.2322 49.5856 37.341C49.5974 37.3468 49.6087 37.3531 49.6198 37.36C49.8851 37.5261 50.1056 37.7466 50.2813 38.0214L50.2648 37.9978C50.6663 38.5258 50.7296 39.2787 50.4546 40.2567C50.4498 40.2736 50.4438 40.2902 50.4365 40.3063C50.2553 40.7058 50.0718 40.9743 49.8861 41.1117L49.948 41.0534C49.9232 41.083 49.8932 41.1114 49.8579 41.1385L49.8578 41.1386C49.7029 41.2574 49.3083 41.426 48.674 41.6443L48.7604 41.6012C48.7198 41.6287 48.6739 41.6517 48.623 41.6702L48.623 41.6702C48.4232 41.7428 48.0789 41.7513 47.5902 41.6959L47.6988 41.6923C47.6495 41.7012 47.5954 41.7021 47.5367 41.6948L47.5366 41.6948C47.3836 41.6759 47.0873 41.576 46.6479 41.3949C46.6316 41.3882 46.6159 41.3804 46.6009 41.3715C46.4152 41.2618 46.1918 41.0759 45.9306 40.8136L45.9339 40.8169C45.9171 40.8004 45.9008 40.7825 45.885 40.7631L45.8848 40.7629C45.792 40.6489 45.7005 40.4529 45.6101 40.1749L45.6199 40.2016C45.4027 39.6818 45.404 39.1476 45.6239 38.599C45.6262 38.5935 45.6286 38.5879 45.6311 38.5825C45.7577 38.3085 45.9095 38.0809 46.0864 37.8998L46.0659 37.9227C46.0773 37.9089 46.0898 37.895 46.1033 37.8812L46.1031 37.8815C46.2196 37.7629 46.5129 37.5739 46.9831 37.3144C46.9887 37.3113 46.9944 37.3084 47.0002 37.3055C47.1927 37.2121 47.4209 37.1484 47.6846 37.1145L47.6777 37.1154C48.0516 37.0603 48.3107 37.043 48.455 37.0634L48.455 37.0634C48.6611 37.0926 48.7866 37.1926 48.8314 37.3635C48.8812 37.5533 48.7637 37.7463 48.5689 37.7947C48.3742 37.8432 48.176 37.7287 48.1262 37.539Z" fill="#FFA462"/>
<path d="M50.0962 49.297C49.6582 49.0172 49.002 49.1288 48.1276 49.6317C48.0985 49.6485 48.0672 49.6612 48.0344 49.6695L48.0346 49.6695C48.0686 49.6608 48.0944 49.6493 48.1118 49.635C48.0214 49.7092 47.8499 49.9839 47.5973 50.4591L47.6243 50.3926C47.5534 50.6367 47.5496 50.889 47.6128 51.1493L47.6095 51.1367C47.8313 51.9207 48.2582 52.4264 48.8902 52.6535L48.8245 52.6365C49.3102 52.7159 49.6832 52.7208 49.9435 52.6511L49.9487 52.6498C50.2818 52.5659 50.5609 52.3905 50.7863 52.1238L50.7635 52.1538C50.9514 51.8763 51.0761 51.6439 51.1375 51.4568L51.1233 51.5185C51.1859 51.0556 51.2112 50.7786 51.1993 50.6875L51.1992 50.6875C51.2046 50.7289 51.226 50.7716 51.2634 50.8156C51.2394 50.7873 51.2201 50.7556 51.2061 50.7215C50.9005 49.9787 50.54 49.5351 50.1245 49.3906C49.9352 49.3248 49.8365 49.1219 49.904 48.9376C49.9716 48.7532 50.1799 48.6571 50.3692 48.7229C50.9907 48.939 51.4949 49.5173 51.8817 50.4578L51.8244 50.3638C51.8766 50.4253 51.9089 50.5034 51.9213 50.5979C51.9412 50.7497 51.9157 51.0874 51.845 51.611C51.8421 51.632 51.8374 51.6526 51.8308 51.6727C51.749 51.9218 51.5958 52.2122 51.3711 52.5441C51.3641 52.5545 51.3565 52.5646 51.3484 52.5742C51.0227 52.9597 50.6169 53.2137 50.1311 53.3362L50.1363 53.3348C49.7728 53.4321 49.2953 53.4324 48.7039 53.3357C48.6815 53.332 48.6595 53.3263 48.6382 53.3186C47.7726 53.0075 47.1958 52.343 46.9077 51.3251C46.9066 51.3209 46.9055 51.3167 46.9044 51.3124C46.8123 50.9328 46.8187 50.5618 46.9238 50.1997C46.9305 50.1767 46.9396 50.1544 46.9509 50.1331C47.2479 49.5745 47.4785 49.2278 47.6426 49.093C47.7091 49.0384 47.7784 49.0019 47.8506 48.9835L47.7575 49.0213C48.8921 48.3687 49.8048 48.263 50.4954 48.7042C50.6635 48.8115 50.7104 49.0313 50.6001 49.195C50.4899 49.3587 50.2643 49.4044 50.0962 49.297Z" fill="#FFA462"/>
<path d="M42.9511 44.0271C42.9633 44.0784 42.9844 44.1144 43.0146 44.135C42.9549 44.0942 42.7991 44.0565 42.5473 44.0217L42.6383 44.0231H42.6383L42.5854 44.025C42.4399 44.02 42.2198 44.0739 41.925 44.1869L41.9254 44.1867C41.708 44.2703 41.4943 44.4302 41.2843 44.6665C41.267 44.686 41.2475 44.7037 41.2262 44.7191L41.2263 44.719C41.2415 44.708 41.2527 44.6981 41.2601 44.6891L41.26 44.6892C41.2145 44.7445 41.1312 44.9111 41.0099 45.1891L41.029 45.1326C40.9145 45.6013 40.947 46.0373 41.1266 46.4407L41.1122 46.4121C41.371 46.8745 41.684 47.1719 42.0512 47.3043L41.9736 47.2854C42.5278 47.3583 42.9528 47.3031 43.2488 47.1196L43.2537 47.1167C43.6782 46.8627 43.9332 46.5315 44.0187 46.1229L44.0152 46.1419C44.1094 45.5211 44.067 45.0973 43.8881 44.8705C43.8827 44.8636 43.8776 44.8566 43.8727 44.8494C43.7862 44.7215 43.6871 44.6167 43.5753 44.5349L43.6273 44.5666C43.1762 44.3405 42.9028 44.2171 42.8073 44.1966L42.8072 44.1966C42.8077 44.1967 42.8081 44.1968 42.8085 44.1968C42.6111 44.1597 42.4821 43.9737 42.5203 43.7815C42.5585 43.5892 42.7495 43.4636 42.9468 43.5008C42.9523 43.5018 42.958 43.503 42.9639 43.5043L42.9638 43.5042C43.1208 43.5379 43.4531 43.6819 43.9604 43.9363C43.9787 43.9454 43.9961 43.956 44.0125 43.968C44.1917 44.0991 44.3477 44.263 44.4806 44.4595L44.4652 44.4385C44.7695 44.8241 44.8595 45.4265 44.7353 46.2455C44.7343 46.2519 44.7332 46.2582 44.7319 46.2645C44.6043 46.8741 44.2386 47.3595 43.6346 47.7208L43.6396 47.7178C43.194 47.994 42.6062 48.084 41.8762 47.988C41.8497 47.9845 41.8237 47.9782 41.7986 47.9692C41.2608 47.7753 40.819 47.3694 40.4731 46.7514C40.4679 46.7421 40.4631 46.7325 40.4588 46.7227C40.2149 46.1749 40.1689 45.5902 40.3209 44.9684C40.3256 44.9491 40.332 44.9302 40.34 44.9119C40.4874 44.5739 40.6048 44.3519 40.6921 44.2458L40.692 44.2458C40.7237 44.2073 40.7571 44.1753 40.7921 44.15L40.734 44.2026C41.0219 43.8785 41.33 43.6534 41.6582 43.5272L41.6585 43.5271C42.0473 43.3782 42.3648 43.308 42.6112 43.3165L42.5584 43.3184H42.5585C42.6241 43.3169 42.6369 43.318 42.6495 43.3197C43.0163 43.3704 43.2771 43.4485 43.4319 43.5541C43.5544 43.6375 43.6305 43.742 43.6603 43.8675C43.7055 44.0582 43.5835 44.2486 43.3876 44.2927C43.1918 44.3367 42.9964 44.2179 42.9511 44.0271Z" fill="#FFA462"/>
<path d="M42.4614 43.3046C42.3047 43.3215 42.1547 43.3806 42.0112 43.482C41.8761 43.5774 41.8282 43.7463 41.8833 43.8915L41.8816 43.8918C41.8415 43.9392 41.8098 43.9971 41.7863 44.0656L41.7863 44.0657C41.7829 44.0757 41.7796 44.0861 41.7765 44.097L41.7765 44.0971C41.7474 44.0959 41.7186 44.0969 41.69 44.1C41.6218 44.1073 41.5548 44.1266 41.4892 44.1578C41.4681 44.1678 41.4482 44.1797 41.4295 44.1935C41.3065 44.2841 41.2366 44.4071 41.2199 44.5625L41.2182 44.5628C41.1877 44.6285 41.1693 44.7047 41.1628 44.7915L41.1612 44.7918C41.126 44.8072 41.0911 44.8289 41.0565 44.8568L41.0561 44.8571C40.9497 44.9431 40.9052 45.057 40.9227 45.1988L40.9226 45.1989C40.9247 45.2162 40.9279 45.2338 40.9324 45.2516L40.9307 45.2519C40.877 45.2588 40.8249 45.2775 40.7784 45.3074C40.6797 45.3708 40.6189 45.477 40.6152 45.5922C40.6134 45.65 40.6249 45.7113 40.6498 45.776L40.6498 45.776C40.6506 45.7779 40.6513 45.7799 40.6521 45.7819L40.6504 45.7821C40.627 45.8744 40.6146 45.9773 40.6133 46.0909C40.6132 46.1012 40.6135 46.1115 40.6143 46.1217C40.6535 46.621 40.8322 47.0003 41.1507 47.2598C41.1622 47.2692 41.1743 47.2779 41.1869 47.2858C41.3016 47.3579 41.4085 47.4058 41.5077 47.4296L41.5077 47.4297C41.5734 47.4454 41.6371 47.4512 41.6989 47.4471L41.7077 47.4464C41.7135 47.4459 41.7192 47.4453 41.7248 47.4447C41.784 47.4383 41.8367 47.4271 41.883 47.411L41.8847 47.4109C42.0241 47.555 42.1973 47.6537 42.4044 47.707C42.4193 47.7108 42.4344 47.7137 42.4497 47.7157C42.5074 47.7231 42.5631 47.7247 42.6169 47.7207L42.6168 47.7208C42.6257 47.7201 42.6345 47.7192 42.6433 47.7183C42.8406 47.6971 42.9947 47.6065 43.1055 47.4465L43.1038 47.4467C43.1427 47.4354 43.1813 47.4202 43.2196 47.401C43.25 47.3859 43.2781 47.3666 43.3029 47.3439C43.3555 47.2957 43.4023 47.2467 43.4432 47.1967L43.4415 47.1969C43.4563 47.192 43.4711 47.1864 43.4862 47.1801L43.4862 47.1802C43.5107 47.17 43.5364 47.1577 43.5634 47.1433V47.1434C43.9012 46.9646 44.1292 46.8308 44.2472 46.7419C44.2508 46.7392 44.2544 46.7364 44.2578 46.7336C44.3773 46.6365 44.4644 46.5349 44.519 46.4289L44.5191 46.4289C44.5606 46.3484 44.5837 46.266 44.5884 46.1818L44.5882 46.1819C44.61 45.8894 44.5518 45.6176 44.4136 45.3665L44.4119 45.3667C44.6293 44.9629 44.5691 44.5335 44.2313 44.0785C44.2139 44.0551 44.1937 44.0338 44.171 44.0152C43.8565 43.757 43.4524 43.5464 42.9588 43.3836L42.9577 43.3838C42.7856 43.314 42.6201 43.2876 42.4614 43.3046Z" fill="#FFA462"/>
<path d="M54.9039 43.0733C54.8326 43.2327 54.8675 43.3427 55.0084 43.4033L55.0094 43.4037C55.0085 43.4033 55.0087 43.4034 55.01 43.4039L55.0084 43.4032C54.9674 43.3859 54.8777 43.3724 54.7392 43.3628L54.77 43.3636C54.173 43.3714 53.7854 43.4321 53.6072 43.5457L53.6656 43.4995C53.2274 43.9273 53.0462 44.3864 53.1218 44.8768L53.1139 44.8394C53.2924 45.5012 53.6708 45.9736 54.2491 46.2565L54.2309 46.2482C54.3891 46.3152 54.6325 46.333 54.961 46.3014L54.9449 46.3033C55.3089 46.2523 55.5377 46.1696 55.6312 46.0552C55.6524 46.0293 55.6771 46.0064 55.7048 45.9872C56.1339 45.6893 56.3524 45.1901 56.3604 44.4896C56.3606 44.4732 56.3619 44.4569 56.3644 44.4407C56.3916 44.2651 56.3107 43.999 56.1217 43.6422L56.1313 43.6592C56.0136 43.4639 55.8662 43.3312 55.689 43.2609C55.6692 43.253 55.6501 43.2434 55.632 43.2323C55.3921 43.0848 55.0399 43.0008 54.5755 42.9805L54.6334 42.9786C54.3226 43.0134 54.1324 43.0464 54.0629 43.0777L54.063 43.0776C54.0663 43.0761 54.0707 43.0737 54.0761 43.0703C53.9798 43.1309 53.8598 43.1437 53.7523 43.105L53.7522 43.1049C53.8452 43.1385 53.9268 43.1372 53.9969 43.1009H53.997C53.9449 43.1278 53.8209 43.2216 53.6251 43.3822L53.6408 43.3686C53.3921 43.5977 53.2171 43.9294 53.1158 44.3637L53.1223 44.2434C53.1533 44.4988 53.1955 44.6539 53.2488 44.7088C53.2281 44.6875 53.2003 44.6789 53.1653 44.683L53.1651 44.683C53.1644 44.6831 53.1637 44.6832 53.163 44.6833C53.3611 44.6501 53.5493 44.7797 53.5834 44.9726C53.6174 45.1656 53.4844 45.3489 53.2863 45.382C53.2745 45.384 53.2628 45.3857 53.2511 45.387L53.2509 45.387C53.0436 45.4109 52.8666 45.3472 52.7197 45.1957C52.5562 45.0272 52.4494 44.7375 52.3995 44.3268C52.3946 44.2867 52.3968 44.246 52.406 44.2065C52.54 43.6323 52.7848 43.1813 53.1406 42.8535C53.1457 42.8488 53.1509 42.8443 53.1563 42.8399C53.3915 42.647 53.5578 42.5253 53.6553 42.4749H53.6553C53.7774 42.4116 53.894 42.4 54.005 42.4401L53.6811 42.4748C53.7043 42.4602 53.7298 42.4466 53.7575 42.4341L53.7577 42.434C53.8979 42.3709 54.1621 42.3177 54.5503 42.2742C54.5695 42.2721 54.5888 42.2714 54.6081 42.2723C55.201 42.2982 55.6719 42.4184 56.0206 42.6328L55.9636 42.6043C56.2929 42.7349 56.5581 42.9669 56.759 43.3002C56.7623 43.3058 56.7655 43.3114 56.7685 43.3171C57.0295 43.8098 57.1348 44.2195 57.0842 44.5463L57.0882 44.4974C57.0776 45.4382 56.7573 46.1272 56.1272 46.5646L56.2007 46.4967C55.9872 46.7579 55.6032 46.9274 55.0485 47.0051C55.0431 47.0059 55.0378 47.0065 55.0324 47.007C54.5783 47.0505 54.2144 47.0143 53.9406 46.8983C53.9344 46.8957 53.9284 46.893 53.9224 46.89C53.1483 46.5113 52.6441 45.8878 52.4099 45.0196C52.4066 45.0072 52.4039 44.9948 52.402 44.9821C52.29 44.2563 52.5395 43.5952 53.1502 42.9988C53.168 42.9815 53.1875 42.966 53.2086 42.9526C53.5049 42.7636 54.0221 42.6643 54.7603 42.6547C54.7705 42.6546 54.7808 42.6549 54.7911 42.6556C55.0125 42.671 55.1818 42.7035 55.299 42.7533L55.2974 42.7526C55.2998 42.7536 55.301 42.7541 55.3012 42.7542L55.3022 42.7547C55.6031 42.8839 55.6928 43.0845 55.5713 43.3564C55.491 43.5359 55.2766 43.618 55.0923 43.5398C54.908 43.4617 54.8236 43.2528 54.9039 43.0733Z" fill="#FFA462"/>
<path d="M54.1614 42.7196C53.9839 42.7387 53.8824 42.8322 53.8569 43.0003L53.8551 43.0005C53.8382 43.0494 53.8322 43.1 53.8371 43.1522L53.8371 43.1523C53.8323 43.1499 53.8275 43.1475 53.8227 43.1452L53.8226 43.1453C53.7963 43.1324 53.7705 43.1212 53.7452 43.1118L53.7451 43.1118C53.6412 43.0732 53.5483 43.0583 53.4663 43.0671C53.33 43.0818 53.2241 43.1621 53.1487 43.308L53.1486 43.3081C53.1383 43.3281 53.1295 43.3489 53.1221 43.3706C53.0966 43.4458 53.0977 43.5271 53.1251 43.6016C53.1265 43.6052 53.1278 43.6089 53.1292 43.6125L53.1274 43.6128C53.1261 43.6158 53.1248 43.6189 53.1234 43.6223L53.1233 43.6227C53.0831 43.7228 53.0632 43.8475 53.0633 43.9968L53.0615 43.9971C52.8315 44.03 52.7193 44.1732 52.7248 44.4267V44.4268C52.7251 44.4398 52.7259 44.4529 52.7272 44.4661C52.7298 44.4925 52.7355 44.5185 52.7426 44.5392L52.7426 44.5394L52.7441 44.5438C52.8541 44.8667 52.9995 45.237 53.1802 45.6546L53.1828 45.6605C53.2929 45.9027 53.3819 46.067 53.4498 46.1534L53.4497 46.1535C53.5573 46.2906 53.6785 46.3519 53.8133 46.3374C53.8328 46.3353 53.8525 46.3316 53.8726 46.3263L53.8744 46.3263C53.8804 46.3258 53.8863 46.3252 53.8922 46.3246C53.8956 46.3242 53.899 46.3238 53.9024 46.3234L53.9042 46.3233C53.9428 46.3475 53.9804 46.3681 54.017 46.3851L54.0152 46.3854C54.2071 46.5668 54.4053 46.6603 54.6099 46.6659L54.6101 46.6659C54.621 46.6662 54.6316 46.6662 54.6419 46.6661C54.6533 46.6659 54.6646 46.6652 54.6758 46.664C54.6857 46.6629 54.6956 46.6614 54.7053 46.6596C54.8051 46.6407 54.8895 46.5977 54.9585 46.5305L54.9603 46.5304C55.1001 46.5637 55.2268 46.5743 55.3404 46.5621C55.3683 46.5591 55.3953 46.5548 55.4216 46.549V46.5491C55.5969 46.5108 55.7309 46.4215 55.8237 46.2813L55.8219 46.2816C55.9705 46.1228 56.0763 45.9324 56.1391 45.7102L56.1373 45.7105C56.202 45.6618 56.2689 45.6049 56.338 45.5399L56.3376 45.54C56.4889 45.4071 56.5939 45.291 56.6524 45.1917C56.7039 45.1043 56.7294 45.0179 56.7287 44.9326L56.7269 44.9329C56.7324 44.7956 56.6837 44.6691 56.5809 44.5533L56.5809 44.5533C56.5582 44.5277 56.5327 44.5028 56.5045 44.4785L56.5027 44.4788C56.5076 44.3843 56.5021 44.2867 56.4862 44.186C56.4833 44.1682 56.4791 44.1505 56.4736 44.1333C56.336 43.7088 56.1578 43.3882 55.9389 43.1713L55.9374 43.1715C55.8109 43.0278 55.5838 42.8941 55.2564 42.7705L55.2562 42.7706C55.2132 42.7533 55.1724 42.7399 55.1336 42.7304L55.1336 42.7305C55.0957 42.7211 55.059 42.7153 55.0236 42.713L55.0236 42.7131C54.9775 42.71 54.9346 42.7106 54.8951 42.7148C54.7671 42.7286 54.6736 42.7805 54.6146 42.8705V42.8706C54.5474 42.8244 54.4916 42.7906 54.4471 42.7692V42.7692C54.3739 42.7339 54.3032 42.7161 54.2349 42.7159H54.2346C54.2089 42.7159 54.1845 42.7171 54.1614 42.7196Z" fill="#FFA462"/>
<path d="M25.7243 60.4536C20.9193 65.9986 19.5466 69.7741 20.2182 72.1086C20.8291 74.2316 21.9139 74.9509 24.9972 74.1092C25.7946 73.8916 26.6961 73.5649 27.7089 73.1215C32.6604 70.9536 38.1027 67.5756 44.1479 62.6676L44.1478 62.6676C44.2261 62.604 44.33 62.5222 44.4559 62.4227L44.456 62.4227C44.7164 62.2172 45.1066 61.9093 45.623 61.4899C48.6566 59.027 56.1628 52.6279 66.768 40.9413C77.2477 29.3931 80.8082 19.3418 79.6086 17.3764L79.9957 17.8315C77.8054 15.9469 73.9733 16.428 72.6308 16.9537C68.8808 18.4223 63.0211 20.7535 62.1651 21.2475C61.2338 21.7849 60.0316 21.4852 59.4799 20.5781C58.9282 19.671 59.2359 18.5 60.1671 17.9627C61.3618 17.2733 67.6688 14.7819 71.1686 13.4113C73.019 12.6867 78.7289 11.6471 82.5909 14.9702C82.7434 15.1014 82.8739 15.2549 82.9779 15.4253C85.9053 20.2212 79.4933 32.6835 69.705 43.4698C58.9578 55.313 51.307 61.8456 48.1328 64.4227C47.5939 64.8602 47.1881 65.1805 46.9237 65.3892L46.9237 65.3892C46.7858 65.498 46.7106 65.5573 46.6577 65.6003L46.6576 65.6003C40.4117 70.6712 34.6696 74.26 29.3159 76.6039C28.174 77.1039 27.0855 77.5043 26.055 77.7856C21.4994 79.0291 17.7968 77.8412 16.4438 73.1389C15.1687 68.7072 17.9659 63.4873 22.7288 57.991C23.427 57.1853 24.6635 57.0834 25.4907 57.7634C26.3179 58.4434 26.4225 59.6479 25.7243 60.4536Z" fill="#FFA462"/>
</svg>
