<svg width="130" height="137" viewBox="0 0 130 137" fill="none" xmlns="http://www.w3.org/2000/svg">
<g clip-path="url(#clip0_2043_19368)">
<path d="M78.6363 90.8767L78.6365 90.8768L78.6368 90.8767L78.6371 90.8767L78.6372 90.8768C78.6372 90.8768 78.6372 90.8768 78.6372 90.8768L78.6368 90.8767L78.6364 90.8767L78.6361 90.8768L78.6357 90.8768L78.6359 90.8767C78.6358 90.8767 78.6359 90.8767 78.6359 90.8767C78.6359 90.8767 78.636 90.8767 78.636 90.8767H78.6363Z" fill="#9B1D20"/>
<path d="M78.6456 90.877L78.6451 90.8771L78.6447 90.8772L78.6441 90.8775L78.6438 90.8771L78.6436 90.8774L78.6431 90.877H78.6456Z" fill="#9B1D20"/>
<path d="M78.6443 90.8787C78.6441 90.8788 78.6443 90.8785 78.6443 90.8787V90.8787Z" fill="#9B1D20"/>
<path d="M78.6436 90.8773L78.6432 90.8779L78.6426 90.8776L78.6436 90.8773Z" fill="#9B1D20"/>
<path d="M78.6426 90.8767L78.6428 90.8777L78.6433 90.8773L78.6421 90.8784L78.6426 90.8767Z" fill="#9B1D20"/>
<path d="M113.991 88.4834L113.982 88.4834L93.7776 88.7987C93.6149 88.9978 93.4434 89.1295 93.2629 89.1938L92.251 89.4462C91.8604 89.5025 91.5346 89.5602 91.2738 89.6192C90.7924 89.7385 90.3802 89.8491 90.0372 89.9508C89.3806 90.1371 88.8434 90.3207 88.4257 90.5017L87.8727 90.7777C87.5822 91.067 87.269 91.3042 86.9331 91.4892C87.1952 91.9313 87.4272 92.1864 87.6291 92.2544C87.8669 92.3876 88.1468 92.4641 88.4686 92.484L114.016 92.0854L114.247 92.0653C115.116 91.8638 115.602 91.2926 115.707 90.3517C115.65 89.7759 115.508 89.3601 115.28 89.1042C114.952 88.7878 114.729 88.6271 114.609 88.6222C114.425 88.5516 114.219 88.5053 113.991 88.4834Z" fill="#9B1D20"/>
<path d="M70.9235 90.5563L72.0952 90.7109L71.922 90.7018C72.8509 90.6776 73.5848 90.6259 74.1414 90.5866C74.4582 90.5643 74.7476 90.5436 74.9706 90.5378L74.9728 90.5378L74.9767 90.5377L74.9755 90.5377C75.6679 90.5202 76.2539 90.5171 76.7358 90.5144C77.0796 90.5126 77.3582 90.511 77.586 90.5052H77.5859C77.6364 90.504 77.6873 90.5024 77.7308 90.5007C78.0339 90.489 78.3419 90.5059 78.628 90.578C79.0231 90.6776 79.8521 91.046 79.8871 92.0562L79.8871 92.0563C79.8882 92.0856 79.8884 92.1147 79.8878 92.1433V92.1433C79.88 92.543 79.8193 92.9688 79.6459 93.3696C79.5533 93.5833 79.4301 93.7867 79.2707 93.9698C79.2521 93.9912 79.2328 94.0118 79.2128 94.0317L75.5547 97.6777L75.6163 97.6115L73.0024 100.643C72.9968 100.649 72.9912 100.656 72.9854 100.662L72.1441 101.597C71.7024 102.088 70.9668 102.108 70.5011 101.643C70.0354 101.177 70.016 100.402 70.4577 99.9111L71.299 98.9764L71.2821 98.9956L73.896 95.9642C73.9157 95.9413 73.9362 95.9192 73.9575 95.898L77.6156 92.252L77.5578 92.3139C77.5394 92.3351 77.5316 92.3516 77.531 92.3531C77.5325 92.3495 77.5602 92.2797 77.5639 92.0927V92.0926C77.5635 92.1098 77.5636 92.1277 77.5643 92.1457L77.5643 92.1458C77.5886 92.8472 78.1746 92.9824 78.0873 92.9604C78.0757 92.9574 77.9945 92.9418 77.8157 92.9487C77.7614 92.9508 77.6995 92.9527 77.6417 92.9541H77.6416C77.387 92.9606 77.0845 92.9622 76.7479 92.964C76.2661 92.9666 75.6994 92.9697 75.0312 92.9866L75.03 92.9866L75.0261 92.9867L75.0282 92.9867C74.8655 92.9909 74.6352 93.0069 74.2966 93.0308C73.7363 93.0703 72.9602 93.1251 71.9794 93.1507C71.9216 93.1522 71.8637 93.1491 71.8062 93.1415L70.6346 92.9869C69.9977 92.9028 69.5461 92.2905 69.6258 91.6193C69.7056 90.9481 70.2866 90.4722 70.9235 90.5563Z" fill="#9B1D20"/>
<path d="M71.2384 98.9712C70.9281 98.9712 70.6184 99.1014 70.3896 99.3591C70.3386 99.4166 70.2863 99.4808 70.2329 99.5518C70.227 99.5597 70.2211 99.5677 70.2154 99.5757C70.1334 99.6904 70.0754 99.769 70.0415 99.8116C70.039 99.8147 70.0365 99.8179 70.0341 99.821C69.986 99.8825 69.9357 99.9431 69.8832 100.003C69.4462 100.498 69.4731 101.273 69.9432 101.734C70.1671 101.953 70.451 102.061 70.7342 102.061C71.0459 102.061 71.3568 101.93 71.5858 101.67C71.6674 101.578 71.746 101.483 71.8215 101.387C71.8784 101.316 71.9561 101.211 72.0546 101.074H72.0542C72.0683 101.055 72.0791 101.042 72.0867 101.033C72.5253 100.539 72.501 99.764 72.0324 99.3017C71.8082 99.0807 71.523 98.9712 71.2384 98.9712Z" fill="#9B1D20"/>
<path d="M73.5951 94.516C73.6203 94.516 73.6463 94.517 73.6732 94.5191H73.6728C73.6462 94.5171 73.6195 94.5161 73.5923 94.5161C73.5855 94.5161 73.5786 94.5162 73.5717 94.5163C73.5794 94.5161 73.5872 94.516 73.5951 94.516ZM75.2638 94.4586C75.1786 94.4806 75.0946 94.5131 75.0133 94.5566H75.0129C75.0992 94.5097 75.1827 94.477 75.2634 94.4586H75.2638ZM71.7384 94.5748C71.7611 94.578 71.785 94.5822 71.81 94.5877H71.8096C71.7859 94.5826 71.762 94.5783 71.738 94.5748H71.7384ZM75.0111 96.8676C74.9917 96.8703 74.973 96.8723 74.955 96.8738C74.9614 96.8731 74.9678 96.8725 74.9741 96.8719C74.9863 96.8707 74.9985 96.8692 75.0107 96.8676H75.0111ZM75.5382 94.4238C75.4756 94.4238 75.4126 94.4292 75.3499 94.4401L75.2294 94.4379L75.0975 94.4297C75.0802 94.4286 75.0629 94.428 75.0456 94.4277C74.9924 94.4269 74.9488 94.4265 74.9146 94.4265C74.8991 94.4265 74.8855 94.4266 74.8739 94.4268H74.8742C74.8321 94.4274 74.7921 94.4295 74.7542 94.4334H74.7534C74.6977 94.4389 74.6352 94.4429 74.5657 94.4454C74.5374 94.4464 74.5092 94.4486 74.5007 94.4497L74.5005 94.4497L74.4809 94.4518C74.3672 94.4647 74.1883 94.4791 73.944 94.4949H73.9437C73.7319 94.5074 73.6055 94.5146 73.5645 94.5165H73.5641C73.5474 94.5169 73.5292 94.5178 73.5095 94.5191C73.4813 94.521 73.4172 94.526 73.3171 94.534H73.3167C73.1251 94.5439 72.9985 94.5516 72.9369 94.557C72.9364 94.557 72.9358 94.5571 72.9352 94.5571H72.9348C72.9198 94.5575 72.8979 94.5578 72.8691 94.5581C72.8527 94.5583 72.8362 94.5588 72.8198 94.5597L72.6426 94.5695L72.5966 94.5694C72.5959 94.5694 72.5952 94.5694 72.5945 94.5694C72.5555 94.5694 72.5165 94.5715 72.4772 94.5757H72.4768C72.4547 94.5776 72.4095 94.5807 72.3411 94.5848H72.3407C72.3328 94.5848 72.3228 94.5848 72.3106 94.5848C72.2889 94.5848 72.2603 94.5848 72.2248 94.5846C72.2234 94.5846 72.222 94.5846 72.2206 94.5846C72.2118 94.5846 72.2031 94.5847 72.1943 94.5849L72.0847 94.5876C72.0613 94.5873 72.0308 94.5868 71.9933 94.5858C71.9844 94.5856 71.9756 94.5855 71.9668 94.5855C71.9614 94.5855 71.9561 94.5856 71.9507 94.5856C71.9301 94.5842 71.9092 94.5831 71.8882 94.5822H71.8878C71.8572 94.5785 71.826 94.5759 71.7848 94.5744H71.7852L71.7927 94.5746C71.7557 94.5732 71.7281 94.572 71.7098 94.571H71.7094C71.6829 94.5679 71.6562 94.5657 71.6295 94.5644C71.6233 94.5641 71.617 94.5639 71.6106 94.5636H71.6107C71.5864 94.5627 71.5627 94.5623 71.5395 94.5623C71.4856 94.5623 71.435 94.5648 71.3877 94.5698C70.7491 94.6378 70.2837 95.2386 70.3483 95.9116C70.4088 96.5427 70.9139 97.0133 71.5032 97.0133C71.51 97.0133 71.5168 97.0132 71.5236 97.0131H71.524C71.5265 97.0133 71.5289 97.0135 71.5314 97.0137C71.564 97.0161 71.6068 97.0184 71.66 97.0207H71.6596L71.6633 97.0211C71.708 97.0269 71.7529 97.0299 71.7979 97.0302H71.7975C71.8375 97.0345 71.8777 97.0367 71.9179 97.0367C71.9302 97.0367 71.9424 97.0365 71.9546 97.0361L71.9722 97.0356H71.9726C72.018 97.0365 72.0566 97.0371 72.0885 97.0373C72.0901 97.0373 72.0918 97.0373 72.0935 97.0373C72.1023 97.0373 72.1112 97.0372 72.1201 97.0369L72.232 97.0343H72.2324C72.26 97.0344 72.2844 97.0344 72.3057 97.0344C72.3429 97.0344 72.3705 97.0343 72.3886 97.034H72.3884C72.4 97.0338 72.4108 97.0336 72.421 97.0332H72.4211C72.4299 97.0329 72.4385 97.0325 72.4473 97.0319C72.5293 97.0271 72.594 97.0228 72.6415 97.0191H72.642L72.6698 97.0192C72.6705 97.0192 72.6712 97.0192 72.6719 97.0192C72.6922 97.0192 72.7125 97.0186 72.7327 97.0175L72.9173 97.0073H72.9169C72.97 97.0066 73.0129 97.0056 73.0454 97.0042L73.0456 97.0042C73.0606 97.0035 73.0749 97.0027 73.0884 97.0018H73.0885C73.1035 97.0008 73.1185 96.9995 73.1335 96.9978H73.1331C73.1721 96.9946 73.2747 96.9887 73.4408 96.9802H73.4406L73.4467 96.9799C73.4577 96.9793 73.4685 96.9786 73.4794 96.9777C73.5621 96.971 73.6167 96.9667 73.6432 96.9647H73.6428C73.645 96.9647 73.6472 96.9646 73.6494 96.9645C73.6944 96.9626 73.838 96.9546 74.0801 96.9403L74.0866 96.9399C74.3408 96.9234 74.5412 96.9074 74.6877 96.8919H74.6873C74.7717 96.8883 74.8524 96.883 74.9293 96.8761H74.9297C74.9445 96.8762 74.9639 96.8764 74.9881 96.8767H74.9877L75.1172 96.8847C75.1331 96.8857 75.149 96.8864 75.165 96.8866L75.3785 96.8906C75.3853 96.8907 75.3919 96.8908 75.3987 96.8908C75.3991 96.8908 75.3996 96.8908 75.4 96.8908C75.4173 96.8907 75.434 96.8906 75.4501 96.8902H75.45C75.7046 96.8846 75.9252 96.8261 76.1119 96.7147C76.6704 96.3815 76.8669 95.6341 76.5507 95.0455C76.3369 94.6474 75.9434 94.4238 75.5382 94.4238Z" fill="#9B1D20"/>
<path d="M21.0592 61.8783L21.0601 61.8783L21.0494 61.8779L21.0486 61.8779C20.9208 61.8733 20.8236 61.87 20.7321 61.87C20.9669 61.87 19.7378 60.6456 19.3892 67.4475C19.0205 74.6406 19.7567 89.1929 20.5049 103.929L20.5013 103.874C20.7926 107.468 21.1013 109.69 22.2514 110.589C22.8987 111.096 24.086 111.368 25.9499 111.368C27.1971 111.368 28.5672 111.252 30.021 111.127C30.0396 111.126 30.0582 111.125 30.0769 111.124L63.7923 109.458C63.8112 109.457 63.8301 109.456 63.849 109.456L63.8484 109.456L63.8643 109.456L63.8649 109.456C66.4048 109.423 67.6295 109.266 68.1152 108.66C68.7024 107.926 68.7753 106.108 68.7281 103.095C68.7277 103.068 68.7279 103.04 68.7287 103.012L69.7774 67.7449L69.7776 67.7381C69.8942 64.257 69.8744 61.9397 69.1221 60.9314C68.4796 60.0703 66.9244 59.8656 64.0512 59.743L64.1619 59.7438L38.3963 60.4774L38.4448 60.4753L25.6304 61.2408C24.7259 61.2948 23.9511 60.5659 23.8998 59.6128C23.8485 58.6596 24.5402 57.8431 25.4447 57.789L38.2591 57.0235C38.2753 57.0226 38.2915 57.0218 38.3077 57.0214L64.0733 56.2877C64.1102 56.2867 64.1471 56.287 64.184 56.2885C66.3883 56.3826 69.9104 56.3946 71.701 58.7945C73.3818 61.0473 73.1508 65.0356 73.0562 67.86L73.0564 67.8532L72.0078 103.121L72.0083 103.038C72.045 105.379 72.2018 108.916 70.6226 110.889C68.9472 112.982 65.7714 112.889 63.9053 112.913L63.9059 112.913L63.8899 112.913L63.946 112.911L30.2305 114.577L30.2864 114.573C28.8628 114.695 27.3552 114.825 25.9499 114.825C24.0146 114.825 21.8641 114.592 20.296 113.366C17.6837 111.322 17.4668 107.059 17.2325 104.168C17.2311 104.15 17.2299 104.132 17.2289 104.114C16.4867 89.4944 15.7325 74.6915 16.1133 67.2611C16.45 60.6921 17.7789 58.4127 20.7321 58.4127C20.8881 58.4127 21.04 58.4182 21.1611 58.4226L21.1603 58.4226L21.1709 58.423C22.0771 58.4557 22.7859 59.2558 22.7549 60.2099C22.7238 61.1641 21.9646 61.911 21.0592 61.8783Z" fill="#9B1D20"/>
<path d="M79.1163 84.0776L78.6537 84.0791C76.9446 84.0896 74.7563 84.1233 72.0887 84.1804C71.9786 84.1798 71.7963 84.229 71.5417 84.3282C70.768 84.7469 70.4623 85.4357 70.6248 86.3946C70.6567 86.6227 70.8628 86.9265 71.243 87.306C71.5915 87.5415 71.9012 87.6518 72.1719 87.637C76.0035 87.5616 78.1592 87.5281 78.639 87.5364C78.5601 87.0164 78.5573 86.4762 78.6307 85.9159C78.649 85.8076 78.722 85.5246 78.8496 85.0667C78.8733 84.8765 78.9024 84.7181 78.9369 84.5918C78.9694 84.4632 79.0292 84.2918 79.1163 84.0776Z" fill="#9B1D20"/>
<path d="M92.2723 88.9448L92.0773 88.9795C90.5854 89.2762 89.7246 89.499 89.495 89.6479C88.4474 90.3157 87.5219 90.9564 86.7184 91.5701L85.0774 92.4267L84.3231 93.0151L69.323 107.227C68.7323 107.907 68.6115 108.589 68.9608 109.273C69.091 109.595 69.264 109.815 69.4798 109.936C69.909 110.145 70.3101 110.234 70.6831 110.202C70.8989 110.156 71.1224 110.067 71.3534 109.934L91.1305 91.2107C91.792 90.3278 92.1726 89.5725 92.2723 88.9448Z" fill="#9B1D20"/>
<path d="M43.7981 76.9614C43.9831 77.5837 43.986 78.3884 43.8065 79.3755L43.8084 79.3647C43.4584 81.3768 43.0729 82.7674 42.6521 83.5365L42.6531 83.5347C41.6706 85.3369 40.2007 86.6594 38.2435 87.502L38.3474 84.9825L40.6727 86.2417C40.7057 86.2596 40.738 86.2789 40.7695 86.2997C41.2442 86.6128 41.7778 87.1638 42.3705 87.9527C42.3824 87.9685 42.394 87.9846 42.4052 88.001C44.1373 90.5259 45.1064 92.8309 45.3123 94.9161L44.73 93.9028C44.0324 93.4156 43.4568 93.5324 43.0033 94.2535C42.9552 94.3299 42.9228 94.3966 42.9062 94.4536L42.9062 94.4535C42.9064 94.4531 42.9065 94.4525 42.9067 94.4517L42.8789 94.5737C43.0369 93.7109 43.3113 92.6738 43.7019 91.4623C43.7057 91.4507 43.7096 91.4392 43.7136 91.4277C44.261 89.8668 44.6682 88.8731 44.9352 88.4465C45.1257 88.1421 45.3531 87.9267 45.6173 87.8003L45.0243 88.364C45.7177 87.1137 46.8165 85.9934 48.3209 85.0031L49.1281 87.5637C48.9957 87.5753 48.8586 87.5743 48.7169 87.5606C48.0071 87.4919 47.0433 87.0467 45.8255 86.225L45.8487 86.2403C45.2038 85.8247 44.5376 85.1776 43.8502 84.2987C43.8484 84.2965 43.8468 84.2945 43.8451 84.2923C43.4336 83.7597 42.9741 82.9097 42.4666 81.7422C42.431 81.6604 42.4031 81.5751 42.3832 81.4876L41.6344 78.1948C41.4648 77.4493 41.9009 76.7001 42.6083 76.5214C43.3157 76.3428 44.0266 76.8023 44.1961 77.5478L44.9449 80.8406L44.8615 80.586C45.2757 81.5387 45.6178 82.1898 45.8878 82.5393L45.8828 82.5328C46.3828 83.1719 46.8295 83.6182 47.2229 83.8717C47.2306 83.8768 47.2383 83.8818 47.246 83.887C48.1035 84.4656 48.6741 84.7686 48.9577 84.796C48.9463 84.7949 48.9301 84.7953 48.9093 84.7971C49.5152 84.7439 50.077 85.1347 50.2687 85.7428C50.4604 86.3508 50.2322 87.0182 49.7165 87.3577C48.5795 88.1062 47.7735 88.9085 47.2987 89.7648C47.1612 90.0128 46.954 90.2097 46.7058 90.3284C46.903 90.2341 47.0458 90.1163 47.1342 89.9751C46.9785 90.2239 46.6619 91.0289 46.1845 92.3901L46.1962 92.3556C45.8442 93.4469 45.6007 94.3616 45.4655 95.0998C45.458 95.1409 45.4487 95.1816 45.4377 95.2218C45.4332 95.2381 45.4286 95.2542 45.424 95.2701L45.424 95.27C45.3661 95.4685 45.2911 95.6409 45.199 95.7873C44.6823 96.6088 44.0408 96.752 43.2746 96.2168C42.9465 95.9877 42.7329 95.616 42.6922 95.2035C42.5348 93.6102 41.7276 91.7516 40.2704 89.6276L40.3051 89.6759C39.9006 89.1375 39.5895 88.7965 39.3718 88.6529L39.4687 88.7109L37.1434 87.4517C36.6859 87.204 36.4072 86.6983 36.4295 86.1568C36.4518 85.6154 36.7711 85.1371 37.2472 84.9321C38.6462 84.3298 39.6868 83.4029 40.369 82.1517L40.37 82.1498C40.6395 81.6573 40.9219 80.562 41.2173 78.8641C41.218 78.8605 41.2186 78.8568 41.2193 78.8533C41.3156 78.3234 41.3373 77.9696 41.2843 77.7916C41.0668 77.0601 41.4531 76.2812 42.1473 76.0519C42.8414 75.8227 43.5805 76.2298 43.7981 76.9614Z" fill="#9B1D20"/>
<path d="M41.653 79.6681L41.653 79.6682C41.6532 79.6674 41.6533 79.6667 41.6534 79.6662L41.6534 79.6661C41.6349 79.7529 41.6297 79.8558 41.6376 79.9747L41.6372 79.9683L41.6207 79.7044C41.6185 79.6686 41.6176 79.6326 41.618 79.5967L41.6206 79.366C41.6211 79.3221 41.6236 79.2782 41.628 79.2345L41.6718 78.8046L41.6645 78.9263L41.6674 78.7674L41.6682 78.8485L41.6632 78.7158L41.6727 78.8359L41.6554 78.6924L42.7935 79.8942C42.0423 79.7921 41.6591 79.3347 41.644 78.5221C41.6437 78.5023 41.6434 78.4771 41.6433 78.4465L41.6469 78.5433L41.6384 78.4225C41.6348 78.3721 41.6338 78.3216 41.6355 78.2711C41.6379 78.1978 41.6408 78.1365 41.6443 78.0872C41.6485 78.0265 41.6545 77.971 41.6622 77.9209L41.6628 77.9174L41.704 77.6534L41.6949 77.723C41.6938 77.7331 41.693 77.7413 41.6926 77.7474C41.694 77.7267 41.6958 77.6837 41.698 77.6183L41.7849 78.1644C41.7694 78.1219 41.7578 78.0924 41.75 78.0758C42.0496 78.7204 42.5584 78.8973 43.2765 78.6064L43.2766 78.6064C43.6646 78.4493 43.9149 78.1708 44.0275 77.771L44.0681 77.1742C44.0858 77.3017 44.0896 77.4406 44.0795 77.5909L44.0815 77.4303C44.08 77.3962 44.0778 77.3678 44.0747 77.3452L44.0746 77.3446C44.0745 77.3439 44.0744 77.3433 44.0744 77.3427L44.0597 77.2562C44.1112 77.5125 44.1445 77.7113 44.1597 77.8524C44.1634 77.886 44.1662 77.9183 44.1684 77.9492L44.1632 77.8907C44.165 77.9078 44.1668 77.9257 44.1685 77.9445C44.1762 78.0324 44.183 78.1615 44.1887 78.3316L44.1877 78.3068C44.1893 78.3397 44.1903 78.3745 44.1906 78.4112C44.1913 78.4973 44.1881 78.6061 44.1809 78.7374C44.1806 78.7425 44.1803 78.7476 44.18 78.7526L44.1276 79.5575L44.128 79.5515C44.1225 79.6409 44.1194 79.6982 44.1187 79.7233C44.1187 79.7232 44.1187 79.7232 44.1187 79.7233C44.1182 79.745 44.1172 79.7666 44.1157 79.7882L44.1156 79.7883C44.1168 79.7716 44.1175 79.7575 44.1179 79.7459C44.1169 79.781 44.1164 79.8824 44.1163 80.0501C44.1163 80.0687 44.1159 80.0874 44.1152 80.106C44.1122 80.1819 44.1101 80.2736 44.1089 80.3812L44.1089 80.3761L44.1052 80.8372L44.1048 80.7887C44.1161 81.2415 44.1237 81.502 44.1275 81.5702L44.1275 81.5703C44.127 81.5618 44.1262 81.5511 44.125 81.5383C44.1263 81.5526 44.1274 81.5668 44.1283 81.5811L44.1588 82.0768L44.1536 82.0135L44.1536 82.0136L44.1549 82.0263C44.1839 82.3265 44.201 82.5279 44.2064 82.6304L44.2004 82.5536C44.2024 82.573 44.2043 82.5944 44.2059 82.6178C44.2108 82.6858 44.2209 82.874 44.2361 83.1824L44.2349 83.1612L44.2349 83.1618L44.2349 83.161C44.2428 83.284 44.2485 83.533 44.252 83.9079C44.2521 83.9189 44.2521 83.9298 44.252 83.9408C44.2458 84.4116 44.2322 84.8958 44.2112 85.3935L44.2112 85.3914C44.2083 85.4622 44.2018 85.559 44.1916 85.6818C44.1902 85.6993 44.1884 85.7169 44.1863 85.7344C44.1671 85.8943 44.1452 86.1175 44.1205 86.404C44.0545 87.1674 43.4138 87.73 42.6894 87.6605C41.9649 87.5911 41.4311 86.9158 41.497 86.1524C41.5245 85.8339 41.5497 85.5788 41.5727 85.3871L41.5673 85.4397C41.5741 85.3578 41.5782 85.3019 41.5794 85.2719L41.5795 85.2698C41.5993 84.8006 41.6121 84.3449 41.6179 83.9025L41.6179 83.9355C41.6148 83.6141 41.6111 83.4187 41.6066 83.3491L41.6065 83.3483L41.6065 83.3476C41.6061 83.3415 41.6057 83.334 41.6053 83.3264C41.5912 83.0399 41.5825 82.8735 41.5792 82.8275C41.5798 82.8362 41.5808 82.8469 41.5821 82.8596C41.5794 82.834 41.5774 82.8085 41.5761 82.7828C41.573 82.7233 41.559 82.5649 41.5341 82.3076L41.5354 82.3202L41.5354 82.3201C41.5325 82.2906 41.5311 82.2737 41.5301 82.2568L41.4995 81.7611L41.5028 81.8039C41.5008 81.7822 41.4991 81.7582 41.4976 81.7321L41.4976 81.7322C41.4922 81.6344 41.4835 81.3443 41.4714 80.862C41.471 80.8458 41.4708 80.8296 41.471 80.8135L41.4747 80.3524L41.4747 80.3473C41.4763 80.2131 41.4791 80.0947 41.4831 79.9921L41.482 80.048C41.4821 79.8551 41.483 79.7284 41.4846 79.6679C41.4854 79.6374 41.4867 79.6096 41.4885 79.5843L41.4854 79.6494C41.4854 79.647 41.4855 79.6445 41.4856 79.6418C41.4872 79.5845 41.4917 79.495 41.4991 79.3735L41.4995 79.3674L41.5519 78.5625L41.551 78.5777C41.5548 78.5075 41.5566 78.4599 41.5564 78.435C41.5565 78.4398 41.5567 78.4465 41.5571 78.455C41.5567 78.4467 41.5564 78.4385 41.5561 78.4302C41.5521 78.3131 41.5486 78.2371 41.5455 78.202C41.5457 78.2039 41.5459 78.2065 41.5463 78.2099C41.5442 78.1904 41.5424 78.1709 41.5411 78.1514C41.5415 78.1578 41.5419 78.1627 41.5423 78.1662C41.5365 78.1127 41.5166 78.0009 41.4824 77.8308C41.4767 77.8022 41.4718 77.7733 41.4678 77.7443C41.4676 77.7431 41.4674 77.7419 41.4672 77.7405L41.4672 77.7399C41.458 77.6727 41.4522 77.6109 41.4498 77.5544C41.4476 77.5008 41.4482 77.4472 41.4518 77.3938C41.4484 77.4444 41.4517 77.5056 41.4617 77.5774C41.4339 77.3778 41.4477 77.1741 41.5023 76.9806C41.6358 76.5068 41.9122 76.1849 42.3314 76.0151L42.3315 76.0151C43.1138 75.6982 43.7086 75.9782 44.1159 76.8548C44.1578 76.945 44.2004 77.0495 44.2438 77.1685C44.3073 77.3425 44.3368 77.5283 44.3307 77.7146C44.3274 77.8162 44.3237 77.8955 44.3197 77.9524C44.3176 77.9819 44.3152 78.0094 44.3125 78.0348C44.31 78.058 44.3069 78.0813 44.3033 78.1044L44.2621 78.3684L44.2626 78.3649C44.2671 78.3355 44.2701 78.3109 44.2715 78.2911C44.2705 78.3047 44.2695 78.3301 44.2682 78.3674L44.2654 78.216L44.2739 78.3368C44.2762 78.369 44.2774 78.4013 44.2775 78.4336C44.2776 78.4505 44.2777 78.4618 44.2778 78.4677C44.2633 77.6852 43.8809 77.2429 43.1306 77.1409C43.7243 77.2207 44.1931 77.7151 44.2687 78.3427L44.286 78.4863C44.2908 78.5262 44.294 78.5662 44.2955 78.6064L44.3004 78.739C44.3014 78.766 44.3017 78.7931 44.3012 78.8201L44.2983 78.979C44.2976 79.0196 44.2952 79.0602 44.2911 79.1007L44.2473 79.5307L44.2547 79.3992L44.2521 79.63L44.2494 79.5223L44.2658 79.7862L44.2654 79.7798C44.2755 79.9315 44.2617 80.0962 44.2238 80.2741L44.2238 80.274C44.2215 80.2846 44.2192 80.2955 44.2167 80.3067C44.0492 81.0529 43.3397 81.5147 42.6317 81.3383C41.9238 81.1619 41.4856 80.4141 41.653 79.6681Z" fill="#9B1D20"/>
<path d="M40.1702 85.7998C40.2295 85.9187 40.3023 86.0254 40.3855 86.119L40.3854 86.1191C40.3872 86.1328 40.389 86.1467 40.3909 86.1607C40.3118 86.0588 40.2382 85.9385 40.1701 85.7998H40.1702ZM44.7378 83.3911C44.2589 83.3911 43.8319 83.609 43.4568 84.0448C43.3438 84.1761 43.2543 84.328 43.1929 84.493C43.164 84.5707 43.1377 84.6482 43.114 84.7255C43.0833 84.6972 43.0523 84.6699 43.021 84.6436C42.8777 84.5229 42.7291 84.4223 42.5754 84.342L42.5752 84.3421C42.2852 83.8014 41.9088 83.531 41.4458 83.531C41.1906 83.531 40.909 83.6132 40.6012 83.7776C40.5099 83.8263 40.4204 83.885 40.3326 83.9536C40.2725 84.0005 40.2162 84.0524 40.1641 84.1089C39.7899 84.5144 39.619 84.9878 39.6513 85.5292L39.6512 85.5293C39.6483 86.2072 39.842 86.869 40.2321 87.5149C40.2594 87.5601 40.289 87.6036 40.3208 87.6454C40.6167 88.0336 40.9007 88.3614 41.1727 88.6289L41.1726 88.629C41.3527 89.0977 41.6499 89.5664 42.0641 90.0352C42.0747 90.0472 42.0855 90.059 42.0965 90.0706C42.3139 90.3007 42.5336 90.4868 42.7555 90.6287C42.791 90.6514 42.8263 90.673 42.8617 90.6936L42.8615 90.6937C43.1186 90.8916 43.3855 91.0468 43.6621 91.1593C43.8028 91.2165 43.9515 91.2492 44.1023 91.2559C44.1433 91.2577 44.1835 91.2587 44.2229 91.2587C45.1306 91.2587 45.6133 90.771 45.671 89.7958L45.6708 89.7959C45.7939 89.5407 45.9054 89.2155 46.0052 88.8204L46.0051 88.8205C46.0393 88.8064 46.0738 88.7914 46.1084 88.7755C46.2067 88.7301 46.2996 88.6729 46.3854 88.605C46.6996 88.3562 46.9415 88.0236 47.1111 87.6072C47.1768 87.4461 47.2311 87.2728 47.274 87.0873C47.2863 87.034 47.2958 86.9801 47.3023 86.9258C47.3982 86.1327 47.1757 85.5351 46.6348 85.133L46.6346 85.1331C46.5351 85.0469 46.4285 84.9618 46.315 84.8779L46.3148 84.8779C46.3135 84.8716 46.3122 84.8654 46.3109 84.8592C46.1084 83.902 45.5978 83.4129 44.779 83.3916L44.779 83.3917C44.7652 83.3913 44.7515 83.3911 44.7378 83.3911Z" fill="#9B1D20"/>
<path d="M115.255 44.7273C115.214 44.7273 115.173 44.7285 115.131 44.731L115.13 44.731C114.303 44.7708 113.436 45.2985 112.53 46.3141L112.53 46.3142C111.863 46.9925 111.214 47.9301 110.582 49.1268L110.582 49.1269C110.03 50.0353 109.711 51.0488 109.624 52.1674C109.614 52.2953 109.635 52.4237 109.685 52.5408C109.737 52.6633 109.81 52.7646 109.904 52.8449L109.904 52.8451C110.074 52.9901 110.237 53.0626 110.392 53.0626C110.583 53.0626 110.764 52.9532 110.933 52.7342C111.079 52.5481 111.386 52.2863 111.856 51.9487L111.856 51.9487L113.111 51.0843L115.51 49.8718C115.525 49.8641 115.54 49.856 115.555 49.8473C116.203 49.4591 116.651 49.1414 116.899 48.8941L116.898 48.8942C117.84 48.0593 118.068 47.0302 117.582 45.8068C117.537 45.6929 117.466 45.5923 117.375 45.5138C116.853 45.0611 116.31 44.8213 115.747 44.7943L115.746 44.7943C115.593 44.7496 115.43 44.7273 115.255 44.7273Z" fill="#9B1D20"/>
<path d="M115.211 54.559C116.334 54.5317 117.235 54.6285 117.914 54.8497C117.917 54.8508 117.921 54.852 117.924 54.8532C118.568 55.0747 119.068 55.2863 119.423 55.4881L119.403 55.4769C120.116 55.8513 120.662 56.1861 121.043 56.4814L120.943 56.4165C121.502 56.7174 121.829 56.8873 121.924 56.9261C121.882 56.9091 121.832 56.8976 121.774 56.8915C121.837 56.8981 121.9 56.9136 121.96 56.9377C122.289 57.0698 122.509 57.1277 122.619 57.1116C122.611 57.1128 122.6 57.1162 122.586 57.1218C122.605 57.1142 122.623 57.1074 122.643 57.1014C122.687 57.0876 122.716 57.0745 122.73 57.0622C122.721 57.0699 122.715 57.0796 122.712 57.0913C122.729 57.0347 122.714 56.9253 122.669 56.7631C122.639 56.658 122.597 56.5415 122.543 56.4136L122.558 56.4468C122.306 55.9287 121.765 55.5268 120.933 55.2411L120.957 55.2491C120.378 55.074 119.549 55.0231 118.471 55.0963L118.506 55.093C118.018 55.152 117.663 55.2151 117.441 55.2823C117.436 55.2836 117.431 55.285 117.427 55.2863C117.038 55.3952 116.493 55.6109 115.79 55.9333C115.425 56.1008 115.001 55.9248 114.842 55.5402C114.683 55.1556 114.85 54.708 115.214 54.5404C115.983 54.1874 116.597 53.9466 117.057 53.818L117.043 53.822C117.341 53.7317 117.774 53.6522 118.342 53.5836C118.354 53.5822 118.366 53.581 118.378 53.5802C119.623 53.4957 120.615 53.5651 121.355 53.7886C121.363 53.7911 121.371 53.7937 121.379 53.7966C122.589 54.2118 123.41 54.8648 123.841 55.7554C123.847 55.7663 123.852 55.7774 123.857 55.7886C123.938 55.9794 124.003 56.1606 124.051 56.3321C124.181 56.7922 124.192 57.1985 124.086 57.5512C124.003 57.8264 123.855 58.0555 123.643 58.2383C123.479 58.3799 123.282 58.4866 123.052 58.5583L123.108 58.5379C123.017 58.5751 122.92 58.6013 122.817 58.6164C122.463 58.6683 122.006 58.582 121.447 58.3575L121.634 58.4037C121.561 58.3963 121.485 58.376 121.404 58.3429C121.262 58.2852 120.89 58.094 120.287 57.7695C120.252 57.7507 120.219 57.729 120.188 57.7046C119.874 57.4612 119.398 57.172 118.76 56.8367C118.753 56.8331 118.746 56.8294 118.739 56.8255C118.46 56.6668 118.039 56.4908 117.477 56.2976L117.488 56.3011C116.959 56.1288 116.211 56.0544 115.244 56.0779C114.846 56.0876 114.516 55.7555 114.507 55.336C114.497 54.9166 114.813 54.5687 115.211 54.559Z" fill="#9B1D20"/>
<path d="M118.836 54.0037C118.496 54.0037 118.194 54.2583 118.129 54.6233C118.061 55.0049 118.276 55.3734 118.619 55.4875L118.618 55.4876C118.654 55.5349 118.696 55.5811 118.744 55.6263C118.786 55.666 118.838 55.7103 118.899 55.7589L118.899 55.759C119.594 56.3178 120.255 56.7709 120.882 57.1182L120.881 57.1183C120.926 57.1572 120.974 57.1969 121.022 57.2373L121.022 57.2373C121.355 57.517 121.675 57.7122 121.981 57.8227L121.981 57.8228C122.018 57.8363 122.054 57.8482 122.09 57.8584C122.224 57.8966 122.348 57.9157 122.464 57.9157C122.787 57.9157 123.039 57.7676 123.221 57.4716L123.22 57.4717C123.443 57.2212 123.473 56.8965 123.311 56.4974C123.254 56.3572 123.159 56.1895 123.028 55.9944C123.014 55.9725 122.998 55.9515 122.981 55.9314C122.487 55.3402 121.959 54.9795 121.398 54.8493L121.397 54.8494C121.155 54.7076 120.95 54.6139 120.782 54.5683C120.682 54.5409 120.585 54.5273 120.492 54.5273C120.465 54.5273 120.437 54.5285 120.411 54.5309L120.41 54.531C120.307 54.5367 120.213 54.5507 120.13 54.5731C119.963 54.4756 119.828 54.4024 119.723 54.3533L119.722 54.3533C119.456 54.1836 119.221 54.0748 119.017 54.0269C119.001 54.0233 118.986 54.0199 118.97 54.0168C118.925 54.0079 118.88 54.0037 118.836 54.0037Z" fill="#9B1D20"/>
<path d="M82.3275 66.3406L82.274 66.3411C81.7024 66.3441 81.2017 66.4338 80.7716 66.6101C80.5484 66.6981 80.3348 66.8075 80.1308 66.9384C80.0168 66.9771 79.7322 67.2218 79.277 67.6726C78.9296 68.0504 78.6596 68.5023 78.4669 69.0283C78.5753 69.382 78.4899 69.9332 78.2104 70.682C78.2941 71.6306 78.5459 72.3929 78.9656 72.9687C79.7161 72.493 80.374 72.4883 80.9393 72.9548C81.2292 73.199 81.489 73.5156 81.7187 73.9044C82.0793 74.7292 82.3417 75.4 82.5059 75.9166C82.6037 76.2506 82.6077 76.5644 82.518 76.8581C82.4176 77.1474 82.2341 77.3691 81.9676 77.5233L82.0669 77.746C81.6801 78.3053 81.436 78.9166 81.3345 79.5799C81.2596 80.3139 81.3022 80.9399 81.4625 81.458L82.5047 80.7046C82.5753 80.656 82.65 80.6159 82.7288 80.5844L87.2531 78.897C89.0947 78.4352 90.1281 78.113 90.3534 77.9303C90.0632 76.413 89.6814 75.1575 89.2081 74.1638C88.1252 71.8809 87.255 70.3095 86.5974 69.4496C85.7917 68.3301 85.1213 67.5846 84.5862 67.2132C84.4354 67.0386 83.9836 66.7943 83.2307 66.4802C82.9295 66.3871 82.6285 66.3406 82.3275 66.3406Z" fill="#9B1D20"/>
<path d="M90.081 80.6343L89.891 80.6934C89.2215 80.8933 88.5734 81.0707 87.9466 81.2255L84.2123 82.6184C84.157 82.6714 84.0811 82.7112 83.9845 82.7378C83.8741 82.8203 83.755 82.8979 83.6272 82.9706L83.0249 83.2867L82.7642 83.4752C83.0191 83.6845 83.2454 83.8372 83.4432 83.9334C83.8756 84.1437 84.2578 84.2804 84.5898 84.3433C84.8476 84.398 85.1145 84.4158 85.3903 84.3967L85.9408 84.31L86.413 84.1905C87.317 83.9093 88.0802 83.4449 88.7026 82.797C89.3041 82.1846 89.7636 81.4637 90.081 80.6343Z" fill="#9B1D20"/>
<path d="M76.1487 85.6892L76.1488 85.6893C76.1483 85.6897 76.1461 85.6904 76.1419 85.6914C76.1379 85.6924 76.1334 85.6934 76.1285 85.6945C76.1168 85.697 76.1052 85.6993 76.0938 85.7014C76.1003 85.6997 76.1053 85.6985 76.1089 85.6976L76.1186 85.6953L76.1207 85.6948L76.1282 85.6931C76.1333 85.692 76.1375 85.6911 76.1408 85.6905C76.1444 85.6898 76.1464 85.6894 76.1466 85.6894L76.1478 85.6893L76.1487 85.6892Z" fill="#9B1D20"/>
<path d="M93.1637 79.2036L93.0382 79.2071C92.6976 79.2258 92.3091 79.3193 91.8729 79.4876C91.8626 79.6457 91.6972 79.8545 91.3767 80.1139C91.1703 80.2536 90.9045 80.3713 90.5795 80.4672C90.0728 81.0124 89.7426 81.581 89.589 82.1727C89.132 82.1912 88.6679 82.1173 88.1966 81.9509L88.1694 81.1691L87.9464 81.2255L84.2122 82.6183L83.627 82.9705L83.0646 83.2657L81.7218 84.2546C81.3558 84.6115 81.0872 85.4143 80.916 86.663L83.092 88.5901C83.2153 88.6956 83.3973 88.8217 83.6382 88.9684C83.7424 88.9692 84.0509 88.8953 84.5637 88.7467C84.9872 88.5361 86.4825 87.9777 89.0495 87.0716C89.4191 86.9568 90.1144 86.8086 91.1353 86.6268C93.0129 86.275 94.7106 86.3447 96.2286 86.8361C96.6381 86.1169 96.975 85.2881 97.2392 84.3498C97.3711 83.396 97.3237 82.5911 97.0971 81.9352C96.9433 81.5361 96.7612 81.1807 96.551 80.8691L96.2144 80.4345C95.9759 80.1667 95.7093 79.9426 95.4144 79.7622C94.8722 79.4022 94.122 79.216 93.1637 79.2036Z" fill="#9B1D20"/>
<path d="M93.5525 88.8487L93.5372 88.8488C93.2054 88.8468 92.857 88.8666 92.4919 88.9081C92.4327 88.9352 92.3704 88.957 92.3049 88.9735C91.5352 89.1418 91.0863 89.2451 90.9583 89.2833C90.7101 89.3478 90.542 89.3997 90.4542 89.4391L89.2423 89.9495L89.0829 90.0404C88.9012 90.1827 88.7022 90.3322 88.4858 90.489C88.7139 90.5136 89.0317 90.5295 89.4392 90.5366L90.0018 90.5193L90.5537 90.4673L91.0948 90.3806L91.6253 90.2593L92.145 90.1032L92.654 89.9125C92.9085 89.8104 93.2697 89.6299 93.7377 89.3712C93.9952 89.2217 94.2276 89.0682 94.4349 88.9107C94.3141 88.8946 94.138 88.878 93.9067 88.861C93.7785 88.8528 93.6605 88.8487 93.5525 88.8487Z" fill="#9B1D20"/>
<path d="M89.3532 89.7681L89.3361 89.7912C89.3015 89.8372 89.2638 89.8803 89.2232 89.9206C89.1789 89.9637 89.1393 89.998 89.1045 90.0238C89.1252 90.0089 89.1454 89.9932 89.165 89.9766L89.1942 89.9509C89.2134 89.9334 89.2321 89.9149 89.2503 89.8955C89.2686 89.8761 89.2863 89.8558 89.3035 89.8345L89.329 89.802L89.3537 89.7681H89.3532Z" fill="#9B1D20"/>
<path d="M83.9472 74.8004L83.9581 74.8136C84.0408 74.9133 84.102 74.9942 84.1419 75.0563C84.172 75.1037 84.1908 75.136 84.1982 75.1531C84.206 75.1764 84.1986 75.1741 84.1762 75.1464C84.1586 75.1246 84.1371 75.0946 84.1117 75.0565L83.9468 74.8005L83.9472 74.8004ZM80.0187 72.6089L80.0328 72.609C80.3115 72.6227 80.5645 72.7011 80.7917 72.8443C81.1447 73.1239 81.3687 73.3474 81.4635 73.515C81.6656 73.7864 81.8067 74.0452 81.8868 74.2913C82.1366 74.852 82.3565 75.4514 82.5466 76.0892C82.6378 76.4932 82.5754 76.8529 82.3593 77.1684C82.3461 77.209 82.2702 77.2925 82.1318 77.419C82.0722 77.4651 82.0065 77.5048 81.9349 77.5382C81.7923 77.6049 81.624 77.6461 81.4301 77.6617C81.3493 77.6617 81.2715 77.6541 81.1966 77.6387C81.0148 77.587 80.9092 77.5468 80.88 77.518C80.7482 77.4414 80.6284 77.3341 80.5205 77.1961C80.4497 77.0933 80.4018 77.0114 80.3768 76.9504C80.2411 76.4458 80.0889 76.0082 79.9202 75.6376L79.4321 76.6063L79.0486 77.1931C78.8834 77.3781 78.7206 77.4957 78.5603 77.5459C78.2735 77.6583 77.9684 77.6381 77.645 77.4854C77.2964 77.2387 77.0959 76.9831 77.0436 76.7186C76.9924 76.5114 77.0026 76.2672 77.0743 75.986L77.1492 75.8185L77.4765 75.3023C77.6913 74.846 77.8722 74.4876 78.0191 74.2271C78.1817 73.9285 78.3356 73.6722 78.4807 73.458C78.9283 72.886 79.4409 72.603 80.0187 72.6089ZM75.8306 64.1162L75.7011 64.199C75.433 64.3595 75.043 64.82 74.531 65.5804C74.9528 65.442 75.4336 65.4532 75.9732 65.6139C76.4358 65.7432 76.9625 66.1296 77.5535 66.7732C78.396 68.0061 78.6767 69.1679 78.3956 70.2586C78.0258 71.0687 77.5536 71.6116 76.9791 71.8873C76.7235 72.0206 76.1267 72.1372 75.1886 72.2371C74.5825 72.1036 74.0053 71.7852 73.4572 71.282L72.3563 69.7903C72.2629 69.6383 72.2072 69.4182 72.1894 69.1299C72.1886 69.1039 72.0795 69.2227 71.8618 69.4865C71.3622 70.1401 71.0003 70.8912 70.7763 71.74C70.5829 72.8617 70.5776 73.9579 70.7604 75.0286C70.5406 75.5213 70.4101 75.8778 70.369 76.0978L69.4514 81.017C69.4649 80.6737 69.4553 80.5729 69.4224 80.7146C69.3541 81.0115 69.3503 81.4371 69.411 81.9914C69.4041 82.2499 69.552 82.8315 69.8547 83.7363C69.9954 84.0756 70.1643 84.3826 70.3614 84.6573C70.716 85.1891 71.2619 85.6267 71.9992 85.97C72.3373 86.1063 72.8574 86.2118 73.5596 86.2866C74.29 86.2792 75.0598 86.1077 75.8691 85.7721L78.627 85.7849C79.1109 83.8764 79.6556 82.7221 80.2609 82.3219L82.6592 80.615L87.5031 78.8294C87.3275 78.4364 86.9711 78.0465 86.4342 77.6598C86.1512 77.4535 85.6853 77.2487 85.0365 77.0454C84.992 75.767 84.6479 73.8288 84.0041 71.2306C83.411 69.4831 83.0415 68.447 82.8954 68.1222C82.3626 67.0234 81.7513 66.0032 81.0614 65.0616C80.5429 64.4508 80.2772 64.1748 80.2643 64.2337C80.0519 65.4705 79.3648 66.0194 78.203 65.8803C77.7482 65.7369 77.2027 65.4394 76.5663 64.9878C76.2361 64.7206 75.9909 64.4301 75.8306 64.1162Z" fill="#9B1D20"/>
<path d="M79.9004 82.1792C79.9231 82.3173 79.9527 82.4553 79.9893 82.5929L79.9889 82.593C79.9499 82.4486 79.9203 82.3106 79.8999 82.1792H79.9004Z" fill="#9B1D20"/>
<path d="M83.7602 82.9602L83.7371 82.9642L83.714 82.9681C83.6842 82.9734 83.6543 82.9792 83.6243 82.9853C83.5992 82.9906 83.5842 82.9938 83.5792 82.9949L83.5797 82.995L83.5776 82.996C83.6017 82.9908 83.6276 82.9854 83.6554 82.9797L83.6905 82.9729L83.7256 82.9664L83.7608 82.9602H83.7602Z" fill="#9B1D20"/>
<path d="M83.7995 77.3032L83.6987 77.3046C82.4095 77.3735 81.3783 77.943 80.6052 79.0132C80.301 79.4296 80.0752 79.9627 79.9278 80.6123C79.8866 80.8169 79.8603 81.0245 79.8489 81.2353C79.8345 81.2871 79.8403 81.5177 79.8662 81.927C79.8505 82.3495 79.8342 82.6463 79.8174 82.8174C80.0887 82.5155 80.293 82.313 80.4304 82.2099L82.6137 80.6379C82.6483 80.6185 82.6946 80.5976 82.7525 80.5751L86.9825 78.9978C86.6244 78.5108 86.2158 78.1287 85.7569 77.8514L85.4032 77.6631C85.1611 77.5507 84.9064 77.4645 84.6391 77.4045C84.3718 77.3445 84.0919 77.3108 83.7995 77.3032Z" fill="#9B1D20"/>
<path d="M87.7581 81.2959L84.212 82.6184C83.8277 82.8652 83.4318 83.088 83.0245 83.2867L81.8296 84.1519C81.7765 84.1913 81.6855 84.2895 81.5567 84.4463C81.4548 84.5454 81.3073 84.9183 81.1141 85.5648C81.0494 85.8687 80.9834 86.2348 80.9158 86.6632C80.9018 86.7434 80.9006 86.9271 80.912 87.2141C80.9338 87.5519 81.0372 87.8795 81.2223 88.1971C81.4358 88.426 81.719 88.6244 82.072 88.7923C82.3307 88.9223 82.7931 88.9872 83.4593 88.9869C83.8176 88.9496 84.1857 88.8695 84.5636 88.7467C84.6896 88.653 85.9525 88.177 88.3524 87.3185C88.4252 86.4246 88.173 85.5226 87.5956 84.6123C87.7678 82.7637 87.8219 81.6583 87.7581 81.2959Z" fill="#9B1D20"/>
<path d="M78.6953 60.9712C78.6951 60.9727 78.7394 61.0093 78.8282 61.0807C78.7637 61.0249 78.7194 60.9884 78.6953 60.9712Z" fill="#9B1D20"/>
<path d="M79.9203 75.6375L79.8733 75.7258C79.7554 75.9479 79.6464 76.1709 79.5464 76.3949C79.6307 76.3625 79.715 76.3267 79.7993 76.2877C79.8624 76.2602 79.9679 76.2064 80.1158 76.126C80.0479 75.9496 79.9827 75.7867 79.9203 75.6375Z" fill="#9B1D20"/>
<path d="M93.571 88.8445L93.351 88.8477C93.1538 88.8507 92.868 88.8707 92.4935 88.9076C92.434 88.935 92.3713 88.9569 92.3054 88.9735C91.8833 89.065 91.5902 89.1302 91.4263 89.1691C92.4961 89.4026 93.494 89.44 94.4199 89.2814C94.8297 89.5534 95.5393 89.7443 96.5489 89.8542C96.6638 89.9688 96.8625 90.1408 97.1451 90.3702L96.5485 89.6558L96.4062 89.5414L96.1436 89.5361L96.0466 89.5256C96.0135 89.5223 95.9345 89.4997 95.8094 89.4577C95.6444 89.391 95.4949 89.2801 95.361 89.125L95.0354 89.0399C94.783 88.9792 94.5298 88.9287 94.2759 88.8885C94.1223 88.8626 93.8873 88.8479 93.571 88.8445Z" fill="#9B1D20"/>
<path d="M80.3098 51.8259L80.3598 51.8739C80.4219 51.9352 80.4781 51.9935 80.5284 52.0488L80.565 52.0897C80.5887 52.1167 80.6109 52.1428 80.6316 52.1682C80.6523 52.1937 80.6715 52.2184 80.6893 52.2423C80.6471 52.1888 80.5896 52.1209 80.5166 52.0388L80.4185 51.9345L80.3093 51.8259H80.3098ZM80.4167 54.0199L80.5395 54.0216L80.6595 54.0265L80.7767 54.0348C80.8148 54.0387 80.853 54.0426 80.8911 54.0464L81.0027 54.0613L81.1115 54.0795L81.2175 54.101L81.3206 54.1258L81.421 54.154L81.4099 54.1573C81.2485 54.1124 81.0824 54.0782 80.9117 54.0546L80.8276 54.0441L80.7431 54.0354L80.6585 54.0287L80.5736 54.0239L80.4886 54.021C80.4412 54.0203 80.4126 54.02 80.4028 54.0201L80.4167 54.0199ZM77.2055 60.48L77.3139 60.4845C77.3483 60.4706 77.5765 60.5263 77.9985 60.6517L78.6475 60.9381C78.7507 61.0071 78.8325 61.0685 78.8929 61.1223L79.4446 61.7015C79.5848 61.8962 79.6893 62.0464 79.7581 62.1523C79.9728 62.5416 80.1042 62.8417 80.1524 63.0525C80.2289 63.3136 80.259 63.7828 80.2429 64.46C80.2266 64.5623 80.2068 64.6415 80.1835 64.6976C80.1448 64.8061 80.0847 64.9394 80.0031 65.0973C79.9125 65.2291 79.8088 65.3567 79.6921 65.4799C79.6597 65.5206 79.526 65.6176 79.291 65.7711C79.0589 65.892 78.8097 65.9467 78.5435 65.9352C78.0875 65.9389 77.4736 65.6559 76.7018 65.0861C76.4829 64.899 76.2708 64.6902 76.0654 64.4598L75.6812 63.8878C75.6243 63.7938 75.5686 63.6512 75.5143 63.4599C75.5054 63.4331 75.4946 63.3493 75.482 63.2085C75.4362 63.0797 75.3924 62.9148 75.3506 62.7139C75.3232 62.5559 75.3089 62.4523 75.3074 62.4031C75.334 62.0364 75.3827 61.786 75.4534 61.6521C75.6561 61.2815 75.8762 61.0121 76.1136 60.8437C76.3735 60.6303 76.7375 60.5091 77.2055 60.48ZM87.5905 61.507L87.6056 61.5071C88.1093 61.5321 88.4924 61.6047 88.755 61.725C88.9781 61.8124 89.2392 61.9993 89.5382 62.2857C89.6336 62.3932 89.7079 62.5042 89.7612 62.6188L90.0445 63.4974C90.0748 63.6728 90.0821 63.829 90.0666 63.966C90.0225 64.2427 89.959 64.4905 89.8762 64.7094C89.6411 65.1744 89.4797 65.4499 89.392 65.5357C89.2094 65.7238 88.7866 66.0446 88.1236 66.4981C87.8092 66.6837 87.419 66.8108 86.9532 66.8796C86.5886 66.8662 86.264 66.8054 85.9794 66.6972C85.8371 66.6431 85.7048 66.5771 85.5825 66.4993L85.4065 66.3737C85.2942 66.2841 85.1919 66.1826 85.0996 66.0692C84.9717 65.8927 84.855 65.6409 84.7494 65.314C84.6798 64.9249 84.6688 64.5641 84.7165 64.2314C84.758 63.9491 84.8759 63.6047 85.0701 63.1981C85.1843 62.981 85.356 62.7628 85.5849 62.5436C85.6635 62.4724 85.8418 62.3452 86.1197 62.1617C86.3664 62.0167 86.4923 61.9522 86.4975 61.968C86.5549 61.9034 86.7375 61.786 87.0455 61.6159C87.1759 61.5526 87.3575 61.5163 87.5905 61.507ZM75.2942 65.4322L75.4057 65.4383C75.697 65.4852 76.0414 65.6112 76.439 65.8163C76.895 66.0754 77.2589 66.3783 77.5307 66.7249C77.8156 67.0999 78.0042 67.3751 78.0965 67.5506C78.3631 68.4577 78.4991 69.058 78.5044 69.3515C78.4899 69.722 78.4259 70.081 78.3125 70.4286C78.2276 70.7089 78.0442 70.9976 77.7621 71.2946C77.3634 71.6593 76.9765 71.9158 76.6013 72.0641C76.2847 72.1955 75.8496 72.2607 75.2959 72.2597C74.7589 72.2057 74.164 71.8876 73.5115 71.3056L72.939 70.6604C72.8024 70.4806 72.6951 70.2972 72.6171 70.1102C72.5751 70.1009 72.4695 69.9636 72.3002 69.6983C72.2346 69.5572 72.1937 69.3009 72.1773 68.9294C72.1666 68.6105 72.2359 68.2165 72.3853 67.7473C72.494 67.5292 72.593 67.3576 72.6823 67.2325C72.7374 67.1328 72.8622 67.0115 73.0567 66.8686L73.3514 66.3869C73.6223 66.1404 73.8113 65.9816 73.9186 65.9106C74.0646 65.8038 74.2066 65.7131 74.3445 65.6386C74.4886 65.5578 74.8052 65.489 75.2942 65.4322ZM91.266 66.3526L91.3961 66.3645L92.0078 66.5169L92.5454 66.7331L93.0091 67.0134C93.2703 67.2352 93.432 67.3832 93.4943 67.4572C94.0247 68.1171 94.2708 68.9906 94.2327 70.078C94.215 70.215 94.1904 70.3441 94.1587 70.4654L93.8302 71.4797L93.7524 71.6654C93.5093 72.1044 93.2927 72.4181 93.1027 72.6064C92.4367 73.2229 91.6173 73.4887 90.6443 73.404C90.0834 73.3117 89.6852 73.1973 89.4498 73.0607C88.9592 72.8053 88.621 72.5368 88.4352 72.2553C88.2932 72.0801 88.1221 71.8216 87.9217 71.4799C87.8049 71.2405 87.6892 70.9547 87.5744 70.6223C87.4602 70.2886 87.4076 69.851 87.4166 69.3097C87.4433 69.0648 87.5099 68.8308 87.6164 68.6077L88.1404 67.72C88.306 67.5146 88.4184 67.3919 88.4775 67.3518C89.1544 66.919 89.5643 66.6823 89.7074 66.6414C90.1313 66.4958 90.6508 66.3996 91.266 66.3526ZM98.0047 43.6233L97.594 43.6645C96.46 43.8843 95.0164 44.9835 93.2633 46.9619C91.9989 49.6936 91.1969 51.7844 90.8573 53.2344C89.0562 52.5983 86.0504 52.863 81.8398 54.0285L80.872 52.4571C80.4079 50.5335 80.0783 49.291 79.8833 48.7297C78.9625 47.1901 78.4567 46.3995 78.3658 46.3579C76.5014 44.6552 74.5116 44.4688 72.3964 45.7987C71.6711 46.7679 71.0162 48.0926 70.4317 49.7729C70.2229 51.5969 70.1294 52.6451 70.151 52.9175L70.6304 56.5852C70.5474 56.5246 70.4543 56.7991 70.351 57.4084C70.2149 58.8518 70.1599 60.0321 70.1857 60.9493C70.4107 62.5583 70.7737 63.9312 71.2749 65.0681C71.157 66.7817 71.3135 68.4067 71.7444 69.9431C72.3944 71.7953 73.247 73.2752 74.3022 74.383C75.3813 75.3377 76.2846 75.9908 77.0122 76.3422C77.0308 76.1311 77.0742 75.9599 77.1423 75.8286L78.6166 73.2991C79.0412 72.7924 79.5965 72.5682 80.2826 72.6267C80.6639 72.74 81.0125 72.972 81.3285 73.3227C81.557 73.5089 81.8554 74.1092 82.2236 75.1238L82.8883 75.6107C84.01 76.3301 85.3566 76.6498 86.9281 76.5697L87.2286 77.1406C86.4681 77.5938 85.763 78.2579 85.1133 79.1329C84.646 78.6528 83.8116 78.4883 82.6099 78.6393C81.8866 78.9382 81.2617 79.2761 80.7351 79.6529C80.2609 79.9935 79.8377 80.501 79.4656 81.1753C79.289 82.061 79.2428 82.8831 79.3273 83.6417C79.3886 83.2959 79.6167 82.9465 80.0116 82.5934C80.7468 81.9309 81.6526 81.2612 82.7289 80.5843L87.2531 78.897C88.7647 78.5356 89.8572 78.1935 90.5307 77.8708C91.2056 77.8123 91.6449 78.0447 91.8487 78.5681C92.1353 79.1148 91.9196 79.666 91.2017 80.2218C90.8146 80.425 89.7295 80.7596 87.9463 81.2256L84.2121 82.6184C83.4147 83.0047 82.6287 83.5095 81.8543 84.1331C81.4221 84.6161 81.1703 85.107 81.0989 85.6058L80.928 86.5577L81.2758 86.9656C82.482 87.9142 83.6006 88.4965 84.6317 88.7122C89.5051 86.6847 93.0516 85.9728 95.2713 86.5767C96.4702 86.8441 97.4783 87.2632 98.2956 87.834L99.7308 89.9866L100.216 91.1828C101.276 91.2145 102.317 90.2472 103.339 88.2811C103.586 86.5985 103.673 85.5743 103.598 85.2085C103.516 84.6222 102.79 83.2446 101.422 81.0757L101.144 79.5865C102.415 78.2137 103.105 77.3854 103.213 77.1014C103.807 73.9906 104.095 71.5775 104.079 69.8622C103.927 68.8069 103.573 67.379 103.016 65.5787C102.405 61.1814 102.019 59.0838 101.859 59.2857C102.8 53.8059 103.068 49.7172 102.664 47.0198C101.995 44.966 100.442 43.8338 98.0047 43.6233Z" fill="#9B1D20"/>
<path d="M96.4126 89.5024L96.4165 89.5075C96.4245 89.5177 96.4326 89.5278 96.441 89.5378C96.4438 89.5411 96.4466 89.5444 96.4494 89.5478L96.4503 89.5479L96.4495 89.5479C96.4551 89.5545 96.4608 89.5611 96.4666 89.5676C96.4932 89.5969 96.5146 89.6193 96.5311 89.635C96.4968 89.5944 96.4781 89.5718 96.4748 89.5673C96.4623 89.5513 96.4535 89.5398 96.4485 89.5328L96.4333 89.5117L96.4339 89.5117L96.4132 89.5024H96.4126Z" fill="#9B1D20"/>
<path d="M96.1523 48.6083C96.0365 48.6497 95.9099 48.6705 95.7725 48.6705C95.6644 48.6705 95.5495 48.6576 95.4279 48.632L95.4286 48.632C95.5322 48.6531 95.6366 48.6635 95.7405 48.6635C95.8797 48.6635 96.0178 48.6448 96.1517 48.6083H96.1523ZM100.125 42.7754C99.8726 42.7754 99.6221 42.8153 99.3736 42.895L99.373 42.895C98.1865 43.0612 96.7218 43.8824 94.979 45.3586L94.9783 45.3587C94.7605 45.4573 94.5467 45.602 94.3369 45.7927C93.5255 46.5301 92.0356 48.9253 89.867 52.9782L83.5718 52.6888L83.5713 52.6889C83.3405 52.4628 83.0996 52.1728 82.8484 51.8189L82.8479 51.8189C81.5049 49.0053 80.1175 46.9648 78.6857 45.6976C78.6743 45.6875 78.6628 45.6776 78.6512 45.6679C76.9639 44.2551 75.4766 43.5487 74.1893 43.5487C73.818 43.5487 73.4633 43.6075 73.1253 43.725C72.8997 43.8035 72.6848 43.9067 72.4806 44.0346C72.4267 44.0684 72.3736 44.1038 72.3214 44.1409L72.321 44.141C70.5148 45.0539 69.4221 46.5824 69.0428 48.7264L69.0424 48.7264C68.8903 49.3206 68.7952 49.9487 68.7571 50.6109C68.7566 50.6188 68.7562 50.6267 68.7559 50.6346L68.4515 57.4883C68.4092 58.4419 69.1085 59.2512 70.0134 59.2958C70.0395 59.2971 70.0655 59.2978 70.0914 59.2978C70.962 59.2978 71.6875 58.576 71.7286 57.6499L72.0329 50.7962L72.0331 50.7963C72.0598 50.3574 72.1232 49.9504 72.2234 49.5752C72.2381 49.5199 72.2503 49.4638 72.2598 49.4073C72.4352 48.3592 72.9574 47.6287 73.8263 47.2158C73.9423 47.1607 74.0518 47.0915 74.1526 47.0097C74.1536 47.0089 74.1544 47.0083 74.1552 47.0077L74.1547 47.0078C74.1988 46.9927 74.2484 46.9851 74.3035 46.9851C74.7335 46.9851 75.4987 47.4452 76.5992 48.3654L76.5987 48.3655C77.6975 49.3477 78.8228 51.0571 79.9747 53.4936C80.0152 53.5795 80.0625 53.6616 80.1161 53.7392C80.7347 54.6361 81.3694 55.3251 82.0202 55.8062C82.2762 55.9955 82.5783 56.1038 82.8907 56.1181L89.9726 56.4437C89.9937 56.4447 90.0148 56.4452 90.0359 56.4453C90.0424 56.4453 90.049 56.4454 90.0555 56.4454C90.2254 56.4454 90.3897 56.4337 90.5484 56.4103L90.5484 56.4104C91.3073 56.2986 91.9063 55.9447 92.3456 55.3486C92.3959 55.2804 92.4412 55.2083 92.4813 55.1329C94.4522 51.4233 95.7437 49.2248 96.3559 48.5375L96.3552 48.5376C96.5096 48.4718 96.6553 48.3809 96.7866 48.2663C98.2365 47.0012 99.2476 46.3526 99.8197 46.3205C99.9036 46.3158 99.987 46.3043 100.069 46.2861L100.07 46.2862C100.111 46.32 100.157 46.3634 100.21 46.4165L100.209 46.4166C100.863 47.2339 101.258 47.9955 101.396 48.7014L101.395 48.7015L100.955 61.853C100.949 62.0568 100.976 62.2604 101.036 62.4541C101.492 63.9141 101.829 66.6774 102.047 70.744L102.047 70.7441C102.081 71.5615 101.938 72.6292 101.62 73.9471C101.604 74.0138 101.592 74.0814 101.583 74.1495L101.583 74.1496C101.454 74.5557 100.988 75.5718 100.184 77.198C100.139 77.2874 100.103 77.3806 100.074 77.4768C99.896 78.0712 99.7862 78.5296 99.7448 78.852C99.7166 79.0708 99.7122 79.273 99.7316 79.4585C99.7492 79.6269 99.7901 79.7916 99.8532 79.9475C101.447 83.8865 102.135 86.6478 101.918 88.2314C101.788 89.1763 102.41 90.0531 103.307 90.1897C103.386 90.2019 103.465 90.2078 103.543 90.2078C104.345 90.2078 105.047 89.5873 105.165 88.7263C105.46 86.5784 104.756 83.3522 103.054 79.0479L103.053 79.0479C103.08 78.9426 103.115 78.8139 103.16 78.6619L103.159 78.6619C104.071 76.8123 104.603 75.6024 104.757 75.0322C104.79 74.9103 104.814 74.7923 104.829 74.678L104.829 74.678C105.209 73.0708 105.374 71.6999 105.323 70.5655C105.323 70.56 105.322 70.5546 105.322 70.5492C105.101 66.4285 104.742 63.4737 104.244 61.6846L104.244 61.6847L104.68 48.6364C104.684 48.5269 104.678 48.4172 104.662 48.3089C104.453 46.9 103.783 45.4994 102.652 44.107C102.623 44.0706 102.592 44.0355 102.559 44.0018C102.146 43.5709 101.724 43.2545 101.293 43.0527C100.899 42.8678 100.51 42.7754 100.125 42.7754Z" fill="#9B1D20"/>
<path d="M104.293 68.2689L104.294 68.2689C104.32 68.2649 104.347 68.2613 104.376 68.258L104.376 68.258C104.412 68.2538 104.453 68.25 104.498 68.2464C104.518 68.2448 104.538 68.2437 104.558 68.243C104.724 68.2375 104.854 68.2294 104.949 68.2189C104.988 68.2146 105.027 68.212 105.066 68.2112L105.523 68.2016C105.547 68.2011 105.571 68.2013 105.595 68.2021C105.909 68.2127 106.328 68.2178 106.851 68.2173C106.868 68.2173 106.884 68.2176 106.901 68.2182L106.901 68.2182C106.871 68.2171 106.846 68.217 106.824 68.2179L106.824 68.2179C106.858 68.2165 106.948 68.2101 107.092 68.1988C107.107 68.1977 107.121 68.1968 107.136 68.1962L108.135 68.1514L108.124 68.152C108.273 68.1441 108.432 68.1332 108.602 68.1193C108.618 68.118 108.634 68.117 108.649 68.1163L108.888 68.1054L108.859 68.1071C108.963 68.1 109.125 68.0819 109.346 68.0526C109.373 68.0492 109.399 68.0465 109.425 68.0446C109.632 68.0299 109.763 68.0182 109.821 68.0095C109.841 68.0063 109.862 68.0037 109.883 68.0015C110.076 67.9816 110.245 67.95 110.39 67.907C111.127 67.6885 111.893 68.1414 112.1 68.9184C112.308 69.6954 111.878 70.5024 111.141 70.7208C110.838 70.8104 110.509 70.8736 110.154 70.9104L110.217 70.9024C110.09 70.9217 109.889 70.9411 109.613 70.9608L109.691 70.9528C109.415 70.9894 109.197 71.0131 109.038 71.0239C109.028 71.0246 109.018 71.0251 109.008 71.0256L108.769 71.0365L108.817 71.0335C108.622 71.0494 108.437 71.062 108.264 71.0712C108.26 71.0714 108.256 71.0716 108.253 71.0717L107.253 71.1165L107.297 71.1138C107.121 71.1274 107.002 71.1356 106.937 71.1384L106.937 71.1384C106.888 71.1405 106.844 71.1408 106.804 71.1393L106.853 71.1402C106.3 71.1407 105.851 71.1351 105.506 71.1235L105.578 71.124L105.121 71.1335L105.239 71.1258C105.077 71.1437 104.879 71.1566 104.646 71.1644L104.706 71.1611C104.692 71.1622 104.682 71.1631 104.676 71.1638L104.676 71.1638C104.679 71.1634 104.684 71.1626 104.691 71.1616C103.933 71.2774 103.23 70.7237 103.12 69.9249C103.01 69.1262 103.535 68.3847 104.293 68.2689Z" fill="#9B1D20"/>
<path d="M103.553 73.6135C103.752 73.5704 103.971 73.5693 104.21 73.61C104.231 73.6136 104.252 73.6176 104.272 73.6221C104.602 73.6947 104.965 73.7581 105.361 73.8124L105.33 73.8086L105.75 73.8563L105.669 73.8496L105.67 73.8496L105.671 73.8497C106.219 73.8779 106.571 73.9012 106.724 73.9196L106.723 73.9195C106.737 73.9211 106.75 73.9228 106.762 73.9245C106.767 73.9252 106.773 73.926 106.778 73.9267L107.195 73.9888C107.218 73.9923 107.241 73.9963 107.264 74.001C107.679 74.0855 108.236 74.1806 108.935 74.2862L108.891 74.2804C109.096 74.3045 109.261 74.32 109.387 74.327L109.294 74.3251C109.436 74.3229 109.584 74.3262 109.737 74.3352L109.661 74.333L110.436 74.3329C110.441 74.3329 110.447 74.3329 110.452 74.333H110.452C110.432 74.3328 110.416 74.333 110.403 74.3339L110.403 74.3339C110.408 74.3336 110.415 74.3329 110.426 74.3318C111.188 74.2552 111.865 74.8445 111.938 75.6479C112.011 76.4514 111.452 77.1649 110.689 77.2415C110.649 77.2455 110.612 77.2487 110.578 77.2509L110.579 77.2509C110.522 77.2547 110.469 77.2563 110.42 77.2557L110.436 77.2558L109.661 77.2559C109.635 77.2559 109.61 77.2551 109.584 77.2536C109.496 77.2485 109.412 77.2465 109.335 77.2477C109.304 77.2482 109.273 77.2475 109.241 77.2458C109.061 77.2358 108.842 77.2156 108.584 77.1853C108.57 77.1836 108.555 77.1817 108.541 77.1795C107.798 77.0672 107.197 76.9643 106.738 76.8708L106.807 76.8829L106.39 76.8208L106.406 76.8231C106.408 76.8234 106.41 76.8236 106.411 76.8238L106.41 76.8238C106.316 76.8125 106.025 76.7943 105.535 76.7691L105.536 76.7691L105.535 76.7691C105.507 76.7676 105.48 76.7654 105.454 76.7624L105.033 76.7147C105.023 76.7135 105.013 76.7123 105.003 76.7109C104.537 76.6469 104.104 76.5711 103.705 76.4833L103.767 76.4954C103.863 76.5118 103.978 76.5055 104.111 76.4767C103.361 76.639 102.627 76.1296 102.473 75.339C102.319 74.5484 102.803 73.7758 103.553 73.6135Z" fill="#9B1D20"/>
<path d="M68.991 59.855C68.9659 59.7555 68.9497 59.6538 68.9423 59.55C68.9401 59.5182 68.9389 59.4865 68.9386 59.4546V59.4545C68.9386 59.4521 68.9386 59.4504 68.9386 59.4493C68.9389 59.4602 68.94 59.475 68.942 59.4937L68.9419 59.493C68.9416 59.4901 68.9414 59.488 68.9412 59.4866L68.9412 59.4864C68.942 59.4924 68.9433 59.5006 68.9453 59.5111C68.9444 59.5066 68.9436 59.5019 68.9428 59.4974C68.9431 59.499 68.9434 59.5006 68.9437 59.5021L68.9463 59.5133L68.8784 59.2246C68.8753 59.2114 68.8724 59.1982 68.8697 59.1849L68.8672 59.1728L68.8672 59.1726L68.8696 59.1847C68.8298 58.9916 68.8026 58.8387 68.7879 58.7258L68.7879 58.7259C68.7857 58.7083 68.7836 58.6912 68.7818 58.6746C68.7815 58.6718 68.7812 58.6692 68.7809 58.6665L68.7809 58.6664C68.78 58.6585 68.7792 58.6506 68.7785 58.6426L68.7785 58.6425C68.7691 58.5459 68.766 58.4574 68.7694 58.377L68.7682 58.4559C68.7678 58.4246 68.7683 58.3903 68.7697 58.3531C68.7709 58.3212 68.7729 58.2825 68.7757 58.237L68.7729 58.3336L68.7727 58.2679C68.7726 58.2454 68.773 58.2228 68.7739 58.2003C68.7759 58.153 68.7769 58.1212 68.777 58.1052L68.777 58.1053C68.777 58.1131 68.7772 58.1234 68.7776 58.1361C68.7501 57.355 69.3286 56.6983 70.0697 56.6692C70.8109 56.6402 71.4341 57.2498 71.4617 58.0309C71.4627 58.0602 71.4631 58.0919 71.4629 58.1261L71.4629 58.1262C71.4625 58.1765 71.4607 58.2424 71.4573 58.3239L71.4585 58.2562L71.4588 58.3219C71.4589 58.3542 71.458 58.3864 71.4561 58.4186C71.4547 58.4405 71.4539 58.4555 71.4536 58.4636C71.454 58.4527 71.4541 58.4389 71.4539 58.4221C71.4542 58.4486 71.4538 58.4748 71.4527 58.501C71.4551 58.4436 71.4543 58.3945 71.4504 58.3539L71.4504 58.3538C71.4504 58.3539 71.4504 58.3545 71.4505 58.3554L71.4497 58.3473C71.4494 58.3452 71.4492 58.3435 71.4491 58.3423L71.4491 58.3424C71.4542 58.3821 71.4693 58.4624 71.4942 58.5832L71.4967 58.5953L71.4967 58.5955L71.4855 58.5437L71.5534 58.8324C71.5543 58.8362 71.5551 58.8398 71.556 58.8436C71.5663 58.8891 71.5755 58.9348 71.5836 58.9807L71.5811 58.967C71.5892 59.0107 71.5964 59.057 71.6027 59.1059L71.6027 59.1057C71.6057 59.1287 71.6085 59.1526 71.6111 59.1773L71.611 59.1766C71.6174 59.2363 71.6215 59.3001 71.6234 59.3679C71.624 59.3897 71.6244 59.4122 71.6245 59.4352L71.6208 59.3397C71.6158 59.2684 71.6044 59.1976 71.5866 59.1273C71.7773 59.8826 71.3509 60.6579 70.6341 60.8588C69.9174 61.0598 69.1817 60.6104 68.991 59.855Z" fill="#9B1D20"/>
<path d="M70.9994 55.6274C71.3796 55.8977 71.5927 56.2793 71.6387 56.7722L71.6301 56.6998C71.6367 56.7456 71.642 56.7955 71.646 56.8494L71.6461 56.8495C71.6513 56.9189 71.6552 57.0062 71.6579 57.1114L71.6517 57.0088L71.6755 57.2611L71.6238 56.9887C71.6361 57.0311 71.6478 57.0772 71.6589 57.1268L71.6589 57.1268C71.6905 57.2683 71.7285 57.4969 71.7728 57.8126L71.7356 57.6309L71.7436 57.6618C71.7665 57.7539 71.7847 57.8373 71.7983 57.9119L71.7983 57.912C71.806 57.954 71.8124 57.9945 71.8175 58.0333L71.8181 58.0376L71.9314 58.9067C71.9382 58.9592 71.9423 59.012 71.9435 59.065C71.9443 59.1027 71.9478 59.1462 71.954 59.1954C71.9591 59.2363 71.9625 59.2774 71.9642 59.3186L71.964 59.3142L71.964 59.3146L71.9642 59.319C71.9699 59.4562 71.9727 59.5665 71.9728 59.6499L71.9701 59.5611L71.9949 59.972C71.9979 60.0211 71.9984 60.0703 71.9965 60.1194C71.9989 60.0569 71.9976 60.0034 71.9927 59.9587C71.9973 59.9999 72.0114 60.0909 72.0352 60.2319C72.0399 60.2596 72.0438 60.2874 72.0469 60.3154C72.0581 60.4165 72.0654 60.4849 72.0688 60.5206L72.0688 60.5204C72.1568 61.4527 71.7647 61.9736 70.8927 62.0832L70.8819 62.0845C70.2269 62.1612 69.7673 61.8814 69.5032 61.2451L72.0719 60.5604C72.0935 60.8347 72.0642 61.0862 71.9838 61.315C71.7263 62.048 70.9537 62.4222 70.2582 62.1508C69.5626 61.8795 69.2075 61.0653 69.465 60.3323C69.4071 60.497 69.3838 60.6513 69.3952 60.7952C69.3407 60.1055 69.7676 59.4754 70.4042 59.3057C71.0409 59.136 71.7007 59.4765 71.9639 60.1105C71.6998 59.4744 71.2403 59.1946 70.5853 59.2713L70.5746 59.2726C69.7031 59.3822 69.3102 59.8915 69.396 60.8006L69.396 60.8005C69.3942 60.7811 69.3886 60.729 69.3791 60.6441L69.3908 60.7276C69.3576 60.5308 69.3356 60.3837 69.3248 60.2864C69.3135 60.1839 69.3095 60.09 69.3128 60.0045L69.3144 60.1519L69.2896 59.741C69.2878 59.7114 69.2869 59.6818 69.2869 59.6522C69.2868 59.6089 69.2848 59.5387 69.2808 59.4417L69.281 59.4461L69.281 59.4458L69.291 59.5646C69.2724 59.4157 69.2615 59.2719 69.2583 59.1335L69.2704 59.2918L69.1572 58.4228L69.1577 58.4271C69.1588 58.4349 69.1597 58.4409 69.1605 58.4452L69.1605 58.4453C69.1581 58.432 69.1529 58.4096 69.1451 58.3778L69.1531 58.4086C69.1327 58.3281 69.123 58.2777 69.1158 58.2269C69.0826 57.9901 69.0588 57.8398 69.0446 57.776L69.0446 57.7761C69.0467 57.7855 69.05 57.798 69.0545 57.8135C69.0288 57.7248 69.0115 57.6335 69.0028 57.5411L68.979 57.2888C68.9758 57.2547 68.9737 57.2204 68.9729 57.1862C68.9715 57.1308 68.97 57.0932 68.9686 57.0735L68.9686 57.0736C68.9695 57.0858 68.9714 57.1018 68.9742 57.1215C68.9707 57.0974 68.9679 57.0733 68.9656 57.0491C69.002 57.4396 69.1793 57.7479 69.4974 57.974C68.8825 57.5369 68.7203 56.6572 69.135 56.0092C69.5498 55.3612 70.3845 55.1903 70.9994 55.6274Z" fill="#9B1D20"/>
</g>
<defs>
<clipPath id="clip0_2043_19368">
<rect width="130" height="137" fill="white"/>
</clipPath>
</defs>
</svg>
