<svg width="303" height="291" viewBox="0 0 303 291" fill="none" xmlns="http://www.w3.org/2000/svg">
<g clip-path="url(#clip0_354_3486)">
<path d="M190.288 190.487C189.584 190.487 188.876 190.714 188.292 191.18C185.792 193.173 183.928 194.551 182.699 195.312C182.547 195.406 182.404 195.513 182.272 195.63C179.147 198.403 177.114 200.101 176.173 200.726C176.013 200.832 175.864 200.952 175.728 201.085L169.515 207.118H169.514C167.477 208.655 165.768 210.122 164.385 211.52H164.385C163.107 211.745 162.061 212.725 161.857 214.028C161.599 215.669 162.775 217.2 164.483 217.447C164.686 217.476 164.888 217.491 165.09 217.491C165.922 217.491 166.75 217.241 167.572 216.742C167.871 216.56 168.174 216.342 168.479 216.088C168.563 216.017 168.644 215.942 168.72 215.863C169.954 214.588 171.556 213.211 173.527 211.732C173.632 211.653 173.732 211.568 173.826 211.477L179.984 205.497H179.982C181.195 204.646 183.308 202.886 186.321 200.218H186.32C187.746 199.31 189.736 197.839 192.288 195.803C193.617 194.743 193.8 192.849 192.696 191.572C192.078 190.857 191.186 190.487 190.288 190.487Z" fill="#FFA462"/>
<path d="M183.138 192.94C183.142 192.94 183.145 192.94 183.149 192.94C183.158 192.941 183.167 192.941 183.177 192.941C183.164 192.941 183.151 192.94 183.137 192.94H183.138ZM186.577 186.717C186.213 186.717 185.844 186.779 185.489 186.907H185.487C185.43 186.912 185.358 186.918 185.269 186.923H185.268C185.22 186.923 185.14 186.92 185.03 186.916C184.982 186.914 184.935 186.913 184.887 186.913C184.867 186.913 184.846 186.913 184.825 186.913C184.134 186.926 183.662 186.933 183.407 186.933C183.352 186.933 183.307 186.933 183.273 186.932H183.272C183.25 186.932 183.227 186.931 183.204 186.931C183.122 186.931 183.035 186.934 182.942 186.939L182.942 186.939C182.888 186.943 182.825 186.947 182.751 186.953H182.75L182.312 186.957C182.244 186.957 182.176 186.96 182.109 186.965C181.867 186.982 181.708 186.991 181.63 186.992C181.625 186.992 181.62 186.992 181.616 186.992C181.613 186.992 181.61 186.992 181.608 186.992C181.594 186.992 181.581 186.992 181.569 186.992C181.53 186.992 181.5 186.992 181.479 186.991H181.478L180.722 186.942L179.663 186.811C179.555 186.798 179.446 186.79 179.336 186.788C179.018 186.781 178.79 186.778 178.65 186.777H178.649C178.388 186.776 178.134 186.776 177.887 186.776C177.401 186.776 176.944 186.778 176.516 186.783C176.459 186.784 176.403 186.786 176.347 186.789L174.415 186.912C174.388 186.913 174.361 186.915 174.333 186.918L173.765 186.968H173.764C173.095 187.003 172.446 187.046 171.818 187.096H171.817L171.079 187.122C171.026 187.124 170.973 187.127 170.92 187.131L170.046 187.205H170.045C169.7 187.228 169.465 187.239 169.338 187.239C169.327 187.239 169.317 187.239 169.307 187.239C169.287 187.239 169.266 187.239 169.246 187.239C169.178 187.239 169.111 187.241 169.044 187.245L167.99 187.31C167.971 187.312 167.952 187.313 167.933 187.314C167.765 187.328 167.621 187.342 167.503 187.356C167.365 187.373 167.237 187.393 167.118 187.418H167.117C166.627 187.511 166.263 187.589 166.024 187.651C165.956 187.669 165.892 187.686 165.832 187.704C164.184 188.199 163.265 189.885 163.78 191.469C164.199 192.754 165.433 193.578 166.765 193.578C167.062 193.578 167.363 193.537 167.662 193.451H167.661C167.762 193.425 167.984 193.379 168.327 193.314H168.326C168.351 193.312 168.382 193.309 168.422 193.306H168.421L169.339 193.249H169.338C169.633 193.248 170.025 193.231 170.514 193.198L170.54 193.196L170.54 193.196C170.55 193.195 170.56 193.194 170.569 193.193L171.388 193.124L172.121 193.099C172.17 193.097 172.219 193.094 172.268 193.09C172.876 193.041 173.507 193 174.162 192.966C174.203 192.964 174.243 192.961 174.283 192.958L174.868 192.905L176.673 192.791H176.672C177.052 192.787 177.458 192.785 177.888 192.785C178.127 192.785 178.374 192.786 178.628 192.787L178.645 192.787C178.646 192.787 178.646 192.787 178.647 192.787C178.719 192.787 178.848 192.789 179.035 192.793H179.034L180.019 192.914C180.079 192.921 180.14 192.927 180.201 192.931L181.077 192.989C181.133 192.992 181.192 192.995 181.256 192.997C181.346 193 181.453 193.002 181.577 193.002C181.59 193.002 181.603 193.002 181.616 193.002H181.617C181.622 193.002 181.627 193.002 181.632 193.002C181.652 193.002 181.671 193.002 181.691 193.001H181.691C181.882 192.999 182.142 192.987 182.469 192.965H182.468L182.928 192.961C183.01 192.96 183.091 192.956 183.173 192.949C183.211 192.946 183.242 192.944 183.267 192.942H183.268C183.303 192.942 183.34 192.942 183.381 192.942C183.692 192.942 184.182 192.936 184.851 192.923H184.852C185.012 192.929 185.154 192.932 185.28 192.932C185.316 192.932 185.35 192.932 185.383 192.932H185.383C185.473 192.93 185.558 192.927 185.639 192.922H185.638C186.053 192.898 186.421 192.858 186.74 192.8C187.242 192.709 187.684 192.565 188.065 192.367C189.586 191.579 190.153 189.756 189.333 188.296C188.767 187.289 187.69 186.717 186.577 186.717Z" fill="#FFA462"/>
<path d="M171.804 198.382C171.805 198.382 171.806 198.383 171.808 198.383L171.804 198.382H171.804ZM166.681 197.899C166.423 197.899 166.173 197.905 165.931 197.917C164.206 198.006 162.883 199.421 162.974 201.078C163.063 202.681 164.444 203.923 166.095 203.923C166.151 203.923 166.208 203.921 166.264 203.918C166.396 203.912 166.535 203.908 166.682 203.908C166.894 203.908 167.121 203.915 167.365 203.929H167.364L168.655 204.064H168.654C169.112 204.124 169.556 204.188 169.984 204.256L170.003 204.259C170.046 204.266 170.089 204.271 170.132 204.276C170.394 204.305 170.796 204.338 171.338 204.375L171.32 204.374L171.351 204.376C171.506 204.386 171.626 204.393 171.711 204.396H171.711C171.74 204.397 171.768 204.398 171.793 204.399L171.808 204.399L172.244 204.407H172.243C172.716 204.43 173.203 204.448 173.706 204.464C173.739 204.465 173.773 204.465 173.806 204.465C173.807 204.465 173.808 204.465 173.809 204.465L174.7 204.464L175.236 204.485H175.235C175.468 204.502 175.865 204.547 176.425 204.62C176.567 204.639 176.709 204.648 176.849 204.648C178.39 204.648 179.731 203.554 179.944 202.047C180.177 200.402 178.977 198.888 177.266 198.665C176.535 198.57 175.988 198.51 175.623 198.486C175.593 198.484 175.563 198.483 175.533 198.482L174.884 198.457C174.843 198.456 174.801 198.455 174.76 198.455C174.759 198.455 174.758 198.455 174.757 198.455L173.854 198.456C173.39 198.441 172.94 198.424 172.504 198.403C172.474 198.402 172.444 198.401 172.414 198.4L171.96 198.391H171.959C171.926 198.39 171.865 198.386 171.777 198.38C171.384 198.354 171.1 198.332 170.923 198.314H170.922C170.445 198.239 169.954 198.169 169.447 198.103C169.42 198.1 169.394 198.097 169.367 198.094L167.968 197.948C167.923 197.943 167.877 197.939 167.832 197.936C167.431 197.911 167.048 197.899 166.681 197.899Z" fill="#FFA462"/>
<path d="M167.613 191.358C167.477 191.859 167.475 192.401 167.634 192.933C167.463 192.366 167.455 191.84 167.612 191.358H167.613ZM170.643 189.104C170.339 189.104 170.029 189.146 169.724 189.237C168.711 189.535 167.971 190.282 167.666 191.182H167.665C167.399 191.617 167.026 192.201 166.545 192.933C166.489 193.019 166.438 193.107 166.391 193.198C166.103 193.755 165.758 194.38 165.355 195.074H165.354C164.378 195.662 163.78 196.748 163.904 197.923C164.067 199.471 165.426 200.625 167.012 200.625C167.117 200.625 167.224 200.62 167.331 200.609C168.488 200.497 169.4 200.029 170.067 199.207C170.158 199.096 170.24 198.979 170.313 198.857C170.947 197.798 171.481 196.851 171.917 196.017H171.916C172.451 195.2 172.866 194.547 173.16 194.06C173.188 194.013 173.215 193.965 173.24 193.917C173.311 193.784 173.371 193.664 173.422 193.557L173.422 193.557C173.8 192.75 173.87 191.974 173.632 191.227C173.218 189.935 171.98 189.104 170.643 189.104Z" fill="#FFA462"/>
<path d="M265.538 195.506L206.075 196.352C203.877 196.383 202.069 194.697 202.036 192.585C202.004 190.474 203.759 188.737 205.957 188.705L265.42 187.859C267.618 187.828 269.426 189.515 269.459 191.626C269.491 193.738 267.736 195.475 265.538 195.506Z" fill="#FFA462"/>
<path d="M49.0481 131.374C47.8627 131.335 47.6652 131.382 47.5795 131.415C47.8634 131.304 45.8011 131.771 45.1587 143.198C44.3 158.47 46.0146 189.365 47.757 220.651L47.7486 220.535C48.4272 228.166 49.1462 232.883 51.8244 234.793C54.7638 236.889 61.0348 236.627 69.9195 235.935C69.9629 235.931 70.0062 235.929 70.0497 235.927L148.571 232.39C148.615 232.388 148.659 232.387 148.703 232.386C152.622 232.34 155.461 232.251 157.363 231.507C158.02 231.249 158.4 230.967 158.639 230.695L158.639 230.695C160.007 229.138 160.176 225.279 160.067 218.881C160.066 218.823 160.066 218.764 160.068 218.706L162.51 143.829L162.511 143.815C162.782 136.424 162.736 131.504 160.984 129.364C159.488 127.535 155.866 127.101 149.174 126.84L149.432 126.842L89.4252 128.4L89.5382 128.395L59.694 130.02C57.5875 130.135 55.7831 128.588 55.6636 126.564C55.5443 124.54 57.1551 122.807 59.2616 122.692L89.1058 121.067C89.1434 121.065 89.1811 121.063 89.2188 121.062L149.226 119.505C149.312 119.502 149.398 119.503 149.483 119.506C154.617 119.706 162.82 119.731 166.99 124.827C170.905 129.61 170.367 138.077 170.146 144.074L170.147 144.059L167.705 218.936L167.706 218.76C167.791 223.731 168.157 231.24 164.479 235.428L164.479 235.429C163.271 236.803 161.774 237.706 160.247 238.304C156.713 239.687 152.216 239.685 148.797 239.726L148.929 239.722L70.4075 243.259L70.5377 243.251C63.1224 243.829 53.0932 244.839 47.2705 240.686C41.1867 236.348 40.6816 227.297 40.1359 221.16C40.1324 221.121 40.1296 221.082 40.1275 221.044C38.3988 190.006 36.6423 158.578 37.5293 142.802C38.1125 132.428 39.8483 126.515 44.6961 124.618C46.5461 123.893 48.422 124.009 49.3101 124.038C51.4187 124.107 53.0694 125.806 52.9971 127.832C52.9247 129.857 51.1567 131.443 49.0481 131.374Z" fill="#FFA462"/>
<path d="M185.06 178.505C179.693 178.505 173.857 178.614 168.1 178.721C165.991 178.761 164.314 180.435 164.355 182.462C164.395 184.464 166.098 186.061 168.173 186.061C168.198 186.061 168.223 186.061 168.249 186.06C174.109 185.951 179.889 185.845 185.114 185.845C185.987 185.845 186.844 185.848 187.684 185.854C187.575 185.497 187.519 185.089 187.518 184.631C187.547 184.038 187.585 183.686 187.632 183.576C187.733 183.117 187.905 182.671 188.145 182.239C188.136 181.794 188.276 181.137 188.566 180.268C188.725 179.75 189.06 179.172 189.571 178.535L189.572 178.535C188.116 178.514 186.607 178.505 185.06 178.505Z" fill="#FFA462"/>
<path d="M214.8 185.6C214.757 185.629 214.714 185.657 214.669 185.684C214.08 185.967 213.696 186.109 213.517 186.109C213.507 186.109 213.498 186.108 213.49 186.107L213.488 186.108C213.599 186.141 212.901 186.158 211.395 186.161C210.706 187.082 209.409 187.906 207.504 188.634C207.128 188.75 206.729 188.842 206.308 188.91L206.309 188.91L161.449 227.653C159.88 229.009 159.752 231.329 161.162 232.836C161.917 233.643 162.959 234.053 164.005 234.053C164.914 234.053 165.828 233.742 166.557 233.112L212.065 193.809C212.303 193.603 212.513 193.37 212.69 193.114C213.271 192.276 214.416 190.704 214.865 189.006C215.143 187.954 215.185 186.77 214.801 185.6H214.8Z" fill="#FFA462"/>
<path d="M102.004 163.397C102.435 164.718 102.441 166.426 102.023 168.522L102.028 168.499C101.212 172.771 100.315 175.724 99.3347 177.357L99.3371 177.353C97.0488 181.179 93.6255 183.987 89.0674 185.776L89.3092 180.426L94.7247 183.1C94.8017 183.138 94.8769 183.179 94.9502 183.223C96.0557 183.888 97.2985 185.058 98.6788 186.732C98.7066 186.766 98.7335 186.8 98.7597 186.835C102.794 192.196 105.051 197.089 105.53 201.517L104.174 199.365C102.549 198.331 101.209 198.579 100.153 200.11C100.041 200.272 99.9652 200.414 99.9265 200.534L99.9266 200.534C99.9269 200.533 99.9272 200.532 99.9278 200.53L99.863 200.79C100.231 198.958 100.87 196.756 101.78 194.184C101.788 194.159 101.797 194.135 101.807 194.11C103.082 190.796 104.03 188.687 104.652 187.781C105.096 187.135 105.625 186.677 106.24 186.409L104.859 187.606C106.474 184.951 109.033 182.573 112.537 180.47L114.417 185.907C114.109 185.931 113.789 185.929 113.459 185.9C111.806 185.754 109.562 184.809 106.726 183.064L106.779 183.097C105.278 182.215 103.726 180.841 102.125 178.975C102.121 178.97 102.117 178.966 102.113 178.961C101.155 177.83 100.085 176.026 98.9026 173.547C98.8198 173.373 98.7547 173.192 98.7084 173.006L96.9644 166.015C96.5696 164.433 97.5851 162.842 99.2326 162.463C100.88 162.083 102.536 163.059 102.931 164.642L104.675 171.633L104.48 171.092C105.445 173.115 106.242 174.497 106.871 175.239L106.859 175.225C108.023 176.582 109.064 177.53 109.98 178.068C109.998 178.079 110.016 178.09 110.034 178.101C112.031 179.329 113.36 179.972 114.02 180.031C113.993 180.028 113.956 180.029 113.907 180.033C115.319 179.92 116.627 180.75 117.073 182.041C117.52 183.332 116.988 184.748 115.787 185.469C113.139 187.058 111.262 188.762 110.156 190.58C109.836 191.106 109.354 191.524 108.775 191.776C109.235 191.576 109.567 191.326 109.773 191.026C109.411 191.554 108.673 193.264 107.562 196.154L107.589 196.08C106.769 198.397 106.202 200.339 105.887 201.906C105.869 201.994 105.848 202.08 105.822 202.165C105.812 202.2 105.801 202.234 105.79 202.268L105.79 202.268C105.655 202.689 105.481 203.055 105.266 203.366C104.063 205.11 102.569 205.414 100.784 204.278C100.02 203.792 99.523 203.002 99.4281 202.127C99.0616 198.744 97.1815 194.798 93.7878 190.288L93.8687 190.391C92.9267 189.248 92.2021 188.524 91.6951 188.219L91.9206 188.342L86.5052 185.669C85.4398 185.143 84.7905 184.069 84.8425 182.92C84.8945 181.77 85.6382 180.755 86.747 180.319C90.0052 179.041 92.4287 177.073 94.0174 174.416L94.0198 174.412C94.6474 173.367 95.3052 171.041 95.9932 167.436C95.9947 167.429 95.9962 167.421 95.9977 167.413C96.222 166.289 96.2725 165.537 96.1492 165.16C95.6426 163.606 96.5423 161.953 98.159 161.466C99.7756 160.979 101.497 161.844 102.004 163.397Z" fill="#FFA462"/>
<path d="M97.0102 169.143L97.0101 169.143C97.0106 169.142 97.0109 169.14 97.0112 169.139L97.0112 169.139C96.9682 169.323 96.9559 169.542 96.9744 169.794L96.9734 169.781L96.9351 169.22C96.9299 169.144 96.9277 169.068 96.9287 168.992L96.9348 168.502C96.9359 168.409 96.9417 168.315 96.9521 168.223L97.054 167.31L97.0371 167.568L97.0437 167.231L97.0456 167.403L97.034 167.121L97.056 167.376L97.0158 167.072L99.6664 169.623C97.9169 169.406 97.0245 168.435 96.9893 166.71C96.9885 166.668 96.9879 166.615 96.9876 166.55L96.996 166.755L96.9761 166.499C96.9678 166.392 96.9656 166.284 96.9695 166.177C96.9751 166.022 96.9819 165.892 96.99 165.787C96.9998 165.658 97.0138 165.54 97.0317 165.434L97.033 165.426L97.1291 164.866L97.1077 165.014C97.1052 165.035 97.1034 165.052 97.1024 165.065C97.1058 165.021 97.11 164.93 97.115 164.791L97.3173 165.951C97.2813 165.861 97.2542 165.798 97.2362 165.763C97.9339 167.131 99.1189 167.507 100.791 166.889L100.792 166.889C101.695 166.555 102.278 165.964 102.54 165.116L102.635 163.848C102.676 164.119 102.685 164.414 102.661 164.733L102.666 164.392C102.663 164.32 102.657 164.259 102.65 164.211L102.65 164.21C102.65 164.209 102.65 164.207 102.649 164.206L102.615 164.022C102.735 164.567 102.813 164.989 102.848 165.288C102.857 165.36 102.863 165.428 102.868 165.494L102.856 165.37C102.861 165.406 102.865 165.444 102.869 165.484C102.887 165.67 102.902 165.944 102.916 166.306L102.913 166.253C102.917 166.323 102.92 166.397 102.92 166.475C102.922 166.658 102.914 166.889 102.898 167.167C102.897 167.178 102.896 167.189 102.895 167.2L102.773 168.908L102.774 168.896C102.762 169.085 102.754 169.207 102.753 169.26C102.753 169.26 102.753 169.26 102.753 169.26C102.752 169.306 102.749 169.352 102.746 169.398L102.746 169.398C102.748 169.363 102.75 169.333 102.751 169.308C102.749 169.383 102.747 169.598 102.747 169.954C102.747 169.994 102.746 170.033 102.744 170.073C102.738 170.234 102.733 170.429 102.73 170.657L102.73 170.646L102.721 171.625L102.72 171.522C102.747 172.484 102.764 173.037 102.773 173.182L102.773 173.182C102.772 173.164 102.77 173.141 102.767 173.114C102.77 173.144 102.773 173.174 102.775 173.205L102.846 174.257L102.834 174.123L102.834 174.123L102.837 174.15C102.904 174.787 102.945 175.215 102.957 175.432L102.943 175.269C102.948 175.311 102.952 175.356 102.956 175.406C102.967 175.55 102.991 175.95 103.026 176.604L103.023 176.559L103.023 176.561L103.023 176.559C103.042 176.82 103.055 177.349 103.063 178.145C103.064 178.168 103.063 178.191 103.063 178.215C103.049 179.214 103.017 180.242 102.968 181.299L102.968 181.294C102.962 181.445 102.946 181.65 102.923 181.911C102.919 181.948 102.915 181.985 102.91 182.023C102.866 182.362 102.814 182.836 102.757 183.444C102.603 185.065 101.111 186.259 99.4239 186.112C97.7367 185.964 96.4934 184.531 96.6469 182.91C96.711 182.234 96.7697 181.692 96.8231 181.285L96.8107 181.397C96.8266 181.223 96.8359 181.104 96.8388 181.041L96.839 181.036C96.8852 180.04 96.9151 179.072 96.9286 178.133L96.9284 178.203C96.9214 177.521 96.9126 177.106 96.9022 176.958L96.902 176.957L96.902 176.955C96.901 176.942 96.9 176.926 96.8992 176.91C96.8663 176.302 96.846 175.949 96.8383 175.851C96.8397 175.869 96.842 175.892 96.8451 175.919C96.8389 175.865 96.8342 175.811 96.8311 175.756C96.8238 175.63 96.7912 175.293 96.7333 174.747L96.7363 174.774L96.7363 174.774C96.7295 174.711 96.7264 174.675 96.724 174.639L96.6528 173.587L96.6604 173.678C96.6558 173.632 96.6518 173.581 96.6484 173.525L96.6484 173.525C96.6358 173.318 96.6154 172.702 96.5872 171.678C96.5863 171.644 96.586 171.609 96.5863 171.575L96.595 170.596L96.5951 170.585C96.5987 170.3 96.6052 170.049 96.6145 169.831L96.6119 169.95C96.6122 169.54 96.6143 169.271 96.618 169.143C96.6199 169.078 96.6229 169.019 96.627 168.965L96.6198 169.104C96.6199 169.098 96.6201 169.093 96.6203 169.087C96.624 168.966 96.6345 168.776 96.6518 168.518L96.6526 168.505L96.7747 166.796L96.7726 166.828C96.7815 166.679 96.7858 166.578 96.7853 166.525C96.7854 166.535 96.7859 166.55 96.7869 166.568C96.786 166.55 96.7852 166.533 96.7845 166.515C96.7753 166.266 96.7671 166.105 96.7599 166.031C96.7603 166.035 96.7609 166.04 96.7618 166.047C96.7568 166.006 96.7527 165.965 96.7496 165.923C96.7506 165.937 96.7516 165.947 96.7524 165.954C96.739 165.841 96.6925 165.604 96.613 165.242C96.5996 165.182 96.5882 165.12 96.5788 165.059C96.5784 165.056 96.578 165.054 96.5776 165.051L96.5774 165.05C96.5561 164.907 96.5426 164.776 96.537 164.656C96.5318 164.542 96.5333 164.428 96.5417 164.315C96.5338 164.422 96.5414 164.552 96.5648 164.705C96.5 164.281 96.5322 163.848 96.6592 163.437C96.9702 162.431 97.6139 161.748 98.5903 161.388L98.5905 161.387C100.412 160.715 101.798 161.309 102.746 163.17C102.844 163.362 102.943 163.584 103.044 163.836C103.192 164.206 103.261 164.6 103.246 164.996C103.239 165.212 103.23 165.38 103.221 165.501C103.216 165.563 103.21 165.622 103.204 165.676C103.198 165.725 103.191 165.774 103.183 165.823L103.087 166.384L103.088 166.376C103.098 166.314 103.105 166.262 103.109 166.22C103.106 166.248 103.104 166.302 103.101 166.382L103.094 166.06L103.114 166.317C103.12 166.385 103.122 166.454 103.123 166.522C103.123 166.558 103.123 166.582 103.123 166.595C103.089 164.933 102.199 163.994 100.451 163.778C101.834 163.947 102.926 164.997 103.102 166.329L103.142 166.634C103.154 166.719 103.161 166.804 103.164 166.889L103.176 167.171C103.178 167.228 103.179 167.285 103.178 167.343L103.171 167.68C103.169 167.766 103.164 167.853 103.154 167.939L103.052 168.851L103.07 168.572L103.063 169.062L103.057 168.834L103.095 169.394L103.094 169.38C103.118 169.702 103.086 170.052 102.997 170.43L102.998 170.43C102.992 170.452 102.987 170.475 102.981 170.499C102.591 172.083 100.938 173.064 99.2897 172.689C97.641 172.315 96.6204 170.727 97.0102 169.143Z" fill="#FFA462"/>
<path d="M93.5539 182.161C93.692 182.414 93.8614 182.64 94.0552 182.839H94.0551C94.0592 182.868 94.0635 182.898 94.068 182.928C93.8837 182.711 93.7122 182.456 93.5537 182.161H93.5539ZM104.192 177.047C103.076 177.047 102.082 177.51 101.208 178.435C100.945 178.714 100.737 179.037 100.594 179.387C100.526 179.552 100.465 179.716 100.41 179.88C100.338 179.82 100.266 179.763 100.193 179.707C99.8594 179.45 99.5133 179.237 99.1553 179.066H99.1551C98.4797 177.919 97.6029 177.345 96.5248 177.345C95.9303 177.345 95.2745 177.519 94.5576 177.868C94.345 177.972 94.1365 178.096 93.932 178.242C93.7922 178.341 93.661 178.451 93.5397 178.571C92.6682 179.432 92.2701 180.437 92.3454 181.587H92.3452C92.3385 183.026 92.7894 184.431 93.698 185.803C93.7616 185.899 93.8305 185.991 93.9046 186.08C94.5938 186.904 95.2552 187.6 95.8887 188.168H95.8885C96.3079 189.163 97 190.158 97.9647 191.154C97.9894 191.179 98.0145 191.204 98.04 191.229C98.5465 191.717 99.0582 192.112 99.575 192.414C99.6575 192.462 99.7399 192.508 99.8221 192.551H99.8219C100.421 192.972 101.042 193.301 101.686 193.54C102.014 193.662 102.36 193.731 102.712 193.745C102.807 193.749 102.901 193.751 102.992 193.751C105.106 193.751 106.231 192.716 106.365 190.645H106.365C106.651 190.104 106.911 189.413 107.143 188.574H107.143C107.223 188.545 107.303 188.513 107.384 188.479C107.612 188.383 107.829 188.261 108.029 188.117C108.76 187.589 109.324 186.883 109.719 185.999C109.872 185.657 109.998 185.289 110.098 184.895C110.127 184.782 110.149 184.667 110.164 184.552C110.388 182.868 109.869 181.599 108.61 180.746H108.609C108.377 180.563 108.129 180.382 107.865 180.204H107.864C107.861 180.191 107.858 180.178 107.855 180.164C107.384 178.132 106.194 177.094 104.288 177.049C104.256 177.048 104.223 177.047 104.192 177.047Z" fill="#FFA462"/>
<path d="M223.934 103.2C223.664 103.288 223.369 103.332 223.049 103.332C222.797 103.332 222.53 103.305 222.247 103.25H222.248C222.49 103.295 222.733 103.317 222.975 103.317C223.299 103.317 223.621 103.278 223.932 103.2H223.934ZM233.186 90.8164C232.598 90.8164 232.015 90.901 231.436 91.0703H231.435C228.671 91.4232 225.26 93.1667 221.201 96.3009H221.2C220.692 96.5104 220.194 96.8176 219.706 97.2225C217.816 98.7881 214.346 103.873 209.296 112.478L194.634 111.864H194.633C194.096 111.384 193.535 110.768 192.95 110.017H192.948C189.821 104.043 186.59 99.711 183.255 97.0205C183.228 96.9991 183.202 96.9781 183.174 96.9574C179.245 93.958 175.781 92.4583 172.783 92.4583C171.918 92.4583 171.092 92.5831 170.305 92.8326C169.78 92.9991 169.279 93.2182 168.804 93.4898C168.678 93.5615 168.554 93.6368 168.433 93.7155H168.432C164.225 95.6539 161.68 98.899 160.797 103.451H160.796C160.442 104.712 160.22 106.046 160.132 107.452C160.131 107.469 160.13 107.486 160.129 107.502L159.42 122.053C159.321 124.078 160.95 125.796 163.058 125.891C163.118 125.894 163.179 125.895 163.239 125.895C165.267 125.895 166.956 124.363 167.052 122.396L167.761 107.845H167.761C167.823 106.914 167.971 106.05 168.204 105.253C168.239 105.136 168.267 105.017 168.289 104.897C168.698 102.671 169.914 101.121 171.938 100.244C172.208 100.127 172.463 99.98 172.698 99.8063C172.7 99.8047 172.702 99.8033 172.703 99.8021H172.702C172.805 99.77 172.921 99.754 173.049 99.754C174.05 99.754 175.833 100.731 178.395 102.685H178.394C180.953 104.77 183.574 108.399 186.257 113.572C186.351 113.755 186.462 113.929 186.586 114.094C188.027 115.998 189.505 117.461 191.021 118.482C191.617 118.884 192.321 119.114 193.048 119.144L209.542 119.836C209.591 119.838 209.64 119.839 209.689 119.839C209.704 119.839 209.719 119.839 209.735 119.839C210.13 119.839 210.513 119.814 210.882 119.765C212.65 119.528 214.045 118.776 215.068 117.511C215.185 117.366 215.291 117.213 215.384 117.053C219.974 109.177 222.982 104.509 224.408 103.05H224.406C224.766 102.91 225.105 102.717 225.411 102.474C228.788 99.7882 231.142 98.4111 232.475 98.343C232.67 98.3329 232.865 98.3085 233.055 98.2701H233.057C233.152 98.3418 233.261 98.4341 233.384 98.5469H233.383C234.904 100.282 235.825 101.899 236.146 103.398H236.145L235.12 131.32C235.104 131.753 235.168 132.185 235.309 132.596C236.37 135.696 237.154 141.563 237.662 150.197H237.661C237.74 151.932 237.409 154.199 236.668 156.997C236.631 157.139 236.602 157.282 236.583 157.427H236.581C236.281 158.289 235.195 160.446 233.322 163.899C233.219 164.089 233.134 164.287 233.067 164.491C232.653 165.753 232.397 166.726 232.3 167.411C232.235 167.875 232.225 168.304 232.27 168.698C232.311 169.056 232.406 169.406 232.553 169.736C236.265 178.099 237.868 183.962 237.362 187.324C237.06 189.33 238.508 191.192 240.596 191.482C240.781 191.508 240.965 191.52 241.147 191.52C243.015 191.52 244.648 190.203 244.923 188.375C245.61 183.815 243.971 176.965 240.007 167.826H240.005C240.067 167.603 240.15 167.33 240.254 167.007H240.252C242.375 163.08 243.615 160.511 243.973 159.301C244.05 159.042 244.106 158.791 244.142 158.549H244.141C245.026 155.136 245.41 152.226 245.292 149.817C245.291 149.806 245.291 149.795 245.29 149.783C244.776 141.034 243.939 134.761 242.78 130.963H242.778L243.795 103.26C243.804 103.027 243.789 102.795 243.752 102.565C243.266 99.5734 241.706 96.5997 239.072 93.6436C239.003 93.5663 238.931 93.4917 238.856 93.4201C237.892 92.5053 236.91 91.8337 235.907 91.4051C234.989 91.0126 234.082 90.8164 233.186 90.8164Z" fill="#FFA462"/>
<path d="M189.635 187.967C189.77 188.197 189.876 188.464 189.955 188.769H189.954C189.888 188.518 189.794 188.276 189.674 188.044C189.66 188.018 189.647 187.993 189.634 187.967H189.635ZM210.554 164.722C210.175 164.722 209.79 164.777 209.409 164.891L206.837 165.666H206.836C203.741 166.074 201.113 166.56 198.953 167.122L198.937 167.127C197.163 167.597 195.792 168.056 194.825 168.505L194.819 168.508C191.098 170.244 188.047 172.304 185.666 174.687H185.665C183.365 176.606 181.95 178.516 181.42 180.416C181.304 180.831 181.229 181.246 181.195 181.66H181.194C180.825 185.172 181.337 188.324 182.732 191.115H182.731C183.034 191.835 183.56 192.486 184.308 193.068C185.14 193.716 186.558 194.492 188.56 195.395C188.821 195.512 189.094 195.601 189.376 195.66C190.927 195.982 192.224 196.143 193.268 196.143C193.509 196.143 193.736 196.135 193.95 196.118L193.95 196.118C194.021 196.112 194.09 196.105 194.159 196.098H194.158C196.106 196.019 198.15 195.699 200.292 195.139C200.466 195.093 200.637 195.036 200.803 194.967L207.138 192.34C207.163 192.329 207.189 192.319 207.214 192.308H207.212C207.833 192.087 209.672 191.688 212.73 191.11H212.729C214.435 190.859 216.417 190.73 218.676 190.723C218.693 190.723 218.71 190.723 218.727 190.722C218.857 190.72 218.985 190.719 219.111 190.719C220.967 190.719 222.435 190.943 223.514 191.391C224.008 191.596 224.522 191.693 225.027 191.693C226.505 191.693 227.913 190.864 228.536 189.477C229.373 187.616 228.481 185.456 226.544 184.653C224.498 183.804 222.015 183.379 219.094 183.379C218.939 183.379 218.782 183.38 218.625 183.383H218.623C215.961 183.392 213.582 183.554 211.487 183.867C211.437 183.875 211.388 183.883 211.338 183.892C207.762 184.567 205.471 185.089 204.463 185.459L204.463 185.459C204.31 185.515 204.166 185.573 204.032 185.634H204.031L198.03 188.122H198.028C196.489 188.509 195.051 188.725 193.715 188.769C193.577 188.773 193.44 188.785 193.303 188.804H193.302C193.262 188.807 193.218 188.808 193.17 188.808C192.811 188.808 192.225 188.729 191.413 188.57H191.411C190.517 188.16 189.866 187.833 189.458 187.59H189.457C188.801 186.097 188.583 184.346 188.802 182.337C188.803 182.325 188.805 182.313 188.806 182.301H188.805C188.947 181.825 189.608 181.103 190.787 180.135C190.891 180.05 190.99 179.96 191.084 179.864C192.844 178.075 195.199 176.491 198.151 175.114C198.699 174.859 199.633 174.557 200.953 174.207C202.865 173.709 205.274 173.273 208.179 172.899C208.395 172.871 208.608 172.826 208.815 172.763L211.696 171.895C213.709 171.289 214.829 169.229 214.198 167.295C213.686 165.726 212.179 164.722 210.554 164.722Z" fill="#FFA462"/>
<path d="M210.86 141.621C210.388 141.621 209.922 141.672 209.462 141.774C209.371 141.794 209.28 141.818 209.191 141.846C207.002 142.528 205.771 143.979 205.497 146.201C205.495 146.218 205.493 146.236 205.491 146.255C205.489 146.269 205.488 146.283 205.486 146.298C205.302 148.155 205.698 149.903 206.674 151.543C206.68 151.554 206.687 151.565 206.694 151.576C206.986 152.053 207.321 152.479 207.697 152.852C208.676 153.823 209.862 154.4 211.255 154.585C211.449 154.61 211.645 154.628 211.845 154.637C211.896 154.639 211.947 154.64 211.999 154.64C212.011 154.64 212.023 154.64 212.035 154.64C213.154 154.628 214.146 154.455 215.011 154.122C216.013 153.735 216.822 153.153 217.44 152.375H217.438C218.032 151.665 218.43 150.855 218.634 149.943C218.86 148.933 218.832 147.835 218.55 146.65C218.524 146.543 218.493 146.438 218.456 146.334C218.198 145.61 217.867 144.975 217.466 144.431C216.762 143.475 215.871 142.815 214.795 142.451H214.794C214.651 142.402 214.505 142.357 214.357 142.317L214.357 142.317C214.069 142.239 213.773 142.18 213.468 142.139H213.466C213.363 142.091 213.257 142.049 213.149 142.012C212.529 141.801 211.909 141.675 211.288 141.635H211.288C211.145 141.626 211.002 141.621 210.86 141.621Z" fill="#FFA462"/>
<path d="M175.336 139.112C175.297 139.112 175.257 139.112 175.217 139.114C175.139 139.116 175.061 139.121 174.984 139.126C173.939 139.199 172.997 139.502 172.158 140.036H172.157C171.064 140.691 170.203 141.436 169.575 142.271C169.264 142.683 169.075 143.145 168.999 143.615H168.998C168.493 144.386 168.214 145.213 168.163 146.095C168.158 146.185 168.157 146.275 168.16 146.364C168.164 146.48 168.171 146.595 168.182 146.71C168.325 148.279 169.082 149.812 170.452 151.307H170.451C170.475 151.336 170.499 151.365 170.523 151.394L170.523 151.394C171.139 152.117 171.889 152.673 172.773 153.063C173.461 153.365 174.21 153.556 175.021 153.635C175.129 153.645 175.238 153.651 175.346 153.651C175.429 153.651 175.512 153.648 175.594 153.641C178.364 153.436 180.38 152.014 181.642 149.373C181.687 149.28 181.727 149.185 181.761 149.089C181.974 148.496 182.112 147.944 182.177 147.433C182.227 147.041 182.235 146.665 182.201 146.304H182.2C182.188 146.019 182.14 145.725 182.056 145.42C181.927 144.952 181.625 144.139 181.152 142.981H181.151C180.868 142.258 180.444 141.609 179.88 141.032C179.666 140.814 179.434 140.608 179.183 140.415C179.111 140.36 179.036 140.307 178.959 140.258C178.363 139.875 177.755 139.587 177.135 139.395C176.558 139.217 175.978 139.122 175.395 139.112C175.375 139.112 175.356 139.112 175.336 139.112Z" fill="#FFA462"/>
<path d="M203.056 135.51C203.058 135.511 203.06 135.512 203.062 135.513H203.061C202.979 136.071 203.056 136.642 203.286 137.163H203.285C203.143 136.855 203.053 136.564 203.013 136.288H203.012C202.99 136.045 203.004 135.785 203.055 135.51H203.056ZM204.066 137.488C204.055 137.572 204.04 137.653 204.022 137.73C204.022 137.73 204.021 137.73 204.021 137.73H204.019C204.038 137.65 204.053 137.569 204.065 137.488H204.066ZM204.016 137.751C204.017 137.751 204.017 137.751 204.018 137.752H204.017C204.015 137.762 204.012 137.771 204.01 137.781C204.009 137.781 204.009 137.781 204.008 137.781H204.007C204.01 137.771 204.012 137.761 204.014 137.751H204.016ZM204.35 131.549C203.76 131.549 203.185 131.665 202.625 131.899C202.188 132.081 201.775 132.355 201.386 132.723H201.384C201.092 132.848 200.883 132.941 200.758 133C200.408 133.167 200.104 133.349 199.846 133.546H199.844C199.613 133.704 199.402 133.862 199.214 134.021C198.398 134.712 197.898 135.486 197.715 136.344H197.714C197.053 138.508 197.877 140.082 200.187 141.064C200.421 141.164 200.666 141.236 200.917 141.28C201.346 141.355 201.783 141.392 202.23 141.392C203.061 141.392 203.923 141.263 204.817 141.003C205.932 140.68 206.898 140.14 207.715 139.384H207.714C207.924 139.208 208.113 139.033 208.28 138.861C209.357 137.752 209.755 136.61 209.476 135.434H209.475C209.363 134.667 208.947 133.943 208.227 133.259C208.038 133.08 207.814 132.891 207.557 132.692H207.555C207.232 132.422 206.878 132.199 206.495 132.024H206.494C206.174 131.857 205.837 131.744 205.481 131.686H205.48C205.457 131.68 205.434 131.675 205.411 131.671H205.41C205.051 131.589 204.698 131.549 204.35 131.549Z" fill="#FFA462"/>
<path d="M188.772 157.658C188.711 158.005 188.597 158.365 188.429 158.74C188.23 159.182 187.929 159.702 187.525 160.299C187.439 160.425 187.344 160.546 187.239 160.66C186.287 161.696 185.716 162.365 185.527 162.666C185.593 162.561 185.654 162.42 185.71 162.242C185.216 163.81 183.539 164.739 181.879 164.363C180.219 163.988 179.149 162.438 179.435 160.823C179.498 160.464 179.625 160.089 179.815 159.697C180.119 159.071 180.713 158.171 181.597 156.996C181.655 156.919 181.717 156.844 181.783 156.772C182.829 155.622 183.543 154.877 183.924 154.538C184.489 154.034 185.102 153.728 185.764 153.621C186.238 153.544 186.724 153.57 187.187 153.696L187.185 153.696C187.2 153.7 187.214 153.704 187.228 153.708L187.229 153.708C188.086 153.948 188.75 154.351 189.222 154.914L189.08 154.756C189.416 155.107 189.725 155.501 190.005 155.937L189.587 155.418C189.813 155.645 190.019 155.924 190.204 156.255C190.462 156.716 190.948 157.775 191.662 159.432C191.679 159.471 191.695 159.511 191.711 159.551C191.694 159.506 191.679 159.472 191.666 159.449C191.708 159.527 191.797 159.66 191.935 159.847C192.966 161.246 192.621 163.182 191.165 164.172C189.709 165.162 187.693 164.831 186.663 163.432C186.341 162.995 186.088 162.602 185.903 162.25C185.801 162.058 185.716 161.87 185.646 161.687L185.694 161.806C185.063 160.341 184.67 159.47 184.515 159.193C184.607 159.359 184.744 159.532 184.925 159.713C184.767 159.555 184.626 159.381 184.507 159.194C184.444 159.096 184.385 159.019 184.329 158.96C184.28 158.909 184.232 158.856 184.187 158.802C184.564 159.253 184.974 159.54 185.418 159.665L185.419 159.665C185.419 159.665 185.419 159.665 185.419 159.665L186.84 159.74C187.447 159.641 187.939 159.424 188.317 159.087C188.101 159.279 187.544 159.869 186.646 160.856L186.832 160.632C186.188 161.488 185.8 162.051 185.669 162.32C185.725 162.206 185.769 162.054 185.803 161.863L179.527 160.445C179.628 160.125 179.786 159.795 180 159.454C180.389 158.836 181.188 157.869 182.396 156.554L182.11 156.915C182.314 156.614 182.443 156.403 182.497 156.284C182.459 156.368 182.427 156.483 182.402 156.629C182.698 154.939 184.363 153.799 186.122 154.084C187.881 154.368 189.068 155.968 188.772 157.658Z" fill="#FFA462"/>
<path d="M212.509 146.753C212.38 146.968 212.233 147.156 212.068 147.316H212.067C212.233 147.148 212.381 146.96 212.508 146.753H212.509ZM211.137 147.567C211.277 147.618 211.42 147.659 211.566 147.69H211.564C211.544 147.702 211.524 147.712 211.504 147.723C211.356 147.692 211.214 147.651 211.075 147.598H211.074C211.094 147.588 211.115 147.577 211.135 147.567H211.137ZM213.826 147.388C213.445 147.592 213.076 147.709 212.718 147.739C213.097 147.689 213.472 147.573 213.825 147.388H213.826ZM211.61 147.7C211.791 147.737 211.976 147.759 212.162 147.765H212.161C212.169 147.772 212.176 147.778 212.184 147.785H212.183C212.164 147.785 212.146 147.785 212.128 147.785C211.932 147.785 211.742 147.768 211.559 147.734H211.558C211.575 147.723 211.592 147.711 211.609 147.7H211.61ZM212.585 148.158C212.619 148.192 212.654 148.227 212.69 148.263C213.325 148.903 214.176 149.226 215.029 149.226C215.406 149.226 215.783 149.163 216.142 149.036H216.144C215.629 149.232 215.154 149.33 214.719 149.33C213.904 149.33 213.228 148.987 212.69 148.301H212.689C212.688 148.299 212.688 148.298 212.688 148.296H212.686C212.651 148.252 212.617 148.206 212.584 148.158H212.585ZM212.243 147.836C212.323 147.907 212.41 147.988 212.504 148.079H212.503C212.551 148.178 212.609 148.3 212.676 148.444H212.674C212.651 148.606 212.594 148.828 212.505 149.109H212.503C212.437 149.214 212.323 149.355 212.163 149.532H212.161C211.943 149.662 211.697 149.727 211.423 149.727C211.303 149.727 211.178 149.715 211.047 149.69H211.046C210.693 149.525 210.33 149.267 209.957 148.916H209.955C209.954 148.891 209.953 148.866 209.951 148.84H209.95C209.979 148.697 210.039 148.502 210.131 148.258H210.13C210.487 148.214 210.834 148.113 211.156 147.96H211.155L211.683 147.922C211.834 147.911 211.985 147.89 212.133 147.859C212.171 147.851 212.207 147.844 212.242 147.836H212.243ZM212.466 141.534C212.154 141.534 211.856 141.566 211.574 141.63H211.572C211.445 141.654 211.246 141.694 210.975 141.75H210.973L210.309 141.798C210.084 141.75 209.852 141.725 209.616 141.725C209.343 141.725 209.065 141.759 208.789 141.829C208.538 141.893 208.276 141.985 208.001 142.106C207.57 142.296 207.017 142.601 206.342 143.021C206.32 143.035 206.298 143.05 206.275 143.064C206.125 143.163 205.987 143.26 205.862 143.354C205.229 143.831 204.789 144.37 204.543 144.973H204.541C203.98 146.243 203.643 147.291 203.531 148.118C203.475 148.532 203.467 148.925 203.507 149.296H203.506C203.521 149.611 203.56 149.92 203.622 150.223C203.781 151.001 204.086 151.718 204.536 152.376C204.626 152.507 204.727 152.632 204.836 152.749C206.05 154.04 207.369 154.962 208.793 155.515C208.907 155.559 209.023 155.597 209.142 155.629C209.973 155.85 210.776 155.961 211.551 155.961C213.316 155.961 214.932 155.385 216.398 154.234C216.517 154.14 216.629 154.039 216.733 153.93C217.41 153.221 217.918 152.557 218.256 151.937C218.435 151.609 218.574 151.282 218.673 150.956H218.671C219.013 149.891 219.17 148.932 219.143 148.08C219.13 147.672 219.075 147.284 218.98 146.914C218.937 146.748 218.88 146.586 218.809 146.429C218.47 145.677 218.206 145.137 218.017 144.81C217.633 144.149 217.196 143.662 216.704 143.351H216.703C216.112 142.824 215.545 142.414 215.002 142.121L215.002 142.121C214.936 142.086 214.87 142.052 214.804 142.019C214.58 141.908 214.342 141.822 214.096 141.764C213.743 141.681 213.431 141.621 213.162 141.584C212.922 141.551 212.69 141.534 212.466 141.534Z" fill="#FFA462"/>
<path d="M201.188 134.867C200.95 135.46 200.908 136.11 201.065 136.724C200.835 136.126 200.873 135.509 201.179 134.872H201.178C201.181 134.87 201.184 134.869 201.187 134.867H201.188ZM205.43 138.856C205.427 138.863 205.423 138.871 205.42 138.879H205.419C205.07 139.029 204.72 139.104 204.367 139.104C204.262 139.104 204.157 139.097 204.051 139.084H204.053C204.103 139.086 204.152 139.087 204.202 139.087C204.619 139.087 205.037 139.01 205.429 138.856H205.43ZM204.336 132.631C203.593 132.631 202.852 132.958 202.114 133.612C202.078 133.643 202.032 133.685 201.977 133.736C201.851 133.851 201.736 133.973 201.634 134.102H201.633C201.608 134.127 201.582 134.152 201.556 134.178H201.555L200.049 135.602C200.024 135.626 199.999 135.65 199.975 135.675C198.732 136.929 198.63 138.253 199.668 139.646L199.672 139.651C200.398 140.622 201.212 141.107 202.114 141.107C202.767 141.107 203.467 140.852 204.212 140.342C204.36 140.241 204.514 140.12 204.673 139.978C204.686 139.966 204.698 139.955 204.711 139.943C204.743 139.914 204.775 139.883 204.807 139.852L205.397 139.269H205.396C205.575 139.128 205.734 138.972 205.874 138.802H205.873L206.127 138.562C206.141 138.549 206.154 138.536 206.167 138.523C206.377 138.317 206.566 138.126 206.733 137.948C206.751 137.929 206.769 137.909 206.787 137.89C208.196 136.315 208.085 134.855 206.453 133.511C205.745 132.924 205.04 132.631 204.336 132.631Z" fill="#FFA462"/>
<path d="M180.021 128.623C179.595 128.623 179.158 128.689 178.711 128.82C178.165 128.98 177.696 129.266 177.327 129.635H177.326C177.159 129.746 176.998 129.868 176.842 130.001H176.842C175.536 131.1 175.104 132.378 175.547 133.836H175.546C175.622 134.142 175.729 134.448 175.867 134.754C176.227 135.555 176.814 136.38 177.626 137.229C177.698 137.304 177.774 137.376 177.855 137.445C177.873 137.461 177.892 137.477 177.91 137.492L177.911 137.493C178.637 138.1 179.734 138.716 181.203 139.341C181.287 139.377 181.373 139.409 181.461 139.438C181.72 139.524 181.997 139.592 182.293 139.643C182.701 139.712 183.161 139.751 183.672 139.759H183.671C183.784 139.766 183.894 139.77 184.002 139.77C185.479 139.77 186.542 139.044 187.188 137.59C187.237 137.482 187.278 137.371 187.313 137.258C187.557 136.473 187.595 135.644 187.427 134.771C187.284 134.031 186.988 133.26 186.54 132.46L186.534 132.45C185.895 131.32 185.018 130.453 183.903 129.847H183.902C183.731 129.743 183.547 129.648 183.35 129.563C183.261 129.525 183.155 129.482 183.031 129.434H183.03C182.506 129.1 181.904 128.891 181.223 128.806H181.222C180.831 128.684 180.431 128.623 180.021 128.623Z" fill="#FFA462"/>
<path d="M248.86 144.832C248.886 144.832 248.913 144.833 248.942 144.833H248.942C248.914 144.833 248.885 144.832 248.857 144.832H248.856C248.857 144.832 248.859 144.832 248.86 144.832ZM257.967 144.057C257.677 144.057 257.383 144.094 257.091 144.173C256.752 144.265 256.359 144.332 255.91 144.374C255.862 144.379 255.813 144.384 255.765 144.391C255.632 144.409 255.325 144.434 254.844 144.466C254.783 144.469 254.721 144.475 254.66 144.483C254.164 144.542 253.795 144.58 253.552 144.596H253.55L253.037 144.618C253 144.619 252.963 144.621 252.927 144.624C252.532 144.654 252.163 144.677 251.819 144.693H251.817L249.511 144.787C249.478 144.789 249.444 144.791 249.411 144.793C249.109 144.814 248.911 144.827 248.815 144.832H248.813C248.776 144.832 248.738 144.832 248.7 144.832C247.551 144.832 246.625 144.821 245.923 144.8C245.888 144.799 245.854 144.798 245.819 144.798C245.798 144.798 245.777 144.798 245.755 144.799L244.692 144.819C244.601 144.821 244.51 144.826 244.419 144.836C244.198 144.858 243.894 144.875 243.508 144.887C243.462 144.888 243.415 144.891 243.369 144.894C243.264 144.901 243.169 144.91 243.083 144.919C243.017 144.926 242.953 144.933 242.893 144.942L242.892 144.942C241.127 145.188 239.903 146.762 240.159 148.458C240.392 150.003 241.773 151.116 243.351 151.116C243.494 151.116 243.639 151.107 243.785 151.088H243.783C243.786 151.087 243.79 151.087 243.794 151.087H243.792C244.233 151.072 244.617 151.05 244.946 151.021H244.944L245.801 151.005H245.802C246.562 151.027 247.529 151.038 248.704 151.038C248.748 151.038 248.792 151.038 248.837 151.038H248.839C248.846 151.038 248.853 151.038 248.861 151.038C248.92 151.038 248.982 151.037 249.048 151.034L249.049 151.034C249.193 151.028 249.454 151.012 249.833 150.985H249.831L252.114 150.892C252.122 150.892 252.13 150.892 252.138 150.891C252.526 150.873 252.936 150.847 253.369 150.815H253.367L253.872 150.794C253.895 150.793 253.918 150.792 253.941 150.791C254.294 150.769 254.771 150.722 255.37 150.651H255.368C255.907 150.615 256.317 150.58 256.599 150.545H256.597C257.403 150.466 258.15 150.333 258.839 150.147C260.556 149.684 261.557 147.97 261.074 146.321C260.674 144.952 259.378 144.057 257.967 144.057Z" fill="#FFA462"/>
<path d="M242.319 162.394C242.249 162.405 242.182 162.413 242.117 162.418C242.183 162.412 242.25 162.404 242.317 162.394H242.319ZM241.921 156.218C241.659 156.218 241.408 156.242 241.17 156.289C239.423 156.633 238.297 158.274 238.656 159.952C238.967 161.408 240.293 162.415 241.779 162.431H241.777C242.636 162.597 243.559 162.741 244.546 162.865C244.57 162.868 244.594 162.87 244.617 162.873L245.596 162.974C245.659 162.981 245.722 162.985 245.786 162.988L245.788 162.988C246.918 163.041 247.595 163.08 247.82 163.104H247.818L248.675 163.22H248.673C249.731 163.414 251.102 163.628 252.786 163.86C252.82 163.864 252.853 163.868 252.887 163.872C253.488 163.936 253.999 163.979 254.418 164C254.475 164.003 254.532 164.005 254.588 164.005C254.604 164.005 254.62 164.005 254.636 164.004C254.67 164.004 254.705 164.004 254.74 164.004C254.89 164.004 255.049 164.008 255.217 164.017C255.276 164.02 255.336 164.022 255.395 164.022L257.187 164.022H257.189C257.196 164.022 257.203 164.022 257.21 164.022C257.31 164.022 257.418 164.018 257.532 164.011C257.611 164.007 257.697 164 257.79 163.991C259.565 163.829 260.868 162.314 260.698 160.608C260.539 159.002 259.132 157.8 257.487 157.8C257.384 157.8 257.281 157.804 257.177 157.814C257.167 157.815 257.158 157.815 257.151 157.816H257.149L255.479 157.816C255.226 157.804 254.979 157.798 254.74 157.798C254.715 157.798 254.689 157.798 254.664 157.798C254.396 157.782 254.062 157.753 253.66 157.711H253.658C252.052 157.489 250.77 157.289 249.812 157.111C249.759 157.101 249.705 157.093 249.652 157.086L248.681 156.954C248.669 156.952 248.656 156.95 248.644 156.949C248.615 156.945 248.585 156.942 248.555 156.939C248.207 156.901 247.421 156.853 246.197 156.795H246.196L245.355 156.708H245.353C244.441 156.593 243.605 156.46 242.845 156.307C242.797 156.297 242.749 156.289 242.701 156.281C242.43 156.239 242.17 156.218 241.921 156.218Z" fill="#FFA462"/>
<path d="M160.556 126.217C160.556 126.217 160.556 126.217 160.556 126.217V126.217ZM163.309 120.312C163.27 120.312 163.23 120.313 163.191 120.314C161.476 120.376 160.136 121.752 160.18 123.395H160.179C160.178 123.433 160.176 123.49 160.173 123.565C160.171 123.613 160.17 123.661 160.17 123.709L160.17 123.765H160.169C160.167 123.811 160.165 123.852 160.163 123.889C160.16 123.969 160.159 124.041 160.159 124.108H160.159C160.16 124.232 160.168 124.364 160.183 124.504L160.183 124.504C160.185 124.521 160.187 124.538 160.189 124.555L160.189 124.555C160.19 124.561 160.19 124.566 160.191 124.572C160.195 124.607 160.2 124.644 160.205 124.681C160.24 124.921 160.303 125.245 160.396 125.655L160.396 125.656C160.402 125.684 160.409 125.712 160.416 125.74L160.558 126.291H160.558C160.559 126.338 160.561 126.384 160.565 126.431C160.582 126.651 160.62 126.867 160.678 127.078C161.051 128.423 162.316 129.311 163.699 129.311C163.965 129.311 164.236 129.278 164.505 129.209C166.033 128.819 166.994 127.407 166.806 125.942H166.805C166.8 125.836 166.792 125.735 166.78 125.639C166.774 125.587 166.768 125.537 166.761 125.488C166.748 125.395 166.733 125.306 166.716 125.222C166.698 125.125 166.676 125.028 166.652 124.931C166.65 124.923 166.648 124.915 166.646 124.907L166.506 124.366H166.505C166.468 124.201 166.441 124.073 166.423 123.981H166.422C166.425 123.929 166.426 123.876 166.426 123.823L166.426 123.773H166.425C166.431 123.625 166.434 123.503 166.435 123.408L166.435 123.408C166.436 123.335 166.435 123.268 166.432 123.205C166.37 121.585 164.983 120.312 163.309 120.312Z" fill="#FFA462"/>
<path d="M161.159 122.469C161.352 122.701 161.585 122.91 161.855 123.085C161.576 122.904 161.344 122.699 161.158 122.469H161.159ZM164.865 125.813C166.139 125.813 167.051 126.416 167.599 127.621C167.092 126.507 165.953 125.82 164.735 125.82C164.654 125.82 164.573 125.823 164.491 125.829C164.619 125.818 164.744 125.813 164.865 125.813ZM164.28 125.852C164.176 125.867 164.071 125.887 163.967 125.912C162.583 126.249 161.624 127.437 161.606 128.785H161.606C161.603 128.803 161.601 128.822 161.599 128.84C161.502 127.09 162.395 126.094 164.279 125.852H164.28ZM163.607 117.589C162.602 117.589 161.615 118.053 161.011 118.913C160.443 119.722 160.34 120.701 160.642 121.56H160.641C160.643 121.583 160.645 121.607 160.648 121.63L160.703 122.166C160.722 122.345 160.757 122.522 160.809 122.695H160.808C160.842 122.845 160.894 123.154 160.966 123.622C160.983 123.726 161.004 123.83 161.049 123.993H161.048C161.059 124.034 161.066 124.065 161.07 124.085H161.07L161.307 125.745H161.306C161.316 125.935 161.333 126.129 161.357 126.327H161.356C161.362 126.469 161.365 126.576 161.365 126.648C161.365 126.711 161.367 126.774 161.371 126.836L161.428 127.692H161.427C161.432 127.788 161.44 127.889 161.453 127.994C161.477 128.188 161.523 128.475 161.593 128.854H161.592C161.593 128.866 161.595 128.876 161.596 128.887H161.595C161.481 130.198 162.28 131.474 163.627 131.953C163.985 132.08 164.352 132.14 164.712 132.14C165.747 132.14 166.731 131.644 167.313 130.805H167.312C167.769 130.252 167.946 129.481 167.844 128.491C167.836 128.416 167.819 128.27 167.793 128.056C167.786 127.996 167.776 127.937 167.766 127.879C167.72 127.632 167.69 127.458 167.674 127.355H167.673C167.673 127.346 167.672 127.336 167.672 127.327L167.621 126.556H167.62C167.618 126.391 167.611 126.186 167.6 125.94L167.6 125.931L167.6 125.93C167.596 125.846 167.588 125.762 167.576 125.678C167.562 125.573 167.554 125.481 167.552 125.401C167.549 125.289 167.54 125.176 167.524 125.065L167.26 123.22L167.259 123.211C167.247 123.128 167.232 123.042 167.214 122.953L167.214 122.953C167.192 122.844 167.165 122.727 167.133 122.601H167.132C167.047 122.055 166.972 121.642 166.907 121.362H166.906L166.885 121.153H166.884C166.878 120.974 166.87 120.822 166.859 120.697L166.859 120.697C166.854 120.639 166.849 120.583 166.843 120.53H166.842C166.734 119.485 166.238 118.676 165.353 118.103C164.817 117.755 164.209 117.589 163.607 117.589Z" fill="#FFA462"/>
<path d="M268.421 94.9606L268.358 94.961L267.485 95.035C267.052 95.1049 266.615 95.226 266.174 95.3983C265.29 95.7428 264.389 96.2919 263.469 97.0456C261.205 99.0415 259.557 100.923 258.526 102.689C257.362 104.502 256.664 105.707 256.434 106.304C256.066 106.972 255.72 108.195 255.395 109.973C255.084 111.507 255.651 112.402 257.096 112.657C257.439 112.626 257.679 112.554 257.815 112.442C257.908 112.385 258 112.316 258.09 112.236L258.821 111.512L259.537 110.956C259.53 110.904 260.827 110.071 263.428 108.457L269.051 105.866L270.474 105.057C271.566 104.462 272.563 103.631 273.465 102.565C274.112 101.695 274.43 100.745 274.419 99.7124C274.414 99.1964 274.326 98.6599 274.157 98.1031C273.882 97.3298 273.735 96.9691 273.716 97.0208C273.632 96.8218 273.24 96.5005 272.542 96.0567C272.407 95.9443 271.989 95.7411 271.288 95.4471C271.006 95.345 270.722 95.2654 270.435 95.208C269.124 94.9981 268.453 94.9157 268.421 94.9606Z" fill="#FFA462"/>
<path d="M283.7 120.798C283.753 120.806 283.803 120.816 283.85 120.828C283.799 120.816 283.749 120.806 283.697 120.798H283.7ZM277.979 116.906C279.501 116.906 280.737 117.036 281.687 117.296H281.685C283.595 117.9 284.841 118.747 285.424 119.836H285.422C285.535 120.082 285.623 120.308 285.686 120.514C285.782 120.824 285.818 121.043 285.795 121.171H285.793C285.755 121.191 285.699 121.211 285.625 121.232C285.598 121.24 285.572 121.248 285.546 121.256H285.544C285.523 121.258 285.5 121.259 285.476 121.259C285.198 121.259 284.718 121.134 284.036 120.885C283.997 120.87 283.958 120.858 283.919 120.846H283.917C283.666 120.746 282.957 120.411 281.791 119.839H281.788C280.918 119.237 279.698 118.56 278.129 117.807H278.127C277.6 117.534 276.935 117.252 276.134 116.962H276.132C276.789 116.925 277.404 116.906 277.979 116.906ZM277.946 113.682C277.239 113.682 276.488 113.707 275.692 113.756C275.664 113.758 275.637 113.76 275.609 113.763C274.287 113.909 273.278 114.078 272.583 114.269H272.582C271.517 114.544 270.098 115.053 268.325 115.795C268.292 115.808 268.26 115.823 268.229 115.838H268.227C267.342 115.903 266.656 116.622 266.676 117.484C266.697 118.362 267.445 119.059 268.354 119.059C268.367 119.059 268.38 119.059 268.393 119.059C268.664 119.053 268.928 119.05 269.184 119.05C271.057 119.05 272.536 119.211 273.619 119.533H273.619C274.916 119.94 275.888 120.311 276.534 120.646C276.55 120.654 276.566 120.662 276.582 120.67C278.069 121.382 279.177 121.996 279.907 122.513C279.98 122.564 280.058 122.611 280.139 122.65C281.543 123.339 282.41 123.745 282.739 123.868C282.804 123.892 282.868 123.913 282.93 123.931H282.928C283.948 124.297 284.819 124.479 285.542 124.479C285.713 124.479 285.877 124.469 286.032 124.448C286.239 124.421 286.435 124.376 286.621 124.313H286.619C287.137 124.161 287.582 123.938 287.955 123.646C288.449 123.258 288.792 122.771 288.986 122.187C289.233 121.438 289.207 120.575 288.906 119.599C288.794 119.235 288.642 118.85 288.452 118.445C288.441 118.421 288.429 118.397 288.417 118.374C287.411 116.483 285.499 115.097 282.683 114.215C282.664 114.209 282.644 114.204 282.625 114.199C281.375 113.854 279.815 113.682 277.946 113.682Z" fill="#FFA462"/>
<path d="M276.764 114.655L276.568 114.666C275.878 114.769 275.411 115.141 275.165 115.782C275.082 116.041 275.065 116.302 275.116 116.565C275.124 116.775 275.276 117.054 275.572 117.402C275.761 117.587 275.99 117.721 276.258 117.805C276.378 117.954 276.55 118.113 276.775 118.281L277.447 118.769C277.803 119.021 278.155 119.263 278.503 119.493C279.546 120.184 280.555 120.776 281.527 121.268C281.86 121.547 282.307 121.86 282.87 122.206C283.858 122.772 284.72 123.02 285.458 122.949C285.934 122.902 286.338 122.716 286.669 122.39C287.09 121.9 287.284 121.65 287.254 121.64C287.325 121.506 287.374 121.365 287.4 121.215C287.506 120.348 287.05 119.392 286.031 118.347C285.252 117.583 284.438 117.037 283.59 116.707C283.308 116.597 283.02 116.512 282.727 116.451C282.086 116.113 281.583 115.908 281.219 115.835C280.846 115.735 280.365 115.744 279.776 115.864L278.231 115.08L277.861 114.917C277.324 114.721 276.959 114.634 276.764 114.655Z" fill="#FFA462"/>
</g>
<defs>
<clipPath id="clip0_354_3486">
<rect width="302.764" height="290.865" fill="white"/>
</clipPath>
</defs>
</svg>
