<svg width="310" height="265" viewBox="0 0 310 265" fill="none" xmlns="http://www.w3.org/2000/svg">
<g clip-path="url(#clip0_2039_34)">
<path d="M187.51 175.653L187.511 175.654L187.512 175.653L187.513 175.653L187.514 175.654C187.514 175.654 187.514 175.654 187.514 175.654L187.512 175.653L187.511 175.653L187.51 175.654L187.508 175.654L187.509 175.653C187.509 175.653 187.509 175.653 187.509 175.653C187.509 175.653 187.509 175.653 187.509 175.653H187.51Z" fill="#274029"/>
<path d="M187.52 175.654L187.52 175.654L187.519 175.654C187.518 175.654 187.517 175.654 187.515 175.654C187.517 175.654 187.519 175.654 187.52 175.654Z" fill="#274029"/>
<path d="M187.535 175.654L187.533 175.654L187.532 175.654L187.53 175.655L187.529 175.654L187.528 175.655L187.526 175.654H187.535Z" fill="#274029"/>
<path d="M187.527 175.654L187.526 175.654L187.526 175.654L187.526 175.654L187.526 175.654C187.525 175.654 187.525 175.654 187.525 175.654C187.524 175.654 187.524 175.654 187.523 175.654L187.523 175.654C187.522 175.654 187.521 175.654 187.521 175.654L187.521 175.654L187.521 175.654L187.522 175.654L187.522 175.654L187.522 175.654C187.523 175.654 187.524 175.654 187.525 175.654C187.525 175.654 187.525 175.654 187.525 175.654L187.527 175.654Z" fill="#274029"/>
<path d="M187.53 175.66C187.53 175.659 187.529 175.66 187.53 175.66Z" fill="#274029"/>
<path d="M187.528 175.655L187.527 175.657L187.525 175.656L187.528 175.655Z" fill="#274029"/>
<path d="M187.525 175.654L187.525 175.657L187.527 175.655L187.523 175.659L187.525 175.654Z" fill="#274029"/>
<path d="M271.813 171.027L271.793 171.028L223.614 171.637C223.226 172.022 222.817 172.276 222.387 172.401L219.974 172.888C219.043 172.997 218.266 173.109 217.644 173.223C216.496 173.454 215.513 173.667 214.695 173.864C213.129 174.224 211.849 174.579 210.853 174.929L209.534 175.462C208.841 176.021 208.094 176.48 207.293 176.837C207.918 177.692 208.472 178.185 208.953 178.316C209.52 178.574 210.188 178.722 210.955 178.76L271.873 177.99L272.425 177.951C274.495 177.561 275.656 176.457 275.906 174.639C275.77 173.526 275.431 172.722 274.887 172.227C274.106 171.616 273.572 171.305 273.286 171.296C272.849 171.159 272.358 171.07 271.813 171.027Z" fill="#274029"/>
<path d="M169.119 175.034L171.912 175.333L171.499 175.315C173.714 175.269 175.464 175.169 176.792 175.093C177.547 175.05 178.237 175.01 178.769 174.998L178.774 174.998L178.783 174.998L178.781 174.998C180.432 174.964 181.829 174.958 182.978 174.953C183.798 174.95 184.462 174.946 185.005 174.935H185.005C185.126 174.933 185.247 174.93 185.351 174.927C186.073 174.904 186.808 174.937 187.49 175.076C188.432 175.268 190.409 175.981 190.493 177.933L190.493 177.933C190.495 177.99 190.495 178.046 190.494 178.102V178.101C190.475 178.874 190.331 179.697 189.917 180.472C189.697 180.885 189.403 181.278 189.023 181.632C188.978 181.673 188.932 181.713 188.885 181.752L180.162 188.799L180.309 188.671L174.076 194.53C174.062 194.543 174.049 194.555 174.035 194.568L172.029 196.374C170.976 197.323 169.222 197.362 168.111 196.463C167.001 195.563 166.954 194.064 168.008 193.116L170.014 191.309L169.974 191.346L176.206 185.487C176.253 185.443 176.302 185.4 176.353 185.359L185.076 178.312L184.938 178.431C184.894 178.472 184.876 178.504 184.874 178.507C184.878 178.5 184.944 178.365 184.953 178.004V178.004C184.952 178.037 184.952 178.071 184.954 178.106L184.954 178.106C185.012 179.462 186.409 179.723 186.201 179.681C186.173 179.675 185.979 179.645 185.553 179.658C185.424 179.662 185.276 179.666 185.138 179.669H185.138C184.531 179.681 183.809 179.684 183.007 179.688C181.858 179.693 180.507 179.699 178.913 179.732L178.911 179.732L178.901 179.732L178.906 179.732C178.518 179.74 177.969 179.771 177.162 179.817C175.826 179.893 173.975 179.999 171.636 180.049C171.498 180.052 171.36 180.046 171.223 180.031L168.43 179.732C166.911 179.57 165.834 178.386 166.024 177.089C166.214 175.791 167.6 174.871 169.119 175.034Z" fill="#274029"/>
<path d="M169.869 191.299C169.129 191.299 168.391 191.551 167.846 192.049C167.724 192.16 167.599 192.284 167.472 192.422C167.458 192.437 167.444 192.452 167.43 192.468C167.234 192.689 167.096 192.841 167.015 192.924C167.009 192.93 167.003 192.936 166.998 192.942C166.883 193.061 166.763 193.178 166.638 193.293C165.596 194.25 165.66 195.748 166.781 196.639C167.315 197.062 167.992 197.272 168.667 197.272C169.41 197.272 170.152 197.018 170.698 196.516C170.892 196.337 171.08 196.155 171.26 195.969C171.396 195.831 171.581 195.629 171.816 195.363H171.815C171.848 195.327 171.874 195.301 171.892 195.284C172.938 194.33 172.88 192.832 171.763 191.938C171.228 191.511 170.548 191.299 169.869 191.299Z" fill="#274029"/>
<path d="M175.489 182.688C175.549 182.688 175.611 182.69 175.675 182.694H175.674C175.611 182.69 175.547 182.688 175.482 182.688C175.466 182.688 175.45 182.688 175.433 182.688C175.451 182.688 175.47 182.688 175.489 182.688ZM179.468 182.577C179.265 182.619 179.064 182.682 178.871 182.766H178.87C179.075 182.675 179.274 182.612 179.467 182.577H179.468ZM171.062 182.801C171.116 182.807 171.173 182.816 171.232 182.826H171.231C171.175 182.816 171.118 182.808 171.061 182.801H171.062ZM178.865 187.233C178.819 187.238 178.774 187.242 178.732 187.245C178.747 187.244 178.762 187.243 178.777 187.241C178.806 187.239 178.835 187.236 178.864 187.233H178.865ZM180.122 182.51C179.973 182.51 179.823 182.52 179.673 182.541L179.386 182.537L179.071 182.521C179.03 182.519 178.989 182.518 178.948 182.517C178.821 182.516 178.717 182.515 178.635 182.515C178.598 182.515 178.566 182.515 178.538 182.515H178.539C178.439 182.516 178.343 182.521 178.253 182.528H178.251C178.118 182.539 177.969 182.546 177.803 182.551C177.736 182.553 177.668 182.557 177.648 182.56L177.648 182.56L177.601 182.564C177.33 182.589 176.903 182.616 176.321 182.647H176.32C175.815 182.671 175.514 182.685 175.416 182.689H175.415C175.375 182.689 175.332 182.691 175.285 182.694C175.218 182.697 175.065 182.707 174.826 182.723H174.825C174.368 182.742 174.066 182.756 173.919 182.767C173.918 182.767 173.917 182.767 173.915 182.767H173.914C173.879 182.768 173.826 182.769 173.758 182.769C173.719 182.769 173.679 182.77 173.64 182.772L173.218 182.791L173.108 182.791C173.106 182.791 173.105 182.791 173.103 182.791C173.01 182.791 172.917 182.795 172.823 182.803H172.822C172.77 182.807 172.662 182.813 172.499 182.821H172.498C172.479 182.821 172.455 182.821 172.426 182.821C172.374 182.821 172.306 182.821 172.221 182.82C172.218 182.82 172.215 182.82 172.211 182.82C172.19 182.82 172.17 182.821 172.149 182.821L171.887 182.826C171.831 182.826 171.759 182.824 171.669 182.823C171.648 182.822 171.627 182.822 171.606 182.822C171.593 182.822 171.58 182.822 171.568 182.822C171.519 182.82 171.469 182.817 171.419 182.816H171.418C171.345 182.808 171.27 182.804 171.172 182.801H171.173L171.191 182.801C171.103 182.798 171.037 182.796 170.993 182.794H170.992C170.929 182.788 170.866 182.784 170.802 182.781C170.787 182.781 170.772 182.78 170.757 182.78H170.757C170.699 182.778 170.642 182.777 170.587 182.777C170.459 182.777 170.338 182.782 170.225 182.792C168.702 182.923 167.593 184.084 167.747 185.385C167.891 186.605 169.095 187.515 170.501 187.515C170.517 187.515 170.533 187.515 170.549 187.514H170.55C170.556 187.515 170.562 187.515 170.568 187.515C170.646 187.52 170.748 187.525 170.875 187.529H170.874L170.882 187.53C170.989 187.541 171.096 187.547 171.203 187.547H171.202C171.298 187.556 171.394 187.56 171.49 187.56C171.519 187.56 171.548 187.56 171.577 187.559L171.619 187.558H171.62C171.728 187.56 171.82 187.561 171.896 187.561C171.9 187.561 171.904 187.561 171.908 187.561C171.929 187.561 171.951 187.561 171.972 187.56L172.238 187.555H172.239C172.305 187.555 172.364 187.555 172.414 187.555C172.503 187.555 172.569 187.555 172.612 187.555H172.611C172.639 187.554 172.665 187.554 172.689 187.553H172.689C172.71 187.553 172.731 187.552 172.752 187.551C172.947 187.541 173.102 187.533 173.215 187.526H173.216L173.283 187.526C173.284 187.526 173.286 187.526 173.288 187.526C173.336 187.526 173.384 187.525 173.432 187.523L173.873 187.503H173.872C173.998 187.502 174.101 187.5 174.178 187.497L174.179 187.497C174.214 187.496 174.248 187.494 174.281 187.492H174.281C174.317 187.49 174.352 187.488 174.388 187.485H174.387C174.48 187.478 174.725 187.467 175.121 187.451H175.12L175.135 187.45C175.161 187.449 175.187 187.448 175.213 187.446C175.41 187.433 175.54 187.425 175.603 187.421H175.602C175.608 187.421 175.613 187.42 175.618 187.42C175.726 187.417 176.068 187.401 176.645 187.374L176.661 187.373C177.267 187.341 177.745 187.31 178.094 187.28H178.093C178.295 187.273 178.487 187.263 178.67 187.25H178.671C178.706 187.25 178.753 187.25 178.811 187.251H178.809L179.118 187.266C179.156 187.268 179.194 187.269 179.232 187.27L179.741 187.277C179.757 187.278 179.773 187.278 179.79 187.278C179.791 187.278 179.792 187.278 179.793 187.278C179.834 187.278 179.874 187.277 179.912 187.277H179.912C180.519 187.266 181.045 187.153 181.49 186.938C182.822 186.293 183.291 184.849 182.537 183.711C182.027 182.942 181.088 182.51 180.122 182.51Z" fill="#274029"/>
<path d="M50.2168 119.603L50.2187 119.603L50.1934 119.602L50.1914 119.602C49.8866 119.593 49.6549 119.587 49.4367 119.587C49.9966 119.587 47.0658 117.221 46.2345 130.368C45.3554 144.271 47.1109 172.399 48.8949 200.882L48.8863 200.776C49.581 207.723 50.3172 212.017 53.0594 213.756C54.603 214.735 57.434 215.261 61.8787 215.261C64.8527 215.261 68.1195 215.036 71.5862 214.796C71.6307 214.793 71.6749 214.79 71.7195 214.788L152.115 211.569C152.16 211.567 152.205 211.566 152.25 211.565L152.248 211.565L152.286 211.565L152.288 211.565C158.344 211.501 161.264 211.198 162.423 210.026C163.823 208.608 163.997 205.095 163.884 199.27C163.883 199.217 163.884 199.164 163.886 199.111L166.386 130.943L166.387 130.929C166.665 124.201 166.617 119.722 164.824 117.773C163.292 116.109 159.583 115.713 152.732 115.476L152.996 115.477L91.5573 116.896L91.673 116.891L61.1167 118.371C58.9599 118.475 57.1125 117.067 56.9902 115.224C56.8679 113.382 58.5172 111.804 60.674 111.699L91.2303 110.22C91.2688 110.218 91.3074 110.216 91.346 110.215L152.785 108.797C152.873 108.795 152.961 108.796 153.049 108.799C158.305 108.981 166.703 109.004 170.973 113.643C174.981 117.997 174.43 125.706 174.205 131.165L174.205 131.152L171.705 199.32L171.706 199.16C171.793 203.686 172.167 210.522 168.402 214.335C164.407 218.38 156.834 218.2 152.384 218.247L152.385 218.247L152.347 218.247L152.481 218.244L72.0858 221.464L72.2191 221.456C68.8245 221.692 65.2296 221.943 61.8787 221.943C57.2639 221.943 52.136 221.493 48.3968 219.122C42.1678 215.172 41.6506 206.932 41.0919 201.345C41.0884 201.31 41.0855 201.274 41.0833 201.239C39.3134 172.982 37.515 144.37 38.4231 130.007C39.226 117.31 42.3948 112.905 49.4367 112.905C49.8087 112.905 50.171 112.915 50.4598 112.924L50.4577 112.924L50.4831 112.924C52.644 112.988 54.3341 114.534 54.26 116.378C54.1859 118.223 52.3757 119.666 50.2168 119.603Z" fill="#274029"/>
<path d="M188.656 162.512L187.553 162.515C183.477 162.535 178.259 162.6 171.898 162.711C171.636 162.709 171.201 162.805 170.594 162.996C168.749 163.806 168.02 165.137 168.408 166.991C168.484 167.431 168.975 168.019 169.882 168.752C170.713 169.207 171.451 169.421 172.097 169.392C181.233 169.246 186.373 169.181 187.518 169.197C187.329 168.192 187.323 167.148 187.498 166.065C187.541 165.856 187.715 165.309 188.02 164.424C188.076 164.056 188.145 163.75 188.228 163.506C188.305 163.257 188.448 162.926 188.656 162.512Z" fill="#274029"/>
<path d="M220.026 171.92L219.561 171.987C216.004 172.56 213.951 172.991 213.404 173.279C210.906 174.569 208.699 175.808 206.783 176.994L202.87 178.65L201.071 179.787L165.303 207.257C163.894 208.571 163.606 209.889 164.439 211.211C164.75 211.833 165.162 212.26 165.677 212.492C166.7 212.898 167.657 213.069 168.546 213.007C169.061 212.918 169.594 212.745 170.145 212.489L217.303 176.299C218.881 174.593 219.788 173.133 220.026 171.92Z" fill="#274029"/>
<path d="M104.438 148.757C104.88 149.96 104.886 151.515 104.458 153.423L104.463 153.403C103.628 157.292 102.709 159.98 101.706 161.466L101.708 161.463C99.3652 164.946 95.8603 167.502 91.1934 169.131L91.441 164.261L96.9857 166.695C97.0645 166.729 97.1415 166.767 97.2166 166.807C98.3484 167.412 99.621 168.477 101.034 170.002C101.063 170.033 101.09 170.064 101.117 170.095C105.247 174.976 107.558 179.431 108.049 183.462L106.66 181.503C104.997 180.561 103.625 180.787 102.543 182.181C102.428 182.328 102.351 182.457 102.312 182.567L102.312 182.567C102.312 182.567 102.312 182.565 102.313 182.564L102.247 182.8C102.623 181.132 103.278 179.127 104.209 176.786C104.218 176.763 104.227 176.741 104.237 176.719C105.542 173.702 106.513 171.781 107.15 170.957C107.604 170.368 108.146 169.952 108.776 169.708L107.362 170.797C109.016 168.38 111.636 166.215 115.223 164.301L117.148 169.25C116.832 169.273 116.505 169.271 116.167 169.244C114.475 169.111 112.177 168.251 109.273 166.663L109.328 166.692C107.79 165.889 106.202 164.638 104.562 162.939C104.558 162.935 104.555 162.931 104.551 162.927C103.569 161.897 102.473 160.255 101.263 157.998C101.178 157.84 101.112 157.675 101.064 157.506L99.2789 151.141C98.8746 149.7 99.9144 148.252 101.601 147.907C103.288 147.562 104.983 148.45 105.387 149.891L107.173 156.255L106.974 155.763C107.962 157.605 108.777 158.863 109.421 159.539L109.409 159.526C110.602 160.761 111.667 161.624 112.605 162.114C112.623 162.124 112.642 162.134 112.66 162.144C114.705 163.262 116.065 163.848 116.742 163.901C116.714 163.898 116.676 163.899 116.626 163.903C118.071 163.8 119.41 164.555 119.868 165.731C120.325 166.906 119.781 168.196 118.551 168.852C115.84 170.299 113.918 171.85 112.786 173.505C112.458 173.984 111.964 174.365 111.372 174.594C111.842 174.412 112.183 174.184 112.393 173.911C112.022 174.392 111.267 175.948 110.129 178.579L110.157 178.512C109.317 180.622 108.737 182.39 108.414 183.816C108.396 183.896 108.374 183.975 108.348 184.052C108.337 184.084 108.326 184.115 108.315 184.146L108.315 184.145C108.177 184.529 107.998 184.862 107.779 185.145C106.547 186.733 105.017 187.01 103.19 185.976C102.408 185.533 101.898 184.814 101.801 184.017C101.426 180.937 99.5011 177.345 96.0265 173.239L96.1093 173.333C95.1448 172.292 94.403 171.633 93.8839 171.355L94.1147 171.468L88.57 169.034C87.4793 168.555 86.8145 167.578 86.8677 166.531C86.9209 165.484 87.6824 164.56 88.8177 164.164C92.1536 162.999 94.6349 161.208 96.2616 158.789L96.264 158.786C96.9065 157.834 97.58 155.717 98.2845 152.435C98.286 152.428 98.2875 152.421 98.2891 152.414C98.5187 151.39 98.5704 150.706 98.4442 150.362C97.9255 148.948 98.8467 147.443 100.502 146.999C102.157 146.556 103.92 147.343 104.438 148.757Z" fill="#274029"/>
<path d="M99.3229 153.989L99.3228 153.989C99.3233 153.987 99.3236 153.986 99.3239 153.985L99.3239 153.985C99.2798 154.153 99.2673 154.351 99.2862 154.581L99.2852 154.569L99.2459 154.059C99.2406 153.99 99.2384 153.92 99.2394 153.851L99.2457 153.405C99.2468 153.32 99.2527 153.235 99.2634 153.151L99.3677 152.32L99.3504 152.555L99.3572 152.248L99.3591 152.404L99.3472 152.148L99.3698 152.38L99.3286 152.103L102.042 154.426C100.251 154.228 99.3375 153.344 99.3015 151.774C99.3006 151.735 99.3 151.687 99.2997 151.627L99.3084 151.814L99.288 151.581C99.2795 151.484 99.2772 151.386 99.2812 151.288C99.2869 151.147 99.2939 151.028 99.3021 150.933C99.3123 150.816 99.3265 150.708 99.3449 150.611L99.3462 150.605L99.4446 150.094L99.4227 150.229C99.4201 150.249 99.4183 150.264 99.4173 150.276C99.4207 150.236 99.425 150.153 99.4302 150.027L99.6374 151.082C99.6004 151 99.5727 150.943 99.5543 150.911C100.269 152.157 101.482 152.499 103.194 151.937L103.194 151.937C104.12 151.633 104.716 151.095 104.985 150.322L105.082 149.168C105.124 149.415 105.133 149.683 105.109 149.974L105.114 149.663C105.11 149.597 105.105 149.543 105.098 149.499L105.097 149.498C105.097 149.496 105.097 149.495 105.097 149.494L105.062 149.327C105.184 149.822 105.264 150.206 105.3 150.479C105.309 150.544 105.316 150.606 105.321 150.666L105.308 150.553C105.313 150.586 105.317 150.621 105.321 150.657C105.34 150.827 105.356 151.077 105.369 151.405L105.367 151.358C105.371 151.421 105.373 151.488 105.374 151.559C105.376 151.726 105.368 151.936 105.351 152.19C105.35 152.2 105.349 152.209 105.349 152.219L105.224 153.775L105.225 153.763C105.212 153.936 105.204 154.047 105.203 154.095C105.203 154.095 105.203 154.095 105.203 154.095C105.201 154.137 105.199 154.179 105.195 154.221L105.195 154.221C105.198 154.189 105.2 154.161 105.2 154.139C105.198 154.207 105.197 154.403 105.197 154.727C105.197 154.763 105.196 154.799 105.194 154.835C105.187 154.982 105.182 155.159 105.179 155.367L105.179 155.357L105.17 156.248L105.169 156.155C105.196 157.03 105.214 157.533 105.223 157.665L105.223 157.665C105.222 157.649 105.22 157.628 105.217 157.604C105.221 157.631 105.223 157.659 105.225 157.686L105.298 158.644L105.286 158.522L105.286 158.522L105.289 158.547C105.358 159.127 105.399 159.516 105.412 159.714L105.397 159.566C105.402 159.604 105.406 159.645 105.41 159.69C105.422 159.821 105.446 160.185 105.482 160.781L105.479 160.74L105.48 160.742L105.479 160.74C105.498 160.978 105.512 161.459 105.52 162.184C105.521 162.205 105.521 162.226 105.52 162.247C105.506 163.157 105.473 164.093 105.423 165.055L105.423 165.051C105.416 165.188 105.401 165.375 105.376 165.612C105.373 165.646 105.369 165.68 105.364 165.714C105.318 166.023 105.266 166.455 105.207 167.008C105.049 168.484 103.522 169.571 101.794 169.437C100.067 169.303 98.7937 167.998 98.9509 166.522C99.0165 165.906 99.0767 165.413 99.1314 165.043L99.1186 165.145C99.1349 164.986 99.1444 164.878 99.1474 164.82L99.1476 164.816C99.1949 163.909 99.2255 163.028 99.2393 162.173L99.2391 162.237C99.2319 161.616 99.223 161.238 99.2123 161.104L99.2121 161.102L99.212 161.101C99.2111 161.089 99.2101 161.074 99.2092 161.06C99.1755 160.506 99.1547 160.184 99.1468 160.095C99.1483 160.112 99.1507 160.133 99.1539 160.157C99.1474 160.108 99.1426 160.059 99.1395 160.009C99.1321 159.894 99.0987 159.588 99.0394 159.09L99.0424 159.115L99.0424 159.115C99.0355 159.058 99.0323 159.025 99.0298 158.992L98.9569 158.034L98.9647 158.117C98.96 158.075 98.9559 158.029 98.9525 157.978L98.9525 157.978C98.9395 157.789 98.9187 157.229 98.8898 156.296C98.8888 156.265 98.8885 156.234 98.8888 156.203L98.8978 155.311L98.8979 155.301C98.9016 155.042 98.9082 154.813 98.9177 154.615L98.9151 154.723C98.9154 154.35 98.9175 154.105 98.9213 153.988C98.9233 153.929 98.9263 153.876 98.9305 153.827L98.9232 153.953C98.9233 153.948 98.9235 153.943 98.9237 153.938C98.9275 153.827 98.9382 153.654 98.9559 153.419L98.9568 153.408L99.0818 151.852L99.0796 151.881C99.0888 151.745 99.0931 151.653 99.0926 151.605C99.0927 151.615 99.0933 151.627 99.0943 151.644C99.0933 151.628 99.0925 151.612 99.0918 151.596C99.0824 151.37 99.074 151.223 99.0666 151.155C99.067 151.159 99.0676 151.164 99.0685 151.17C99.0634 151.132 99.0593 151.095 99.056 151.057C99.0571 151.069 99.0581 151.079 99.059 151.086C99.0452 150.982 98.9976 150.766 98.9162 150.437C98.9025 150.382 98.8908 150.326 98.8812 150.27C98.8808 150.268 98.8804 150.265 98.88 150.263L98.8798 150.262C98.8579 150.132 98.8441 150.012 98.8384 149.903C98.833 149.8 98.8346 149.696 98.8432 149.593C98.8351 149.69 98.8429 149.809 98.8668 149.948C98.8005 149.562 98.8335 149.168 98.9635 148.794C99.2819 147.878 99.941 147.256 100.941 146.928L100.941 146.928C102.806 146.315 104.224 146.856 105.196 148.551C105.296 148.725 105.397 148.927 105.501 149.157C105.652 149.494 105.723 149.853 105.708 150.213C105.7 150.409 105.691 150.562 105.682 150.672C105.677 150.729 105.671 150.783 105.665 150.832C105.659 150.877 105.651 150.921 105.643 150.966L105.544 151.477L105.546 151.47C105.556 151.413 105.563 151.365 105.567 151.327C105.564 151.353 105.562 151.402 105.559 151.475L105.552 151.182L105.573 151.415C105.578 151.478 105.581 151.54 105.581 151.603C105.581 151.635 105.582 151.657 105.582 151.669C105.547 150.156 104.635 149.301 102.846 149.104C104.262 149.258 105.38 150.214 105.56 151.427L105.601 151.704C105.613 151.781 105.62 151.859 105.624 151.937L105.636 152.193C105.638 152.245 105.639 152.297 105.638 152.35L105.631 152.657C105.629 152.735 105.623 152.814 105.613 152.892L105.509 153.723L105.527 153.469L105.521 153.915L105.514 153.707L105.553 154.217L105.552 154.205C105.576 154.498 105.543 154.816 105.453 155.16L105.453 155.16C105.448 155.18 105.442 155.201 105.436 155.223C105.037 156.665 103.345 157.558 101.657 157.217C99.9687 156.876 98.9238 155.431 99.3229 153.989Z" fill="#274029"/>
<path d="M95.7875 165.84C95.9289 166.07 96.1024 166.276 96.3008 166.457L96.3006 166.457C96.3049 166.484 96.3093 166.511 96.3139 166.538C96.1252 166.341 95.9497 166.109 95.7873 165.84H95.7875ZM106.679 161.185C105.537 161.185 104.519 161.606 103.624 162.448C103.355 162.702 103.142 162.996 102.995 163.315C102.926 163.465 102.864 163.614 102.807 163.764C102.734 163.709 102.66 163.656 102.585 163.606C102.243 163.372 101.889 163.178 101.523 163.023L101.522 163.023C100.831 161.978 99.9332 161.455 98.8293 161.455C98.2206 161.455 97.5492 161.614 96.8152 161.932C96.5975 162.026 96.384 162.139 96.1747 162.272C96.0315 162.363 95.8972 162.463 95.773 162.572C94.8807 163.356 94.4731 164.271 94.5502 165.317L94.55 165.317C94.5431 166.628 95.0048 167.907 95.9351 169.156C96.0002 169.243 96.0708 169.327 96.1466 169.408C96.8523 170.158 97.5294 170.792 98.1781 171.309L98.1779 171.309C98.6073 172.215 99.3158 173.121 100.304 174.027C100.329 174.05 100.355 174.073 100.381 174.095C100.899 174.54 101.423 174.9 101.952 175.174C102.037 175.218 102.121 175.26 102.205 175.3L102.205 175.3C102.818 175.682 103.454 175.982 104.114 176.2C104.45 176.31 104.804 176.373 105.164 176.386C105.261 176.39 105.357 176.392 105.451 176.392C107.616 176.392 108.767 175.449 108.904 173.564L108.904 173.564C109.197 173.071 109.463 172.443 109.701 171.679L109.701 171.679C109.783 171.652 109.865 171.623 109.947 171.592C110.182 171.504 110.403 171.394 110.608 171.262C111.357 170.782 111.934 170.139 112.338 169.334C112.495 169.022 112.624 168.687 112.727 168.329C112.756 168.226 112.779 168.122 112.794 168.017C113.023 166.484 112.492 165.329 111.202 164.552L111.202 164.552C110.965 164.385 110.711 164.221 110.44 164.058L110.439 164.059C110.436 164.046 110.433 164.034 110.43 164.022C109.947 162.172 108.73 161.227 106.777 161.186L106.777 161.186C106.744 161.185 106.712 161.185 106.679 161.185Z" fill="#274029"/>
<path d="M274.828 86.4524C274.73 86.4524 274.632 86.4547 274.532 86.4595L274.53 86.4596C272.558 86.5365 270.492 87.5565 268.331 89.5195L268.329 89.5196C266.739 90.8308 265.192 92.6429 263.686 94.9561L263.684 94.9562C262.37 96.7121 261.609 98.671 261.401 100.833C261.377 101.08 261.427 101.329 261.546 101.555C261.67 101.792 261.844 101.988 262.068 102.143L262.069 102.143C262.474 102.423 262.862 102.564 263.233 102.564C263.688 102.564 264.119 102.352 264.523 101.929C264.87 101.569 265.603 101.063 266.722 100.41L266.722 100.411L269.715 98.7396L275.437 96.396C275.473 96.3813 275.508 96.3655 275.543 96.3486C277.088 95.5985 278.157 94.9844 278.748 94.5063L278.746 94.5064C280.993 92.8928 281.536 90.9036 280.377 88.539C280.268 88.3188 280.099 88.1244 279.883 87.9727C278.639 87.0976 277.345 86.634 276.001 86.5818L275.999 86.582C275.635 86.4956 275.244 86.4524 274.828 86.4524Z" fill="#274029"/>
<path d="M274.722 105.456C277.401 105.403 279.55 105.59 281.168 106.018C281.176 106.02 281.185 106.022 281.193 106.025C282.729 106.453 283.921 106.862 284.768 107.252L284.719 107.23C286.419 107.954 287.722 108.601 288.629 109.172L288.391 109.046C289.724 109.628 290.504 109.956 290.731 110.031C290.631 109.998 290.512 109.976 290.372 109.965C290.524 109.977 290.674 110.007 290.817 110.054C291.601 110.309 292.125 110.421 292.387 110.39C292.368 110.392 292.342 110.399 292.309 110.41C292.353 110.395 292.398 110.382 292.444 110.37C292.549 110.343 292.619 110.318 292.653 110.294C292.632 110.309 292.617 110.328 292.609 110.351C292.649 110.241 292.615 110.03 292.507 109.716C292.436 109.513 292.336 109.288 292.205 109.041L292.242 109.105C291.642 108.103 290.351 107.327 288.367 106.774L288.426 106.79C287.044 106.451 285.067 106.353 282.496 106.495L282.581 106.488C281.416 106.602 280.569 106.724 280.04 106.854C280.029 106.857 280.018 106.859 280.007 106.862C279.08 107.072 277.779 107.489 276.105 108.112C275.234 108.436 274.221 108.096 273.842 107.353C273.463 106.609 273.861 105.744 274.732 105.42C276.565 104.738 278.029 104.272 279.124 104.024L279.091 104.031C279.803 103.857 280.836 103.703 282.189 103.571C282.218 103.568 282.246 103.566 282.275 103.564C285.243 103.401 287.609 103.535 289.373 103.967C289.393 103.972 289.412 103.977 289.432 103.982C292.316 104.785 294.273 106.047 295.303 107.769C295.315 107.79 295.327 107.811 295.339 107.833C295.534 108.202 295.689 108.552 295.803 108.883C296.111 109.772 296.139 110.558 295.885 111.239C295.687 111.772 295.336 112.214 294.83 112.568C294.438 112.841 293.968 113.047 293.419 113.186L293.554 113.147C293.338 113.219 293.106 113.269 292.861 113.298C292.016 113.399 290.927 113.232 289.593 112.798L290.039 112.887C289.866 112.873 289.683 112.834 289.489 112.77C289.152 112.658 288.265 112.289 286.827 111.661C286.744 111.625 286.665 111.583 286.59 111.536C285.843 111.066 284.708 110.507 283.186 109.859C283.169 109.852 283.153 109.844 283.137 109.837C282.471 109.53 281.467 109.19 280.127 108.816L280.152 108.823C278.891 108.49 277.107 108.346 274.802 108.392C273.853 108.411 273.065 107.769 273.043 106.958C273.022 106.147 273.773 105.475 274.722 105.456Z" fill="#274029"/>
<path d="M283.368 104.382C282.557 104.382 281.836 104.874 281.681 105.58C281.519 106.317 282.033 107.03 282.85 107.25L282.848 107.25C282.934 107.342 283.034 107.431 283.148 107.519C283.248 107.595 283.371 107.681 283.518 107.775L283.518 107.775C285.175 108.855 286.751 109.731 288.245 110.402L288.243 110.402C288.352 110.478 288.465 110.554 288.58 110.632L288.58 110.633C289.374 111.173 290.136 111.55 290.867 111.764L290.867 111.764C290.954 111.79 291.041 111.813 291.126 111.833C291.445 111.907 291.743 111.944 292.019 111.944C292.788 111.944 293.389 111.658 293.824 111.085L293.822 111.085C294.353 110.601 294.425 109.974 294.037 109.202C293.901 108.931 293.677 108.607 293.364 108.23C293.329 108.188 293.291 108.147 293.251 108.108C292.073 106.966 290.815 106.268 289.476 106.017L289.473 106.017C288.897 105.743 288.409 105.562 288.008 105.473C287.768 105.421 287.538 105.394 287.317 105.394C287.251 105.394 287.186 105.397 287.122 105.401L287.12 105.401C286.874 105.413 286.652 105.44 286.452 105.483C286.054 105.294 285.732 105.153 285.483 105.058L285.481 105.058C284.845 104.73 284.284 104.52 283.798 104.427C283.761 104.42 283.724 104.414 283.687 104.408C283.58 104.39 283.473 104.382 283.368 104.382Z" fill="#274029"/>
<path d="M196.312 128.228L196.184 128.229C194.821 128.235 193.627 128.408 192.602 128.749C192.07 128.919 191.56 129.13 191.074 129.384C190.802 129.458 190.123 129.931 189.038 130.803C188.209 131.533 187.566 132.406 187.106 133.423C187.365 134.107 187.161 135.172 186.495 136.619C186.694 138.453 187.294 139.926 188.295 141.039C190.085 140.12 191.654 140.111 193.002 141.012C193.693 141.484 194.312 142.096 194.86 142.848C195.72 144.442 196.346 145.739 196.737 146.737C196.97 147.383 196.98 147.989 196.766 148.557C196.527 149.116 196.089 149.545 195.454 149.843L195.69 150.273C194.768 151.354 194.186 152.536 193.944 153.818C193.765 155.237 193.867 156.447 194.249 157.448L196.734 155.992C196.903 155.898 197.081 155.82 197.269 155.759L208.057 152.498C212.448 151.605 214.913 150.983 215.45 150.629C214.758 147.697 213.847 145.27 212.719 143.349C210.137 138.937 208.061 135.899 206.494 134.237C204.572 132.073 202.974 130.632 201.698 129.915C201.338 129.577 200.261 129.105 198.465 128.498C197.747 128.318 197.029 128.228 196.312 128.228Z" fill="#274029"/>
<path d="M214.799 155.856L214.346 155.97C212.75 156.357 211.204 156.7 209.71 156.999L200.805 159.691C200.673 159.794 200.492 159.871 200.262 159.922C199.999 160.081 199.715 160.231 199.41 160.372L197.974 160.983L197.352 161.347C197.96 161.752 198.5 162.047 198.971 162.233C200.002 162.64 200.914 162.904 201.705 163.025C202.32 163.131 202.956 163.165 203.614 163.129L204.927 162.961L206.053 162.73C208.208 162.186 210.028 161.289 211.512 160.037C212.947 158.853 214.042 157.459 214.799 155.856Z" fill="#274029"/>
<path d="M181.581 165.627L181.581 165.627C181.58 165.628 181.575 165.629 181.565 165.631C181.555 165.633 181.544 165.635 181.532 165.637C181.503 165.643 181.475 165.647 181.447 165.652C181.463 165.648 181.475 165.646 181.484 165.644L181.508 165.639L181.513 165.638L181.531 165.635C181.544 165.632 181.554 165.63 181.562 165.629C181.571 165.628 181.575 165.627 181.576 165.627L181.579 165.627L181.581 165.627Z" fill="#274029"/>
<path d="M222.151 153.091L221.851 153.098C221.039 153.134 220.113 153.315 219.073 153.64C219.048 153.945 218.654 154.349 217.89 154.85C217.397 155.12 216.764 155.348 215.989 155.533C214.78 156.587 213.993 157.686 213.627 158.83C212.537 158.866 211.43 158.723 210.307 158.401L210.242 156.89L209.71 156.999L200.806 159.691L199.41 160.372L198.069 160.942L194.867 162.854C193.994 163.544 193.354 165.095 192.946 167.509L198.135 171.234C198.428 171.438 198.863 171.682 199.437 171.965C199.685 171.967 200.421 171.824 201.644 171.537C202.654 171.129 206.219 170.05 212.34 168.299C213.222 168.077 214.88 167.79 217.314 167.439C221.791 166.759 225.839 166.894 229.459 167.844C230.436 166.453 231.239 164.852 231.869 163.038C232.183 161.194 232.07 159.639 231.53 158.371C231.163 157.599 230.729 156.912 230.228 156.31L229.425 155.47C228.856 154.952 228.221 154.519 227.517 154.171C226.225 153.475 224.436 153.115 222.151 153.091Z" fill="#274029"/>
<path d="M223.078 171.734L223.042 171.734C222.251 171.73 221.42 171.768 220.549 171.848C220.408 171.901 220.259 171.943 220.103 171.975C218.268 172.3 217.197 172.5 216.892 172.574C216.3 172.698 215.9 172.799 215.69 172.875L212.8 173.861L212.42 174.037C211.987 174.312 211.512 174.601 210.997 174.904C211.541 174.952 212.298 174.982 213.27 174.996L214.611 174.963L215.927 174.862L217.218 174.695L218.483 174.46L219.722 174.158L220.936 173.79C221.542 173.592 222.404 173.244 223.52 172.744C224.134 172.455 224.688 172.158 225.182 171.853C224.894 171.822 224.474 171.79 223.923 171.757C223.617 171.742 223.336 171.734 223.078 171.734Z" fill="#274029"/>
<path d="M213.065 173.51L213.024 173.555C212.941 173.644 212.852 173.728 212.755 173.806C212.649 173.889 212.555 173.956 212.472 174.005C212.521 173.977 212.569 173.946 212.616 173.914L212.686 173.865C212.731 173.831 212.776 173.795 212.819 173.757C212.863 173.72 212.905 173.68 212.946 173.639L213.007 173.576L213.066 173.51H213.065Z" fill="#274029"/>
<path d="M200.174 144.58L200.2 144.605C200.397 144.798 200.543 144.954 200.638 145.074C200.71 145.166 200.754 145.229 200.772 145.262C200.791 145.307 200.773 145.302 200.72 145.249C200.678 145.206 200.627 145.149 200.566 145.075L200.173 144.58L200.174 144.58ZM190.806 140.344L190.84 140.344C191.504 140.371 192.108 140.522 192.649 140.799C193.491 141.339 194.025 141.771 194.251 142.095C194.733 142.62 195.07 143.12 195.261 143.596C195.856 144.68 196.381 145.838 196.834 147.071C197.051 147.852 196.903 148.547 196.387 149.157C196.356 149.235 196.175 149.397 195.845 149.641C195.703 149.73 195.546 149.807 195.375 149.872C195.035 150.001 194.634 150.08 194.172 150.11C193.979 150.11 193.793 150.096 193.615 150.066C193.181 149.966 192.93 149.888 192.86 149.833C192.546 149.684 192.26 149.477 192.003 149.21C191.834 149.012 191.72 148.853 191.66 148.736C191.336 147.76 190.973 146.914 190.571 146.198L189.407 148.07L188.493 149.205C188.099 149.562 187.711 149.79 187.328 149.886C186.645 150.104 185.917 150.065 185.146 149.77C184.315 149.293 183.837 148.799 183.712 148.287C183.59 147.887 183.614 147.415 183.785 146.871L183.964 146.548L184.744 145.55C185.256 144.668 185.688 143.975 186.038 143.472C186.426 142.895 186.793 142.399 187.139 141.985C188.206 140.88 189.428 140.333 190.806 140.344ZM180.819 123.929L180.511 124.089C179.871 124.399 178.941 125.289 177.72 126.759C178.726 126.491 179.873 126.513 181.16 126.823C182.262 127.073 183.519 127.82 184.928 129.064C186.937 131.447 187.606 133.693 186.936 135.801C186.054 137.367 184.928 138.416 183.558 138.949C182.949 139.207 181.525 139.432 179.289 139.625C177.843 139.367 176.467 138.752 175.16 137.779L172.535 134.896C172.312 134.602 172.179 134.177 172.137 133.619C172.135 133.569 171.875 133.799 171.356 134.309C170.164 135.572 169.302 137.024 168.767 138.664C168.306 140.833 168.294 142.951 168.73 145.021C168.205 145.973 167.894 146.662 167.796 147.088L165.608 156.596C165.64 155.932 165.617 155.737 165.539 156.011C165.376 156.585 165.367 157.408 165.512 158.479C165.495 158.979 165.848 160.103 166.57 161.852C166.905 162.508 167.308 163.101 167.778 163.632C168.624 164.66 169.925 165.506 171.683 166.169C172.49 166.433 173.73 166.637 175.404 166.781C177.146 166.767 178.982 166.435 180.911 165.787L187.487 165.811C188.641 162.123 189.94 159.891 191.384 159.118L197.102 155.819L208.653 152.367C208.234 151.608 207.384 150.854 206.104 150.107C205.429 149.708 204.318 149.312 202.771 148.919C202.665 146.448 201.845 142.702 200.309 137.68C198.895 134.302 198.014 132.3 197.666 131.672C196.395 129.548 194.938 127.576 193.292 125.756C192.056 124.575 191.422 124.042 191.392 124.156C190.885 126.546 189.247 127.607 186.477 127.338C185.392 127.061 184.091 126.486 182.574 125.613C181.786 125.097 181.202 124.535 180.819 123.929Z" fill="#274029"/>
<path d="M190.524 158.842C190.578 159.11 190.649 159.377 190.736 159.643L190.735 159.643C190.642 159.364 190.571 159.097 190.523 158.842H190.524Z" fill="#274029"/>
<path d="M199.728 160.352L199.673 160.36L199.618 160.368C199.546 160.378 199.475 160.39 199.403 160.402C199.344 160.412 199.308 160.418 199.296 160.421L199.297 160.421L199.292 160.423C199.349 160.413 199.411 160.402 199.478 160.391L199.561 160.377L199.645 160.364L199.729 160.352H199.728Z" fill="#274029"/>
<path d="M199.822 149.418L199.582 149.42C196.508 149.553 194.049 150.654 192.205 152.723C191.48 153.528 190.941 154.558 190.59 155.814C190.492 156.209 190.429 156.61 190.402 157.018C190.367 157.118 190.381 157.564 190.443 158.355C190.406 159.172 190.367 159.745 190.327 160.076C190.974 159.492 191.461 159.101 191.789 158.902L196.994 155.863C197.077 155.826 197.187 155.785 197.326 155.742L207.412 152.693C206.558 151.752 205.584 151.013 204.489 150.477L203.646 150.113C203.069 149.896 202.462 149.729 201.824 149.613C201.187 149.497 200.519 149.432 199.822 149.418Z" fill="#274029"/>
<path d="M209.261 157.135L200.805 159.691C199.889 160.168 198.945 160.599 197.974 160.983L195.124 162.656C194.998 162.732 194.781 162.921 194.474 163.225C194.231 163.416 193.879 164.137 193.418 165.386C193.264 165.974 193.106 166.681 192.945 167.509C192.912 167.665 192.909 168.02 192.936 168.574C192.988 169.227 193.235 169.86 193.676 170.474C194.185 170.917 194.861 171.3 195.702 171.625C196.319 171.876 197.422 172.001 199.01 172.001C199.865 171.929 200.743 171.774 201.644 171.537C201.944 171.356 204.956 170.435 210.678 168.776C210.852 167.048 210.25 165.305 208.874 163.545C209.284 159.972 209.413 157.836 209.261 157.135Z" fill="#274029"/>
<path d="M187.65 117.85C187.649 117.853 187.755 117.924 187.968 118.063C187.813 117.954 187.708 117.883 187.65 117.85Z" fill="#274029"/>
<path d="M190.571 146.198L190.459 146.369C190.178 146.798 189.918 147.229 189.68 147.662C189.881 147.599 190.082 147.53 190.283 147.455C190.433 147.402 190.685 147.297 191.037 147.142C190.876 146.801 190.72 146.486 190.571 146.198Z" fill="#274029"/>
<path d="M223.122 171.725L222.597 171.732C222.127 171.737 221.445 171.776 220.552 171.847C220.41 171.9 220.261 171.943 220.104 171.975C219.097 172.152 218.398 172.278 218.007 172.353C220.558 172.804 222.938 172.876 225.146 172.57C226.123 173.096 227.815 173.465 230.222 173.677C230.496 173.898 230.97 174.231 231.644 174.674L230.221 173.294L229.882 173.072L229.256 173.062L229.025 173.042C228.946 173.035 228.757 172.992 228.459 172.911C228.066 172.782 227.709 172.567 227.39 172.268L226.613 172.103C226.012 171.986 225.408 171.888 224.802 171.81C224.436 171.76 223.876 171.732 223.122 171.725Z" fill="#274029"/>
<path d="M191.5 100.173L191.619 100.266C191.767 100.384 191.901 100.497 192.021 100.604L192.109 100.683C192.165 100.735 192.218 100.786 192.267 100.835C192.317 100.884 192.363 100.932 192.405 100.978C192.305 100.874 192.167 100.743 191.993 100.584L191.759 100.383L191.499 100.173H191.5ZM191.755 104.414L192.048 104.417L192.334 104.427L192.614 104.443C192.704 104.45 192.795 104.458 192.886 104.465L193.152 104.494L193.412 104.529L193.665 104.571L193.911 104.618L194.15 104.673L194.123 104.679C193.739 104.593 193.343 104.526 192.935 104.481L192.735 104.46L192.533 104.444L192.332 104.431L192.129 104.421L191.927 104.416C191.814 104.415 191.745 104.414 191.722 104.414L191.755 104.414ZM184.098 116.9L184.357 116.909C184.438 116.882 184.983 116.99 185.989 117.232L187.536 117.786C187.782 117.919 187.977 118.038 188.122 118.142L189.437 119.261C189.771 119.638 190.021 119.928 190.185 120.133C190.697 120.885 191.01 121.465 191.125 121.873C191.307 122.377 191.379 123.284 191.341 124.593C191.302 124.791 191.255 124.944 191.199 125.052C191.107 125.262 190.963 125.52 190.769 125.825C190.553 126.08 190.305 126.326 190.027 126.565C189.95 126.643 189.631 126.831 189.071 127.127C188.517 127.361 187.923 127.467 187.288 127.445C186.201 127.452 184.737 126.905 182.897 125.803C182.375 125.442 181.869 125.038 181.379 124.593L180.463 123.487C180.327 123.306 180.195 123.03 180.065 122.66C180.044 122.608 180.018 122.446 179.988 122.174C179.879 121.925 179.775 121.606 179.675 121.218C179.61 120.913 179.575 120.713 179.572 120.617C179.635 119.909 179.751 119.425 179.92 119.166C180.403 118.45 180.928 117.929 181.494 117.603C182.114 117.191 182.982 116.957 184.098 116.9ZM208.861 118.885L208.897 118.886C210.098 118.934 211.012 119.074 211.638 119.307C212.17 119.476 212.792 119.837 213.506 120.39C213.733 120.598 213.91 120.813 214.037 121.034L214.713 122.733C214.785 123.072 214.803 123.373 214.765 123.638C214.66 124.173 214.509 124.652 214.311 125.075C213.751 125.974 213.366 126.506 213.157 126.672C212.722 127.036 211.713 127.656 210.132 128.533C209.383 128.891 208.452 129.137 207.342 129.27C206.472 129.244 205.698 129.126 205.019 128.917C204.68 128.813 204.365 128.685 204.073 128.535L203.653 128.292C203.386 128.119 203.142 127.923 202.922 127.704C202.617 127.362 202.338 126.876 202.087 126.244C201.921 125.492 201.894 124.794 202.008 124.151C202.107 123.606 202.388 122.94 202.851 122.154C203.124 121.734 203.533 121.313 204.079 120.889C204.266 120.751 204.691 120.505 205.354 120.151C205.942 119.871 206.242 119.746 206.255 119.776C206.392 119.652 206.827 119.425 207.562 119.096C207.872 118.974 208.306 118.903 208.861 118.885ZM179.54 126.472L179.806 126.484C180.501 126.575 181.322 126.818 182.27 127.215C183.357 127.716 184.225 128.301 184.873 128.971C185.553 129.696 186.002 130.228 186.223 130.567C186.858 132.32 187.182 133.481 187.195 134.048C187.161 134.764 187.008 135.458 186.738 136.13C186.535 136.672 186.098 137.23 185.425 137.804C184.474 138.509 183.552 139.004 182.657 139.291C181.902 139.545 180.865 139.671 179.545 139.669C178.264 139.565 176.846 138.95 175.289 137.825L173.924 136.578C173.599 136.23 173.343 135.876 173.157 135.514C173.057 135.496 172.805 135.231 172.401 134.718C172.245 134.445 172.147 133.95 172.108 133.232C172.083 132.616 172.248 131.854 172.604 130.947C172.863 130.525 173.099 130.194 173.312 129.952C173.444 129.759 173.741 129.525 174.205 129.249L174.908 128.318C175.554 127.841 176.004 127.534 176.26 127.397C176.608 127.191 176.947 127.015 177.276 126.871C177.619 126.715 178.374 126.582 179.54 126.472ZM217.625 128.251L217.936 128.274L219.394 128.569L220.676 128.987L221.782 129.529C222.405 129.957 222.79 130.243 222.939 130.386C224.204 131.662 224.791 133.35 224.7 135.452C224.657 135.717 224.599 135.966 224.523 136.201L223.74 138.161L223.554 138.52C222.975 139.369 222.458 139.975 222.005 140.339C220.417 141.531 218.463 142.045 216.143 141.881C214.805 141.702 213.856 141.481 213.295 141.217C212.125 140.724 211.319 140.205 210.875 139.661C210.537 139.322 210.129 138.822 209.651 138.162C209.372 137.699 209.096 137.147 208.823 136.504C208.551 135.859 208.425 135.013 208.446 133.967C208.51 133.494 208.669 133.041 208.923 132.61L210.172 130.894C210.567 130.497 210.835 130.26 210.976 130.183C212.59 129.346 213.568 128.889 213.909 128.81C214.92 128.528 216.158 128.342 217.625 128.251ZM233.694 84.3184L232.715 84.398C230.011 84.8229 226.568 86.9475 222.388 90.7716C219.373 96.0515 217.461 100.093 216.651 102.895C212.356 101.666 205.189 102.178 195.148 104.43L192.841 101.393C191.734 97.6749 190.948 95.2734 190.483 94.1884C188.288 91.2125 187.081 89.6844 186.865 89.6041C182.419 86.3129 177.674 85.9526 172.631 88.5232C170.901 90.3965 169.339 92.9571 167.946 96.2047C167.448 99.7305 167.225 101.756 167.276 102.283L168.419 109.372C168.222 109.255 167.999 109.786 167.753 110.963C167.429 113.753 167.297 116.035 167.359 117.807C167.895 120.917 168.761 123.571 169.956 125.769C169.675 129.081 170.048 132.222 171.076 135.191C172.626 138.771 174.659 141.632 177.175 143.773C179.748 145.618 181.902 146.881 183.637 147.56C183.681 147.152 183.785 146.821 183.947 146.567L187.463 141.678C188.475 140.699 189.799 140.265 191.435 140.378C192.344 140.597 193.176 141.046 193.929 141.724C194.474 142.084 195.186 143.244 196.064 145.205L197.649 146.146C200.323 147.537 203.534 148.154 207.282 148L207.998 149.103C206.185 149.979 204.503 151.263 202.954 152.954C201.84 152.026 199.85 151.708 196.985 152C195.26 152.578 193.77 153.231 192.514 153.959C191.384 154.618 190.374 155.598 189.487 156.902C189.066 158.614 188.956 160.203 189.157 161.669C189.304 161.001 189.847 160.325 190.789 159.643C192.542 158.362 194.702 157.068 197.269 155.76L208.057 152.498C211.661 151.8 214.266 151.138 215.872 150.515C217.481 150.402 218.529 150.851 219.015 151.862C219.698 152.919 219.184 153.985 217.472 155.059C216.549 155.452 213.962 156.098 209.71 156.999L200.805 159.691C198.904 160.438 197.03 161.414 195.183 162.619C194.152 163.552 193.552 164.501 193.382 165.465L192.974 167.305L193.804 168.094C196.68 169.927 199.347 171.053 201.806 171.47C213.427 167.551 221.883 166.175 227.176 167.342C230.035 167.859 232.439 168.669 234.388 169.772L237.81 173.933L238.966 176.245C241.494 176.306 243.976 174.437 246.414 170.636C247.004 167.384 247.21 165.405 247.031 164.697C246.835 163.564 245.106 160.902 241.844 156.709L241.179 153.831C244.211 151.177 245.856 149.576 246.114 149.028C247.529 143.015 248.217 138.35 248.178 135.035C247.817 132.995 246.972 130.235 245.643 126.755C244.187 118.256 243.267 114.202 242.884 114.592C245.128 104 245.768 96.0972 244.805 90.8834C243.21 86.9137 239.506 84.7253 233.694 84.3184Z" fill="#274029"/>
<path d="M229.897 172.997L229.907 173.007C229.926 173.027 229.946 173.047 229.966 173.067C229.973 173.073 229.98 173.08 229.986 173.086L229.989 173.086L229.987 173.086C230 173.099 230.014 173.112 230.028 173.125C230.092 173.183 230.144 173.227 230.184 173.258C230.101 173.178 230.056 173.133 230.048 173.125C230.018 173.093 229.996 173.071 229.984 173.057L229.947 173.015L229.949 173.015L229.899 172.997H229.897Z" fill="#274029"/>
<path d="M229.277 93.9539C229.001 94.0339 228.699 94.0741 228.372 94.0741C228.114 94.0741 227.84 94.0492 227.55 93.9996L227.551 93.9997C227.798 94.0405 228.047 94.0606 228.295 94.0606C228.627 94.0606 228.956 94.0245 229.276 93.9539H229.277ZM238.751 82.6796C238.148 82.6796 237.551 82.7566 236.958 82.9107L236.957 82.9108C234.128 83.232 230.635 84.8193 226.479 87.6727L226.478 87.6728C225.958 87.8635 225.448 88.1431 224.948 88.5117C223.014 89.937 219.461 94.5666 214.29 102.4L199.279 101.841L199.277 101.841C198.727 101.404 198.153 100.844 197.554 100.159L197.552 100.16C194.35 94.7212 191.042 90.7772 187.628 88.3278C187.601 88.3083 187.573 88.2892 187.545 88.2703C183.522 85.5397 179.976 84.1744 176.906 84.1744C176.021 84.1744 175.175 84.2879 174.369 84.5151C173.831 84.6667 173.318 84.8662 172.832 85.1134C172.703 85.1787 172.576 85.2473 172.452 85.3189L172.451 85.3191C168.144 87.0837 165.538 90.038 164.634 94.1821L164.633 94.1822C164.27 95.3306 164.043 96.5447 163.953 97.8246C163.952 97.8399 163.951 97.8552 163.95 97.8705L163.224 111.118C163.123 112.961 164.791 114.525 166.948 114.612C167.011 114.614 167.073 114.615 167.134 114.615C169.21 114.615 170.94 113.22 171.038 111.43L171.764 98.1829L171.764 98.183C171.828 97.3347 171.979 96.5479 172.218 95.8227C172.253 95.7158 172.282 95.6075 172.305 95.4982C172.723 93.4724 173.969 92.0605 176.04 91.2623C176.317 91.1558 176.578 91.0221 176.818 90.864C176.821 90.8625 176.823 90.8612 176.824 90.8602L176.823 90.8603C176.929 90.831 177.047 90.8164 177.178 90.8164C178.203 90.8164 180.028 91.7057 182.652 93.4844L182.651 93.4845C185.271 95.3831 187.955 98.6871 190.701 103.397C190.798 103.563 190.911 103.721 191.038 103.871C192.514 105.605 194.027 106.937 195.579 107.867C196.189 108.233 196.91 108.442 197.655 108.469L214.542 109.099C214.592 109.101 214.642 109.102 214.692 109.102C214.708 109.102 214.724 109.102 214.739 109.102C215.144 109.102 215.536 109.079 215.914 109.034L215.915 109.034C217.724 108.818 219.153 108.134 220.2 106.982C220.32 106.85 220.428 106.711 220.523 106.565C225.223 99.3949 228.303 95.1456 229.763 93.8171L229.761 93.8172C230.129 93.6899 230.477 93.5143 230.79 93.2929C234.247 90.8475 236.658 89.5938 238.022 89.5318C238.222 89.5227 238.421 89.5004 238.616 89.4654L238.618 89.4656C238.716 89.5308 238.827 89.6147 238.953 89.7174L238.952 89.7175C240.509 91.2974 241.453 92.7695 241.781 94.1339L241.78 94.134L240.73 119.554C240.714 119.948 240.779 120.342 240.924 120.716C242.01 123.538 242.813 128.879 243.333 136.739L243.332 136.74C243.413 138.32 243.074 140.383 242.316 142.931C242.277 143.06 242.248 143.19 242.228 143.322L242.226 143.322C241.919 144.107 240.807 146.071 238.89 149.214C238.784 149.387 238.697 149.567 238.628 149.753C238.204 150.902 237.942 151.788 237.843 152.411C237.776 152.834 237.766 153.225 237.812 153.584C237.854 153.909 237.952 154.227 238.102 154.529C241.903 162.142 243.544 167.48 243.025 170.541C242.716 172.367 244.199 174.062 246.337 174.326C246.526 174.349 246.715 174.361 246.901 174.361C248.814 174.361 250.486 173.161 250.768 171.497C251.471 167.345 249.793 161.11 245.733 152.79L245.732 152.79C245.796 152.586 245.88 152.338 245.986 152.044L245.985 152.044C248.158 148.469 249.428 146.13 249.795 145.028C249.873 144.792 249.931 144.564 249.968 144.343L249.966 144.343C250.873 141.237 251.265 138.587 251.145 136.394C251.144 136.384 251.144 136.373 251.143 136.363C250.617 128.398 249.76 122.687 248.573 119.229L248.571 119.229L249.612 94.0082C249.621 93.7965 249.606 93.5845 249.568 93.3752C249.071 90.652 247.473 87.9447 244.777 85.2535C244.706 85.183 244.632 85.1152 244.555 85.05C243.569 84.2172 242.562 83.6057 241.536 83.2155C240.596 82.8582 239.668 82.6796 238.751 82.6796Z" fill="#274029"/>
<path d="M248.689 131.955L248.69 131.955C248.752 131.948 248.817 131.941 248.886 131.934L248.885 131.934C248.972 131.926 249.07 131.919 249.177 131.912C249.225 131.909 249.272 131.907 249.32 131.905C249.715 131.894 250.026 131.879 250.252 131.859C250.345 131.85 250.438 131.845 250.532 131.844L251.621 131.825C251.678 131.824 251.735 131.825 251.792 131.826C252.542 131.847 253.541 131.856 254.788 131.856C254.827 131.856 254.867 131.856 254.906 131.857L254.907 131.857C254.836 131.855 254.775 131.855 254.724 131.857L254.723 131.857C254.805 131.854 255.018 131.842 255.363 131.82C255.397 131.818 255.432 131.816 255.466 131.815L257.85 131.728L257.824 131.729C258.178 131.714 258.557 131.693 258.963 131.666C259.001 131.664 259.038 131.662 259.076 131.66L259.645 131.639L259.575 131.643C259.823 131.629 260.211 131.594 260.738 131.537C260.801 131.531 260.863 131.525 260.926 131.522C261.418 131.493 261.732 131.471 261.869 131.454C261.918 131.448 261.968 131.443 262.018 131.438C262.477 131.4 262.88 131.339 263.227 131.256C264.985 130.833 266.811 131.709 267.305 133.211C267.799 134.712 266.775 136.272 265.017 136.694C264.295 136.868 263.511 136.99 262.664 137.061L262.813 137.046C262.512 137.083 262.032 137.12 261.373 137.158L261.561 137.143C260.902 137.214 260.382 137.259 260.002 137.28C259.978 137.282 259.955 137.283 259.931 137.284L259.362 137.305L259.475 137.299C259.01 137.33 258.57 137.354 258.156 137.372C258.148 137.372 258.139 137.372 258.131 137.373L255.747 137.459L255.85 137.454C255.433 137.48 255.147 137.496 254.992 137.502L254.992 137.502C254.876 137.506 254.771 137.506 254.675 137.503L254.793 137.505C253.474 137.506 252.403 137.495 251.581 137.473L251.752 137.474L250.663 137.492L250.943 137.477C250.557 137.512 250.086 137.537 249.53 137.552L249.673 137.545C249.639 137.548 249.615 137.549 249.601 137.551L249.6 137.551C249.609 137.55 249.622 137.549 249.637 137.547C247.831 137.77 246.153 136.7 245.891 135.156C245.629 133.612 246.882 132.179 248.689 131.955Z" fill="#274029"/>
<path d="M246.925 142.286C247.399 142.203 247.922 142.2 248.492 142.279C248.541 142.286 248.59 142.294 248.639 142.303C249.426 142.443 250.291 142.565 251.235 142.67L251.162 142.663L252.165 142.755L251.97 142.742L251.973 142.742L251.974 142.742C253.283 142.797 254.12 142.842 254.485 142.877L254.485 142.877C254.516 142.88 254.547 142.884 254.577 142.887C254.59 142.888 254.602 142.89 254.615 142.891L255.609 143.011C255.664 143.018 255.718 143.026 255.773 143.035C256.763 143.198 258.091 143.382 259.757 143.586L259.654 143.575C260.142 143.621 260.536 143.651 260.837 143.665L260.614 143.661C260.953 143.657 261.305 143.663 261.672 143.681L261.489 143.676L263.337 143.676C263.35 143.676 263.363 143.676 263.376 143.677H263.376C263.328 143.676 263.289 143.677 263.259 143.678L263.26 143.678C263.27 143.678 263.288 143.676 263.313 143.674C265.131 143.526 266.746 144.665 266.919 146.218C267.092 147.771 265.759 149.15 263.941 149.298C263.846 149.306 263.758 149.312 263.677 149.317L263.678 149.316C263.542 149.324 263.415 149.327 263.298 149.326L263.338 149.326L261.489 149.326C261.429 149.326 261.368 149.325 261.307 149.322C261.095 149.312 260.897 149.308 260.712 149.31C260.638 149.311 260.563 149.31 260.489 149.307C260.059 149.287 259.537 149.248 258.921 149.19C258.887 149.186 258.852 149.183 258.818 149.178C257.046 148.961 255.613 148.762 254.519 148.582L254.683 148.605L253.689 148.485L253.727 148.49C253.732 148.49 253.736 148.491 253.739 148.491L253.738 148.491C253.514 148.469 252.819 148.434 251.651 148.385L251.653 148.385L251.651 148.385C251.585 148.382 251.521 148.378 251.457 148.372L250.454 148.28C250.43 148.278 250.406 148.275 250.382 148.273C249.27 148.149 248.239 148.002 247.288 147.833L247.435 147.856C247.664 147.888 247.937 147.876 248.255 147.82C246.466 148.134 244.718 147.149 244.35 145.621C243.983 144.093 245.136 142.6 246.925 142.286Z" fill="#274029"/>
<path d="M164.511 115.692C164.451 115.5 164.413 115.304 164.395 115.103C164.39 115.041 164.387 114.98 164.386 114.919V114.918C164.386 114.914 164.386 114.91 164.386 114.908C164.387 114.929 164.39 114.958 164.394 114.994L164.394 114.993C164.393 114.987 164.393 114.983 164.392 114.98L164.392 114.98C164.394 114.991 164.397 115.007 164.402 115.028C164.4 115.019 164.398 115.01 164.396 115.001C164.397 115.004 164.398 115.007 164.398 115.01L164.405 115.032L164.243 114.474C164.235 114.448 164.228 114.423 164.222 114.397L164.216 114.374L164.216 114.373L164.222 114.397C164.127 114.024 164.062 113.728 164.027 113.51L164.027 113.51C164.021 113.476 164.017 113.443 164.012 113.411C164.011 113.405 164.011 113.4 164.01 113.395L164.01 113.395C164.008 113.38 164.006 113.364 164.004 113.349L164.004 113.349C163.982 113.162 163.975 112.991 163.983 112.835L163.98 112.988C163.979 112.928 163.98 112.861 163.983 112.789C163.986 112.728 163.991 112.653 163.998 112.565L163.991 112.752L163.99 112.625C163.99 112.581 163.991 112.538 163.993 112.494C163.998 112.403 164.001 112.341 164.001 112.31L164.001 112.31C164.001 112.325 164.001 112.345 164.002 112.37C163.937 110.86 165.316 109.591 167.083 109.535C168.851 109.478 170.337 110.657 170.402 112.167C170.405 112.223 170.406 112.285 170.405 112.351L170.405 112.351C170.404 112.448 170.4 112.575 170.392 112.733L170.395 112.602L170.396 112.729C170.396 112.791 170.394 112.854 170.389 112.916C170.386 112.958 170.384 112.987 170.383 113.003C170.384 112.982 170.384 112.955 170.384 112.923C170.385 112.974 170.384 113.025 170.381 113.075C170.387 112.964 170.385 112.87 170.376 112.791L170.375 112.791C170.376 112.791 170.376 112.792 170.376 112.794L170.374 112.778C170.373 112.774 170.373 112.771 170.372 112.769L170.372 112.769C170.385 112.845 170.421 113.001 170.48 113.234L170.486 113.258L170.486 113.258L170.459 113.158L170.621 113.716C170.623 113.723 170.625 113.73 170.627 113.738C170.652 113.825 170.674 113.914 170.693 114.003L170.687 113.976C170.707 114.061 170.724 114.15 170.739 114.244L170.739 114.244C170.746 114.289 170.753 114.335 170.759 114.383L170.759 114.381C170.774 114.496 170.784 114.62 170.788 114.751C170.789 114.793 170.79 114.836 170.791 114.881L170.782 114.696C170.77 114.559 170.743 114.422 170.7 114.286C171.155 115.746 170.138 117.244 168.429 117.633C166.72 118.021 164.966 117.152 164.511 115.692Z" fill="#274029"/>
<path d="M169.3 107.521C170.206 108.043 170.714 108.781 170.824 109.734L170.804 109.594C170.819 109.682 170.832 109.779 170.842 109.883L170.842 109.883C170.854 110.017 170.863 110.186 170.87 110.389L170.855 110.191L170.912 110.679L170.789 110.152C170.818 110.234 170.846 110.323 170.872 110.419L170.872 110.419C170.948 110.693 171.038 111.135 171.144 111.745L171.055 111.394L171.074 111.453C171.129 111.631 171.172 111.793 171.205 111.937L171.205 111.937C171.223 112.018 171.238 112.096 171.251 112.171L171.252 112.18L171.522 113.859C171.538 113.961 171.548 114.063 171.551 114.165C171.553 114.238 171.561 114.322 171.576 114.417C171.588 114.497 171.596 114.576 171.6 114.656L171.6 114.647L171.6 114.648L171.6 114.656C171.614 114.922 171.621 115.135 171.621 115.296L171.614 115.124L171.673 115.919C171.68 116.013 171.682 116.109 171.677 116.204C171.683 116.083 171.68 115.979 171.668 115.893C171.679 115.972 171.713 116.148 171.77 116.421C171.781 116.475 171.79 116.528 171.797 116.582C171.824 116.778 171.842 116.91 171.85 116.979L171.85 116.979C172.059 118.781 171.125 119.788 169.045 119.999L169.02 120.002C167.458 120.15 166.362 119.609 165.732 118.379L171.857 117.056C171.909 117.586 171.839 118.072 171.647 118.514C171.033 119.931 169.191 120.655 167.532 120.13C165.874 119.606 165.027 118.032 165.641 116.615C165.503 116.933 165.447 117.232 165.474 117.51C165.345 116.177 166.362 114.959 167.88 114.631C169.399 114.303 170.972 114.961 171.6 116.186C170.97 114.957 169.874 114.416 168.312 114.564L168.287 114.567C166.208 114.779 165.272 115.763 165.476 117.52L165.476 117.52C165.472 117.482 165.459 117.382 165.436 117.218L165.464 117.379C165.385 116.999 165.332 116.714 165.307 116.526C165.28 116.328 165.27 116.147 165.278 115.981L165.282 116.266L165.223 115.472C165.218 115.415 165.216 115.358 165.216 115.3C165.216 115.217 165.211 115.081 165.202 114.894L165.202 114.902L165.202 114.901L165.226 115.131C165.182 114.843 165.156 114.565 165.148 114.298L165.177 114.604L164.907 112.924L164.908 112.932C164.911 112.947 164.913 112.959 164.915 112.967L164.915 112.968C164.909 112.942 164.897 112.899 164.878 112.837L164.897 112.897C164.849 112.741 164.825 112.644 164.808 112.545C164.729 112.088 164.672 111.797 164.638 111.674L164.638 111.674C164.643 111.692 164.651 111.716 164.662 111.747C164.601 111.575 164.559 111.399 164.539 111.22L164.482 110.732C164.474 110.666 164.469 110.6 164.467 110.534C164.464 110.427 164.461 110.354 164.457 110.316L164.457 110.316C164.459 110.34 164.464 110.371 164.47 110.409C164.462 110.362 164.455 110.316 164.45 110.269C164.537 111.024 164.96 111.62 165.718 112.057C164.252 111.212 163.865 109.512 164.854 108.259C165.843 107.007 167.833 106.676 169.3 107.521Z" fill="#274029"/>
</g>
<defs>
<clipPath id="clip0_2039_34">
<rect width="309.988" height="264.804" fill="white"/>
</clipPath>
</defs>
</svg>
