<svg width="343" height="343" viewBox="0 0 343 343" fill="none" xmlns="http://www.w3.org/2000/svg">
<g clip-path="url(#clip0_704_888)">
<path d="M207.478 227.523L207.479 227.523L207.479 227.523L207.48 227.523L207.48 227.523C207.48 227.523 207.48 227.523 207.48 227.523L207.479 227.523L207.479 227.523L207.478 227.523L207.478 227.523L207.478 227.523C207.478 227.523 207.478 227.523 207.478 227.523C207.478 227.523 207.478 227.523 207.478 227.523H207.478Z" fill="black"/>
<path d="M207.487 227.523L207.487 227.524L207.486 227.524C207.486 227.524 207.485 227.524 207.485 227.524C207.485 227.524 207.486 227.524 207.487 227.523Z" fill="black"/>
<path d="M207.5 227.524L207.499 227.524L207.499 227.524L207.498 227.524L207.498 227.524L207.498 227.524L207.497 227.524H207.5Z" fill="black"/>
<path d="M207.494 227.524L207.494 227.524L207.494 227.524L207.494 227.524L207.494 227.524C207.493 227.524 207.493 227.524 207.493 227.524C207.493 227.524 207.493 227.524 207.492 227.524L207.492 227.524C207.492 227.524 207.492 227.524 207.491 227.524L207.491 227.524L207.491 227.524L207.492 227.524L207.492 227.524L207.492 227.524C207.492 227.524 207.493 227.524 207.493 227.524C207.493 227.524 207.493 227.524 207.493 227.524L207.494 227.524Z" fill="black"/>
<path d="M207.496 227.524L207.495 227.524L207.495 227.524L207.496 227.524Z" fill="black"/>
<path d="M207.494 227.524L207.494 227.524L207.495 227.524L207.494 227.525L207.494 227.524Z" fill="black"/>
<path d="M300.761 221.531L300.738 221.531L247.429 222.321C246.999 222.819 246.547 223.149 246.07 223.31L243.401 223.942C242.37 224.083 241.51 224.227 240.822 224.375C239.552 224.674 238.465 224.951 237.56 225.205C235.827 225.672 234.41 226.131 233.308 226.584L231.849 227.276C231.082 228 230.256 228.594 229.37 229.057C230.061 230.164 230.673 230.802 231.206 230.973C231.834 231.306 232.572 231.498 233.421 231.547L300.826 230.549L301.437 230.499C303.728 229.995 305.012 228.565 305.289 226.209C305.139 224.767 304.763 223.726 304.162 223.086C303.297 222.293 302.707 221.891 302.39 221.879C301.907 221.702 301.364 221.586 300.761 221.531Z" fill="black"/>
<path d="M187.129 226.721L190.22 227.108L189.764 227.085C192.214 227.025 194.151 226.895 195.619 226.797C196.455 226.741 197.219 226.689 197.807 226.675L197.813 226.675L197.823 226.674L197.82 226.675C199.647 226.631 201.193 226.623 202.465 226.616C203.372 226.612 204.107 226.608 204.708 226.593H204.708C204.841 226.59 204.975 226.586 205.09 226.582C205.89 226.553 206.702 226.595 207.457 226.775C208.5 227.025 210.687 227.947 210.779 230.476L210.779 230.477C210.782 230.55 210.783 230.623 210.781 230.695V230.694C210.76 231.695 210.6 232.761 210.143 233.765C209.899 234.3 209.573 234.809 209.153 235.267C209.104 235.321 209.053 235.373 209 235.422L199.348 244.551L199.511 244.385L192.614 251.975C192.599 251.991 192.585 252.007 192.569 252.023L190.35 254.363C189.184 255.592 187.243 255.643 186.015 254.477C184.786 253.312 184.735 251.371 185.9 250.142L188.12 247.802L188.075 247.85L194.972 240.26C195.024 240.203 195.078 240.148 195.134 240.095L204.786 230.967L204.633 231.122C204.585 231.175 204.564 231.216 204.563 231.22C204.567 231.211 204.64 231.036 204.649 230.568V230.567C204.649 230.611 204.649 230.655 204.65 230.7L204.65 230.701C204.715 232.457 206.261 232.795 206.03 232.74C206 232.733 205.786 232.693 205.314 232.711C205.171 232.716 205.007 232.721 204.855 232.724H204.855C204.183 232.741 203.385 232.745 202.496 232.749C201.225 232.756 199.73 232.764 197.967 232.806L197.964 232.806L197.954 232.806L197.959 232.806C197.53 232.817 196.922 232.857 196.029 232.916C194.551 233.015 192.503 233.152 189.915 233.216C189.762 233.22 189.61 233.213 189.458 233.194L186.367 232.806C184.686 232.596 183.495 231.063 183.705 229.383C183.916 227.702 185.449 226.51 187.129 226.721Z" fill="black"/>
<path d="M187.96 247.789C187.141 247.789 186.324 248.115 185.721 248.76C185.586 248.904 185.448 249.065 185.307 249.243C185.291 249.263 185.276 249.283 185.261 249.303C185.044 249.59 184.891 249.787 184.802 249.893C184.795 249.901 184.789 249.909 184.782 249.917C184.656 250.071 184.523 250.222 184.384 250.372C183.231 251.612 183.302 253.552 184.543 254.705C185.133 255.254 185.882 255.526 186.63 255.526C187.452 255.526 188.272 255.197 188.877 254.547C189.092 254.315 189.299 254.079 189.498 253.838C189.649 253.659 189.854 253.397 190.114 253.053H190.113C190.15 253.007 190.178 252.973 190.198 252.951C191.356 251.715 191.291 249.774 190.055 248.617C189.463 248.063 188.711 247.789 187.96 247.789Z" fill="black"/>
<path d="M194.178 236.635C194.244 236.635 194.313 236.637 194.384 236.642H194.383C194.312 236.638 194.242 236.635 194.17 236.635C194.152 236.635 194.134 236.635 194.116 236.636C194.136 236.635 194.157 236.635 194.178 236.635ZM198.58 236.491C198.356 236.546 198.134 236.627 197.92 236.736H197.919C198.146 236.619 198.366 236.537 198.579 236.491H198.58ZM189.279 236.782C189.339 236.79 189.402 236.801 189.468 236.814H189.467C189.404 236.802 189.341 236.791 189.278 236.782H189.279ZM197.914 242.522C197.862 242.529 197.813 242.534 197.766 242.538C197.783 242.536 197.799 242.535 197.816 242.533C197.848 242.53 197.881 242.526 197.913 242.522H197.914ZM199.305 236.404C199.139 236.404 198.973 236.417 198.808 236.445L198.49 236.439L198.142 236.419C198.096 236.416 198.05 236.414 198.005 236.414C197.864 236.412 197.749 236.411 197.659 236.411C197.618 236.411 197.582 236.411 197.552 236.411H197.552C197.441 236.413 197.336 236.418 197.236 236.428H197.234C197.087 236.442 196.922 236.452 196.739 236.458C196.664 236.461 196.589 236.466 196.567 236.469L196.567 236.469L196.515 236.474C196.215 236.506 195.743 236.542 195.098 236.582H195.097C194.539 236.613 194.205 236.631 194.097 236.636H194.096C194.052 236.637 194.004 236.639 193.952 236.643C193.877 236.647 193.708 236.66 193.444 236.68H193.443C192.938 236.705 192.603 236.724 192.441 236.737C192.44 236.737 192.438 236.738 192.437 236.738H192.436C192.396 236.739 192.338 236.739 192.262 236.74C192.219 236.741 192.175 236.742 192.132 236.744L191.665 236.769L191.543 236.769C191.541 236.769 191.539 236.769 191.538 236.769C191.435 236.769 191.332 236.774 191.228 236.784H191.227C191.169 236.789 191.049 236.797 190.869 236.807H190.868C190.847 236.807 190.821 236.807 190.789 236.807C190.731 236.807 190.656 236.807 190.562 236.807C190.558 236.807 190.555 236.807 190.551 236.807C190.528 236.807 190.505 236.807 190.482 236.807L190.193 236.814C190.131 236.813 190.05 236.812 189.951 236.81C189.928 236.809 189.905 236.809 189.881 236.809C189.867 236.809 189.853 236.809 189.839 236.809C189.784 236.806 189.73 236.803 189.674 236.801H189.673C189.592 236.791 189.51 236.785 189.401 236.781H189.402L189.422 236.782C189.325 236.778 189.252 236.775 189.203 236.773H189.202C189.132 236.765 189.062 236.759 188.991 236.756C188.975 236.755 188.958 236.755 188.942 236.754H188.942C188.878 236.752 188.815 236.751 188.754 236.751C188.612 236.751 188.478 236.757 188.354 236.769C186.669 236.94 185.441 238.444 185.611 240.129C185.771 241.709 187.103 242.887 188.658 242.887C188.676 242.887 188.694 242.887 188.712 242.887H188.713C188.72 242.887 188.726 242.888 188.733 242.888C188.819 242.894 188.932 242.9 189.072 242.906H189.071L189.081 242.907C189.198 242.921 189.317 242.929 189.436 242.929H189.435C189.54 242.94 189.646 242.946 189.753 242.946C189.785 242.946 189.817 242.945 189.849 242.944L189.896 242.943H189.897C190.017 242.945 190.118 242.947 190.202 242.947C190.207 242.947 190.211 242.947 190.216 242.947C190.239 242.947 190.263 242.947 190.286 242.946L190.581 242.94H190.582C190.655 242.94 190.719 242.94 190.776 242.94C190.874 242.94 190.947 242.94 190.994 242.939H190.994C191.024 242.938 191.053 242.938 191.08 242.937H191.08C191.103 242.936 191.126 242.935 191.149 242.934C191.365 242.922 191.536 242.911 191.662 242.902H191.663L191.736 242.902C191.738 242.902 191.74 242.902 191.742 242.902C191.795 242.902 191.849 242.9 191.902 242.898L192.389 242.872H192.388C192.528 242.87 192.642 242.868 192.727 242.864L192.728 242.864C192.767 242.863 192.805 242.861 192.841 242.858H192.841C192.881 242.856 192.92 242.852 192.96 242.848H192.959C193.062 242.84 193.332 242.826 193.771 242.804H193.77L193.786 242.803C193.815 242.802 193.844 242.8 193.872 242.798C194.091 242.781 194.235 242.77 194.304 242.766H194.303C194.309 242.765 194.315 242.765 194.321 242.765C194.44 242.76 194.819 242.74 195.457 242.704L195.474 242.703C196.145 242.662 196.674 242.622 197.06 242.583H197.059C197.282 242.574 197.495 242.561 197.698 242.544H197.699C197.738 242.544 197.789 242.544 197.853 242.545H197.852L198.194 242.565C198.236 242.568 198.278 242.569 198.32 242.57L198.883 242.58C198.901 242.58 198.918 242.58 198.936 242.58C198.938 242.58 198.939 242.58 198.94 242.58C198.985 242.58 199.03 242.58 199.072 242.579H199.072C199.743 242.565 200.325 242.418 200.818 242.14C202.292 241.305 202.81 239.434 201.976 237.96C201.412 236.964 200.373 236.404 199.305 236.404Z" fill="black"/>
<path d="M55.5646 154.921L55.5668 154.922L55.5387 154.921L55.5365 154.921C55.1993 154.909 54.9428 154.901 54.7014 154.901C55.3209 154.901 52.0781 151.835 51.1582 168.865C50.1855 186.874 52.128 223.308 54.102 260.202L54.0925 260.064C54.8611 269.063 55.6757 274.625 58.7099 276.877C60.4179 278.145 63.5505 278.826 68.4684 278.826C71.7591 278.826 75.3739 278.535 79.2098 278.224C79.259 278.22 79.3079 278.217 79.3572 278.215L168.314 274.044C168.364 274.042 168.414 274.04 168.464 274.04L168.462 274.04L168.504 274.039L168.506 274.039C175.207 273.957 178.438 273.565 179.72 272.046C181.269 270.209 181.462 265.658 181.337 258.114C181.336 258.045 181.336 257.976 181.339 257.907L184.105 169.609L184.106 169.592C184.414 160.877 184.361 155.075 182.377 152.551C180.681 150.395 176.578 149.882 168.997 149.576L169.289 149.578L101.308 151.414L101.436 151.409L67.6253 153.326C65.2389 153.461 63.1946 151.636 63.0593 149.249C62.9241 146.863 64.749 144.819 67.1354 144.684L100.946 142.767C100.988 142.764 101.031 142.763 101.074 142.762L169.056 140.925C169.153 140.922 169.25 140.923 169.347 140.927C175.163 141.162 184.457 141.192 189.181 147.201C193.616 152.841 193.006 162.826 192.757 169.898L192.757 169.881L189.99 258.178L189.992 257.971C190.089 263.833 190.502 272.689 186.336 277.627C181.915 282.867 173.536 282.634 168.612 282.694L168.614 282.694L168.572 282.695L168.72 282.69L79.7626 286.861L79.91 286.852C76.1539 287.156 72.1762 287.482 68.4684 287.482C63.3622 287.482 57.6882 286.899 53.5508 283.828C46.6584 278.712 46.0862 268.038 45.468 260.801C45.4641 260.755 45.4609 260.71 45.4585 260.664C43.5001 224.063 41.5101 187.001 42.515 168.398C43.4033 151.952 46.9096 146.245 54.7014 146.245C55.1131 146.245 55.5139 146.259 55.8335 146.27L55.8312 146.27L55.8592 146.271C58.2503 146.353 60.1204 148.356 60.0384 150.745C59.9564 153.133 57.9534 155.003 55.5646 154.921Z" fill="black"/>
<path d="M208.747 210.501L207.526 210.505C203.017 210.531 197.243 210.616 190.204 210.759C189.914 210.757 189.433 210.88 188.761 211.129C186.72 212.177 185.913 213.901 186.342 216.302C186.426 216.873 186.97 217.634 187.973 218.584C188.893 219.174 189.71 219.45 190.424 219.413C200.534 219.224 206.221 219.14 207.487 219.161C207.279 217.859 207.272 216.506 207.465 215.104C207.514 214.833 207.706 214.124 208.043 212.978C208.105 212.501 208.182 212.105 208.273 211.789C208.359 211.467 208.517 211.038 208.747 210.501Z" fill="black"/>
<path d="M243.458 222.687L242.943 222.774C239.007 223.517 236.736 224.074 236.13 224.447C233.366 226.119 230.924 227.723 228.804 229.26L224.474 231.404L222.484 232.878L182.907 268.459C181.348 270.161 181.03 271.869 181.951 273.581C182.295 274.387 182.751 274.94 183.321 275.241C184.453 275.766 185.511 275.988 186.495 275.907C187.065 275.792 187.654 275.568 188.264 275.236L240.445 228.36C242.19 226.149 243.195 224.258 243.458 222.687Z" fill="black"/>
<path d="M115.56 192.685C116.049 194.243 116.056 196.257 115.583 198.729L115.588 198.702C114.664 203.739 113.647 207.221 112.537 209.147L112.539 209.142C109.947 213.654 106.069 216.965 100.905 219.075L101.179 212.767L107.314 215.919C107.401 215.964 107.486 216.013 107.57 216.065C108.822 216.848 110.23 218.228 111.794 220.203C111.825 220.243 111.856 220.283 111.885 220.324C116.455 226.645 119.012 232.416 119.556 237.637L118.019 235.1C116.179 233.88 114.66 234.173 113.463 235.978C113.336 236.169 113.251 236.336 113.207 236.479L113.207 236.479C113.208 236.478 113.208 236.476 113.209 236.474L113.135 236.78C113.552 234.62 114.276 232.023 115.307 228.99C115.317 228.961 115.327 228.932 115.337 228.903C116.782 224.995 117.856 222.507 118.56 221.439C119.063 220.677 119.663 220.138 120.36 219.822L118.796 221.233C120.625 218.103 123.524 215.298 127.494 212.818L129.623 219.229C129.274 219.258 128.912 219.256 128.538 219.221C126.666 219.049 124.123 217.935 120.91 215.877L120.971 215.916C119.269 214.875 117.512 213.255 115.698 211.055C115.693 211.049 115.689 211.044 115.684 211.039C114.599 209.705 113.386 207.577 112.047 204.654C111.953 204.449 111.88 204.236 111.827 204.017L109.851 195.773C109.404 193.906 110.555 192.031 112.421 191.583C114.288 191.136 116.163 192.286 116.611 194.153L118.586 202.397L118.366 201.759C119.459 204.145 120.361 205.775 121.074 206.65L121.061 206.634C122.38 208.234 123.558 209.351 124.596 209.986C124.617 209.998 124.637 210.011 124.658 210.024C126.92 211.473 128.425 212.231 129.174 212.3C129.144 212.297 129.101 212.298 129.046 212.303C130.645 212.169 132.127 213.148 132.633 214.67C133.138 216.193 132.536 217.863 131.176 218.713C128.176 220.587 126.049 222.596 124.797 224.74C124.434 225.361 123.887 225.854 123.232 226.151C123.752 225.915 124.129 225.62 124.363 225.266C123.952 225.889 123.116 227.905 121.857 231.313L121.888 231.226C120.959 233.959 120.316 236.249 119.96 238.097C119.94 238.2 119.915 238.302 119.886 238.402C119.875 238.443 119.863 238.484 119.85 238.523L119.85 238.523C119.697 239.02 119.5 239.452 119.257 239.818C117.893 241.875 116.201 242.234 114.179 240.894C113.314 240.32 112.75 239.389 112.642 238.357C112.227 234.368 110.097 229.714 106.253 224.396L106.344 224.517C105.277 223.169 104.456 222.316 103.882 221.956L104.137 222.101L98.0021 218.949C96.7952 218.329 96.0596 217.063 96.1185 215.707C96.1774 214.351 97.02 213.154 98.2761 212.641C101.967 211.133 104.713 208.812 106.513 205.679L106.515 205.675C107.226 204.442 107.972 201.699 108.751 197.448C108.753 197.439 108.754 197.43 108.756 197.421C109.01 196.095 109.068 195.209 108.928 194.763C108.354 192.932 109.373 190.982 111.205 190.408C113.036 189.834 114.986 190.853 115.56 192.685Z" fill="black"/>
<path d="M109.9 199.461L109.9 199.461C109.901 199.459 109.901 199.457 109.901 199.456L109.902 199.456C109.853 199.673 109.839 199.931 109.86 200.229L109.859 200.213L109.815 199.552C109.809 199.462 109.807 199.372 109.808 199.282L109.815 198.705C109.816 198.595 109.823 198.485 109.835 198.375L109.95 197.299L109.931 197.604L109.938 197.206L109.94 197.409L109.927 197.077L109.952 197.377L109.907 197.018L112.91 200.027C110.928 199.771 109.917 198.626 109.877 196.592C109.876 196.542 109.875 196.479 109.875 196.402L109.884 196.645L109.862 196.342C109.852 196.216 109.85 196.09 109.854 195.963C109.861 195.78 109.868 195.626 109.877 195.503C109.889 195.351 109.904 195.212 109.925 195.086L109.926 195.078L110.035 194.417L110.011 194.591C110.008 194.616 110.006 194.637 110.005 194.652C110.009 194.6 110.013 194.493 110.019 194.329L110.248 195.696C110.207 195.59 110.177 195.516 110.156 195.474C110.947 197.088 112.289 197.531 114.184 196.803L114.184 196.803C115.208 196.409 115.868 195.712 116.166 194.711L116.273 193.217C116.319 193.536 116.329 193.884 116.303 194.26L116.308 193.858C116.304 193.773 116.298 193.702 116.29 193.645L116.29 193.644C116.29 193.642 116.289 193.64 116.289 193.639L116.25 193.422C116.386 194.064 116.474 194.562 116.514 194.915C116.524 194.999 116.532 195.08 116.537 195.157L116.523 195.011C116.528 195.054 116.533 195.099 116.537 195.146C116.558 195.366 116.576 195.689 116.591 196.115L116.588 196.053C116.592 196.135 116.595 196.222 116.596 196.314C116.598 196.53 116.589 196.802 116.57 197.131C116.569 197.144 116.569 197.156 116.568 197.169L116.43 199.184L116.431 199.169C116.416 199.393 116.408 199.536 116.406 199.599C116.406 199.599 116.406 199.599 116.406 199.599C116.405 199.653 116.402 199.707 116.398 199.762L116.398 199.762C116.401 199.72 116.403 199.685 116.404 199.656C116.401 199.744 116.4 199.997 116.4 200.417C116.4 200.464 116.399 200.511 116.397 200.557C116.389 200.747 116.383 200.977 116.38 201.246L116.38 201.233L116.37 202.388L116.369 202.266C116.399 203.4 116.419 204.052 116.429 204.223L116.429 204.223C116.428 204.202 116.426 204.175 116.423 204.143C116.426 204.179 116.429 204.215 116.431 204.25L116.512 205.491L116.498 205.333L116.498 205.333L116.501 205.365C116.578 206.117 116.623 206.621 116.637 206.877L116.622 206.685C116.627 206.734 116.632 206.787 116.636 206.846C116.649 207.016 116.676 207.487 116.716 208.26L116.713 208.206L116.713 208.208L116.713 208.206C116.733 208.514 116.749 209.137 116.758 210.076C116.758 210.103 116.758 210.131 116.758 210.158C116.741 211.337 116.706 212.549 116.65 213.795L116.65 213.79C116.643 213.967 116.625 214.21 116.598 214.517C116.595 214.561 116.59 214.605 116.584 214.649C116.534 215.049 116.476 215.608 116.411 216.325C116.237 218.237 114.546 219.645 112.635 219.471C110.723 219.297 109.315 217.607 109.489 215.695C109.561 214.898 109.628 214.259 109.688 213.779L109.674 213.911C109.692 213.706 109.703 213.566 109.706 213.491L109.706 213.486C109.759 212.311 109.793 211.17 109.808 210.062L109.808 210.145C109.8 209.34 109.79 208.851 109.778 208.677L109.778 208.675L109.778 208.673C109.777 208.658 109.776 208.639 109.775 208.62C109.737 207.903 109.714 207.486 109.706 207.371C109.707 207.393 109.71 207.42 109.713 207.451C109.706 207.387 109.701 207.323 109.697 207.259C109.689 207.11 109.652 206.714 109.587 206.069L109.59 206.101L109.59 206.101C109.582 206.027 109.579 205.984 109.576 205.942L109.495 204.701L109.504 204.808C109.499 204.754 109.494 204.694 109.491 204.628L109.491 204.629C109.476 204.384 109.453 203.658 109.421 202.45C109.42 202.41 109.42 202.369 109.42 202.329L109.43 201.174L109.43 201.161C109.434 200.825 109.442 200.529 109.452 200.272L109.449 200.412C109.45 199.929 109.452 199.612 109.456 199.46C109.458 199.384 109.462 199.314 109.466 199.251L109.458 199.414C109.458 199.408 109.458 199.402 109.459 199.395C109.463 199.252 109.475 199.028 109.494 198.723L109.495 198.708L109.634 196.693L109.631 196.731C109.641 196.555 109.646 196.436 109.646 196.374C109.646 196.386 109.646 196.402 109.647 196.424C109.646 196.403 109.645 196.382 109.645 196.362C109.634 196.069 109.625 195.878 109.617 195.79C109.617 195.795 109.618 195.802 109.619 195.81C109.613 195.761 109.609 195.713 109.605 195.664C109.606 195.68 109.607 195.692 109.608 195.701C109.593 195.567 109.54 195.287 109.45 194.861C109.435 194.789 109.422 194.717 109.412 194.644C109.411 194.641 109.411 194.638 109.41 194.635L109.41 194.633C109.386 194.465 109.371 194.31 109.364 194.169C109.358 194.035 109.36 193.901 109.37 193.767C109.361 193.893 109.369 194.047 109.396 194.227C109.322 193.727 109.359 193.217 109.503 192.732C109.855 191.546 110.584 190.74 111.69 190.315L111.691 190.315C113.755 189.522 115.324 190.223 116.399 192.417C116.509 192.643 116.622 192.905 116.736 193.203C116.904 193.639 116.982 194.104 116.965 194.57C116.957 194.824 116.947 195.023 116.936 195.165C116.931 195.239 116.925 195.308 116.917 195.372C116.911 195.43 116.903 195.488 116.893 195.546L116.784 196.207L116.786 196.198C116.798 196.124 116.806 196.063 116.809 196.013C116.807 196.047 116.804 196.111 116.801 196.204L116.793 195.825L116.816 196.128C116.822 196.208 116.825 196.289 116.825 196.37C116.825 196.412 116.826 196.441 116.826 196.456C116.788 194.496 115.779 193.389 113.799 193.134C115.366 193.334 116.602 194.571 116.802 196.143L116.847 196.502C116.86 196.602 116.868 196.702 116.872 196.803L116.886 197.135C116.888 197.202 116.889 197.27 116.888 197.338L116.88 197.736C116.878 197.837 116.872 197.939 116.861 198.04L116.745 199.117L116.765 198.788L116.758 199.365L116.751 199.096L116.794 199.757L116.793 199.741C116.82 200.12 116.783 200.533 116.683 200.978L116.683 200.978C116.677 201.005 116.671 201.032 116.665 201.06C116.223 202.928 114.351 204.084 112.483 203.642C110.615 203.201 109.459 201.329 109.9 199.461Z" fill="black"/>
<path d="M105.988 214.813C106.145 215.11 106.337 215.377 106.556 215.612L106.556 215.612C106.561 215.646 106.565 215.681 106.571 215.716C106.362 215.461 106.168 215.16 105.988 214.813H105.988ZM118.039 208.782C116.776 208.782 115.649 209.328 114.66 210.419C114.361 210.747 114.125 211.128 113.963 211.541C113.887 211.735 113.818 211.929 113.755 212.123C113.674 212.052 113.592 211.984 113.51 211.918C113.132 211.616 112.74 211.364 112.334 211.163L112.334 211.163C111.569 209.809 110.575 209.132 109.354 209.132C108.68 209.132 107.937 209.338 107.125 209.75C106.884 209.872 106.648 210.019 106.417 210.19C106.258 210.308 106.109 210.438 105.972 210.579C104.985 211.594 104.534 212.78 104.619 214.135L104.619 214.135C104.611 215.832 105.122 217.49 106.151 219.107C106.223 219.22 106.302 219.329 106.385 219.433C107.166 220.405 107.916 221.226 108.633 221.896L108.633 221.896C109.108 223.069 109.892 224.243 110.985 225.417C111.013 225.447 111.042 225.476 111.07 225.505C111.644 226.081 112.224 226.547 112.809 226.902C112.903 226.959 112.996 227.013 113.089 227.065L113.089 227.065C113.767 227.561 114.471 227.949 115.201 228.231C115.573 228.374 115.965 228.456 116.363 228.473C116.471 228.477 116.577 228.48 116.681 228.48C119.076 228.48 120.349 227.259 120.502 224.817L120.501 224.817C120.826 224.178 121.12 223.364 121.384 222.375L121.383 222.375C121.474 222.34 121.564 222.303 121.656 222.263C121.915 222.149 122.16 222.006 122.387 221.836C123.216 221.213 123.854 220.38 124.301 219.338C124.475 218.934 124.618 218.5 124.731 218.036C124.764 217.903 124.789 217.768 124.806 217.632C125.059 215.646 124.472 214.15 123.045 213.143L123.044 213.143C122.782 212.927 122.5 212.715 122.201 212.504L122.2 212.505C122.197 212.489 122.194 212.473 122.19 212.458C121.656 210.061 120.309 208.836 118.148 208.783L118.148 208.784C118.112 208.783 118.076 208.782 118.039 208.782Z" fill="black"/>
<path d="M304.096 111.982C303.988 111.982 303.879 111.985 303.768 111.991L303.766 111.991C301.584 112.091 299.298 113.412 296.907 115.955L296.905 115.955C295.146 117.653 293.433 120 291.768 122.997L291.766 122.997C290.311 125.271 289.469 127.808 289.239 130.609C289.213 130.929 289.268 131.251 289.399 131.544C289.537 131.851 289.73 132.104 289.977 132.305L289.978 132.306C290.426 132.669 290.855 132.85 291.266 132.85C291.77 132.85 292.246 132.576 292.694 132.028C293.077 131.562 293.888 130.907 295.127 130.062L295.127 130.062L298.438 127.897L304.769 124.862C304.809 124.843 304.848 124.822 304.887 124.8C306.597 123.829 307.779 123.033 308.433 122.414L308.431 122.414C310.917 120.324 311.519 117.747 310.235 114.684C310.116 114.399 309.929 114.147 309.69 113.951C308.312 112.817 306.881 112.217 305.394 112.149L305.392 112.15C304.989 112.038 304.556 111.982 304.096 111.982Z" fill="black"/>
<path d="M303.979 136.597C306.944 136.528 309.321 136.771 311.111 137.324C311.121 137.327 311.13 137.33 311.139 137.333C312.839 137.888 314.157 138.418 315.095 138.923L315.04 138.895C316.921 139.832 318.363 140.67 319.367 141.41L319.104 141.247C320.579 142.001 321.442 142.426 321.693 142.523C321.583 142.481 321.45 142.452 321.295 142.437C321.464 142.453 321.63 142.492 321.788 142.552C322.656 142.883 323.235 143.028 323.525 142.987C323.504 142.99 323.475 142.999 323.439 143.013C323.488 142.994 323.538 142.977 323.588 142.962C323.705 142.928 323.782 142.895 323.82 142.864C323.796 142.883 323.78 142.908 323.771 142.937C323.816 142.795 323.778 142.521 323.658 142.115C323.58 141.852 323.469 141.56 323.324 141.24L323.364 141.323C322.701 140.026 321.272 139.02 319.077 138.305L319.142 138.324C317.613 137.886 315.426 137.759 312.58 137.942L312.675 137.934C311.386 138.082 310.449 138.24 309.863 138.408C309.851 138.411 309.839 138.414 309.827 138.418C308.801 138.69 307.362 139.23 305.509 140.037C304.546 140.457 303.425 140.016 303.005 139.053C302.586 138.09 303.027 136.97 303.99 136.55C306.018 135.666 307.638 135.063 308.85 134.741L308.814 134.751C309.601 134.525 310.744 134.327 312.241 134.155C312.273 134.151 312.304 134.148 312.336 134.146C315.62 133.935 318.238 134.108 320.19 134.668C320.212 134.674 320.234 134.681 320.255 134.688C323.446 135.728 325.612 137.362 326.751 139.592C326.765 139.619 326.779 139.647 326.791 139.675C327.007 140.153 327.178 140.607 327.305 141.036C327.646 142.188 327.676 143.205 327.396 144.088C327.177 144.777 326.788 145.351 326.228 145.809C325.794 146.163 325.274 146.43 324.667 146.61L324.817 146.559C324.577 146.652 324.321 146.717 324.05 146.755C323.115 146.885 321.91 146.669 320.434 146.107L320.927 146.223C320.736 146.204 320.533 146.153 320.319 146.07C319.946 145.926 318.964 145.447 317.374 144.635C317.282 144.588 317.194 144.533 317.111 144.472C316.284 143.863 315.028 143.139 313.344 142.299C313.326 142.29 313.308 142.281 313.29 142.271C312.553 141.874 311.443 141.433 309.959 140.95L309.987 140.958C308.592 140.527 306.618 140.341 304.067 140.4C303.017 140.424 302.146 139.592 302.122 138.542C302.097 137.492 302.929 136.621 303.979 136.597Z" fill="black"/>
<path d="M313.546 135.206C312.648 135.206 311.85 135.844 311.678 136.757C311.499 137.713 312.068 138.635 312.972 138.921L312.97 138.921C313.065 139.04 313.176 139.155 313.302 139.269C313.412 139.368 313.549 139.479 313.712 139.601L313.712 139.601C315.545 141 317.288 142.134 318.942 143.004L318.939 143.004C319.06 143.101 319.185 143.201 319.313 143.302L319.313 143.302C320.191 144.002 321.034 144.491 321.843 144.768L321.843 144.768C321.94 144.802 322.035 144.831 322.13 144.857C322.483 144.953 322.812 145 323.118 145C323.968 145 324.634 144.63 325.115 143.889L325.112 143.889C325.7 143.262 325.78 142.449 325.351 141.45C325.2 141.098 324.952 140.679 324.606 140.19C324.567 140.135 324.526 140.083 324.481 140.032C323.178 138.552 321.785 137.649 320.304 137.323L320.301 137.323C319.664 136.968 319.123 136.734 318.68 136.62C318.414 136.551 318.159 136.517 317.915 136.517C317.842 136.517 317.77 136.52 317.699 136.526L317.697 136.526C317.425 136.541 317.179 136.576 316.957 136.632C316.518 136.388 316.161 136.204 315.886 136.081L315.883 136.081C315.18 135.657 314.559 135.384 314.021 135.264C313.98 135.255 313.939 135.247 313.899 135.239C313.78 135.217 313.662 135.206 313.546 135.206Z" fill="black"/>
<path d="M217.219 166.093L217.077 166.095C215.569 166.102 214.248 166.327 213.113 166.768C212.525 166.988 211.961 167.262 211.423 167.59C211.122 167.687 210.371 168.3 209.17 169.428C208.253 170.374 207.541 171.505 207.033 172.822C207.319 173.708 207.093 175.088 206.356 176.963C206.577 179.338 207.241 181.246 208.348 182.688C210.329 181.497 212.064 181.485 213.556 182.653C214.321 183.264 215.006 184.057 215.612 185.031C216.564 187.096 217.256 188.775 217.689 190.068C217.947 190.904 217.958 191.69 217.721 192.426C217.456 193.15 216.972 193.705 216.269 194.091L216.531 194.649C215.511 196.049 214.866 197.579 214.599 199.24C214.401 201.077 214.514 202.645 214.936 203.942L217.686 202.056C217.872 201.934 218.07 201.834 218.278 201.755L230.215 197.53C235.074 196.374 237.8 195.567 238.395 195.11C237.629 191.311 236.622 188.168 235.373 185.68C232.516 179.964 230.22 176.03 228.485 173.877C226.359 171.074 224.59 169.208 223.178 168.278C222.78 167.841 221.588 167.229 219.602 166.443C218.807 166.21 218.013 166.093 217.219 166.093Z" fill="black"/>
<path d="M237.675 201.88L237.174 202.028C235.407 202.529 233.697 202.973 232.043 203.36L222.191 206.848C222.045 206.98 221.844 207.08 221.59 207.147C221.298 207.353 220.984 207.547 220.647 207.729L219.057 208.521L218.37 208.993C219.042 209.517 219.639 209.899 220.161 210.14C221.302 210.667 222.311 211.009 223.186 211.166C223.867 211.303 224.571 211.348 225.298 211.3L226.751 211.083L227.997 210.784C230.382 210.08 232.396 208.917 234.038 207.295C235.625 205.762 236.837 203.957 237.675 201.88Z" fill="black"/>
<path d="M200.92 214.536L200.92 214.536C200.919 214.537 200.913 214.539 200.902 214.542C200.891 214.544 200.879 214.547 200.865 214.55C200.833 214.557 200.802 214.564 200.771 214.569C200.788 214.565 200.802 214.561 200.812 214.559L200.838 214.552L200.844 214.551L200.864 214.546C200.878 214.543 200.89 214.541 200.898 214.539C200.909 214.537 200.914 214.536 200.914 214.536L200.918 214.536L200.92 214.536Z" fill="black"/>
<path d="M245.809 198.298L245.478 198.307C244.579 198.354 243.554 198.588 242.403 199.009C242.376 199.405 241.939 199.928 241.094 200.577C240.549 200.927 239.848 201.222 238.99 201.462C237.653 202.827 236.782 204.25 236.377 205.732C235.171 205.778 233.947 205.593 232.703 205.177L232.631 203.219L232.043 203.36L222.19 206.848L220.647 207.729L219.163 208.468L215.62 210.944C214.654 211.838 213.945 213.848 213.494 216.974L219.235 221.799C219.56 222.063 220.041 222.379 220.676 222.746C220.951 222.748 221.765 222.563 223.118 222.191C224.235 221.664 228.181 220.266 234.954 217.997C235.929 217.71 237.763 217.338 240.457 216.883C245.411 216.003 249.89 216.177 253.895 217.407C254.976 215.607 255.865 213.532 256.562 211.182C256.91 208.795 256.785 206.779 256.187 205.137C255.781 204.138 255.301 203.248 254.746 202.468L253.858 201.38C253.229 200.709 252.525 200.148 251.747 199.697C250.317 198.795 248.337 198.329 245.809 198.298Z" fill="black"/>
<path d="M246.835 222.446L246.795 222.446C245.919 222.441 245 222.491 244.037 222.595C243.881 222.663 243.716 222.717 243.543 222.758C241.512 223.18 240.328 223.438 239.99 223.534C239.335 223.696 238.892 223.826 238.66 223.924L235.463 225.202L235.042 225.43C234.563 225.786 234.038 226.16 233.467 226.553C234.069 226.614 234.907 226.654 235.982 226.672L237.467 226.629L238.923 226.498L240.351 226.281L241.75 225.978L243.121 225.587L244.464 225.109C245.136 224.854 246.089 224.402 247.324 223.754C248.003 223.38 248.616 222.996 249.163 222.601C248.844 222.561 248.38 222.52 247.769 222.477C247.431 222.456 247.12 222.446 246.835 222.446Z" fill="black"/>
<path d="M235.755 224.748L235.71 224.806C235.619 224.921 235.52 225.029 235.412 225.13C235.295 225.238 235.191 225.324 235.099 225.389C235.154 225.352 235.207 225.312 235.259 225.27L235.336 225.206C235.387 225.162 235.436 225.116 235.484 225.067C235.532 225.018 235.579 224.968 235.624 224.914L235.691 224.833L235.757 224.748H235.755Z" fill="black"/>
<path d="M221.492 187.274L221.52 187.307C221.738 187.557 221.9 187.759 222.005 187.914C222.085 188.033 222.134 188.114 222.154 188.157C222.174 188.215 222.155 188.21 222.096 188.14C222.049 188.085 221.993 188.01 221.926 187.915L221.49 187.274L221.492 187.274ZM211.126 181.787L211.164 181.787C211.899 181.822 212.567 182.018 213.166 182.376C214.097 183.076 214.688 183.636 214.939 184.055C215.472 184.735 215.844 185.383 216.055 185.999C216.714 187.403 217.295 188.904 217.796 190.5C218.037 191.512 217.872 192.412 217.302 193.202C217.267 193.304 217.067 193.513 216.702 193.83C216.544 193.945 216.371 194.045 216.182 194.128C215.806 194.295 215.362 194.398 214.85 194.438C214.637 194.438 214.432 194.418 214.234 194.38C213.755 194.25 213.476 194.15 213.399 194.078C213.051 193.886 212.735 193.617 212.45 193.272C212.264 193.014 212.137 192.809 212.071 192.657C211.713 191.393 211.312 190.298 210.866 189.37L209.579 191.795L208.567 193.264C208.131 193.727 207.702 194.022 207.278 194.147C206.522 194.429 205.717 194.378 204.863 193.996C203.944 193.379 203.415 192.739 203.277 192.076C203.142 191.557 203.169 190.946 203.358 190.242L203.555 189.823L204.419 188.53C204.986 187.388 205.463 186.491 205.85 185.838C206.28 185.091 206.686 184.449 207.068 183.913C208.249 182.481 209.602 181.772 211.126 181.787ZM200.076 160.524L199.735 160.732C199.027 161.133 197.998 162.286 196.647 164.19C197.76 163.844 199.029 163.872 200.453 164.274C201.673 164.598 203.063 165.565 204.622 167.176C206.845 170.263 207.586 173.172 206.844 175.903C205.868 177.931 204.622 179.29 203.107 179.98C202.432 180.314 200.857 180.606 198.382 180.856C196.783 180.522 195.26 179.725 193.814 178.465L190.91 174.73C190.663 174.35 190.516 173.799 190.469 173.077C190.467 173.012 190.179 173.309 189.605 173.97C188.286 175.606 187.332 177.487 186.741 179.612C186.231 182.42 186.217 185.165 186.699 187.845C186.119 189.079 185.775 189.971 185.666 190.522L183.245 202.838C183.281 201.978 183.255 201.726 183.169 202.081C182.988 202.824 182.978 203.89 183.138 205.277C183.12 205.925 183.51 207.381 184.309 209.646C184.68 210.496 185.126 211.264 185.646 211.952C186.582 213.283 188.022 214.379 189.967 215.239C190.859 215.58 192.232 215.844 194.084 216.031C196.011 216.013 198.043 215.583 200.178 214.743L207.454 214.775C208.731 209.997 210.168 207.107 211.766 206.105L218.093 201.832L230.874 197.361C230.41 196.377 229.47 195.401 228.053 194.433C227.307 193.916 226.077 193.403 224.366 192.894C224.248 189.694 223.34 184.841 221.642 178.336C220.077 173.961 219.102 171.367 218.716 170.554C217.311 167.803 215.698 165.249 213.878 162.891C212.509 161.362 211.808 160.671 211.774 160.818C211.214 163.915 209.401 165.289 206.336 164.941C205.136 164.582 203.696 163.837 202.017 162.707C201.146 162.038 200.499 161.31 200.076 160.524Z" fill="black"/>
<path d="M210.814 205.748C210.874 206.094 210.952 206.44 211.049 206.785L211.048 206.786C210.945 206.423 210.867 206.078 210.813 205.748H210.814Z" fill="black"/>
<path d="M220.998 207.703L220.937 207.714L220.876 207.724C220.797 207.737 220.718 207.752 220.639 207.768C220.573 207.781 220.534 207.79 220.52 207.793L220.522 207.793L220.516 207.795C220.58 207.782 220.648 207.768 220.721 207.753L220.814 207.736L220.907 207.719L221 207.703H220.998Z" fill="black"/>
<path d="M221.102 193.54L220.836 193.544C217.435 193.716 214.714 195.142 212.674 197.822C211.872 198.864 211.276 200.199 210.887 201.825C210.778 202.337 210.709 202.857 210.679 203.385C210.641 203.515 210.656 204.092 210.725 205.117C210.683 206.175 210.64 206.918 210.596 207.346C211.311 206.59 211.851 206.083 212.213 205.825L217.974 201.889C218.065 201.841 218.187 201.788 218.34 201.732L229.501 197.783C228.556 196.564 227.478 195.607 226.267 194.913L225.334 194.441C224.695 194.16 224.023 193.944 223.318 193.794C222.612 193.644 221.874 193.559 221.102 193.54Z" fill="black"/>
<path d="M231.547 203.537L222.191 206.848C221.177 207.466 220.132 208.023 219.057 208.521L215.905 210.687C215.765 210.786 215.525 211.031 215.185 211.424C214.916 211.672 214.527 212.606 214.017 214.224C213.846 214.985 213.672 215.902 213.494 216.974C213.457 217.175 213.454 217.635 213.484 218.354C213.541 219.199 213.814 220.02 214.302 220.815C214.866 221.388 215.613 221.885 216.544 222.305C217.227 222.63 218.447 222.793 220.205 222.792C221.15 222.699 222.121 222.498 223.118 222.191C223.451 221.956 226.783 220.764 233.115 218.615C233.307 216.377 232.641 214.119 231.118 211.84C231.572 207.212 231.715 204.444 231.547 203.537Z" fill="black"/>
<path d="M207.634 152.65C207.634 152.654 207.751 152.746 207.985 152.926C207.815 152.786 207.698 152.694 207.634 152.65Z" fill="black"/>
<path d="M210.866 189.37L210.742 189.591C210.431 190.147 210.144 190.705 209.88 191.266C210.102 191.185 210.325 191.095 210.547 190.998C210.714 190.929 210.992 190.794 211.382 190.593C211.203 190.151 211.031 189.743 210.866 189.37Z" fill="black"/>
<path d="M246.883 222.435L246.302 222.443C245.782 222.451 245.028 222.501 244.04 222.593C243.883 222.662 243.717 222.717 243.544 222.758C242.43 222.987 241.657 223.151 241.224 223.248C244.047 223.833 246.68 223.926 249.123 223.529C250.204 224.21 252.076 224.688 254.74 224.963C255.043 225.25 255.567 225.681 256.313 226.255L254.739 224.467L254.363 224.18L253.671 224.167L253.415 224.14C253.327 224.132 253.119 224.076 252.789 223.971C252.353 223.804 251.959 223.526 251.606 223.138L250.747 222.924C250.081 222.773 249.413 222.646 248.743 222.545C248.337 222.481 247.718 222.444 246.883 222.435Z" fill="black"/>
<path d="M211.895 129.754L212.027 129.874C212.19 130.027 212.339 130.173 212.471 130.312L212.568 130.414C212.63 130.482 212.689 130.547 212.744 130.611C212.798 130.675 212.849 130.736 212.896 130.796C212.785 130.662 212.633 130.492 212.44 130.287L212.182 130.026L211.893 129.754H211.895ZM212.177 135.247L212.501 135.251L212.817 135.263L213.127 135.284C213.227 135.294 213.328 135.304 213.428 135.313L213.723 135.351L214.01 135.396L214.29 135.45L214.562 135.512L214.827 135.582L214.797 135.591C214.371 135.478 213.933 135.393 213.483 135.334L213.261 135.307L213.038 135.286L212.815 135.269L212.591 135.257L212.366 135.25C212.241 135.248 212.166 135.247 212.14 135.247L212.177 135.247ZM203.704 151.421L203.99 151.432C204.081 151.397 204.683 151.537 205.796 151.851L207.509 152.568C207.781 152.74 207.997 152.894 208.156 153.029L209.612 154.479C209.982 154.966 210.257 155.342 210.439 155.608C211.005 156.582 211.352 157.333 211.479 157.861C211.681 158.515 211.761 159.69 211.718 161.385C211.675 161.641 211.623 161.84 211.561 161.98C211.459 162.252 211.301 162.585 211.085 162.981C210.846 163.311 210.573 163.63 210.265 163.939C210.179 164.041 209.827 164.283 209.207 164.668C208.594 164.97 207.937 165.107 207.234 165.079C206.031 165.088 204.411 164.379 202.375 162.953C201.798 162.484 201.238 161.962 200.696 161.385L199.682 159.953C199.532 159.717 199.385 159.36 199.242 158.881C199.218 158.814 199.19 158.604 199.157 158.252C199.036 157.929 198.92 157.517 198.81 157.014C198.738 156.618 198.7 156.359 198.696 156.235C198.766 155.317 198.895 154.69 199.081 154.355C199.616 153.427 200.197 152.753 200.823 152.331C201.509 151.797 202.469 151.493 203.704 151.421ZM231.104 153.992L231.144 153.992C232.473 154.055 233.484 154.237 234.177 154.538C234.766 154.756 235.454 155.224 236.244 155.941C236.495 156.211 236.691 156.489 236.832 156.775L237.579 158.975C237.659 159.414 237.679 159.805 237.638 160.148C237.521 160.841 237.354 161.462 237.135 162.01C236.515 163.174 236.089 163.863 235.858 164.078C235.376 164.549 234.26 165.352 232.511 166.488C231.681 166.952 230.652 167.271 229.423 167.443C228.461 167.409 227.605 167.257 226.854 166.986C226.478 166.851 226.129 166.686 225.806 166.491L225.342 166.176C225.046 165.952 224.776 165.698 224.532 165.414C224.195 164.972 223.887 164.342 223.608 163.523C223.425 162.549 223.396 161.646 223.522 160.813C223.631 160.106 223.942 159.244 224.454 158.226C224.756 157.682 225.209 157.136 225.813 156.587C226.02 156.409 226.491 156.09 227.224 155.631C227.875 155.268 228.207 155.106 228.221 155.146C228.372 154.984 228.854 154.691 229.667 154.264C230.011 154.106 230.49 154.015 231.104 153.992ZM198.661 163.819L198.955 163.834C199.724 163.952 200.633 164.267 201.682 164.781C202.885 165.43 203.845 166.188 204.562 167.056C205.314 167.995 205.811 168.684 206.055 169.123C206.758 171.394 207.117 172.897 207.131 173.632C207.093 174.559 206.924 175.458 206.625 176.328C206.401 177.03 205.917 177.753 205.173 178.497C204.121 179.41 203.1 180.052 202.11 180.423C201.275 180.752 200.126 180.915 198.666 180.913C197.249 180.778 195.679 179.981 193.958 178.524L192.447 176.909C192.087 176.459 191.804 175.999 191.598 175.531C191.487 175.508 191.208 175.164 190.762 174.5C190.589 174.147 190.481 173.505 190.437 172.575C190.409 171.777 190.592 170.79 190.986 169.615C191.273 169.069 191.534 168.64 191.77 168.327C191.915 168.077 192.245 167.773 192.758 167.415L193.535 166.209C194.25 165.592 194.749 165.195 195.032 165.017C195.417 164.75 195.792 164.523 196.155 164.336C196.536 164.134 197.371 163.961 198.661 163.819ZM240.802 166.124L241.145 166.153L242.759 166.535L244.178 167.076L245.401 167.778C246.091 168.333 246.517 168.704 246.681 168.889C248.081 170.541 248.73 172.728 248.63 175.451C248.583 175.794 248.518 176.117 248.434 176.421L247.568 178.96L247.362 179.425C246.721 180.524 246.15 181.309 245.648 181.781C243.891 183.324 241.729 183.99 239.162 183.778C237.682 183.547 236.631 183.26 236.01 182.918C234.716 182.279 233.824 181.607 233.333 180.902C232.959 180.463 232.507 179.816 231.978 178.961C231.67 178.361 231.365 177.646 231.062 176.814C230.761 175.978 230.622 174.882 230.646 173.527C230.716 172.914 230.892 172.328 231.173 171.77L232.555 169.547C232.992 169.033 233.289 168.726 233.445 168.625C235.231 167.542 236.312 166.949 236.69 166.847C237.808 166.482 239.179 166.241 240.802 166.124ZM258.582 109.217L257.498 109.321C254.506 109.871 250.697 112.623 246.072 117.576C242.736 124.415 240.62 129.65 239.724 133.28C234.972 131.688 227.041 132.35 215.931 135.268L213.378 131.334C212.153 126.518 211.284 123.407 210.769 122.002C208.34 118.147 207.005 116.168 206.765 116.064C201.846 111.801 196.596 111.334 191.016 114.664C189.102 117.09 187.374 120.407 185.832 124.614C185.281 129.181 185.034 131.805 185.091 132.487L186.356 141.669C186.137 141.518 185.891 142.205 185.619 143.731C185.26 147.344 185.114 150.299 185.183 152.596C185.776 156.624 186.734 160.061 188.056 162.908C187.745 167.198 188.158 171.266 189.295 175.113C191.01 179.75 193.26 183.455 196.044 186.229C198.891 188.619 201.274 190.254 203.194 191.134C203.243 190.606 203.358 190.177 203.537 189.848L207.427 183.515C208.548 182.246 210.013 181.685 211.823 181.832C212.829 182.115 213.749 182.696 214.582 183.574C215.185 184.04 215.973 185.543 216.944 188.084L218.698 189.303C221.657 191.104 225.21 191.904 229.357 191.704L230.15 193.133C228.143 194.268 226.283 195.93 224.568 198.121C223.336 196.919 221.134 196.507 217.963 196.885C216.055 197.634 214.406 198.479 213.017 199.423C211.766 200.276 210.649 201.546 209.667 203.235C209.201 205.452 209.079 207.51 209.302 209.409C209.464 208.544 210.066 207.669 211.108 206.785C213.048 205.126 215.437 203.449 218.277 201.755L230.214 197.53C234.203 196.625 237.085 195.769 238.862 194.961C240.643 194.815 241.802 195.397 242.34 196.707C243.096 198.076 242.527 199.456 240.632 200.847C239.611 201.356 236.748 202.194 232.043 203.36L222.191 206.848C220.087 207.814 218.013 209.079 215.97 210.64C214.829 211.849 214.165 213.078 213.977 214.327L213.526 216.71L214.443 217.731C217.626 220.106 220.577 221.564 223.298 222.104C236.156 217.028 245.514 215.246 251.37 216.758C254.533 217.427 257.193 218.476 259.349 219.905L263.136 225.295L264.416 228.29C267.212 228.369 269.959 225.947 272.656 221.025C273.309 216.812 273.537 214.248 273.34 213.332C273.122 211.864 271.209 208.415 267.599 202.985L266.864 199.257C270.219 195.82 272.039 193.746 272.325 193.035C273.89 185.246 274.652 179.205 274.609 174.91C274.209 172.268 273.274 168.693 271.803 164.186C270.192 153.177 269.175 147.925 268.751 148.431C271.233 134.711 271.942 124.474 270.876 117.721C269.111 112.579 265.013 109.744 258.582 109.217Z" fill="black"/>
<path d="M254.38 224.083L254.391 224.095C254.412 224.121 254.433 224.146 254.455 224.172C254.463 224.18 254.47 224.188 254.477 224.197L254.48 224.197L254.478 224.197C254.493 224.214 254.508 224.23 254.523 224.247C254.593 224.32 254.65 224.377 254.693 224.417C254.603 224.314 254.553 224.257 254.545 224.246C254.512 224.206 254.488 224.177 254.475 224.159L254.435 224.106L254.437 224.106L254.382 224.083H254.38Z" fill="black"/>
<path d="M253.694 121.698C253.389 121.802 253.055 121.854 252.692 121.854C252.407 121.854 252.104 121.822 251.783 121.757L251.785 121.758C252.058 121.81 252.334 121.836 252.608 121.836C252.975 121.836 253.339 121.79 253.693 121.698H253.694ZM264.177 107.095C263.51 107.095 262.849 107.194 262.194 107.394L262.192 107.394C259.061 107.81 255.197 109.866 250.599 113.562L250.597 113.562C250.022 113.809 249.458 114.172 248.904 114.649C246.764 116.495 242.832 122.492 237.111 132.639L220.501 131.914L220.5 131.915C219.891 131.349 219.255 130.622 218.592 129.736L218.591 129.736C215.048 122.692 211.387 117.583 207.609 114.411C207.579 114.386 207.549 114.361 207.518 114.336C203.067 110.799 199.142 109.031 195.746 109.031C194.766 109.031 193.83 109.178 192.938 109.472C192.343 109.669 191.776 109.927 191.237 110.247C191.095 110.332 190.955 110.421 190.817 110.513L190.816 110.514C186.051 112.799 183.168 116.626 182.167 121.994L182.166 121.994C181.764 123.481 181.514 125.054 181.413 126.712C181.412 126.732 181.411 126.752 181.41 126.771L180.607 143.931C180.495 146.318 182.34 148.344 184.728 148.456C184.797 148.459 184.865 148.461 184.933 148.461C187.231 148.461 189.145 146.654 189.253 144.335L190.056 127.176L190.057 127.176C190.127 126.077 190.294 125.058 190.559 124.119C190.598 123.98 190.63 123.84 190.655 123.699C191.118 121.075 192.496 119.246 194.788 118.212C195.094 118.074 195.383 117.901 195.649 117.696C195.651 117.694 195.654 117.692 195.656 117.691L195.655 117.691C195.771 117.653 195.902 117.634 196.047 117.634C197.181 117.634 199.201 118.786 202.104 121.09L202.103 121.09C205.002 123.549 207.971 127.829 211.01 133.929C211.117 134.144 211.242 134.35 211.383 134.544C213.016 136.79 214.69 138.515 216.407 139.719C217.083 140.193 217.88 140.464 218.704 140.5L237.389 141.315C237.445 141.318 237.501 141.319 237.556 141.319C237.574 141.319 237.591 141.319 237.608 141.319C238.056 141.319 238.49 141.29 238.909 141.232L238.909 141.232C240.911 140.952 242.491 140.066 243.65 138.574C243.783 138.403 243.903 138.222 244.008 138.034C249.209 128.746 252.616 123.242 254.231 121.521L254.23 121.521C254.637 121.356 255.022 121.129 255.368 120.842C259.193 117.675 261.861 116.051 263.37 115.97C263.592 115.958 263.812 115.93 264.028 115.884L264.03 115.884C264.138 115.969 264.261 116.078 264.401 116.211L264.399 116.211C266.123 118.257 267.166 120.164 267.53 121.931L267.528 121.932L266.367 154.858C266.349 155.369 266.421 155.878 266.581 156.363C267.783 160.019 268.672 166.937 269.246 177.118L269.246 177.118C269.336 179.165 268.961 181.838 268.121 185.138C268.079 185.305 268.046 185.474 268.024 185.644L268.022 185.645C267.683 186.661 266.452 189.205 264.331 193.277C264.214 193.501 264.117 193.734 264.041 193.975C263.572 195.463 263.282 196.611 263.173 197.418C263.099 197.966 263.087 198.472 263.138 198.936C263.184 199.358 263.293 199.77 263.459 200.16C267.664 210.022 269.48 216.936 268.907 220.901C268.565 223.266 270.205 225.461 272.571 225.804C272.781 225.834 272.989 225.849 273.195 225.849C275.311 225.849 277.162 224.295 277.473 222.14C278.251 216.762 276.394 208.685 271.903 197.908L271.901 197.908C271.972 197.645 272.066 197.322 272.183 196.942L272.181 196.942C274.586 192.311 275.992 189.282 276.397 187.854C276.484 187.549 276.548 187.254 276.589 186.968L276.587 186.968C277.589 182.944 278.024 179.511 277.891 176.671C277.89 176.658 277.889 176.644 277.889 176.631C277.306 166.314 276.358 158.916 275.045 154.437L275.043 154.437L276.195 121.769C276.205 121.494 276.188 121.22 276.146 120.949C275.596 117.421 273.828 113.915 270.844 110.429C270.766 110.337 270.685 110.249 270.599 110.165C269.508 109.086 268.394 108.294 267.259 107.789C266.219 107.326 265.191 107.095 264.177 107.095Z" fill="black"/>
<path d="M275.174 170.921L275.175 170.921C275.243 170.911 275.316 170.902 275.392 170.894L275.391 170.894C275.487 170.884 275.595 170.874 275.714 170.865C275.766 170.861 275.819 170.858 275.872 170.856C276.309 170.843 276.653 170.822 276.903 170.796C277.006 170.785 277.109 170.779 277.213 170.777L278.418 170.753C278.481 170.752 278.544 170.752 278.607 170.754C279.437 170.781 280.542 170.793 281.922 170.792C281.966 170.792 282.009 170.793 282.053 170.794L282.053 170.794C281.975 170.792 281.908 170.791 281.851 170.794L281.851 170.794C281.941 170.79 282.177 170.774 282.559 170.746C282.597 170.743 282.635 170.741 282.673 170.739L285.31 170.627L285.282 170.629C285.673 170.609 286.093 170.582 286.542 170.547C286.584 170.544 286.625 170.541 286.667 170.539L287.297 170.512L287.219 170.516C287.493 170.498 287.922 170.453 288.506 170.38C288.575 170.371 288.645 170.364 288.714 170.36C289.259 170.323 289.606 170.294 289.757 170.272C289.812 170.264 289.867 170.257 289.922 170.252C290.43 170.202 290.876 170.123 291.26 170.015C293.205 169.468 295.226 170.602 295.772 172.547C296.319 174.493 295.186 176.513 293.24 177.06C292.442 177.284 291.574 177.443 290.638 177.535L290.802 177.515C290.468 177.563 289.937 177.612 289.209 177.661L289.416 177.641C288.687 177.732 288.112 177.792 287.691 177.819C287.665 177.821 287.639 177.822 287.613 177.823L286.984 177.85L287.108 177.843C286.594 177.883 286.107 177.914 285.649 177.937C285.64 177.938 285.63 177.938 285.621 177.939L282.983 178.051L283.098 178.044C282.636 178.078 282.319 178.099 282.148 178.106L282.148 178.106C282.02 178.111 281.903 178.112 281.797 178.108L281.928 178.11C280.469 178.111 279.284 178.097 278.374 178.068L278.563 178.069L277.358 178.093L277.668 178.074C277.241 178.119 276.719 178.151 276.104 178.171L276.262 178.162C276.225 178.165 276.199 178.167 276.183 178.169L276.182 178.169C276.192 178.168 276.206 178.166 276.223 178.164C274.224 178.454 272.368 177.067 272.078 175.067C271.788 173.068 273.174 171.211 275.174 170.921Z" fill="black"/>
<path d="M273.221 184.302C273.746 184.195 274.324 184.192 274.955 184.294C275.009 184.303 275.064 184.313 275.118 184.324C275.988 184.506 276.945 184.664 277.99 184.8L277.91 184.791L279.019 184.91L278.804 184.893L278.806 184.894L278.808 184.894C280.256 184.964 281.182 185.023 281.587 185.069L281.586 185.069C281.621 185.073 281.655 185.077 281.688 185.081C281.702 185.083 281.716 185.085 281.73 185.087L282.83 185.242C282.89 185.251 282.951 185.261 283.011 185.273C284.107 185.484 285.576 185.722 287.42 185.987L287.306 185.972C287.845 186.032 288.282 186.071 288.615 186.089L288.368 186.084C288.742 186.078 289.133 186.087 289.538 186.109L289.336 186.104L291.381 186.104C291.395 186.104 291.41 186.104 291.424 186.104H291.425C291.371 186.103 291.327 186.104 291.295 186.106L291.295 186.106C291.307 186.105 291.327 186.104 291.354 186.101C293.366 185.909 295.152 187.384 295.344 189.396C295.536 191.408 294.061 193.194 292.049 193.386C291.944 193.396 291.847 193.404 291.757 193.409L291.758 193.409C291.607 193.419 291.468 193.423 291.338 193.421L291.382 193.421L289.337 193.422C289.269 193.422 289.202 193.42 289.135 193.416C288.9 193.403 288.681 193.398 288.477 193.401C288.394 193.402 288.312 193.401 288.229 193.396C287.754 193.371 287.176 193.321 286.495 193.245C286.457 193.241 286.419 193.236 286.381 193.23C284.42 192.949 282.835 192.692 281.623 192.458L281.805 192.488L280.705 192.332L280.747 192.338C280.753 192.339 280.758 192.34 280.761 192.34L280.76 192.34C280.512 192.312 279.742 192.266 278.451 192.203L278.453 192.203L278.45 192.203C278.377 192.199 278.306 192.194 278.235 192.186L277.126 192.067C277.099 192.064 277.073 192.061 277.046 192.057C275.816 191.897 274.675 191.707 273.622 191.487L273.786 191.518C274.039 191.559 274.341 191.543 274.692 191.471C272.713 191.877 270.779 190.602 270.372 188.622C269.966 186.643 271.241 184.709 273.221 184.302Z" fill="black"/>
<path d="M182.031 149.856C181.964 149.607 181.922 149.352 181.902 149.092C181.896 149.013 181.893 148.933 181.892 148.854V148.853C181.892 148.847 181.892 148.843 181.892 148.84C181.893 148.868 181.896 148.905 181.901 148.952L181.901 148.95C181.9 148.943 181.9 148.937 181.899 148.934L181.899 148.933C181.901 148.948 181.905 148.969 181.91 148.995C181.908 148.984 181.906 148.972 181.903 148.961C181.904 148.965 181.905 148.969 181.906 148.972L181.913 149L181.734 148.278C181.725 148.245 181.718 148.212 181.71 148.178L181.704 148.148L181.704 148.148L181.71 148.178C181.605 147.695 181.533 147.312 181.495 147.029L181.495 147.029C181.489 146.985 181.483 146.942 181.478 146.901C181.478 146.894 181.477 146.887 181.476 146.88L181.476 146.88C181.474 146.86 181.472 146.841 181.47 146.821L181.47 146.82C181.445 146.578 181.437 146.357 181.446 146.156L181.443 146.353C181.442 146.275 181.443 146.189 181.447 146.096C181.45 146.016 181.455 145.919 181.462 145.805L181.455 146.047L181.454 145.883C181.454 145.826 181.455 145.77 181.458 145.713C181.463 145.595 181.466 145.515 181.466 145.475L181.466 145.475C181.466 145.495 181.466 145.521 181.468 145.553C181.395 143.597 182.921 141.953 184.877 141.88C186.832 141.807 188.477 143.334 188.549 145.289C188.552 145.362 188.553 145.442 188.553 145.528L188.553 145.528C188.552 145.654 188.547 145.819 188.538 146.023L188.541 145.853L188.542 146.018C188.542 146.098 188.54 146.179 188.535 146.26C188.531 146.315 188.529 146.352 188.528 146.373C188.529 146.345 188.529 146.311 188.529 146.269C188.53 146.335 188.529 146.401 188.526 146.466C188.532 146.322 188.53 146.2 188.52 146.098L188.52 146.097C188.52 146.098 188.52 146.099 188.52 146.102L188.518 146.081C188.517 146.076 188.517 146.072 188.516 146.069L188.516 146.069C188.53 146.168 188.569 146.369 188.635 146.672L188.642 146.702L188.642 146.703L188.612 146.573L188.791 147.296C188.794 147.305 188.796 147.314 188.798 147.324C188.825 147.438 188.85 147.552 188.871 147.667L188.864 147.633C188.886 147.742 188.905 147.858 188.922 147.981L188.921 147.98C188.929 148.038 188.937 148.098 188.944 148.159L188.943 148.158C188.96 148.307 188.971 148.467 188.976 148.637C188.978 148.691 188.979 148.747 188.979 148.805L188.969 148.566C188.956 148.387 188.926 148.21 188.879 148.034C189.382 149.925 188.257 151.866 186.366 152.369C184.475 152.872 182.534 151.747 182.031 149.856Z" fill="black"/>
<path d="M187.329 139.272C188.332 139.948 188.894 140.904 189.016 142.138L188.993 141.957C189.01 142.071 189.024 142.196 189.035 142.331L189.035 142.331C189.049 142.505 189.059 142.724 189.066 142.987L189.05 142.73L189.113 143.362L188.977 142.68C189.009 142.786 189.04 142.901 189.069 143.026L189.069 143.026C189.153 143.38 189.253 143.952 189.37 144.743L189.271 144.288L189.293 144.365C189.353 144.596 189.401 144.805 189.437 144.991L189.437 144.991C189.457 145.097 189.474 145.198 189.488 145.295L189.489 145.306L189.788 147.482C189.806 147.613 189.817 147.746 189.82 147.878C189.822 147.973 189.831 148.081 189.848 148.205C189.861 148.307 189.87 148.41 189.875 148.513L189.874 148.502L189.874 148.503L189.875 148.514C189.889 148.858 189.897 149.134 189.897 149.343L189.89 149.12L189.956 150.149C189.963 150.272 189.965 150.395 189.96 150.518C189.966 150.362 189.963 150.228 189.95 150.116C189.962 150.219 189.999 150.447 190.062 150.8C190.074 150.869 190.085 150.939 190.093 151.009C190.122 151.262 190.142 151.433 190.15 151.523L190.15 151.522C190.383 153.856 189.348 155.16 187.047 155.435L187.019 155.438C185.291 155.63 184.078 154.93 183.381 153.336L190.159 151.622C190.216 152.309 190.138 152.939 189.926 153.511C189.247 155.347 187.208 156.283 185.373 155.604C183.538 154.925 182.601 152.886 183.28 151.051C183.128 151.463 183.066 151.85 183.096 152.21C182.953 150.483 184.079 148.906 185.759 148.481C187.439 148.056 189.179 148.908 189.874 150.496C189.177 148.903 187.964 148.203 186.236 148.395L186.208 148.398C183.909 148.672 182.872 149.947 183.099 152.224L183.099 152.223C183.094 152.175 183.079 152.044 183.054 151.832L183.085 152.041C182.997 151.548 182.939 151.18 182.911 150.936C182.881 150.68 182.87 150.444 182.879 150.23L182.883 150.599L182.818 149.571C182.813 149.497 182.811 149.423 182.811 149.348C182.81 149.24 182.805 149.064 182.795 148.821L182.795 148.832L182.795 148.832L182.821 149.129C182.772 148.756 182.744 148.396 182.735 148.05L182.767 148.446L182.468 146.27L182.47 146.281C182.473 146.301 182.475 146.316 182.477 146.326L182.477 146.327C182.471 146.293 182.457 146.237 182.436 146.158L182.457 146.235C182.404 146.033 182.378 145.907 182.359 145.78C182.272 145.187 182.209 144.811 182.171 144.651L182.171 144.651C182.177 144.675 182.186 144.706 182.197 144.745C182.13 144.523 182.084 144.294 182.061 144.063L181.998 143.431C181.99 143.346 181.984 143.26 181.982 143.174C181.978 143.036 181.975 142.942 181.971 142.892L181.971 142.892C181.973 142.923 181.978 142.963 181.986 143.012C181.976 142.952 181.969 142.892 181.963 142.831C182.059 143.809 182.527 144.581 183.366 145.147C181.744 144.052 181.316 141.85 182.41 140.228C183.504 138.605 185.707 138.177 187.329 139.272Z" fill="black"/>
</g>
<defs>
<clipPath id="clip0_704_888">
<rect width="343" height="343" fill="white"/>
</clipPath>
</defs>
</svg>
