<svg width="134" height="134" viewBox="0 0 134 134" fill="none" xmlns="http://www.w3.org/2000/svg">
<g filter="url(#filter0_d_794_107)">
<g clip-path="url(#clip0_794_107)">
<path d="M76.8462 83.8865L76.8465 83.8866L76.8468 83.8865L76.8471 83.8865L76.8472 83.8866C76.8472 83.8866 76.8472 83.8866 76.8472 83.8866L76.8468 83.8865L76.8464 83.8865L76.846 83.8865L76.8457 83.8866L76.8458 83.8865C76.8458 83.8865 76.8458 83.8865 76.8458 83.8865C76.8458 83.8865 76.8459 83.8865 76.8459 83.8865L76.8462 83.8865Z" fill="white"/>
<path d="M76.8491 83.8867L76.8492 83.8869L76.8489 83.887C76.8486 83.887 76.8482 83.8869 76.8478 83.8869C76.8483 83.8868 76.8487 83.8868 76.8491 83.8867Z" fill="white"/>
<path d="M76.8549 83.8867L76.8546 83.8868L76.8544 83.8868L76.8541 83.887L76.8539 83.8868L76.8538 83.887L76.8535 83.8867L76.8549 83.8867Z" fill="white"/>
<path d="M76.8524 83.8867L76.8523 83.8867L76.8523 83.8869L76.8522 83.8868L76.8521 83.887C76.852 83.8869 76.8519 83.8868 76.8518 83.8868C76.8516 83.8868 76.8515 83.8868 76.8514 83.8868L76.8513 83.8869C76.8511 83.8868 76.8508 83.8868 76.8506 83.8868L76.8507 83.8869L76.8508 83.8868L76.8509 83.8869L76.851 83.8868L76.8511 83.8868C76.8513 83.8868 76.8516 83.8868 76.8518 83.8868C76.8518 83.8868 76.8518 83.8868 76.8518 83.8868L76.8524 83.8867Z" fill="white"/>
<path d="M76.8518 83.8867L76.8519 83.8872L76.8521 83.887L76.8516 83.8876L76.8518 83.8867Z" fill="white"/>
<path d="M112.745 81.5457L112.736 81.5457L92.2203 81.854C92.0551 82.0488 91.8809 82.1776 91.6976 82.2405L90.6703 82.4874C90.2736 82.5425 89.9428 82.5988 89.6779 82.6566C89.1892 82.7733 88.7707 82.8815 88.4224 82.981C87.7556 83.1631 87.2102 83.3427 86.786 83.5197L86.2246 83.7897C85.9296 84.0727 85.6115 84.3047 85.2705 84.4857C85.5367 84.9181 85.7722 85.1676 85.9772 85.2341C86.2187 85.3644 86.5029 85.4392 86.8297 85.4587L112.77 85.0687L113.005 85.0491C113.887 84.8521 114.381 84.2934 114.487 83.3731C114.429 82.8099 114.285 82.4031 114.054 82.1528C113.721 81.8433 113.494 81.6862 113.372 81.6814C113.186 81.6124 112.977 81.5671 112.745 81.5457Z" fill="white"/>
<path d="M69.0144 83.573L70.2041 83.7243L70.0282 83.7154C70.9715 83.6917 71.7166 83.6412 72.2818 83.6028C72.6035 83.5809 72.8973 83.5607 73.1238 83.555L73.126 83.555L73.1299 83.5549L73.1288 83.5549C73.8318 83.5378 74.4268 83.5347 74.9161 83.5321C75.2652 83.5303 75.5481 83.5287 75.7794 83.5231H75.7793C75.8306 83.5219 75.8822 83.5203 75.9264 83.5187C76.2342 83.5073 76.547 83.5237 76.8375 83.5943C77.2386 83.6917 78.0803 84.052 78.116 85.0402L78.116 85.0402C78.117 85.0689 78.1172 85.0973 78.1166 85.1254V85.1253C78.1087 85.5163 78.047 85.9328 77.8709 86.3247C77.777 86.5338 77.6518 86.7328 77.49 86.9118C77.4711 86.9327 77.4515 86.9529 77.4313 86.9724L73.7169 90.5385L73.7794 90.4738L71.1253 93.4389C71.1196 93.4452 71.1139 93.4515 71.1081 93.4577L70.2538 94.3719C69.8053 94.852 69.0584 94.872 68.5855 94.4167C68.1126 93.9614 68.0929 93.2031 68.5414 92.7231L69.3957 91.8088L69.3785 91.8276L72.0326 88.8625C72.0526 88.8401 72.0735 88.8185 72.0951 88.7978L75.8095 85.2316L75.7508 85.2922C75.732 85.3129 75.7242 85.329 75.7235 85.3306C75.7251 85.327 75.7532 85.2588 75.7569 85.0758V85.0757C75.7566 85.0926 75.7567 85.11 75.7573 85.1277L75.7573 85.1277C75.7821 85.8138 76.3771 85.946 76.2884 85.9245C76.2766 85.9216 76.1942 85.9063 76.0127 85.913C75.9575 85.9151 75.8947 85.917 75.8359 85.9184H75.8359C75.5774 85.9247 75.2701 85.9263 74.9284 85.9281C74.4392 85.9306 73.8637 85.9337 73.1853 85.9502L73.1841 85.9502L73.1801 85.9503L73.1823 85.9502C73.017 85.9544 72.7832 85.97 72.4394 85.9934C71.8705 86.032 71.0825 86.0856 70.0866 86.1106C70.0278 86.1121 69.969 86.1091 69.9107 86.1017L68.721 85.9504C68.0743 85.8682 67.6158 85.2693 67.6968 84.6128C67.7778 83.9563 68.3677 83.4908 69.0144 83.573Z" fill="white"/>
<path d="M69.3344 91.8037C69.0192 91.8037 68.7049 91.9311 68.4725 92.1831C68.4207 92.2393 68.3676 92.3022 68.3134 92.3716C68.3073 92.3793 68.3014 92.3871 68.2956 92.395C68.2123 92.5072 68.1534 92.5841 68.119 92.6257C68.1165 92.6287 68.1139 92.6319 68.1115 92.6349C68.0627 92.6951 68.0116 92.7543 67.9583 92.8125C67.5146 93.2972 67.5419 94.0552 68.0193 94.5056C68.2465 94.7201 68.5348 94.8261 68.8224 94.8261C69.1389 94.8261 69.4546 94.6976 69.6871 94.4437C69.77 94.3532 69.8498 94.2608 69.9264 94.1666C69.9842 94.0968 70.0631 93.9946 70.1631 93.8603H70.1627C70.177 93.842 70.188 93.8287 70.1957 93.8203C70.6411 93.3372 70.6164 92.5791 70.1405 92.127C69.9129 91.9108 69.6233 91.8037 69.3344 91.8037Z" fill="white"/>
<path d="M71.7277 87.4461C71.7533 87.4461 71.7797 87.4471 71.8069 87.4491L71.8066 87.4491C71.7796 87.4472 71.7524 87.4463 71.7248 87.4463C71.7179 87.4463 71.7109 87.4463 71.7039 87.4464C71.7118 87.4462 71.7197 87.4461 71.7277 87.4461ZM73.422 87.39C73.3355 87.4115 73.2502 87.4433 73.1677 87.4859L73.1673 87.4859C73.2549 87.4399 73.3397 87.408 73.4216 87.39L73.422 87.39ZM69.8424 87.5037C69.8655 87.5067 69.8897 87.5109 69.9151 87.5162L69.9147 87.5162C69.8906 87.5113 69.8664 87.5071 69.842 87.5037L69.8424 87.5037ZM73.1655 89.7462C73.1457 89.7488 73.1267 89.7508 73.1085 89.7522C73.115 89.7516 73.1215 89.751 73.1279 89.7504C73.1403 89.7492 73.1527 89.7478 73.165 89.7462L73.1655 89.7462ZM73.7007 87.356C73.637 87.356 73.5731 87.3612 73.5095 87.3718L73.3871 87.3697L73.2531 87.3617C73.2356 87.3606 73.218 87.36 73.2005 87.3597C73.1465 87.359 73.1021 87.3586 73.0675 87.3586C73.0517 87.3586 73.0379 87.3587 73.0262 87.3588L73.0264 87.3588C72.9837 87.3594 72.9431 87.3616 72.9046 87.3653L72.9038 87.3653C72.8473 87.3707 72.7837 87.3746 72.7132 87.3771C72.6845 87.3781 72.6558 87.3802 72.6472 87.3813L72.647 87.3813L72.6271 87.3833C72.5117 87.396 72.33 87.41 72.0819 87.4255H72.0816C71.8665 87.4377 71.7382 87.4447 71.6966 87.4466L71.6962 87.4466C71.6793 87.447 71.6608 87.4479 71.6408 87.4492C71.6121 87.451 71.547 87.4558 71.4454 87.4638L71.445 87.4638C71.2504 87.4734 71.1219 87.4809 71.0593 87.4862C71.0588 87.4862 71.0582 87.4863 71.0577 87.4863L71.0572 87.4863C71.042 87.4867 71.0198 87.487 70.9905 87.4873C70.9738 87.4875 70.9571 87.488 70.9404 87.4889L70.7605 87.4984L70.7138 87.4984C70.7131 87.4984 70.7124 87.4984 70.7117 87.4984C70.6721 87.4984 70.6325 87.5004 70.5926 87.5045H70.5922C70.5698 87.5064 70.5238 87.5093 70.4544 87.5134L70.454 87.5134C70.446 87.5134 70.4358 87.5134 70.4234 87.5134C70.4013 87.5134 70.3723 87.5134 70.3363 87.5132C70.3349 87.5132 70.3334 87.5132 70.332 87.5132C70.3231 87.5132 70.3142 87.5133 70.3053 87.5135L70.1941 87.5161C70.1702 87.5159 70.1393 87.5153 70.1012 87.5144C70.0922 87.5142 70.0832 87.5141 70.0743 87.5141C70.0688 87.5141 70.0634 87.5142 70.058 87.5142C70.037 87.5128 70.0159 87.5117 69.9945 87.5109L69.9941 87.5109C69.9631 87.5072 69.9313 87.5047 69.8896 87.5032L69.89 87.5032L69.8976 87.5034C69.86 87.5021 69.8319 87.5009 69.8134 87.4999L69.813 87.4999C69.786 87.4968 69.759 87.4947 69.7318 87.4935C69.7255 87.4932 69.7191 87.4929 69.7126 87.4927H69.7127C69.688 87.4918 69.6639 87.4913 69.6405 87.4913C69.5858 87.4913 69.5344 87.4938 69.4863 87.4987C68.8379 87.5653 68.3653 88.1529 68.4309 88.8111C68.4923 89.4284 69.0052 89.8887 69.6036 89.8887C69.6105 89.8887 69.6174 89.8887 69.6243 89.8885L69.6247 89.8885C69.6272 89.8887 69.6297 89.8889 69.6322 89.8891C69.6653 89.8914 69.7088 89.8937 69.7628 89.8959L69.7624 89.8959L69.7661 89.8964C69.8115 89.902 69.8571 89.905 69.9028 89.9052L69.9024 89.9052C69.943 89.9095 69.9838 89.9117 70.0247 89.9117C70.0371 89.9117 70.0495 89.9115 70.0619 89.9111L70.0798 89.9105L70.0802 89.9105C70.1263 89.9115 70.1655 89.912 70.1978 89.9122C70.1995 89.9122 70.2012 89.9122 70.2029 89.9122C70.2119 89.9122 70.221 89.9121 70.23 89.9119L70.3436 89.9092L70.344 89.9092C70.372 89.9093 70.3968 89.9094 70.4185 89.9094C70.4562 89.9094 70.4843 89.9092 70.5026 89.909H70.5024C70.5142 89.9088 70.5252 89.9085 70.5355 89.9082H70.5356C70.5446 89.9079 70.5533 89.9075 70.5622 89.907C70.6454 89.9022 70.7112 89.898 70.7594 89.8944L70.7599 89.8944L70.7882 89.8945C70.7889 89.8945 70.7896 89.8945 70.7903 89.8945C70.8109 89.8945 70.8315 89.8939 70.852 89.8928L71.0394 89.8829L71.039 89.8829C71.093 89.8822 71.1365 89.8812 71.1695 89.8798L71.1697 89.8798C71.185 89.8791 71.1995 89.8784 71.2132 89.8775H71.2132C71.2285 89.8765 71.2438 89.8752 71.259 89.8736L71.2586 89.8736C71.2982 89.8704 71.4023 89.8647 71.571 89.8563L71.5708 89.8563L71.577 89.856C71.5881 89.8555 71.5991 89.8548 71.6102 89.8539C71.6942 89.8474 71.7496 89.8431 71.7765 89.8412L71.7761 89.8412C71.7783 89.8412 71.7806 89.8411 71.7828 89.841C71.8285 89.8391 71.9743 89.8313 72.2201 89.8173L72.2267 89.8169C72.4848 89.8008 72.6883 89.7852 72.8371 89.77L72.8367 89.77C72.9224 89.7664 73.0043 89.7613 73.0824 89.7546L73.0828 89.7546C73.0978 89.7546 73.1176 89.7548 73.1421 89.7551H73.1417L73.2732 89.763C73.2893 89.7639 73.3055 89.7646 73.3217 89.7648L73.5385 89.7687C73.5454 89.7688 73.5521 89.7689 73.559 89.7689C73.5594 89.7689 73.5599 89.7689 73.5604 89.7689C73.5779 89.7688 73.5949 89.7687 73.6112 89.7683L73.6111 89.7683C73.8696 89.7628 74.0936 89.7056 74.2831 89.5967C74.8503 89.2707 75.0498 88.5398 74.7288 87.964C74.5116 87.5746 74.1121 87.356 73.7007 87.356Z" fill="white"/>
<path d="M18.3835 55.5232L18.3843 55.5232L18.3735 55.5228L18.3727 55.5228C18.2429 55.5183 18.1442 55.5151 18.0513 55.5151C18.2897 55.5151 17.0417 54.3175 16.6878 60.9705C16.3134 68.006 17.0609 82.2397 17.8206 96.653L17.817 96.5994C18.1128 100.115 18.4262 102.288 19.5939 103.168C20.2512 103.663 21.4568 103.929 23.3494 103.929C24.6158 103.929 26.0069 103.815 27.4831 103.694C27.502 103.692 27.5209 103.691 27.5398 103.69L61.774 102.061C61.7932 102.06 61.8123 102.059 61.8315 102.059L61.8309 102.059L61.8471 102.059L61.8477 102.059C64.4267 102.027 65.6702 101.873 66.1634 101.28C66.7596 100.563 66.8337 98.7848 66.7857 95.8374C66.7853 95.8105 66.7855 95.7835 66.7863 95.7566L67.8511 61.2613L67.8513 61.2546C67.9697 57.8498 67.9496 55.5833 67.1857 54.5971C66.5333 53.7547 64.9542 53.5546 62.0369 53.4347L62.1493 53.4354L35.9872 54.153L36.0365 54.1509L23.0249 54.8997C22.1065 54.9525 21.3198 54.2396 21.2678 53.3073C21.2157 52.375 21.918 51.5763 22.8364 51.5235L35.848 50.7747C35.8644 50.7738 35.8808 50.7731 35.8973 50.7726L62.0593 50.0551C62.0967 50.054 62.1342 50.0543 62.1717 50.0558C64.4099 50.1478 67.9862 50.1595 69.8044 52.5069C71.511 54.7104 71.2765 58.6113 71.1804 61.3739L71.1806 61.3672L70.1158 95.8625L70.1164 95.7816C70.1536 98.0717 70.3128 101.531 68.7094 103.461C67.0082 105.508 63.7835 105.417 61.8887 105.44L61.8893 105.44L61.8731 105.44L61.93 105.439L27.6958 107.068L27.7526 107.064C26.3071 107.183 24.7763 107.311 23.3494 107.311C21.3843 107.311 19.2007 107.083 17.6085 105.883C14.956 103.884 14.7358 99.7145 14.4979 96.8872C14.4964 96.8694 14.4952 96.8515 14.4942 96.8337C13.7406 82.5346 12.9748 68.0558 13.3615 60.7881C13.7033 54.363 15.0527 52.1335 18.0513 52.1335C18.2097 52.1335 18.364 52.1389 18.487 52.1432L18.4861 52.1432L18.4969 52.1435C19.417 52.1756 20.1367 52.9581 20.1052 53.8913C20.0736 54.8246 19.3028 55.5552 18.3835 55.5232Z" fill="white"/>
<path d="M77.334 77.2366L76.8643 77.238C75.129 77.2482 72.9069 77.2813 70.1983 77.3371C70.0865 77.3365 69.9014 77.3846 69.6429 77.4816C68.8572 77.8912 68.5469 78.5649 68.7119 79.5028C68.7443 79.7259 68.9535 80.023 69.3396 80.3942C69.6935 80.6246 70.0079 80.7325 70.2828 80.718C74.1733 80.6442 76.3622 80.6115 76.8494 80.6196C76.7692 80.1109 76.7664 79.5826 76.8409 79.0346C76.8596 78.9287 76.9337 78.6518 77.0632 78.204C77.0872 78.0179 77.1168 77.8631 77.1518 77.7394C77.1848 77.6137 77.2455 77.4461 77.334 77.2366Z" fill="white"/>
<path d="M90.692 81.9971L90.4941 82.0309C88.9792 82.3212 88.1051 82.5391 87.872 82.6847C86.8083 83.3379 85.8686 83.9646 85.0527 84.5648L83.3865 85.4027L82.6206 85.9782L67.3897 99.8788C66.7898 100.544 66.6672 101.211 67.0219 101.88C67.1541 102.195 67.3298 102.411 67.5489 102.528C67.9847 102.733 68.3919 102.82 68.7707 102.789C68.9898 102.744 69.2167 102.656 69.4513 102.527L89.5326 84.2133C90.2043 83.3497 90.5908 82.611 90.692 81.9971Z" fill="white"/>
<path d="M41.4725 70.2762C41.6604 70.8849 41.6633 71.672 41.4811 72.6375L41.483 72.627C41.1276 74.595 40.7362 75.9551 40.3089 76.7074L40.3099 76.7056C39.3123 78.4684 37.8198 79.7619 35.8325 80.5861L35.938 78.1217L38.299 79.3533C38.3326 79.3708 38.3654 79.3898 38.3973 79.4101C38.8793 79.7163 39.4212 80.2552 40.0229 81.0268C40.035 81.0423 40.0468 81.0581 40.0582 81.0741C41.817 83.5437 42.8009 85.7983 43.0101 87.8378L42.4187 86.8467C41.7104 86.3701 41.126 86.4844 40.6655 87.1897C40.6167 87.2645 40.5838 87.3297 40.5669 87.3854L40.5669 87.3853C40.5671 87.3849 40.5672 87.3843 40.5675 87.3835L40.5392 87.5029C40.6996 86.659 40.9782 85.6446 41.3749 84.4596C41.3787 84.4483 41.3826 84.437 41.3867 84.4258C41.9425 82.8991 42.356 81.9271 42.6271 81.5099C42.8206 81.2121 43.0514 81.0014 43.3197 80.8779L42.7176 81.4292C43.4216 80.2063 44.5374 79.1105 46.0649 78.1419L46.8845 80.6464C46.75 80.6578 46.6109 80.6567 46.467 80.6433C45.7463 80.5761 44.7677 80.1407 43.5312 79.337L43.5547 79.3519C42.8999 78.9455 42.2234 78.3125 41.5254 77.4529C41.5236 77.4508 41.522 77.4488 41.5203 77.4466C41.1024 76.9257 40.6358 76.0943 40.1205 74.9524C40.0844 74.8724 40.056 74.789 40.0358 74.7033L39.2755 71.4827C39.1033 70.7535 39.5461 70.0207 40.2644 69.8459C40.9827 69.6712 41.7045 70.1207 41.8767 70.8498L42.637 74.0705L42.5523 73.8215C42.9728 74.7534 43.3202 75.3902 43.5944 75.732L43.5893 75.7257C44.097 76.3508 44.5505 76.7873 44.95 77.0353C44.9579 77.0402 44.9657 77.0451 44.9735 77.0502C45.8441 77.6161 46.4235 77.9125 46.7115 77.9393C46.6999 77.9383 46.6835 77.9386 46.6623 77.9404C47.2776 77.8883 47.848 78.2706 48.0426 78.8653C48.2373 79.4601 48.0056 80.1128 47.482 80.4449C46.3274 81.177 45.5091 81.9618 45.027 82.7993C44.8873 83.0419 44.677 83.2345 44.4249 83.3506C44.6251 83.2584 44.7702 83.1431 44.8599 83.005C44.7018 83.2483 44.3804 84.0357 43.8957 85.3671L43.9075 85.3333C43.5501 86.4008 43.3028 87.2955 43.1656 88.0174C43.1579 88.0576 43.1485 88.0975 43.1373 88.1368C43.1328 88.1528 43.1281 88.1685 43.1234 88.184L43.1235 88.1839C43.0646 88.3781 42.9885 88.5468 42.895 88.6899C42.3703 89.4935 41.7189 89.6335 40.9409 89.11C40.6079 88.8859 40.391 88.5224 40.3496 88.1189C40.1898 86.5605 39.3701 84.7426 37.8905 82.6651L37.9258 82.7124C37.5151 82.1857 37.1992 81.8522 36.9782 81.7117L37.0765 81.7685L34.7154 80.5368C34.2509 80.2945 33.9679 79.8 33.9905 79.2703C34.0132 78.7407 34.3374 78.2729 34.8209 78.0724C36.2414 77.4833 37.298 76.5767 37.9906 75.3529L37.9917 75.3511C38.2653 74.8693 38.5521 73.7981 38.852 72.1373C38.8527 72.1337 38.8533 72.1302 38.854 72.1267C38.9518 71.6085 38.9738 71.2624 38.9201 71.0883C38.6992 70.3728 39.0915 69.611 39.7963 69.3867C40.5011 69.1625 41.2516 69.5607 41.4725 70.2762Z" fill="white"/>
<path d="M39.2943 72.9234L39.2943 72.9236C39.2945 72.9227 39.2946 72.9221 39.2948 72.9216L39.2948 72.9215C39.276 73.0064 39.2706 73.1071 39.2787 73.2234L39.2783 73.2172L39.2616 72.959C39.2593 72.9239 39.2584 72.8888 39.2588 72.8537L39.2614 72.628C39.262 72.585 39.2645 72.5421 39.269 72.4994L39.3134 72.0789L39.306 72.1979L39.3089 72.0425L39.3097 72.1218L39.3047 71.9921L39.3143 72.1095L39.2967 71.9691L40.4524 73.1446C39.6896 73.0447 39.3006 72.5974 39.2852 71.8026C39.2849 71.7832 39.2846 71.7586 39.2845 71.7286L39.2881 71.8233L39.2795 71.7051C39.2759 71.6558 39.2749 71.6064 39.2766 71.557C39.279 71.4854 39.282 71.4255 39.2855 71.3772C39.2898 71.3178 39.2959 71.2636 39.3037 71.2145L39.3043 71.2111L39.3461 70.9529L39.3368 71.021C39.3357 71.0309 39.335 71.0389 39.3345 71.0449C39.336 71.0246 39.3378 70.9825 39.34 70.9186L39.4282 71.4527C39.4125 71.4112 39.4007 71.3823 39.3929 71.366C39.697 71.9966 40.2137 72.1696 40.9429 71.8851L40.9429 71.885C41.3369 71.7313 41.591 71.459 41.7054 71.068L41.7466 70.4842C41.7646 70.6089 41.7685 70.7447 41.7582 70.8918L41.7602 70.7347C41.7587 70.7013 41.7564 70.6736 41.7533 70.6515L41.7532 70.6509C41.7531 70.6502 41.753 70.6496 41.753 70.649L41.7381 70.5644C41.7903 70.8151 41.8242 71.0095 41.8396 71.1476C41.8433 71.1804 41.8463 71.212 41.8484 71.2422L41.8431 71.185C41.845 71.2018 41.8468 71.2193 41.8485 71.2376C41.8564 71.3236 41.8633 71.4498 41.8691 71.6163L41.868 71.592C41.8697 71.6242 41.8707 71.6582 41.871 71.6941C41.8717 71.7783 41.8684 71.8847 41.8611 72.0132C41.8609 72.0182 41.8606 72.0231 41.8602 72.028L41.807 72.8153L41.8074 72.8094C41.8018 72.8969 41.7987 72.9529 41.798 72.9775C41.798 72.9774 41.798 72.9774 41.798 72.9775C41.7975 72.9987 41.7964 73.0198 41.7949 73.0409L41.7949 73.0411C41.7961 73.0247 41.7968 73.0109 41.7971 72.9996C41.7962 73.0339 41.7956 73.1331 41.7955 73.2971C41.7955 73.3153 41.7951 73.3336 41.7944 73.3518C41.7914 73.426 41.7892 73.5157 41.788 73.6209L41.788 73.616L41.7842 74.067L41.7838 74.0195C41.7953 74.4624 41.803 74.7172 41.8069 74.7839L41.8069 74.784C41.8064 74.7757 41.8056 74.7653 41.8044 74.7528C41.8057 74.7667 41.8068 74.7806 41.8077 74.7946L41.8387 75.2794L41.8334 75.2175L41.8334 75.2177L41.8347 75.23C41.8641 75.5237 41.8816 75.7206 41.887 75.8209L41.8809 75.7458C41.883 75.7648 41.8849 75.7857 41.8866 75.8086C41.8915 75.8751 41.9017 76.0592 41.9171 76.3609L41.9159 76.3401L41.916 76.3407L41.9159 76.3399C41.924 76.4602 41.9298 76.7037 41.9334 77.0704C41.9335 77.0812 41.9335 77.0919 41.9333 77.1026C41.927 77.5631 41.9132 78.0368 41.8919 78.5235L41.8919 78.5214C41.889 78.5907 41.8824 78.6854 41.872 78.8054C41.8705 78.8226 41.8687 78.8398 41.8666 78.857C41.8472 79.0134 41.8249 79.2317 41.7998 79.5119C41.7328 80.2586 41.0822 80.8089 40.3467 80.7409C39.6111 80.673 39.069 80.0125 39.1359 79.2658C39.1639 78.9542 39.1895 78.7047 39.2128 78.5172L39.2074 78.5687C39.2143 78.4886 39.2183 78.4339 39.2196 78.4046L39.2197 78.4025C39.2398 77.9436 39.2528 77.4978 39.2587 77.0652L39.2587 77.0974C39.2556 76.7831 39.2518 76.5919 39.2472 76.5239L39.2472 76.523L39.2471 76.5224C39.2467 76.5165 39.2463 76.5091 39.2459 76.5017C39.2316 76.2214 39.2227 76.0587 39.2194 76.0137C39.22 76.0222 39.221 76.0327 39.2224 76.0451C39.2196 76.0201 39.2176 75.9951 39.2162 75.97C39.2131 75.9118 39.1989 75.7569 39.1736 75.5052L39.1749 75.5175L39.1749 75.5174C39.1719 75.4885 39.1706 75.472 39.1695 75.4555L39.1385 74.9707L39.1418 75.0125C39.1398 74.9912 39.1381 74.9678 39.1366 74.9423L39.1366 74.9424C39.1311 74.8467 39.1222 74.563 39.1099 74.0912C39.1095 74.0754 39.1094 74.0596 39.1095 74.0438L39.1133 73.5928L39.1133 73.5878C39.1149 73.4565 39.1177 73.3407 39.1218 73.2404L39.1207 73.2951C39.1208 73.1064 39.1217 72.9824 39.1233 72.9233C39.1242 72.8935 39.1255 72.8663 39.1273 72.8416L39.1241 72.9052C39.1242 72.9029 39.1243 72.9004 39.1243 72.8978C39.126 72.8417 39.1305 72.7542 39.1381 72.6353L39.1384 72.6294L39.1917 71.8421L39.1907 71.857C39.1946 71.7883 39.1965 71.7418 39.1963 71.7174C39.1963 71.7221 39.1966 71.7286 39.197 71.737C39.1966 71.7289 39.1962 71.7208 39.1959 71.7127C39.1919 71.5982 39.1883 71.5238 39.1852 71.4895C39.1854 71.4913 39.1856 71.4939 39.186 71.4972C39.1838 71.4782 39.1821 71.4591 39.1807 71.44C39.1811 71.4462 39.1816 71.451 39.1819 71.4544C39.1761 71.4021 39.1558 71.2928 39.1211 71.1264C39.1153 71.0984 39.1103 71.0702 39.1062 71.0418C39.1061 71.0407 39.1059 71.0394 39.1057 71.0381L39.1056 71.0375C39.0963 70.9718 39.0905 70.9113 39.088 70.856C39.0857 70.8037 39.0864 70.7512 39.0901 70.6989C39.0866 70.7484 39.09 70.8083 39.1001 70.8786C39.0719 70.6833 39.0859 70.4841 39.1413 70.2948C39.2769 69.8314 39.5575 69.5166 39.9832 69.3505L39.9833 69.3504C40.7776 69.0406 41.3815 69.3143 41.7951 70.1718C41.8377 70.26 41.881 70.3622 41.925 70.4786C41.9895 70.6488 42.0195 70.8305 42.0132 71.0128C42.0098 71.1122 42.0061 71.1897 42.0021 71.2454C42 71.2742 41.9975 71.3011 41.9948 71.3259C41.9922 71.3487 41.9891 71.3714 41.9854 71.394L41.9436 71.6523L41.9441 71.6488C41.9487 71.62 41.9517 71.596 41.9531 71.5767C41.9521 71.5899 41.951 71.6147 41.9498 71.6512L41.9469 71.5032L41.9556 71.6214C41.9579 71.6529 41.9591 71.6844 41.9593 71.716C41.9593 71.7325 41.9594 71.7436 41.9595 71.7494C41.9448 70.984 41.5565 70.5514 40.7947 70.4516C41.3975 70.5297 41.8735 71.0132 41.9503 71.6272L41.9678 71.7676C41.9727 71.8065 41.9759 71.8457 41.9775 71.885L41.9825 72.0148C41.9835 72.0412 41.9838 72.0676 41.9833 72.094L41.9804 72.2494C41.9796 72.2892 41.9772 72.3289 41.973 72.3685L41.9286 72.7891L41.9361 72.6605L41.9334 72.8862L41.9306 72.7809L41.9474 73.039L41.9469 73.0327C41.9572 73.1811 41.9431 73.3422 41.9047 73.5162L41.9047 73.5161C41.9024 73.5265 41.9 73.5372 41.8974 73.5481C41.7275 74.2779 41.007 74.7296 40.2881 74.5571C39.5693 74.3846 39.1244 73.6531 39.2943 72.9234Z" fill="white"/>
<path d="M37.7886 78.9209C37.8488 79.0371 37.9227 79.1415 38.0072 79.2331L38.0071 79.2332C38.0089 79.2466 38.0108 79.2602 38.0127 79.2738C37.9324 79.1742 37.8576 79.0566 37.7885 78.9209H37.7886ZM42.4264 76.5649C41.9402 76.5649 41.5066 76.7781 41.1258 77.2043C41.011 77.3327 40.9202 77.4813 40.8578 77.6427C40.8285 77.7187 40.8018 77.7945 40.7777 77.8701C40.7465 77.8424 40.715 77.8158 40.6833 77.79C40.5377 77.6719 40.3868 77.5736 40.2307 77.495L40.2306 77.4951C39.9362 76.9662 39.5539 76.7018 39.0839 76.7018C38.8247 76.7018 38.5388 76.7822 38.2262 76.943C38.1335 76.9906 38.0426 77.048 37.9535 77.1151C37.8925 77.161 37.8353 77.2118 37.7824 77.267C37.4024 77.6636 37.2289 78.1267 37.2617 78.6562L37.2617 78.6563C37.2587 79.3193 37.4553 79.9667 37.8515 80.5984C37.8792 80.6426 37.9092 80.6852 37.9415 80.726C38.242 81.1058 38.5303 81.4264 38.8066 81.688L38.8065 81.6881C38.9893 82.1465 39.291 82.605 39.7116 83.0636C39.7224 83.0753 39.7334 83.0868 39.7445 83.0982C39.9653 83.3233 40.1884 83.5052 40.4137 83.6441C40.4497 83.6662 40.4856 83.6874 40.5215 83.7076L40.5213 83.7076C40.7824 83.9012 41.0533 84.053 41.3342 84.163C41.4771 84.219 41.6281 84.2509 41.7812 84.2575C41.8228 84.2593 41.8636 84.2602 41.9036 84.2602C42.8253 84.2602 43.3154 83.7833 43.374 82.8294L43.3739 82.8294C43.4988 82.5799 43.612 82.2618 43.7134 81.8754L43.7132 81.8754C43.748 81.8617 43.783 81.847 43.8181 81.8314C43.9179 81.787 44.0123 81.7311 44.0994 81.6646C44.4184 81.4213 44.664 81.096 44.8363 80.6888C44.903 80.5311 44.9581 80.3616 45.0017 80.1802C45.0142 80.1281 45.0238 80.0754 45.0305 80.0222C45.1278 79.2465 44.9019 78.662 44.3526 78.2687L44.3525 78.2687C44.2514 78.1844 44.1432 78.1012 44.0279 78.0191L44.0277 78.0192C44.0264 78.013 44.0251 78.0069 44.0238 78.0009C43.8182 77.0646 43.2997 76.5862 42.4683 76.5655L42.4683 76.5655C42.4543 76.5651 42.4403 76.5649 42.4264 76.5649Z" fill="white"/>
<path d="M114.029 38.7478C113.987 38.7478 113.945 38.749 113.902 38.7514L113.902 38.7514C113.062 38.7904 112.182 39.3065 111.262 40.2999L111.261 40.2999C110.584 40.9634 109.925 41.8804 109.284 43.051L109.283 43.051C108.724 43.9395 108.4 44.9309 108.311 46.025C108.301 46.1501 108.322 46.2757 108.373 46.3902C108.426 46.51 108.5 46.6091 108.595 46.6876L108.596 46.6878C108.768 46.8297 108.933 46.9006 109.091 46.9006C109.285 46.9006 109.468 46.7935 109.641 46.5794C109.788 46.3974 110.1 46.1413 110.577 45.8111L110.577 45.8111L111.851 44.9656L114.288 43.7796C114.303 43.7722 114.318 43.7642 114.333 43.7556C114.991 43.376 115.446 43.0653 115.698 42.8234L115.697 42.8234C116.654 42.0069 116.885 41.0003 116.391 39.8037C116.345 39.6923 116.273 39.5939 116.181 39.5171C115.651 39.0743 115.1 38.8397 114.528 38.8133L114.527 38.8134C114.372 38.7697 114.206 38.7478 114.029 38.7478Z" fill="white"/>
<path d="M113.984 48.3642C115.124 48.3375 116.039 48.4322 116.728 48.6485C116.732 48.6496 116.735 48.6508 116.739 48.652C117.393 48.8686 117.9 49.0756 118.261 49.273L118.24 49.262C118.964 49.6282 119.519 49.9556 119.905 50.2445L119.804 50.181C120.372 50.4753 120.704 50.6415 120.801 50.6795C120.758 50.6628 120.707 50.6516 120.648 50.6457C120.712 50.6521 120.776 50.6673 120.837 50.6909C121.171 50.82 121.394 50.8767 121.506 50.8609C121.497 50.862 121.486 50.8654 121.472 50.8709C121.491 50.8634 121.511 50.8568 121.53 50.8509C121.575 50.8374 121.605 50.8247 121.619 50.8126C121.61 50.8202 121.604 50.8296 121.6 50.841C121.617 50.7857 121.603 50.6787 121.557 50.52C121.527 50.4172 121.484 50.3033 121.428 50.1782L121.444 50.2107C121.189 49.7039 120.639 49.3108 119.794 49.0314L119.819 49.0392C119.23 48.8679 118.389 48.8181 117.294 48.8898L117.33 48.8865C116.834 48.9443 116.473 49.006 116.248 49.0716C116.243 49.073 116.239 49.0743 116.234 49.0755C115.839 49.1821 115.285 49.393 114.572 49.7084C114.202 49.8723 113.77 49.7001 113.609 49.3239C113.447 48.9477 113.617 48.5099 113.988 48.346C114.768 48.0007 115.392 47.7652 115.858 47.6394L115.844 47.6433C116.147 47.555 116.587 47.4773 117.163 47.4101C117.175 47.4087 117.187 47.4076 117.2 47.4068C118.463 47.3242 119.471 47.3921 120.222 47.6107C120.231 47.6131 120.239 47.6157 120.247 47.6184C121.475 48.0246 122.309 48.6633 122.747 49.5344C122.753 49.5451 122.758 49.5559 122.763 49.5669C122.846 49.7535 122.912 49.9307 122.96 50.0984C123.092 50.5485 123.103 50.9459 122.995 51.2908C122.911 51.5601 122.761 51.7841 122.546 51.963C122.379 52.1014 122.179 52.2058 121.945 52.2759L122.003 52.256C121.91 52.2924 121.812 52.3179 121.707 52.3327C121.348 52.3835 120.884 52.2991 120.316 52.0795L120.506 52.1247C120.432 52.1174 120.354 52.0976 120.272 52.0652C120.128 52.0088 119.751 51.8218 119.138 51.5043C119.103 51.486 119.069 51.4648 119.037 51.4409C118.719 51.2029 118.236 50.9199 117.588 50.592C117.581 50.5885 117.574 50.5848 117.567 50.5811C117.283 50.4259 116.856 50.2537 116.285 50.0647L116.296 50.0682C115.759 49.8996 114.999 49.8268 114.017 49.8498C113.613 49.8593 113.278 49.5345 113.269 49.1242C113.259 48.714 113.579 48.3737 113.984 48.3642Z" fill="white"/>
<path d="M117.665 47.821C117.32 47.821 117.012 48.0701 116.946 48.4271C116.877 48.8004 117.096 49.1608 117.444 49.2724L117.443 49.2725C117.48 49.3187 117.523 49.364 117.571 49.4082C117.614 49.447 117.666 49.4903 117.729 49.5378L117.729 49.5379C118.434 50.0845 119.105 50.5277 119.741 50.8674L119.741 50.8675C119.787 50.9056 119.835 50.9443 119.884 50.9839L119.884 50.9839C120.222 51.2575 120.547 51.4483 120.858 51.5565L120.858 51.5565C120.895 51.5698 120.932 51.5814 120.968 51.5914C121.104 51.6287 121.231 51.6474 121.348 51.6474C121.676 51.6474 121.932 51.5026 122.117 51.213L122.116 51.2131C122.342 50.9681 122.373 50.6505 122.208 50.2602C122.15 50.123 122.054 49.9591 121.921 49.7682C121.906 49.7468 121.89 49.7262 121.873 49.7065C121.372 49.1283 120.836 48.7756 120.266 48.6482L120.265 48.6483C120.019 48.5095 119.811 48.4179 119.641 48.3733C119.539 48.3465 119.44 48.3332 119.346 48.3332C119.318 48.3332 119.291 48.3344 119.263 48.3368L119.262 48.3368C119.158 48.3424 119.063 48.3561 118.978 48.378C118.809 48.2827 118.671 48.211 118.565 48.163L118.565 48.1631C118.294 47.9971 118.055 47.8906 117.848 47.8438C117.832 47.8402 117.816 47.8369 117.801 47.8339C117.755 47.8252 117.71 47.821 117.665 47.821Z" fill="white"/>
<path d="M80.5944 59.8877L80.5401 59.8882C79.9598 59.8912 79.4513 59.9789 79.0146 60.1513C78.788 60.2374 78.5711 60.3444 78.3639 60.4725C78.2482 60.5102 77.9592 60.7496 77.497 61.1906C77.1443 61.56 76.8701 62.002 76.6744 62.5165C76.7846 62.8625 76.6978 63.4016 76.4141 64.1341C76.499 65.0619 76.7546 65.8074 77.1808 66.3707C77.9429 65.9053 78.6109 65.9008 79.1849 66.3571C79.4792 66.596 79.7431 66.9056 79.9763 67.2859C80.3425 68.0926 80.6089 68.7487 80.7756 69.2541C80.8749 69.5807 80.879 69.8877 80.7879 70.1749C80.6859 70.4578 80.4996 70.6747 80.229 70.8256L80.3298 71.0434C79.9371 71.5904 79.6892 72.1883 79.5862 72.8371C79.5101 73.555 79.5534 74.1673 79.7161 74.6741L80.7744 73.9372C80.846 73.8896 80.9219 73.8504 81.002 73.8196L85.5958 72.1692C87.4657 71.7175 88.5151 71.4023 88.7438 71.2237C88.4491 69.7395 88.0615 68.5115 87.5809 67.5396C86.4813 65.3067 85.5977 63.7697 84.93 62.9286C84.112 61.8336 83.4312 61.1045 82.8879 60.7412C82.7348 60.5705 82.276 60.3315 81.5115 60.0242C81.2058 59.9332 80.9001 59.8877 80.5944 59.8877Z" fill="white"/>
<path d="M88.4665 73.8687L88.2736 73.9265C87.5938 74.122 86.9357 74.2955 86.2993 74.447L82.5075 75.8093C82.4514 75.8612 82.3743 75.9001 82.2763 75.9261C82.1641 76.0068 82.0432 76.0827 81.9134 76.1538L81.3018 76.463L81.0371 76.6474C81.296 76.8521 81.5258 77.0015 81.7265 77.0955C82.1657 77.3013 82.5538 77.4349 82.8908 77.4965C83.1526 77.5499 83.4236 77.5673 83.7036 77.5487L84.2627 77.4639L84.7421 77.347C85.66 77.072 86.435 76.6177 87.0669 75.984C87.6777 75.3851 88.1442 74.6799 88.4665 73.8687Z" fill="white"/>
<path d="M74.3233 78.8127L74.3233 78.8128C74.3229 78.8133 74.3204 78.814 74.3161 78.8151C74.3118 78.8162 74.307 78.8174 74.3017 78.8185C74.2892 78.8213 74.2768 78.8238 74.2646 78.8261C74.2716 78.8243 74.277 78.8229 74.2808 78.822L74.2912 78.8194L74.2934 78.8189L74.3014 78.817C74.3069 78.8158 74.3113 78.8148 74.3148 78.8141C74.3187 78.8133 74.3208 78.813 74.321 78.813L74.3223 78.8128L74.3233 78.8127Z" fill="white"/>
<path d="M91.5973 72.4692L91.4698 72.4727C91.1239 72.491 90.7295 72.5824 90.2866 72.747C90.2761 72.9016 90.1082 73.1059 89.7827 73.3596C89.5731 73.4962 89.3033 73.6114 88.9733 73.7051C88.4588 74.2385 88.1236 74.7945 87.9675 75.3733C87.5035 75.3914 87.0323 75.3191 86.5538 75.1564L86.5261 74.3917L86.2997 74.4469L82.508 75.8092L81.9139 76.1537L81.3428 76.4424L79.9793 77.4096C79.6077 77.7587 79.3349 78.5439 79.1611 79.7653L81.3706 81.6502C81.4958 81.7534 81.6806 81.8767 81.9252 82.0202C82.031 82.021 82.3442 81.9487 82.865 81.8033C83.295 81.5974 84.8132 81.0512 87.4198 80.1649C87.7951 80.0527 88.501 79.9077 89.5376 79.7299C91.4441 79.3858 93.168 79.454 94.7093 79.9346C95.1251 79.2311 95.4672 78.4205 95.7355 77.5027C95.8694 76.5698 95.8213 75.7826 95.5912 75.141C95.4349 74.7506 95.2501 74.403 95.0366 74.0982L94.6949 73.6732C94.4527 73.4112 94.182 73.192 93.8825 73.0156C93.332 72.6635 92.5703 72.4813 91.5973 72.4692Z" fill="white"/>
<path d="M91.9923 81.9032L91.9768 81.9032C91.6398 81.9013 91.286 81.9206 90.9154 81.9612C90.8553 81.9878 90.792 82.0091 90.7255 82.0252C89.9439 82.1898 89.4881 82.2908 89.3582 82.3282C89.1061 82.3913 88.9354 82.4421 88.8463 82.4806L87.6158 82.9798L87.4539 83.0687C87.2694 83.2079 87.0673 83.3542 86.8477 83.5075C87.0793 83.5316 87.402 83.5471 87.8157 83.5541L88.3869 83.5372L88.9473 83.4863L89.4968 83.4015L90.0354 83.2828L90.5631 83.1302L91.08 82.9437C91.3383 82.8437 91.7051 82.6673 92.1803 82.4142C92.4418 82.268 92.6778 82.1179 92.8883 81.9638C92.7655 81.948 92.5868 81.9318 92.3519 81.9151C92.2217 81.9072 92.1019 81.9032 91.9923 81.9032Z" fill="white"/>
<path d="M87.7281 82.8022L87.7108 82.825C87.6756 82.87 87.6374 82.9122 87.5962 82.9517C87.5511 82.9938 87.511 83.0275 87.4756 83.0527C87.4966 83.0382 87.5171 83.0228 87.5371 83.0065L87.5667 82.9814C87.5862 82.9642 87.6052 82.9461 87.6237 82.9271C87.6422 82.9081 87.6602 82.8882 87.6777 82.8674L87.7036 82.8355L87.7287 82.8022L87.7281 82.8022Z" fill="white"/>
<path d="M82.2389 68.1624L82.25 68.1753C82.3339 68.2728 82.3961 68.352 82.4366 68.4127C82.4671 68.4591 82.4862 68.4906 82.4937 68.5074C82.5016 68.5301 82.4942 68.5279 82.4714 68.5008C82.4536 68.4795 82.4317 68.4502 82.406 68.4129L82.2384 68.1625L82.2389 68.1624ZM78.2499 66.0189L78.2642 66.019C78.5473 66.0324 78.8042 66.1091 79.0349 66.2491C79.3933 66.5226 79.6207 66.7412 79.717 66.9051C79.9222 67.1706 80.0655 67.4237 80.1468 67.6644C80.4004 68.2129 80.6237 68.7991 80.8167 69.423C80.9093 69.8181 80.8459 70.1699 80.6265 70.4785C80.6131 70.5182 80.5361 70.5999 80.3955 70.7236C80.335 70.7687 80.2684 70.8076 80.1956 70.8402C80.0508 70.9055 79.88 70.9458 79.6831 70.9611C79.601 70.9611 79.522 70.9536 79.446 70.9386C79.2613 70.888 79.1542 70.8486 79.1245 70.8205C78.9907 70.7455 78.869 70.6406 78.7595 70.5056C78.6876 70.405 78.639 70.3249 78.6135 70.2653C78.4758 69.7718 78.3212 69.3437 78.1499 68.9812L77.6543 69.9288L77.2649 70.5026C77.0972 70.6836 76.9319 70.7987 76.7691 70.8477C76.4779 70.9577 76.1681 70.938 75.8397 70.7886C75.4857 70.5473 75.2822 70.2973 75.2291 70.0386C75.1771 69.8359 75.1875 69.5971 75.2603 69.322L75.3362 69.1582L75.6686 68.6533C75.8868 68.207 76.0704 67.8565 76.2195 67.6016C76.3847 67.3096 76.5409 67.0589 76.6883 66.8494C77.1427 66.29 77.6633 66.0131 78.2499 66.0189ZM73.9974 57.7122L73.8659 57.7932C73.5937 57.9501 73.1976 58.4005 72.6778 59.1443C73.1061 59.0089 73.5943 59.0198 74.1422 59.177C74.6119 59.3035 75.1467 59.6815 75.7468 60.3109C76.6023 61.5169 76.8873 62.6532 76.6019 63.72C76.2264 64.5124 75.7469 65.0434 75.1636 65.3131C74.904 65.4435 74.298 65.5575 73.3456 65.6552C72.7301 65.5246 72.144 65.2132 71.5875 64.7211L70.4697 63.262C70.3748 63.1133 70.3183 62.898 70.3002 62.6161C70.2994 62.5906 70.1885 62.7068 69.9676 62.9648C69.4602 63.6041 69.0928 64.3388 68.8654 65.169C68.669 66.2662 68.6636 67.3384 68.8493 68.3855C68.626 68.8675 68.4935 69.2162 68.4517 69.4314L67.5201 74.2429C67.5338 73.9071 67.524 73.8085 67.4907 73.9471C67.4213 74.2375 67.4174 74.6537 67.4791 75.1959C67.472 75.4487 67.6222 76.0177 67.9295 76.9026C68.0725 77.2345 68.244 77.5348 68.444 77.8034C68.8041 78.3236 69.3585 78.7516 70.1071 79.0874C70.4504 79.2207 70.9785 79.3239 71.6914 79.397C72.4331 79.3898 73.2148 79.2221 74.0365 78.8938L76.8368 78.9063C77.3282 77.0396 77.8812 75.9106 78.4959 75.5192L80.931 73.8497L85.8495 72.1032C85.6711 71.7188 85.3093 71.3374 84.7641 70.9592C84.4768 70.7574 84.0037 70.557 83.3449 70.3582C83.2998 69.1079 82.9504 67.212 82.2967 64.6707C81.6945 62.9616 81.3192 61.9481 81.1709 61.6304C80.6299 60.5557 80.0092 59.5579 79.3087 58.6369C78.7822 58.0394 78.5124 57.7695 78.4993 57.827C78.2837 59.0368 77.586 59.5737 76.4063 59.4377C75.9445 59.2973 75.3906 59.0063 74.7445 58.5647C74.4091 58.3034 74.1601 58.0192 73.9974 57.7122Z" fill="white"/>
<path d="M78.1294 75.3796C78.1525 75.5149 78.1825 75.6501 78.2197 75.7849L78.2193 75.785C78.1797 75.6435 78.1496 75.5084 78.1289 75.3796L78.1294 75.3796Z" fill="white"/>
<path d="M82.0488 76.1436L82.0254 76.1475L82.0019 76.1515C81.9716 76.1568 81.9411 76.1626 81.9107 76.1688C81.8852 76.174 81.87 76.1772 81.8649 76.1784L81.8654 76.1784L81.8633 76.1795C81.8877 76.1743 81.914 76.1688 81.9423 76.1631L81.978 76.1563L82.0137 76.1497L82.0494 76.1436L82.0488 76.1436Z" fill="white"/>
<path d="M82.0892 70.6104L81.9869 70.6117C80.6779 70.6791 79.6309 71.2362 78.8459 72.2829C78.5369 72.6902 78.3076 73.2116 78.158 73.847C78.1162 74.047 78.0895 74.2502 78.0779 74.4563C78.0633 74.507 78.0691 74.7325 78.0955 75.1329C78.0795 75.5462 78.063 75.8365 78.0459 76.0037C78.3213 75.7085 78.5288 75.5104 78.6684 75.4096L80.8852 73.872C80.9204 73.8531 80.9674 73.8326 81.0262 73.8106L85.3213 72.2679C84.9576 71.7915 84.5428 71.4177 84.0768 71.1465L83.7176 70.9624C83.4718 70.8524 83.2132 70.7681 82.9418 70.7094C82.6704 70.6508 82.3862 70.6177 82.0892 70.6104Z" fill="white"/>
<path d="M86.1087 74.5156L82.508 75.8092C82.1178 76.0506 81.7158 76.2685 81.3022 76.4628L80.089 77.3091C80.035 77.3477 79.9426 77.4436 79.8118 77.5971C79.7084 77.694 79.5586 78.0587 79.3624 78.6911C79.2968 78.9883 79.2297 79.3464 79.1611 79.7653C79.1469 79.8439 79.1456 80.0235 79.1573 80.3043C79.1794 80.6346 79.2844 80.9551 79.4723 81.2657C79.6891 81.4896 79.9767 81.6837 80.3351 81.8479C80.5977 81.975 81.0673 82.0385 81.7437 82.0382C82.1075 82.0017 82.4813 81.9234 82.865 81.8033C82.9929 81.7117 84.2753 81.246 86.7121 80.4063C86.786 79.532 86.5299 78.6498 85.9437 77.7595C86.1185 75.9513 86.1735 74.8701 86.1087 74.5156Z" fill="white"/>
<path d="M76.9063 54.636C76.906 54.6375 76.951 54.6734 77.0412 54.7437C76.9757 54.6888 76.9307 54.6529 76.9063 54.636Z" fill="white"/>
<path d="M78.1501 68.9812L78.1024 69.0676C77.9827 69.2848 77.8721 69.503 77.7705 69.7221C77.8561 69.6903 77.9417 69.6554 78.0273 69.6172C78.0914 69.5904 78.1985 69.5376 78.3486 69.4591C78.2797 69.2865 78.2136 69.1272 78.1501 68.9812Z" fill="white"/>
<path d="M92.0108 81.8989L91.7873 81.902C91.5871 81.905 91.2969 81.9246 90.9166 81.9607C90.8562 81.9874 90.7926 82.0089 90.7257 82.0251C90.297 82.1146 89.9995 82.1784 89.833 82.2164C90.9193 82.4448 91.9325 82.4814 92.8727 82.3263C93.2888 82.5923 94.0094 82.7791 95.0345 82.8865C95.1511 82.9986 95.3529 83.1668 95.6398 83.3913L95.034 82.6925L94.8896 82.5805L94.6229 82.5754L94.5244 82.5651C94.4909 82.5619 94.4106 82.5398 94.2835 82.4987C94.116 82.4335 93.9643 82.325 93.8283 82.1733L93.4977 82.0901C93.2414 82.0307 92.9843 81.9813 92.7265 81.942C92.5705 81.9166 92.3319 81.9023 92.0108 81.8989Z" fill="white"/>
<path d="M78.5457 45.6909L78.5965 45.7379C78.6595 45.7979 78.7166 45.8549 78.7677 45.909L78.8048 45.949C78.8289 45.9753 78.8514 46.0009 78.8724 46.0258C78.8935 46.0507 78.913 46.0748 78.931 46.0982C78.8882 46.0459 78.8298 45.9795 78.7557 45.8992L78.6561 45.7971L78.5452 45.6909L78.5457 45.6909ZM78.6542 47.8369L78.779 47.8386L78.9008 47.8434L79.0198 47.8515C79.0585 47.8553 79.0973 47.8591 79.136 47.8629L79.2493 47.8774L79.3598 47.8952L79.4674 47.9163L79.5721 47.9405L79.674 47.968L79.6627 47.9713C79.4989 47.9274 79.3303 47.8939 79.1569 47.8708L79.0715 47.8606L78.9857 47.8521L78.8998 47.8455L78.8136 47.8408L78.7273 47.838C78.6792 47.8373 78.6501 47.837 78.6402 47.8371L78.6542 47.8369ZM75.3937 54.1556L75.5038 54.16C75.5387 54.1463 75.7704 54.2008 76.1989 54.3235L76.8579 54.6037C76.9626 54.6711 77.0457 54.7312 77.107 54.7838L77.6672 55.3503C77.8096 55.5407 77.9157 55.6877 77.9856 55.7912C78.2035 56.172 78.337 56.4655 78.386 56.6717C78.4636 56.9271 78.4942 57.386 78.4778 58.0484C78.4612 58.1485 78.4411 58.2259 78.4174 58.2808C78.3782 58.387 78.3172 58.5173 78.2343 58.6717C78.1423 58.8007 78.037 58.9254 77.9185 59.046C77.8856 59.0858 77.7499 59.1807 77.5113 59.3308C77.2756 59.4491 77.0226 59.5026 76.7523 59.4913C76.2893 59.4949 75.6659 59.2181 74.8822 58.6607C74.66 58.4777 74.4446 58.2736 74.236 58.0482L73.8459 57.4888C73.7881 57.3968 73.7316 57.2573 73.6764 57.0702C73.6674 57.044 73.6565 56.9621 73.6437 56.8243C73.5972 56.6983 73.5527 56.537 73.5102 56.3406C73.4825 56.186 73.4678 56.0847 73.4664 56.0366C73.4934 55.6778 73.5428 55.433 73.6146 55.302C73.8204 54.9395 74.0439 54.676 74.2849 54.5113C74.5488 54.3026 74.9184 54.184 75.3937 54.1556ZM85.9384 55.1601L85.9537 55.1602C86.4652 55.1846 86.8542 55.2557 87.1209 55.3733C87.3474 55.4588 87.6125 55.6416 87.9161 55.9217C88.013 56.0268 88.0884 56.1354 88.1426 56.2475L88.4302 57.1069C88.4609 57.2784 88.4684 57.4312 88.4526 57.5652C88.4078 57.8359 88.3434 58.0782 88.2593 58.2923C88.0206 58.7472 87.8567 59.0166 87.7677 59.1006C87.5823 59.2845 87.153 59.5983 86.4797 60.0419C86.1605 60.2234 85.7643 60.3477 85.2914 60.415C84.9211 60.4019 84.5915 60.3424 84.3025 60.2366C84.158 60.1836 84.0237 60.1191 83.8995 60.0431L83.7208 59.9202C83.6068 59.8325 83.503 59.7333 83.4093 59.6224C83.2793 59.4497 83.1608 59.2034 83.0536 58.8837C82.983 58.5031 82.9718 58.1502 83.0202 57.8248C83.0624 57.5487 83.182 57.2118 83.3792 56.8141C83.4953 56.6018 83.6695 56.3884 83.902 56.1739C83.9818 56.1044 84.1628 55.9799 84.445 55.8005C84.6955 55.6586 84.8233 55.5955 84.8286 55.6109C84.8869 55.5478 85.0724 55.433 85.3851 55.2665C85.5174 55.2047 85.7019 55.1692 85.9384 55.1601ZM73.453 58.9993L73.5662 59.0052C73.862 59.0512 74.2117 59.1744 74.6154 59.375C75.0784 59.6285 75.4479 59.9247 75.7239 60.2637C76.0132 60.6305 76.2047 60.8997 76.2984 61.0713C76.5691 61.9586 76.7071 62.5457 76.7125 62.8328C76.6978 63.1952 76.6329 63.5463 76.5177 63.8863C76.4315 64.1605 76.2452 64.4429 75.9589 64.7333C75.554 65.09 75.1611 65.3409 74.7802 65.4859C74.4587 65.6145 74.0169 65.6783 73.4547 65.6773C72.9094 65.6244 72.3054 65.3134 71.6428 64.7441L71.0616 64.113C70.9228 63.9371 70.8139 63.7578 70.7347 63.5749C70.6921 63.5658 70.5848 63.4315 70.4129 63.172C70.3463 63.034 70.3047 62.7833 70.2881 62.42C70.2772 62.108 70.3476 61.7226 70.4993 61.2637C70.6097 61.0503 70.7102 60.8825 70.8009 60.7602C70.8569 60.6627 70.9836 60.5441 71.181 60.4043L71.4803 59.9331C71.7553 59.692 71.9472 59.5367 72.0562 59.4672C72.2045 59.3627 72.3486 59.2741 72.4886 59.2012C72.635 59.1222 72.9564 59.0549 73.453 58.9993ZM89.6705 59.8996L89.8025 59.9112L90.4237 60.0602L90.9696 60.2718L91.4404 60.5459C91.7056 60.7629 91.8699 60.9076 91.933 60.98C92.4716 61.6254 92.7216 62.4798 92.6828 63.5434C92.6649 63.6774 92.6398 63.8037 92.6077 63.9223L92.2741 64.9143L92.1951 65.096C91.9483 65.5254 91.7284 65.8322 91.5354 66.0165C90.8592 66.6194 90.0271 66.8794 89.0393 66.7966C88.4697 66.7063 88.0653 66.5943 87.8263 66.4608C87.3282 66.2109 86.9848 65.9483 86.7961 65.673C86.652 65.5016 86.4782 65.2488 86.2747 64.9146C86.1562 64.6805 86.0386 64.4009 85.9221 64.0758C85.8062 63.7493 85.7527 63.3214 85.7618 62.7919C85.7889 62.5524 85.8566 62.3235 85.9647 62.1053L86.4968 61.237C86.665 61.0361 86.7791 60.9161 86.8391 60.8769C87.5264 60.4536 87.9426 60.222 88.0879 60.1821C88.5183 60.0396 89.0458 59.9455 89.6705 59.8996ZM96.5129 37.668L96.0958 37.7083C94.9444 37.9233 93.4786 38.9984 91.6985 40.9335C90.4146 43.6053 89.6003 45.6504 89.2555 47.0686C87.4267 46.4465 84.3746 46.7054 80.0992 47.8453L79.1166 46.3083C78.6453 44.4268 78.3107 43.2116 78.1127 42.6625C77.1777 41.1566 76.6641 40.3834 76.5718 40.3427C74.6787 38.6773 72.6584 38.495 70.5106 39.7957C69.7741 40.7437 69.1091 42.0394 68.5157 43.6829C68.3037 45.467 68.2087 46.4923 68.2306 46.7586L68.7174 50.346C68.6331 50.2868 68.5386 50.5552 68.4337 51.1513C68.2956 52.563 68.2396 53.7174 68.2659 54.6146C68.4943 56.1883 68.8629 57.5312 69.3718 58.6432C69.2521 60.3192 69.411 61.9087 69.8485 63.4114C70.5086 65.2231 71.3743 66.6706 72.4457 67.7541C73.5414 68.6879 74.4586 69.3267 75.1974 69.6704C75.2163 69.464 75.2603 69.2965 75.3295 69.168L76.8265 66.694C77.2576 66.1983 77.8215 65.9791 78.5181 66.0363C78.9052 66.1471 79.2592 66.374 79.5801 66.717C79.8122 66.8991 80.1151 67.4863 80.4889 68.4787L81.1639 68.9549C82.3028 69.6585 83.6702 69.9712 85.2658 69.893L85.571 70.4513C84.7988 70.8946 84.0828 71.5442 83.4231 72.4C82.9487 71.9304 82.1014 71.7695 80.8812 71.9172C80.1468 72.2096 79.5123 72.54 78.9776 72.9086C78.496 73.2418 78.0664 73.7382 77.6886 74.3977C77.5092 75.2639 77.4623 76.0681 77.5481 76.81C77.6103 76.4719 77.8419 76.1301 78.2429 75.7848C78.9894 75.1367 79.9091 74.4817 81.0021 73.8196L85.5959 72.1692C87.1307 71.8157 88.24 71.4812 88.9239 71.1656C89.6091 71.1083 90.0552 71.3357 90.2622 71.8476C90.5531 72.3823 90.3341 72.9215 89.6052 73.465C89.2122 73.6638 88.1104 73.9911 86.2997 74.4469L82.508 75.8092C81.6984 76.187 80.9003 76.6808 80.114 77.2907C79.6751 77.7631 79.4194 78.2432 79.347 78.7312L79.1735 79.6622L79.5266 80.0611C80.7513 80.989 81.8872 81.5585 82.9342 81.7695C87.8825 79.7864 91.4836 79.0902 93.7374 79.6808C94.9547 79.9423 95.9783 80.3522 96.8082 80.9105L98.2655 83.016L98.7579 84.1861C99.8341 84.217 100.891 83.2709 101.929 81.3479C102.18 79.7021 102.268 78.7004 102.192 78.3425C102.108 77.7691 101.372 76.4217 99.9832 74.3002L99.7002 72.8437C100.991 71.5009 101.692 70.6907 101.802 70.413C102.404 67.3703 102.697 65.0101 102.681 63.3323C102.527 62.3001 102.167 60.9035 101.601 59.1426C100.981 54.8416 100.589 52.7899 100.426 52.9875C101.382 47.6276 101.654 43.6285 101.244 40.9901C100.565 38.9813 98.9878 37.8739 96.5129 37.668Z" fill="white"/>
<path d="M94.8955 82.5425L94.8995 82.5475C94.9076 82.5575 94.9159 82.5675 94.9244 82.5774C94.9273 82.5807 94.9301 82.5839 94.933 82.5872L94.9339 82.5873L94.9331 82.5874C94.9388 82.5939 94.9446 82.6004 94.9505 82.6068C94.9776 82.6357 94.9994 82.6579 95.0162 82.6733C94.9813 82.6333 94.9622 82.611 94.9589 82.6065C94.9461 82.5907 94.9372 82.5794 94.932 82.5724L94.9166 82.5516L94.9172 82.5516L94.8962 82.5425L94.8955 82.5425Z" fill="white"/>
<path d="M94.6317 42.5438C94.5142 42.5843 94.3856 42.6046 94.2461 42.6046C94.1363 42.6046 94.0196 42.5921 93.8962 42.5669L93.8968 42.567C94.0021 42.5876 94.1081 42.5978 94.2135 42.5978C94.3549 42.5978 94.4952 42.5795 94.6311 42.5438L94.6317 42.5438ZM98.6657 36.8386C98.4092 36.8386 98.1549 36.8776 97.9026 36.9556L97.9019 36.9557C96.6972 37.1182 95.21 37.9214 93.4403 39.3653L93.4397 39.3654C93.2185 39.4619 93.0014 39.6034 92.7883 39.7899C91.9645 40.5111 90.4517 42.8539 88.2497 46.8181L81.8576 46.535L81.8571 46.535C81.6228 46.3139 81.3782 46.0302 81.1231 45.6841L81.1226 45.6841C79.759 42.9321 78.3502 40.9363 76.8964 39.6968C76.8848 39.687 76.8732 39.6773 76.8613 39.6677C75.1481 38.2859 73.638 37.595 72.3308 37.595C71.9538 37.595 71.5937 37.6525 71.2505 37.7675C71.0214 37.8442 70.8032 37.9451 70.5958 38.0702C70.5411 38.1033 70.4872 38.138 70.4342 38.1742L70.4338 38.1743C68.5998 39.0672 67.4902 40.5622 67.1052 42.6593L67.1048 42.6593C66.9503 43.2405 66.8537 43.8549 66.815 44.5025C66.8146 44.5103 66.8142 44.518 66.8138 44.5258L66.5048 51.2293C66.4618 52.1621 67.1718 52.9537 68.0907 52.9973C68.1172 52.9986 68.1436 52.9992 68.1698 52.9992C69.0539 52.9992 69.7905 52.2933 69.8323 51.3874L70.1413 44.6838L70.1415 44.6839C70.1685 44.2546 70.2329 43.8565 70.3347 43.4895C70.3496 43.4354 70.362 43.3806 70.3716 43.3253C70.5498 42.3002 71.08 41.5857 71.9623 41.1818C72.08 41.1279 72.1912 41.0602 72.2936 40.9802C72.2945 40.9795 72.2954 40.9788 72.2962 40.9783L72.2957 40.9783C72.3405 40.9635 72.3908 40.9561 72.4468 40.9561C72.8834 40.9561 73.6604 41.4062 74.7778 42.3062L74.7773 42.3063C75.893 43.267 77.0356 44.939 78.2052 47.3222C78.2464 47.4061 78.2944 47.4865 78.3488 47.5624C78.9769 48.4396 79.6214 49.1136 80.2822 49.5841C80.5421 49.7693 80.8489 49.8751 81.1661 49.8892L88.3569 50.2076C88.3784 50.2086 88.3998 50.2091 88.4212 50.2092C88.4278 50.2092 88.4345 50.2093 88.4411 50.2093C88.6136 50.2093 88.7804 50.1978 88.9416 50.175L88.9416 50.175C89.7122 50.0657 90.3204 49.7196 90.7664 49.1365C90.8175 49.0698 90.8635 48.9993 90.9042 48.9255C92.9054 45.2972 94.2169 43.1468 94.8384 42.4746L94.8378 42.4746C94.9946 42.4103 95.1425 42.3214 95.2758 42.2093C96.748 40.9719 97.7746 40.3375 98.3555 40.3061C98.4408 40.3015 98.5254 40.2902 98.6086 40.2725L98.6093 40.2726C98.6508 40.3056 98.6984 40.3481 98.752 40.4L98.7513 40.4001C99.4146 41.1995 99.8163 41.9445 99.9562 42.6349L99.9555 42.635L99.5087 55.4985C99.5017 55.6979 99.5296 55.8969 99.591 56.0864C100.054 57.5145 100.396 60.2173 100.617 64.1948L100.617 64.1949C100.651 64.9944 100.507 66.0387 100.184 67.3278C100.167 67.393 100.155 67.4591 100.146 67.5257L100.146 67.5258C100.015 67.923 99.5414 68.9169 98.725 70.5074C98.6801 70.5949 98.6428 70.6861 98.6136 70.7801C98.433 71.3615 98.3216 71.8099 98.2794 72.1252C98.2508 72.3392 98.2464 72.537 98.2661 72.7184C98.2839 72.8831 98.3255 73.0443 98.3895 73.1967C100.008 77.0495 100.707 79.7503 100.486 81.2993C100.354 82.2235 100.986 83.081 101.896 83.2147C101.977 83.2266 102.057 83.2323 102.137 83.2323C102.951 83.2323 103.663 82.6255 103.783 81.7833C104.082 79.6824 103.368 76.5269 101.639 72.3168L101.638 72.3169C101.666 72.2139 101.702 72.088 101.747 71.9393L101.746 71.9393C102.672 70.1302 103.213 68.9468 103.369 68.389C103.402 68.2698 103.427 68.1544 103.442 68.0426L103.442 68.0427C103.828 66.4706 103.995 65.1297 103.943 64.0201C103.943 64.0148 103.943 64.0096 103.943 64.0043C103.719 59.9738 103.354 57.0837 102.848 55.3338L102.848 55.3339L103.291 42.5713C103.295 42.4642 103.288 42.3569 103.272 42.251C103.06 40.8729 102.38 39.503 101.232 38.1411C101.202 38.1055 101.17 38.0711 101.137 38.0382C100.717 37.6167 100.289 37.3073 99.8519 37.1098C99.4516 36.929 99.0562 36.8386 98.6657 36.8386Z" fill="white"/>
<path d="M102.898 61.774L102.898 61.7739C102.924 61.7701 102.952 61.7665 102.981 61.7633L102.981 61.7633C103.018 61.7592 103.06 61.7554 103.105 61.7519C103.126 61.7504 103.146 61.7493 103.166 61.7486C103.334 61.7432 103.467 61.7353 103.563 61.725C103.603 61.7208 103.643 61.7183 103.682 61.7175L104.146 61.7081C104.17 61.7077 104.195 61.7078 104.219 61.7086C104.538 61.719 104.964 61.7239 105.495 61.7235C105.511 61.7235 105.528 61.7237 105.545 61.7243L105.545 61.7243C105.515 61.7233 105.489 61.7232 105.467 61.7241L105.467 61.7241C105.502 61.7227 105.593 61.7164 105.74 61.7054C105.754 61.7043 105.769 61.7034 105.784 61.7028L106.798 61.659L106.788 61.6596C106.938 61.6519 107.1 61.6412 107.273 61.6276C107.289 61.6264 107.305 61.6254 107.321 61.6247L107.563 61.614L107.533 61.6157C107.639 61.6087 107.804 61.591 108.028 61.5624C108.055 61.559 108.082 61.5564 108.108 61.5546C108.318 61.5402 108.452 61.5287 108.51 61.5202C108.531 61.5171 108.552 61.5145 108.573 61.5124C108.769 61.4929 108.94 61.4621 109.088 61.4199C109.837 61.2063 110.614 61.6492 110.825 62.4092C111.035 63.1692 110.599 63.9585 109.85 64.1721C109.543 64.2598 109.209 64.3216 108.849 64.3576L108.912 64.3498C108.784 64.3686 108.579 64.3876 108.299 64.4069L108.379 64.3991C108.098 64.4348 107.877 64.458 107.715 64.4686C107.705 64.4693 107.695 64.4698 107.685 64.4702L107.442 64.4809L107.49 64.478C107.292 64.4936 107.105 64.5059 106.929 64.5149C106.925 64.515 106.922 64.5152 106.918 64.5154L105.903 64.5591L105.947 64.5565C105.769 64.5699 105.647 64.5779 105.582 64.5806L105.581 64.5806C105.532 64.5827 105.487 64.5829 105.446 64.5815L105.497 64.5824C104.935 64.5828 104.479 64.5774 104.129 64.566L104.202 64.5665L103.738 64.5758L103.857 64.5683C103.693 64.5858 103.492 64.5984 103.256 64.6061L103.316 64.6028C103.302 64.6039 103.292 64.6047 103.286 64.6054L103.286 64.6054C103.289 64.605 103.295 64.6043 103.301 64.6033C102.532 64.7166 101.818 64.175 101.706 63.3937C101.595 62.6124 102.128 61.8872 102.898 61.774Z" fill="white"/>
<path d="M102.147 67.0015C102.349 66.9593 102.571 66.9582 102.814 66.9981C102.835 67.0015 102.856 67.0055 102.877 67.0099C103.212 67.0809 103.58 67.1429 103.982 67.196L103.951 67.1923L104.378 67.2389L104.295 67.2324L104.296 67.2324L104.297 67.2324C104.854 67.2601 105.211 67.2829 105.366 67.3008L105.366 67.3008C105.379 67.3023 105.393 67.3039 105.405 67.3056C105.411 67.3063 105.416 67.3071 105.421 67.3078L105.845 67.3686C105.868 67.3719 105.891 67.3759 105.915 67.3804C106.336 67.4631 106.902 67.5561 107.611 67.6595L107.567 67.6538C107.775 67.6773 107.943 67.6924 108.071 67.6993L107.976 67.6975C108.12 67.6953 108.27 67.6986 108.426 67.7073L108.349 67.7051L109.136 67.7051C109.141 67.7051 109.147 67.7051 109.152 67.7052L109.152 67.7052C109.132 67.705 109.115 67.7052 109.102 67.706L109.103 67.706C109.107 67.7057 109.115 67.7051 109.125 67.7041C109.899 67.6291 110.587 68.2054 110.661 68.9913C110.735 69.7772 110.167 70.4751 109.393 70.55C109.352 70.5539 109.315 70.557 109.28 70.5592L109.28 70.5592C109.223 70.5629 109.169 70.5645 109.119 70.5639L109.136 70.564L108.349 70.564C108.323 70.564 108.297 70.5633 108.271 70.5619C108.181 70.5568 108.096 70.5549 108.018 70.556C107.986 70.5565 107.954 70.5559 107.923 70.5542C107.74 70.5444 107.517 70.5247 107.255 70.4951C107.24 70.4934 107.226 70.4915 107.211 70.4894C106.457 70.3795 105.847 70.2788 105.38 70.1874L105.45 70.1993L105.027 70.1386L105.043 70.1408C105.046 70.1411 105.047 70.1413 105.049 70.1414L105.048 70.1414C104.953 70.1304 104.656 70.1126 104.159 70.0879L104.16 70.088L104.159 70.0879C104.131 70.0865 104.104 70.0843 104.076 70.0814L103.65 70.0347C103.639 70.0336 103.629 70.0323 103.619 70.031C103.146 69.9685 102.706 69.8943 102.301 69.8084L102.364 69.8203C102.462 69.8362 102.578 69.8301 102.713 69.8019C101.951 69.9607 101.207 69.4625 101.051 68.6892C100.894 67.9158 101.385 67.1602 102.147 67.0015Z" fill="white"/>
<path d="M67.0526 53.5443C67.027 53.4469 67.0106 53.3475 67.0031 53.2459C67.0008 53.2149 66.9996 53.1838 66.9994 53.1527V53.1525C66.9994 53.1502 66.9993 53.1485 66.9993 53.1474C66.9996 53.1581 67.0008 53.1726 67.0028 53.1909L67.0027 53.1901C67.0024 53.1874 67.0022 53.1853 67.002 53.1839L67.002 53.1837C67.0027 53.1896 67.0041 53.1976 67.0061 53.2079C67.0053 53.2035 67.0044 53.1989 67.0036 53.1945C67.0039 53.196 67.0042 53.1976 67.0045 53.1991L67.0072 53.21L66.9382 52.9276C66.9351 52.9147 66.9321 52.9018 66.9293 52.8888L66.9269 52.877L66.9268 52.8768L66.9293 52.8886C66.8889 52.6998 66.8612 52.5502 66.8463 52.4398L66.8463 52.4399C66.844 52.4226 66.8419 52.4059 66.8401 52.3897C66.8398 52.387 66.8395 52.3844 66.8392 52.3817L66.8392 52.3817C66.8383 52.3739 66.8375 52.3662 66.8367 52.3584L66.8367 52.3583C66.8272 52.2638 66.8241 52.1772 66.8275 52.0986L66.8263 52.1758C66.8259 52.1452 66.8265 52.1117 66.8279 52.0752C66.8291 52.044 66.8311 52.0062 66.8339 51.9617L66.8311 52.0562L66.8308 51.9919C66.8307 51.9699 66.8312 51.9478 66.8321 51.9258C66.8341 51.8795 66.8352 51.8485 66.8353 51.8327L66.8353 51.8329C66.8352 51.8405 66.8354 51.8505 66.8359 51.863C66.8079 51.099 67.3953 50.4566 68.1479 50.4282C68.9004 50.3998 69.5332 50.9961 69.5612 51.7601C69.5623 51.7887 69.5627 51.8198 69.5624 51.8532L69.5624 51.8533C69.5621 51.9025 69.5602 51.967 69.5568 52.0466L69.558 51.9805L69.5583 52.0448C69.5584 52.0763 69.5575 52.1078 69.5555 52.1393C69.5542 52.1607 69.5533 52.1754 69.553 52.1834C69.5534 52.1727 69.5535 52.1591 69.5533 52.1427C69.5536 52.1686 69.5532 52.1943 69.5521 52.2199C69.5546 52.1638 69.5538 52.1158 69.5497 52.076L69.5497 52.0759C69.5497 52.076 69.5498 52.0766 69.5499 52.0775L69.549 52.0695C69.5488 52.0675 69.5486 52.0659 69.5484 52.0647L69.5484 52.0648C69.5537 52.1036 69.5689 52.1821 69.5943 52.3003L69.5967 52.3122L69.5968 52.3123L69.5854 52.2617L69.6543 52.5441C69.6552 52.5478 69.6561 52.5513 69.657 52.555C69.6675 52.5995 69.6768 52.6442 69.685 52.6891L69.6825 52.6757C69.6907 52.7185 69.6981 52.7638 69.7044 52.8116L69.7044 52.8113C69.7074 52.8339 69.7103 52.8572 69.713 52.8814L69.7129 52.8807C69.7194 52.9391 69.7235 53.0015 69.7254 53.0679C69.726 53.0892 69.7264 53.1111 69.7266 53.1336L69.7228 53.0402C69.7177 52.9705 69.7061 52.9012 69.6881 52.8324C69.8817 53.5713 69.4487 54.3295 68.7209 54.5261C67.9931 54.7227 67.2462 54.2831 67.0526 53.5443Z" fill="white"/>
<path d="M69.0921 49.4092C69.4782 49.6736 69.6946 50.0468 69.7413 50.529L69.7326 50.4582C69.7392 50.503 69.7446 50.5517 69.7488 50.6044L69.7488 50.6046C69.7541 50.6725 69.7581 50.7578 69.7607 50.8607L69.7545 50.7603L69.7787 51.0072L69.7262 50.7407C69.7387 50.7822 69.7505 50.8272 69.7618 50.8757L69.7618 50.8758C69.7939 51.0142 69.8325 51.2378 69.8775 51.5466L69.8397 51.3689L69.8478 51.3991C69.8711 51.4892 69.8896 51.5707 69.9033 51.6437L69.9034 51.6438C69.9111 51.6849 69.9176 51.7244 69.9229 51.7625L69.9235 51.7667L70.0385 52.6167C70.0454 52.668 70.0495 52.7197 70.0508 52.7715C70.0516 52.8084 70.0552 52.8509 70.0614 52.899C70.0666 52.939 70.0701 52.9793 70.0718 53.0196L70.0716 53.0153L70.0716 53.0157L70.0718 53.0199C70.0776 53.1541 70.0805 53.262 70.0805 53.3437L70.0778 53.2568L70.103 53.6587C70.106 53.7067 70.1065 53.7548 70.1046 53.8029C70.107 53.7417 70.1058 53.6894 70.1008 53.6457C70.1054 53.6859 70.1198 53.775 70.1439 53.9129C70.1487 53.94 70.1526 53.9672 70.1558 53.9945C70.1672 54.0934 70.1746 54.1603 70.178 54.1953L70.178 54.1951C70.2673 55.1069 69.8693 55.6165 68.9838 55.7237L68.9729 55.725C68.3078 55.8 67.8412 55.5263 67.5729 54.9039L70.1811 54.2342C70.2031 54.5025 70.1733 54.7485 70.0917 54.9722C69.8303 55.6892 69.0458 56.0552 68.3395 55.7898C67.6333 55.5244 67.2727 54.728 67.5341 54.011C67.4754 54.1722 67.4517 54.3231 67.4633 54.4638C67.408 53.7892 67.8414 53.173 68.4879 53.007C69.1343 52.841 69.8042 53.174 70.0715 53.7942C69.8033 53.1719 69.3367 52.8983 68.6717 52.9733L68.6608 52.9746C67.7759 53.0817 67.377 53.5799 67.4641 54.4692L67.4641 54.469C67.4623 54.45 67.4565 54.3991 67.447 54.3161L67.4588 54.3977C67.4251 54.2052 67.4028 54.0614 67.3918 53.9662C67.3803 53.866 67.3763 53.774 67.3796 53.6904L67.3812 53.8346L67.356 53.4327C67.3542 53.4038 67.3533 53.3748 67.3533 53.3459C67.3532 53.3035 67.3512 53.2349 67.3471 53.14L67.3473 53.1443L67.3473 53.144L67.3575 53.2602C67.3386 53.1145 67.3275 52.9739 67.3243 52.8385L67.3366 52.9934L67.2216 52.1434L67.2222 52.1476C67.2232 52.1552 67.2241 52.1611 67.2249 52.1653L67.225 52.1654C67.2225 52.1524 67.2173 52.1304 67.2093 52.0994L67.2174 52.1295C67.1968 52.0508 67.1869 52.0015 67.1796 51.9517C67.1459 51.7202 67.1218 51.5732 67.1073 51.5108L67.1073 51.5109C67.1094 51.5201 67.1128 51.5323 67.1173 51.5475C67.0913 51.4607 67.0737 51.3714 67.0648 51.281L67.0407 51.0342C67.0374 51.0008 67.0353 50.9674 67.0345 50.9339C67.033 50.8797 67.0316 50.8429 67.0301 50.8236L67.0301 50.8237C67.031 50.8357 67.0329 50.8513 67.0358 50.8706C67.0323 50.847 67.0294 50.8234 67.0271 50.7998C67.0641 51.1817 67.2441 51.4832 67.567 51.7044C66.9427 51.2769 66.778 50.4165 67.1991 49.7827C67.6203 49.1489 68.4678 48.9817 69.0921 49.4092Z" fill="white"/>
</g>
</g>
<defs>
<filter id="filter0_d_794_107" x="-9.77308" y="-5" width="145.752" height="146.775" filterUnits="userSpaceOnUse" color-interpolation-filters="sRGB">
<feFlood flood-opacity="0" result="BackgroundImageFix"/>
<feColorMatrix in="SourceAlpha" type="matrix" values="0 0 0 0 0 0 0 0 0 0 0 0 0 0 0 0 0 0 127 0" result="hardAlpha"/>
<feOffset dy="2.13636"/>
<feGaussianBlur stdDeviation="1.06818"/>
<feComposite in2="hardAlpha" operator="out"/>
<feColorMatrix type="matrix" values="0 0 0 0 0 0 0 0 0 0 0 0 0 0 0 0 0 0 0.25 0"/>
<feBlend mode="normal" in2="BackgroundImageFix" result="effect1_dropShadow_794_107"/>
<feBlend mode="normal" in="SourceGraphic" in2="effect1_dropShadow_794_107" result="shape"/>
</filter>
<clipPath id="clip0_794_107">
<rect width="132" height="134" fill="white" transform="translate(-3 -5)"/>
</clipPath>
</defs>
</svg>
