<svg width="74" height="71" viewBox="0 0 74 71" fill="none" xmlns="http://www.w3.org/2000/svg">
<g clip-path="url(#clip0_589_3647)">
<path d="M46.2939 46.5204C46.1234 46.5204 45.9519 46.5755 45.8105 46.6883C45.2051 47.1711 44.7536 47.5048 44.4559 47.6892C44.4192 47.7119 44.3846 47.7377 44.3525 47.7662C43.5956 48.4377 43.1032 48.8491 42.8754 49.0003C42.8367 49.026 42.8005 49.0551 42.7675 49.0873L41.2628 50.5485H41.2626C40.7693 50.9208 40.3552 51.2761 40.0204 51.6145H40.0202C39.7109 51.669 39.4575 51.9065 39.408 52.222C39.3456 52.6195 39.6304 52.9902 40.0441 53.0501C40.0932 53.0572 40.1421 53.0607 40.191 53.0607C40.3927 53.0607 40.5931 53.0003 40.7922 52.8794C40.8647 52.8353 40.9379 52.7825 41.0118 52.7209C41.0323 52.7038 41.0519 52.6857 41.0703 52.6665C41.369 52.3576 41.7571 52.024 42.2345 51.6659C42.26 51.6468 42.2842 51.6262 42.3069 51.6041L43.7982 50.1558H43.798C44.0917 49.9497 44.6034 49.5235 45.3331 48.8773H45.3328C45.6784 48.6575 46.1602 48.3011 46.7782 47.8081C47.1001 47.5514 47.1444 47.0926 46.8772 46.7833C46.7273 46.61 46.5114 46.5204 46.2939 46.5204Z" fill="black"/>
<path d="M44.5629 47.1147C44.5638 47.1147 44.5647 47.1147 44.5656 47.1147C44.5678 47.1148 44.57 47.1148 44.5724 47.1148C44.5692 47.1148 44.5659 47.1147 44.5626 47.1147H44.5629ZM45.3959 45.6075C45.3076 45.6075 45.2183 45.6224 45.1322 45.6534H45.1319C45.1181 45.6548 45.1005 45.6561 45.0791 45.6573H45.0788C45.0671 45.6573 45.0478 45.6567 45.021 45.6556C45.0096 45.655 44.9981 45.6548 44.9866 45.6548C44.9815 45.6548 44.9765 45.6548 44.9715 45.6549C44.8042 45.6581 44.6897 45.6597 44.6279 45.6597C44.6147 45.6597 44.6039 45.6597 44.5955 45.6595H44.5954C44.59 45.6594 44.5846 45.6594 44.579 45.6594C44.5591 45.6594 44.538 45.66 44.5155 45.6613L44.5154 45.6613C44.5024 45.6621 44.4871 45.6631 44.4692 45.6645H44.469L44.3627 45.6655C44.3463 45.6657 44.33 45.6663 44.3136 45.6675C44.2551 45.6717 44.2165 45.6739 44.1976 45.6741C44.1965 45.6741 44.1953 45.6741 44.1942 45.6741C44.1936 45.6741 44.1929 45.6741 44.1923 45.6741C44.189 45.6741 44.1858 45.6741 44.1829 45.6741C44.1735 45.6741 44.1662 45.674 44.1611 45.6739H44.1608L43.9777 45.6618L43.7213 45.6303C43.6951 45.6271 43.6687 45.6252 43.6422 45.6246C43.5651 45.623 43.5097 45.6221 43.4759 45.6221H43.4757C43.4124 45.6218 43.3509 45.6216 43.2912 45.6216C43.1735 45.6216 43.0627 45.6222 42.959 45.6234C42.9454 45.6236 42.9317 45.6241 42.9181 45.6249L42.4503 45.6546C42.4437 45.655 42.4371 45.6555 42.4304 45.6561L42.2929 45.6683H42.2927C42.1306 45.6768 41.9734 45.6871 41.8213 45.6992H41.821L41.6422 45.7055C41.6294 45.7059 41.6166 45.7067 41.6038 45.7078L41.3921 45.7256H41.3919C41.3084 45.7312 41.2513 45.734 41.2206 45.734C41.2179 45.734 41.2154 45.734 41.2131 45.7339C41.2082 45.7338 41.2032 45.7338 41.1983 45.7338C41.182 45.7338 41.1657 45.7343 41.1494 45.7353L40.8942 45.7511C40.8896 45.7514 40.885 45.7518 40.8804 45.7521C40.8396 45.7554 40.8049 45.7587 40.7762 45.7622C40.7427 45.7663 40.7117 45.7713 40.683 45.7772H40.6828C40.564 45.7998 40.4758 45.8186 40.4179 45.8336C40.4015 45.8379 40.386 45.8422 40.3715 45.8466C39.9722 45.9665 39.7497 46.3747 39.8746 46.7583C39.9759 47.0696 40.2748 47.2691 40.5973 47.2691C40.6693 47.2691 40.7424 47.2592 40.8147 47.2384H40.8145C40.839 47.232 40.8927 47.221 40.9757 47.2052H40.9754C40.9814 47.2046 40.9892 47.204 40.9987 47.2032H40.9984L41.2208 47.1894H41.2206C41.2921 47.1891 41.387 47.185 41.5055 47.177L41.5116 47.1766L41.5118 47.1766C41.5142 47.1764 41.5165 47.1762 41.5188 47.176L41.717 47.1593L41.8946 47.153C41.9065 47.1526 41.9184 47.1519 41.9302 47.151C42.0775 47.1391 42.2304 47.1291 42.389 47.1209C42.3988 47.1204 42.4086 47.1197 42.4183 47.1189L42.5601 47.1063L42.9972 47.0786H42.9969C43.089 47.0776 43.1872 47.0771 43.2914 47.0771C43.3493 47.0771 43.409 47.0773 43.4706 47.0776L43.4747 47.0776C43.4748 47.0776 43.475 47.0776 43.4751 47.0776C43.4926 47.0776 43.5239 47.078 43.5691 47.0789H43.5689L43.8074 47.1082C43.8221 47.11 43.8368 47.1114 43.8516 47.1124L44.0637 47.1264C44.0772 47.1273 44.0917 47.128 44.107 47.1285C44.1289 47.1292 44.1548 47.1296 44.1849 47.1296C44.1879 47.1296 44.191 47.1296 44.1942 47.1295H44.1944C44.1957 47.1295 44.197 47.1296 44.1982 47.1296C44.2029 47.1296 44.2077 47.1295 44.2124 47.1295H44.2123C44.2588 47.129 44.3216 47.1261 44.4009 47.1207H44.4007L44.512 47.1197C44.5318 47.1195 44.5516 47.1186 44.5713 47.1169C44.5805 47.1161 44.5881 47.1155 44.5942 47.115H44.5944C44.6028 47.1151 44.6119 47.1151 44.6218 47.1151C44.6972 47.1151 44.8158 47.1136 44.9778 47.1106H44.978C45.0168 47.112 45.0513 47.1128 45.0816 47.1128C45.0903 47.1128 45.0987 47.1127 45.1067 47.1126H45.1066C45.1284 47.1123 45.1491 47.1115 45.1687 47.1103H45.1684C45.269 47.1045 45.3579 47.0947 45.4353 47.0807C45.5568 47.0587 45.6639 47.0238 45.7563 46.9759C46.1245 46.785 46.2619 46.3435 46.0632 45.9898C45.9263 45.746 45.6654 45.6075 45.3959 45.6075Z" fill="black"/>
<path d="M41.8174 48.4328C41.8175 48.4328 41.8178 48.4328 41.8183 48.4328L41.8173 48.4328H41.8174ZM40.5766 48.3156C40.514 48.3156 40.4534 48.3171 40.3949 48.3201C39.9772 48.3415 39.6566 48.6842 39.6788 49.0856C39.7004 49.4738 40.0347 49.7746 40.4346 49.7746C40.4482 49.7746 40.4619 49.7743 40.4756 49.7736C40.5075 49.7719 40.5413 49.7711 40.5768 49.7711C40.6281 49.7711 40.6832 49.7728 40.7421 49.7762H40.7418L41.0546 49.8089H41.0543C41.1654 49.8234 41.2727 49.8389 41.3765 49.8553L41.3811 49.8561C41.3915 49.8576 41.4019 49.859 41.4124 49.8602C41.4759 49.8673 41.5732 49.8753 41.7043 49.8842L41.7002 49.8839L41.7076 49.8844C41.7452 49.8868 41.7742 49.8884 41.7947 49.8892H41.7948C41.8019 49.8895 41.8085 49.8897 41.8147 49.8899L41.8183 49.8899L41.9239 49.892H41.9237C42.0381 49.8974 42.1562 49.9019 42.278 49.9056C42.2861 49.9059 42.2941 49.906 42.3022 49.906C42.3025 49.906 42.3027 49.906 42.303 49.906L42.5187 49.9058L42.6485 49.9107H42.6483C42.7047 49.9149 42.8008 49.9259 42.9364 49.9435C42.9709 49.948 43.0052 49.9502 43.0392 49.9502C43.4123 49.9502 43.7373 49.6853 43.7888 49.3203C43.8451 48.922 43.5546 48.5553 43.1401 48.5013C42.9632 48.4782 42.8306 48.4638 42.7423 48.458C42.735 48.4575 42.7277 48.4571 42.7204 48.4568L42.5632 48.4509C42.5532 48.4505 42.5433 48.4503 42.5333 48.4503C42.533 48.4503 42.5327 48.4503 42.5324 48.4503L42.3139 48.4505C42.2014 48.447 42.0924 48.4427 41.9869 48.4378C41.9796 48.4374 41.9724 48.4372 41.9651 48.437L41.8552 48.4349H41.8549C41.8468 48.4345 41.8321 48.4337 41.8107 48.4323C41.7157 48.4259 41.6468 48.4205 41.604 48.4162H41.6038C41.4882 48.3981 41.3691 48.3811 41.2465 48.3652C41.24 48.3643 41.2336 48.3636 41.2271 48.3629L40.8882 48.3274C40.8773 48.3263 40.8663 48.3254 40.8552 48.3247C40.7582 48.3187 40.6654 48.3156 40.5766 48.3156Z" fill="black"/>
<path d="M40.8026 46.7314C40.7698 46.8529 40.7694 46.984 40.8077 47.113C40.7663 46.9755 40.7645 46.8483 40.8024 46.7314H40.8026ZM41.5364 46.1855C41.4628 46.1855 41.3879 46.1958 41.3139 46.2177C41.0687 46.29 40.8894 46.471 40.8156 46.6887H40.8154C40.7509 46.7942 40.6605 46.9356 40.5442 47.113C40.5305 47.1338 40.518 47.1552 40.5066 47.1772C40.437 47.3119 40.3533 47.4633 40.2557 47.6314H40.2555C40.0193 47.7739 39.8742 48.0369 39.9043 48.3216C39.9439 48.6965 40.2731 48.9759 40.657 48.9759C40.6826 48.9759 40.7084 48.9747 40.7344 48.9721C41.0147 48.9448 41.2356 48.8316 41.3972 48.6325C41.419 48.6056 41.4388 48.5773 41.4565 48.5477C41.6101 48.2911 41.7396 48.0618 41.8452 47.8598H41.845C41.9745 47.6619 42.0748 47.5039 42.146 47.3859C42.1529 47.3745 42.1594 47.3629 42.1656 47.3512C42.1827 47.319 42.1974 47.2899 42.2095 47.264L42.2095 47.264C42.3012 47.0686 42.3181 46.8806 42.2604 46.6999C42.1603 46.3868 41.8604 46.1855 41.5364 46.1855Z" fill="black"/>
<path d="M64.52 47.7362L50.1184 47.9411C49.5861 47.9486 49.1481 47.5402 49.1402 47.0288C49.1324 46.5173 49.5575 46.0966 50.0899 46.089L64.4915 45.8841C65.0238 45.8766 65.4618 46.285 65.4697 46.7964C65.4776 47.3079 65.0524 47.7286 64.52 47.7362Z" fill="black"/>
<path d="M12.0867 32.2036C11.7995 32.1941 11.7517 32.2055 11.731 32.2136C11.7997 32.1867 11.3002 32.2997 11.1446 35.0673C10.9367 38.766 11.3519 46.2489 11.774 53.8262L11.7719 53.7981C11.9363 55.6462 12.1104 56.7886 12.7591 57.2511C13.471 57.7588 14.9898 57.6955 17.1416 57.5277C17.1521 57.5269 17.1626 57.5263 17.1731 57.5258L36.1907 56.6692C36.2014 56.6687 36.212 56.6685 36.2227 56.6683C37.1718 56.6571 37.8594 56.6356 38.32 56.4553C38.4791 56.393 38.5712 56.3247 38.6291 56.2587L38.6291 56.2588C38.9603 55.8816 39.0014 54.947 38.9748 53.3975C38.9746 53.3833 38.9747 53.3691 38.9751 53.355L39.5666 35.2202L39.5668 35.2167C39.6325 33.4267 39.6214 32.2352 39.197 31.7167C38.8346 31.2739 37.9574 31.1687 36.3368 31.1056L36.3992 31.106L21.8658 31.4833L21.8932 31.4822L14.665 31.8758C14.1549 31.9036 13.7178 31.5288 13.6889 31.0386C13.66 30.5485 14.0501 30.1287 14.5603 30.1009L21.7884 29.7073C21.7976 29.7068 21.8067 29.7064 21.8158 29.7061L36.3492 29.3289C36.37 29.3284 36.3908 29.3285 36.4116 29.3293C37.655 29.3777 39.6417 29.3838 40.6517 30.6179C41.5998 31.7763 41.4695 33.8271 41.4161 35.2794L41.4162 35.2759L40.8247 53.4107L40.825 53.3681C40.8457 54.5721 40.9342 56.3908 40.0434 57.4051L40.0434 57.4052C39.751 57.7381 39.3884 57.9567 39.0184 58.1016C38.1626 58.4366 37.0734 58.4362 36.2454 58.446L36.2774 58.445L17.2598 59.3016L17.2913 59.2997C15.4954 59.4397 13.0664 59.6843 11.6561 58.6786C10.1827 57.6279 10.0603 55.4357 9.92815 53.9494C9.92732 53.94 9.92664 53.9306 9.92612 53.9212C9.50745 46.4039 9.08202 38.7922 9.29684 34.9714C9.43811 32.459 9.8585 31.0269 11.0326 30.5673C11.4807 30.3919 11.935 30.4198 12.1501 30.4269C12.6608 30.4437 13.0606 30.8551 13.0431 31.3457C13.0256 31.8363 12.5973 32.2204 12.0867 32.2036Z" fill="black"/>
<path d="M45.0281 43.6184C43.7283 43.6184 42.3147 43.645 40.9205 43.6709C40.4096 43.6805 40.0035 44.0861 40.0134 44.5769C40.0231 45.0619 40.4354 45.4486 40.9381 45.4486C40.9442 45.4486 40.9503 45.4485 40.9564 45.4484C42.3758 45.422 43.7755 45.3961 45.041 45.3961C45.2524 45.3961 45.4601 45.3969 45.6636 45.3984C45.6371 45.3119 45.6237 45.2132 45.6234 45.1022C45.6303 44.9586 45.6395 44.8734 45.6508 44.8466C45.6755 44.7354 45.7169 44.6276 45.7753 44.523C45.773 44.4151 45.807 44.256 45.8772 44.0456C45.9156 43.9201 45.9967 43.7801 46.1205 43.6257L46.1207 43.6257C45.7681 43.6206 45.4028 43.6184 45.0281 43.6184Z" fill="black"/>
<path d="M52.2309 45.3369C52.2206 45.3439 52.21 45.3507 52.1992 45.3573C52.0566 45.4259 51.9636 45.4601 51.9202 45.4601C51.9178 45.4601 51.9156 45.46 51.9135 45.4598L51.9132 45.4598C51.9399 45.4679 51.7709 45.4722 51.4062 45.4727C51.2394 45.6957 50.9253 45.8954 50.4639 46.0717C50.3727 46.0998 50.2761 46.122 50.1741 46.1384L50.1744 46.1385L39.3096 55.5221C38.9296 55.8503 38.8985 56.4123 39.2401 56.7773C39.4228 56.9726 39.6751 57.072 39.9285 57.072C40.1488 57.072 40.37 56.9968 40.5468 56.8441L51.5684 47.325C51.626 47.2752 51.6769 47.2187 51.7199 47.1567C51.8606 46.9539 52.1378 46.5732 52.2467 46.1618C52.3141 45.907 52.3241 45.6203 52.2312 45.3369H52.2309Z" fill="black"/>
<path d="M24.9124 39.9594C25.0168 40.2794 25.0184 40.6932 24.9172 41.2008L24.9183 41.1952C24.7208 42.2298 24.5034 42.9449 24.266 43.3404L24.2666 43.3394C23.7124 44.2661 22.8833 44.9461 21.7793 45.3794L21.8379 44.0839L23.1495 44.7314C23.1681 44.7406 23.1864 44.7505 23.2041 44.7612C23.4719 44.9222 23.7729 45.2055 24.1072 45.6112C24.1139 45.6193 24.1204 45.6276 24.1268 45.636C25.1038 46.9343 25.6504 48.1196 25.7666 49.1918L25.4381 48.6708C25.0446 48.4202 24.7199 48.4803 24.4641 48.8511C24.437 48.8904 24.4187 48.9247 24.4094 48.954L24.4094 48.9539C24.4094 48.9537 24.4095 48.9534 24.4097 48.953L24.394 49.0157C24.4831 48.5721 24.6378 48.0388 24.8582 47.4158C24.8603 47.4099 24.8625 47.404 24.8648 47.3981C25.1735 46.5954 25.4032 46.0844 25.5538 45.8651C25.6613 45.7086 25.7895 45.5978 25.9386 45.5328L25.6041 45.8227C25.9952 45.1798 26.615 44.6037 27.4635 44.0945L27.9189 45.4111C27.8442 45.4171 27.7669 45.4166 27.6869 45.4095C27.2866 45.3742 26.7429 45.1453 26.056 44.7228L26.0691 44.7306C25.7053 44.517 25.3296 44.1842 24.9418 43.7323C24.9408 43.7312 24.9399 43.7301 24.939 43.729C24.7068 43.4551 24.4476 43.018 24.1614 42.4177C24.1413 42.3756 24.1255 42.3318 24.1143 42.2868L23.6919 40.5936C23.5963 40.2103 23.8423 39.825 24.2413 39.7332C24.6403 39.6413 25.0413 39.8776 25.1369 40.2609L25.5593 41.9541L25.5123 41.8232C25.7459 42.3131 25.9388 42.6479 26.0912 42.8276L26.0883 42.8242C26.3703 43.1529 26.6223 43.3824 26.8442 43.5127C26.8486 43.5153 26.8529 43.5179 26.8573 43.5206C27.3409 43.8181 27.6628 43.9739 27.8228 43.988C27.8163 43.9874 27.8072 43.9876 27.7955 43.9886C28.1372 43.9612 28.4541 44.1621 28.5622 44.4748C28.6704 44.7875 28.5416 45.1306 28.2508 45.3052C27.6094 45.6901 27.1548 46.1027 26.887 46.5429C26.8094 46.6705 26.6925 46.7718 26.5525 46.8328C26.6638 46.7843 26.7443 46.7237 26.7942 46.6511C26.7064 46.779 26.5278 47.193 26.2585 47.8929L26.2651 47.8752C26.0666 48.4363 25.9292 48.9067 25.8529 49.2862C25.8487 49.3074 25.8435 49.3283 25.8373 49.349C25.8347 49.3574 25.8322 49.3656 25.8295 49.3738L25.8296 49.3737C25.7969 49.4758 25.7546 49.5645 25.7026 49.6397C25.4112 50.0622 25.0493 50.1358 24.6171 49.8606C24.4321 49.7428 24.3116 49.5517 24.2886 49.3396C24.1999 48.5203 23.7445 47.5646 22.9226 46.4724L22.9422 46.4973C22.714 46.2204 22.5385 46.0451 22.4158 45.9712L22.4704 46.0011L21.1588 45.3536C20.9007 45.2262 20.7435 44.9662 20.7561 44.6877C20.7687 44.4093 20.9488 44.1634 21.2173 44.058C22.0065 43.7482 22.5934 43.2717 22.9782 42.6283L22.9788 42.6273C23.1308 42.374 23.2901 41.8109 23.4567 40.9378C23.4571 40.9359 23.4574 40.934 23.4578 40.9322C23.5121 40.6598 23.5244 40.4778 23.4945 40.3863C23.3718 40.0102 23.5897 39.6096 23.9813 39.4918C24.3728 39.3739 24.7897 39.5832 24.9124 39.9594Z" fill="black"/>
<path d="M23.7027 41.3511L23.7027 41.3512C23.7028 41.3508 23.7029 41.3504 23.7029 41.3502L23.7029 41.3501C23.6925 41.3948 23.6895 41.4477 23.694 41.5088L23.6938 41.5055L23.6845 41.3698C23.6832 41.3514 23.6827 41.3329 23.6829 41.3144L23.6844 41.1958C23.6847 41.1732 23.6861 41.1507 23.6886 41.1282L23.7133 40.9071L23.7092 40.9697L23.7108 40.888L23.7112 40.9297L23.7084 40.8615L23.7138 40.9232L23.704 40.8494L24.346 41.4674C23.9223 41.4149 23.7061 41.1797 23.6976 40.7619C23.6974 40.7517 23.6973 40.7387 23.6972 40.723L23.6992 40.7727L23.6944 40.7106C23.6924 40.6847 23.6919 40.6587 23.6928 40.6328C23.6942 40.5951 23.6958 40.5636 23.6978 40.5382C23.7002 40.507 23.7035 40.4785 23.7079 40.4527L23.7082 40.4509L23.7315 40.3151L23.7263 40.351C23.7257 40.3562 23.7253 40.3604 23.725 40.3635C23.7258 40.3529 23.7268 40.3307 23.7281 40.2971L23.7771 40.5779C23.7683 40.5561 23.7618 40.5409 23.7574 40.5324C23.9264 40.8638 24.2134 40.9548 24.6185 40.8052L24.6185 40.8052C24.8373 40.7244 24.9785 40.5812 25.0421 40.3757L25.0649 40.0688C25.075 40.1343 25.0771 40.2057 25.0714 40.2831L25.0725 40.2005C25.0717 40.1829 25.0704 40.1683 25.0687 40.1567L25.0686 40.1564C25.0686 40.156 25.0685 40.1557 25.0685 40.1554L25.0602 40.1109C25.0892 40.2427 25.108 40.3449 25.1166 40.4175C25.1187 40.4348 25.1203 40.4514 25.1215 40.4673L25.1186 40.4372C25.1196 40.446 25.1206 40.4552 25.1216 40.4648C25.1259 40.51 25.1298 40.5764 25.133 40.6639L25.1324 40.6512C25.1333 40.6681 25.1339 40.686 25.1341 40.7048C25.1345 40.7491 25.1326 40.8051 25.1286 40.8726C25.1284 40.8752 25.1283 40.8778 25.1281 40.8804L25.0985 41.2943L25.0987 41.2912C25.0956 41.3372 25.0939 41.3666 25.0935 41.3795C25.0935 41.3795 25.0935 41.3795 25.0935 41.3795C25.0932 41.3907 25.0926 41.4018 25.0918 41.4129L25.0918 41.413C25.0924 41.4044 25.0928 41.3971 25.093 41.3912C25.0925 41.4092 25.0922 41.4613 25.0921 41.5476C25.0921 41.5571 25.0919 41.5667 25.0915 41.5763C25.0898 41.6153 25.0886 41.6625 25.0879 41.7178L25.088 41.7152L25.0859 41.9523L25.0856 41.9273C25.092 42.1602 25.0963 42.2941 25.0984 42.3292L25.0984 42.3292C25.0982 42.3249 25.0977 42.3194 25.0971 42.3128C25.0978 42.3201 25.0984 42.3275 25.0989 42.3348L25.1161 42.5897L25.1132 42.5572L25.1132 42.5572L25.1139 42.5637C25.1302 42.7181 25.1399 42.8216 25.143 42.8744L25.1396 42.8349C25.1407 42.8449 25.1418 42.8559 25.1427 42.8679C25.1455 42.9028 25.1511 42.9996 25.1597 43.1582L25.159 43.1473L25.159 43.1476L25.159 43.1472C25.1635 43.2105 25.1667 43.3385 25.1687 43.5313C25.1688 43.5369 25.1688 43.5426 25.1687 43.5482C25.1652 43.7903 25.1575 44.0393 25.1456 44.2952L25.1457 44.2941C25.1441 44.3305 25.1404 44.3803 25.1346 44.4434C25.1338 44.4524 25.1328 44.4615 25.1316 44.4705C25.1208 44.5527 25.1084 44.6675 25.0945 44.8148C25.0573 45.2073 24.6959 45.4966 24.2873 45.4609C23.8786 45.4252 23.5775 45.078 23.6147 44.6854C23.6302 44.5216 23.6444 44.3904 23.6574 44.2919L23.6544 44.3189C23.6582 44.2768 23.6605 44.248 23.6612 44.2327L23.6612 44.2316C23.6724 43.9903 23.6796 43.756 23.6829 43.5285L23.6829 43.5454C23.6812 43.3802 23.679 43.2797 23.6765 43.2439L23.6765 43.2435L23.6765 43.2432C23.6762 43.24 23.676 43.2362 23.6758 43.2323C23.6678 43.0849 23.6629 42.9994 23.661 42.9757C23.6614 42.9802 23.6619 42.9857 23.6627 42.9922C23.6612 42.9791 23.66 42.9659 23.6593 42.9528C23.6575 42.9222 23.6496 42.8407 23.6356 42.7084L23.6363 42.7149L23.6363 42.7148C23.6347 42.6996 23.6339 42.691 23.6334 42.6823L23.6161 42.4274L23.618 42.4494C23.6168 42.4382 23.6159 42.4259 23.6151 42.4125L23.6151 42.4125C23.612 42.3622 23.6071 42.2131 23.6002 41.965C23.6 41.9567 23.5999 41.9484 23.6 41.9401L23.6021 41.703L23.6021 41.7004C23.603 41.6314 23.6046 41.5705 23.6068 41.5177L23.6062 41.5465C23.6063 41.4473 23.6068 41.3821 23.6077 41.351C23.6082 41.3354 23.6089 41.3211 23.6099 41.3081L23.6081 41.3415C23.6082 41.3403 23.6082 41.339 23.6082 41.3376C23.6091 41.3081 23.6117 41.2621 23.6159 41.1996L23.6161 41.1965L23.6456 40.7827L23.6451 40.7905C23.6473 40.7544 23.6483 40.7299 23.6482 40.7171C23.6482 40.7195 23.6484 40.723 23.6486 40.7274C23.6484 40.7231 23.6482 40.7189 23.648 40.7146C23.6458 40.6544 23.6438 40.6153 23.6421 40.5973C23.6421 40.5982 23.6423 40.5996 23.6425 40.6013C23.6413 40.5913 23.6403 40.5813 23.6396 40.5713C23.6398 40.5745 23.64 40.577 23.6402 40.5788C23.637 40.5513 23.6257 40.4939 23.6065 40.4064C23.6032 40.3917 23.6005 40.3768 23.5982 40.3619C23.5981 40.3613 23.598 40.3607 23.5979 40.36L23.5979 40.3597C23.5927 40.3251 23.5894 40.2933 23.5881 40.2642C23.5868 40.2367 23.5872 40.2092 23.5892 40.1817C23.5873 40.2077 23.5891 40.2392 23.5948 40.2761C23.5791 40.1734 23.5869 40.0687 23.6177 39.9692C23.693 39.7256 23.8489 39.5601 24.0854 39.4728L24.0854 39.4727C24.5266 39.3098 24.8621 39.4538 25.0919 39.9045C25.1155 39.9509 25.1396 40.0047 25.1641 40.0658C25.1999 40.1553 25.2165 40.2508 25.2131 40.3466C25.2112 40.3989 25.2091 40.4397 25.2069 40.4689C25.2057 40.4841 25.2043 40.4982 25.2028 40.5113C25.2014 40.5232 25.1997 40.5352 25.1976 40.5471L25.1744 40.6828L25.1747 40.681C25.1772 40.6659 25.1789 40.6532 25.1797 40.6431C25.1791 40.6501 25.1785 40.6631 25.1778 40.6823L25.1762 40.6045L25.181 40.6666C25.1823 40.6832 25.183 40.6998 25.1831 40.7164C25.1831 40.725 25.1832 40.7309 25.1832 40.7339C25.175 40.3315 24.9593 40.1041 24.5361 40.0516C24.871 40.0927 25.1355 40.3469 25.1781 40.6696L25.1879 40.7435C25.1906 40.764 25.1923 40.7846 25.1932 40.8052L25.196 40.8734C25.1966 40.8873 25.1967 40.9012 25.1964 40.9151L25.1948 40.9968C25.1944 41.0177 25.193 41.0386 25.1907 41.0594L25.166 41.2805L25.1702 41.2129L25.1687 41.3315L25.1672 41.2762L25.1765 41.4119L25.1762 41.4086C25.182 41.4866 25.1741 41.5713 25.1528 41.6628L25.1528 41.6627C25.1515 41.6682 25.1502 41.6738 25.1487 41.6795C25.0543 42.0632 24.6541 42.3007 24.2548 42.21C23.8554 42.1193 23.6083 41.7347 23.7027 41.3511Z" fill="black"/>
<path d="M22.8662 44.5041C22.8996 44.5652 22.9406 44.6201 22.9876 44.6683H22.9875C22.9885 44.6754 22.9896 44.6825 22.9907 44.6897C22.946 44.6373 22.9045 44.5755 22.8661 44.5041H22.8662ZM25.4425 43.2656C25.1724 43.2656 24.9316 43.3776 24.72 43.6017C24.6562 43.6692 24.6058 43.7473 24.5711 43.8322C24.5548 43.8721 24.54 43.9119 24.5267 43.9517C24.5093 43.9372 24.4918 43.9231 24.4742 43.9096C24.3933 43.8475 24.3095 43.7958 24.2228 43.7545H24.2227C24.0592 43.4765 23.8468 43.3375 23.5857 43.3375C23.4417 43.3375 23.2829 43.3798 23.1092 43.4643C23.0578 43.4894 23.0073 43.5195 22.9577 43.5548C22.9239 43.5789 22.8921 43.6056 22.8627 43.6346C22.6516 43.8431 22.5552 44.0866 22.5735 44.365H22.5734C22.5718 44.7136 22.681 45.0539 22.9011 45.386C22.9165 45.4093 22.9332 45.4317 22.9511 45.4531C23.118 45.6527 23.2782 45.8213 23.4316 45.9589H23.4316C23.5332 46.1999 23.7008 46.4409 23.9344 46.682C23.9404 46.6882 23.9465 46.6942 23.9527 46.7002C24.0753 46.8185 24.1993 46.9142 24.3244 46.9872C24.3444 46.9988 24.3644 47.01 24.3843 47.0206H24.3842C24.5292 47.1224 24.6797 47.2022 24.8358 47.26C24.9152 47.2894 24.9991 47.3062 25.0841 47.3097C25.1072 47.3106 25.1299 47.3111 25.1521 47.3111C25.6641 47.3111 25.9364 47.0604 25.9689 46.5589H25.9688C26.0383 46.4277 26.1011 46.2605 26.1575 46.0573H26.1574C26.1767 46.0501 26.1961 46.0424 26.2156 46.0342C26.2711 46.0109 26.3235 45.9815 26.3719 45.9466C26.5491 45.8186 26.6856 45.6476 26.7813 45.4335C26.8183 45.3507 26.8489 45.2615 26.8731 45.1661C26.8801 45.1388 26.8854 45.1111 26.8891 45.0831C26.9432 44.6753 26.8177 44.368 26.5126 44.1612H26.5125C26.4563 44.1169 26.3962 44.0732 26.3322 44.0301H26.3321C26.3314 44.0268 26.3306 44.0236 26.3299 44.0205C26.2157 43.5283 25.9276 43.2767 25.4658 43.2658C25.458 43.2657 25.4503 43.2656 25.4425 43.2656Z" fill="black"/>
<path d="M54.4433 25.3801C54.378 25.4014 54.3066 25.4121 54.2291 25.4121C54.1681 25.4121 54.1033 25.4055 54.0347 25.3922H54.0351C54.0936 25.4031 54.1525 25.4085 54.211 25.4085C54.2895 25.4085 54.3675 25.3989 54.443 25.3801H54.4433ZM56.6843 22.3808C56.5418 22.3808 56.4005 22.4013 56.2604 22.4423H56.26C55.5907 22.5277 54.7646 22.95 53.7815 23.7091H53.7812C53.6583 23.7598 53.5377 23.8342 53.4193 23.9323C52.9617 24.3115 52.1213 25.5431 50.898 27.6271L47.3472 27.4783H47.3469C47.2167 27.3621 47.0808 27.213 46.9391 27.031H46.9388C46.1813 25.5842 45.3987 24.535 44.5911 23.8834C44.5847 23.8782 44.5782 23.8731 44.5716 23.8681C43.6199 23.1416 42.781 22.7784 42.0549 22.7784C41.8454 22.7784 41.6454 22.8086 41.4547 22.8691C41.3275 22.9094 41.2062 22.9625 41.0911 23.0282C41.0606 23.0456 41.0307 23.0639 41.0013 23.0829H41.0011C39.9822 23.5524 39.3659 24.3383 39.1519 25.4408H39.1517C39.0659 25.7463 39.0122 26.0693 38.9908 26.4098C38.9905 26.4139 38.9903 26.4179 38.9901 26.422L38.8184 29.9462C38.7945 30.4366 39.189 30.8527 39.6994 30.8757C39.7141 30.8763 39.7288 30.8767 39.7434 30.8767C40.2345 30.8767 40.6437 30.5055 40.6669 30.0293L40.8385 26.5051H40.8387C40.8537 26.2795 40.8894 26.0702 40.946 25.8773C40.9543 25.8488 40.9611 25.82 40.9665 25.7909C41.0655 25.252 41.36 24.8764 41.8501 24.664C41.9155 24.6357 41.9773 24.6001 42.0342 24.5581C42.0347 24.5577 42.0352 24.5573 42.0356 24.5571H42.0354C42.0602 24.5493 42.0882 24.5454 42.1193 24.5454C42.3618 24.5454 42.7934 24.782 43.4142 25.2552H43.4139C44.0337 25.7603 44.6685 26.6393 45.3182 27.8921C45.3411 27.9363 45.3677 27.9785 45.3979 28.0184C45.7469 28.4796 46.1049 28.8339 46.472 29.0813C46.6164 29.1786 46.7868 29.2343 46.963 29.2417L50.9576 29.4091C50.9695 29.4096 50.9814 29.4099 50.9933 29.4099C50.997 29.4099 51.0007 29.4099 51.0044 29.4099C51.1002 29.4099 51.1929 29.4039 51.2824 29.3919C51.7104 29.3345 52.0484 29.1525 52.2961 28.846C52.3245 28.8109 52.3501 28.7738 52.3726 28.7351C53.4844 26.8276 54.2129 25.6971 54.5582 25.3437H54.5578C54.6449 25.3099 54.7271 25.2631 54.8011 25.2042C55.619 24.5537 56.1892 24.2202 56.512 24.2037C56.5593 24.2012 56.6063 24.1953 56.6526 24.186H56.6529C56.676 24.2034 56.7024 24.2257 56.7322 24.2531H56.7318C57.1003 24.6734 57.3234 25.065 57.4012 25.428H57.4008L57.1525 32.1906C57.1487 32.2954 57.1642 32.4 57.1983 32.4997C57.4554 33.2504 57.6453 34.6713 57.7681 36.7624H57.7681C57.7873 37.1827 57.7071 37.7317 57.5276 38.4094C57.5185 38.4437 57.5116 38.4785 57.5068 38.5135H57.5064C57.4338 38.7223 57.1708 39.2448 56.7172 40.081C56.6923 40.127 56.6716 40.175 56.6554 40.2244C56.555 40.53 56.4931 40.7657 56.4697 40.9315C56.4538 41.044 56.4513 41.148 56.4623 41.2434C56.4722 41.33 56.4953 41.4147 56.5309 41.4948C57.4299 43.5203 57.8181 44.9402 57.6955 45.7545C57.6224 46.2404 57.973 46.6912 58.4788 46.7615C58.5237 46.7677 58.5683 46.7707 58.6124 46.7707C59.0647 46.7707 59.4603 46.4517 59.5269 46.009C59.6932 44.9045 59.2963 43.2456 58.3361 41.0322H58.3357C58.3508 40.9781 58.3709 40.912 58.3959 40.8338H58.3955C58.9097 39.8827 59.2101 39.2606 59.2968 38.9674C59.3153 38.9047 59.329 38.844 59.3378 38.7852H59.3374C59.5518 37.9588 59.6447 37.2539 59.6162 36.6706C59.616 36.6678 59.6159 36.665 59.6157 36.6622C59.4912 34.5433 59.2886 33.0239 59.0078 32.104H59.0074L59.2537 25.3945C59.2557 25.3382 59.2522 25.2818 59.2432 25.2261C59.1255 24.5017 58.7477 23.7815 58.1098 23.0655C58.0931 23.0468 58.0756 23.0287 58.0573 23.0114C57.824 22.7898 57.586 22.6271 57.3432 22.5233C57.1209 22.4283 56.9012 22.3808 56.6843 22.3808Z" fill="black"/>
<path d="M46.1366 45.9102C46.1691 45.9658 46.1949 46.0305 46.2139 46.1044H46.2138C46.1976 46.0438 46.1749 45.9849 46.1458 45.9289C46.1426 45.9227 46.1394 45.9165 46.1363 45.9102H46.1366ZM51.2029 40.2804C51.1111 40.2804 51.0178 40.2936 50.9257 40.3214L50.3027 40.5091H50.3024C49.5528 40.6079 48.9164 40.7254 48.3932 40.8618L48.3895 40.8627C47.9596 40.9766 47.6276 41.0879 47.3935 41.1967L47.392 41.1973C46.4907 41.6178 45.7517 42.1167 45.1751 42.6938H45.1749C44.6179 43.1586 44.2752 43.6212 44.1469 44.0815C44.1188 44.1819 44.1006 44.2823 44.0922 44.3827H44.092C44.0026 45.2334 44.1268 45.9967 44.4646 46.6726H44.4643C44.5378 46.8471 44.665 47.0048 44.8462 47.1457C45.0478 47.3026 45.3911 47.4904 45.8761 47.7092C45.9392 47.7376 46.0055 47.7592 46.0736 47.7733C46.4493 47.8514 46.7636 47.8905 47.0164 47.8905C47.0747 47.8905 47.1297 47.8884 47.1814 47.8842L47.1815 47.8842C47.1986 47.8829 47.2155 47.8813 47.2322 47.8795H47.2319C47.7036 47.8604 48.1989 47.783 48.7176 47.6472C48.7598 47.6362 48.8011 47.6223 48.8412 47.6057L50.3756 46.9693C50.3818 46.9668 50.3879 46.9642 50.394 46.9615H50.3936C50.544 46.9081 50.9894 46.8115 51.7299 46.6715H51.7296C52.1428 46.6107 52.623 46.5794 53.17 46.5777C53.1742 46.5776 53.1782 46.5776 53.1823 46.5775C53.2138 46.577 53.2449 46.5768 53.2755 46.5768C53.7249 46.5768 54.0804 46.631 54.3418 46.7395C54.4614 46.7891 54.5858 46.8126 54.7083 46.8126C55.0663 46.8126 55.4071 46.6118 55.5581 46.276C55.7607 45.8253 55.5447 45.3022 55.0756 45.1075C54.5801 44.9019 53.9786 44.7991 53.2712 44.7991C53.2336 44.7991 53.1958 44.7993 53.1576 44.7999H53.1573C52.5124 44.8023 51.9363 44.8414 51.4289 44.9172C51.4169 44.919 51.4049 44.9211 51.3929 44.9233C50.5268 45.0868 49.9718 45.2133 49.7278 45.3027L49.7278 45.3028C49.6907 45.3164 49.6559 45.3305 49.6234 45.3451H49.6231L48.1696 45.9478H48.1693C47.7964 46.0416 47.4481 46.0937 47.1246 46.1044C47.0912 46.1055 47.0579 46.1083 47.0248 46.1129H47.0245C47.0149 46.1135 47.0043 46.1139 46.9927 46.1139C46.9058 46.1139 46.7639 46.0947 46.567 46.0563H46.5667C46.35 45.9568 46.1923 45.8777 46.0936 45.819H46.0933C45.9345 45.4573 45.8816 45.0331 45.9347 44.5465C45.935 44.5437 45.9353 44.5408 45.9356 44.538H45.9353C45.9698 44.4226 46.1299 44.2477 46.4156 44.0134C46.4407 43.9928 46.4647 43.9709 46.4875 43.9477C46.9135 43.5144 47.484 43.1309 48.1989 42.7972C48.3316 42.7356 48.5578 42.6624 48.8776 42.5775C49.3408 42.4569 49.9241 42.3513 50.6277 42.2608C50.68 42.2541 50.7315 42.2431 50.7818 42.2279L51.4795 42.0177C51.9671 41.8708 52.2384 41.3719 52.0854 40.9035C51.9614 40.5236 51.5965 40.2804 51.2029 40.2804Z" fill="black"/>
<path d="M51.2765 34.6855C51.1621 34.6855 51.0492 34.6978 50.938 34.7224C50.9158 34.7273 50.8939 34.7332 50.8722 34.7399C50.3421 34.905 50.0439 35.2566 49.9777 35.7947C49.9772 35.7989 49.9766 35.8032 49.9761 35.8077C49.9757 35.8112 49.9754 35.8146 49.975 35.8181C49.9303 36.268 50.0262 36.6914 50.2626 37.0885C50.2642 37.0912 50.2658 37.0939 50.2675 37.0966C50.3383 37.2121 50.4193 37.3151 50.5105 37.4056C50.7475 37.6406 51.0347 37.7805 51.3721 37.8252C51.4191 37.8314 51.4667 37.8356 51.515 37.8378C51.5274 37.8384 51.5398 37.8386 51.5522 37.8386C51.5552 37.8386 51.5581 37.8386 51.561 37.8386C51.8321 37.8357 52.0724 37.7938 52.2819 37.713C52.5244 37.6194 52.7205 37.4785 52.87 37.2901H52.8697C53.0134 37.1182 53.1099 36.9218 53.1593 36.7011C53.214 36.4563 53.2072 36.1904 53.1389 35.9034C53.1327 35.8776 53.1252 35.8521 53.1162 35.827C53.0536 35.6515 52.9737 35.4979 52.8764 35.366C52.7058 35.1345 52.4901 34.9747 52.2294 34.8865H52.2292C52.1946 34.8745 52.1593 34.8637 52.1234 34.854L52.1233 34.854C52.0537 34.8352 51.9819 34.8208 51.908 34.8108H51.9077C51.8827 34.7993 51.8571 34.7891 51.8309 34.7802C51.6807 34.729 51.5305 34.6985 51.3803 34.6889H51.3802C51.3455 34.6866 51.3109 34.6855 51.2765 34.6855Z" fill="black"/>
<path d="M42.6735 34.0777C42.6639 34.0777 42.6542 34.0778 42.6446 34.0782C42.6257 34.0788 42.6069 34.0798 42.5881 34.0812C42.3351 34.0988 42.107 34.1723 41.9037 34.3015H41.9035C41.6388 34.4601 41.4303 34.6405 41.2781 34.8428C41.2029 34.9427 41.157 35.0544 41.1387 35.1685H41.1385C41.016 35.3551 40.9486 35.5553 40.9363 35.769C40.935 35.7907 40.9347 35.8125 40.9354 35.8343C40.9364 35.8622 40.9381 35.8901 40.9407 35.918C40.9755 36.298 41.1587 36.6691 41.4904 37.0314H41.4902C41.496 37.0385 41.5019 37.0455 41.5078 37.0524L41.5078 37.0525C41.657 37.2276 41.8386 37.3623 42.0526 37.4565C42.2192 37.5299 42.4008 37.5761 42.5973 37.5951C42.6234 37.5977 42.6496 37.599 42.6759 37.599C42.696 37.599 42.716 37.5982 42.736 37.5967C43.4068 37.547 43.895 37.2025 44.2008 36.563C44.2116 36.5405 44.2212 36.5175 44.2296 36.4941C44.281 36.3506 44.3146 36.2169 44.3304 36.093C44.3424 35.9982 44.3444 35.907 44.3362 35.8196H44.3359C44.333 35.7507 44.3213 35.6794 44.301 35.6056C44.2697 35.4922 44.1967 35.2952 44.082 35.0149H44.0819C44.0132 34.8398 43.9105 34.6824 43.7739 34.5429C43.7222 34.49 43.6659 34.4402 43.6052 34.3935C43.5876 34.38 43.5695 34.3672 43.5509 34.3553C43.4065 34.2625 43.2592 34.1929 43.1091 34.1464C42.9695 34.1031 42.829 34.0803 42.6877 34.0778C42.6829 34.0777 42.6782 34.0777 42.6735 34.0777Z" fill="black"/>
<path d="M49.3873 33.2054C49.3878 33.2057 49.3883 33.2059 49.3888 33.2062H49.3885C49.3686 33.3413 49.3873 33.4795 49.4431 33.6057H49.4428C49.4085 33.5312 49.3865 33.4605 49.3769 33.3937H49.3766C49.3714 33.3348 49.3749 33.2721 49.387 33.2054H49.3873ZM49.632 33.6844C49.6292 33.7048 49.6257 33.7243 49.6213 33.7431C49.6212 33.7431 49.6211 33.743 49.6209 33.743H49.6206C49.6251 33.7236 49.6288 33.7041 49.6317 33.6844H49.632ZM49.6198 33.7481C49.62 33.7482 49.6202 33.7482 49.6204 33.7483H49.6201C49.6195 33.7507 49.619 33.7531 49.6184 33.7554C49.6182 33.7554 49.6181 33.7554 49.618 33.7553H49.6177C49.6183 33.7529 49.6189 33.7505 49.6194 33.7481H49.6198ZM49.7007 32.246C49.5578 32.246 49.4186 32.2742 49.2829 32.3308C49.1772 32.3748 49.0772 32.4414 48.9828 32.5305H48.9825C48.9117 32.5607 48.8611 32.5831 48.8307 32.5976C48.7459 32.6379 48.6723 32.6819 48.6098 32.7297H48.6095C48.5533 32.7679 48.5024 32.8063 48.4568 32.8448C48.2591 33.012 48.138 33.1995 48.0937 33.4073H48.0934C47.9334 33.9315 48.1331 34.3126 48.6925 34.5506C48.7491 34.5747 48.8085 34.5922 48.8694 34.6029C48.9732 34.621 49.0791 34.6301 49.1872 34.6301C49.3885 34.6301 49.5974 34.5986 49.8137 34.5358C50.0839 34.4575 50.3179 34.3268 50.5158 34.1436H50.5155C50.5663 34.1009 50.612 34.0587 50.6525 34.017C50.9133 33.7484 51.0099 33.4717 50.9422 33.1869H50.9419C50.9148 33.0013 50.8141 32.8258 50.6396 32.6603C50.5939 32.6169 50.5398 32.5711 50.4773 32.523H50.477C50.3987 32.4575 50.3131 32.4035 50.2203 32.3611H50.22C50.1426 32.3205 50.0608 32.2932 49.9747 32.2791H49.9743C49.9688 32.2779 49.9633 32.2767 49.9577 32.2755H49.9574C49.8706 32.2558 49.785 32.246 49.7007 32.246Z" fill="black"/>
<path d="M45.9268 38.5695C45.9121 38.6535 45.8844 38.7408 45.8437 38.8315C45.7956 38.9387 45.7227 39.0645 45.6249 39.209C45.6041 39.2398 45.5809 39.269 45.5557 39.2965C45.3251 39.5476 45.1869 39.7096 45.141 39.7825C45.157 39.7571 45.1717 39.7228 45.1853 39.6796C45.0657 40.0594 44.6595 40.2844 44.2574 40.1935C43.8554 40.1026 43.5962 39.7271 43.6655 39.336C43.6809 39.249 43.7116 39.1582 43.7576 39.0634C43.8312 38.9118 43.975 38.6937 44.1891 38.4092C44.2033 38.3904 44.2183 38.3723 44.2342 38.3548C44.4876 38.0764 44.6605 37.896 44.7527 37.8138C44.8896 37.6918 45.0381 37.6177 45.1984 37.5917C45.3132 37.5731 45.431 37.5793 45.543 37.61L45.5426 37.6099C45.5461 37.6108 45.5495 37.6118 45.5528 37.6127L45.5531 37.6128C45.7607 37.671 45.9216 37.7684 46.0359 37.905L46.0014 37.8666C46.083 37.9516 46.1577 38.047 46.2255 38.1527L46.1243 38.027C46.1791 38.0819 46.2289 38.1494 46.2738 38.2296C46.3362 38.3413 46.4539 38.5977 46.6269 38.9991C46.631 39.0086 46.6349 39.0182 46.6386 39.0279C46.6345 39.0172 46.6309 39.0089 46.6279 39.0031C46.6379 39.0222 46.6596 39.0543 46.693 39.0996C46.9425 39.4384 46.859 39.9074 46.5064 40.1471C46.1538 40.3869 45.6656 40.3066 45.416 39.9679C45.3381 39.8622 45.2768 39.7668 45.232 39.6818C45.2074 39.6351 45.1867 39.5896 45.1697 39.5452L45.1814 39.574C45.0286 39.2193 44.9333 39.0083 44.8958 38.9412C44.9183 38.9814 44.9514 39.0234 44.9951 39.0672C44.9568 39.0288 44.9229 38.9867 44.8938 38.9415C44.8787 38.9179 44.8643 38.899 44.8508 38.8849C44.8389 38.8725 44.8274 38.8597 44.8164 38.8465C44.9077 38.9557 45.0071 39.0254 45.1145 39.0555L45.1148 39.0556C45.1148 39.0556 45.1148 39.0556 45.1148 39.0556L45.459 39.0737C45.606 39.0498 45.7253 38.9971 45.8168 38.9156C45.7645 38.9622 45.6295 39.105 45.4119 39.3441L45.457 39.2898C45.301 39.4971 45.2071 39.6334 45.1754 39.6987C45.1888 39.671 45.1996 39.6341 45.2078 39.588L43.6879 39.2444C43.7123 39.1669 43.7504 39.087 43.8023 39.0046C43.8967 38.8548 44.0901 38.6206 44.3826 38.3021L44.3134 38.3896C44.3628 38.3165 44.3941 38.2655 44.407 38.2366C44.3979 38.257 44.3902 38.2849 44.384 38.3202C44.4557 37.9109 44.8592 37.635 45.2852 37.7038C45.7112 37.7727 45.9985 38.1603 45.9268 38.5695Z" fill="black"/>
<path d="M51.6761 35.9284C51.6449 35.9805 51.6092 36.0259 51.5693 36.0647H51.5691C51.6093 36.024 51.6452 35.9785 51.6758 35.9284H51.6761ZM51.3438 36.1255C51.3777 36.1377 51.4124 36.1477 51.4477 36.1554H51.4473C51.4425 36.1581 51.4376 36.1607 51.4326 36.1633C51.397 36.1559 51.3624 36.1458 51.3288 36.1329H51.3285C51.3335 36.1305 51.3385 36.128 51.3435 36.1255H51.3438ZM51.9951 36.0822C51.9029 36.1316 51.8134 36.1599 51.7267 36.1671C51.8185 36.155 51.9093 36.127 51.9948 36.0822H51.9951ZM51.4584 36.1576C51.5023 36.1666 51.5471 36.1719 51.5921 36.1735H51.5918C51.5937 36.1751 51.5955 36.1766 51.5974 36.1783H51.5971C51.5926 36.1783 51.5882 36.1784 51.5837 36.1784C51.5363 36.1784 51.4904 36.1742 51.4461 36.1659H51.4458C51.4499 36.1632 51.454 36.1604 51.458 36.1576H51.4584ZM51.6946 36.2687C51.7028 36.2769 51.7113 36.2853 51.72 36.2941C51.8737 36.4491 52.0799 36.5272 52.2864 36.5272C52.3778 36.5272 52.4692 36.5119 52.5561 36.4813H52.5565C52.4318 36.5287 52.3168 36.5525 52.2113 36.5525C52.014 36.5525 51.8502 36.4694 51.72 36.3032H51.7196C51.7196 36.3028 51.7195 36.3024 51.7195 36.3021H51.719C51.7106 36.2913 51.7024 36.2802 51.6942 36.2687H51.6946ZM51.6117 36.1907C51.631 36.2078 51.652 36.2274 51.6749 36.2495H51.6746C51.6864 36.2735 51.7003 36.3029 51.7165 36.3378H51.7161C51.7104 36.3772 51.6968 36.4309 51.6751 36.499H51.6747C51.6586 36.5243 51.6311 36.5584 51.5922 36.6013H51.5919C51.5391 36.6328 51.4795 36.6486 51.413 36.6486C51.384 36.6486 51.3537 36.6456 51.3221 36.6396H51.3217C51.2363 36.5996 51.1484 36.5371 51.0579 36.4523H51.0576C51.0574 36.4461 51.057 36.44 51.0566 36.4339H51.0563C51.0634 36.3991 51.078 36.352 51.1002 36.2928H51.0998C51.1864 36.2822 51.2705 36.2578 51.3485 36.2207H51.3482L51.4761 36.2115C51.5127 36.2089 51.5491 36.2038 51.5851 36.1962C51.5942 36.1943 51.603 36.1925 51.6114 36.1907H51.6117ZM51.6657 34.6644C51.59 34.6644 51.518 34.6721 51.4496 34.6877H51.4493C51.4185 34.6934 51.3703 34.7031 51.3045 34.7167H51.3042L51.1433 34.7283C51.0887 34.7167 51.0325 34.7107 50.9755 34.7107C50.9094 34.7107 50.8421 34.7188 50.7751 34.7358C50.7144 34.7512 50.6508 34.7736 50.5844 34.8029C50.48 34.8489 50.3461 34.9228 50.1826 35.0246C50.1771 35.028 50.1718 35.0314 50.1664 35.0349C50.1299 35.0589 50.0965 35.0823 50.0662 35.1051C49.913 35.2206 49.8065 35.3512 49.7467 35.4972H49.7464C49.6104 35.8048 49.5289 36.0587 49.5017 36.2588C49.488 36.3593 49.4861 36.4544 49.4959 36.5441H49.4956C49.4994 36.6205 49.5088 36.6953 49.5237 36.7687C49.5622 36.9571 49.636 37.1309 49.7451 37.2901C49.767 37.3219 49.7913 37.3521 49.8179 37.3804C50.1118 37.6932 50.4312 37.9165 50.7762 38.0505C50.8037 38.0612 50.8319 38.0704 50.8606 38.078C51.062 38.1316 51.2565 38.1584 51.444 38.1584C51.8717 38.1584 52.263 38.019 52.618 37.7402C52.6468 37.7175 52.674 37.6929 52.6992 37.6665C52.8632 37.4948 52.9862 37.3339 53.068 37.184C53.1114 37.1044 53.1451 37.0251 53.1689 36.9463H53.1686C53.2514 36.6883 53.2895 36.4561 53.2828 36.2497C53.2796 36.151 53.2664 36.0569 53.2433 35.9673C53.2329 35.9271 53.2191 35.8878 53.202 35.8498C53.1199 35.6677 53.0559 35.537 53.01 35.4578C52.9172 35.2976 52.8112 35.1798 52.6922 35.1044H52.6918C52.5487 34.9768 52.4115 34.8775 52.28 34.8066L52.28 34.8066C52.264 34.798 52.248 34.7897 52.2321 34.7818C52.1776 34.7549 52.1201 34.7342 52.0606 34.7201C51.9749 34.6999 51.8994 34.6853 51.8343 34.6764C51.7762 34.6684 51.72 34.6644 51.6657 34.6644Z" fill="black"/>
<path d="M48.9343 33.0497C48.8768 33.1933 48.8666 33.3507 48.9045 33.4995C48.8489 33.3546 48.8581 33.2051 48.9322 33.0507H48.9319C48.9326 33.0504 48.9333 33.0501 48.934 33.0497H48.9343ZM49.9618 34.0156C49.961 34.0175 49.9601 34.0195 49.9593 34.0214H49.9589C49.8746 34.0577 49.7897 34.0758 49.7044 34.0758C49.6789 34.0758 49.6534 34.0742 49.6278 34.071H49.6281C49.6402 34.0715 49.6523 34.0718 49.6644 34.0718C49.7654 34.0718 49.8664 34.0531 49.9615 34.0156H49.9618ZM49.6968 32.5081C49.5168 32.5081 49.3374 32.5873 49.1586 32.7456C49.1499 32.7533 49.1389 32.7633 49.1254 32.7756C49.0948 32.8035 49.0671 32.8332 49.0423 32.8643H49.042C49.036 32.8703 49.0298 32.8764 49.0234 32.8827H49.0232L48.6584 33.2277C48.6524 33.2334 48.6464 33.2393 48.6405 33.2452C48.3396 33.5491 48.3148 33.8697 48.5661 34.207L48.5671 34.2083C48.7431 34.4434 48.9402 34.5609 49.1586 34.5609C49.3168 34.5609 49.4862 34.4991 49.6667 34.3756C49.7026 34.3513 49.7398 34.3218 49.7783 34.2874C49.7814 34.2846 49.7845 34.2818 49.7875 34.279C49.7954 34.2719 49.8032 34.2646 49.8107 34.2571L49.9538 34.1158H49.9535C49.9967 34.0817 50.0354 34.0437 50.0693 34.0027H50.0689L50.1306 33.9444C50.1339 33.9413 50.1371 33.9382 50.1403 33.9351C50.1911 33.8853 50.2368 33.8389 50.2773 33.7959C50.2817 33.7912 50.2861 33.7864 50.2904 33.7817C50.6317 33.4003 50.6047 33.0468 50.2094 32.7211C50.0381 32.5791 49.8672 32.5081 49.6968 32.5081Z" fill="black"/>
<path d="M43.8075 31.5374C43.7043 31.5374 43.5985 31.5533 43.4901 31.5851C43.358 31.6238 43.2444 31.6931 43.1551 31.7824H43.1548C43.1143 31.8093 43.0752 31.8389 43.0375 31.8711H43.0374C42.7212 32.1372 42.6166 32.4469 42.7238 32.7999H42.7235C42.7421 32.874 42.768 32.948 42.8014 33.0221C42.8887 33.2162 43.0306 33.416 43.2273 33.6216C43.2448 33.6399 43.2633 33.6574 43.2828 33.674C43.2873 33.6779 43.2918 33.6817 43.2963 33.6855L43.2964 33.6855C43.4722 33.8325 43.7379 33.9818 44.0937 34.1332C44.1141 34.1419 44.135 34.1498 44.1561 34.1567C44.2188 34.1775 44.286 34.194 44.3576 34.2062C44.4564 34.2231 44.5678 34.2325 44.6918 34.2343H44.6915C44.7187 34.2362 44.7454 34.2372 44.7716 34.2372C45.1294 34.2372 45.3867 34.0612 45.5434 33.7092C45.555 33.6829 45.5652 33.6561 45.5736 33.6288C45.6328 33.4386 45.6419 33.2379 45.6011 33.0265C45.5664 32.847 45.4948 32.6604 45.3862 32.4667L45.3849 32.4643C45.2301 32.1906 45.0177 31.9804 44.7476 31.8338H44.7473C44.7061 31.8085 44.6615 31.7856 44.6137 31.765C44.5923 31.7557 44.5665 31.7454 44.5365 31.7338H44.5362C44.4094 31.653 44.2635 31.6022 44.0985 31.5816H44.0983C44.0038 31.5521 43.9068 31.5374 43.8075 31.5374Z" fill="black"/>
<path d="M60.4803 35.4631C60.4864 35.4631 60.4931 35.4632 60.5001 35.4634H60.5C60.4932 35.4633 60.4864 35.4632 60.4796 35.4631H60.4791C60.4795 35.4631 60.4799 35.4631 60.4803 35.4631ZM62.6858 35.2753C62.6158 35.2753 62.5445 35.2844 62.4737 35.3036C62.3917 35.3257 62.2963 35.3419 62.1877 35.3522C62.1759 35.3533 62.1642 35.3547 62.1525 35.3563C62.1202 35.3608 62.0459 35.3668 61.9295 35.3744C61.9146 35.3753 61.8998 35.3767 61.885 35.3785C61.7648 35.3929 61.6753 35.4021 61.6165 35.4061H61.6161L61.4919 35.4112C61.483 35.4116 61.4741 35.4121 61.4652 35.4128C61.3696 35.4199 61.2801 35.4255 61.1968 35.4295H61.1964L60.638 35.4523C60.6298 35.4526 60.6217 35.4531 60.6135 35.4537C60.5405 35.4588 60.4925 35.462 60.4693 35.4632H60.4689C60.4597 35.4632 60.4506 35.4632 60.4416 35.4632C60.1632 35.4632 59.9389 35.4606 59.7688 35.4553C59.7604 35.4551 59.7521 35.4549 59.7438 35.4549C59.7386 35.4549 59.7334 35.455 59.7283 35.4551L59.4707 35.46C59.4486 35.4604 59.4265 35.4618 59.4046 35.464C59.351 35.4694 59.2775 35.4735 59.184 35.4764C59.1727 35.4767 59.1615 35.4773 59.1502 35.4781C59.1248 35.4799 59.1018 35.4819 59.0812 35.4841C59.065 35.4858 59.0496 35.4877 59.035 35.4897L59.0348 35.4897C58.6073 35.5492 58.311 35.9305 58.3729 36.3412C58.4294 36.7154 58.7638 36.985 59.146 36.985C59.1807 36.985 59.2157 36.9828 59.251 36.9782H59.2506C59.2513 36.9781 59.2522 36.9781 59.2532 36.978H59.2528C59.3595 36.9745 59.4527 36.9692 59.5322 36.9621H59.5318L59.7392 36.9581H59.7397C59.9236 36.9635 60.1578 36.9661 60.4424 36.9661C60.4531 36.9661 60.4638 36.9661 60.4746 36.9661H60.4751C60.4768 36.9661 60.4786 36.9661 60.4804 36.9661C60.4947 36.9661 60.5098 36.9658 60.5257 36.9652L60.5259 36.9652C60.5608 36.9638 60.6241 36.9599 60.7159 36.9535H60.7154L61.2682 36.9309C61.2702 36.9308 61.2722 36.9307 61.2742 36.9306C61.368 36.9261 61.4673 36.92 61.5722 36.9123H61.5717L61.6942 36.9072C61.6997 36.9069 61.7053 36.9067 61.7108 36.9063C61.7963 36.901 61.9117 36.8897 62.0569 36.8725H62.0565C62.187 36.8638 62.2863 36.8552 62.3545 36.8467H62.3541C62.5492 36.8276 62.7302 36.7955 62.8971 36.7504C63.313 36.6381 63.5554 36.2232 63.4385 35.8236C63.3414 35.4921 63.0275 35.2753 62.6858 35.2753Z" fill="black"/>
<path d="M58.896 39.7165C58.8791 39.7191 58.8628 39.7211 58.847 39.7224C58.8632 39.7209 58.8794 39.719 58.8956 39.7165H58.896ZM58.7998 38.2208C58.7361 38.2208 58.6754 38.2265 58.6177 38.2379C58.1946 38.3213 57.9219 38.7186 58.0088 39.1251C58.0842 39.4778 58.4053 39.7216 58.7653 39.7256H58.7649C58.9727 39.7656 59.1963 39.8006 59.4355 39.8305C59.4412 39.8312 59.4469 39.8319 59.4527 39.8325L59.6898 39.857C59.7049 39.8586 59.7201 39.8597 59.7357 39.8605L59.7362 39.8605C60.0099 39.8733 60.1739 39.8826 60.2283 39.8884H60.2278L60.4355 39.9166H60.435C60.6912 39.9637 61.0233 40.0153 61.4311 40.0715C61.4393 40.0726 61.4474 40.0736 61.4556 40.0745C61.6012 40.0901 61.7248 40.1005 61.8264 40.1056C61.8401 40.1063 61.8539 40.1067 61.8676 40.1067C61.8715 40.1067 61.8753 40.1066 61.8792 40.1066C61.8875 40.1065 61.8959 40.1064 61.9044 40.1064C61.9408 40.1064 61.9793 40.1075 62.0199 40.1096C62.0343 40.1104 62.0487 40.1108 62.0631 40.1108L62.4971 40.1107H62.4975C62.4992 40.1108 62.5009 40.1108 62.5026 40.1108C62.5269 40.1108 62.5529 40.1099 62.5805 40.1082C62.5997 40.1071 62.6205 40.1055 62.643 40.1034C63.073 40.064 63.3884 39.6971 63.3474 39.284C63.3088 38.8951 62.9682 38.6038 62.5696 38.6038C62.5448 38.6038 62.5197 38.6049 62.4945 38.6072C62.4921 38.6074 62.4901 38.6076 62.4882 38.6078H62.4878L62.0834 38.6078C62.022 38.6049 61.9623 38.6034 61.9043 38.6034C61.8982 38.6034 61.8921 38.6034 61.886 38.6035C61.8211 38.5996 61.7401 38.5925 61.6428 38.5823H61.6424C61.2533 38.5285 60.9428 38.4802 60.7108 38.4371C60.6979 38.4347 60.685 38.4326 60.672 38.4309L60.4369 38.3989C60.4339 38.3985 60.4309 38.3981 60.4279 38.3978C60.4209 38.3969 60.4137 38.396 60.4063 38.3952C60.322 38.386 60.1317 38.3744 59.8353 38.3604H59.8349L59.6312 38.3393H59.6308C59.41 38.3116 59.2075 38.2792 59.0234 38.2423C59.0118 38.24 59.0001 38.2379 58.9884 38.2361C58.9229 38.2259 58.86 38.2208 58.7998 38.2208Z" fill="black"/>
<path d="M39.0937 30.9546C39.0937 30.9546 39.0937 30.9547 39.0937 30.9546ZM39.7604 29.5246C39.7509 29.5246 39.7414 29.5248 39.7318 29.5251C39.3166 29.5399 38.9919 29.8732 39.0027 30.2712H39.0025C39.0022 30.2804 39.0017 30.2941 39.0009 30.3124C39.0003 30.324 39.0001 30.3356 39.0001 30.3472L39.0002 30.3609H39C38.9994 30.3719 38.9989 30.382 38.9985 30.3909C38.9977 30.4101 38.9974 30.4277 38.9976 30.4438H38.9976C38.9978 30.4739 38.9998 30.5059 39.0034 30.5398L39.0034 30.5398C39.0039 30.5439 39.0043 30.548 39.0048 30.5521L39.0048 30.5521C39.0049 30.5535 39.0051 30.5549 39.0053 30.5563C39.0063 30.5648 39.0075 30.5736 39.0088 30.5827C39.017 30.6407 39.0324 30.7193 39.0548 30.8186L39.0549 30.8187C39.0564 30.8255 39.0581 30.8323 39.0598 30.8391L39.0943 30.9726H39.094C39.0944 30.9839 39.095 30.9952 39.0958 31.0064C39.1 31.0598 39.1091 31.1121 39.1233 31.1633C39.2135 31.489 39.5199 31.7041 39.8549 31.7041C39.9193 31.7041 39.9849 31.6961 40.0501 31.6794C40.4201 31.5849 40.653 31.243 40.6074 30.888H40.6072C40.6059 30.8624 40.6039 30.838 40.6012 30.8148C40.5997 30.8021 40.5981 30.7899 40.5965 30.7781C40.5933 30.7556 40.5897 30.7341 40.5857 30.7137C40.5811 30.6901 40.5759 30.6666 40.5701 30.6432C40.5696 30.6413 40.5691 30.6394 40.5686 30.6375L40.5348 30.5063H40.5346C40.5256 30.4665 40.5189 30.4355 40.5146 30.4132H40.5144C40.5151 30.4004 40.5153 30.3877 40.5153 30.3749L40.5152 30.3627H40.515C40.5166 30.3269 40.5174 30.2974 40.5176 30.2743L40.5176 30.2743C40.5177 30.2567 40.5175 30.2404 40.5169 30.2253C40.5017 29.8329 40.1658 29.5246 39.7604 29.5246Z" fill="black"/>
<path d="M39.2397 30.0469C39.2864 30.1031 39.3428 30.1536 39.4082 30.196C39.3407 30.1523 39.2845 30.1026 39.2395 30.0469H39.2397ZM40.1373 30.8568C40.4458 30.8568 40.6665 31.0027 40.7995 31.2947C40.6766 31.0249 40.4007 30.8585 40.1057 30.8585C40.0861 30.8585 40.0664 30.8593 40.0467 30.8607C40.0777 30.8581 40.1079 30.8568 40.1373 30.8568ZM39.9955 30.8663C39.9702 30.8699 39.9449 30.8747 39.9197 30.8808C39.5844 30.9623 39.3523 31.2501 39.348 31.5766H39.3478C39.3472 31.5811 39.3467 31.5855 39.3463 31.59C39.3227 31.1661 39.539 30.9248 39.9953 30.8663H39.9955ZM39.8325 28.8649C39.5891 28.8649 39.3501 28.9773 39.2038 29.1857C39.0662 29.3817 39.0412 29.6188 39.1145 29.8266H39.1142C39.1147 29.8323 39.1152 29.838 39.1158 29.8437L39.1292 29.9735C39.1337 30.0169 39.1423 30.0598 39.1548 30.1018H39.1546C39.1627 30.138 39.1755 30.2128 39.193 30.3261C39.1969 30.3514 39.2022 30.3766 39.213 30.4159H39.2127C39.2154 30.4259 39.2172 30.4334 39.2182 30.4383H39.218L39.2754 30.8404H39.2752C39.2776 30.8863 39.2817 30.9332 39.2876 30.9813H39.2874C39.2887 31.0157 39.2894 31.0415 39.2895 31.059C39.2895 31.0742 39.29 31.0894 39.291 31.1046L39.3047 31.3118H39.3045C39.3057 31.3352 39.3078 31.3597 39.3109 31.3851C39.3166 31.432 39.3278 31.5015 39.3447 31.5934H39.3445C39.3448 31.5961 39.3451 31.5987 39.3454 31.6012H39.3452C39.3176 31.9188 39.5111 32.2278 39.8373 32.3438C39.924 32.3746 40.0129 32.3893 40.1002 32.3893C40.3508 32.3893 40.5891 32.269 40.7302 32.0659H40.73C40.8405 31.932 40.8834 31.7452 40.8586 31.5055C40.8567 31.4871 40.8526 31.452 40.8463 31.4C40.8445 31.3856 40.8423 31.3713 40.8397 31.3571C40.8287 31.2974 40.8213 31.2552 40.8176 31.2303H40.8174C40.8172 31.228 40.8171 31.2257 40.8169 31.2234L40.8046 31.0367H40.8043C40.8039 30.9968 40.8023 30.9471 40.7996 30.8876L40.7995 30.8854L40.7995 30.8852C40.7985 30.8648 40.7967 30.8444 40.7939 30.8241C40.7904 30.7988 40.7884 30.7764 40.7879 30.757C40.7873 30.7298 40.785 30.7026 40.7811 30.6756L40.7172 30.2288L40.7169 30.2266C40.714 30.2066 40.7104 30.1858 40.7061 30.1642L40.7061 30.1641C40.7008 30.1378 40.6943 30.1093 40.6866 30.0788H40.6864C40.6656 29.9466 40.6474 29.8466 40.6318 29.7788H40.6316L40.6263 29.7281H40.6261C40.6247 29.6848 40.6227 29.648 40.6202 29.6178L40.6202 29.6178C40.619 29.6037 40.6177 29.5902 40.6162 29.5773H40.6159C40.5898 29.3242 40.4697 29.1282 40.2554 28.9894C40.1255 28.9052 39.9782 28.8649 39.8325 28.8649Z" fill="black"/>
<path d="M65.2175 23.3845L65.2021 23.3846L64.9906 23.4025C64.8859 23.4195 64.78 23.4488 64.6731 23.4905C64.4591 23.574 64.2408 23.707 64.0181 23.8895C63.4696 24.3729 63.0705 24.8285 62.8208 25.2563C62.5388 25.6954 62.37 25.9872 62.3142 26.1319C62.225 26.2936 62.1412 26.5898 62.0625 27.0205C61.9871 27.392 62.1245 27.6087 62.4746 27.6706C62.5576 27.663 62.6157 27.6456 62.6487 27.6185C62.6712 27.6046 62.6933 27.5879 62.7152 27.5685L62.8923 27.3931L63.0657 27.2584C63.064 27.246 63.3781 27.0443 64.008 26.6533L65.3699 26.0258L65.7145 25.8297C65.979 25.6858 66.2205 25.4846 66.439 25.2262C66.5956 25.0156 66.6726 24.7854 66.6701 24.5354C66.6688 24.4104 66.6476 24.2805 66.6066 24.1456C66.5401 23.9583 66.5045 23.871 66.4998 23.8835C66.4794 23.8353 66.3846 23.7575 66.2154 23.65C66.1828 23.6228 66.0816 23.5736 65.9118 23.5023C65.8435 23.4776 65.7746 23.4583 65.7052 23.4444C65.3877 23.3936 65.2252 23.3736 65.2175 23.3845Z" fill="black"/>
<path d="M68.9185 29.6422C68.9315 29.6442 68.9436 29.6466 68.9548 29.6495C68.9427 29.6465 68.9304 29.6441 68.918 29.6422H68.9185ZM67.533 28.6996C67.9016 28.6996 68.2009 28.7311 68.431 28.7939H68.4305C68.8932 28.9404 69.195 29.1454 69.3361 29.4092H69.3355C69.3629 29.4689 69.3843 29.5236 69.3996 29.5733C69.4227 29.6484 69.4316 29.7015 69.4261 29.7325H69.4256C69.4164 29.7373 69.4027 29.7422 69.3847 29.7473C69.3784 29.7491 69.372 29.7511 69.3657 29.7532H69.3652C69.3601 29.7537 69.3547 29.7539 69.3488 29.7539C69.2815 29.7539 69.1652 29.7236 68.9999 29.6631C68.9906 29.6597 68.9812 29.6567 68.9716 29.6539H68.9711C68.9104 29.6297 68.7387 29.5484 68.4561 29.4099H68.4556C68.2447 29.2641 67.9493 29.1001 67.5694 28.9178H67.5689C67.4411 28.8516 67.2802 28.7834 67.0862 28.7131H67.0857C67.2447 28.7041 67.3938 28.6996 67.533 28.6996ZM67.5251 27.9188C67.3538 27.9188 67.1719 27.9248 66.9792 27.9367C66.9724 27.9371 66.9657 27.9377 66.959 27.9384C66.6388 27.9737 66.3945 28.0146 66.2262 28.061H66.2259C65.9678 28.1276 65.6241 28.2508 65.1948 28.4304C65.1869 28.4337 65.1791 28.4373 65.1715 28.441H65.1711C64.9569 28.4565 64.7905 28.6308 64.7955 28.8395C64.8006 29.0521 64.9816 29.2211 65.2018 29.2211C65.205 29.2211 65.2082 29.2211 65.2114 29.221C65.277 29.2196 65.3408 29.2188 65.4028 29.2188C65.8565 29.2188 66.2146 29.2578 66.4771 29.3358H66.4769C66.7911 29.4345 67.0265 29.5243 67.1831 29.6054C67.1869 29.6074 67.1908 29.6093 67.1947 29.6112C67.5547 29.7836 67.8232 29.9323 67.9999 30.0575C68.0177 30.07 68.0365 30.0812 68.0561 30.0908C68.3962 30.2577 68.6061 30.356 68.6859 30.3857C68.7016 30.3915 68.717 30.3966 68.7322 30.4009H68.7317C68.9787 30.4895 69.1897 30.5338 69.3646 30.5338C69.4062 30.5338 69.4458 30.5313 69.4833 30.5263C69.5335 30.5196 69.5811 30.5087 69.6262 30.4935H69.6256C69.751 30.4567 69.8588 30.4028 69.9491 30.3319C70.0687 30.2379 70.152 30.1201 70.1988 29.9786C70.2587 29.7973 70.2523 29.5883 70.1794 29.3517C70.1522 29.2635 70.1156 29.1704 70.0695 29.0722C70.0668 29.0665 70.0639 29.0608 70.061 29.0552C69.8173 28.5972 69.3544 28.2615 68.6722 28.0479C68.6676 28.0465 68.6629 28.0451 68.6583 28.0438C68.3555 27.9605 67.9778 27.9188 67.5251 27.9188Z" fill="black"/>
<path d="M67.2382 28.1544L67.1908 28.1571C67.0237 28.182 66.9104 28.2721 66.851 28.4273C66.8307 28.4902 66.8267 28.5534 66.8389 28.617C66.8409 28.6678 66.8778 28.7354 66.9495 28.8197C66.9953 28.8645 67.0507 28.8971 67.1157 28.9174C67.1446 28.9534 67.1863 28.9918 67.2408 29.0327L67.4037 29.1507C67.4898 29.2119 67.575 29.2704 67.6593 29.3262C67.912 29.4936 68.1562 29.6368 68.3918 29.7559C68.4723 29.8236 68.5807 29.8993 68.7171 29.9831C68.9563 30.1203 69.1651 30.1803 69.3437 30.1631C69.4591 30.1519 69.5569 30.1068 69.6372 30.0278C69.739 29.909 69.7861 29.8484 69.7787 29.8461C69.7959 29.8137 69.8078 29.7795 69.8142 29.7433C69.8399 29.5333 69.7293 29.3018 69.4825 29.0487C69.2939 28.8636 69.0969 28.7312 68.8913 28.6514C68.823 28.6249 68.7534 28.6041 68.6825 28.5892C68.5271 28.5074 68.4052 28.4578 68.317 28.4403C68.2268 28.4159 68.1103 28.4182 67.9676 28.4472L67.5935 28.2574L67.5038 28.2177C67.3738 28.1703 67.2853 28.1492 67.2382 28.1544Z" fill="black"/>
</g>
<defs>
<clipPath id="clip0_589_3647">
<rect width="73.3279" height="70.4461" fill="white" transform="translate(0.20752 0.385498)"/>
</clipPath>
</defs>
</svg>
