<?xml version="1.0" encoding="utf-8"?>
<svg xmlns="http://www.w3.org/2000/svg" xmlns:xlink="http://www.w3.org/1999/xlink" version= "1.1" width="2122px" height="2122px" viewBox="-521 0 2122 2122">
<g id="layer1">
<g style="fill:rgb(254,254,254); fill-opacity:1.0; stroke-linejoin: miter">
<path d="M812.6871,1389.6948C807.75256,1389.6948,802.78925,1391.3523,798.69604,1394.7507Q772.41833,1416.5677,759.49664,1424.9001C758.4341,1425.5853,757.4327,1426.3613,756.5039,1427.2191Q723.6503,1457.5603,713.75903,1464.3951C712.6392,1465.169,711.5938,1466.0455,710.63654,1467.0132L667.09344,1511.03L667.08673,1511.03Q645.67456,1527.8491,631.1419,1543.1398L631.13556,1543.1398C622.18365,1544.7825,614.8504,1551.9359,613.4181,1561.4397C611.61383,1573.4113,619.856,1584.5787,631.8276,1586.383Q633.9557,1586.7037,636.0772,1586.7037Q644.83234,1586.7037,653.47455,1581.2412L653.4744,1581.2412Q656.62384,1579.2505,659.83057,1576.4674L659.8305,1576.4674C660.42413,1575.9523,660.98975,1575.4054,661.5246,1574.8295Q674.49,1560.8688,695.2142,1544.6893C695.95135,1544.1138,696.65094,1543.4917,697.30865,1542.8268L740.46533,1499.2006L740.4579,1499.2006Q753.2089,1489.8881,784.8821,1460.6888L784.8742,1460.6888Q799.8729,1450.7572,826.7019,1428.4824C836.01666,1420.7488,837.29846,1406.9285,829.5649,1397.6136C825.2297,1392.3921,818.9818,1389.6948,812.6871,1389.6948 Z"/>
</g>
<g style="fill:rgb(254,254,254); fill-opacity:1.0; stroke-linejoin: miter">
<path d="M762.5607,1407.593C762.5869,1407.5935,762.613,1407.5941,762.6389,1407.5946Q762.73315,1407.5964,762.8346,1407.5979L762.8346,1407.5979Q762.6974,1407.5964,762.5531,1407.593 Z M786.6674,1362.1952C784.11096,1362.1952,781.52783,1362.6434,779.0356,1363.5752L779.02783,1363.5752Q778.4271,1363.6389,777.4988,1363.6943L777.4912,1363.6943Q776.9806,1363.6943,775.8191,1363.6414C775.4866,1363.6261,775.15405,1363.6185,774.8214,1363.6185C774.6759,1363.6185,774.53033,1363.62,774.38477,1363.6229Q767.12555,1363.7672,764.4434,1363.7672Q763.86975,1363.7672,763.5055,1363.7606L763.5025,1363.7606Q763.2688,1363.756,763.02606,1363.756Q762.1645,1363.756,761.18854,1363.815L761.1859,1363.8151Q760.6242,1363.8491,759.8501,1363.9119L759.84247,1363.9119L756.7686,1363.941C756.29425,1363.9456,755.8201,1363.9655,755.34717,1364.0007Q752.80884,1364.19,751.9896,1364.1991L751.9896,1364.1991C751.9569,1364.199,751.92474,1364.1989,751.8923,1364.1989C751.8736,1364.1989,751.85486,1364.1989,751.8359,1364.199Q751.6918,1364.1995,751.5654,1364.1995Q751.1554,1364.1995,750.93256,1364.1948L750.92505,1364.1948L745.6271,1363.8303L745.6271,1363.8303L738.2074,1362.8811C737.4475,1362.7839,736.68304,1362.7266,735.9172,1362.7094Q732.57294,1362.6343,731.10614,1362.6335L731.0988,1362.6335Q728.351,1362.62,725.75995,1362.62Q720.6491,1362.62,716.14795,1362.6729C715.752,1362.6775,715.357,1362.6927,714.9619,1362.7189L701.427,1363.612C701.2348,1363.6248,701.0428,1363.64,700.851,1363.6577L696.8707,1364.026L696.8638,1364.026Q689.82794,1364.4086,683.22266,1364.9551L683.2158,1364.9551L678.0418,1365.1449C677.6705,1365.1586,677.29956,1365.1816,676.9294,1365.2141L670.80365,1365.7516L670.79694,1365.7516Q667.17114,1366.0038,665.84,1366.0038Q665.72296,1366.0038,665.6236,1366.0018C665.48047,1365.999,665.33734,1365.9976,665.1942,1365.9976C664.72217,1365.9976,664.25024,1366.013,663.77905,1366.0433L656.3939,1366.5209C656.2608,1366.5295,656.12787,1366.5393,655.9941,1366.5503Q654.2249,1366.6973,652.97864,1366.8547L652.9781,1366.8547Q651.5273,1367.0381,650.28204,1367.306L650.2755,1367.306Q645.1223,1368.3248,642.61127,1369.0052L642.6113,1369.0052Q641.89874,1369.1984,641.26935,1369.395C629.71405,1373.0074,623.275,1385.3032,626.8874,1396.8585C629.81915,1406.2367,638.4705,1412.2449,647.80365,1412.2449C649.8853,1412.2449,652.0009,1411.946,654.09454,1411.319L654.088,1411.319Q655.14954,1411.0326,658.7522,1410.3212L658.7456,1410.3212Q659.00604,1410.2948,659.4173,1410.2598L659.41064,1410.2598L665.84534,1409.8436L665.8387,1409.8436Q668.9423,1409.8325,674.08386,1409.4713L674.26135,1409.4581L674.2676,1409.4576L674.2675,1409.4576C674.33496,1409.4524,674.40234,1409.4468,674.4697,1409.4408L680.2056,1408.9375L680.2056,1408.9375L685.345,1408.7489C685.6883,1408.7363,686.0319,1408.7156,686.37427,1408.6869Q692.7681,1408.1504,699.6528,1407.7817C699.9356,1407.7666,700.21814,1407.746,700.5002,1407.7198L704.6018,1407.3403L704.6018,1407.3403L717.2508,1406.5056L717.24365,1406.5056Q721.24164,1406.4623,725.76483,1406.4623Q728.2776,1406.4623,730.95245,1406.4757L731.071,1406.4761Q731.07635,1406.4761,731.0817,1406.4761Q731.8411,1406.4761,733.8025,1406.5165L733.79517,1406.5165L740.6992,1407.3998C741.12366,1407.4541,741.5496,1407.4958,741.9765,1407.5253L748.1155,1407.9476L748.11566,1407.9476Q748.70276,1407.988,749.369,1408.0103L749.36945,1408.0103Q750.31696,1408.0417,751.6224,1408.0417Q751.7546,1408.0417,751.8905,1408.0415L751.898,1408.0415Q751.95276,1408.0416,752.00775,1408.0416Q752.2119,1408.0416,752.41907,1408.0396L752.4161,1408.0396Q754.4313,1408.0194,757.874,1407.7751L757.86646,1407.7751L761.0879,1407.7446C761.6612,1407.7393,762.23334,1407.7112,762.8045,1407.6609Q763.2023,1407.6259,763.46576,1407.6046L763.4734,1407.6046Q763.83734,1407.6069,764.26575,1407.6069Q767.5374,1407.6069,774.5671,1407.4702L774.5748,1407.4702Q776.2557,1407.5361,777.57074,1407.5361Q777.9492,1407.5361,778.29736,1407.5306L778.2945,1407.5306Q779.242,1407.5159,780.092,1407.4606L780.0842,1407.4606Q784.4493,1407.2007,787.80646,1406.5698L787.807,1406.5697Q793.08356,1405.578,797.0966,1403.4126L797.0972,1403.4122C807.75165,1397.6627,811.72784,1384.3646,805.9783,1373.7102C802.0151,1366.3661,794.46545,1362.1952,786.6674,1362.1952 Z"/>
</g>
<g style="fill:rgb(254,254,254); fill-opacity:1.0; stroke-linejoin: miter">
<path d="M683.14166,1447.2969L683.14166,1447.2969Q683.1464,1447.2972,683.169,1447.2991L683.1686,1447.2991L683.1393,1447.2969 Z M647.234,1443.7687Q644.5179,1443.7687,641.97815,1443.904C629.88855,1444.5486,620.61053,1454.8717,621.2551,1466.9613C621.87854,1478.6536,631.5547,1487.716,643.1264,1487.716C643.51965,1487.716,643.91504,1487.7056,644.3124,1487.6843Q645.6982,1487.6105,647.24066,1487.6105Q649.4687,1487.6105,652.0238,1487.7645L652.0173,1487.7645L661.06683,1488.7498L661.06024,1488.7498Q665.87964,1489.4043,670.38214,1490.1478L670.5173,1490.1697L670.517,1490.1697C670.8178,1490.2175,671.119,1490.259,671.42175,1490.2943Q674.17865,1490.6158,679.8696,1491.0166L679.74915,1491.0074L679.9657,1491.0233Q681.5965,1491.1318,682.4857,1491.1685L682.48737,1491.1685Q682.7951,1491.181,683.0632,1491.1879L683.1688,1491.1903L686.22485,1491.2524L686.218,1491.2524Q691.1855,1491.4939,696.4708,1491.6626C696.7043,1491.67,696.93787,1491.6738,697.17145,1491.6738C697.1788,1491.6738,697.18604,1491.6738,697.19336,1491.6738L703.4379,1491.6672L703.4379,1491.6672L707.19336,1491.8157L707.1863,1491.8157Q709.637,1492.0061,715.52344,1492.8048C716.5233,1492.9404,717.51654,1493.0065,718.4982,1493.0065C729.2959,1493.0065,738.70087,1485.0269,740.19293,1474.0299C741.8207,1462.0331,733.4148,1450.9882,721.41797,1449.3605Q713.73895,1448.3186,709.9083,1448.0557C709.6966,1448.0411,709.4855,1448.0298,709.2734,1448.0214L704.7231,1447.8414C704.4355,1447.8301,704.14777,1447.8242,703.8599,1447.8242C703.8512,1447.8242,703.84247,1447.8242,703.83374,1447.8242L697.509,1447.8309L697.509,1447.8309Q692.6264,1447.6722,688.04724,1447.447C687.8371,1447.4366,687.62634,1447.4293,687.41595,1447.425L684.2348,1447.3604L684.22797,1447.3604Q683.87524,1447.3439,682.949,1447.2825L682.9491,1447.2825Q678.82385,1446.9921,676.9671,1446.7983L676.9603,1446.7983Q671.94476,1445.9788,666.6202,1445.2601C666.4334,1445.2349,666.2481,1445.2123,666.0607,1445.1919L656.25366,1444.1243C655.9359,1444.0897,655.61743,1444.062,655.29846,1444.0414Q651.0886,1443.7687,647.234,1443.7687 Z"/>
</g>
<g style="fill:rgb(254,254,254); fill-opacity:1.0; stroke-linejoin: miter">
<path d="M653.7653,1396.0481L653.7653,1396.0481C652.8165,1399.7079,652.80304,1403.657,653.9125,1407.5414L653.9116,1407.5414Q652.11194,1401.3301,653.7588,1396.0481 Z M675.00073,1379.6025C672.8702,1379.6025,670.70355,1379.9156,668.5606,1380.5735C661.4651,1382.7516,656.27563,1388.2032,654.1407,1394.7628L654.13416,1394.7628Q651.3343,1399.5267,646.28534,1407.5414C645.8909,1408.1675,645.52856,1408.8129,645.19946,1409.4756Q642.1758,1415.5643,637.9385,1423.1576L637.93207,1423.1576C631.09576,1427.4508,626.89935,1435.3724,627.76953,1443.9478C628.91547,1455.2405,638.44073,1463.6576,649.55237,1463.6576C650.2924,1463.6576,651.03955,1463.6202,651.79175,1463.544Q663.9565,1462.3096,670.97034,1453.3146C671.6021,1452.5043,672.17633,1451.6505,672.68835,1450.7598Q679.3532,1439.1652,683.93555,1430.0391L683.9287,1430.0391Q689.5512,1421.0944,692.64166,1415.7615C692.84015,1415.419,693.02924,1415.0713,693.20886,1414.7186Q693.9513,1413.2609,694.47864,1412.0908L694.4793,1412.0894Q698.45624,1403.2639,695.94977,1395.0975L695.9495,1395.0969C693.0546,1385.6661,684.3767,1379.6025,675.00073,1379.6025 Z"/>
</g>
<g style="fill:rgb(254,254,254); fill-opacity:1.0; stroke-linejoin: miter">
<path d="M1340.0863,1426.3143L1340.0863,1426.3143L923.3252,1432.4862C907.91986,1432.7144,895.2464,1420.4108,895.01825,1405.0054C894.7901,1389.6,907.0937,1376.9265,922.499,1376.6984L922.499,1376.6984L1339.2601,1370.5265C1354.6655,1370.2983,1367.339,1382.6019,1367.5671,1398.0073C1367.7953,1413.4127,1355.4917,1426.0862,1340.0863,1426.3143 Z"/>
</g>
</g>
<g id="layer2">
<g style="fill:rgb(254,254,254); fill-opacity:1.0; stroke-linejoin: miter">
<path d="M942.8667,-662.4321Q941.14996,-662.4321,939.4261,-662.1773C939.1395,-662.13495,938.8548,-662.08405,938.5713,-662.02454Q937.7452,-661.8512,936.9159,-661.6237L936.9156,-661.6236Q926.3417,-658.7232,913.52924,-645.9272C907.88226,-640.2874,907.8764,-631.13776,913.5162,-625.4908C916.33844,-622.6649,920.0396,-621.2517,923.74097,-621.2517C927.43616,-621.2517,931.1315,-622.6602,933.9526,-625.4777Q939.39197,-630.91016,942.5643,-632.8262L942.57367,-632.8262Q943.2902,-632.1933,944.2198,-631.1957C947.066,-628.14124,950.92554,-626.5963,954.7952,-626.5963C958.3229,-626.5963,961.859,-627.88025,964.6435,-630.47485C970.4824,-635.91565,970.8051,-645.05963,965.3643,-650.89856Q959.58453,-657.10126,953.5138,-659.9501L953.5138,-659.9501Q948.22473,-662.4321,942.8667,-662.4321 Z"/>
</g>
<g style="fill:rgb(254,254,254); fill-opacity:1.0; stroke-linejoin: miter">
<path d="M-177.2445,958.4356L-177.2445,958.4356C-185.55286,958.15063,-186.93689,958.4922,-187.53784,958.7371L-187.53821,958.73724C-185.54822,957.92633,-200.00183,961.3312,-204.50476,1044.6982L-204.50476,1044.6982C-210.52283,1156.1123,-198.50574,1381.5133,-186.29321,1609.7601L-186.35217,1608.9119C-181.59656,1664.5829,-176.557,1698.9924,-157.78577,1712.926L-157.78577,1712.926C-137.18445,1728.218,-93.23279,1726.3125,-30.961792,1721.2578C-30.657837,1721.2332,-30.353882,1721.2137,-30.049438,1721.1993L-30.049438,1721.1993L520.2909,1695.3981C520.5989,1695.3835,520.9071,1695.3745,521.21545,1695.3708L521.21545,1695.3708C548.68274,1695.0328,568.57996,1694.3857,581.9103,1688.9536L581.9098,1688.9539C586.51306,1687.078,589.1776,1685.0192,590.8539,1683.0325L590.8528,1683.0339C600.4381,1671.6722,601.6283,1643.519,600.8583,1596.8451C600.8512,1596.4182,600.8544,1595.9916,600.8678,1595.565L600.8678,1595.565L617.985,1049.3042L617.9885,1049.1985C619.8917,995.2798,619.56824,959.3877,607.2887,943.7701L607.2887,943.7702C596.8008,930.43164,571.4147,927.2614,524.51697,925.3625L526.32324,925.3746L105.7489,936.73785L106.541016,936.7048L-102.630005,948.56195C-117.3938,949.3989,-130.04077,938.1089,-130.87769,923.34503C-131.71448,908.58124,-120.42456,895.9343,-105.660645,895.0974L-105.660645,895.0974L103.510376,883.24023C103.77429,883.2252,104.03845,883.2141,104.30261,883.20703L104.30261,883.20703L524.87695,871.84375C525.479,871.82733,526.08167,871.8314,526.68335,871.85583L526.68335,871.85583C562.66406,873.3127,620.15686,873.4986,649.38477,910.6707L649.3849,910.67084C676.8209,945.5647,673.0499,1007.33984,671.5056,1051.0874L671.50916,1050.9816L654.39185,1597.2421L654.40125,1595.9617C654.99963,1632.227,657.55896,1687.0122,631.7826,1717.565L631.7814,1717.5663C623.3197,1727.5946,612.82605,1734.181,602.1194,1738.5444L602.119,1738.5447C577.3544,1748.6362,545.8336,1748.6221,521.87427,1748.917L522.7987,1748.8896L-27.541504,1774.691L-26.629272,1774.6326C-78.60095,1778.8513,-148.89307,1786.2178,-189.70325,1755.925L-189.70325,1755.925C-232.34314,1724.2742,-235.88354,1658.2418,-239.70813,1613.4696C-239.7323,1613.1871,-239.75195,1612.9045,-239.76709,1612.6212L-239.76709,1612.6212C-251.88281,1386.1832,-264.19397,1156.9014,-257.9773,1041.81L-257.9773,1041.81C-253.8894,966.1289,-241.72375,922.9918,-207.74634,909.14624L-207.7467,909.14636C-194.78088,903.86255,-181.63293,904.7031,-175.40857,904.9167C-160.62976,905.4236,-149.06006,917.8153,-149.56702,932.5941C-150.0741,947.3729,-162.4657,958.9425,-177.2445,958.4356 Z"/>
</g>
<g style="fill:rgb(254,254,254); fill-opacity:1.0; stroke-linejoin: miter">
<path d="M776.0331,1302.2777C738.419,1302.2777,697.511,1303.0784,657.16644,1303.8604C642.3816,1304.147,630.6285,1316.3647,630.9151,1331.1495C631.1982,1345.7576,643.129,1357.406,657.6751,1357.406C657.8511,1357.406,658.0274,1357.4043,658.2041,1357.4009C699.28,1356.6047,739.7867,1355.8274,776.407,1355.8274C782.52606,1355.8274,788.5366,1355.8491,794.4232,1355.896L794.4232,1355.897Q793.27386,1351.9897,793.2605,1346.9745Q793.56085,1340.4829,794.0553,1339.2737Q795.1241,1334.2513,797.6567,1329.5255Q797.5567,1324.6508,800.6067,1315.146Q802.27374,1309.4757,807.6451,1302.4971L807.6532,1302.498C797.4486,1302.3444,786.87775,1302.2777,776.0331,1302.2777 Z"/>
</g>
<g style="fill:rgb(254,254,254); fill-opacity:1.0; stroke-linejoin: miter">
<path d="M984.4931,1354.0447Q984.044,1354.3588,983.57434,1354.6602Q977.38446,1357.7555,975.5029,1357.7555Q975.3988,1357.7555,975.3079,1357.746L975.29816,1357.747Q976.4586,1358.1105,960.6267,1358.1344Q953.3873,1368.2118,933.3589,1376.1792Q929.40173,1377.4464,924.9714,1378.1886L924.9806,1378.1896L610.5704,1660.8447C599.5735,1670.731,598.67303,1687.6602,608.5593,1698.657C613.8467,1704.5383,621.14844,1707.5317,628.4798,1707.5317C634.85675,1707.5317,641.2561,1705.267,646.3717,1700.668L965.3216,1413.9309C966.98944,1412.4314,968.46234,1410.7284,969.70575,1408.8618C973.7758,1402.751,981.8001,1391.2837,984.94904,1378.8923C986.89966,1371.2168,987.1891,1362.5808,984.503,1354.0447 Z"/>
</g>
<g style="fill:rgb(254,254,254); fill-opacity:1.0; stroke-linejoin: miter">
<path d="M193.92342,1192.0605L193.92342,1192.0605Q198.45491,1206.5188,194.06146,1229.4541L194.09285,1229.2866Q185.52151,1276.0342,175.21796,1293.9037L175.23451,1293.8749Q151.17691,1335.7476,103.25658,1355.3258L104.951645,1316.2999L142.90746,1335.8041C143.44669,1336.0812,143.97395,1336.3809,144.48785,1336.7025L144.48785,1336.7025Q156.10966,1343.9768,170.6209,1362.3055C170.81517,1362.5509,171.0043,1362.8009,171.18768,1363.0546L171.18768,1363.0546Q213.59845,1421.7156,218.64107,1470.1628L209.13513,1454.468Q192.05493,1443.1466,180.9504,1459.8989L180.95003,1459.8994Q179.77263,1461.6758,179.36572,1462.9983L179.36623,1462.9967Q179.36885,1462.9882,179.37439,1462.969L178.92017,1464.8589Q182.78876,1444.8138,192.35449,1416.6663C192.41548,1416.4868,192.47865,1416.3086,192.54436,1416.1309L192.54436,1416.1309Q205.94763,1379.8654,212.48436,1369.9548L212.48447,1369.9546Q217.15001,1362.8812,223.61867,1359.9462L213.9397,1368.6769Q230.91609,1339.6282,267.74948,1316.62L280.92554,1356.2805Q277.6832,1356.5508,274.2135,1356.2322L274.2131,1356.2322Q256.8354,1354.6364,227.01817,1335.5453L227.39616,1335.7819Q211.60667,1326.128,194.77362,1305.7095C194.74547,1305.6753,194.71967,1305.6438,194.69171,1305.6095L194.69171,1305.6095Q184.61493,1293.2355,172.18929,1266.1115C171.60872,1264.8441,171.15277,1263.5233,170.8279,1262.1677L170.8279,1262.1677L158.605,1211.1654C155.83768,1199.6183,162.95514,1188.0142,174.50229,1185.2468C186.04944,1182.4795,197.65363,1189.597,200.42094,1201.1442L200.42094,1201.1442L212.64384,1252.1465L211.28246,1248.2028Q221.4227,1270.338,228.03436,1278.4569L227.95245,1278.3569Q240.19438,1293.2064,249.82646,1299.0956C249.95375,1299.1735,250.07881,1299.2517,250.20445,1299.3322L250.20445,1299.3322Q271.19922,1312.7745,278.14523,1313.4124L278.14484,1313.4124Q277.8635,1313.3865,277.35437,1313.429C287.24466,1312.6047,296.41425,1318.6575,299.5434,1328.0762C302.67255,1337.4949,298.94797,1347.8314,290.53043,1353.0895L290.53043,1353.0895Q262.69073,1370.4797,251.06476,1390.3732C248.81963,1394.2148,245.43784,1397.2654,241.38579,1399.1039L241.38579,1399.1039Q246.2144,1396.913,248.37943,1393.6306L248.37953,1393.6304Q244.5664,1399.4115,232.87782,1431.0376L233.06769,1430.5022Q224.45087,1455.8575,221.14105,1473.0073C221.01822,1473.6438,220.86665,1474.2744,220.68683,1474.8972L220.68683,1474.8972Q220.57726,1475.2767,220.46394,1475.6449L220.46445,1475.6433Q219.04521,1480.2561,216.7917,1483.656L216.79134,1483.6565Q204.13855,1502.7445,185.37805,1490.3093C180.024,1486.7605,176.53712,1481.0035,175.87212,1474.6145L175.87212,1474.6145Q172.0191,1437.5964,136.34103,1388.2479L136.90782,1388.997Q127.00404,1376.4878,121.67382,1373.1515L123.25423,1374.0499L85.298416,1354.5458C77.83162,1350.7089,73.28099,1342.877,73.64528,1334.4899C74.00957,1326.1028,79.22213,1318.695,86.993484,1315.5199L86.993484,1315.5199Q121.24725,1301.5251,137.95018,1272.4535L137.96674,1272.4247Q144.56458,1260.9819,151.79793,1221.5317C151.80818,1221.4758,151.81862,1221.42,151.82932,1221.3643L151.82932,1221.3643Q154.18727,1209.0549,152.89153,1204.9207C149.34029,1193.59,155.64676,1181.5259,166.9774,1177.9746C178.30804,1174.4233,190.37218,1180.7299,193.92342,1192.0605 Z"/>
</g>
<g style="fill:rgb(254,254,254); fill-opacity:1.0; stroke-linejoin: miter">
<path d="M158.90948,1233.9823L158.90894,1233.9846Q158.91367,1233.9646,158.91621,1233.9532L158.91656,1233.9518Q158.46378,1235.969,158.6583,1238.7325L158.65155,1238.6334L158.38275,1234.5453C158.34625,1233.9901,158.33133,1233.4337,158.33798,1232.8774L158.33798,1232.8774L158.38075,1229.3035C158.38889,1228.6233,158.4293,1227.9438,158.50188,1227.2675L158.50188,1227.2675L159.21635,1220.6075L159.09756,1222.4929L159.14427,1220.0321L159.1571,1221.2876L159.07605,1219.233L159.2305,1221.093L158.94824,1218.8695L177.5257,1237.4852Q159.13293,1235.1119,158.76302,1216.2328L158.76303,1216.2329Q158.75403,1215.7733,158.75072,1215.0613L158.81001,1216.5602L158.67049,1214.689C158.61232,1213.9088,158.59676,1213.1261,158.6239,1212.3442L158.6239,1212.3444Q158.68297,1210.6428,158.76743,1209.4962L158.76744,1209.496Q158.87137,1208.0852,159.06021,1206.9198L159.06909,1206.8655L159.74243,1202.7764L159.59279,1203.8549Q159.56613,1204.0906,159.55554,1204.2338L159.55553,1204.2338Q159.59117,1203.7524,159.64384,1202.234L161.06207,1210.6925Q160.68265,1209.7053,160.49353,1209.3191L160.49327,1209.3186Q167.82762,1224.2964,185.41087,1217.5387L185.4122,1217.5382Q194.91086,1213.887,197.66945,1204.5992L198.33133,1195.355Q198.76607,1198.3163,198.51733,1201.8096L198.55016,1199.3221Q198.51468,1198.5289,198.43921,1198.0035L198.43794,1197.9948Q198.4355,1197.9778,198.43362,1197.965L198.19412,1196.6246Q199.45427,1202.5808,199.82721,1205.86L199.82716,1205.8595Q199.91599,1206.6404,199.96844,1207.3586L199.88298,1206.4526Q199.92905,1206.8506,199.96956,1207.2854L199.96962,1207.286Q200.1599,1209.3285,200.3004,1213.2823L200.28331,1212.8982Q200.32419,1213.6628,200.3315,1214.5144L200.33151,1214.515Q200.34865,1216.5166,200.1728,1219.5679C200.16827,1219.6464,200.16335,1219.7245,200.15796,1219.803L200.15796,1219.803L199.30237,1232.2701L199.30858,1232.1769Q199.17511,1234.2538,199.15796,1234.8378L199.15796,1234.8374Q199.15802,1234.8354,199.15797,1234.837C199.14905,1235.1727,199.13225,1235.5082,199.1076,1235.843L199.10745,1235.8451Q199.13608,1235.4565,199.14362,1235.1884L199.1436,1235.1886Q199.12067,1236.0042,199.1178,1239.8992C199.11758,1240.188,199.11154,1240.4769,199.09969,1240.7656L199.09969,1240.7656Q199.02725,1242.5292,198.99678,1245.0275L198.99759,1244.949L198.93658,1252.0911L198.92987,1251.3395Q199.2078,1261.8593,199.30046,1263.4445L199.30054,1263.4457Q199.289,1263.2482,199.26045,1262.951C199.28165,1263.1716,199.29944,1263.3926,199.3138,1263.6136L199.3138,1263.6136L199.81264,1271.2913L199.72638,1270.311L199.72662,1270.3132L199.74747,1270.5089Q200.45787,1277.4839,200.58888,1279.866L200.49033,1278.677Q200.54028,1279.1274,200.58148,1279.6715L200.5815,1279.6716Q200.70102,1281.2499,201.07318,1288.4166L201.05357,1288.0878L201.05421,1288.0973L201.05334,1288.0844Q201.24747,1290.9426,201.33395,1299.6533C201.33565,1299.8235,201.33533,1299.9933,201.33298,1300.1635L201.33298,1300.1635Q201.18202,1311.1019,200.66656,1322.6633L200.668,1322.6306Q200.59712,1324.2766,200.34755,1327.1287C200.32372,1327.401,200.29468,1327.6731,200.26047,1327.9443L200.26047,1327.9443Q199.792,1331.6593,199.18628,1338.3153C198.11015,1350.1405,187.65154,1358.8545,175.82628,1357.7783C164.00102,1356.7021,155.28712,1346.2435,156.36325,1334.4183L156.36325,1334.4183Q157.03667,1327.0184,157.59833,1322.5645L157.51125,1323.3801Q157.67784,1321.4763,157.7078,1320.7808L157.70923,1320.748Q158.19524,1309.847,158.33707,1299.5702L158.33609,1300.0803Q158.26196,1292.6147,158.15216,1290.9979L158.15129,1290.985L158.15065,1290.9755C158.14418,1290.8809,158.13713,1290.7638,158.13104,1290.6466L158.13104,1290.6466Q157.78531,1283.9889,157.70427,1282.9187L157.70428,1282.9188Q157.71964,1283.1216,157.75232,1283.4163C157.70842,1283.0204,157.67558,1282.6241,157.65376,1282.2273L157.65376,1282.2273Q157.57774,1280.845,156.96878,1274.8661L156.98962,1275.0618L156.98938,1275.0596C156.94196,1274.6029,156.92014,1274.3413,156.90312,1274.0793L156.90312,1274.0793L156.40428,1266.4017L156.45763,1267.0643Q156.40909,1266.5592,156.37366,1265.9525L156.37373,1265.9537Q156.24094,1263.6818,155.94485,1252.4752C155.93823,1252.2247,155.936,1251.9741,155.93814,1251.7236L155.93814,1251.7236L155.99918,1244.5815L155.99998,1244.503Q156.03802,1241.3842,156.13591,1239.001L156.1178,1239.8674Q156.1211,1235.3845,156.1606,1233.9799L156.16058,1233.9801Q156.18048,1233.2722,156.2237,1232.6857L156.17317,1233.6937Q156.17465,1233.638,156.17648,1233.5757L156.17648,1233.5753Q156.2156,1232.2433,156.39708,1229.4193L156.40329,1229.326L157.25888,1216.8589L157.24403,1217.094Q157.33803,1215.4629,157.33307,1214.8829L157.33308,1214.8835Q157.33405,1214.9958,157.34462,1215.1936C157.33775,1215.0651,157.33208,1214.9374,157.32753,1214.8094L157.32753,1214.8094Q157.23085,1212.089,157.15498,1211.2745L157.15504,1211.2751Q157.15909,1211.3186,157.16814,1211.3967C157.13324,1211.0951,157.10477,1210.7932,157.08267,1210.4907L157.08267,1210.4907Q157.09344,1210.6382,157.10268,1210.7194L157.10263,1210.7189Q156.96135,1209.4766,156.12537,1205.5253C156.0314,1205.0812,155.95152,1204.6342,155.88586,1204.1849L155.88586,1204.1849Q155.88188,1204.1577,155.87737,1204.1263L155.8761,1204.1176Q155.65182,1202.5563,155.5931,1201.243C155.55602,1200.4142,155.56697,1199.5835,155.62592,1198.7556L155.62592,1198.7556Q155.54222,1199.931,155.78732,1201.6006C155.33327,1198.5077,155.55916,1195.353,156.4492,1192.3563L156.4492,1192.3563Q159.71909,1181.3472,169.9837,1177.4015L169.98503,1177.401Q189.13799,1170.04,199.11168,1190.4077L199.11142,1190.4072Q200.13739,1192.5022,201.19977,1195.2665C202.2358,1197.9622,202.71812,1200.8389,202.618,1203.725L202.618,1203.725Q202.53606,1206.0864,202.43819,1207.4086L202.43817,1207.4086Q202.38742,1208.0942,202.3207,1208.6844C202.28006,1209.0442,202.2301,1209.4043,202.17105,1209.763L202.17105,1209.763L201.49771,1213.852L201.50659,1213.7977Q201.61746,1213.1135,201.65123,1212.6552L201.65125,1212.6549Q201.62813,1212.9688,201.59802,1213.836L201.55144,1211.4915L201.69096,1213.3627C201.72815,1213.8615,201.74794,1214.3615,201.75026,1214.8616L201.75026,1214.8616Q201.75208,1215.2535,201.75476,1215.3904L201.75478,1215.3905Q201.39853,1197.2091,183.02847,1194.8387C192.7199,1196.0757,200.37183,1203.7328,201.60593,1213.4545L201.60593,1213.4545L201.88818,1215.678C201.96657,1216.2954,202.0181,1216.916,202.04263,1217.538L202.04263,1217.538L202.12369,1219.5925C202.14018,1220.0109,202.14447,1220.4294,202.13652,1220.848L202.13652,1220.848L202.08981,1223.3088C202.07785,1223.9387,202.03822,1224.5677,201.97102,1225.1942L201.97102,1225.1942L201.25655,1231.8541L201.37767,1229.8181L201.3349,1233.3921L201.29013,1231.7242L201.5589,1235.8124L201.55215,1235.7133Q201.80017,1239.2368,200.87259,1243.3693L200.87294,1243.3678Q200.81747,1243.615,200.75632,1243.8738C198.02365,1255.4316,186.44125,1262.5844,174.88571,1259.8523C163.33017,1257.1202,156.17737,1245.5378,158.90948,1233.9823 Z"/>
</g>
<g style="fill:rgb(254,254,254); fill-opacity:1.0; stroke-linejoin: miter">
<path d="M134.7059,1328.9573C135.67403,1330.7979,136.86154,1332.4512,138.21988,1333.9011L138.2185,1333.9011Q138.26181,1334.2222,138.30908,1334.5464L138.30908,1334.5464Q136.3715,1332.1802,134.70454,1328.9573 Z M209.26263,1291.6487Q197.53772,1291.6487,188.3531,1301.7732C186.50801,1303.8071,185.0484,1306.1597,184.0456,1308.7162Q183.33792,1310.5203,182.75845,1312.3164L182.75845,1312.3164Q182.00493,1311.66,181.2404,1311.0492L181.23988,1311.0488Q177.72882,1308.2434,173.96527,1306.3774L173.96353,1306.3774Q166.86285,1293.8162,155.52824,1293.8162Q149.27815,1293.8162,141.7407,1297.6355L141.74057,1297.6355Q139.50566,1298.768,137.35622,1300.361C136.37631,1301.0872,135.45673,1301.8914,134.6064,1302.7657Q125.44402,1312.1873,126.23608,1324.7656L126.23481,1324.7656Q126.16383,1340.5164,135.71632,1355.5226C136.16158,1356.222,136.64493,1356.8966,137.16417,1357.543Q144.40965,1366.5629,151.0703,1372.7772L151.06879,1372.7772Q155.47795,1383.6672,165.62022,1394.5596C165.79312,1394.7452,165.96935,1394.9282,166.14839,1395.108Q171.47314,1400.4542,176.90625,1403.7522L176.90666,1403.7524Q177.77415,1404.279,178.63853,1404.758L178.63675,1404.758Q184.93082,1409.3573,191.70403,1411.9703C194.00179,1412.8568,196.42899,1413.3623,198.89,1413.4669Q199.89368,1413.5096,200.85815,1413.5096Q223.08255,1413.5096,224.49538,1390.8512L224.49313,1390.8512Q227.5066,1384.9235,229.9513,1375.7438L229.94899,1375.7438Q230.78743,1375.4181,231.63492,1375.0471C233.2394,1374.3448,234.75702,1373.4586,236.15735,1372.4064Q243.84921,1366.6262,248.0031,1356.9526L248.00311,1356.9526Q249.61086,1353.2086,250.66159,1348.8986C250.86252,1348.0743,251.01697,1347.2395,251.12418,1346.398Q253.47179,1327.971,240.22769,1318.6288L240.22528,1318.6288Q237.78761,1316.6272,235.00706,1314.6771L235.00471,1314.6771Q234.9734,1314.5317,234.9414,1314.3883L234.94139,1314.3883Q229.98291,1292.1497,209.93597,1291.657L209.93513,1291.657Q209.59785,1291.6487,209.26263,1291.6487 Z"/>
</g>
</g>
<g id="layer3">
<g style="fill:rgb(254,254,254); fill-opacity:1.0; stroke-linejoin: miter">
<path d="M1048.5018,752.8969L1048.5018,752.8969Q1045.667,753.86,1042.3026,753.86Q1039.6542,753.86,1036.6775,753.26324L1036.6879,753.26324C1038.3793,753.59094,1040.0837,753.7521,1041.779,753.7521C1044.051,753.7521,1046.3064,753.46265,1048.4913,752.8969 Z M1113.3511,662.55054Q1107.1667,662.55054,1101.0835,664.40283L1101.0725,664.40283Q1072.0219,668.26465,1029.3492,702.56256L1029.339,702.56256Q1024.0049,704.8555,1018.868,709.2859Q999.0031,726.4185,945.9061,820.583L945.906,820.583L843.14856,816.1003L843.14014,816.1003Q837.49054,810.84827,831.3406,802.62524L831.3323,802.62524Q798.4504,737.2551,763.39264,707.81226C763.207,707.6563,763.0191,707.50287,762.8292,707.352Q721.5178,674.529,689.99817,674.529Q680.9068,674.529,672.63,677.2597Q667.10645,679.08203,662.10675,682.0542L662.10626,682.0545Q660.786,682.83936,659.5087,683.70105L659.50214,683.70105Q615.2772,704.91296,605.9912,754.72546L605.98517,754.72546Q602.2597,768.5306,601.3273,783.9144C601.3198,784.03723,601.31323,784.15985,601.3075,784.2828L596.3398,890.4392C595.64856,905.2106,607.06274,917.7455,621.8341,918.4367C622.26025,918.45667,622.6846,918.4665,623.1068,918.4665C637.3189,918.4665,649.16034,907.2876,649.8316,892.9424L654.7993,786.78595L654.8025,786.78595Q655.45465,776.5894,657.90784,767.8729C658.1489,767.0163,658.34717,766.14825,658.50183,765.27185Q662.7985,740.92224,684.0731,731.32794C685.9661,730.47424,687.75336,729.40326,689.3988,728.13654Q689.42255,728.1182,689.4404,728.1055L689.43353,728.1055Q690.5128,727.7546,691.8616,727.7546Q702.38947,727.7546,729.3342,749.1347L729.3269,749.1347Q756.2304,771.9564,784.43274,828.5661C785.0952,829.8959,785.86725,831.1683,786.7408,832.36993Q801.8884,853.2082,817.82166,864.3861C822.00104,867.3181,826.9316,868.9942,832.03204,869.2167L947.6299,874.2595C947.97406,874.27454,948.31836,874.2829,948.6628,874.2846Q948.82306,874.2854,948.983,874.2854Q953.1422,874.2854,957.0282,873.7427L957.0285,873.7427Q975.6094,871.1475,986.364,857.29816C987.1847,856.2413,987.92505,855.12445,988.57874,853.9569Q1036.836,767.7695,1051.8248,751.8005L1051.8142,751.8005C1054.3344,750.78186,1056.7125,749.3742,1058.8552,747.60016Q1094.3562,718.20636,1108.3644,717.4604C1109.7347,717.3874,1111.095,717.20935,1112.4331,716.92883L1112.4442,716.92883Q1113.4459,717.7138,1114.7378,718.9481L1114.7267,718.9481Q1130.7222,737.9388,1134.0973,754.33954L1134.0859,754.33954L1126.902,958.0448C1126.7906,961.202,1127.2389,964.35406,1128.2261,967.3551Q1139.3845,1001.2765,1144.7166,1095.7579L1144.715,1095.7579Q1145.5468,1114.7513,1137.7554,1145.3712C1137.4924,1146.4045,1137.2919,1147.4512,1137.154,1148.5056L1137.1427,1148.5056Q1133.9918,1157.9421,1114.304,1195.7239C1113.5825,1197.1083,1112.9835,1198.5531,1112.5139,1200.0419Q1108.1572,1213.8524,1107.1415,1221.3427Q1106.4519,1226.4266,1106.9263,1230.7368C1107.2133,1233.3451,1107.882,1235.8969,1108.9113,1238.3105Q1147.9359,1329.828,1142.6144,1366.6217C1140.4977,1381.257,1150.646,1394.8372,1165.2812,1396.9539C1166.5807,1397.1418,1167.8718,1397.233,1169.1473,1397.233C1182.2377,1397.233,1193.6847,1387.6228,1195.6134,1374.287Q1202.8312,1324.3828,1161.1516,1224.3765L1161.14,1224.3765Q1161.7957,1221.9309,1162.8833,1218.398L1162.8717,1218.398Q1185.1912,1175.4252,1188.9541,1162.1772L1188.9542,1162.1772Q1189.7583,1159.3466,1190.1388,1156.6913L1190.127,1156.6913Q1199.4338,1119.3495,1198.195,1092.9922C1198.191,1092.9081,1198.1866,1092.8246,1198.1819,1092.7406Q1192.7788,997.0024,1180.5894,955.43677L1180.5776,955.43677L1187.7051,753.3322C1187.7649,751.63556,1187.6633,749.9371,1187.4015,748.2597Q1182.2927,715.52606,1154.6028,683.1764C1154.1198,682.612,1153.6136,682.06836,1153.0853,681.5461Q1142.9586,671.5352,1132.4192,666.8452L1132.4191,666.84515Q1122.768,662.55054,1113.3511,662.55054 Z"/>
</g>
<g style="fill:rgb(254,254,254); fill-opacity:1.0; stroke-linejoin: miter">
<path d="M808.1262,1371.3112Q809.53625,1373.8235,810.36505,1377.1594L810.36084,1377.1594C809.89343,1375.334,809.2343,1373.562,808.39404,1371.8733Q808.25464,1371.5931,808.11816,1371.3112 Z M954.73676,1201.7288C952.0823,1201.7288,949.3828,1202.1267,946.716,1202.9631L928.68726,1208.6178L928.678,1208.6178Q896.1418,1213.0803,873.4303,1219.2399L873.3214,1219.2697Q854.6622,1224.4148,844.4993,1229.328L844.457,1229.3486Q805.3327,1248.3483,780.30383,1274.4247L780.296,1274.4247Q756.119,1295.4281,750.54675,1316.225L750.5467,1316.2251Q749.3308,1320.763,748.9664,1325.2987L748.9597,1325.2987Q745.08,1363.7356,759.7412,1394.2772L759.73364,1394.2772Q762.9213,1402.1587,770.78406,1408.5273L770.784,1408.5273Q779.53656,1415.617,800.5893,1425.5C802.41565,1426.3574,804.3329,1427.0056,806.3049,1427.4323Q822.61145,1430.9607,833.58746,1430.9607Q836.11664,1430.9607,838.36273,1430.7733L838.36487,1430.7732Q839.1074,1430.7112,839.83264,1430.6298L839.8243,1430.6298Q860.2993,1429.7671,882.81805,1423.634C884.0381,1423.3018,885.2331,1422.8834,886.39404,1422.3823L930.79803,1403.2137C930.9757,1403.1371,931.1525,1403.0585,931.32837,1402.9779L931.31903,1402.9779Q937.8442,1400.5676,969.9898,1394.2417L969.9801,1394.2417Q987.91644,1391.4957,1011.664,1391.4159C1011.7832,1391.4155,1011.9003,1391.4143,1012.01953,1391.4124Q1013.3865,1391.3896,1014.7155,1391.3896Q1034.2252,1391.3896,1045.5737,1396.2916C1049.0333,1397.786,1052.6348,1398.4935,1056.178,1398.4935C1066.5383,1398.4935,1076.4017,1392.4446,1080.7712,1382.329C1086.6351,1368.7538,1080.3838,1352.9954,1066.8086,1347.1315Q1045.299,1337.8403,1014.59143,1337.8403Q1012.9613,1337.8403,1011.30524,1337.8666L1011.2951,1337.8666Q983.3015,1337.9719,961.2792,1341.4001C960.9299,1341.4545,960.5824,1341.5157,960.23553,1341.5839Q922.64307,1348.9702,912.05194,1353.0122L912.05023,1353.013Q910.4398,1353.6277,909.02954,1354.2877L909.02045,1354.2877L866.9595,1372.4448L866.9508,1372.4448Q850.76215,1376.6788,836.71875,1377.1594C835.75195,1377.1925,834.7876,1377.278,833.83014,1377.4154L833.8218,1377.4154Q833.4038,1377.4462,832.9011,1377.4462Q829.1274,1377.4462,820.5818,1375.7128L820.5736,1375.7128Q811.1676,1371.2174,806.8832,1368.5642L806.8751,1368.5642Q799.98047,1352.2207,802.2849,1330.2343C802.29395,1330.1482,802.30255,1330.062,802.3107,1329.9758L802.30273,1329.9758Q803.799,1324.7611,816.1999,1314.1753L816.19995,1314.1753C816.92834,1313.5535,817.623,1312.893,818.2806,1312.1968Q836.77545,1292.617,867.8073,1277.5399L867.80743,1277.5399Q873.5669,1274.7555,887.4482,1270.9232L887.44727,1270.9232Q907.55023,1265.4711,938.09314,1261.3818C939.6053,1261.1793,941.0974,1260.8479,942.55316,1260.3914L962.74225,1254.0591C976.85205,1249.6335,984.7027,1234.6078,980.27716,1220.498C976.68805,1209.055,966.12695,1201.7288,954.73676,1201.7288 Z"/>
</g>
<g style="fill:rgb(254,254,254); fill-opacity:1.0; stroke-linejoin: miter">
<path d="M956.8562,1033.1957Q951.89075,1033.1957,947.0613,1034.3076C946.4197,1034.4553,945.78485,1034.6309,945.1585,1034.834Q922.14795,1042.2946,919.27136,1066.6069L919.2713,1066.6069Q919.24884,1066.7969,919.22687,1066.9972C919.2153,1067.1029,919.2046,1067.2074,919.19446,1067.3132Q917.2535,1087.6375,927.5163,1105.5791C927.5624,1105.6597,927.61017,1105.742,927.6572,1105.8219Q930.7304,1111.0432,934.69055,1115.1309L934.6907,1115.1309Q944.97833,1125.7499,959.62476,1127.7688Q961.66345,1128.0498,963.7584,1128.1497C964.1177,1128.1669,964.47687,1128.1754,964.8363,1128.1754C964.92145,1128.1754,965.00653,1128.1749,965.0917,1128.174Q976.85956,1128.0411,985.9506,1124.3906L985.95074,1124.3906Q996.47925,1120.163,1002.97095,1111.651L1002.96094,1111.651Q1009.20044,1103.8835,1011.34155,1093.9097L1011.34155,1093.9095Q1013.7155,1082.8507,1010.7517,1069.8807C1010.5739,1069.1027,1010.35516,1068.3348,1010.0962,1067.5796Q1007.3772,1059.6519,1003.1571,1053.6935L1003.157,1053.6932Q995.74994,1043.2354,984.43317,1039.251L984.42804,1039.251Q982.9225,1038.7078,981.3648,1038.2701L981.3637,1038.2699Q978.33875,1037.4203,975.13196,1036.9707L975.1222,1036.9707C974.399,1036.6238,973.65796,1036.3154,972.9019,1036.0471Q966.3801,1033.7327,959.8596,1033.2965L959.8584,1033.2965Q958.35114,1033.1957,956.8562,1033.1957 Z"/>
</g>
<g style="fill:rgb(254,254,254); fill-opacity:1.0; stroke-linejoin: miter">
<path d="M707.885,1014.8875C707.60645,1014.8875,707.32794,1014.89264,707.0495,1014.9029Q706.2285,1014.9332,705.4147,1014.9925L705.4146,1014.9925Q694.43134,1015.79175,685.6091,1021.63007L685.6022,1021.63007Q674.11224,1028.7958,667.50385,1037.9362C665.328,1040.9457,663.99927,1044.3099,663.47186,1047.7445L663.4652,1047.7445Q658.1479,1056.1788,657.61224,1065.833L657.61224,1065.8331C657.57587,1066.4883,657.56805,1067.1447,657.58875,1067.8004Q657.6285,1069.0608,657.73956,1070.3229L657.73956,1070.3231Q659.25104,1087.4926,673.6496,1103.8615L673.6429,1103.8615Q673.8944,1104.1804,674.15094,1104.494L674.1526,1104.496Q680.62573,1112.4078,689.91876,1116.6667L689.9194,1116.667Q697.14984,1119.9803,705.6789,1120.8422L705.6786,1120.8422C706.43524,1120.9186,707.19495,1120.9569,707.9548,1120.9569C708.5352,1120.9569,709.1157,1120.9346,709.69495,1120.8899Q738.81085,1118.6445,752.0837,1089.7528C752.3953,1089.0745,752.6733,1088.3809,752.9164,1087.675Q755.1494,1081.1921,755.83215,1075.5948L755.8322,1075.5947Q756.35504,1071.3082,756.00165,1067.3596L755.9941,1067.3596Q755.8655,1064.2441,754.9828,1060.9137L754.98267,1060.9133Q753.6234,1055.7856,748.6448,1043.1184L748.64233,1043.1184Q745.6603,1035.2069,739.72974,1028.9008L739.7292,1028.9001Q737.4833,1026.5121,734.84595,1024.3997L734.8458,1024.3995C734.3391,1023.99365,733.8153,1023.61,733.27563,1023.2491Q727.0069,1019.058,720.49225,1016.95746L720.4923,1016.95746Q714.42926,1015.0025,708.2954,1014.89124L708.29504,1014.89124C708.1583,1014.8888,708.02167,1014.8875,707.885,1014.8875 Z"/>
</g>
<g style="fill:rgb(254,254,254); fill-opacity:1.0; stroke-linejoin: miter">
</g>
<g style="fill:rgb(254,254,254); fill-opacity:1.0; stroke-linejoin: miter">
<path d="M902.1663,988.6121Q902.1887,988.6244,902.21106,988.63666L902.202,988.63666C901.62476,992.70593,902.16516,996.8685,903.7815,1000.67096L903.7728,1000.67096Q902.28253,997.3044,901.8647,994.2859L901.8557,994.2859Q901.6306,991.62463,902.1573,988.6121 Z M909.2487,1003.041Q909.1267,1003.961,908.9391,1004.80896L908.9391,1004.80896Q908.9334,1004.8079,908.92773,1004.8068L908.91864,1004.8068C909.04895,1004.22284,909.156,1003.6337,909.2396,1003.041 Z M908.89307,1004.95984C908.8996,1004.962,908.9061,1004.9641,908.91266,1004.9663L908.90356,1004.9663Q908.87866,1005.0743,908.8527,1005.181L908.8527,1005.181Q908.8473,1005.1792,908.8418,1005.1773L908.8327,1005.1773C908.85016,1005.1049,908.86725,1005.0324,908.884,1004.95984 Z M911.23486,959.71234Q905.0333,959.71234,899.14636,962.2669L899.1463,962.2669Q894.5568,964.2555,890.46014,968.2827L890.4513,968.2827Q887.38,969.6495,886.0584,970.3034L886.0585,970.3034Q882.37805,972.1243,879.66693,974.28326L879.65814,974.28326Q877.2199,976.00916,875.2399,977.75146L875.2399,977.75146Q866.6555,985.3053,864.73224,994.69574L864.7236,994.69574Q857.7774,1018.38055,882.0607,1029.1342C883.69836,1029.8594,885.41626,1030.3876,887.1784,1030.7079Q891.6833,1031.5267,896.37573,1031.5267Q905.1157,1031.5267,914.50635,1028.6862L914.5063,1028.6862Q926.2343,1025.1519,934.8244,1016.8737L934.815,1016.8737Q937.02155,1014.9445,938.78,1013.05963L938.78015,1013.0595Q950.10114,1000.9243,947.16345,988.05536L947.154,988.05536Q945.9793,979.66895,938.4071,972.193L938.4069,972.1928Q936.42017,970.2313,933.7106,968.05634L933.70123,968.05634Q930.30145,965.098,926.2714,963.17883L926.26215,963.17883Q922.9025,961.3478,919.1636,960.7105L919.15436,960.7105Q918.91455,960.6548,918.673,960.6019L918.6638,960.6019Q914.89453,959.71234,911.23486,959.71234 Z"/>
</g>
<g style="fill:rgb(254,254,254); fill-opacity:1.0; stroke-linejoin: miter">
<path d="M802.0538,1150.1931L802.05383,1150.1926Q801.41595,1153.9854,799.6487,1158.0853L799.6486,1158.0856Q797.56195,1162.9264,793.31586,1169.4554C792.7136,1170.3815,792.0445,1171.2621,791.3137,1172.0903L791.3137,1172.0903Q781.3043,1183.4353,779.31213,1186.7289L779.31195,1186.7291Q780.0061,1185.5815,780.5963,1183.6307C777.13556,1195.07,765.3781,1201.8479,753.7446,1199.1104C742.11115,1196.3728,734.6101,1185.063,736.6137,1173.2809L736.6137,1173.2806Q737.282,1169.3512,739.27905,1165.069L739.2793,1165.0685Q742.47455,1158.2177,751.7679,1145.363C752.17676,1144.7975,752.6115,1144.2512,753.07086,1143.7258L753.07086,1143.7258Q764.0719,1131.1433,768.0769,1127.4276L768.07654,1127.4279Q774.01874,1121.9146,780.97314,1120.7395C784.2972,1120.1779,787.7048,1120.3657,790.9469,1121.2894L790.9353,1121.2861Q791.0849,1121.3286,791.2312,1121.3713L791.23865,1121.3735Q800.2512,1124.0056,805.2094,1130.1754L804.2129,1129.0176Q807.7523,1132.8595,810.69727,1137.6359L807.7679,1133.8494Q810.146,1136.3295,812.09424,1139.9543L812.09393,1139.9537Q814.805,1144.9976,822.3131,1163.1326C822.4319,1163.4194,822.5449,1163.7092,822.6518,1164.0007L822.65204,1164.0015Q822.47375,1163.515,822.34174,1163.2542L822.3415,1163.2537Q822.77704,1164.1144,824.225,1166.1602C831.44727,1176.3646,829.0297,1190.4918,818.82526,1197.7141C808.6208,1204.9364,794.4935,1202.5189,787.27124,1192.3145L787.27124,1192.3145Q783.8912,1187.5387,781.94635,1183.6956L781.9461,1183.6951Q780.8799,1181.588,780.1445,1179.5815L780.4834,1180.4504Q773.8477,1164.4226,772.2166,1161.3881L772.2163,1161.3875Q773.19275,1163.2042,775.09,1165.1829C773.9823,1164.0275,773.0004,1162.7584,772.16064,1161.3964L772.16064,1161.3964Q771.5028,1160.3295,770.91614,1159.6926C770.5709,1159.3179,770.2388,1158.932,769.9196,1158.5348L769.9196,1158.5348Q773.88525,1163.4695,778.54736,1164.831L778.5548,1164.8333Q778.5546,1164.8333,778.55396,1164.833L788.5161,1165.3796Q794.8969,1164.3015,798.869,1160.6161L798.86865,1160.6163Q796.59814,1162.7229,787.15375,1173.5249L788.4567,1171.8877Q781.685,1181.2543,780.30896,1184.2047L780.3092,1184.2042Q780.8911,1182.9564,781.2458,1180.871L737.2632,1170.5209Q738.3219,1167.0215,740.57465,1163.2972L740.57446,1163.2975Q744.6682,1156.5295,757.3651,1142.1384L755.363,1144.7733Q757.51056,1141.4711,758.0738,1140.1644L758.0737,1140.1647Q757.67694,1141.0852,757.4081,1142.6838C759.48193,1130.3547,771.1573,1122.0416,783.48584,1124.1154C795.8144,1126.1891,804.12756,1137.8645,802.0538,1150.1931 Z"/>
</g>
<g style="fill:rgb(254,254,254); fill-opacity:1.0; stroke-linejoin: miter">
<path d="M968.425,1070.6377L968.425,1070.6377Q967.068,1072.9886,965.3335,1074.7426L965.3281,1074.7426C966.4909,1073.5172,967.5299,1072.1455,968.41534,1070.6377 Z M958.808,1076.5726C959.78894,1076.9425,960.79364,1077.2438,961.8142,1077.4746L961.80457,1077.4746Q961.59344,1077.5964,961.3784,1077.712L961.3784,1077.712Q959.83136,1077.3778,958.3745,1076.7976L958.3649,1076.7976C958.5105,1076.7241,958.65497,1076.649,958.7984,1076.5726 Z M977.65594,1075.27Q973.6537,1077.5023,969.88763,1077.8269L969.88763,1077.8269C972.5447,1077.4635,975.1734,1076.6206,977.6462,1075.27 Z M962.12384,1077.5424C963.396,1077.8115,964.69147,1077.9718,965.99506,1078.0197L965.9854,1078.0197Q966.06555,1078.0903,966.14734,1078.1633L966.1377,1078.1633Q965.9443,1078.1666,965.7521,1078.1666Q963.69147,1078.1666,961.7682,1077.7921L961.7586,1077.7921C961.87787,1077.7101,961.9964,1077.6268,962.1142,1077.5424 Z M969.6688,1081.7217L969.6688,1081.7218L969.6688,1081.7218Q969.6688,1081.7217,969.6688,1081.7217 Z M968.9591,1080.8881L968.9591,1080.8881Q969.31805,1081.2568,969.6958,1081.6533C974.144,1086.3214,980.1101,1088.6742,986.08716,1088.6742C988.7298,1088.6742,991.37463,1088.2142,993.89124,1087.2911L993.9012,1087.2911Q988.49133,1089.4354,983.9133,1089.4354Q975.3476,1089.4354,969.6942,1081.9282L969.6845,1081.9282Q969.68243,1081.91,969.6806,1081.8922L969.6671,1081.8922Q969.3022,1081.4059,968.9494,1080.8881 Z M966.5609,1078.5386Q967.39716,1079.3083,968.3908,1080.3097L968.3811,1080.3097Q968.8915,1081.3939,969.5928,1082.9688L969.58307,1082.9688Q969.33606,1084.7494,968.395,1087.8242L968.3853,1087.8242Q967.6842,1088.9685,965.9968,1090.9067L965.9871,1090.9067Q963.6974,1092.3313,960.81104,1092.3313Q959.5521,1092.3313,958.1797,1092.0603L958.1701,1092.0603Q954.4631,1090.2522,950.5361,1086.4169L950.5266,1086.4169C950.5195,1086.2323,950.51013,1086.0479,950.49854,1085.8636L950.489,1085.8636Q950.79663,1084.2902,951.7575,1081.6129L951.748,1081.6129C954.2531,1081.2937,956.68756,1080.558,958.9453,1079.4429L958.9357,1079.4429L962.6359,1079.166C963.69666,1079.0867,964.7508,1078.9325,965.78986,1078.705Q966.18665,1078.618,966.5512,1078.5386 Z M968.12427,1032.5613Q964.83813,1032.5613,961.8706,1033.2632L961.861,1033.2632Q960.5263,1033.5206,957.6722,1034.1387L957.6626,1034.1387L953.0051,1034.4872L953.0051,1034.4872C951.4272,1034.1383,949.80084,1033.9567,948.1512,1033.9567C946.2362,1033.9567,944.28973,1034.2015,942.3511,1034.714Q939.71655,1035.4105,936.8321,1036.7333L936.83154,1036.7335Q932.30133,1038.8113,925.20355,1043.412C925.0465,1043.5138,924.8911,1043.6172,924.7359,1043.7234Q923.1508,1044.8076,921.8362,1045.8385L921.8362,1045.8385Q915.18567,1051.0532,912.5898,1057.6483L912.5807,1057.6483Q906.6802,1071.5487,905.4998,1080.5907L905.4998,1080.5907Q904.9075,1085.1283,905.33203,1089.1844L905.323,1089.1844Q905.4886,1092.6349,906.1386,1095.9476L906.1386,1095.9476Q907.80914,1104.4615,912.5454,1111.6545C913.1769,1112.6135,913.88025,1113.523,914.6497,1114.3752Q927.4079,1128.5063,942.3815,1134.5593C943.17914,1134.8818,943.9947,1135.1586,944.82385,1135.3882Q953.56934,1137.81,961.7085,1137.81Q980.27136,1137.81,995.6805,1125.2128C996.51587,1124.5298,997.3011,1123.7882,998.0308,1122.9933Q1005.1517,1115.2341,1008.70306,1108.4578L1008.7033,1108.4574Q1010.5883,1104.8604,1011.6252,1101.2991L1011.6165,1101.2991Q1015.20984,1089.6411,1014.9198,1080.3147L1014.9198,1080.3147Q1014.78125,1075.8575,1013.7764,1071.8092C1013.47595,1070.5986,1013.0759,1069.4148,1012.58044,1068.2701Q1009.0184,1060.0406,1007.0263,1056.4623L1007.026,1056.4618Q1002.996,1049.2229,997.8284,1045.8163L997.8184,1045.8163Q991.6068,1040.0485,985.9003,1036.8458L985.8994,1036.8453Q985.2051,1036.4557,984.5136,1036.0996C982.93774,1035.2881,981.272,1034.6644,979.5505,1034.2415Q975.83057,1033.3275,973.0025,1032.9225L973.003,1032.9225Q970.4816,1032.5613,968.12427,1032.5613 Z"/>
</g>
<g style="fill:rgb(254,254,254); fill-opacity:1.0; stroke-linejoin: miter">
<path d="M889.0677,983.92395C887.4025,988.249,887.109,992.99097,888.2044,997.4712L888.2044,997.4712Q885.7918,990.92737,889.00604,983.95416L888.99713,983.95416Q889.02795,983.939,889.05884,983.92395 Z M918.8019,1013.019L918.8019,1013.019Q918.7656,1013.10565,918.72845,1013.19226L918.71924,1013.19226Q915.05743,1014.83185,911.3522,1014.83185Q910.24664,1014.83185,909.13727,1014.6859L909.14636,1014.6859C909.49585,1014.702,909.84564,1014.7101,910.1955,1014.7101C913.11725,1014.7101,916.0417,1014.1479,918.79266,1013.019 Z M911.13214,967.6085Q903.32196,967.6085,895.5582,974.7633L895.5582,974.7633Q895.18274,975.1093,894.5963,975.66675C893.7127,976.50665,892.9118,977.40094,892.19385,978.3394L892.18494,978.3394Q891.9222,978.6103,891.64636,978.8915L891.6414,978.8915L881.0848,989.28406C880.9087,989.4574,880.73535,989.63367,880.56506,989.8127Q867.5022,1003.5433,878.4136,1018.7831L878.4412,1018.8216Q886.0805,1029.4442,895.5577,1029.4442Q902.42755,1029.4442,910.2632,1023.8624L910.2626,1023.8624Q911.82,1022.7622,913.49255,1021.2041L913.4925,1021.2041Q913.6263,1021.07947,913.759,1020.954L913.759,1020.95404C913.9873,1020.73804,914.2111,1020.5173,914.43024,1020.29193L918.5698,1016.03534L918.56067,1016.03534C919.8127,1015.0083,920.93195,1013.8649,921.91174,1012.63055L921.9025,1012.63055L923.68695,1010.8739C923.78094,1010.7814,923.8742,1010.6879,923.96655,1010.59375Q926.1745,1008.3428,927.93176,1006.40063C928.0606,1006.25824,928.1876,1006.11426,928.30994,1005.97186Q943.1263,988.7413,925.9681,974.0262L925.9678,974.0262Q918.5291,967.6085,911.13214,967.6085 Z"/>
</g>
<g style="fill:rgb(254,254,254); fill-opacity:1.0; stroke-linejoin: miter">
<path d="M740.7231,938.36914Q736.2433,938.36914,731.5377,939.8062C727.7168,940.97314,724.4294,943.05927,721.8438,945.74817L721.8366,945.74817Q720.077,946.96655,718.4416,948.4215L718.43945,948.4215Q704.7113,960.4468,709.36285,976.3996L709.3558,976.3996Q710.1612,979.7455,711.60785,983.0936Q715.3972,991.86346,723.9337,1001.14966C724.44135,1001.70184,724.97626,1002.2287,725.53925,1002.7304Q725.7345,1002.9044,725.9297,1003.07434L725.93256,1003.07684Q733.5632,1009.71844,749.00586,1016.56085C749.5978,1016.8231,750.20056,1017.0599,750.8125,1017.2703Q753.5353,1018.207,756.6436,1018.76086L756.64417,1018.761Q760.934,1019.5253,766.31323,1019.6075L766.30554,1019.6075Q767.4875,1019.69244,768.6228,1019.69244Q784.15656,1019.69244,790.9573,1003.7884C791.2951,1002.9983,791.5877,1002.1897,791.8336,1001.3663Q794.39923,992.77594,792.6268,983.2233L792.6268,983.2233Q791.12256,975.11615,786.4098,966.36237L786.3701,966.28906Q779.65405,953.92346,767.92896,947.29895L767.92126,947.29895Q766.1297,946.15625,764.05396,945.22485L764.05396,945.22485Q763.12396,944.80756,761.82007,944.2858L761.81244,944.2858Q756.30707,940.6339,749.14624,939.7008L749.13873,939.7008Q745.0355,938.36914,740.7231,938.36914 Z"/>
</g>
<g style="fill:rgb(254,254,254); fill-opacity:1.0; stroke-linejoin: miter">
<path d="M1223.2146,1056.6206Q1223.4829,1056.6206,1223.7896,1056.6295L1223.7856,1056.6295C1223.5887,1056.6239,1223.3915,1056.621,1223.1947,1056.6206L1223.1825,1056.6206Q1223.1985,1056.6206,1223.2146,1056.6206 Z M1287.0408,1050.9631C1285.013,1050.9631,1282.9512,1051.2378,1280.903,1051.8136Q1277.3412,1052.8148,1272.6251,1053.2783C1272.2852,1053.3118,1271.9452,1053.3528,1271.607,1053.4016Q1270.2065,1053.6036,1265.1526,1053.946C1264.7233,1053.9751,1264.294,1054.0166,1263.8671,1054.0701Q1258.6493,1054.7241,1256.0966,1054.9008L1256.084,1054.9008L1252.4891,1055.0564C1252.2317,1055.0675,1251.9736,1055.0831,1251.7168,1055.103Q1247.5676,1055.425,1243.9506,1055.6072L1243.9381,1055.6072L1227.7787,1056.2936C1227.5432,1056.3036,1227.307,1056.3174,1227.0719,1056.3347Q1223.9023,1056.5688,1222.8988,1056.6207L1222.8866,1056.6207Q1222.4883,1056.6211,1222.0951,1056.6211Q1210.012,1056.6211,1202.6256,1056.3851C1202.3844,1056.3774,1202.1432,1056.3735,1201.9019,1056.3735C1201.7523,1056.3735,1201.6027,1056.3751,1201.4531,1056.378L1194.0004,1056.5262C1193.3607,1056.539,1192.7217,1056.5787,1192.0854,1056.6456Q1189.7615,1056.8898,1185.7026,1057.0189C1185.3767,1057.0293,1185.0513,1057.0468,1184.7261,1057.0712Q1183.6226,1057.154,1182.7267,1057.2517L1182.7267,1057.2517Q1182.0239,1057.3282,1181.391,1057.4198L1181.3867,1057.4204C1169.0143,1059.2141,1160.4385,1070.6979,1162.2322,1083.0703C1163.8663,1094.3419,1173.5428,1102.4624,1184.6036,1102.4624C1185.607,1102.4624,1186.6217,1102.3956,1187.6428,1102.2583L1187.63,1102.2583Q1187.6626,1102.2548,1187.7054,1102.2507L1187.6935,1102.2507Q1192.328,1102.0916,1195.7786,1101.773L1195.7666,1101.773L1201.7706,1101.6536L1201.7827,1101.6536Q1209.7673,1101.894,1222.1193,1101.894Q1222.5825,1101.894,1223.052,1101.8937L1223.0642,1101.8937Q1223.1405,1101.894,1223.2179,1101.894Q1223.8397,1101.894,1224.53,1101.8661L1224.5349,1101.8658Q1226.0497,1101.8041,1230.0328,1101.5121L1230.0205,1101.5121L1246.0164,1100.8326C1246.0747,1100.8302,1246.1326,1100.8274,1246.1909,1100.8245Q1250.2606,1100.6201,1254.8129,1100.2716L1254.8003,1100.2716L1258.344,1100.1182C1258.5044,1100.1112,1258.6646,1100.1027,1258.8247,1100.0923Q1262.5376,1099.8523,1268.841,1099.0732L1268.8282,1099.0732Q1274.4939,1098.68,1277.4524,1098.2953L1277.4397,1098.2953Q1285.9114,1097.4332,1293.1547,1095.3971C1305.19,1092.0139,1312.2037,1079.5148,1308.8206,1067.4795C1306.0132,1057.4924,1296.9286,1050.9631,1287.0408,1050.9631 Z"/>
</g>
<g style="fill:rgb(254,254,254); fill-opacity:1.0; stroke-linejoin: miter">
<path d="M1177.3569,1184.7441Q1176.6233,1184.8612,1175.9404,1184.9199L1175.9404,1184.9199C1176.4076,1184.8762,1176.876,1184.8177,1177.3452,1184.7441 Z M1174.5723,1139.6895Q1171.8096,1139.6895,1169.3052,1140.2036C1157.0588,1142.7178,1149.1693,1154.6835,1151.6835,1166.9298C1153.8643,1177.5524,1163.1564,1184.8969,1173.5745,1185.017L1173.5627,1185.017Q1182.5857,1186.8273,1192.9695,1188.1785C1193.1357,1188.2001,1193.3005,1188.2197,1193.4673,1188.2377L1200.328,1188.9763C1200.7666,1189.0236,1201.2065,1189.058,1201.6571,1189.08L1201.6722,1189.0807L1201.6721,1189.0807Q1213.5514,1189.6609,1215.9108,1189.9229L1215.8986,1189.9229L1221.9069,1190.7723L1221.8947,1190.7723Q1233.016,1192.8972,1250.72,1195.4374C1250.9552,1195.4711,1251.1912,1195.5011,1251.4272,1195.5275Q1257.7477,1196.2319,1262.1582,1196.4645C1262.5557,1196.4855,1262.9532,1196.4958,1263.351,1196.4958C1263.4631,1196.4958,1263.5752,1196.4951,1263.6874,1196.4934Q1264.047,1196.488,1264.4169,1196.488Q1265.9941,1196.488,1267.7578,1196.5854C1268.1743,1196.6084,1268.5905,1196.62,1269.0076,1196.62L1281.5671,1196.6193L1281.58,1196.6193Q1281.6523,1196.6196,1281.7255,1196.6196Q1282.7825,1196.6196,1283.982,1196.5437L1283.9819,1196.5437Q1284.8132,1196.4911,1285.7892,1196.3981C1298.2345,1195.2113,1307.3612,1184.1603,1306.1744,1171.715C1305.0574,1160.0002,1295.2001,1151.226,1283.667,1151.226C1282.9476,1151.226,1282.2219,1151.26,1281.4913,1151.3297Q1281.39,1151.3394,1281.3114,1151.3463L1281.2986,1151.3463L1269.5946,1151.347L1269.5945,1151.347Q1266.9319,1151.2152,1264.4135,1151.2152Q1264.1478,1151.2152,1263.8837,1151.2167L1263.8837,1151.2167Q1261.0677,1151.0422,1256.8464,1150.578L1256.8339,1150.578Q1239.9459,1148.1504,1229.8759,1146.2051C1229.5027,1146.1329,1229.1277,1146.0703,1228.7513,1146.0171L1221.9479,1145.0552C1221.862,1145.0431,1221.7749,1145.0311,1221.689,1145.02Q1221.3859,1144.9807,1221.0621,1144.944L1221.0618,1144.944Q1217.4052,1144.5283,1204.5403,1143.894L1204.5282,1143.894L1198.6337,1143.2594L1198.6217,1143.2594Q1189.0374,1142.0062,1181.0435,1140.3372C1180.7078,1140.2671,1180.371,1140.2047,1180.0325,1140.1499Q1177.1866,1139.6895,1174.5723,1139.6895 Z"/>
</g>
<g style="fill:rgb(254,254,254); fill-opacity:1.0; stroke-linejoin: miter">
<path d="M604.2934,920.814Q604.2934,920.8143,604.2934,920.8146L604.2934,920.8146L604.2934,920.814 Z M623.58673,877.73755C623.31134,877.73755,623.0348,877.7427,622.75726,877.753C610.7416,878.2,601.3453,888.237,601.65826,900.22626L601.6523,900.22626Q601.6417,900.6425,601.60565,901.46814L601.60565,901.46826C601.5904,901.8172,601.5835,902.16644,601.58496,902.5157L601.5867,902.9278L601.5806,902.9278Q601.5531,903.4281,601.53723,903.83374L601.53723,903.8345Q601.5034,904.70013,601.5121,905.42694L601.511,905.42694Q601.5226,906.78436,601.6797,908.3171L601.6799,908.31885Q601.69885,908.504,601.7191,908.68726L601.71924,908.6885C601.72394,908.7307,601.7286,908.7718,601.7335,908.814Q601.77844,909.19995,601.8344,909.60913L601.8344,909.60913Q602.193,912.23114,603.168,916.7154L603.168,916.7154L603.1687,916.7185C603.2134,916.9241,603.26105,917.12897,603.31165,917.3331L604.30853,921.356L604.3025,921.356C604.31195,921.69543,604.3293,922.0346,604.35455,922.3733Q604.5343,924.7864,605.14935,927.09814C607.75977,936.9096,616.6257,943.3886,626.3195,943.3886C628.1852,943.3886,630.0815,943.1486,631.9698,942.64624C642.6768,939.79755,649.4152,929.4993,648.09595,918.8051L648.0895,918.8051Q648.03503,917.6489,647.9173,916.60144L647.9173,916.60144Q647.85297,916.0286,647.7806,915.49506L647.7806,915.49506Q647.6426,914.47784,647.46844,913.55634L647.4681,913.55634Q647.2701,912.4897,647.0172,911.4326C647.0032,911.37396,646.98956,911.31793,646.97504,911.25934L645.9961,907.3089L645.9896,907.3089Q645.59937,905.5106,645.41223,904.50305L645.40576,904.50305C645.4243,904.11975,645.4328,903.73584,645.4312,903.3521L645.4297,902.98346L645.4232,902.98346Q645.4899,901.364,645.4977,900.321L645.49774,900.31915Q645.5036,899.52466,645.4783,898.8441C645.0385,887.02325,635.31726,877.73755,623.58673,877.73755 Z"/>
</g>
<g style="fill:rgb(254,254,254); fill-opacity:1.0; stroke-linejoin: miter">
<path d="M608.53326,893.4701C609.887,895.16473,611.5173,896.6856,613.41034,897.9626Q610.4809,895.9865,608.5272,893.4701 Z M634.5087,917.8656Q647.90094,917.8656,653.6718,931.05615C650.11694,922.9307,642.1317,917.91846,633.5948,917.91846C633.0276,917.91846,632.45795,917.9406,631.887,917.9854L631.887,917.9854Q633.2325,917.8656,634.5087,917.8656 Z M630.4053,918.15265C629.6744,918.2605,628.943,918.40607,628.21344,918.5906C618.51013,921.04474,611.79285,929.7149,611.6683,939.54944L611.6622,939.54944C611.6463,939.6839,611.6317,939.8183,611.6184,939.9527L611.6184,939.9527Q610.5932,920.79785,630.399,918.15265 Z M625.6891,857.86597C618.6466,857.86597,611.7305,861.25305,607.496,867.53064C603.5147,873.43274,602.7903,880.5756,604.91,886.83575L604.90393,886.83575C604.91693,887.0072,604.9319,887.1785,604.9489,887.3496L605.33746,891.2583C605.4675,892.56683,605.7151,893.86066,606.07654,895.1231L606.0705,895.1231Q606.42554,896.76276,607.1825,901.87964C607.2956,902.64417,607.44904,903.4021,607.7615,904.58655L607.7545,904.58655Q607.8683,905.0379,607.91125,905.2618L607.9052,905.2618L609.5685,917.372L609.5624,917.372Q609.6652,919.44525,609.9197,921.6169L609.9136,921.6169Q609.9737,923.1692,609.9743,923.95654C609.9747,924.4156,609.98944,924.8743,610.0186,925.33246L610.416,931.5732L610.4099,931.5732Q610.4604,932.6307,610.59436,933.7801L610.59436,933.78015Q610.8415,935.90063,611.5725,940.05597L611.5664,940.05597Q611.5805,940.17755,611.5936,940.2911L611.5875,940.2911C610.79004,949.8557,616.3884,959.1637,625.82886,962.65857C628.3382,963.5875,630.909,964.028,633.4368,964.028C640.6874,964.028,647.58484,960.40405,651.6668,954.2879L651.6603,954.2879Q656.46027,948.2369,655.3836,937.40753L655.3836,937.40753Q655.30115,936.5774,655.0264,934.2286L655.0265,934.2286C654.9759,933.7957,654.91235,933.365,654.83606,932.9359Q654.35675,930.24097,654.1964,929.11664L654.1898,929.11664C654.1861,929.0478,654.18207,928.97894,654.1777,928.9101L653.8194,923.2844L653.81287,923.2844Q653.7935,921.48413,653.6768,918.7955L653.67377,918.7276L653.6735,918.72235L653.6735,918.72235C653.6449,918.1066,653.59033,917.49207,653.5099,916.8809Q653.35956,915.73846,653.3383,914.8613C653.3185,914.0409,653.25256,913.2223,653.14087,912.40924L651.2922,898.94885L651.28296,898.8823Q651.1561,897.9793,650.96875,897.0025L650.96857,897.00146Q650.74036,895.8121,650.40515,894.43054L650.3986,894.43054Q649.4977,888.45874,648.81976,885.3959L648.81323,885.3959L648.6612,883.86633L648.6547,883.86633Q648.59186,881.9098,648.4836,880.5459L648.48346,880.5442Q648.4331,879.91003,648.3671,879.3241L648.3606,879.3241Q647.22736,867.8892,637.9279,861.6163C634.16876,859.0805,629.90625,857.86597,625.6891,857.86597 Z"/>
</g>
</g>
<g id="layer4">
<g style="fill:rgb(254,254,254); fill-opacity:1.0; stroke-linejoin: miter">
<path d="M1360.3156,692.7847L1359.8699,692.78754L1353.751,693.3272Q1349.2041,694.0926,1344.5613,695.97754Q1335.2758,699.74744,1325.607,707.9954Q1301.8008,729.8367,1290.9595,749.166Q1278.7213,769.0052,1276.2983,775.54254Q1272.4303,782.8492,1269.0167,802.3094Q1265.743,819.0924,1280.941,821.891Q1284.5454,821.5456,1285.9792,820.3211Q1286.9545,819.6932,1287.9038,818.814L1293.0302,813.5317L1298.0483,809.47577Q1297.9725,808.9128,1325.316,791.248L1364.7283,772.34674L1374.7002,766.43994Q1386.1799,759.9344,1395.6644,748.2586Q1402.4635,738.74664,1402.3525,727.4514Q1402.297,721.8038,1400.5139,715.7103Q1397.6293,707.2483,1397.4236,707.8149Q1396.5391,705.6371,1389.1931,700.7812Q1387.7792,699.5514,1380.41,696.3333Q1377.4448,695.21704,1374.4298,694.58923Q1360.6498,692.29236,1360.3156,692.7847"/>
</g>
<g style="fill:rgb(254,254,254); fill-opacity:1.0; stroke-linejoin: miter">
<path d="M1467.4153,881.28284Q1467.9783,881.3689,1468.4672,881.5006L1468.4672,881.5006C1468.1154,881.4116,1467.7594,881.3389,1467.4005,881.28284 Z M1427.3203,852.88904Q1443.3215,852.88904,1453.3083,855.73L1453.2938,855.73Q1473.3768,862.3453,1479.4988,874.2634L1479.484,874.2634Q1480.673,876.9589,1481.338,879.207L1481.338,879.20715Q1482.3416,882.59924,1482.1042,884.0025L1482.0895,884.0025Q1481.6892,884.21625,1480.9076,884.4475C1480.7227,884.5022,1480.539,884.5615,1480.3568,884.62524L1480.342,884.62524Q1480.1211,884.6457,1479.8684,884.6457Q1476.9463,884.6457,1469.7715,881.9124C1469.5021,881.80975,1469.2291,881.71716,1468.9534,881.63464L1468.9386,881.63464Q1466.3016,880.54047,1454.0349,874.28265L1454.0204,874.28265Q1444.8649,867.69855,1428.3741,859.45935L1428.361,859.45935Q1422.8138,856.4695,1414.3922,853.2942L1414.378,853.2942Q1421.278,852.88904,1427.3203,852.88904 Z M1427.092,829.36835Q1419.6586,829.36835,1411.2937,829.9074C1411.0985,829.92,1410.9036,829.93744,1410.7092,829.9597Q1396.811,831.5544,1389.5033,833.65173L1389.4956,833.65173Q1378.2933,836.662,1359.6584,844.77997C1359.4288,844.88,1359.2041,844.98645,1358.9841,845.09906L1358.9706,845.09906C1352.7714,845.56665,1347.9573,850.8159,1348.1025,857.10333C1348.2505,863.50726,1353.4883,868.59766,1359.8602,868.59766C1359.9524,868.59766,1360.0447,868.59656,1360.1373,868.5944Q1362.9843,868.5286,1365.6761,868.5286Q1385.3722,868.5286,1396.7651,872.0517L1396.7603,872.0517Q1410.3976,876.5098,1417.1957,880.1741C1417.3065,880.2338,1417.4176,880.29144,1417.5303,880.3476Q1433.1598,888.1366,1440.8339,893.78986C1441.3477,894.16833,1441.8915,894.50446,1442.4598,894.7948Q1457.2227,902.33636,1460.683,903.6765L1460.683,903.6765Q1461.3658,903.941,1462.0236,904.13495L1462.0089,904.13495Q1472.7311,908.13934,1480.325,908.13934Q1482.1316,908.13934,1483.7612,907.91266L1483.7615,907.91266Q1485.9381,907.6099,1487.8938,906.92413L1487.8789,906.92413Q1493.3213,905.2602,1497.2382,902.0573L1497.238,902.0573Q1502.4331,897.8092,1504.4644,891.4135L1504.4644,891.4135Q1507.0663,883.22125,1503.9034,872.531L1503.9034,872.5312Q1502.7249,868.54724,1500.7233,864.113C1500.6453,863.94006,1500.5626,863.7683,1500.4763,863.59937Q1489.9012,842.9063,1460.2877,833.25836C1460.1542,833.21484,1460.0195,833.17365,1459.8845,833.13495Q1446.742,829.36835,1427.092,829.36835 Z"/>
</g>
<g style="fill:rgb(254,254,254); fill-opacity:1.0; stroke-linejoin: miter">
<path d="M1418.777,836.4641L1417.4042,836.545Q1410.1492,837.67084,1407.5702,844.68555Q1406.6912,847.5244,1407.2219,850.3983Q1407.3086,852.69617,1410.4222,856.505Q1412.4095,858.52924,1415.2305,859.4481Q1416.4863,861.0722,1418.8517,862.92053L1423.5641,866.4759Q1427.3038,869.2399,1430.9609,871.76135Q1441.9321,879.32556,1452.1603,884.706Q1455.6519,887.7629,1461.5726,891.5504Q1471.9548,897.7467,1479.7067,896.9723Q1484.7153,896.46277,1488.1981,892.8964Q1492.617,887.5278,1492.2949,887.423Q1493.0416,885.95953,1493.3223,884.3256Q1494.4354,874.8374,1483.7229,863.40247Q1475.537,855.0394,1466.6152,851.4362Q1463.6487,850.23505,1460.571,849.56305Q1453.8246,845.8652,1449.996,845.0759Q1446.0789,843.97437,1439.8851,845.2841L1429.0592,839.5656L1426.4612,838.37244Q1420.821,836.23,1418.777,836.4641"/>
</g>
</g>
</svg>