<svg width="95" height="94" viewBox="0 0 95 94" fill="none" xmlns="http://www.w3.org/2000/svg">
<path d="M60.1478 23.9274L60.1476 23.9276L60.0902 23.9814L60.0901 23.9815C60.0704 24 60.0482 24.0208 60.0277 24.0401C59.3171 24.7073 57.9791 25.9874 54.8528 30.1049C54.8352 30.1281 54.8163 30.1504 54.7964 30.1717L42.9158 42.8545C42.8906 42.8814 42.8637 42.9066 42.8352 42.93C42.8426 42.924 42.8461 42.9201 42.8461 42.9201C42.7234 43.0572 42.492 43.7833 42.5704 45.6008C42.5824 45.8801 42.6386 46.1359 42.7635 46.3556C43.4452 47.5542 44.0247 48.663 44.4315 49.7102C44.6223 50.2015 44.6174 50.7781 44.3589 51.405C44.0079 52.2563 43.3423 53.0673 42.5044 53.8567C42.4971 53.8637 42.4896 53.8704 42.482 53.8771L35.9941 59.5666C35.6418 59.8755 35.103 59.8434 34.7907 59.4947C34.4784 59.1461 34.5109 58.613 34.8633 58.304L41.3512 52.6146L41.3287 52.635C42.0944 51.9135 42.5618 51.2977 42.7803 50.7677C42.8968 50.4852 42.8556 50.3555 42.84 50.3155C42.4785 49.3848 41.9477 48.3612 41.2776 47.1828C40.9808 46.6609 40.8863 46.1218 40.8669 45.6727C40.7943 43.988 40.9189 42.5291 41.5693 41.802C41.6226 41.7424 41.6813 41.6853 41.746 41.6322L41.6654 41.7077L53.546 29.0248L53.4896 29.0916C56.6619 24.9136 58.0622 23.5599 58.8541 22.8163C58.873 22.7985 58.8996 22.7736 58.9173 22.757L58.9172 22.7571L58.9745 22.7033C59.3158 22.3829 59.8554 22.3969 60.1795 22.7349C60.5035 23.0728 60.4894 23.6067 60.1478 23.9274Z" fill="black"/>
<path d="M36.6402 59.0398C36.0796 59.4861 35.4123 60.1117 34.7362 60.7465C34.3946 61.0671 34.0522 61.3886 33.7332 61.6763C33.1033 62.2445 31.4557 64.2183 31.2467 64.6584C30.9648 65.2521 30.9651 65.9946 30.9768 66.6325C30.9773 66.661 30.9781 66.7028 30.9785 66.7305C30.9979 67.9204 31.2206 68.5383 31.3947 68.7974C31.6916 69.2392 32.0906 69.5818 32.7295 69.8249C33.2563 70.0254 33.8518 70.1021 34.5605 69.9706C35.0432 69.881 35.4327 69.7624 35.7433 69.5739C36.9698 68.8294 38.0763 67.8896 39.232 66.9054C39.354 66.8015 39.4753 66.6983 39.5979 66.5942C39.9554 66.2909 40.4935 66.3318 40.8 66.6854C41.1065 67.0391 41.0652 67.5716 40.7078 67.8748C40.5858 67.9783 40.467 68.0795 40.3442 68.1841C39.2063 69.1531 37.9977 70.1847 36.6348 71.0119C36.0652 71.3577 35.4394 71.5239 34.8747 71.6287C33.8521 71.8185 32.936 71.7111 32.1173 71.3995C31.1524 71.0322 30.4697 70.4677 29.975 69.7316C29.539 69.0828 29.2954 68.0865 29.2737 66.7577C29.2733 66.7328 29.2726 66.6913 29.2721 66.6631C29.2614 66.0822 29.2271 64.9443 29.7036 63.941C30.0541 63.2029 31.8955 61.0511 32.5846 60.4295C32.8888 60.1552 33.218 59.8462 33.5626 59.5226C34.2224 58.9032 34.945 58.2241 35.5715 57.7254C35.9383 57.4334 36.4749 57.4909 36.77 57.8538C37.0652 58.2168 37.0071 58.7478 36.6402 59.0398Z" fill="black"/>
<path d="M52.0215 56.5812L46.114 62.4652L46.1165 62.4627L40.8187 67.7836C40.4882 68.1154 39.9485 68.1194 39.6131 67.7924C39.2777 67.4655 39.2737 66.9314 39.6041 66.5996L44.9019 61.2788L44.9044 61.2763L50.8119 55.3922C51.1438 55.0617 51.6835 55.06 52.0175 55.3883C52.3516 55.7166 52.3533 56.2507 52.0215 56.5812Z" fill="black"/>
<path d="M52.023 55.4464C52.1889 55.589 52.3471 55.7355 52.4805 55.8589C52.5982 55.9678 52.6917 56.0541 52.7698 56.1213C52.8311 56.174 52.8613 56.196 52.8691 56.2011C52.8693 56.2012 52.8673 56.1999 52.8642 56.1981C52.8792 56.2071 52.894 56.2165 52.9084 56.2264L55.7452 58.1741C55.7506 58.1778 55.7559 58.1815 55.7611 58.1853C55.8944 58.2813 56.2996 58.5604 57.0718 58.7773C57.5304 58.9061 57.8257 58.822 58.0366 58.7632L58.0367 58.7632L58.0472 58.7603L58.0474 58.7602C58.5174 58.6294 59.4798 58.0373 60.942 56.6497L60.9199 56.6714L62.4329 55.1266L62.3565 55.2163C63.0197 54.3175 64.0622 53.0409 65.473 51.3954C65.7776 51.0401 66.3156 50.9965 66.6746 51.2978C67.0336 51.5992 67.0778 52.1315 66.7732 52.4868C65.3684 54.1252 64.3588 55.3637 63.7336 56.211C63.7103 56.2426 63.6848 56.2726 63.6573 56.3007L62.1442 57.8455C62.137 57.8529 62.1296 57.8601 62.1222 57.8672C60.6515 59.2629 59.4236 60.1296 58.5092 60.3842L58.5093 60.3842L58.4988 60.3871L58.4989 60.3871C58.189 60.4734 57.5223 60.6575 56.6062 60.4002C55.5967 60.1166 55.0117 59.7322 54.7574 59.549L54.7733 59.5601L51.9364 57.6125L51.9806 57.6409C51.96 57.6285 51.9408 57.6163 51.9225 57.6042C51.8243 57.5394 51.7298 57.462 51.6516 57.3948C51.545 57.3031 51.427 57.1938 51.3162 57.0913C51.1795 56.9649 51.0435 56.8392 50.9047 56.7199C50.5493 56.4143 50.5115 55.8816 50.8203 55.5299C51.1291 55.1782 51.6676 55.1409 52.023 55.4464Z" fill="black"/>
<path d="M78.5932 38.8467C77.9392 39.646 69.2365 49.9803 68.3267 50.9281L66.4696 52.8627C66.1454 53.2005 65.6058 53.2143 65.2644 52.8934C64.923 52.5726 64.9092 52.0387 65.2334 51.7009L67.0905 49.7663C67.9437 48.8774 76.5998 38.6019 77.2681 37.7852C77.5643 37.4231 78.1012 37.3672 78.4671 37.6604C78.833 37.9535 78.8895 38.4847 78.5932 38.8467Z" fill="black"/>
<path d="M77.0008 38.4741C77.0471 38.6781 77.1641 38.7767 77.1327 38.7449C77.0983 38.7099 77.0067 38.6396 76.78 38.4743C76.5516 38.3079 76.2429 38.0833 75.9309 37.8086C74.8315 36.8405 74.1835 36.3764 74.0554 36.2968C74.0135 36.2707 73.9739 36.2411 73.9372 36.2082L63.7396 27.0832L63.7745 27.1129C63.466 26.8654 62.6816 26.3931 61.3346 25.6751C61.2984 25.6558 61.2637 25.634 61.2307 25.6097L59.2404 24.1477C58.8624 23.87 58.7834 23.3416 59.0641 22.9676C59.3447 22.5935 59.8787 22.5154 60.2567 22.7931L62.247 24.2552L62.1431 24.1899C63.4632 24.8935 64.3939 25.4379 64.8482 25.8024C64.8601 25.8119 64.8718 25.8218 64.8832 25.832L75.0808 34.9569L74.9625 34.8683C75.2121 35.0235 75.9439 35.5618 77.0644 36.5484C77.3099 36.7646 77.5588 36.9467 77.7913 37.1162C77.9628 37.2412 78.1971 37.4084 78.3534 37.5671C78.4207 37.6353 78.6002 37.8223 78.6643 38.1042C78.7675 38.5587 78.4788 39.01 78.0194 39.1121C77.5601 39.2143 77.104 38.9286 77.0008 38.4741Z" fill="black"/>
<path d="M65.2512 50.2566L65.2512 50.2567C65.2067 50.6224 65.2975 50.9277 65.5238 51.1726C65.2273 50.8517 63.0486 48.9037 58.9876 45.3287C58.9579 45.3026 58.9295 45.2751 58.9025 45.2462L52.9874 38.9293L53.1523 39.0764C51.6649 37.9723 50.2767 36.7254 48.9878 35.3356C48.5264 34.8381 48.56 34.0647 49.0628 33.6082C49.5656 33.1516 50.3473 33.1849 50.8086 33.6824C51.9943 34.9609 53.2698 36.1069 54.6352 37.1203C54.6945 37.1643 54.7497 37.2136 54.8001 37.2674L60.7153 43.5843L60.6302 43.5019C64.7547 47.1328 66.994 49.1398 67.3479 49.5228C67.6317 49.83 67.7506 50.1722 67.7047 50.5493C67.623 51.2197 67.0076 51.6976 66.3301 51.6168C65.6525 51.536 65.1695 50.927 65.2512 50.2566Z" fill="black"/>
<path d="M60.4283 57.0422L56.8176 53.5989L56.9253 53.6904C55.6443 52.7227 53.6439 50.9931 50.924 48.5015C50.9188 48.4967 50.9136 48.4919 50.9084 48.487C50.0582 47.6806 49.1287 46.6531 48.12 45.4044C48.0899 45.3671 48.062 45.3281 48.0364 45.2876L48.0365 45.2876C48.0746 45.3482 48.1114 45.3966 48.1469 45.433C48.0065 45.2892 47.4556 44.83 46.4942 44.0555C46.4613 44.029 46.4298 44.0008 46.3998 43.9711L44.3489 41.9379C43.8668 41.46 43.8675 40.6858 44.3505 40.2088C44.8335 39.7318 45.6159 39.7326 46.098 40.2105L48.1489 42.2437L48.0545 42.1593C49.0921 42.9952 49.7153 43.52 49.924 43.7337C50.0098 43.8215 50.0797 43.9085 50.1339 43.9945L50.0504 43.8777C50.991 45.042 51.847 45.99 52.6185 46.7218L52.6029 46.7072C55.2654 49.1462 57.206 50.826 58.4249 51.7468C58.4625 51.7752 58.4985 51.8057 58.5326 51.8383L62.1433 55.2816C62.6346 55.7502 62.6491 56.5241 62.1755 57.0103C61.7019 57.4965 60.9197 57.5108 60.4283 57.0422Z" fill="black"/>
<path d="M34.8531 30.3084C34.8743 30.4122 34.9088 30.4635 34.9047 30.4569C34.7973 30.2854 34.0882 29.6442 32.2417 28.9008C31.3846 28.5557 30.8963 28.6215 30.8285 28.6412C30.8283 28.6413 30.8328 28.64 30.8415 28.6366L30.8415 28.6366C30.6695 28.7032 30.4346 28.8718 29.937 29.2737L29.937 29.2737C30.0567 29.177 30.121 29.0806 30.0949 29.1155L30.0949 29.1156C30.0872 29.1258 30.0713 29.1486 30.0257 29.2148C29.8409 29.4836 29.4824 30.0041 28.8501 30.6631C28.2803 31.2568 27.7911 31.6712 27.4637 31.9489C27.2613 32.1205 27.1792 32.1922 27.1409 32.2322L27.141 32.232C27.1401 32.233 27.1401 32.233 27.1398 32.2333L27.1399 32.2332C27.1393 32.2339 27.1459 32.2269 27.1566 32.2134L27.1566 32.2133C26.1676 33.4621 25.5761 34.4328 25.3155 35.1915L25.3782 34.739C25.3637 34.4785 25.2304 34.3643 25.2401 34.3729C25.2403 34.373 25.2491 34.3807 25.2697 34.3937C26.2982 35.0416 27.1794 35.6291 27.7141 36.1729L27.4693 35.981L28.7301 36.7308L28.6833 36.7044C29.0986 36.9271 29.6367 37.1283 30.3181 37.2998C30.2777 37.2896 30.2358 37.2954 30.2225 37.2999L30.2224 37.2999C30.2226 37.2998 30.2227 37.2998 30.2234 37.2995L30.039 37.3864C30.5993 37.0627 31.6439 36.0575 31.6834 36.0191C32.5321 35.1931 33.4539 33.9975 34.5537 32.4506C34.8577 32.0231 35.0624 31.5551 35.236 31.0425L35.236 31.0425C35.1667 31.2471 35.1957 31.3862 35.191 31.3508L35.191 31.3508C35.1847 31.3037 35.1355 31.0997 34.9528 30.6806C34.6873 30.0715 34.9711 29.3649 35.5866 29.1022C36.2021 28.8396 36.9163 29.1204 37.1818 29.7294C37.3864 30.199 37.546 30.6506 37.5975 31.0365L37.5975 31.0364C37.6197 31.2028 37.6428 31.4953 37.5376 31.806L37.5376 31.8059C37.3244 32.4352 37.0295 33.1427 36.539 33.8326C35.436 35.384 34.4055 36.7388 33.3857 37.7314C33.4251 37.693 32.1438 38.9517 31.263 39.4605C31.2041 39.4946 31.1424 39.5236 31.0786 39.5474C31.0518 39.5574 31.025 39.5668 30.9977 39.5759L30.9976 39.576C30.58 39.7152 30.145 39.7346 29.7198 39.6276C28.9052 39.4225 28.1661 39.1591 27.5263 38.8158C27.5105 38.8074 27.495 38.7986 27.4796 38.7894L26.2188 38.0396C26.1293 37.9864 26.047 37.9219 25.9741 37.8477C25.6721 37.5405 25.044 37.0988 23.9661 36.4198C23.8464 36.3444 23.7325 36.2605 23.627 36.1676L23.627 36.1676C23.2845 35.8663 22.9853 35.4244 22.9545 34.8712C22.9459 34.7178 22.9672 34.5642 23.0172 34.4187C23.4115 33.2704 24.2072 32.0435 25.246 30.7318L25.246 30.7317C25.2836 30.6843 25.3209 30.642 25.3552 30.6052L25.3553 30.6051C25.364 30.5957 25.3719 30.5874 25.3803 30.5786L25.3805 30.5784C25.526 30.4268 25.7254 30.2598 25.8839 30.1253C26.2016 29.8559 26.6108 29.5084 27.0897 29.0093C27.5896 28.4883 27.8628 28.0905 28.019 27.8635C28.053 27.8141 28.1007 27.7442 28.1437 27.6868L28.1436 27.6869C28.1595 27.6656 28.2569 27.5302 28.402 27.413L28.402 27.413C28.8139 27.0803 29.358 26.6319 29.9566 26.4L29.9567 26.4C30.0197 26.3756 30.0829 26.3545 30.1456 26.3363L30.1456 26.3363C30.9006 26.1174 31.9719 26.1991 33.1566 26.676C35.0409 27.4347 36.4178 28.3126 36.9684 29.1923C37.0761 29.3644 37.1812 29.581 37.2328 29.8341C37.3651 30.4843 36.9397 31.1176 36.2826 31.2485C35.6255 31.3795 34.9855 30.9585 34.8531 30.3084Z" fill="black"/>
<path d="M23.8132 36.2649L22.0074 36.7824L22.3256 36.6394C22.3029 36.6538 22.2938 36.6621 22.2936 36.6623L22.2935 36.6623C22.2936 36.6623 22.2977 36.6585 22.3043 36.6505L22.3178 36.6337C21.9863 37.0526 21.9164 37.5622 21.9253 37.4981L21.9253 37.4979C21.9255 37.4963 21.9256 37.4957 21.9256 37.4958L21.9256 37.4957C21.9129 37.6315 22.0217 37.9581 22.0798 38.0818L22.0798 38.0817C22.146 38.2226 22.0533 37.988 21.8998 37.8175L21.8989 37.8165C22.2751 38.2333 22.4572 38.4333 22.5147 38.4889C22.6087 38.5798 22.4411 38.3882 22.187 38.2822C22.2988 38.3289 22.4029 38.3918 22.4958 38.469C23.1475 39.0102 26.3226 41.5148 26.3329 41.5229L26.319 41.5121L27.6384 42.522L27.5503 42.4606C27.4889 42.4217 27.3815 42.3939 27.2838 42.4102L27.1329 42.4453L29.6674 41.6844C29.6699 41.6837 29.6724 41.6829 29.675 41.6822L29.675 41.6822C29.0022 41.8794 28.8849 42.5467 28.9823 42.2665L28.9823 42.2665C29.0529 42.0633 29.1737 41.1555 29.0838 40.2965C29.0399 39.8774 29.0773 39.5494 29.1284 39.3201L29.1284 39.3201C29.1465 39.2389 29.1652 39.1755 29.1788 39.1326C29.3794 38.4997 30.0605 38.1476 30.7001 38.3461C31.3397 38.5446 31.6955 39.2186 31.4949 39.8514C31.4972 39.844 31.4985 39.8391 31.4988 39.8375L31.4988 39.8375C31.4999 39.8326 31.4829 39.9022 31.4982 40.0489C31.6106 41.1218 31.5003 42.4072 31.2777 43.0476L31.2777 43.0476C31.3035 42.9734 31.1109 43.7663 30.3645 43.9851L30.3721 43.9828L27.8377 44.7437C27.7882 44.7585 27.7378 44.7703 27.6868 44.7787C27.1708 44.8647 26.6704 44.7552 26.2411 44.4832C26.2108 44.464 26.1815 44.4435 26.1531 44.4218L24.8337 43.4118C24.829 43.4083 24.8244 43.4046 24.8198 43.401C24.8301 43.4091 21.6174 40.8752 20.9353 40.3087L21.2441 40.4955C20.974 40.3828 20.7738 40.1638 20.8179 40.2064C20.6837 40.0767 20.4217 39.7856 20.0884 39.4165L20.0875 39.4155C19.9317 39.2425 19.8286 38.9879 19.8786 39.0943L19.8786 39.0943C19.8101 38.9484 19.4309 38.1054 19.5084 37.2749L19.5085 37.2747C19.5116 37.2407 19.5155 37.207 19.5203 37.1719L19.5204 37.1716C19.5293 37.1075 19.6724 36.0807 20.4066 35.153C20.4111 35.1473 20.4155 35.1418 20.4201 35.1362C20.4896 35.0515 20.5641 34.9736 20.6421 34.902L20.642 34.9021C20.7594 34.7943 20.8849 34.7003 21.0139 34.6184C21.1124 34.5558 21.2196 34.5076 21.3321 34.4754L23.1379 33.9579C23.7817 33.7734 24.4548 34.1402 24.6413 34.7773C24.8278 35.4144 24.457 36.0804 23.8132 36.2649Z" fill="black"/>
<path d="M30.7289 26.2433C31.5355 25.3206 32.1046 24.7387 32.4361 24.4977C32.599 24.3792 32.7613 24.295 32.923 24.2451L32.6792 24.3506C33.6387 23.8041 34.4582 23.5151 35.1379 23.4835L35.1357 23.4836C35.3623 23.4727 35.6112 23.4865 35.8827 23.525C35.9087 23.5286 35.9345 23.5332 35.9602 23.5385L37.5723 23.8739L37.1592 23.8592C37.308 23.8392 37.468 23.8475 37.6393 23.8842L37.6393 23.8842C37.8849 23.9368 38.6545 24.1615 39.9481 24.5583L39.8659 24.5362C39.8659 24.5362 39.866 24.5362 39.8661 24.5362L39.8674 24.5365C40.3268 24.6431 40.9636 24.954 41.778 25.4692C41.8153 25.4928 41.8513 25.5185 41.8858 25.546C42.469 26.011 42.8674 26.3854 43.0812 26.6689C43.5508 27.2918 43.5687 27.8694 43.135 28.4019L43.1349 28.402C43.0826 28.4663 43.0244 28.5251 42.9603 28.5784L43.3759 27.4633C43.5143 28.2888 43.2343 29.2278 42.5357 30.2802C42.479 30.3657 42.4115 30.4436 42.3348 30.5122C42.0435 30.7724 41.6706 30.9098 41.216 30.9244C41.1553 30.9263 41.0928 30.9261 41.0285 30.9236C40.913 30.9192 40.7988 30.8984 40.6893 30.862C40.1951 30.6978 39.8818 30.606 39.7495 30.5866L39.7494 30.5866C39.7507 30.5868 39.7527 30.5871 39.7552 30.5873C39.7481 30.5865 39.7411 30.5857 39.7341 30.5848C39.0131 30.4896 38.5277 30.4611 38.2778 30.4992L38.4513 30.4596C37.9719 30.6063 37.6757 30.7386 37.5626 30.8566C37.587 30.8311 37.6088 30.791 37.6281 30.7363C37.4078 31.3627 36.7159 31.6938 36.0829 31.4758C35.4498 31.2577 35.1152 30.5732 35.3356 29.9468C35.4307 29.6763 35.5858 29.4289 35.8008 29.2044C36.2055 28.7819 36.8501 28.4354 37.7346 28.1649C37.7914 28.1475 37.8494 28.1343 37.9081 28.1253C38.3879 28.0522 39.1035 28.0784 40.055 28.204L40.0339 28.2014C40.057 28.204 40.0806 28.2071 40.1047 28.2106L40.1047 28.2106C40.3792 28.2508 40.8316 28.3756 41.462 28.5851L41.1228 28.5236C41.1295 28.5238 41.1344 28.5239 41.1376 28.5238C40.9997 28.5282 40.8564 28.5969 40.7077 28.7297L40.5068 28.9617C40.8579 28.4326 41.0161 28.0641 40.9813 27.8563C40.9111 27.438 41.0691 27.0142 41.3969 26.7411C41.3414 26.7873 41.2908 26.8385 41.2451 26.8945L41.245 26.8947C40.8912 27.3291 40.8547 27.7325 41.1354 28.105C41.044 27.9837 40.7864 27.7541 40.3625 27.416L40.4703 27.4928C39.889 27.125 39.5033 26.919 39.3131 26.8749L39.3144 26.8752C39.3134 26.875 39.3125 26.8748 39.3115 26.8745C39.2849 26.8684 39.2569 26.8609 39.2293 26.8524C38.0034 26.4764 37.3023 26.2695 37.1258 26.2317L37.1258 26.2317C37.2327 26.2546 37.3527 26.2571 37.4859 26.2392C37.3483 26.2576 37.2086 26.2526 37.0728 26.2244L35.4607 25.8889L35.5383 25.9025C35.4203 25.8858 35.3256 25.8791 35.2539 25.8826L35.2518 25.8827C34.9637 25.8961 34.5099 26.0793 33.8902 26.4322C33.8131 26.4761 33.7313 26.5115 33.6464 26.5378C33.7428 26.508 33.8184 26.4731 33.8734 26.4332C33.6885 26.5676 33.2523 27.028 32.5648 27.8146C32.1263 28.3162 31.3598 28.3711 30.8528 27.9373C30.3459 27.5034 30.2904 26.745 30.7289 26.2433Z" fill="black"/>
<path d="M41.6685 53.0451L40.5248 51.3091C40.5013 51.2734 40.4806 51.236 40.4628 51.1971C40.1726 50.5647 39.2322 48.9736 37.6416 46.4237L37.6638 46.4574L31.9823 38.2524C31.7162 37.8681 31.8153 37.3431 32.2037 37.0797C32.5921 36.8164 33.1227 36.9145 33.3888 37.2988L39.0703 45.5039C39.078 45.5149 39.0854 45.5262 39.0925 45.5376C40.721 48.1483 41.6953 49.8024 42.0153 50.4998L41.9532 50.3879L43.0968 52.1239C43.3539 52.5142 43.2426 53.0368 42.8481 53.2912C42.4537 53.5456 41.9256 53.4354 41.6685 53.0451Z" fill="black"/>
<path d="M41.8285 41.5464C41.5608 41.8309 41.513 42.1113 41.685 42.3877C41.6688 42.3616 41.6333 42.3173 41.5785 42.2547L41.6384 42.3166C40.1524 40.9319 39.3081 40.1137 39.1056 39.8622L39.1055 39.8621C39.1004 39.8558 39.0955 39.8496 39.0907 39.8434L39.124 39.8835L36.5361 36.9584C36.5205 36.9407 36.5055 36.9223 36.4914 36.9033L35.4452 35.499L35.4935 35.5581C35.4241 35.4806 35.3752 35.4303 35.3468 35.4072C35.4226 35.469 35.5273 35.5087 35.661 35.5264C35.1943 35.4646 34.8666 35.0402 34.929 34.5785C34.9914 34.1167 35.4203 33.7925 35.887 33.8542C36.0747 33.8791 36.2558 33.9625 36.4303 34.1047C36.5276 34.1839 36.6406 34.2954 36.7693 34.439C36.7863 34.4579 36.8024 34.4776 36.8176 34.498L37.8638 35.9023L37.819 35.8472L40.4069 38.7723C40.4184 38.7853 40.4295 38.7986 40.4402 38.8123C40.4398 38.8118 40.4395 38.8114 40.4393 38.8112L40.4392 38.8111C40.5911 38.9997 41.3804 39.7588 42.8073 41.0884C42.8284 41.108 42.8484 41.1286 42.8673 41.1502C42.9824 41.2818 43.0723 41.3994 43.1369 41.5032C43.4187 41.9561 43.3985 42.3538 43.0762 42.6962C42.7553 43.0371 42.2159 43.0561 41.8714 42.7386C41.5268 42.4211 41.5077 41.8874 41.8285 41.5464Z" fill="black"/>
<path d="M47.2643 38.4055C47.427 38.4172 47.5663 38.4903 47.6822 38.6249C47.7019 38.6477 47.7193 38.6724 47.7342 38.6986C47.8561 38.9127 47.9501 39.0463 48.0162 39.0993C48.0215 39.1036 48.0267 39.1079 48.0318 39.1124C48.2191 39.2765 48.5151 39.5183 48.92 39.838C48.9321 39.8475 48.9437 39.8577 48.9548 39.8683C49.4189 40.3151 49.7583 40.6179 49.9732 40.7767C49.9945 40.7925 50.0145 40.81 50.0329 40.8292L50.5135 41.3297L50.4648 41.2856C50.5808 41.3767 50.7577 41.503 50.9957 41.6646C51.2109 41.8106 51.2657 42.1016 51.1181 42.3145C50.9705 42.5274 50.6765 42.5817 50.4613 42.4356C50.2051 42.2617 50.0104 42.1225 49.8772 42.0178C49.8599 42.0043 49.8437 41.9895 49.8285 41.9737L49.3479 41.4732L49.4076 41.5257C49.1599 41.3426 48.7894 41.0135 48.2959 40.5385L48.3306 40.5688C47.9132 40.2392 47.6048 39.9871 47.4054 39.8125L47.421 39.8255C47.2617 39.6977 47.0917 39.4751 46.9109 39.1575L46.963 39.2313C47.0181 39.2953 47.0959 39.3309 47.1963 39.3381C46.936 39.3195 46.7403 39.0957 46.7591 38.8381C46.7778 38.5806 47.0041 38.3869 47.2643 38.4055Z" fill="black"/>
<path d="M55.2896 42.6931C55.363 42.7004 55.4382 42.7255 55.5152 42.7683C55.6332 42.834 55.8877 43.0214 56.2788 43.3306L56.2693 43.3233C56.6201 43.5865 57.4047 44.328 58.6231 45.5479L58.5962 45.5229L60.1544 46.8565C60.1689 46.8689 60.1826 46.8822 60.1955 46.8962L61.779 48.6258L61.7331 48.582L63.1893 49.7949C63.1964 49.8008 63.2033 49.8069 63.2101 49.8132C64.3617 50.8931 65.0115 51.5409 65.1593 51.7565C65.2436 51.8797 65.2778 52.0043 65.2617 52.1303C65.2289 52.3865 64.9925 52.5679 64.7337 52.5355C64.4748 52.5031 64.2915 52.2692 64.3242 52.013C64.3105 52.1203 64.3282 52.2097 64.3772 52.2813C64.2678 52.1216 63.6621 51.5252 62.5601 50.4919L62.5808 50.5102L61.1246 49.2973C61.1084 49.2838 61.093 49.2691 61.0787 49.2535L59.4952 47.524L59.5363 47.5637L57.978 46.23C57.9687 46.2221 57.9597 46.2137 57.951 46.2051C56.7643 45.0169 56.0134 44.3046 55.6984 44.0684C55.6952 44.066 55.6921 44.0635 55.6889 44.061C55.3378 43.7834 55.1255 43.6242 55.052 43.5833C55.0896 43.6042 55.1371 43.6176 55.1944 43.6233C54.9348 43.5973 54.7457 43.368 54.772 43.1111C54.7982 42.8543 55.03 42.6671 55.2896 42.6931Z" fill="black"/>
<path d="M63.3092 54.8091L60.7718 52.4537L60.8015 52.479L59.284 51.2878L59.295 51.2962C59.1223 51.1687 58.7853 50.8252 58.2839 50.2656L58.2917 50.2741C58.2914 50.2738 58.2911 50.2735 58.2909 50.2733C58.3329 50.3148 58.3962 50.3348 58.481 50.3333C58.2201 50.3379 58.0048 50.1324 58.0001 49.8743C57.9954 49.6161 58.203 49.4031 58.4639 49.3984C58.6466 49.3952 58.8117 49.4664 58.959 49.6121C58.967 49.6201 58.9751 49.6283 58.9831 49.6368C58.9857 49.6396 58.9883 49.6424 58.9909 49.6453C59.4495 50.1571 59.7393 50.4576 59.8602 50.547C59.864 50.5497 59.8676 50.5525 59.8713 50.5554L61.3887 51.7465C61.399 51.7546 61.4088 51.763 61.4184 51.7718L63.9557 54.1272C64.146 54.3039 64.1556 54.5997 63.977 54.788C63.7985 54.9763 63.4995 54.9857 63.3092 54.8091Z" fill="black"/>
<path d="M56.3475 48.7165C56.255 48.5951 56.1553 48.4868 56.0485 48.3916L56.061 48.4024C55.1683 47.6611 54.6733 47.2426 54.5759 47.1468C54.5624 47.1335 54.5504 47.1208 54.5399 47.1087L54.5623 47.1328L52.654 45.2227C52.4706 45.039 52.4723 44.743 52.6579 44.5615C52.8435 44.38 53.1426 44.3817 53.326 44.5654L55.2343 46.4755C55.2421 46.4832 55.2495 46.4912 55.2567 46.4995C55.2511 46.493 55.2463 46.4879 55.2424 46.484C55.3208 46.5612 55.7961 46.9619 56.6684 47.6861C56.6726 47.6897 56.6768 47.6932 56.6809 47.6969C56.8326 47.8321 56.9729 47.9843 57.1019 48.1534C57.259 48.3595 57.2175 48.6526 57.0092 48.8081C56.8009 48.9636 56.5046 48.9226 56.3475 48.7165Z" fill="black"/>
<path d="M52.0658 41.1817L52.0658 41.1817C52.0744 41.2017 52.0827 41.2171 52.0907 41.2278C52.0737 41.2052 52.034 41.1662 51.9716 41.1109L51.9929 41.1287C51.4763 40.7221 51.0251 40.3329 50.6392 39.9612L50.6395 39.9614L48.0987 37.5169C47.9116 37.3369 47.9074 37.0409 48.0893 36.8558C48.2712 36.6707 48.5703 36.6666 48.7574 36.8466L51.2982 39.2911L51.2984 39.2913C51.6616 39.6413 52.0892 40.0098 52.5811 40.3969C52.5883 40.4026 52.5954 40.4085 52.6023 40.4147C52.7117 40.5116 52.7937 40.5964 52.8484 40.669C52.8859 40.7188 52.9152 40.7685 52.9363 40.818C53.0378 41.0558 52.9253 41.33 52.6849 41.4305C52.4445 41.5309 52.1674 41.4196 52.0658 41.1817Z" fill="black"/>
<path d="M63.6468 26.6637C63.2628 26.7633 62.7803 27.1323 62.1991 27.7709L62.2464 27.7094C59.497 31.9756 56.9692 35.1292 54.6629 37.1703C54.4684 37.3424 54.1698 37.326 53.9958 37.1335C53.8218 36.9411 53.8385 36.6455 54.033 36.4734C56.2747 34.4895 58.7469 31.4006 61.4497 27.2067C61.4637 27.1849 61.4795 27.1644 61.4969 27.1452C62.2043 26.3681 62.841 25.9061 63.4073 25.7593C63.6597 25.6938 63.9179 25.8432 63.984 26.093C64.0502 26.3428 63.8992 26.5983 63.6468 26.6637Z" fill="black"/>
<path d="M60.6739 43.3762C60.6704 43.3771 60.6683 43.3783 60.668 43.3784C60.6669 43.3791 60.6767 43.3739 60.6927 43.3517C60.8222 43.1722 60.9372 43.0112 61.0378 42.8703C61.1159 42.761 61.1863 42.6624 61.2484 42.5764C61.3808 42.393 61.5016 42.2287 61.5904 42.1385L61.5905 42.1384C61.591 42.1379 61.5919 42.137 61.5924 42.1365L61.5921 42.1368C62.1436 41.5801 63.3355 40.1764 65.1627 37.884C65.6602 37.2598 69.6723 31.7868 69.9354 31.3246C70.0634 31.0996 70.3515 31.02 70.5789 31.1467C70.8062 31.2734 70.8868 31.5584 70.7587 31.7834C70.4548 32.3173 66.3985 37.8433 65.9046 38.463C64.0828 40.7486 62.86 42.1926 62.267 42.7912L62.2667 42.7915C62.2664 42.7918 62.2671 42.7911 62.2669 42.7913L62.267 42.7912C62.2406 42.818 62.1674 42.9119 62.0174 43.1198C61.9568 43.2038 61.8882 43.2998 61.8095 43.41C61.7092 43.5503 61.5924 43.7139 61.4617 43.895C61.3775 44.0117 61.2742 44.1091 61.1535 44.1806C61.0783 44.2251 60.9988 44.2582 60.9168 44.2798C60.6646 44.3462 60.4058 44.1977 60.3388 43.9482C60.2717 43.6987 60.4217 43.4426 60.6739 43.3762Z" fill="black"/>
<path d="M72.2486 34.8452L71.6277 35.6132L71.6495 35.5839L70.7283 36.9256C70.7134 36.9472 70.6968 36.9676 70.6785 36.9865C70.2551 37.4233 69.7833 38.0209 69.2631 38.7794C69.2522 38.7953 69.2403 38.8105 69.2275 38.825L68.5876 39.5474L68.6094 39.5209C68.4897 39.6778 68.2629 40.0383 67.9291 40.6023C67.7972 40.8251 67.5078 40.9 67.2826 40.7695C67.0574 40.639 66.9818 40.3526 67.1137 40.1298C67.4661 39.5344 67.7133 39.1436 67.8552 38.9576C67.8621 38.9485 67.8694 38.9397 67.877 38.9311L68.5168 38.2087L68.4812 38.2544C69.0312 37.4524 69.5363 36.814 69.9965 36.3393L69.9467 36.4002L70.8679 35.0585C70.8748 35.0484 70.8821 35.0387 70.8898 35.0292L71.5107 34.2612C71.6737 34.0596 71.971 34.0269 72.1747 34.1881C72.3785 34.3494 72.4115 34.6436 72.2486 34.8452Z" fill="black"/>
<path d="M66.5577 42.5098C66.3591 42.6152 66.1702 42.7592 65.991 42.9419L66.0112 42.9199C65.9607 42.9784 65.9122 43.0413 65.8659 43.1088L65.8739 43.0967C65.423 43.798 65.1474 44.207 65.0471 44.3238C65.0154 44.3606 64.9835 44.3912 64.9512 44.4155L65.0729 44.2793C65.0641 44.2942 65.0542 44.3096 65.0433 44.3255L65.0433 44.3254C64.9456 44.4674 64.621 44.8163 64.0695 45.372L64.09 45.35C63.9998 45.4535 63.9354 45.5404 63.897 45.6107C63.773 45.8379 63.4863 45.9225 63.2568 45.7998C63.0272 45.6771 62.9416 45.3934 63.0657 45.1663C63.1366 45.0363 63.2397 44.8939 63.3747 44.7391C63.3813 44.7315 63.3882 44.7242 63.3952 44.717C63.9073 44.201 64.1963 43.895 64.2624 43.799L64.2625 43.7989C64.261 43.8011 64.2591 43.8041 64.2568 43.8081C64.2879 43.7552 64.3293 43.7089 64.3785 43.6719C64.3566 43.6883 64.3395 43.7038 64.3271 43.7182C64.3992 43.6343 64.6491 43.2598 65.0766 42.5948C65.0792 42.5908 65.0819 42.5868 65.0846 42.5828C65.1505 42.4871 65.2199 42.397 65.2928 42.3125C65.2993 42.3049 65.3061 42.2976 65.313 42.2905C65.5604 42.0385 65.8264 41.8369 66.1111 41.6858C66.3411 41.5638 66.6275 41.6494 66.7508 41.8769C66.8741 42.1044 66.7877 42.3878 66.5577 42.5098Z" fill="black"/>
<path d="M62.4865 45.8837C62.48 45.8911 62.475 45.8973 62.4715 45.9023C62.4902 45.8757 62.529 45.8081 62.5877 45.6996C62.5949 45.6863 62.6027 45.6733 62.6112 45.6608C62.6583 45.591 62.7198 45.5132 62.7958 45.4276L62.7554 45.4802L62.8676 45.3105L62.8425 45.3532C62.868 45.3039 62.9046 45.2558 62.9521 45.2089C62.9793 45.182 63.0169 45.1484 63.0651 45.1081L62.9879 45.1904C63.0557 45.098 63.1297 45.0129 63.21 44.9348C63.2266 44.9188 63.2443 44.9039 63.263 44.8904C63.2888 44.8718 63.3155 44.8456 63.343 44.8115C63.5062 44.6101 63.8035 44.5776 64.0071 44.739C64.2108 44.9005 64.2436 45.1947 64.0804 45.3962C64.0002 45.4953 63.913 45.5787 63.8191 45.6464L63.8721 45.6019C63.8293 45.6435 63.7894 45.6895 63.7525 45.7397C63.7303 45.7701 63.7044 45.7977 63.6754 45.8219C63.6471 45.8457 63.6285 45.8619 63.6196 45.8706C63.6424 45.8481 63.6638 45.8177 63.6836 45.7795C63.676 45.7941 63.6676 45.8084 63.6585 45.8222L63.5463 45.992C63.5341 46.0104 63.5206 46.028 63.5059 46.0445C63.4574 46.0992 63.4211 46.1443 63.3971 46.1799L63.4207 46.141C63.3446 46.2816 63.2867 46.3801 63.247 46.4365C63.2314 46.4586 63.216 46.4784 63.2007 46.4959C63.0298 46.6911 62.7314 46.7122 62.5342 46.5432C62.337 46.3741 62.3156 46.0789 62.4865 45.8837Z" fill="black"/>
<path d="M75.5456 37.3302C75.1196 37.722 74.7306 38.124 74.3786 38.5361L74.3908 38.5213L72.7295 40.6357L72.8063 40.4917C72.7855 40.5556 72.7493 40.6183 72.6974 40.6797C72.5956 40.8004 72.2386 41.1309 71.6264 41.6711L71.6556 41.6431L71.2257 42.0937C71.0466 42.2814 70.7476 42.29 70.5578 42.1127C70.3681 41.9355 70.3594 41.6396 70.5385 41.4519L70.9684 41.0013C70.9777 40.9915 70.9874 40.9822 70.9975 40.9733C71.5751 40.4636 71.8999 40.1661 71.9719 40.0807C71.9452 40.1124 71.9234 40.1542 71.9066 40.2058C71.9235 40.1538 71.9495 40.105 71.9834 40.0619L73.6447 37.9474C73.6487 37.9424 73.6527 37.9375 73.6569 37.9326C74.0333 37.4918 74.4484 37.0627 74.9022 36.6453C75.0934 36.4696 75.3923 36.4804 75.57 36.6695C75.7476 36.8586 75.7367 37.1544 75.5456 37.3302Z" fill="black"/>
<path d="M70.3253 43.3096C70.2966 43.547 70.1595 43.8724 69.914 44.2858C69.9074 44.2969 69.9004 44.3077 69.8929 44.3182L69.1278 45.3928L69.1498 45.359L68.615 46.2673C68.6054 46.2835 68.5949 46.2992 68.5834 46.3141C67.9934 47.0852 67.3266 47.8029 66.5831 48.4673C66.3894 48.6404 66.0907 48.6253 65.9158 48.4337C65.7409 48.2421 65.7561 47.9465 65.9498 47.7734C66.6492 47.1485 67.2759 46.4739 67.8301 45.7497L67.7985 45.7966L68.3333 44.8883C68.3402 44.8767 68.3475 44.8654 68.3553 44.8544L69.1204 43.7798L69.0993 43.8122C69.278 43.5111 69.374 43.3065 69.387 43.1985C69.4181 42.9421 69.6532 42.7592 69.9123 42.7899C70.1714 42.8206 70.3563 43.0533 70.3253 43.3096Z" fill="black"/>
<path d="M26.8066 31.7443C26.7594 31.8154 26.7195 31.8922 26.6882 31.974L26.6876 31.9741C26.687 31.9741 26.6863 31.9741 26.6856 31.9742V31.9742C26.7174 31.8869 26.7575 31.8102 26.806 31.7443L26.8066 31.7443ZM30.7684 27.663C30.598 27.6677 30.4236 27.6766 30.2453 27.6896C30.1885 27.6938 30.1322 27.7019 30.0766 27.7139C29.1227 27.9209 28.4023 28.4741 27.9154 29.3737L27.9149 29.3738C27.8198 29.51 27.7437 29.6689 27.6868 29.8505C27.5967 30.1377 27.5281 30.6055 27.4813 31.2538L27.4807 31.2538C27.2757 31.3119 27.0898 31.4233 26.9429 31.575L26.9429 31.575C26.9265 31.5728 26.91 31.5708 26.8934 31.5693C26.8435 31.5645 26.7939 31.5629 26.7449 31.5643C26.2332 31.5783 25.7791 31.9149 25.6287 32.4104C25.624 32.4259 25.6195 32.4412 25.6152 32.4565L25.6146 32.4566C25.4484 32.6159 25.3079 32.8122 25.193 33.0455C25.0245 33.3874 24.921 33.8169 24.8823 34.3339L24.8817 34.334C24.8049 34.4637 24.742 34.6092 24.6932 34.7707C24.6444 34.9318 24.6308 35.1013 24.6532 35.268C24.7086 35.6811 24.8308 36.0509 25.0197 36.3773L25.0191 36.3774C25.0167 36.3781 25.0143 36.3789 25.0119 36.3796V36.3797C24.5454 35.9739 23.9415 35.7492 23.2003 35.7054C23.1652 35.7033 23.1303 35.7027 23.0954 35.7037C22.8802 35.7096 22.6699 35.7727 22.4868 35.8872C22.4743 35.8951 22.4618 35.903 22.4495 35.911L22.4489 35.9111C22.2462 35.9759 22.0542 36.0957 21.8731 36.2705L21.8731 36.2706C21.8462 36.2965 21.8203 36.3235 21.7954 36.3517C21.6247 36.545 21.5218 36.7879 21.5022 37.044C21.4389 37.8716 21.5397 38.5422 21.8048 39.0556C22.1365 39.6984 22.6602 40.0754 23.3757 40.1864L23.3751 40.1865C23.4497 40.2006 23.5233 40.2113 23.5961 40.2186C23.6701 40.226 23.7423 40.2305 23.8129 40.2322L23.8123 40.2323C24.5318 41.2099 25.4279 42.13 26.5008 42.9924L26.5002 42.9925C26.8258 43.3027 27.1956 43.4522 27.6094 43.4409C27.8422 43.4345 28.0889 43.3772 28.3495 43.2691V43.2691C28.789 43.0868 29.2913 42.7111 29.8567 42.1421L29.8561 42.1422C30.2219 41.8026 30.3765 41.3462 30.3198 40.7729L30.3198 40.773C30.3029 40.6018 30.2653 40.4164 30.2069 40.2169C30.1971 40.1833 30.1858 40.1502 30.1731 40.1177C30.0696 39.8535 29.9363 39.5718 29.7732 39.2726C29.7619 39.252 29.7501 39.2317 29.7376 39.2118L29.4232 38.7087L29.4227 38.7088C29.3326 38.5065 29.2085 38.3167 29.0504 38.1395L29.0498 38.1395C29.0953 38.073 29.1373 38.0056 29.1758 37.9372L29.1764 37.9373C29.1852 37.9371 29.1941 37.9369 29.2029 37.9366C29.969 37.9156 30.8189 37.5453 31.7524 36.8257C31.7786 36.8055 31.8039 36.7843 31.8283 36.7621C32.2951 36.3363 32.6329 35.9026 32.8417 35.4609L32.8412 35.461C33.2185 35.1819 33.5244 34.8416 33.759 34.4401L33.7585 34.4401C33.8237 34.3542 33.8835 34.2654 33.9377 34.1738L33.9372 34.1738C34.4474 33.9299 34.8366 33.5156 35.1048 32.9311L35.1044 32.9312C35.3327 32.7389 35.5178 32.5345 35.6596 32.3181L35.6596 32.3182C35.9965 31.8039 36.0912 31.2611 35.9436 30.6896C35.9343 30.6534 35.9232 30.6177 35.9105 30.5826C35.4764 29.3848 34.6971 28.5551 33.5727 28.0934L33.5722 28.0935C33.0752 27.7799 32.5513 27.6307 32.0004 27.6458C31.8826 27.649 31.7636 27.6598 31.6433 27.678V27.6781C31.3642 27.6597 31.0725 27.6547 30.7684 27.663Z" fill="black"/>
<path d="M33.5674 28.1506C33.6308 28.1889 33.6849 28.2108 33.7298 28.2162C33.7195 28.2149 33.7027 28.2147 33.6796 28.2153L34.1885 28.0862C34.8592 27.7479 35.0163 27.2326 34.6597 26.5405C34.4611 26.1553 34.1744 25.9506 33.7995 25.9267C33.8731 25.9314 34.0357 25.9254 34.2873 25.9088C34.3448 25.9051 34.4025 25.9054 34.4599 25.9098C34.3807 25.9037 34.3145 25.9054 34.2613 25.915C34.3515 25.8988 34.5549 25.8387 34.8716 25.7346C34.8859 25.7299 34.9002 25.7255 34.9147 25.7213C34.9845 25.7012 35.062 25.685 35.1471 25.6725L35.147 25.6725C35.2164 25.6623 35.2987 25.6535 35.3938 25.646C35.4027 25.6453 35.4116 25.6447 35.4205 25.6442C35.534 25.6378 35.6453 25.6387 35.7545 25.6468C36.0222 25.6666 36.273 25.7293 36.507 25.8348L36.4653 25.817C36.9556 26.0162 37.4327 26.3542 37.8967 26.8309C37.9007 26.835 37.9047 26.8392 37.9087 26.8434C38.1444 27.0928 38.3205 27.3088 38.4369 27.4914C38.8721 28.1741 38.8261 28.7594 38.2987 29.2475L38.2988 29.2474C38.1651 29.3711 38.0106 29.4628 37.8351 29.5224L38.4396 29.0646C38.1445 29.496 37.6946 29.72 37.0901 29.7364C36.8784 29.7421 36.6408 29.7201 36.3773 29.6703C36.3296 29.6613 36.2826 29.6494 36.2364 29.6348C35.531 29.4113 34.9746 29.0922 34.5672 28.6774L34.5642 28.6744C34.0187 28.1149 33.6418 27.489 33.4337 26.7966C33.4315 26.7892 33.4293 26.7818 33.4272 26.7744C33.2649 26.1933 33.374 25.7004 33.7543 25.2958C33.8374 25.2073 33.9337 25.1319 34.0398 25.0722C34.332 24.9077 34.6747 24.8513 35.0679 24.9031C35.1296 24.9113 35.1936 24.9221 35.2597 24.9357C35.2623 24.9363 35.2647 24.9368 35.2673 24.9373C35.2713 24.9382 35.2754 24.939 35.2797 24.94L35.2797 24.94C35.435 24.9738 35.6327 25.0344 35.8726 25.1217L35.8673 25.1198C36.1314 25.2145 36.5954 25.3957 37.2592 25.6633L37.2244 25.6499C37.328 25.688 37.4433 25.7245 37.5702 25.7594L37.5749 25.7607C37.7099 25.7983 37.8015 25.8203 37.8499 25.8266C37.8441 25.8258 37.8359 25.8252 37.8253 25.8246C37.8317 25.8249 37.8382 25.8254 37.8446 25.8258C37.8877 25.8289 37.9172 25.8306 37.933 25.8308H37.933C37.9169 25.8306 37.8961 25.8314 37.8707 25.8334L37.7917 25.8421C37.9994 25.8122 38.1733 25.796 38.3134 25.7935C38.3337 25.7931 38.3536 25.793 38.3731 25.7932C38.3786 25.7932 38.3842 25.7933 38.3897 25.7934C38.4871 25.7955 38.5749 25.8006 38.653 25.8086L38.653 25.8086C38.7481 25.8184 38.8358 25.8333 38.9161 25.8533C38.927 25.856 38.9379 25.8588 38.9487 25.8619C39.3358 25.9697 39.8206 26.1429 40.4031 26.3814L40.3819 26.373C40.5927 26.4547 40.7785 26.548 40.9395 26.6529C41.5494 27.0504 41.8265 27.5745 41.7708 28.2252C41.7696 28.2391 41.7682 28.253 41.7665 28.2669C41.6446 29.2681 41.0675 29.7072 40.0352 29.5842C39.9552 29.5747 39.8735 29.5601 39.79 29.5403C39.7289 29.5259 39.6665 29.5086 39.6029 29.4885C38.971 29.2891 38.6221 28.6205 38.8237 27.9953C39.0253 27.3701 39.7009 27.0249 40.3328 27.2244C40.3398 27.2266 40.345 27.2281 40.3484 27.2289C40.3423 27.2275 40.3336 27.2261 40.3223 27.2247C39.7649 27.1583 39.4514 27.411 39.3819 27.9828L39.3775 28.0246C39.3529 28.3126 39.4331 28.5169 39.6182 28.6376C39.5976 28.6241 39.5602 28.6069 39.5059 28.5858C39.4988 28.5831 39.4918 28.5803 39.4847 28.5774C38.9895 28.3746 38.5937 28.232 38.2976 28.1494L38.3302 28.158C38.3611 28.1657 38.3861 28.1705 38.4052 28.1725L38.4052 28.1725C38.3919 28.1711 38.3691 28.1701 38.3369 28.1694L38.3535 28.1696C38.3552 28.1697 38.3564 28.1697 38.3572 28.1696C38.3183 28.1703 38.245 28.1784 38.1375 28.1939C38.1113 28.1977 38.0849 28.2006 38.0585 28.2027C38.0075 28.2066 37.9518 28.2081 37.8914 28.207L37.8914 28.207C37.8317 28.206 37.7584 28.2024 37.6716 28.1962L37.6909 28.1974C37.6408 28.1946 37.5885 28.1897 37.5341 28.1825C37.3722 28.1613 37.1687 28.1165 36.9235 28.0481L36.9282 28.0494C36.7354 27.9965 36.5552 27.9392 36.3876 27.8776C36.376 27.8733 36.3644 27.8689 36.3529 27.8642C35.7181 27.6083 35.2833 27.4382 35.0485 27.354L35.0433 27.3521C34.9057 27.302 34.8126 27.2717 34.7638 27.2611L34.7638 27.2611C34.764 27.2611 34.764 27.2611 34.764 27.2611L34.7716 27.2627C34.7621 27.2607 34.7551 27.2595 34.7507 27.2589C34.8921 27.2775 35.0511 27.2372 35.2276 27.1378L35.5131 26.9142C35.7419 26.6709 35.8182 26.4132 35.7423 26.1413L35.7359 26.1191C35.8327 26.4411 36.0182 26.7428 36.2926 27.0242L36.2897 27.0212C36.4181 27.1519 36.6445 27.2687 36.9687 27.3714L36.8279 27.3359C36.9208 27.3535 36.9862 27.3618 37.0241 27.3607C36.8072 27.3666 36.6161 27.4905 36.4506 27.7325C36.5966 27.519 36.8087 27.3583 37.0551 27.2747C36.9067 27.3251 36.7743 27.4041 36.658 27.5118L36.658 27.5118C36.2186 27.9184 36.1345 28.3343 36.4055 28.7594C36.3701 28.7039 36.2864 28.6063 36.1545 28.4668L36.1666 28.4794C35.9362 28.2427 35.7316 28.088 35.5527 28.0153C35.5387 28.0096 35.5249 28.0036 35.5111 27.9974C35.5368 28.009 35.558 28.0154 35.5748 28.0167C35.5711 28.0164 35.5652 28.0165 35.5573 28.0169L35.584 28.0151C35.5429 28.0184 35.5145 28.0211 35.4988 28.0234L35.4988 28.0234C35.5217 28.0201 35.5506 28.0134 35.5856 28.0033L35.6286 27.99C35.2043 28.1295 34.8913 28.2173 34.6894 28.2534C34.5394 28.2803 34.4011 28.2889 34.2744 28.2792L34.447 28.2801C34.0904 28.3036 33.823 28.3097 33.6445 28.2983C33.1101 28.2641 32.7353 28.038 32.5199 27.62C32.1492 26.9006 32.3418 26.3503 33.0975 25.969C33.2555 25.8893 33.4293 25.8452 33.6065 25.8399C33.7514 25.8355 33.8895 25.8413 34.0208 25.8571C34.3201 25.8933 34.5861 25.9816 34.8187 26.1221C35.3848 26.464 35.5636 27.1952 35.2181 27.7554C34.8726 28.3156 34.1335 28.4925 33.5674 28.1506Z" fill="black"/>
<path d="M49.227 34.4502C48.335 34.4747 47.8151 34.9969 47.6675 36.017L47.6675 36.0171C47.6518 36.1255 47.6463 36.2352 47.6512 36.3446L47.6508 36.3447C47.6505 36.4336 47.6389 36.6144 47.6163 36.8872L47.6159 36.8872C47.179 37.072 46.7865 37.3866 46.4384 37.831L46.4384 37.8311C46.399 37.8813 46.3608 37.9331 46.3237 37.9864C46.1975 38.1677 46.084 38.367 45.9833 38.5845C45.9519 38.6522 45.9249 38.7217 45.9024 38.7927C45.6879 39.4709 45.705 40.1028 45.9538 40.6885L45.9534 40.6885C45.9646 40.7458 45.978 40.8035 45.9936 40.8616C46.0313 41.0021 46.0864 41.1375 46.1577 41.2647C46.4022 41.7007 46.7541 42.0622 47.2135 42.3491C47.5494 42.5589 47.9418 42.7256 48.3907 42.8493L48.3903 42.8494C48.3924 42.8501 48.3944 42.8509 48.3965 42.8516L48.3961 42.8517C48.4931 43.081 48.6389 43.2895 48.8259 43.4619C49.1187 43.7318 49.4005 43.9906 49.6711 44.2385L49.6708 44.2386C49.706 44.3139 49.7469 44.3877 49.7939 44.4595C50.3687 45.3385 51.1505 46.2093 52.1392 47.0719C52.1485 47.08 52.1579 47.088 52.1674 47.0959C52.8895 47.6999 53.5271 48.1276 54.0803 48.3792L54.08 48.3792L55.1752 49.4068L55.1749 49.4069C55.9146 50.2253 56.6207 51.0662 57.2933 51.9295C57.3354 51.9835 57.3806 52.035 57.4287 52.0838C58.6804 53.3545 59.6237 54.2159 60.2586 54.668L60.2584 54.6681C60.4511 54.8171 60.6376 54.944 60.8178 55.0488L60.8176 55.0489C61.1807 55.4476 61.6877 55.645 62.1927 55.6312C62.4758 55.6235 62.7582 55.5493 63.0143 55.407L63.0141 55.407C63.6714 55.2184 64.1113 54.693 64.3336 53.8309L64.3334 53.831C64.4315 53.7233 64.5267 53.6037 64.6192 53.4722L64.619 53.4723C64.9976 52.9832 65.2622 52.5049 65.4128 52.0372C65.7586 50.9633 65.5711 50.0315 64.8502 49.2419L64.85 49.2419C64.4695 48.7564 64.1535 48.3825 63.9019 48.1204L63.9002 48.1186L58.1009 42.0934C58.0853 42.0772 58.0695 42.0614 58.0533 42.0458C57.4141 41.4302 56.8897 40.9513 56.4802 40.6091C56.4506 40.5844 56.4203 40.5607 56.3892 40.538C54.5055 39.1611 53.3891 38.2624 53.0398 37.8418C52.979 37.7686 52.9124 37.7004 52.8406 37.6379L52.8403 37.6379C52.6067 37.4033 51.9686 36.5907 50.926 35.2001C50.8918 35.1545 50.8554 35.1106 50.817 35.0685C50.5155 34.7383 50.1474 34.5424 49.7128 34.4807L49.7128 34.4808C49.5402 34.4563 49.3782 34.4461 49.227 34.4502Z" fill="black"/>
<path d="M61.7671 34.1312L60.6787 35.0959L60.6932 35.0827C59.8235 35.9097 59.0144 36.7568 58.2658 37.6239C58.2557 37.6356 58.2451 37.6468 58.2341 37.6577C57.4795 38.3975 56.8716 38.9784 56.4105 39.4004C56.1828 39.6088 55.8276 39.595 55.617 39.3698C55.4065 39.1445 55.4204 38.793 55.648 38.5847C56.0997 38.1713 56.6983 37.5992 57.4437 36.8684L57.412 36.9022C58.1845 36.0074 59.0188 35.1339 59.915 34.2816C59.9197 34.2771 59.9246 34.2727 59.9294 34.2683L61.0178 33.3036C61.2488 33.0989 61.6038 33.1182 61.8107 33.3467C62.0176 33.5753 61.9981 33.9265 61.7671 34.1312Z" fill="black"/>
<path d="M66.5906 29.1847C66.3012 29.4368 65.8238 29.993 65.1582 30.8534C64.9698 31.097 64.6174 31.1433 64.3711 30.9568C64.1249 30.7703 64.078 30.4216 64.2665 30.178C64.9767 29.2599 65.5041 28.6508 65.8486 28.3507C66.0814 28.148 66.4362 28.1703 66.6411 28.4006C66.846 28.6309 66.8234 28.982 66.5906 29.1847Z" fill="black"/>
<path d="M68.6126 31.2056C68.4108 31.5064 68.2246 31.7427 68.0542 31.9144L68.051 31.9177C66.8909 33.068 66.0259 33.971 65.4562 34.6268L65.4663 34.6148L63.3028 37.2521C63.2934 37.2635 63.2836 37.2745 63.2734 37.2851L60.5789 40.0844L60.6228 40.0328C59.6674 41.3039 59.0472 42.0415 58.7624 42.2456C58.7372 42.2637 58.7123 42.2799 58.6877 42.2943C58.421 42.4508 58.0765 42.3637 57.9184 42.0997C57.7603 41.8358 57.8483 41.495 58.1151 41.3385C58.1101 41.3415 58.1062 41.3439 58.1036 41.3458C58.2955 41.2083 58.8349 40.5496 59.7218 39.3697C59.7354 39.3516 59.75 39.3344 59.7657 39.3181L62.4603 36.5188L62.4309 36.5518L64.5945 33.9145C64.5978 33.9105 64.6012 33.9064 64.6046 33.9025C65.1925 33.2258 66.0763 32.3026 67.2561 31.1328L67.2528 31.1361C67.3733 31.0147 67.5148 30.8329 67.6772 30.5909C67.8488 30.3353 68.1973 30.2657 68.4556 30.4355C68.7139 30.6052 68.7842 30.9501 68.6126 31.2056Z" fill="black"/>
<path d="M48.3785 18.1907C48.6739 19.3249 48.9594 20.072 49.2349 20.4321L49.2346 20.4321C49.7753 21.2077 50.4157 21.8024 51.1559 22.2162C51.1923 22.2365 51.2308 22.2528 51.2707 22.2648L51.3883 22.3001L51.388 22.3001C51.1286 22.4379 50.8944 22.5753 50.6853 22.7125C50.6794 22.7164 50.6734 22.7205 50.6676 22.7246C50.2983 22.9873 49.7889 23.5004 49.1394 24.2638L49.139 24.2638C48.9676 24.4432 48.7227 24.8327 48.4042 25.4324C48.3017 25.1878 48.1674 24.9202 48.0015 24.6296L48.0011 24.6296C47.9813 24.5827 47.9555 24.5358 47.9239 24.4888C47.8084 24.3172 47.4905 23.9839 46.9701 23.489C46.9679 23.4869 46.9656 23.4847 46.9633 23.4825L46.9629 23.4825C46.7917 23.3002 46.5978 23.1401 46.3812 23.0022C45.8746 22.6793 45.4467 22.4241 45.0977 22.2368L45.0973 22.2368C45.456 21.9895 45.804 21.7112 46.1415 21.4017L46.1411 21.4018C46.6092 21.093 46.9428 20.7615 47.1417 20.4072L47.1414 20.4072C47.2602 20.2492 47.367 20.1036 47.4618 19.9706L47.4615 19.9707C47.5167 19.9231 47.5687 19.8623 47.6173 19.7882C47.6489 19.7401 47.6929 19.6607 47.7491 19.5502L47.7488 19.5502C47.872 19.3587 47.9539 19.2102 47.9947 19.1049C48.0148 19.0528 48.0296 19.0018 48.0391 18.952L48.0387 18.952C48.0476 18.9307 48.0564 18.9092 48.0653 18.8872L48.0649 18.8873C48.1568 18.6866 48.2612 18.4545 48.3781 18.1907L48.3785 18.1907ZM48.3697 15.0263C48.2349 15.03 48.0988 15.0974 47.9615 15.2286C47.893 15.2941 47.8366 15.3788 47.7924 15.4826C47.7619 15.5542 47.732 15.6468 47.7027 15.7603C47.6994 15.7731 47.6966 15.7859 47.6942 15.7988C47.4735 16.9981 47.2433 17.8924 47.0033 18.4818L47.003 18.4818C46.8995 18.7082 46.8176 18.8815 46.7572 19.0015L46.7569 19.0015C46.7186 19.059 46.6744 19.1233 46.6242 19.1943L46.6239 19.1943C46.2277 19.7088 45.8142 20.1644 45.3835 20.5612L45.3831 20.5612C44.8556 20.8797 44.089 21.1855 43.0832 21.4784C42.8947 21.5334 42.7482 21.6806 42.6956 21.8679C42.643 22.0552 42.6918 22.2562 42.8246 22.3994C42.9608 22.5462 43.1551 22.6904 43.4075 22.8321C43.4261 22.8426 43.4453 22.852 43.465 22.8603C44.503 23.2984 45.0993 23.5627 45.254 23.6532L45.2536 23.6532C45.2684 23.6646 45.2837 23.6752 45.2995 23.6851C45.7303 23.9549 46.0139 24.1506 46.1502 24.2721L46.1499 24.2722C46.2283 24.3584 46.299 24.4525 46.3618 24.5542C46.3713 24.5697 46.3816 24.5846 46.3926 24.5991C47.0289 25.4367 47.3849 26.7296 47.4606 28.478C47.4726 28.7552 47.6869 28.9825 47.9656 29.0135C47.9924 29.0165 48.019 29.0175 48.0454 29.0168C48.2926 29.01 48.5114 28.8442 48.5782 28.6023L49.1909 26.3836L49.1906 26.3836C49.5805 25.6123 49.8376 25.165 49.9619 25.0419C49.975 25.0292 49.9874 25.0159 49.9991 25.0021C50.5856 24.3118 51.0262 23.8602 51.3208 23.6472L51.3204 23.6472C51.7877 23.3414 52.4109 23.0278 53.19 22.7061C53.4116 22.6146 53.5513 22.3953 53.5392 22.158C53.5271 21.9207 53.3658 21.7165 53.136 21.6475L51.6638 21.2059L51.6635 21.2059C51.0929 20.8757 50.5923 20.3999 50.1618 19.7786C50.1559 19.7701 50.1498 19.7617 50.1434 19.7536C49.8113 19.3266 49.4153 17.9178 48.9553 15.5271C48.9346 15.4195 48.8826 15.3201 48.8056 15.2413C48.6618 15.0939 48.5165 15.0223 48.3697 15.0263Z" fill="black"/>
<path d="M48.2616 17.8381L48.2468 17.8387C48.0078 17.8485 47.8303 17.9611 47.7142 18.1764C47.6749 18.2447 47.659 18.3459 47.6664 18.4801C47.6305 18.5487 47.6099 18.6221 47.6046 18.7003C47.5912 18.7173 47.6109 18.857 47.6636 19.1196C47.5686 19.1476 47.4604 19.2176 47.3389 19.3296C47.2149 19.333 47.1042 19.3848 47.0067 19.485C46.8541 19.6449 46.7831 19.8159 46.7936 19.9979C46.6066 20.0645 46.4448 20.1693 46.3083 20.3124C46.24 20.384 46.1779 20.4651 46.1221 20.5557C46.0864 20.5891 46.0168 20.7467 45.9132 21.0283C45.515 20.8901 45.1734 20.9002 44.8882 21.0587C44.7924 21.1051 44.6904 21.2069 44.5824 21.364C44.5353 21.4481 44.5111 21.5374 44.5096 21.632C44.4693 21.6729 44.4325 21.745 44.3994 21.8484C44.3878 21.8935 44.382 21.9389 44.3818 21.9846C44.3838 22.1774 44.4669 22.3336 44.6314 22.4531C45.0329 22.732 45.4698 22.9818 45.9421 23.2027C46.1562 23.3521 46.3068 23.4495 46.3939 23.4948C46.5379 23.5822 46.7182 23.665 46.9348 23.7431C46.8961 24.6124 46.9766 25.3026 47.1761 25.8138C47.2604 26.0375 47.3685 26.1984 47.5005 26.2965C47.6554 26.3927 47.785 26.4317 47.8893 26.4134C48.2557 26.3904 48.4952 26.1548 48.6078 25.7066C48.9004 25.7826 49.1369 25.717 49.3172 25.5099C49.3823 25.4225 49.4207 25.3569 49.4325 25.3133C49.4664 25.2238 49.5016 25.0603 49.5381 24.8227L49.858 23.9958C50.1219 23.8332 50.347 23.6268 50.5334 23.3764C51.0046 23.3682 51.4331 23.2468 51.8189 23.012C52.0482 22.8308 52.1677 22.6347 52.1775 22.4237C52.1664 22.184 52.0881 21.9888 51.9426 21.8381C51.7657 21.6606 51.5581 21.5224 51.3196 21.4234C51.2473 21.3349 51.1847 21.277 51.1319 21.2498C50.922 21.1115 50.5775 21.0372 50.0985 21.0272C49.9526 20.9063 49.8286 20.8402 49.7266 20.8287C49.5637 20.1985 49.3492 19.7789 49.0831 19.57C48.9979 19.1241 48.9669 18.876 48.9899 18.8258C48.9129 18.4776 48.8445 18.2585 48.7846 18.1683C48.6608 17.942 48.4865 17.832 48.2616 17.8381Z" fill="black"/>
<path d="M49.2003 59.8743C49.756 60.812 52.1401 63.3886 56.3527 67.6044L56.2849 67.5434C58.2934 69.1624 59.4609 70.047 59.7872 70.1973C59.7435 70.1772 59.6863 70.1633 59.6156 70.1557C59.7196 70.1669 59.8206 70.1969 59.9136 70.2443C60.5059 70.5462 60.9875 70.6652 61.3586 70.6015L61.3374 70.6054C61.7505 70.5237 62.0615 70.4174 62.2704 70.2865L62.2717 70.2857C63.4801 69.5314 64.1723 69.0521 64.3484 68.8475C64.3162 68.885 64.2877 68.9389 64.263 69.0092C64.3122 68.869 64.3979 68.7441 64.5114 68.6472C65.4176 67.8734 65.8742 66.891 65.8812 65.6999L65.8868 65.8011C65.6634 63.8759 65.3899 62.7234 65.0665 62.3436L65.0954 62.3758C63.6602 60.8552 62.3158 59.7051 61.0623 58.9255C60.6637 58.6775 60.5436 58.1568 60.7942 57.7624C61.0447 57.368 61.571 57.2492 61.9696 57.4972C63.3482 58.3546 64.8055 59.597 66.3415 61.2243C66.3514 61.2348 66.361 61.2455 66.3703 61.2565C66.9147 61.8957 67.3181 63.3464 67.5806 65.6086C67.5845 65.6422 67.5864 65.676 67.5862 65.7098C67.5761 67.4119 66.9225 68.8167 65.6254 69.9244L65.8738 69.5623C65.8284 69.6917 65.7526 69.8181 65.6463 69.9416C65.3579 70.2765 64.5363 70.8669 63.1814 71.7126L63.1827 71.7117C62.7954 71.9544 62.2917 72.1371 61.6715 72.2597C61.6644 72.2611 61.6574 72.2624 61.6502 72.2637C60.9034 72.3919 60.0642 72.2188 59.1329 71.7441L59.4309 71.8328C59.3151 71.8203 59.194 71.7849 59.0676 71.7268C58.6129 71.5173 57.3264 70.5589 55.208 68.8514C55.1844 68.8323 55.1617 68.812 55.1402 68.7905C50.8275 64.4745 48.3572 61.7869 47.7295 60.7276C47.4914 60.3257 47.6276 59.8089 48.0337 59.5733C48.4399 59.3376 48.9622 59.4724 49.2003 59.8743Z" fill="black"/>
</svg>
