<svg width="70" height="68" viewBox="0 0 70 68" fill="none" xmlns="http://www.w3.org/2000/svg">
<path d="M47.9509 11.3609L47.9506 11.3612L47.8843 11.424L47.8842 11.4242C47.8614 11.4458 47.8357 11.4701 47.8121 11.4925C46.9906 12.272 45.4439 13.7675 41.8301 18.5777C41.8098 18.6048 41.788 18.6309 41.765 18.6557L28.0317 33.4723C28.0026 33.5037 27.9715 33.5332 27.9386 33.5605C27.9471 33.5535 27.9511 33.5489 27.9511 33.5489C27.8093 33.7091 27.5418 34.5573 27.6324 36.6806C27.6464 37.0069 27.7113 37.3057 27.8557 37.5624C28.6436 38.9627 29.3135 40.258 29.7837 41.4814C30.0044 42.0553 29.9987 42.729 29.6999 43.4613C29.2941 44.4559 28.5248 45.4033 27.5562 46.3255C27.5477 46.3336 27.5391 46.3415 27.5303 46.3493L20.0306 52.9959C19.6234 53.3569 19.0005 53.3193 18.6396 52.912C18.2786 52.5047 18.3161 51.8819 18.7234 51.521L26.2231 44.8744L26.1972 44.8982C27.0823 44.0554 27.6225 43.3359 27.8751 42.7167C28.0097 42.3868 27.9621 42.2353 27.9441 42.1885C27.5262 41.1012 26.9127 39.9054 26.1381 38.5288C25.795 37.919 25.6857 37.2892 25.6634 36.7646C25.5794 34.7964 25.7235 33.0922 26.4752 32.2427C26.5369 32.1731 26.6047 32.1064 26.6795 32.0443L26.5863 32.1325L40.3196 17.3159L40.2544 17.3939C43.9214 12.513 45.54 10.9315 46.4555 10.0629C46.4773 10.0422 46.508 10.013 46.5285 9.99361L46.5284 9.99376L46.5947 9.93092C46.9891 9.55661 47.6129 9.57297 47.9875 9.96776C48.3621 10.3625 48.3457 10.9863 47.9509 11.3609Z" fill="#FFA462"/>
<path d="M20.7758 52.3806C20.1278 52.902 19.3565 53.6328 18.5748 54.3744C18.1801 54.7489 17.7843 55.1245 17.4155 55.4606C16.6874 56.1244 14.7829 58.4302 14.5413 58.9444C14.2154 59.638 14.2157 60.5054 14.2292 61.2506C14.2298 61.2839 14.2307 61.3327 14.2312 61.3651C14.2537 62.7552 14.511 63.4771 14.7123 63.7797C15.0555 64.2958 15.5167 64.696 16.2552 64.9801C16.8642 65.2144 17.5525 65.3039 18.3717 65.1503C18.9298 65.0456 19.38 64.9071 19.739 64.6869C21.1569 63.8171 22.4359 62.7192 23.7718 61.5694C23.9128 61.448 24.053 61.3274 24.1948 61.2058C24.6079 60.8516 25.2301 60.8993 25.5843 61.3124C25.9386 61.7256 25.8909 62.3477 25.4777 62.702C25.3367 62.8229 25.1994 62.941 25.0574 63.0632C23.7421 64.1953 22.345 65.4004 20.7695 66.3669C20.1111 66.7708 19.3878 66.965 18.735 67.0874C17.5529 67.309 16.494 67.1836 15.5477 66.8196C14.4323 66.3905 13.6431 65.7311 13.0712 64.8711C12.5672 64.1132 12.2857 62.9492 12.2606 61.3969C12.2601 61.3678 12.2593 61.3193 12.2587 61.2864C12.2463 60.6078 12.2067 59.2784 12.7575 58.1062C13.1626 57.2441 15.2912 54.7303 16.0878 54.0041C16.4394 53.6836 16.8199 53.3226 17.2183 52.9446C17.981 52.221 18.8163 51.4276 19.5404 50.845C19.9644 50.5038 20.5847 50.571 20.9259 50.9951C21.2671 51.4191 21.1999 52.0394 20.7758 52.3806Z" fill="#FFA462"/>
<path d="M38.5562 49.5082L31.7274 56.3822L31.7303 56.3793L25.6064 62.5953C25.2244 62.9829 24.6005 62.9876 24.2128 62.6056C23.8251 62.2237 23.8204 61.5998 24.2024 61.2121L30.3264 54.9961L30.3292 54.9932L37.158 48.1192C37.5416 47.7331 38.1655 47.7311 38.5516 48.1146C38.9377 48.4982 38.9398 49.1221 38.5562 49.5082Z" fill="#FFA462"/>
<path d="M38.5595 48.1825C38.7513 48.3491 38.9342 48.5203 39.0884 48.6644C39.2244 48.7916 39.3325 48.8924 39.4229 48.9709C39.4937 49.0325 39.5286 49.0582 39.5375 49.0641C39.5378 49.0643 39.5356 49.0628 39.5319 49.0606C39.5493 49.0711 39.5663 49.0822 39.583 49.0938L42.8622 51.3691C42.8684 51.3734 42.8745 51.3777 42.8806 51.3822C43.0347 51.4944 43.5031 51.8204 44.3957 52.0737C44.9257 52.2242 45.2671 52.126 45.5109 52.0573L45.511 52.0573L45.5232 52.0539L45.5233 52.0538C46.0667 51.901 47.1792 51.2093 48.8693 49.5882L48.8438 49.6136L50.5928 47.8089L50.5045 47.9137C51.2711 46.8636 52.4761 45.3723 54.107 43.4499C54.4591 43.0349 55.0809 42.9839 55.4959 43.336C55.9109 43.6881 55.962 44.3099 55.6099 44.7249C53.986 46.639 52.819 48.0859 52.0963 49.0758C52.0694 49.1127 52.0399 49.1477 52.0081 49.1805L50.2591 50.9852C50.2507 50.9938 50.2422 51.0023 50.2336 51.0106C48.5335 52.6411 47.1142 53.6536 46.0572 53.951L46.0573 53.951L46.0452 53.9544L46.0452 53.9544C45.6871 54.0553 44.9164 54.2703 43.8575 53.9697C42.6905 53.6384 42.0143 53.1894 41.7203 52.9753L41.7387 52.9883L38.4595 50.713L38.5105 50.7461C38.4867 50.7317 38.4646 50.7175 38.4434 50.7034C38.3298 50.6276 38.2207 50.5372 38.1302 50.4587C38.007 50.3516 37.8706 50.2239 37.7425 50.1042C37.5845 49.9564 37.4273 49.8097 37.2669 49.6702C36.856 49.3133 36.8124 48.6909 37.1693 48.2801C37.5263 47.8692 38.1487 47.8256 38.5595 48.1825Z" fill="#FFA462"/>
<path d="M69.2726 28.7902C68.5167 29.7239 58.4568 41.7968 57.4052 42.9041L55.2585 45.1642C54.8837 45.5588 54.26 45.5749 53.8654 45.2001C53.4708 44.8253 53.4547 44.2015 53.8295 43.8069L55.9762 41.5468C56.9625 40.5084 66.9684 28.5041 67.7409 27.55C68.0834 27.127 68.7039 27.0618 69.1269 27.4042C69.5498 27.7467 69.6151 28.3672 69.2726 28.7902Z" fill="#FFA462"/>
<path d="M67.4319 28.3549C67.4855 28.5933 67.6208 28.7085 67.5845 28.6712C67.5446 28.6304 67.4388 28.5483 67.1767 28.3552C66.9128 28.1607 66.5558 27.8984 66.1953 27.5775C64.9244 26.4465 64.1754 25.9044 64.0273 25.8113C63.9788 25.7809 63.9331 25.7462 63.8906 25.7078L52.1028 15.0477L52.1432 15.0823C51.7866 14.7932 50.8799 14.2414 49.3227 13.4027C49.2809 13.3801 49.2408 13.3546 49.2027 13.3263L46.902 11.6182C46.465 11.2938 46.3738 10.6766 46.6982 10.2396C47.0226 9.80265 47.6398 9.71141 48.0768 10.0358L50.3775 11.7439L50.2574 11.6675C51.7833 12.4895 52.8591 13.1256 53.3843 13.5513C53.3981 13.5625 53.4116 13.574 53.4247 13.5859L65.2126 24.2461L65.0759 24.1425C65.3643 24.3238 66.2103 24.9526 67.5055 26.1053C67.7893 26.3578 68.077 26.5705 68.3458 26.7685C68.544 26.9146 68.8148 27.11 68.9955 27.2953C69.0733 27.3751 69.2808 27.5935 69.3548 27.9228C69.4742 28.4538 69.1405 28.981 68.6095 29.1003C68.0785 29.2196 67.5513 28.8859 67.4319 28.3549Z" fill="#FFA462"/>
<path d="M53.8493 42.1197L53.8492 42.1198C53.7978 42.547 53.9028 42.9037 54.1644 43.1898C53.8217 42.8149 51.3031 40.5392 46.6089 36.3628C46.5746 36.3322 46.5417 36.3001 46.5105 36.2664L39.673 28.8867L39.8637 29.0585C38.1443 27.7687 36.5396 26.312 35.0498 24.6884C34.5164 24.1072 34.5552 23.2037 35.1365 22.6704C35.7177 22.137 36.6212 22.1759 37.1545 22.7571C38.5251 24.2507 39.9995 25.5894 41.5778 26.7734C41.6464 26.8248 41.7102 26.8823 41.7685 26.9452L48.606 34.3249L48.5076 34.2285C53.2754 38.4703 55.8638 40.815 56.2729 41.2625C56.601 41.6214 56.7385 42.0211 56.6854 42.4616C56.5909 43.2448 55.8795 43.8032 55.0964 43.7087C54.3132 43.6143 53.7548 42.9029 53.8493 42.1197Z" fill="#FFA462"/>
<path d="M48.2748 50.0468L44.101 46.0242L44.2255 46.1311C42.7447 45.0006 40.4323 42.98 37.2884 40.0693C37.2823 40.0637 37.2763 40.058 37.2704 40.0523C36.2875 39.1102 35.2131 37.9098 34.0471 36.4511C34.0123 36.4076 33.98 36.362 33.9505 36.3146L33.9506 36.3147C33.9946 36.3854 34.0372 36.442 34.0782 36.4844C33.9159 36.3165 33.2791 35.7801 32.1678 34.8752C32.1297 34.8442 32.0933 34.8113 32.0587 34.7766L29.6879 32.4014C29.1306 31.843 29.1315 30.9387 29.6898 30.3814C30.2481 29.8242 31.1525 29.825 31.7097 30.3834L34.0805 32.7586L33.9714 32.66C35.1708 33.6366 35.8911 34.2497 36.1324 34.4993C36.2315 34.6019 36.3124 34.7035 36.375 34.804L36.2785 34.6675C37.3658 36.0277 38.3553 37.1352 39.2471 37.9901L39.2291 37.9731C42.3067 40.8224 44.55 42.7848 45.9589 43.8605C46.0024 43.8937 46.044 43.9294 46.0834 43.9674L50.2572 47.99C50.8251 48.5374 50.8418 49.4416 50.2944 50.0096C49.747 50.5775 48.8428 50.5942 48.2748 50.0468Z" fill="#FFA462"/>
<path d="M18.7114 18.8153C18.7358 18.9366 18.7757 18.9966 18.7709 18.9889C18.6468 18.7884 17.8272 18.0394 15.6927 17.1709C14.7019 16.7677 14.1375 16.8447 14.0591 16.8676C14.0588 16.8677 14.064 16.8662 14.0741 16.8623L14.0742 16.8622C13.8753 16.9401 13.6037 17.137 13.0286 17.6065L13.0286 17.6065C13.167 17.4936 13.2413 17.381 13.2112 17.4218L13.2111 17.4219C13.2022 17.4338 13.1838 17.4604 13.1312 17.5378C12.9175 17.8517 12.503 18.4599 11.7722 19.2297C11.1135 19.9233 10.5481 20.4074 10.1696 20.7318C9.93569 20.9323 9.84074 21.0161 9.79641 21.0628L9.79661 21.0626C9.79553 21.0637 9.79549 21.0638 9.79521 21.0641L9.79535 21.0639C9.79459 21.0647 9.8022 21.0566 9.8146 21.0408L9.81466 21.0407C8.67139 22.4997 7.98761 23.6337 7.68641 24.52L7.75889 23.9913C7.74211 23.687 7.588 23.5536 7.59925 23.5636C7.59949 23.5638 7.60964 23.5728 7.63348 23.5879C8.82232 24.3448 9.84095 25.0312 10.459 25.6665L10.1761 25.4423L11.6334 26.3182L11.5794 26.2874C12.0594 26.5476 12.6815 26.7826 13.4692 26.983C13.4224 26.9711 13.374 26.9778 13.3586 26.983L13.3585 26.983C13.3587 26.983 13.3588 26.983 13.3597 26.9826L13.1465 27.0841C13.7942 26.7059 15.0017 25.5317 15.0473 25.4868C16.0284 24.5218 17.0939 23.1251 18.3652 21.318C18.7166 20.8185 18.9532 20.2717 19.154 19.673L19.154 19.6729C19.0738 19.9119 19.1074 20.0745 19.1019 20.0331L19.1019 20.0331C19.0946 19.9781 19.0377 19.7398 18.8265 19.2501C18.5197 18.5386 18.8477 17.7131 19.5592 17.4063C20.2707 17.0994 21.0962 17.4275 21.4031 18.139C21.6397 18.6875 21.8242 19.2151 21.8837 19.6659L21.8837 19.6659C21.9094 19.8602 21.9361 20.2019 21.8144 20.5648L21.8144 20.5648C21.568 21.3 21.2271 22.1265 20.6601 22.9324C19.3851 24.7448 18.1939 26.3275 17.015 27.4872C17.0607 27.4423 15.5795 28.9128 14.5614 29.5072C14.4933 29.547 14.422 29.5809 14.3483 29.6087C14.3172 29.6203 14.2863 29.6314 14.2547 29.642L14.2546 29.642C13.7718 29.8047 13.269 29.8274 12.7775 29.7023C11.8359 29.4628 10.9816 29.155 10.242 28.7541C10.2237 28.7442 10.2057 28.7339 10.1879 28.7232L8.73062 27.8473C8.62706 27.785 8.53197 27.7097 8.44773 27.6231C8.09863 27.2642 7.37262 26.7482 6.12657 25.9549C5.98817 25.8668 5.85659 25.7688 5.73455 25.6603L5.73458 25.6603C5.33874 25.3083 4.99283 24.792 4.95721 24.1458C4.94732 23.9666 4.97192 23.7871 5.02968 23.6172C5.48554 22.2757 6.40528 20.8423 7.60605 19.31L7.60611 19.3099C7.64958 19.2545 7.69267 19.205 7.73226 19.1621L7.7324 19.1619C7.74248 19.151 7.75155 19.1413 7.76137 19.131L7.76157 19.1308C7.92971 18.9537 8.16017 18.7586 8.3435 18.6014C8.71069 18.2867 9.18368 17.8807 9.73733 17.2976C10.3152 16.6891 10.6309 16.2244 10.8115 15.9591C10.8508 15.9014 10.906 15.8198 10.9556 15.7527L10.9556 15.7528C10.9739 15.7279 11.0865 15.5698 11.2542 15.4328L11.2542 15.4329C11.7303 15.0442 12.3593 14.5203 13.0513 14.2494L13.0513 14.2494C13.1241 14.2209 13.1972 14.1963 13.2698 14.175L13.2697 14.175C14.1424 13.9192 15.3808 14.0147 16.7503 14.5719C18.9285 15.4582 20.52 16.4838 21.1565 17.5115C21.281 17.7126 21.4025 17.9655 21.4621 18.2613C21.615 19.0209 21.1233 19.7606 20.3637 19.9136C19.6041 20.0666 18.8643 19.5749 18.7114 18.8153Z" fill="#FFA462"/>
<path d="M5.94897 25.774L3.86156 26.3786L4.2294 26.2115C4.20319 26.2283 4.19261 26.238 4.1924 26.2382L4.19237 26.2383C4.19242 26.2382 4.19713 26.2338 4.20479 26.2244L4.2204 26.2048C3.83718 26.6942 3.75638 27.2895 3.76666 27.2146L3.76669 27.2144C3.76694 27.2126 3.767 27.2118 3.76699 27.212L3.767 27.2118C3.75236 27.3705 3.87816 27.7521 3.9453 27.8965L3.94527 27.8965C4.02179 28.0611 3.91464 27.7869 3.73718 27.5878L3.73616 27.5866C4.17101 28.0735 4.38155 28.3071 4.44802 28.3721C4.55664 28.4783 4.36293 28.2545 4.06918 28.1307C4.1984 28.1852 4.31874 28.2587 4.42616 28.3489C5.17946 28.9811 8.84976 31.9071 8.86161 31.9166L8.84553 31.9039L10.3706 33.0838L10.2689 33.012C10.1979 32.9665 10.0738 32.9342 9.9608 32.9532L9.78636 32.9941L12.7161 32.1053C12.719 32.1044 12.7219 32.1035 12.7249 32.1026L12.7248 32.1026C11.9472 32.333 11.8115 33.1126 11.9241 32.7853L11.9242 32.7852C12.0058 32.5479 12.1455 31.4874 12.0415 30.4838C11.9907 29.9942 12.034 29.611 12.0931 29.3432L12.0931 29.3432C12.114 29.2483 12.1355 29.1742 12.1513 29.1241C12.3832 28.3848 13.1705 27.9734 13.9098 28.2053C14.6491 28.4372 15.0605 29.2246 14.8286 29.9639C14.8313 29.9553 14.8327 29.9495 14.8331 29.9477L14.8331 29.9476C14.8344 29.9419 14.8147 30.0232 14.8324 30.1946C14.9623 31.4479 14.8349 32.9496 14.5776 33.6978L14.5776 33.6978C14.6074 33.6111 14.3847 34.5374 13.5219 34.793L13.5307 34.7903L10.601 35.6792C10.5438 35.6966 10.4856 35.7102 10.4266 35.7202C9.83016 35.8206 9.25173 35.6927 8.75548 35.3748C8.72052 35.3525 8.68657 35.3285 8.65374 35.3031L7.12862 34.1233C7.12325 34.1191 7.11784 34.1149 7.11254 34.1107C7.12443 34.1201 3.41073 31.1599 2.62228 30.4981L2.97927 30.7163C2.66705 30.5847 2.43565 30.3288 2.48657 30.3786C2.33151 30.227 2.02857 29.887 1.64339 29.4558L1.64236 29.4546C1.46225 29.2525 1.34308 28.9551 1.40087 29.0794L1.40084 29.0793C1.32163 28.9089 0.883363 27.9242 0.972951 26.9539L0.972965 26.9537C0.976645 26.914 0.981096 26.8746 0.986718 26.8335L0.986752 26.8333C0.997033 26.7584 1.16246 25.5588 2.01114 24.475C2.01632 24.4684 2.02147 24.4619 2.02676 24.4554C2.10714 24.3564 2.19328 24.2654 2.28337 24.1818L2.28333 24.1818C2.41896 24.0559 2.56411 23.9462 2.71313 23.8505C2.82705 23.7773 2.95094 23.7211 3.08096 23.6834L5.16837 23.0788C5.91263 22.8633 6.6907 23.2919 6.90626 24.0361C7.12181 24.7804 6.69323 25.5584 5.94897 25.774Z" fill="#FFA462"/>
<path d="M13.9454 14.0664C14.8778 12.9884 15.5356 12.3086 15.9188 12.0271C16.1072 11.8887 16.2948 11.7903 16.4817 11.732L16.1999 11.8553C17.3089 11.2169 18.2563 10.8792 19.042 10.8423L19.0394 10.8424C19.3013 10.8297 19.5891 10.8458 19.9029 10.8907C19.9329 10.895 19.9628 10.9003 19.9925 10.9066L21.856 11.2984L21.3785 11.2812C21.5505 11.2578 21.7355 11.2676 21.9334 11.3104L21.9334 11.3104C22.2174 11.3719 23.107 11.6344 24.6022 12.0979L24.5073 12.0721C24.5073 12.0721 24.5074 12.0721 24.5075 12.0721L24.509 12.0725C25.04 12.197 25.7762 12.5602 26.7175 13.1621C26.7607 13.1897 26.8023 13.2196 26.8421 13.2518C27.5163 13.7951 27.9769 14.2324 28.224 14.5636C28.7667 15.2913 28.7875 15.9661 28.2862 16.5881L28.2861 16.5883C28.2255 16.6634 28.1582 16.7321 28.0842 16.7944L28.5647 15.4916C28.7246 16.456 28.4009 17.553 27.5934 18.7825C27.5278 18.8823 27.4498 18.9734 27.3611 19.0535C27.0245 19.3575 26.5934 19.518 26.068 19.535C25.9977 19.5373 25.9255 19.537 25.8512 19.5341C25.7177 19.5289 25.5857 19.5047 25.459 19.4622C24.8878 19.2703 24.5256 19.1631 24.3727 19.1404L24.3726 19.1404C24.3741 19.1407 24.3764 19.141 24.3793 19.1413C24.3712 19.1403 24.3631 19.1393 24.3549 19.1383C23.5215 19.0271 22.9603 18.9938 22.6715 19.0383L22.8721 18.9921C22.3179 19.1634 21.9755 19.3179 21.8448 19.4558C21.873 19.4261 21.8982 19.3792 21.9205 19.3153C21.6658 20.0471 20.8661 20.4338 20.1343 20.1792C19.4025 19.9245 19.0158 19.1248 19.2705 18.393C19.3804 18.077 19.5597 17.7879 19.8082 17.5257C20.276 17.0321 21.0211 16.6273 22.0436 16.3113C22.1092 16.291 22.1763 16.2756 22.2442 16.2651C22.7987 16.1797 23.6259 16.2103 24.7258 16.3569L24.7015 16.3539C24.7281 16.357 24.7554 16.3606 24.7834 16.3647L24.7833 16.3647C25.1006 16.4117 25.6236 16.5575 26.3523 16.8022L25.9602 16.7303C25.9679 16.7306 25.9736 16.7307 25.9773 16.7306C25.8179 16.7357 25.6522 16.8159 25.4804 16.9712L25.2481 17.2422C25.654 16.6241 25.8368 16.1936 25.7966 15.9508C25.7155 15.4621 25.8981 14.967 26.277 14.648C26.2129 14.7019 26.1544 14.7617 26.1016 14.8272L26.1015 14.8274C25.6925 15.3349 25.6502 15.8062 25.9748 16.2413C25.8691 16.0996 25.5713 15.8313 25.0813 15.4365L25.206 15.5261C24.534 15.0964 24.0881 14.8558 23.8683 14.8043L23.8697 14.8046C23.8686 14.8044 23.8675 14.8041 23.8664 14.8038C23.8357 14.7967 23.8034 14.7879 23.7714 14.778C22.3543 14.3387 21.5438 14.097 21.3399 14.0528L21.3399 14.0528C21.4634 14.0796 21.6022 14.0825 21.7561 14.0616C21.5971 14.0832 21.4356 14.0773 21.2786 14.0443L19.4151 13.6524L19.5048 13.6683C19.3685 13.6487 19.2589 13.641 19.1761 13.645L19.1736 13.6451C18.8407 13.6608 18.316 13.8748 17.5997 14.2871C17.5105 14.3384 17.416 14.3798 17.3179 14.4104C17.4293 14.3756 17.5168 14.3349 17.5802 14.2883C17.3666 14.4453 16.8624 14.9832 16.0676 15.902C15.5607 16.4881 14.6747 16.5522 14.0887 16.0453C13.5027 15.5385 13.4385 14.6525 13.9454 14.0664Z" fill="#FFA462"/>
<path d="M26.5899 45.3773L25.2679 43.3492C25.2407 43.3075 25.2168 43.2638 25.1962 43.2184C24.8608 42.4796 23.7738 40.6208 21.9351 37.6419L21.9607 37.6813L15.3933 28.0958C15.0857 27.6469 15.2003 27.0335 15.6493 26.7259C16.0982 26.4183 16.7115 26.5329 17.0192 26.9819L23.5866 36.5673C23.5955 36.5803 23.604 36.5934 23.6122 36.6067C25.4947 39.6566 26.6209 41.589 26.9908 42.4037L26.919 42.273L28.241 44.3011C28.5382 44.757 28.4095 45.3676 27.9535 45.6647C27.4976 45.9619 26.8871 45.8332 26.5899 45.3773Z" fill="#FFA462"/>
<path d="M26.7743 31.9441C26.4648 32.2763 26.4095 32.6039 26.6084 32.9269C26.5896 32.8964 26.5486 32.8446 26.4852 32.7715L26.5546 32.8437C24.8368 31.2261 23.8609 30.2703 23.6268 29.9765L23.6267 29.9764C23.6208 29.969 23.6151 29.9617 23.6095 29.9545L23.648 30.0013L20.6566 26.5842C20.6385 26.5634 20.6212 26.542 20.6049 26.5198L19.3955 24.8793L19.4514 24.9483C19.3711 24.8578 19.3146 24.799 19.2818 24.772C19.3694 24.8441 19.4905 24.8905 19.645 24.9112C19.1055 24.839 18.7267 24.3433 18.7989 23.8038C18.871 23.2644 19.3668 22.8856 19.9062 22.9577C20.1232 22.9867 20.3325 23.0843 20.5343 23.2503C20.6468 23.3429 20.7774 23.4731 20.9261 23.6408C20.9458 23.663 20.9644 23.686 20.982 23.7099L22.1913 25.3504L22.1395 25.286L25.1309 28.7032C25.1443 28.7184 25.1571 28.734 25.1694 28.75C25.169 28.7494 25.1686 28.7489 25.1684 28.7486L25.1683 28.7485C25.3438 28.9689 26.2563 29.8557 27.9057 31.409C27.93 31.4318 27.9532 31.456 27.975 31.4812C28.1081 31.6349 28.212 31.7723 28.2866 31.8936C28.6124 32.4227 28.5891 32.8873 28.2165 33.2873C27.8456 33.6856 27.2221 33.7077 26.8238 33.3368C26.4255 32.9659 26.4034 32.3423 26.7743 31.9441Z" fill="#FFA462"/>
<path d="M33.0581 28.2748C33.2462 28.2883 33.4072 28.3737 33.5412 28.531C33.564 28.5577 33.5841 28.5866 33.6013 28.6172C33.7422 28.8673 33.8509 29.0233 33.9273 29.0853C33.9334 29.0903 33.9394 29.0953 33.9453 29.1005C34.1618 29.2922 34.504 29.5748 34.972 29.9482C34.986 29.9594 34.9994 29.9712 35.0122 29.9836C35.5487 30.5056 35.9411 30.8593 36.1894 31.0448C36.2141 31.0633 36.2372 31.0838 36.2585 31.1062L36.814 31.6909L36.7578 31.6394C36.8917 31.7458 37.0963 31.8934 37.3714 32.0821C37.6202 32.2527 37.6835 32.5926 37.5129 32.8414C37.3423 33.0901 37.0024 33.1535 36.7536 32.9829C36.4575 32.7797 36.2324 32.617 36.0785 32.4948C36.0585 32.4789 36.0397 32.4617 36.0222 32.4433L35.4666 31.8585L35.5357 31.9198C35.2494 31.706 34.821 31.3215 34.2505 30.7665L34.2907 30.802C33.8082 30.4169 33.4517 30.1224 33.2213 29.9184L33.2393 29.9337C33.0552 29.7844 32.8586 29.5242 32.6497 29.1533L32.7098 29.2395C32.7736 29.3142 32.8635 29.3558 32.9795 29.3642C32.6787 29.3425 32.4524 29.081 32.4741 28.7802C32.4958 28.4793 32.7573 28.253 33.0581 28.2748Z" fill="#FFA462"/>
<path d="M42.3355 33.2836C42.4204 33.2922 42.5073 33.3215 42.5963 33.3715C42.7327 33.4482 43.0269 33.6672 43.479 34.0284L43.468 34.0198C43.8735 34.3273 44.7805 35.1936 46.1889 36.6186L46.1577 36.5895L47.959 38.1475C47.9757 38.162 47.9916 38.1774 48.0065 38.1939L49.8369 40.2144L49.7839 40.1633L51.4672 41.5802C51.4754 41.5871 51.4834 41.5942 51.4911 41.6016C52.8224 42.8631 53.5734 43.6199 53.7443 43.8719C53.8418 44.0157 53.8813 44.1613 53.8627 44.3085C53.8248 44.6078 53.5516 44.8197 53.2523 44.7818C52.9531 44.744 52.7412 44.4707 52.779 44.1715C52.7632 44.2968 52.7836 44.4013 52.8402 44.4848C52.7138 44.2984 52.0136 43.6015 50.7398 42.3944L50.7638 42.4158L49.0805 40.9989C49.0617 40.9831 49.044 40.966 49.0274 40.9478L47.197 38.9272L47.2444 38.9736L45.4432 37.4156C45.4324 37.4063 45.422 37.3966 45.412 37.3864C44.0402 35.9983 43.1722 35.1663 42.8081 34.8902C42.8044 34.8874 42.8008 34.8846 42.7971 34.8817C42.3912 34.5574 42.1458 34.3713 42.0609 34.3236C42.1044 34.348 42.1593 34.3636 42.2255 34.3703C41.9255 34.3399 41.7068 34.072 41.7372 33.7719C41.7676 33.4719 42.0355 33.2532 42.3355 33.2836Z" fill="#FFA462"/>
<path d="M51.6059 47.4381L48.6728 44.6865L48.7071 44.7161L46.953 43.3245L46.9657 43.3343C46.7661 43.1853 46.3765 42.784 45.7969 42.1303L45.806 42.1402C45.8056 42.1398 45.8053 42.1395 45.8051 42.1393C45.8535 42.1877 45.9268 42.2111 46.0248 42.2093C45.7232 42.2147 45.4743 41.9747 45.4688 41.6731C45.4634 41.3715 45.7035 41.1226 46.005 41.1172C46.2162 41.1134 46.407 41.1966 46.5773 41.3668C46.5866 41.3761 46.5959 41.3857 46.6051 41.3956C46.6082 41.399 46.6112 41.4023 46.6142 41.4056C47.1443 42.0035 47.4793 42.3546 47.6191 42.459C47.6234 42.4622 47.6276 42.4654 47.6318 42.4688L49.3859 43.8604C49.3977 43.8697 49.4092 43.8796 49.4202 43.8899L52.3532 46.6415C52.5732 46.8479 52.5842 47.1935 52.3779 47.4135C52.1715 47.6335 51.8259 47.6445 51.6059 47.4381Z" fill="#FFA462"/>
<path d="M43.558 40.3204C43.4511 40.1786 43.3358 40.0521 43.2124 39.9409L43.2268 39.9535C42.1949 39.0875 41.6227 38.5986 41.5102 38.4867C41.4945 38.4711 41.4806 38.4562 41.4685 38.4421L41.4944 38.4702L39.2886 36.2388C39.0766 36.0243 39.0785 35.6785 39.2931 35.4665C39.5076 35.2544 39.8534 35.2564 40.0654 35.4709L42.2712 37.7024C42.2802 37.7114 42.2888 37.7208 42.2971 37.7305C42.2907 37.7229 42.2851 37.7169 42.2806 37.7123C42.3712 37.8025 42.9207 38.2706 43.929 39.1167C43.9339 39.1208 43.9387 39.125 43.9434 39.1293C44.1188 39.2873 44.281 39.465 44.43 39.6626C44.6117 39.9034 44.5637 40.2458 44.3229 40.4275C44.0821 40.6091 43.7397 40.5612 43.558 40.3204Z" fill="#FFA462"/>
<path d="M38.6087 31.5181L38.6086 31.518C38.6185 31.5414 38.6281 31.5593 38.6374 31.5718C38.6178 31.5455 38.5719 31.4999 38.4997 31.4353L38.5243 31.456C37.9272 30.9811 37.4056 30.5265 36.9596 30.0922L36.9598 30.0924L34.0228 27.2366C33.8066 27.0264 33.8017 26.6806 34.012 26.4644C34.2223 26.2481 34.568 26.2433 34.7843 26.4535L37.7213 29.3093L37.7216 29.3096C38.1414 29.7184 38.6356 30.149 39.2042 30.6012C39.2126 30.6078 39.2208 30.6148 39.2288 30.6219C39.3552 30.7352 39.45 30.8343 39.5132 30.9191C39.5566 30.9773 39.5905 31.0353 39.6149 31.0931C39.7322 31.3709 39.6021 31.6913 39.3243 31.8087C39.0464 31.926 38.726 31.7959 38.6087 31.5181Z" fill="#FFA462"/>
<path d="M51.9962 14.5577C51.5524 14.6739 50.9946 15.1051 50.3228 15.8511L50.3774 15.7793C47.1993 20.7632 44.2773 24.4474 41.6114 26.8319C41.3866 27.0329 41.0413 27.0137 40.8402 26.7889C40.6392 26.5641 40.6584 26.2188 40.8832 26.0177C43.4745 23.7001 46.3322 20.0915 49.4565 15.192C49.4727 15.1666 49.491 15.1425 49.5111 15.1201C50.3287 14.2123 51.0648 13.6726 51.7193 13.5011C52.0111 13.4246 52.3096 13.5992 52.3861 13.8909C52.4625 14.1827 52.288 14.4812 51.9962 14.5577Z" fill="#FFA462"/>
<path d="M48.5592 34.0818C48.5552 34.0828 48.5528 34.0841 48.5524 34.0844C48.5512 34.0851 48.5624 34.079 48.5809 34.0531C48.7306 33.8434 48.8636 33.6553 48.9799 33.4908C49.0702 33.363 49.1515 33.2479 49.2233 33.1474C49.3763 32.9331 49.516 32.7411 49.6186 32.6359L49.6187 32.6357C49.6194 32.6351 49.6204 32.6341 49.621 32.6334L49.6207 32.6338C50.2581 31.9835 51.6359 30.3436 53.748 27.6656C54.3231 26.9363 58.9608 20.5426 59.2649 20.0026C59.4129 19.7398 59.746 19.6467 60.0088 19.7947C60.2716 19.9427 60.3647 20.2758 60.2167 20.5386C59.8654 21.1623 55.1765 27.618 54.6056 28.342C52.4997 31.0121 51.0862 32.699 50.4007 33.3984L50.4004 33.3987C50.4001 33.399 50.4009 33.3982 50.4006 33.3985L50.4007 33.3984C50.3702 33.4297 50.2856 33.5393 50.1122 33.7822C50.0421 33.8803 49.9628 33.9925 49.8719 34.1212C49.756 34.2852 49.621 34.4762 49.4698 34.6879C49.3725 34.8242 49.2531 34.9379 49.1136 35.0215C49.0267 35.0735 48.9348 35.1121 48.84 35.1373C48.5485 35.2149 48.2494 35.0415 48.1718 34.75C48.0943 34.4585 48.2677 34.1593 48.5592 34.0818Z" fill="#FFA462"/>
<path d="M61.9383 24.1155L61.2206 25.0126L61.2459 24.9784L60.1809 26.5458C60.1638 26.5711 60.1445 26.5949 60.1234 26.6169C59.634 27.1272 59.0886 27.8254 58.4873 28.7115C58.4747 28.7301 58.4609 28.7479 58.4461 28.7648L57.7065 29.6087L57.7316 29.5778C57.5933 29.7611 57.3311 30.1822 56.9452 30.8411C56.7928 31.1014 56.4582 31.1888 56.198 31.0364C55.9377 30.884 55.8503 30.5494 56.0027 30.2892C56.4101 29.5935 56.6958 29.137 56.8598 28.9197C56.8678 28.9091 56.8762 28.8988 56.885 28.8888L57.6247 28.0449L57.5835 28.0982C58.2193 27.1612 58.8031 26.4155 59.335 25.8609L59.2775 25.932L60.3424 24.3646C60.3504 24.3528 60.3588 24.3414 60.3677 24.3304L61.0853 23.4332C61.2738 23.1976 61.6174 23.1594 61.853 23.3478C62.0885 23.5362 62.1267 23.8799 61.9383 24.1155Z" fill="#FFA462"/>
<path d="M55.3592 33.0697C55.1296 33.1927 54.9113 33.361 54.7041 33.5744L54.7274 33.5487C54.669 33.6171 54.613 33.6906 54.5594 33.7694L54.5687 33.7553C54.0475 34.5746 53.7289 35.0524 53.613 35.1888C53.5764 35.2318 53.5394 35.2675 53.5021 35.296L53.6428 35.1369C53.6327 35.1542 53.6213 35.1722 53.6086 35.1908L53.6087 35.1907C53.4956 35.3566 53.1204 35.7642 52.483 36.4134L52.5067 36.3877C52.4023 36.5086 52.328 36.6101 52.2836 36.6922C52.1402 36.9576 51.8089 37.0565 51.5435 36.9131C51.2781 36.7698 51.1792 36.4384 51.3226 36.173C51.4046 36.0212 51.5237 35.8548 51.6798 35.674C51.6874 35.6651 51.6954 35.6565 51.7035 35.6482C52.2954 35.0453 52.6296 34.6878 52.706 34.5757L52.706 34.5757C52.7043 34.5782 52.7021 34.5817 52.6994 34.5863C52.7354 34.5246 52.7832 34.4705 52.8401 34.4272C52.8149 34.4464 52.7951 34.4645 52.7808 34.4813C52.8641 34.3833 53.1529 33.9458 53.6471 33.169C53.6501 33.1642 53.6532 33.1595 53.6564 33.1549C53.7325 33.0431 53.8127 32.9378 53.8971 32.8391C53.9046 32.8303 53.9124 32.8218 53.9204 32.8135C54.2064 32.519 54.5139 32.2835 54.843 32.1071C55.1088 31.9645 55.4398 32.0644 55.5824 32.3303C55.7249 32.5961 55.625 32.9271 55.3592 33.0697Z" fill="#FFA462"/>
<path d="M50.6539 37.0111C50.6464 37.0197 50.6406 37.027 50.6366 37.0327C50.6582 37.0016 50.703 36.9227 50.7709 36.796C50.7792 36.7804 50.7883 36.7653 50.7981 36.7506C50.8525 36.669 50.9236 36.5783 51.0115 36.4783L50.9648 36.5397L51.0945 36.3414L51.0655 36.3913C51.095 36.3337 51.1372 36.2775 51.1921 36.2227C51.2235 36.1913 51.2671 36.1521 51.3227 36.105L51.2335 36.201C51.3119 36.0932 51.3974 35.9937 51.4902 35.9025C51.5094 35.8838 51.5299 35.8664 51.5515 35.8506C51.5813 35.8289 51.6121 35.7982 51.644 35.7585C51.8326 35.5231 52.1763 35.4852 52.4117 35.6738C52.6471 35.8624 52.685 36.2061 52.4964 36.4415C52.4036 36.5573 52.3029 36.6547 52.1943 36.7338L52.2556 36.6819C52.2061 36.7305 52.16 36.7841 52.1174 36.8429C52.0916 36.8783 52.0617 36.9106 52.0282 36.9389C51.9954 36.9666 51.974 36.9856 51.9637 36.9958C51.9901 36.9694 52.0148 36.9339 52.0376 36.8893C52.0289 36.9064 52.0192 36.9231 52.0086 36.9392L51.8789 37.1375C51.8648 37.1591 51.8492 37.1796 51.8322 37.1989C51.7762 37.2628 51.7343 37.3155 51.7066 37.357L51.7338 37.3116C51.6458 37.4758 51.5789 37.5909 51.533 37.6569C51.515 37.6827 51.4971 37.7058 51.4794 37.7263C51.2819 37.9543 50.937 37.9789 50.709 37.7814C50.4811 37.5839 50.4564 37.239 50.6539 37.0111Z" fill="#FFA462"/>
<path d="M65.7483 27.0185C65.2559 27.4762 64.8062 27.9458 64.3994 28.4273L64.4134 28.41L62.4931 30.8802L62.5819 30.712C62.5579 30.7866 62.516 30.8598 62.4561 30.9316C62.3384 31.0726 61.9257 31.4586 61.218 32.0897L61.2517 32.057L60.7548 32.5834C60.5478 32.8027 60.2021 32.8127 59.9828 32.6057C59.7634 32.3986 59.7535 32.053 59.9605 31.8336L60.4574 31.3072C60.4681 31.2958 60.4793 31.2849 60.491 31.2745C61.1587 30.6791 61.5341 30.3315 61.6174 30.2317C61.5865 30.2688 61.5613 30.3176 61.5419 30.378C61.5614 30.3171 61.5915 30.2602 61.6307 30.2098L63.5511 27.7396C63.5556 27.7338 63.5603 27.728 63.5651 27.7223C64.0002 27.2074 64.4801 26.7061 65.0047 26.2185C65.2256 26.0131 65.5712 26.0257 65.7765 26.2466C65.9819 26.4676 65.9693 26.8131 65.7483 27.0185Z" fill="#FFA462"/>
<path d="M59.7155 34.004C59.6823 34.2813 59.5238 34.6615 59.24 35.1444C59.2324 35.1574 59.2243 35.17 59.2157 35.1823L58.3313 36.4377L58.3567 36.3981L57.7385 37.4593C57.7274 37.4782 57.7153 37.4965 57.702 37.514C57.02 38.4148 56.2492 39.2533 55.3897 40.0295C55.1659 40.2316 54.8205 40.214 54.6184 39.9902C54.4162 39.7663 54.4338 39.421 54.6576 39.2188C55.4661 38.4887 56.1906 37.7006 56.8312 36.8547L56.7947 36.9094L57.4129 35.8483C57.4208 35.8347 57.4293 35.8215 57.4383 35.8087L58.3227 34.5533L58.2983 34.5911C58.505 34.2394 58.6158 34.0004 58.631 33.8742C58.6668 33.5747 58.9387 33.361 59.2381 33.3968C59.5376 33.4327 59.7513 33.7045 59.7155 34.004Z" fill="#FFA462"/>
<path d="M9.41053 20.493C9.35597 20.576 9.30986 20.6658 9.27366 20.7613L9.27301 20.7614C9.27225 20.7614 9.2715 20.7614 9.27074 20.7615V20.7616C9.30744 20.6595 9.35382 20.57 9.40987 20.493L9.41053 20.493ZM13.9902 15.7251C13.7931 15.7305 13.5916 15.7409 13.3854 15.7561C13.3199 15.761 13.2547 15.7705 13.1905 15.7845C12.0878 16.0263 11.2551 16.6726 10.6923 17.7235L10.6916 17.7236C10.5817 17.8828 10.4938 18.0684 10.428 18.2805C10.3238 18.6161 10.2446 19.1626 10.1904 19.9199L10.1898 19.92C9.95278 19.9879 9.73797 20.118 9.56815 20.2952L9.56816 20.2952C9.54918 20.2925 9.53009 20.2903 9.51088 20.2885C9.4532 20.283 9.39588 20.2811 9.33917 20.2826C8.74768 20.299 8.22279 20.6922 8.04896 21.2711C8.04353 21.2892 8.03832 21.3071 8.03332 21.325L8.03265 21.3251C7.84054 21.5112 7.67809 21.7405 7.54529 22.013C7.35059 22.4125 7.23088 22.9142 7.18616 23.5182L7.18548 23.5183C7.09667 23.6698 7.02403 23.8399 6.96756 24.0285C6.91119 24.2167 6.89544 24.4148 6.92131 24.6095C6.98544 25.0921 7.12669 25.5241 7.34504 25.9054L7.34436 25.9055C7.34155 25.9063 7.33874 25.9072 7.33594 25.9081V25.9082C6.7967 25.4342 6.09866 25.1716 5.24184 25.1204C5.20136 25.118 5.16092 25.1174 5.12063 25.1185C4.8719 25.1254 4.62875 25.199 4.41718 25.3328C4.40261 25.342 4.38821 25.3513 4.37398 25.3606L4.37327 25.3607C4.13896 25.4365 3.91711 25.5765 3.70771 25.7806L3.70772 25.7807C3.67659 25.811 3.64667 25.8426 3.61796 25.8754C3.42054 26.1013 3.30161 26.3851 3.27898 26.6842C3.2058 27.6511 3.32238 28.4345 3.62871 29.0343C4.01224 29.7853 4.61754 30.2256 5.44462 30.3553L5.44392 30.3554C5.53014 30.3719 5.61529 30.3844 5.69938 30.3929C5.78492 30.4016 5.86846 30.4069 5.95001 30.4089L5.94932 30.409C6.78098 31.5511 7.81688 32.6259 9.05704 33.6334L9.05638 33.6335C9.4328 33.9959 9.86018 34.1706 10.3385 34.1573C10.6076 34.1499 10.8928 34.083 11.1941 33.9566V33.9567C11.7021 33.7437 12.2828 33.3048 12.9362 32.6401L12.9356 32.6402C13.3585 32.2434 13.5372 31.7102 13.4716 31.0405L13.4717 31.0406C13.4521 30.8406 13.4086 30.6241 13.3411 30.3909C13.3298 30.3517 13.3167 30.3131 13.302 30.2751C13.1823 29.9664 13.0283 29.6373 12.8397 29.2878C12.8267 29.2637 12.813 29.24 12.7986 29.2167L12.4352 28.629L12.4346 28.6291C12.3304 28.3928 12.187 28.1711 12.0042 27.964L12.0036 27.9641C12.0561 27.8864 12.1047 27.8076 12.1492 27.7278L12.1499 27.7278C12.1601 27.7276 12.1703 27.7273 12.1806 27.727C13.0661 27.7025 14.0485 27.2699 15.1276 26.4293C15.1578 26.4057 15.1871 26.3809 15.2153 26.3549C15.755 25.8575 16.1454 25.3508 16.3867 24.8349L16.3861 24.8349C16.8223 24.5089 17.1759 24.1113 17.4471 23.6423L17.4465 23.6423C17.5219 23.5419 17.591 23.4382 17.6537 23.3311L17.6531 23.3312C18.2428 23.0462 18.6927 22.5623 19.0028 21.8794L19.0023 21.8795C19.2662 21.6549 19.4802 21.4161 19.6441 21.1633L19.6441 21.1634C20.0336 20.5626 20.143 19.9284 19.9724 19.2608C19.9616 19.2185 19.9488 19.1769 19.9341 19.1359C19.4323 17.7365 18.5315 16.7672 17.2317 16.2278L17.2311 16.2279C16.6567 15.8616 16.0511 15.6873 15.4142 15.705C15.2781 15.7087 15.1405 15.7213 15.0015 15.7426V15.7426C14.6788 15.7212 14.3417 15.7153 13.9902 15.7251Z" fill="#FFA462"/>
<path d="M17.2261 16.2947C17.2993 16.3394 17.3619 16.3649 17.4138 16.3712C17.4019 16.3698 17.3825 16.3694 17.3557 16.3703L17.9441 16.2194C18.7194 15.8241 18.9009 15.2222 18.4887 14.4137C18.2592 13.9636 17.9278 13.7245 17.4944 13.6965C17.5795 13.702 17.7674 13.6951 18.0583 13.6757C18.1247 13.6713 18.1914 13.6716 18.2577 13.6768C18.1662 13.6697 18.0896 13.6717 18.0281 13.6829C18.1324 13.664 18.3676 13.5937 18.7337 13.4722C18.7502 13.4667 18.7668 13.4615 18.7834 13.4567C18.8642 13.4332 18.9537 13.4142 19.0521 13.3996L19.052 13.3996C19.1322 13.3877 19.2273 13.3774 19.3373 13.3687C19.3475 13.3679 19.3578 13.3672 19.3681 13.3666C19.4993 13.3591 19.628 13.3601 19.7542 13.3696C20.0637 13.3928 20.3536 13.466 20.624 13.5892L20.5759 13.5684C21.1427 13.8012 21.6942 14.196 22.2304 14.7528C22.2351 14.7577 22.2398 14.7626 22.2444 14.7676C22.5168 15.0588 22.7203 15.3112 22.8549 15.5245C23.358 16.322 23.3048 17.0059 22.6952 17.576L22.6953 17.5759C22.5408 17.7205 22.3621 17.8275 22.1593 17.8972L22.8581 17.3624C22.5169 17.8664 21.9969 18.128 21.2981 18.1472C21.0534 18.1539 20.7788 18.1282 20.4741 18.07C20.4191 18.0595 20.3647 18.0456 20.3113 18.0285C19.4959 17.7675 18.8527 17.3946 18.3818 16.91L18.3783 16.9065C17.7477 16.2529 17.3121 15.5217 17.0715 14.7128C17.0689 14.7042 17.0665 14.6955 17.0641 14.6869C16.8764 14.008 17.0025 13.4322 17.4421 12.9595C17.5382 12.8562 17.6495 12.7681 17.7722 12.6983C18.11 12.5061 18.5061 12.4403 18.9605 12.5008C19.0319 12.5103 19.1058 12.523 19.1822 12.5389C19.1852 12.5395 19.188 12.5401 19.191 12.5407C19.1957 12.5417 19.2005 12.5428 19.2054 12.5438L19.2054 12.5439C19.385 12.5833 19.6134 12.6541 19.8907 12.7561L19.8846 12.7539C20.1899 12.8646 20.7262 13.0763 21.4935 13.3889L21.4534 13.3733C21.5731 13.4178 21.7064 13.4604 21.8531 13.5011L21.8585 13.5026C22.0145 13.5466 22.1205 13.5722 22.1764 13.5797C22.1697 13.5788 22.1602 13.578 22.1479 13.5773C22.1554 13.5777 22.1628 13.5782 22.1703 13.5787C22.2201 13.5823 22.2541 13.5843 22.2725 13.5846H22.2724C22.2538 13.5843 22.2298 13.5853 22.2005 13.5876L22.1091 13.5978C22.3492 13.5628 22.5502 13.5439 22.7122 13.5409C22.7356 13.5405 22.7586 13.5404 22.7812 13.5406C22.7876 13.5406 22.794 13.5407 22.8004 13.5409C22.913 13.5434 23.0145 13.5493 23.1047 13.5586L23.1048 13.5586C23.2146 13.57 23.316 13.5874 23.4089 13.6108C23.4215 13.614 23.434 13.6173 23.4466 13.6208C23.894 13.7468 24.4544 13.9492 25.1278 14.2278L25.1033 14.218C25.3469 14.3134 25.5617 14.4224 25.7478 14.5449C26.4528 15.0093 26.7731 15.6216 26.7087 16.3817C26.7073 16.398 26.7057 16.4143 26.7037 16.4305C26.5629 17.6001 25.8958 18.1131 24.7024 17.9694C24.61 17.9583 24.5155 17.9412 24.4191 17.9182C24.3484 17.9013 24.2763 17.8811 24.2027 17.8576C23.4723 17.6246 23.0691 16.8436 23.3021 16.1132C23.5351 15.3828 24.3161 14.9796 25.0465 15.2126C25.0546 15.2151 25.0606 15.2169 25.0645 15.2178C25.0575 15.2162 25.0475 15.2145 25.0343 15.213C24.39 15.1354 24.0277 15.4306 23.9472 16.0986L23.9422 16.1474C23.9137 16.4838 24.0065 16.7225 24.2205 16.8635C24.1966 16.8478 24.1534 16.8277 24.0907 16.8031C24.0825 16.7999 24.0743 16.7966 24.0662 16.7932C23.4937 16.5563 23.0362 16.3897 22.6939 16.2932L22.7316 16.3033C22.7673 16.3123 22.7962 16.3179 22.8183 16.3202L22.8183 16.3202C22.8029 16.3186 22.7766 16.3174 22.7393 16.3166L22.7585 16.3169C22.7604 16.3169 22.7619 16.3169 22.7629 16.3169C22.7178 16.3177 22.6331 16.3271 22.5088 16.3452C22.4785 16.3496 22.4481 16.353 22.4175 16.3554C22.3586 16.3601 22.2942 16.3618 22.2244 16.3606L22.2243 16.3606C22.1553 16.3594 22.0706 16.3551 21.9703 16.3479L21.9926 16.3493C21.9347 16.3461 21.8743 16.3403 21.8114 16.3319C21.6242 16.3071 21.3889 16.2548 21.1055 16.1749L21.111 16.1764C20.8881 16.1146 20.6798 16.0477 20.4861 15.9757C20.4726 15.9707 20.4592 15.9655 20.4459 15.9601C19.7121 15.6611 19.2095 15.4624 18.9382 15.364L18.9321 15.3618C18.7731 15.3033 18.6654 15.2678 18.609 15.2554L18.6091 15.2554C18.6092 15.2555 18.6093 15.2555 18.6093 15.2555L18.618 15.2573C18.6071 15.255 18.599 15.2536 18.5939 15.2529C18.7574 15.2747 18.9411 15.2275 19.1452 15.1114L19.4752 14.8502C19.7396 14.5659 19.8279 14.2649 19.7401 13.9472L19.7327 13.9213C19.8446 14.2975 20.0591 14.65 20.3763 14.9787L20.3729 14.9752C20.5214 15.128 20.783 15.2644 21.1578 15.3843L20.995 15.3429C21.1024 15.3634 21.178 15.3731 21.2218 15.3719C20.9711 15.3787 20.7501 15.5235 20.5588 15.8061C20.7276 15.5568 20.9729 15.3691 21.2576 15.2713C21.0861 15.3302 20.9331 15.4226 20.7986 15.5484L20.7987 15.5483C20.2907 16.0234 20.1934 16.5092 20.5067 17.0059C20.4658 16.941 20.3691 16.827 20.2166 16.664L20.2306 16.6787C19.9643 16.4022 19.7278 16.2215 19.521 16.1365C19.5048 16.1299 19.4888 16.1229 19.4729 16.1157C19.5025 16.1292 19.5271 16.1367 19.5465 16.1382C19.5422 16.1378 19.5355 16.1379 19.5263 16.1385L19.5571 16.1364C19.5097 16.1401 19.4769 16.1434 19.4587 16.146L19.4587 16.1461C19.4851 16.1421 19.5186 16.1343 19.559 16.1225L19.6087 16.107C19.1183 16.2699 18.7564 16.3725 18.5231 16.4148C18.3497 16.4462 18.1898 16.4562 18.0433 16.4449L18.2428 16.4459C17.8307 16.4734 17.5215 16.4805 17.3152 16.4671C16.6975 16.4272 16.2642 16.163 16.0152 15.6748C15.5867 14.8344 15.8093 14.1914 16.6829 13.746C16.8655 13.6529 17.0664 13.6014 17.2713 13.5952C17.4388 13.5901 17.5984 13.5968 17.7502 13.6153C18.0962 13.6575 18.4036 13.7607 18.6725 13.9248C19.3269 14.3242 19.5336 15.1785 19.1342 15.8329C18.7348 16.4874 17.8805 16.6941 17.2261 16.2947Z" fill="#FFA462"/>
<path d="M35.3268 23.6541C34.2957 23.6827 33.6948 24.2928 33.5241 25.4845L33.5241 25.4846C33.5059 25.6112 33.4996 25.7393 33.5052 25.8672L33.5048 25.8673C33.5044 25.9712 33.4911 26.1824 33.4649 26.501L33.4645 26.5011C32.9594 26.7169 32.5057 27.0845 32.1033 27.6037L32.1033 27.6037C32.0578 27.6624 32.0136 27.7229 31.9707 27.7852C31.8248 27.997 31.6937 28.2299 31.5772 28.4839C31.541 28.563 31.5098 28.6442 31.4838 28.7272C31.2358 29.5194 31.2556 30.2577 31.5431 30.9419L31.5427 30.9419C31.5557 31.0089 31.5712 31.0763 31.5892 31.1441C31.6328 31.3083 31.6965 31.4665 31.7789 31.615C32.0614 32.1244 32.4682 32.5467 32.9993 32.8819C33.3875 33.1269 33.8411 33.3217 34.3601 33.4663L34.3597 33.4664C34.362 33.4672 34.3644 33.4681 34.3667 33.469L34.3663 33.469C34.4785 33.737 34.6469 33.9805 34.8631 34.1819C35.2016 34.4972 35.5273 34.7996 35.8402 35.0891L35.8398 35.0892C35.8804 35.1772 35.9278 35.2635 35.982 35.3473C36.6465 36.3742 37.5502 37.3915 38.6931 38.3992C38.7039 38.4087 38.7147 38.4181 38.7257 38.4273C39.5604 39.1329 40.2974 39.6326 40.937 39.9264L40.9366 39.9265L42.2025 41.127L42.2022 41.127C43.0572 42.0832 43.8735 43.0655 44.651 44.0741C44.6996 44.1371 44.7518 44.1973 44.8074 44.2543C46.2543 45.7388 47.3447 46.7451 48.0787 47.2733L48.0784 47.2734C48.3011 47.4474 48.5167 47.5957 48.7251 47.7181L48.7248 47.7182C49.1445 48.184 49.7306 48.4147 50.3143 48.3985C50.6416 48.3895 50.968 48.3028 51.2641 48.1366L51.2638 48.1366C52.0237 47.9163 52.5321 47.3025 52.7891 46.2953L52.7889 46.2954C52.9022 46.1696 53.0123 46.0299 53.1192 45.8763L53.119 45.8764C53.5566 45.305 53.8625 44.7462 54.0366 44.1999C54.4364 42.9453 54.2196 41.8568 53.3863 40.9343L53.386 40.9343C52.9462 40.3671 52.5809 39.9304 52.2901 39.6242L52.2881 39.622L45.5844 32.5831C45.5665 32.5643 45.5482 32.5457 45.5295 32.5276C44.7906 31.8084 44.1844 31.2489 43.711 30.8491C43.6769 30.8203 43.6418 30.7926 43.6059 30.766C41.4285 29.1575 40.1379 28.1076 39.7342 27.6163C39.6639 27.5308 39.5869 27.4511 39.5039 27.378L39.5036 27.3781C39.2335 27.104 38.4959 26.1547 37.2907 24.5301C37.2512 24.4769 37.2091 24.4256 37.1647 24.3764C36.8162 23.9906 36.3907 23.7617 35.8884 23.6898L35.8884 23.6898C35.6888 23.6612 35.5016 23.6493 35.3268 23.6541Z" fill="#FFA462"/>
<path d="M49.8217 23.2815L48.5636 24.4085L48.5803 24.3929C47.5751 25.3592 46.6398 26.3487 45.7744 27.3617C45.7627 27.3753 45.7505 27.3885 45.7377 27.4011C44.8655 28.2655 44.1628 28.9441 43.6297 29.4371C43.3666 29.6805 42.956 29.6644 42.7126 29.4013C42.4692 29.1381 42.4852 28.7275 42.7484 28.4841C43.2705 28.0012 43.9624 27.3329 44.8241 26.4791L44.7874 26.5185C45.6804 25.4733 46.6449 24.4528 47.6808 23.4571C47.6862 23.4518 47.6918 23.4467 47.6975 23.4416L48.9556 22.3146C49.2226 22.0754 49.6329 22.098 49.8721 22.365C50.1112 22.632 50.0887 23.0423 49.8217 23.2815Z" fill="#FFA462"/>
<path d="M55.3983 17.5027C55.0638 17.7972 54.5119 18.447 53.7426 19.4521C53.5247 19.7367 53.1173 19.7908 52.8327 19.573C52.5481 19.3551 52.4939 18.9477 52.7118 18.6631C53.5328 17.5906 54.1424 16.879 54.5406 16.5284C54.8097 16.2915 55.2198 16.3177 55.4566 16.5867C55.6935 16.8558 55.6674 17.2659 55.3983 17.5027Z" fill="#FFA462"/>
<path d="M57.7349 19.8637C57.5016 20.215 57.2864 20.491 57.0895 20.6917L57.0857 20.6955C55.7447 22.0393 54.7449 23.0943 54.0862 23.8604L54.098 23.8463L51.597 26.9273C51.5862 26.9406 51.5749 26.9535 51.5631 26.9659L48.4484 30.2362L48.4992 30.1759C47.3947 31.6608 46.6779 32.5225 46.3486 32.761C46.3195 32.7821 46.2907 32.8011 46.2623 32.8179C45.954 33.0007 45.5558 32.8989 45.3731 32.5905C45.1903 32.2822 45.2921 31.8841 45.6004 31.7013C45.5946 31.7047 45.5902 31.7075 45.5871 31.7097C45.8089 31.5491 46.4324 30.7796 47.4576 29.4012C47.4733 29.3801 47.4903 29.36 47.5084 29.3409L50.6232 26.0707L50.5892 26.1092L53.0902 23.0283C53.094 23.0235 53.0979 23.0188 53.1019 23.0142C53.7815 22.2237 54.8031 21.1452 56.1668 19.7786L56.1631 19.7824C56.3023 19.6405 56.4658 19.4282 56.6536 19.1455C56.852 18.8469 57.2548 18.7656 57.5534 18.9639C57.852 19.1622 57.9332 19.5651 57.7349 19.8637Z" fill="#FFA462"/>
<path d="M34.346 4.65906C34.6875 5.98405 35.0175 6.85687 35.3361 7.27752L35.3357 7.27753C35.9607 8.18364 36.701 8.87839 37.5566 9.36177C37.5986 9.38551 37.6431 9.40455 37.6893 9.41856L37.8252 9.45975L37.8248 9.45976C37.525 9.62073 37.2543 9.78132 37.0126 9.94155C37.0057 9.94613 36.9989 9.95085 36.9921 9.95569C36.5652 10.2626 35.9764 10.862 35.2256 11.7539L35.2252 11.7539C35.0271 11.9635 34.7439 12.4185 34.3758 13.119C34.2573 12.8333 34.1021 12.5207 33.9102 12.1811L33.9098 12.1811C33.8869 12.1264 33.8571 12.0716 33.8205 12.0167C33.687 11.8162 33.3195 11.4269 32.7181 10.8487C32.7155 10.8462 32.7128 10.8437 32.7102 10.8411L32.7098 10.8411C32.5118 10.6282 32.2877 10.4411 32.0373 10.28C31.4517 9.90272 30.9571 9.60463 30.5537 9.38579L30.5532 9.3858C30.9678 9.09696 31.3701 8.77179 31.7602 8.41027L31.7598 8.41029C32.3009 8.04957 32.6864 7.66229 32.9164 7.24845L32.916 7.24846C33.0533 7.0638 33.1768 6.89379 33.2864 6.73842L33.286 6.73843C33.3499 6.68289 33.4099 6.61186 33.4661 6.52533C33.5027 6.46906 33.5535 6.37635 33.6186 6.2472L33.6181 6.24721C33.7605 6.02346 33.8553 5.85007 33.9024 5.72705C33.9257 5.66618 33.9428 5.60662 33.9537 5.54838L33.9533 5.54839C33.9636 5.52356 33.9738 5.49834 33.984 5.47275L33.9836 5.47276C34.0898 5.23838 34.2105 4.96716 34.3456 4.65907L34.346 4.65906ZM34.3358 0.962224C34.1801 0.966538 34.0228 1.04534 33.864 1.19863C33.7848 1.27511 33.7197 1.37401 33.6686 1.49533C33.6333 1.579 33.5988 1.68714 33.5649 1.81974C33.5611 1.83463 33.5578 1.84964 33.555 1.86476C33.3 3.26575 33.0338 4.31052 32.7564 4.99909L32.756 4.9991C32.6364 5.2636 32.5417 5.46598 32.472 5.60626L32.4715 5.60628C32.4273 5.67338 32.3762 5.74845 32.3182 5.83149L32.3178 5.8315C31.8598 6.43251 31.3819 6.96478 30.884 7.42832L30.8835 7.42833C30.2738 7.80041 29.3876 8.1576 28.225 8.49989C28.0071 8.56404 27.8377 8.73604 27.7769 8.95488C27.7162 9.17372 27.7725 9.40844 27.9261 9.57579C28.0835 9.74725 28.3081 9.91575 28.5999 10.0813C28.6214 10.0935 28.6436 10.1045 28.6664 10.1142C29.8662 10.626 30.5555 10.9348 30.7343 11.0405L30.7339 11.0405C30.7509 11.0538 30.7686 11.0662 30.7869 11.0778C31.2849 11.393 31.6127 11.6216 31.7703 11.7636L31.7699 11.7636C31.8606 11.8644 31.9422 11.9742 32.0148 12.0931C32.0259 12.1111 32.0377 12.1286 32.0504 12.1455C32.786 13.124 33.1976 14.6345 33.285 16.677C33.2989 17.0009 33.5466 17.2664 33.8688 17.3026C33.8998 17.3061 33.9306 17.3073 33.961 17.3065C34.2467 17.2986 34.4997 17.1049 34.5769 16.8222L35.2852 14.2303L35.2848 14.2303C35.7355 13.3292 36.0327 12.8067 36.1764 12.6628C36.1915 12.648 36.2058 12.6325 36.2194 12.6164C36.8974 11.8099 37.4066 11.2823 37.7471 11.0334L37.7468 11.0335C38.2869 10.6763 39.0073 10.3098 39.9078 9.93411C40.164 9.82723 40.3255 9.57104 40.3115 9.2938C40.2975 9.01657 40.111 8.77796 39.8454 8.69741L38.1437 8.18144L38.1433 8.18146C37.4837 7.79569 36.9051 7.23989 36.4074 6.51406C36.4006 6.50412 36.3935 6.49436 36.3862 6.48481C36.0023 5.98606 35.5445 4.34024 35.0128 1.54735C34.9889 1.42157 34.9287 1.30551 34.8398 1.21343C34.6736 1.04126 34.5056 0.957523 34.3358 0.962224Z" fill="#FFA462"/>
<path d="M34.2103 4.2473L34.1933 4.24796C33.917 4.25946 33.7118 4.39097 33.5775 4.64248C33.5322 4.72223 33.5138 4.8405 33.5223 4.99726C33.4808 5.07742 33.457 5.16316 33.4509 5.25449C33.4354 5.27433 33.4582 5.43763 33.5191 5.74439C33.4093 5.77709 33.2842 5.85883 33.1437 5.98964C33.0004 5.99361 32.8724 6.05414 32.7598 6.17121C32.5834 6.35808 32.5013 6.5578 32.5134 6.77037C32.2972 6.84818 32.1103 6.97067 31.9525 7.13783C31.8735 7.22141 31.8018 7.31617 31.7373 7.4221C31.696 7.4611 31.6155 7.64513 31.4958 7.9742C31.0355 7.81267 30.6405 7.82449 30.3109 8.00965C30.2001 8.06389 30.0823 8.18279 29.9574 8.36634C29.903 8.46459 29.875 8.56896 29.8733 8.67946C29.8267 8.72721 29.7842 8.81146 29.7458 8.93221C29.7325 8.98496 29.7257 9.03799 29.7256 9.09133C29.7278 9.31658 29.824 9.49902 30.014 9.63866C30.4782 9.96445 30.9832 10.2564 31.5291 10.5144C31.7766 10.6889 31.9507 10.8027 32.0515 10.8557C32.2178 10.9578 32.4262 11.0544 32.6766 11.1457C32.632 12.1612 32.7249 12.9676 32.9556 13.5648C33.053 13.8261 33.178 14.014 33.3305 14.1287C33.5096 14.2411 33.6595 14.2866 33.78 14.2652C34.2036 14.2384 34.4804 13.9631 34.6105 13.4396C34.9488 13.5283 35.2222 13.4517 35.4306 13.2098C35.5058 13.1076 35.5503 13.0311 35.5639 12.9801C35.603 12.8755 35.6437 12.6845 35.6859 12.407L36.0557 11.4409C36.3607 11.251 36.621 11.0098 36.8365 10.7173C37.3811 10.7078 37.8764 10.5659 38.3224 10.2915C38.5874 10.0799 38.7256 9.85079 38.7369 9.6043C38.724 9.32426 38.6335 9.09622 38.4654 8.9202C38.2609 8.71289 38.0209 8.5514 37.7453 8.43572C37.6617 8.33231 37.5893 8.26472 37.5283 8.23295C37.2856 8.07131 36.8874 7.98461 36.3337 7.97283C36.165 7.83167 36.0217 7.7544 35.9038 7.74104C35.7155 7.00472 35.4676 6.51456 35.1599 6.27054C35.0615 5.74962 35.0256 5.4598 35.0522 5.40107C34.9632 4.99437 34.8841 4.73834 34.8149 4.63298C34.6718 4.36866 34.4703 4.2401 34.2103 4.2473Z" fill="#FFA462"/>
<path d="M35.2956 53.3554C35.9379 54.4508 38.6938 57.461 43.5633 62.386L43.4849 62.3148C45.8067 64.2061 47.1562 65.2395 47.5334 65.4151C47.4829 65.3916 47.4167 65.3754 47.3351 65.3665C47.4553 65.3796 47.572 65.4147 47.6795 65.4701C48.3641 65.8227 48.9209 65.9617 49.3499 65.8873L49.3254 65.8919C49.8029 65.7964 50.1624 65.6723 50.4038 65.5193L50.4054 65.5184C51.8022 64.6372 52.6024 64.0772 52.8059 63.8383C52.7686 63.882 52.7357 63.945 52.7072 64.0271C52.7641 63.8634 52.8631 63.7175 52.9943 63.6042C54.0418 62.7002 54.5696 61.5525 54.5777 60.1611L54.5841 60.2793C54.3259 58.0302 54.0098 56.6838 53.636 56.2401L53.6694 56.2777C52.0104 54.5014 50.4564 53.1578 49.0073 52.2469C48.5465 51.9573 48.4078 51.349 48.6974 50.8882C48.9871 50.4274 49.5954 50.2887 50.0561 50.5783C51.6497 51.58 53.3343 53.0314 55.1097 54.9325C55.1212 54.9448 55.1323 54.9573 55.1431 54.9701C55.7724 55.7169 56.2387 57.4117 56.5421 60.0545C56.5467 60.0937 56.5488 60.1332 56.5486 60.1727C56.5369 62.161 55.7814 63.8022 54.282 65.0963L54.5691 64.6733C54.5167 64.8245 54.429 64.9721 54.3062 65.1164C53.9728 65.5077 53.023 66.1973 51.4569 67.1853L51.4584 67.1843C51.0108 67.4679 50.4285 67.6813 49.7115 67.8245C49.7034 67.8262 49.6952 67.8277 49.687 67.8291C48.8236 67.979 47.8537 67.7767 46.7771 67.2222L47.1216 67.3257C46.9877 67.3112 46.8477 67.2699 46.7016 67.2019C46.176 66.9572 44.6889 65.8375 42.2402 63.8428C42.2128 63.8205 42.1866 63.7968 42.1618 63.7716C37.1765 58.7295 34.3211 55.5897 33.5955 54.3522C33.3202 53.8828 33.4776 53.279 33.9471 53.0037C34.4166 52.7285 35.0204 52.8859 35.2956 53.3554Z" fill="#FFA462"/>
</svg>
