<svg width="127" height="124" viewBox="0 0 127 124" fill="none" xmlns="http://www.w3.org/2000/svg">
<path d="M101.53 64.7887C98.1184 84.8929 78.0719 98.582 56.7551 95.3643C35.4385 92.1466 20.9236 73.2406 24.3354 53.1365C27.7472 33.0324 47.7936 19.3432 69.1103 22.5608C90.427 25.7784 104.942 44.6844 101.53 64.7887ZM96.9671 64.0999C99.9755 46.3724 87.1766 29.7015 68.38 26.8643C49.5834 24.0271 31.9069 36.0979 28.8985 53.8252C25.8901 71.5527 38.6889 88.2235 57.4855 91.0608C76.2821 93.8981 93.9586 81.8274 96.9671 64.0999Z" fill="#C1E3FE"/>
<path d="M54.175 26.6926C54.9604 27.5834 55.591 29.1517 56.3055 30.8743L56.3054 30.8741L56.45 31.2224L56.4498 31.2221C56.4402 31.1987 56.4329 31.1877 56.4334 31.1885L56.4333 31.1884C56.574 31.4085 57.3627 31.911 57.9834 32.0422C58.0506 32.0565 58.1167 32.0755 58.1809 32.0992L59.1678 32.4633L59.0359 32.4219C59.1745 32.4581 59.3069 32.4802 59.4322 32.4912L59.4206 32.4902C59.2664 32.478 59.5769 32.5025 59.422 32.4903L59.4347 32.4914C59.8309 32.5262 60.0306 32.5375 60.0796 32.5385L60.0799 32.5385C60.1031 32.5389 60.0428 32.536 59.9569 32.5447L59.8805 32.5545L59.8808 32.5544L59.9575 32.5446C60.8073 32.4593 61.5768 32.4453 62.2632 32.4632L62.4403 32.4788L62.4404 32.4788L62.264 32.4632C62.2565 32.463 62.2487 32.4632 62.2503 32.4631L62.2506 32.4631C62.3457 32.4606 62.6104 32.4179 63.2237 32.2871L63.2234 32.2872C63.557 32.216 63.8587 32.2426 64.0738 32.2793L64.0737 32.2793C64.1406 32.2907 64.203 32.3037 64.2624 32.3176L64.2624 32.3177C64.4884 32.3707 64.9063 32.4788 65.3616 32.7702L65.3616 32.7702C66.4804 33.4862 67.3128 33.9659 67.9042 34.2405L68.0015 34.2905L68.0017 34.2906L67.9042 34.2405C68.0092 34.2893 68.2804 34.389 68.7808 34.4597C68.8413 34.4682 68.8621 34.4625 68.8575 34.4634L68.8577 34.4634C68.8571 34.4635 68.8562 34.4638 68.8555 34.464L68.8558 34.4639C69.4148 34.2695 69.9791 33.9657 70.7173 33.5633L70.7171 33.5634C70.8222 33.5061 70.8721 33.4788 70.9801 33.4202L70.9802 33.4201C71.7107 33.0238 72.495 32.9789 72.9482 32.9541L72.9498 32.954C72.972 32.9528 72.9404 32.9545 72.9668 32.953L72.9648 32.9532C72.9841 32.9521 72.973 32.9527 72.9885 32.9519L72.9878 32.9519C73.0422 32.9489 73.1293 32.9441 73.2243 32.9441L73.2236 32.9441C73.3462 32.9441 73.5455 32.9513 73.7681 33.0089L73.6238 32.9794L73.624 32.9795L73.768 33.0088C73.9448 33.0545 74.4284 33.1418 75.2733 33.218C75.4271 33.2319 75.5772 33.2703 75.7172 33.3318L75.7158 33.3312C75.7145 33.3306 75.7094 33.3286 75.713 33.33L75.7133 33.3302C75.959 33.4303 76.9657 33.6473 79.0222 33.9804L79.0222 33.9804C79.2922 34.0241 79.3841 34.0268 79.4166 34.0239L79.4168 34.0239C79.4172 34.0239 79.369 34.0282 79.2998 34.0602L79.2998 34.0602C81.1104 33.2227 82.0512 32.1865 82.4333 31.1544C82.6804 30.4871 83.4544 30.1351 84.1619 30.3681C84.8695 30.6011 85.2428 31.331 84.9957 31.9984C84.3202 33.8227 82.7687 35.3068 80.4949 36.3585L80.4948 36.3585C80.2067 36.4917 79.9211 36.5503 79.6704 36.5725L79.6706 36.5725C79.2373 36.6109 78.8183 36.5446 78.5628 36.5032C76.6626 36.1955 75.2548 35.932 74.6361 35.6797L74.6365 35.6798C74.615 35.6711 74.5972 35.6636 74.5727 35.6529L75.0151 35.7661C74.1161 35.6851 73.4513 35.5811 73.051 35.4777L73.195 35.5071L73.1948 35.507L73.0504 35.4776C73.1606 35.5061 73.2348 35.5039 73.2242 35.5039L73.2236 35.5039C73.2172 35.5039 73.2018 35.5043 73.1456 35.5073L73.1449 35.5074C73.1367 35.5078 73.1319 35.5081 73.1274 35.5083L73.1254 35.5084C73.1396 35.5077 73.0939 35.5101 73.1038 35.5096L73.1054 35.5095C72.6363 35.5352 72.4492 35.5762 72.3337 35.6389L72.3337 35.6389C72.241 35.6892 72.1684 35.7288 72.0759 35.7793L72.0757 35.7794C71.383 36.1571 70.612 36.5814 69.7948 36.8656L69.7951 36.8655C69.6721 36.9083 69.5457 36.9428 69.4148 36.9687L69.4149 36.9686C69.0712 37.0367 68.7233 37.0398 68.3789 36.9912C67.6648 36.8903 67.1132 36.7264 66.7056 36.5372L66.6081 36.4871L66.6079 36.487L66.7053 36.537C65.9398 36.1815 64.9807 35.6199 63.8375 34.8882L63.8375 34.8882C63.771 34.8457 63.7131 34.8265 63.607 34.8016L63.607 34.8017C63.5951 34.7989 63.5923 34.7985 63.5912 34.7983L63.5911 34.7982C63.5786 34.7961 63.6729 34.8157 63.8223 34.7838L63.822 34.7839C63.3005 34.8951 62.7444 35.0109 62.3258 35.0219L62.3261 35.0219C62.2815 35.0231 62.237 35.0233 62.1879 35.022L62.0115 35.0064L62.0114 35.0064L62.1885 35.022C61.5986 35.0067 60.9527 35.0189 60.2447 35.09L60.3214 35.0802L60.3211 35.0803L60.2448 35.09C60.142 35.1004 60.0469 35.0981 60.0248 35.0977L60.0252 35.0977C59.8639 35.0946 59.5718 35.0742 59.1832 35.0401L59.196 35.0412C59.2656 35.0467 59.1224 35.0353 59.1927 35.0409L59.181 35.0399C58.896 35.0149 58.6056 34.9657 58.3109 34.8886C58.2662 34.8769 58.2222 34.8631 58.179 34.8471L57.1921 34.483L57.3897 34.54C56.3589 34.3221 54.7704 33.5456 54.1085 32.5093L54.1084 32.5091C54.0406 32.4031 53.9763 32.2848 53.9226 32.1556L53.9225 32.1553L53.778 31.807L53.7779 31.8068C52.9724 29.8649 52.5175 28.8163 52.0881 28.3292C51.6089 27.7857 51.6876 26.9787 52.2639 26.5268C52.8402 26.0748 53.6958 26.1491 54.175 26.6926Z" fill="#C1E3FE"/>
<path d="M39.8391 34.3575L41.3922 35.7674L41.1785 35.609L45.653 38.2882L45.3127 38.142L48.657 39.0805L48.2933 39.0275L52.9276 39.1024C53.1045 39.1052 53.2791 39.1407 53.4415 39.2067L55.5506 40.064L54.8906 39.9647L57.638 39.7291C57.7087 39.723 57.7799 39.7222 57.8508 39.7267C59.9483 39.858 61.2298 40.919 61.695 42.9097C61.7105 42.9758 61.7203 43.0429 61.7245 43.1104C61.7956 44.2568 61.6589 45.1342 61.3143 45.7428C61.0266 46.2508 60.6143 46.5925 60.0775 46.7678L60.5395 46.5112C59.5929 47.3117 57.8829 47.7885 55.4097 47.9417L55.9186 47.8136C54.4485 48.494 53.5858 48.9565 53.3306 49.201L53.3305 49.2011C53.3368 49.195 53.3451 49.1859 53.3552 49.1738C53.1527 49.4167 52.864 49.5823 52.5422 49.6401L52.5423 49.6401C52.8777 49.5798 53.1162 49.445 53.2578 49.2356L53.2578 49.2356C53.035 49.5651 52.6116 50.7306 51.9876 52.7321C51.9614 52.8162 51.9261 52.8975 51.8822 52.9748C51.0649 54.4157 50.4591 55.3296 50.0646 55.7165L50.0647 55.7164C49.9295 55.849 49.7902 55.9556 49.647 56.0361C49.5678 56.0805 49.4841 56.1173 49.397 56.1458L45.3506 57.4685C45.2354 57.5062 45.1152 57.529 44.9935 57.5364C43.2068 57.645 42.0727 57.7944 41.5913 57.9846L41.6513 57.9592L39.0607 59.1247L39.1921 59.0569C39.1403 59.0873 39.0962 59.1273 39.06 59.1768L39.2408 58.8235C39.2411 58.8225 39.2413 58.8217 39.2415 58.8211L39.2414 58.8213C39.0941 59.3761 39.7302 60.697 41.1497 62.7838L41.1119 62.7313C41.3208 63.0072 41.6301 63.2551 42.0397 63.475L41.8489 63.3903C42.4739 63.6134 42.9762 63.7079 43.3559 63.6737C43.5519 63.6561 43.7496 63.6789 43.9354 63.7405C44.3647 63.883 44.8155 64.1355 45.2877 64.4978C45.386 64.5732 45.4725 64.6611 45.5448 64.7591C46.2821 65.7574 46.709 66.5582 46.8254 67.1614L46.8253 67.1614C46.8767 67.4275 46.8787 67.6788 46.8314 67.9153C46.6924 68.6099 45.9827 69.0667 45.2462 68.9357C44.5097 68.8046 44.0253 68.1353 44.1643 67.4407C44.1494 67.5149 44.1463 67.5746 44.155 67.6196C44.1091 67.3817 43.83 66.9158 43.3177 66.2221L43.5748 66.4834C43.3468 66.3085 43.1666 66.199 43.0343 66.1551L43.6138 66.2219C42.8152 66.2938 41.9066 66.1479 40.888 65.7843C40.8222 65.7608 40.7584 65.7325 40.6972 65.6996C39.9414 65.2939 39.3433 64.8003 38.9029 64.2185C38.8899 64.2013 38.8774 64.1838 38.8652 64.166C37.0235 61.4585 36.2713 59.4696 36.6086 58.1994L36.6086 58.1995C36.6195 58.1584 36.6314 58.1178 36.6444 58.0777C36.685 57.9518 36.746 57.8326 36.8251 57.7243C37.0758 57.3813 37.3876 57.1006 37.7606 56.8822C37.8031 56.8573 37.847 56.8346 37.8921 56.8144L40.4828 55.6488C40.5025 55.6399 40.5227 55.6314 40.5429 55.6234C41.304 55.3228 42.7294 55.109 44.8189 54.982L44.4618 55.0499L48.5081 53.7272L48.2581 53.8368C48.1919 53.8741 48.1419 53.9092 48.1082 53.9422L48.1082 53.9422C48.3294 53.7253 48.7896 53.0004 49.489 51.7674L49.3837 52.0101C50.08 49.7762 50.6087 48.3925 50.9695 47.859L50.9695 47.859C51.2477 47.4476 51.6027 47.2031 52.0343 47.1256L51.2214 47.5919C51.2737 47.5291 51.3321 47.4669 51.3965 47.4051L51.3964 47.4052C51.8676 46.9538 52.9764 46.324 54.7229 45.5156C54.882 45.442 55.0549 45.3984 55.2318 45.3875C57.0812 45.2729 58.2465 45.0122 58.7276 44.6053C58.862 44.4917 59.0191 44.4045 59.1897 44.3488C59.0564 44.3923 58.9665 44.455 58.9202 44.5369C59.0247 44.3522 59.0563 43.9266 59.015 43.2599L59.0445 43.4607C58.8715 42.7206 58.4137 42.3273 57.671 42.2808L57.8838 42.2783L55.1364 42.514C54.9111 42.5333 54.6842 42.4992 54.4764 42.4147L52.3673 41.5574L52.8812 41.6617L48.2468 41.5869C48.1235 41.5849 48.0012 41.5671 47.883 41.5339L44.5387 40.5955C44.4186 40.5618 44.3041 40.5126 44.1983 40.4492L39.7237 37.77C39.647 37.7241 39.5754 37.6711 39.51 37.6116L37.9569 36.2018C37.4169 35.7116 37.4005 34.9013 37.9203 34.3921C38.44 33.8828 39.2991 33.8673 39.8391 34.3575Z" fill="#C1E3FE"/>
<path d="M46.1732 66.1265L46.1738 66.1267C46.6387 66.3041 46.9269 66.6525 47.0382 67.1718L47.0382 67.1717C47.1309 67.6039 47.2325 68.9371 47.3431 71.1715C47.3435 71.1796 47.3438 71.1877 47.3441 71.1958L47.3441 71.1961C47.3448 71.2199 47.345 71.2451 47.3448 71.2716L47.3448 71.2716C47.3431 71.4761 47.3026 71.9698 47.2233 72.7528C47.2188 72.7964 47.2121 72.8396 47.203 72.8825C47.1552 73.1072 47.1167 73.2704 47.0874 73.3721L47.0873 73.3721C46.9856 73.7247 46.7885 73.9913 46.4961 74.172L47.0483 73.4811C46.8909 73.959 46.6696 74.3768 46.3843 74.7345C46.3441 74.7849 46.3 74.8324 46.2524 74.8767C45.5766 75.505 45.1792 75.9141 45.0603 76.1038L45.0603 76.1037C45.0956 76.0473 45.1237 75.97 45.1444 75.8717C45.1175 75.9994 45.0701 76.1224 45.0039 76.2366C44.9027 76.4111 44.8482 76.81 44.8404 77.4334C44.8396 77.4971 44.8338 77.5607 44.8229 77.6237L44.8229 77.6237C44.815 77.6701 44.8049 77.7181 44.7927 77.7679L44.7927 77.7678C44.7338 78.0087 44.6035 78.3554 44.4018 78.8081C44.3888 78.8373 44.3747 78.8661 44.3594 78.8943C44.1952 79.1975 44.0301 79.4437 43.864 79.6328L43.8641 79.6327C43.8438 79.6558 43.8234 79.6782 43.8028 79.7C43.7874 79.7162 43.7716 79.7322 43.7553 79.7477C43.2863 80.1958 43.0071 80.4983 42.9178 80.6552L42.9178 80.6553C42.9249 80.6427 42.933 80.6246 42.942 80.6009C42.9194 80.6605 42.8921 80.7184 42.8603 80.7742C42.8932 80.7164 42.9134 80.6681 42.9209 80.6293L42.9208 80.6294C42.9189 80.6395 42.9172 80.656 42.9157 80.6789L42.9166 80.5384C42.9637 81.4526 42.9687 82.0637 42.9317 82.3716C42.8337 83.186 42.3895 83.6114 41.5989 83.6476L41.5513 83.649L41.5506 83.649L42.5737 83.1898C41.6561 84.2258 40.7028 84.821 39.7139 84.9755C38.9745 85.0911 38.2758 84.6195 38.1532 83.9221C38.0307 83.2248 38.5308 82.5658 39.2702 82.4502C39.5968 82.3992 40.0036 82.0987 40.4908 81.5487C40.7445 81.2623 41.1182 81.0945 41.514 81.0895H41.5146L41.467 81.0909C40.721 81.1251 40.3102 81.4559 40.2348 82.0832C40.2553 81.9124 40.2456 81.4389 40.2057 80.6626C40.2033 80.6158 40.2036 80.5689 40.2066 80.5222C40.2147 80.3983 40.2293 80.2816 40.2504 80.1719L40.2504 80.172C40.2939 79.9461 40.3666 79.7435 40.4685 79.5643L40.3868 79.7377C40.4233 79.6416 40.4699 79.5439 40.5265 79.4445L40.5264 79.4445C40.7391 79.0709 41.1716 78.5725 41.8238 77.9494L41.7763 77.9971C41.7752 77.9983 41.7744 77.9992 41.7739 77.9998L41.774 77.9997C41.8126 77.9556 41.8687 77.8659 41.942 77.7304L41.8996 77.8166C42.0411 77.4988 42.124 77.2906 42.1481 77.1922L42.1481 77.1921C42.1469 77.197 42.1455 77.2039 42.144 77.213L42.1265 77.4034C42.1395 76.3543 42.305 75.5559 42.6227 75.0081L42.4822 75.373C42.5216 75.186 42.6021 74.9955 42.7236 74.8015L42.7237 74.8015C42.9624 74.4205 43.5035 73.838 44.3471 73.0537L44.2152 73.1959C44.3117 73.0749 44.392 72.917 44.4562 72.722C44.5496 72.4382 44.7449 72.1939 45.0084 72.031C44.7269 72.205 44.547 72.4278 44.4685 72.6996L44.4685 72.6997C44.4816 72.6542 44.506 72.5475 44.5417 72.3797L44.5214 72.5093C44.5932 71.8006 44.6297 71.3814 44.6307 71.2517L44.6307 71.2516C44.6307 71.2551 44.6308 71.26 44.631 71.2663L44.6319 71.2909C44.5278 69.1872 44.4431 67.9832 44.3779 67.6792L44.3779 67.6791C44.4594 68.0593 44.7187 68.3328 45.1558 68.4996C44.4615 68.2351 44.1258 67.4891 44.4066 66.8337C44.6874 66.1783 45.4783 65.8617 46.1732 66.1265Z" fill="#C1E3FE"/>
<path d="M46.5295 87.5806C47.8011 86.4758 49.1629 85.8283 50.5981 85.8079L50.5981 85.8079C51.6008 85.7937 52.9912 85.8752 54.7674 86.1721C55.1461 86.2355 55.4796 86.3133 55.7345 86.4052L55.7449 86.4089C55.7174 86.3988 55.7784 86.4214 55.7498 86.4107L55.7412 86.4076C56.4404 86.6617 56.8374 86.7938 57.0229 86.8385L57.023 86.8385C57.1888 86.8784 57.2968 86.8959 57.3749 86.9012L57.3748 86.9012C57.6523 86.9196 57.7898 86.9207 57.8227 86.9194L57.8223 86.9194C57.8747 86.9174 57.7472 86.9154 57.5802 86.9625C57.6575 86.9407 57.7367 86.9254 57.8168 86.9169L59.9046 86.6944C59.9741 86.687 60.0441 86.6847 60.114 86.6875C61.0412 86.7244 61.9917 86.7649 62.9271 86.86L62.9272 86.86C63.0399 86.8715 63.1847 86.8909 63.3298 86.9101L63.3296 86.91C63.5551 86.9399 63.846 86.9783 64.2083 87.0183L64.21 87.0184C64.3211 87.0308 64.4208 87.0564 64.4242 87.0573L64.4247 87.0573C64.9172 87.1759 69.3266 88.4885 71.2623 89.6955C71.8875 90.0854 72.0592 90.8794 71.6459 91.469C71.2325 92.0587 70.3906 92.2206 69.7654 91.8308C68.2348 90.8763 64.2066 89.6466 63.7537 89.5377L63.7543 89.5378C63.7184 89.5292 63.7938 89.5496 63.8912 89.5605L63.8929 89.5607C63.4988 89.5172 63.1791 89.4749 62.9526 89.445L62.9524 89.4449C62.7888 89.4233 62.693 89.4108 62.6359 89.405L62.6359 89.405C61.8012 89.32 60.9337 89.2821 59.9998 89.245L60.2092 89.238L58.1216 89.4605L58.3582 89.4148C58.1585 89.4712 57.9689 89.4758 57.9309 89.4772L57.9305 89.4772C57.7402 89.4843 57.4792 89.4743 57.1837 89.4546L57.1835 89.4546C56.8732 89.4339 56.5867 89.3753 56.3509 89.3185L56.351 89.3186C55.9799 89.2291 55.4259 89.0362 54.7655 88.7962L54.757 88.7931C54.7812 88.8021 54.7303 88.7833 54.7557 88.7926L54.766 88.7964C54.7376 88.7862 54.5913 88.7424 54.2938 88.6926H54.2938C52.6707 88.4213 51.4524 88.3559 50.639 88.3674C50.0889 88.3752 49.3375 88.6213 48.3683 89.4633C47.817 89.9422 46.9585 89.909 46.4507 89.3891C45.9429 88.8691 45.9782 88.0595 46.5295 87.5806Z" fill="#C1E3FE"/>
<path d="M92.581 37.8184L92.581 37.8185C92.5541 38.0822 92.4507 38.2981 92.4086 38.3839L92.4086 38.3839C92.0842 39.0454 90.9763 40.3959 90.3042 40.8783L90.304 40.8784C90.2212 40.9378 90.1022 41.0163 89.9579 41.0832C89.9302 41.096 89.9019 41.1079 89.8733 41.119L85.1962 42.9216C85.149 42.9398 85.1007 42.9555 85.0516 42.9685L83.8877 43.2785C83.8247 43.2953 83.7604 43.3077 83.6954 43.3158C80.2955 43.7364 77.092 43.4185 74.0305 42.9089C73.6052 42.8382 72.8056 43.0653 71.0655 43.6609L71.0656 43.6609C70.9402 43.7038 70.9207 43.7105 70.7926 43.7542L70.7924 43.7543C71.4971 43.5138 71.5355 42.8843 71.4985 43.074L71.4985 43.0739C71.4822 43.157 71.4679 43.4772 71.5446 44.1755L71.5445 44.1755C71.5655 44.3661 71.6012 44.439 71.6033 44.4431L71.6033 44.4432C71.6017 44.4399 71.5747 44.3925 71.5047 44.3411L71.5048 44.3411C72.3856 44.9887 72.7557 45.2145 72.9117 45.26L72.9123 45.2602C72.912 45.2601 72.9118 45.26 72.9103 45.2596L72.9098 45.2595C75.9327 46.0445 79.4831 48.057 80.5029 49.7625L80.5043 49.7649L80.5075 49.7704L80.5094 49.7735C80.9146 50.4591 81.0245 51.4088 80.9886 51.9118C80.9817 52.0084 80.9658 52.1548 80.9186 52.3114L80.9186 52.3115C80.6733 53.125 80.3167 54.8417 80.0565 56.0987C79.9366 56.6782 79.827 57.2115 79.7715 57.4137L79.7715 57.4136C79.7674 57.4288 79.7624 57.4461 79.7572 57.4633L79.7571 57.4637C79.7519 57.4812 79.7428 57.5105 79.7308 57.5435L79.7311 57.5426C79.6055 57.8912 79.369 58.126 79.2541 58.2333L79.2541 58.2333C79.0698 58.4053 78.8346 58.5707 78.6891 58.6749C78.1525 59.0593 77.9204 59.2723 77.8504 59.4665L77.8504 59.4665C77.8364 59.5054 77.8282 59.5491 77.8359 59.6141C77.8619 59.8322 77.8612 60.0437 77.8357 60.2458C77.7829 60.6652 77.6242 61.0361 77.3946 61.3293L77.3946 61.3292C77.0157 61.8129 76.5039 62.2354 75.9103 62.6092C75.8308 62.6592 75.7459 62.7013 75.6571 62.7345L72.9611 63.7431L72.9804 63.7357C72.9124 63.7623 72.8832 63.7792 72.8807 63.7807L72.8809 63.7806C72.8624 63.7917 72.9874 63.7245 73.0937 63.5362C73.1671 63.4064 73.2052 63.2053 73.1245 63.0368C73.2088 63.2129 73.282 63.3635 73.3531 63.5098L73.3531 63.5098C73.4091 63.6249 73.4622 63.7343 73.5096 63.8332L73.5095 63.8331C73.6072 64.037 73.7137 64.2644 73.7795 64.4573L73.7795 64.4574C73.8069 64.5376 73.848 64.6698 73.8661 64.8253C73.8963 65.0848 73.9276 65.3769 73.9214 65.6171L73.9214 65.6171C73.9258 65.4455 74.0302 66.7702 72.8022 67.0532L73.359 66.7851C71.73 68.091 69.7864 68.4752 67.6891 67.9638C66.9635 67.7868 66.5273 67.0886 66.7149 66.4043C66.9025 65.7199 67.6429 65.3086 68.3685 65.4855C69.6554 65.7993 70.6795 65.5735 71.6011 64.8347C71.7621 64.7057 71.9527 64.6139 72.1579 64.5666C71.0421 64.8238 71.1967 66 71.2081 65.5553L71.208 65.5554C71.2091 65.5148 71.2017 65.3931 71.1682 65.105C71.1791 65.1991 71.2004 65.2548 71.1957 65.241L71.1957 65.241C71.1846 65.2085 71.1439 65.1121 71.0359 64.8867L71.0359 64.8865C70.9921 64.7951 70.9429 64.694 70.8857 64.5762L70.8858 64.5763C70.8137 64.428 70.7399 64.2762 70.6508 64.0902L70.6509 64.0903C70.305 63.3679 70.4779 62.7228 70.6984 62.3325L70.6984 62.3325C70.8909 61.9917 71.1808 61.7673 71.42 61.6232L71.4202 61.6231C71.5844 61.5243 71.7609 61.4415 71.941 61.371C71.9475 61.3686 71.9539 61.3661 71.9604 61.3637L74.6563 60.3551L74.4031 60.4804C74.8229 60.2161 75.0724 59.9859 75.2114 59.8084L75.2115 59.8083C75.1475 59.89 75.1405 59.9438 75.1405 59.9438C75.1405 59.9442 75.1423 59.9301 75.1387 59.8997C75.085 59.4485 75.1423 59.0264 75.2806 58.6427L75.2806 58.6427C75.6634 57.5808 76.6508 56.9206 77.0477 56.6363C77.2459 56.4943 77.3152 56.4417 77.3447 56.4141L77.3446 56.4142C77.3761 56.3847 77.2431 56.4919 77.1614 56.7187L77.1617 56.7177C77.153 56.742 77.1479 56.7587 77.1466 56.763L77.1465 56.7634C77.1449 56.7688 77.144 56.772 77.144 56.7722L77.144 56.7721C77.1724 56.6685 77.259 56.2541 77.3926 55.6083C77.6405 54.4107 78.023 52.5564 78.3079 51.6115L78.3078 51.6116C78.2811 51.7004 78.2795 51.7544 78.2806 51.7398L78.2806 51.7398C78.2928 51.5692 78.2163 51.1511 78.1387 51.0199L78.1406 51.023L78.1373 51.0176L78.1387 51.0199C77.6543 50.2098 74.9745 48.4507 72.1893 47.7274L72.1887 47.7273C72.1614 47.7201 72.1354 47.7129 72.1087 47.7051L72.1093 47.7054C71.3674 47.4888 70.5528 46.8868 69.8362 46.36L69.8362 46.3601C69.5461 46.1468 69.3281 45.8774 69.1723 45.5814L69.1723 45.5815C68.9863 45.228 68.8885 44.8374 68.8448 44.4391C68.7683 43.7423 68.7351 43.0918 68.8293 42.6099L68.8293 42.6099C68.8579 42.4635 69.0079 41.6411 69.8689 41.3473L69.8687 41.3473C69.9951 41.3042 70.0144 41.2976 70.1394 41.2548L70.1395 41.2547C71.5199 40.7822 73.1783 40.1678 74.5022 40.3881L74.5022 40.3881C77.4432 40.8776 80.3365 41.1496 83.3424 40.7778L83.1501 40.8151L84.314 40.5051L84.1695 40.5521L88.8466 38.7494L88.762 38.7853C88.6889 38.8191 88.6526 38.847 88.6606 38.8412L88.6604 38.8413C88.953 38.6313 89.7918 37.6222 89.9453 37.3092L89.9453 37.3092C89.9649 37.2692 89.8988 37.3824 89.8793 37.573C89.9512 36.8695 90.6142 36.354 91.3602 36.4218C92.1063 36.4895 92.6529 37.1148 92.581 37.8184Z" fill="#C1E3FE"/>
<path d="M68.0174 67.69C67.8202 67.647 67.511 67.7458 67.0898 67.9862L67.1785 67.931C66.9311 68.0985 66.7273 68.3216 66.5673 68.6004L66.63 68.4754L64.9915 72.2543L65.0883 71.6694C65.1348 72.2268 65.0161 73.0204 64.7322 74.0502L64.7737 73.8003C64.7519 74.1642 64.7979 74.4874 64.9118 74.7699L64.86 74.6577C65.3063 75.509 65.8154 76.1594 66.3875 76.6087L66.1341 76.4513C66.2005 76.4831 66.2888 76.5109 66.3991 76.5345L66.2976 76.5165L69.0151 76.8978C69.07 76.9054 69.1243 76.9163 69.1777 76.9303C70.5166 77.28 71.4172 77.5962 71.8797 77.8789L71.8795 77.8788C72.0623 77.9905 72.2143 78.1139 72.3355 78.2491C72.3421 78.2564 72.3483 78.2634 72.3546 78.2709L75.3365 81.7486L75.1618 81.5795C76.0432 82.2882 76.6308 82.6835 76.9244 82.7654L76.9243 82.7654C76.8805 82.7532 76.8209 82.7488 76.7455 82.7522C76.8709 82.7465 76.9965 82.7573 77.1188 82.7842C76.9074 82.7377 76.6954 82.77 76.4828 82.8809L76.0937 83.1856C76.5878 82.6215 77.2763 82.2077 78.1593 81.9444L77.8869 82.0579C77.8229 82.093 77.777 82.127 77.7493 82.1598L77.7493 82.1598C77.7637 82.1427 77.7833 82.1117 77.808 82.0668L77.7942 82.0927C77.8316 82.0207 77.8549 81.9689 77.8641 81.9374C77.8531 81.9753 77.8487 82.0268 77.851 82.0918L77.858 82.1863C77.6588 80.4428 77.6622 79.2442 77.8682 78.5907L77.8682 78.5907C77.8751 78.5687 77.8823 78.5471 77.8897 78.5257C77.9313 78.4058 77.9916 78.2923 78.0685 78.1889C78.3385 77.8259 78.6946 77.0313 79.1367 75.8049C79.2008 75.6272 79.3055 75.465 79.4435 75.3297C80.2172 74.571 80.6554 74.06 80.7581 73.7967C80.7451 73.83 80.7369 73.8763 80.7334 73.9357C80.7393 73.8347 80.7579 73.7348 80.7887 73.638C80.9932 72.9959 81.0745 72.5729 81.0327 72.3692L81.0327 72.3693C81.0329 72.3701 81.0332 72.3714 81.0337 72.373C80.8943 71.8405 81.1303 71.2834 81.6204 70.988C82.1105 70.6925 82.7457 70.7246 83.1996 71.0675L83.1998 71.0676C82.5007 70.5393 81.87 70.6066 81.3075 71.2695L81.3083 71.2685C81.0361 71.5887 80.9458 71.9235 81.0372 72.2729L81.0372 72.273C80.9774 72.0443 80.6633 71.2442 80.095 69.8729C80.0586 69.785 80.0326 69.6936 80.0175 69.6004L80.0175 69.6004C79.8928 68.8308 80.258 68.2691 81.1133 67.9155L81.1134 67.9154C81.1975 67.8806 81.2874 67.8483 81.3832 67.8184C82.0946 67.596 82.8625 67.9596 83.0983 68.6306C83.3341 69.3015 82.9485 70.0258 82.2371 70.2481C82.2213 70.2531 82.2099 70.257 82.203 70.2599L82.2031 70.2598C82.6199 70.0875 82.7857 69.7387 82.7005 69.2136L82.623 68.9411C83.2343 70.4164 83.5841 71.3225 83.6723 71.6595L83.6723 71.6595C83.7951 72.1287 83.7129 72.5322 83.4258 72.8698L83.4267 72.8688C82.8579 73.5393 82.2165 73.6047 81.5026 73.0652L83.6688 71.7598C83.6793 71.8001 83.6889 71.8411 83.6974 71.8828L83.6975 71.8829C83.8239 72.4992 83.7208 73.3296 83.3882 74.3742L83.4435 74.0765C83.432 74.2725 83.386 74.4739 83.3053 74.6807C83.0715 75.2797 82.4364 76.0875 81.3997 77.104L81.7064 76.6289C81.181 78.0864 80.7089 79.0965 80.2903 79.6592L80.469 79.3224C80.4694 79.3214 80.4696 79.3207 80.4698 79.3202L80.4698 79.3201C80.3673 79.6452 80.3963 80.5092 80.5566 81.9121C80.5602 81.9435 80.5625 81.975 80.5636 82.0066C80.5705 82.2011 80.5429 82.4046 80.4808 82.6173C80.4265 82.8031 80.3433 83.0039 80.2312 83.2195C80.2267 83.2282 80.222 83.2368 80.2173 83.2454C80.1119 83.4372 79.9974 83.6063 79.8739 83.7528L79.8739 83.7527C79.6891 83.972 79.4811 84.1449 79.2499 84.2715C79.1638 84.3187 79.0725 84.3568 78.9776 84.3851C78.604 84.4965 78.3402 84.6401 78.1863 84.8158C78.078 84.9395 77.946 85.0428 77.7972 85.1205C77.4006 85.3275 76.969 85.3797 76.5023 85.2771L76.8756 85.309C76.6452 85.3194 76.4051 85.2898 76.1553 85.2202L76.1552 85.2202C75.4929 85.0357 74.5748 84.4714 73.4008 83.5274C73.3371 83.4762 73.2786 83.4195 73.226 83.3582L70.2441 79.8804L70.2633 79.9022C70.3149 79.9598 70.3617 80.0014 70.4035 80.027L70.4034 80.0269C70.1743 79.8869 69.5243 79.677 68.4533 79.3972L68.6158 79.4297L65.8983 79.0484C65.8642 79.0437 65.8304 79.0377 65.7967 79.0304C65.4677 78.9598 65.1701 78.8606 64.9039 78.733C64.8135 78.6897 64.7285 78.6369 64.6506 78.5756C63.7841 77.8951 63.0429 76.9673 62.4269 75.7921C62.4077 75.7556 62.3904 75.7181 62.375 75.68C62.124 75.0576 62.0203 74.3828 62.0639 73.6558C62.0689 73.5714 62.0828 73.4877 62.1054 73.4059C62.3128 72.6538 62.4052 72.1419 62.3825 71.8703C62.3658 71.6709 62.399 71.4705 62.4793 71.2854L64.1178 67.5065C64.1363 67.4638 64.1572 67.4221 64.1805 67.3816C64.5387 66.7577 65.0105 66.2477 65.5959 65.8514C65.6247 65.832 65.6543 65.8135 65.6846 65.7962C66.7341 65.1972 67.7154 64.9971 68.6283 65.1959C69.3585 65.355 69.8138 66.0423 69.6451 66.731C69.4765 67.4197 68.7477 67.8491 68.0174 67.69Z" fill="#C1E3FE"/>
<path d="M83.4764 68.7547L83.4764 68.755C83.4764 68.7555 83.4764 68.7563 83.4764 68.7563L83.4764 68.756C83.4763 68.7946 83.4815 68.3912 83.0284 68.1407L83.0318 68.1425L86.7388 70.2063L86.5965 70.1375L89.6458 71.4058L89.5413 71.3672C88.788 71.1217 88.7028 71.6444 88.7039 71.6417L88.7032 71.6435C88.7006 71.6507 88.6982 71.6576 88.6984 71.6568L88.6407 71.9024L88.7748 70.8508C88.8089 70.5828 88.9321 70.3319 89.1266 70.1338C89.2256 70.033 89.3335 69.9294 89.4418 69.8401L89.442 69.84C89.5142 69.7805 89.6739 69.6527 89.8886 69.5599L89.8642 69.5707L91.2621 68.9347L91.1467 68.9939C91.0012 69.0773 90.9309 69.1615 90.9509 69.14L90.9509 69.1401C90.9811 69.1075 91.043 69.0282 91.2073 68.8096L91.2073 68.8096C91.3072 68.6767 91.4316 68.511 91.5772 68.3254L91.5772 68.3254C91.5092 68.4122 91.4948 68.4758 91.4953 68.4734L91.4953 68.4734C91.5052 68.4316 91.5331 68.1654 91.3557 67.5384C91.2755 67.2549 91.2063 67.1364 91.1873 67.1116L91.1873 67.1115C91.1853 67.1089 91.2665 67.2139 91.4568 67.2672C89.1636 66.6246 86.6106 65.6992 85.7066 64.4583L85.7067 64.4584C85.6148 64.3323 85.5293 64.1909 85.4602 64.033L85.4601 64.0329C85.216 63.4754 85.7652 61.6014 85.645 62.0878C85.6748 61.9672 85.7231 61.8512 85.7882 61.7436C85.8043 61.7171 85.8247 61.6858 85.8207 61.6921L85.8174 61.6971C85.8214 61.691 85.8301 61.6777 85.8264 61.6834L85.8243 61.6865C85.9711 61.462 86.5989 60.5786 87.8402 59.985L87.8402 59.985C88.9768 59.4415 89.8503 59.197 90.3641 59.1253C90.6167 59.0901 90.8748 59.1228 91.1086 59.2197C92.2975 59.7125 93.3846 60.4168 94.3705 61.3159L93.534 60.96C94.1757 61.0078 96.2308 61.0712 96.6441 61.0183L96.644 61.0183C96.8938 60.9862 96.3764 60.9874 95.9949 61.3537C96.5202 60.8494 97.3794 60.8422 97.9141 61.3376C98.4487 61.833 98.4563 62.6433 97.9311 63.1475C97.5191 63.543 96.9066 63.568 97.0099 63.5547L97.0098 63.5547C96.2616 63.6506 93.917 63.5563 93.3203 63.5119C93.0061 63.4885 92.7104 63.3626 92.4838 63.156C91.7083 62.4488 90.8857 61.9234 90.0166 61.5632L90.761 61.6576C90.6166 61.6777 90.0273 61.8092 89.0676 62.2681L89.0676 62.2681C88.4508 62.563 88.149 63.008 88.1346 63.03L88.1325 63.0331C88.1306 63.0361 88.132 63.034 88.1379 63.0249L88.1346 63.0299C88.131 63.0355 88.1359 63.0283 88.1451 63.013L88.2884 62.6687C88.1682 63.1551 88.1671 63.5087 87.9688 63.0558L87.9687 63.0556C87.9547 63.0238 87.943 63.0078 87.9436 63.0086L87.9437 63.0087C88.1991 63.3593 89.6681 64.0956 92.2298 64.8134C92.773 64.9657 93.1456 65.2972 93.3864 65.6113L93.3864 65.6112C93.6964 66.0155 93.8689 66.4926 93.9781 66.8785C94.1962 67.6492 94.2954 68.3909 94.1447 69.0295C94.0802 69.3026 93.9627 69.5882 93.7596 69.8472L93.7596 69.8473C93.6317 70.0103 93.5222 70.1559 93.4216 70.2898L93.4216 70.2899C93.2966 70.4562 93.1377 70.6706 92.9914 70.8279L92.9914 70.828C92.9209 70.9037 92.7721 71.0575 92.5568 71.181C92.5194 71.2025 92.4809 71.2222 92.4415 71.2402L91.0436 71.8762C91.0355 71.8799 91.0275 71.8834 91.0193 71.887C91.1736 71.8203 91.254 71.746 91.2277 71.7677L91.2279 71.7676C91.2209 71.7733 91.1864 71.8035 91.1177 71.8733L91.4695 71.1563L91.3355 72.2079C91.3249 72.2914 91.3055 72.3736 91.2778 72.4535C91.2771 72.4555 91.2735 72.4657 91.2699 72.4757L91.2692 72.4776C91.1122 72.9061 90.121 74.2643 88.655 73.7866C88.6196 73.7751 88.5848 73.7622 88.5505 73.7479L85.5012 72.4795C85.4524 72.4592 85.4049 72.4362 85.359 72.4106L81.6521 70.3468L81.6554 70.3487C80.9046 69.9335 80.7614 69.2031 80.7622 68.7519L80.7622 68.7516C80.7623 68.731 80.7626 68.7097 80.7631 68.6892C80.7822 67.9827 81.4051 67.4246 82.1544 67.4426C82.9036 67.4606 83.4955 68.0481 83.4764 68.7547Z" fill="#C1E3FE"/>
<path d="M35.4577 26.1391L35.1417 25.9909L35.1416 25.9909L35.4574 26.1389C35.2858 26.0737 35.112 25.9917 34.9359 25.8931L34.9363 25.8933C34.8046 25.8197 34.6693 25.7353 34.5302 25.6402C34.5253 25.6369 34.5207 25.6337 34.5158 25.6303L30.1467 22.5943L30.1912 22.6245C30.0845 22.554 30.0132 22.5082 29.9776 22.4871C30.041 22.5246 30.1201 22.5623 30.2148 22.6002C30.1831 22.5875 30.1515 22.5741 30.1204 22.56L29.5609 22.2015L29.5608 22.2014L30.1221 22.5608C30.4977 22.7302 30.8913 22.7836 31.303 22.721C30.0679 22.9087 28.9054 22.1165 28.7064 20.9517C28.5074 19.7869 29.3474 18.6905 30.5825 18.5029C31.1027 18.4238 31.6007 18.4916 32.0766 18.7063L32.6379 19.0656L32.638 19.0657L31.9841 18.6669C32.1107 18.7176 32.2443 18.7845 32.3848 18.8676C32.4849 18.9268 32.6198 19.0124 32.7894 19.1244C32.8043 19.1343 32.8192 19.1443 32.8339 19.1546L37.203 22.1905L37.1886 22.1806C37.2156 22.1991 37.2356 22.212 37.2485 22.2192L37.2489 22.2194C37.2266 22.2069 37.1943 22.1926 37.1519 22.1765L37.4677 22.3245L37.4678 22.3246C38.3121 22.6177 38.8734 23.8624 38.4056 24.9566C37.9378 26.0509 36.618 26.5803 35.4577 26.1391Z" fill="#C1E3FE"/>
<path d="M24.2333 68.9589C25.9047 68.49 26.9681 68.9772 27.4234 70.4207L27.4234 70.4206C27.6413 71.1112 27.5107 71.8043 27.0318 72.5C26.9296 72.6484 26.8082 72.7843 26.6705 72.9045C24.9524 74.4039 23.9582 75.3373 23.6879 75.7045L23.688 75.7044C23.8972 75.4201 23.9852 75.0549 23.9521 74.6088C23.9832 75.028 23.8826 75.4466 23.6628 75.8121C23.2334 76.5261 22.9402 77.3894 22.7833 78.402L22.807 78.1119C22.7951 79.3898 23.187 80.067 23.9827 80.1434C24.038 80.1487 24.0931 80.1559 24.1479 80.165C29.7661 81.1026 37.4102 79.0309 47.0804 73.95C47.1293 73.9242 47.1793 73.9002 47.2301 73.878C52.5315 71.5602 61.0064 66.7797 72.6548 59.5367L72.6199 59.5589C74.3664 58.4285 79.653 56.0067 88.4798 52.2936L88.2587 52.4007C90.6214 51.0972 92.4611 49.8548 93.7776 48.6735L93.7566 48.6926L103.529 39.6951L103.362 39.8668C104.251 38.8472 104.726 38.1404 104.788 37.7464V37.7464C104.769 37.8641 104.803 38.0056 104.887 38.171C104.81 38.0201 104.752 37.8612 104.714 37.6975C104.525 36.8808 104.02 36.4825 103.199 36.5025L103.548 36.4684C100.372 37.0161 97.1191 38.1088 93.7883 39.7465C92.679 40.2919 91.3109 39.886 90.7326 38.8398C90.1543 37.7936 90.5847 36.5033 91.694 35.9579C95.4291 34.1214 99.1087 32.8906 102.733 32.2655C102.848 32.2456 102.965 32.2342 103.082 32.2313C106.399 32.1505 108.418 33.6687 109.14 36.786L108.967 36.3125C109.285 36.9344 109.386 37.6192 109.27 38.3667C109.087 39.5445 108.284 40.9492 106.861 42.5807C106.809 42.6408 106.753 42.6981 106.694 42.7524L96.9212 51.75C96.9143 51.7563 96.9072 51.7628 96.9002 51.7691C95.3296 53.1783 93.2116 54.6181 90.5462 56.0886C90.4747 56.1281 90.4009 56.1638 90.3252 56.1957C81.75 59.803 76.7027 62.0983 75.1833 63.0817C75.1718 63.0891 75.16 63.0966 75.1484 63.1038C63.3121 70.4637 54.6411 75.3472 49.1355 77.7544L49.2852 77.6824C38.6767 83.2564 30.0345 85.4863 23.3586 84.3723L23.5239 84.3939C19.9898 84.0547 18.2408 81.9481 18.2769 78.0743C18.2778 77.9772 18.2857 77.8802 18.3006 77.7841C18.5395 76.2429 19.0134 74.8829 19.7222 73.7042L19.4329 74.9075C19.3918 74.3537 19.5696 73.8073 19.9664 73.2681L19.9665 73.268C20.4247 72.6455 21.6337 71.479 23.5936 69.7686L23.2323 70.1731C22.9518 70.5805 22.9015 71.0691 23.0813 71.639C23.4871 72.9257 24.3017 73.3974 25.525 73.0541C24.326 73.3906 23.0648 72.7465 22.7081 71.6157C22.3513 70.4849 23.0342 69.2954 24.2333 68.9589Z" fill="#C1E3FE"/>
<path d="M89.4092 21.0309L89.4091 21.031C89.442 21.0061 89.4641 20.9867 89.4756 20.9728C89.4743 20.9743 89.4727 20.9765 89.4707 20.9795L89.3258 21.2268C89.8361 20.2011 90.6692 18.8281 91.825 17.1077L91.7119 17.2966C91.7712 17.1847 91.8452 17.0673 91.934 16.9443L91.934 16.9443C92.1274 16.6765 92.5159 16.221 93.0998 15.578L92.992 15.7063L93.4266 15.1459C93.4318 15.1393 93.437 15.1327 93.4422 15.1261C93.8031 14.6718 94.2507 14.3591 94.7848 14.1881C95.9694 13.8089 97.2557 14.4072 97.6578 15.5245C98.0599 16.6417 97.4255 17.8548 96.2408 18.234C96.5923 18.1215 96.8679 17.9395 97.0677 17.688L97.0832 17.6682L96.6486 18.2286C96.6145 18.2727 96.5786 18.3155 96.5409 18.3569C96.0655 18.8806 95.778 19.2113 95.6786 19.3491L95.6786 19.349C95.7044 19.3133 95.7332 19.2655 95.7649 19.2056C95.7307 19.2701 95.6929 19.3333 95.6518 19.3945C94.598 20.9631 93.8564 22.1789 93.4269 23.0419C93.3845 23.1272 93.336 23.2099 93.282 23.2892C93.2101 23.3947 93.1328 23.4976 93.05 23.5979C92.8222 23.8738 92.5546 24.1282 92.2473 24.3611C91.2722 25.1003 89.8464 24.954 89.0627 24.0344C88.2789 23.1148 88.4341 21.7701 89.4092 21.0309Z" fill="#C1E3FE"/>
<path d="M14.3905 53.424L14.0115 53.3386C13.9541 53.3257 13.8972 53.3106 13.841 53.2934C13.5049 53.1909 13.2865 53.1349 13.1866 53.1111L13.1887 53.1115C13.1929 53.1126 13.1867 53.1111 13.1894 53.1117L13.188 53.1114C13.166 53.1063 13.0121 53.0742 12.7098 53.0363L12.71 53.0363C12.6603 53.0301 12.6005 53.0258 12.5224 53.0237L12.636 53.024L11.8963 53.039C11.8465 53.04 11.7966 53.0394 11.7468 53.0373C10.9217 53.0026 10.7828 52.9956 10.7023 52.9881L10.7022 52.988C10.3399 52.9541 8.60573 52.7721 7.45973 52.6518L7.45976 52.6518C6.87262 52.5902 6.4532 52.5462 6.39145 52.5402L6.38632 52.5396C6.33198 52.5342 6.40025 52.541 6.40012 52.5409L6.51196 52.5486C6.55527 52.5506 6.41433 52.5472 6.26202 52.5242C6.21642 52.5173 6.44519 52.5451 6.39921 52.5409L6.39911 52.5408C6.26733 52.5287 6.14601 52.5184 6.08031 52.5129L6.08087 52.5129C6.05365 52.5106 5.99926 52.506 5.97455 52.5037L5.83777 52.487L5.83737 52.487L5.97557 52.5038C6.00526 52.5065 5.87163 52.4962 5.74043 52.4724L5.74096 52.4725C5.73927 52.4722 5.73456 52.4714 5.71102 52.4678L5.7066 52.4671L5.68607 52.4639L5.68102 52.4631C5.66573 52.4607 5.63147 52.4552 5.5981 52.4491L5.60727 52.4507C5.57757 52.4454 5.51021 52.433 5.42967 52.4128C5.40237 52.406 5.37502 52.3986 5.34801 52.3908L5.18969 52.345L5.46254 52.4067C5.34989 52.3881 5.23329 52.3659 5.11528 52.3387L5.11473 52.3386C5.08001 52.3305 5.04857 52.3229 5.01005 52.3131C3.80284 52.0037 3.09015 50.8299 3.41822 49.6913C3.74629 48.5528 4.99088 47.8806 6.19808 48.19C6.19375 48.189 6.19122 48.1884 6.19301 48.1888L6.19245 48.1886C6.19335 48.1889 6.20961 48.1925 6.2438 48.1982C6.33614 48.2134 6.42721 48.234 6.51665 48.2598L6.67499 48.3056L6.59331 48.2835C6.5216 48.2656 6.46898 48.2562 6.452 48.2531L6.46117 48.2548C6.44033 48.2509 6.42507 48.2486 6.42607 48.2487L6.42104 48.2479L6.44155 48.2511L6.43711 48.2504C6.46351 48.2545 6.52449 48.2638 6.59578 48.2767L6.59632 48.2768C6.47203 48.2542 6.35724 48.246 6.41514 48.2513L6.55333 48.2681L6.55373 48.2682L6.41694 48.2515C6.41915 48.2517 6.44536 48.254 6.48318 48.2572L6.48372 48.2573C6.55762 48.2635 6.68442 48.2742 6.8409 48.2887L6.97798 48.3053C6.82764 48.2826 6.68411 48.2789 6.72955 48.281L6.8414 48.2887C6.85063 48.2895 6.90967 48.2955 6.8662 48.2911L6.86107 48.2906C6.94544 48.2989 7.38843 48.3454 7.96072 48.4054C9.13054 48.5282 10.825 48.706 11.1501 48.7364L11.1499 48.7364C11.0693 48.7288 11.0143 48.7297 11.9488 48.769L11.7993 48.7674L12.5389 48.7524C12.5767 48.7517 12.6148 48.7518 12.6526 48.7528C12.8358 48.7578 13.0594 48.77 13.3067 48.8009L13.3069 48.801C13.72 48.8528 14.0409 48.9096 14.2638 48.961L14.2624 48.9607C14.2662 48.9616 14.2915 48.9675 14.2958 48.9685L14.2978 48.969C14.502 49.0177 14.815 49.1001 15.2352 49.2282L15.0647 49.1831L15.4436 49.2685C16.6604 49.5428 17.411 50.6954 17.1201 51.8429C16.8293 52.9904 15.6072 53.6983 14.3905 53.424Z" fill="#C1E3FE"/>
<path d="M34.1268 96.5862C33.9053 97.0664 33.7391 97.4043 33.6281 97.5998L33.6281 97.5998C33.5181 97.7937 33.3993 97.9595 33.2717 98.0973L33.5955 95.7441C33.9731 96.4632 33.9214 97.1834 33.4406 97.9047C33.3256 98.0773 33.0639 98.4331 32.6554 98.9723L32.7151 98.8894C32.6044 99.051 32.5018 99.2134 32.4074 99.3764C31.9095 100.236 30.856 100.665 29.8511 100.42C28.8461 100.174 28.147 99.3152 28.1546 98.3361L28.1546 98.3364C28.1437 99.7639 28.8959 100.48 30.4112 100.484L30.4015 100.484C31.348 100.491 32.0178 100.115 32.411 99.3551L32.411 99.3549C32.3409 99.4904 32.1334 99.948 31.7886 100.728C31.7854 100.735 31.7823 100.742 31.7791 100.749L31.779 100.749C31.755 100.802 31.7272 100.858 31.6956 100.917C31.6405 101.021 31.5598 101.162 31.4534 101.339C31.4438 101.355 31.4339 101.371 31.4238 101.386L31.3234 101.53L31.3233 101.531L31.4238 101.387C31.2508 101.658 31.0755 101.893 30.8979 102.094L30.898 102.094C30.6957 102.322 30.4817 102.514 30.2561 102.67C29.2471 103.367 27.8297 103.161 27.0902 102.21C26.3506 101.258 26.5691 99.9211 27.5781 99.2236C27.5077 99.2723 27.4559 99.3153 27.4228 99.3527L27.4229 99.3526C27.45 99.322 27.4896 99.2658 27.5419 99.1839L27.6424 99.0399L27.6425 99.0398L27.5124 99.2315C27.5798 99.1194 27.6233 99.0449 27.6429 99.0078C27.6359 99.0211 27.6273 99.0388 27.6172 99.061L27.6076 99.0825C27.9867 98.2255 28.2308 97.6916 28.3399 97.4808L28.3399 97.4806C28.7812 96.6281 29.4796 96.2052 30.435 96.2119L30.4253 96.2118C31.9426 96.2163 32.6958 96.9348 32.6848 98.3672L28.4321 97.3273C28.5796 97.0727 28.7388 96.8207 28.9097 96.5711C28.9289 96.5431 28.9488 96.5154 28.9694 96.4882C29.3259 96.0178 29.5378 95.732 29.6052 95.6308C29.1859 96.2599 29.1627 96.9297 29.5357 97.64C29.1293 96.8666 29.2569 95.9376 29.8595 95.2868C29.7611 95.393 29.6859 95.492 29.6339 95.5838L29.6339 95.5837C29.687 95.4902 29.7998 95.2562 29.9725 94.8819C30.4715 93.7999 31.806 93.3044 32.9532 93.775C34.1003 94.2457 34.6258 95.5042 34.1268 96.5862Z" fill="#C1E3FE"/>
<path d="M97.8814 93.5448C98.3503 93.85 98.7193 94.1299 98.9885 94.3843L98.9884 94.3842C99.0658 94.4574 99.1375 94.5305 99.2037 94.6037L99.1527 94.5492L101.825 97.3104L101.711 97.2008C101.857 97.3311 102.035 97.4581 102.246 97.5821C102.417 97.6829 102.573 97.8047 102.71 97.9445L102.71 97.9445C102.821 98.0584 102.905 98.1324 102.962 98.1667L102.961 98.1662C102.961 98.1662 102.962 98.1663 102.962 98.1667C104.03 98.7819 104.366 100.097 103.714 101.104C103.061 102.11 101.667 102.428 100.6 101.812C100.573 101.797 100.546 101.781 100.519 101.765L100.518 101.764C100.135 101.533 99.7565 101.226 99.3822 100.844L99.8464 101.206C99.3776 100.93 98.9599 100.628 98.5934 100.3C98.5541 100.265 98.5161 100.229 98.4795 100.191L95.8069 97.4298C95.7896 97.4119 95.7727 97.3939 95.756 97.3754C95.7668 97.3873 95.7754 97.3963 95.7817 97.4023L95.7817 97.4023C95.7074 97.3321 95.5494 97.2183 95.3075 97.0608C94.278 96.3904 94.0196 95.0599 94.7304 94.089C95.4412 93.1181 96.8519 92.8744 97.8814 93.5448Z" fill="#C1E3FE"/>
<path d="M111.776 59.946L111.777 59.9459C111.958 59.8873 112.153 59.8409 112.362 59.8066L112.363 59.8066C112.741 59.7448 113.197 59.7193 113.732 59.7302C113.762 59.7309 113.791 59.732 113.821 59.7337C114.09 59.7492 114.327 59.7681 114.534 59.7905C114.556 59.7928 114.577 59.7954 114.598 59.7983C114.743 59.8179 115.216 59.8719 116.016 59.9604L115.964 59.9552C115.999 59.9583 116.036 59.962 116.074 59.9664L116.074 59.9665C116.256 59.9875 116.527 60.0313 116.887 60.0977L116.799 60.0831C116.823 60.0867 116.851 60.0899 116.882 60.0927L116.848 60.0898C116.867 60.0913 116.881 60.0922 116.889 60.0924L116.889 60.0924C116.874 60.092 116.853 60.0927 116.827 60.0944L116.704 60.1055L117.278 60.0388C117.37 60.0281 117.463 60.0227 117.556 60.0227C118.12 60.0229 118.617 60.1558 119.045 60.4213C120.091 61.0691 120.382 62.3936 119.695 63.3798C119.008 64.3659 117.604 64.6402 116.558 63.9925C116.884 64.1943 117.216 64.2952 117.554 64.2953L117.832 64.2793L117.258 64.346C117.217 64.3508 117.176 64.3544 117.135 64.357C117.021 64.3645 116.9 64.3666 116.774 64.3635L116.774 64.3636C116.679 64.3613 116.579 64.3561 116.475 64.3479C116.463 64.3471 116.452 64.3461 116.441 64.345C116.325 64.3343 116.213 64.3211 116.105 64.3053C116.076 64.301 116.046 64.2961 116.017 64.2907C115.763 64.2438 115.598 64.216 115.523 64.2073L115.523 64.2074C115.528 64.2079 115.534 64.2085 115.541 64.2091C115.522 64.2074 115.506 64.2058 115.489 64.2039C114.648 64.111 114.137 64.0522 113.954 64.0274L114.018 64.0352C113.891 64.0215 113.733 64.0092 113.545 63.9984L113.634 64.0018C113.392 63.9969 113.226 64.0018 113.136 64.0165L113.136 64.0164C113.164 64.0119 113.2 64.0023 113.246 63.9874C112.063 64.3702 110.775 63.7759 110.369 62.6599C109.963 61.544 110.593 60.3289 111.776 59.946Z" fill="#C1E3FE"/>
<path d="M69.956 49.936C69.3634 50.3729 69.1319 50.7082 69.0654 50.9205C69.0198 51.0663 69.0078 51.1238 69.0077 51.1709C69.0074 51.2776 69.0359 51.4515 69.0925 51.7659C69.159 52.135 69.2519 52.6404 69.2507 53.1556C69.2499 53.4791 69.2127 53.8309 69.0975 54.1801C68.7563 55.2141 67.6476 55.953 67.4086 56.1192L67.4088 56.1191C67.3747 56.1428 67.3641 56.1502 67.3574 56.1552L67.3565 56.1558C67.3551 56.1568 67.356 56.1562 67.3617 56.1519C67.3294 56.1765 67.2953 56.1987 67.2596 56.2184L66.0571 56.883L66.1161 56.8472C66.1461 56.8272 66.1621 56.8115 66.1601 56.8135L66.1598 56.8136C66.1527 56.8205 66.1387 56.8354 66.091 56.889L66.0908 56.8892C66.0727 56.9095 66.0667 56.9163 66.0457 56.9396C66.048 56.937 66.0486 56.9363 66.0489 56.9359L66.0487 56.9362C66.0235 56.9672 65.9012 57.1609 65.7867 57.6087C65.8464 57.3752 65.7151 57.2509 65.7347 57.2713L65.7347 57.2713C65.7352 57.2718 65.7366 57.2733 65.7407 57.2767C65.5748 57.1363 65.43 57.1679 65.4395 57.1661L65.4353 57.1669L65.4357 57.1668L65.4399 57.166C66.5027 56.9626 67.5513 56.8091 68.5835 56.7786L68.3174 56.8282C68.5763 56.7367 68.832 56.6577 69.0443 56.6266L69.0442 56.6266C69.1208 56.6154 69.3653 56.5792 69.6193 56.675L68.7106 56.8596C69.0551 56.522 69.603 56.273 70.1975 56.0679C70.2734 56.0418 70.3529 56.0261 70.4336 56.0216L71.885 55.9395L71.3877 56.1316L71.388 56.1313L71.3993 56.1221C71.7509 55.8433 71.8547 55.7117 71.8754 55.6669L71.8754 55.6668C71.8765 55.6645 71.8744 55.669 71.8755 55.6666L71.8753 55.667C72.0237 55.3389 72.0536 54.889 71.9079 54.2718C71.8879 54.1872 71.8829 54.1 71.8931 54.0138L71.8931 54.0138C71.8388 54.4713 72.2388 54.6943 72.1015 54.5892L72.1016 54.5892C72.044 54.5451 71.8351 54.4277 71.3658 54.2022L71.3659 54.2023C71.1508 54.099 70.9909 53.9524 70.874 53.8054C70.7477 53.6468 70.6603 53.474 70.5966 53.3167C70.5313 53.1553 70.5243 52.9781 70.5766 52.8126L70.5766 52.8125C70.5606 52.8635 70.5605 52.8943 70.5606 52.8898C70.5639 52.7875 70.4905 52.4189 70.2062 51.6599C70.1723 51.5694 70.1563 51.4738 70.159 51.3779C70.1685 51.0329 70.1923 50.7095 70.257 50.4749L70.257 50.475C70.2788 50.3957 70.3344 50.208 70.4852 50.0428L70.2941 50.431L70.2941 50.4309L70.2859 50.4975C70.2816 50.5529 70.2874 50.6375 70.3305 50.7317L70.4542 50.9216C70.0966 50.5154 69.7607 50.3153 69.4587 50.2356C69.0161 50.1188 68.7577 49.6857 68.8815 49.2682C69.0054 48.8507 69.4646 48.607 69.9072 48.7238C70.6183 48.9114 71.2238 49.3385 71.7348 49.9188C71.7854 49.9763 71.827 50.0403 71.8584 50.1088C71.9379 50.2822 71.958 50.4568 71.9459 50.6123L71.9377 50.679L71.9377 50.6791C71.9328 50.7804 71.8629 50.9398 71.7465 51.0672C71.8571 50.9461 71.8771 50.8365 71.868 50.8696L71.868 50.8697C71.8563 50.9119 71.8325 51.0725 71.8229 51.4189L71.7756 51.137C72.0443 51.8542 72.2385 52.4955 72.2243 52.9372C72.2214 53.03 72.2092 53.1428 72.1717 53.2613L72.1517 52.7571C72.1814 52.8305 72.2023 52.8594 72.2051 52.863C72.2055 52.8634 72.1801 52.8316 72.1213 52.8034L72.1213 52.8035C72.5437 53.0064 72.9281 53.2001 73.1508 53.3706L73.1509 53.3706C73.1458 53.3667 73.6089 53.67 73.5473 54.1886L73.5325 53.9306C73.7204 54.7261 73.7414 55.542 73.4064 56.2828L73.4062 56.2832C73.4041 56.2879 73.4037 56.2888 73.4015 56.2935L73.4015 56.2935C73.2049 56.7194 72.798 57.0639 72.4708 57.3235L72.4822 57.3142L72.4819 57.3145C72.3336 57.4323 72.1632 57.4964 71.9846 57.5065L70.5332 57.5886L70.7692 57.5423C70.2072 57.7361 69.973 57.8863 69.91 57.948C69.6752 58.1782 69.3158 58.2512 69.0013 58.1326C69.1995 58.2073 69.3521 58.1701 69.2998 58.1778L69.2997 58.1778C69.2683 58.1824 69.1488 58.2107 68.9016 58.2981C68.8164 58.3282 68.7265 58.345 68.6356 58.3477C67.7368 58.3742 66.7912 58.5092 65.7709 58.7044L65.775 58.7036L65.7745 58.7037L65.7703 58.7046C65.4223 58.7711 64.9722 58.7356 64.629 58.4451C64.5852 58.408 64.5433 58.369 64.5035 58.3277L64.5035 58.3277C64.2833 58.0995 64.049 57.7081 64.1686 57.2405C64.309 56.6917 64.5018 56.2599 64.7262 55.983L64.726 55.9833C64.7418 55.9637 64.7601 55.9422 64.7775 55.9229C64.793 55.9057 64.8 55.8978 64.8163 55.8795L64.8162 55.8797C64.8513 55.8402 64.9121 55.7711 64.9765 55.7097L64.9763 55.7099C65.0207 55.6675 65.0803 55.6152 65.1566 55.5645C65.1756 55.5518 65.1953 55.5398 65.2155 55.5286L66.4181 54.864L66.316 54.9306C66.3258 54.9231 66.3327 54.9181 66.3363 54.9154L66.3354 54.9161C66.3613 54.8971 66.396 54.873 66.4208 54.8557L66.421 54.8556C66.7533 54.6246 67.3566 54.1728 67.5082 53.7136C67.5602 53.556 67.5856 53.3691 67.5862 53.1519C67.5871 52.7924 67.5215 52.4177 67.4515 52.0287C67.4048 51.7693 67.3425 51.4398 67.3432 51.1672C67.3439 50.8694 67.4255 50.6152 67.4692 50.4758C67.6794 49.8045 68.2269 49.2182 68.931 48.6992C69.2931 48.4323 69.8162 48.4927 70.0992 48.8343C70.3822 49.1759 70.3181 49.6691 69.956 49.936Z" fill="#C1E3FE"/>
<path d="M65.3493 52.5129L65.3493 52.513C65.3434 52.5843 65.3557 52.6247 65.3535 52.616L65.3535 52.616C65.3244 52.5008 65.1375 52.2114 65.0416 52.1296L65.0415 52.1296C65.0351 52.1241 65.0625 52.1495 65.1208 52.1778L65.1205 52.1776C65.449 52.337 65.7375 52.1198 65.5683 52.213L65.5681 52.2131C65.5758 52.2089 65.4086 52.3113 65.2198 52.3501L65.2198 52.3501C65.3491 52.3236 65.4147 52.2704 65.3996 52.2811L65.3996 52.2811C65.3706 52.3019 65.2889 52.3763 65.1178 52.5652L65.1181 52.5648C65.227 52.4445 65.2735 52.3031 65.2462 52.3689L65.2461 52.3692C65.2456 52.3703 65.2436 52.3753 65.2391 52.3867L65.2391 52.3867C65.2057 52.4705 65.1367 52.6432 65.0008 52.8702C64.9267 52.9938 64.8492 53.1046 64.7925 53.186L64.7926 53.186C64.7366 53.2664 64.7024 53.3161 64.6761 53.36L64.6761 53.3599C64.6647 53.379 64.6578 53.392 64.6534 53.4011C64.5426 53.63 64.4932 53.7792 64.4716 53.8463C64.4668 53.8613 64.4344 53.9928 64.5764 54.3049C64.6127 54.3848 64.636 54.4188 64.6396 54.4238L64.6397 54.4238C64.6984 54.5021 64.413 54.0828 63.9018 54.2898L63.9014 54.2899C63.8463 54.3123 63.8022 54.3385 63.7688 54.3623C63.8429 54.3095 63.9257 54.2688 64.014 54.2418L64.0139 54.2418C63.8636 54.2878 63.8064 54.3538 63.8263 54.335L63.8266 54.3347C63.8262 54.3351 63.8288 54.3325 63.8325 54.3284L63.8325 54.3283C63.8752 54.2802 63.9112 54.2388 63.9541 54.1896L63.9541 54.1896C63.9932 54.1447 64.0299 54.1026 64.0703 54.0571L64.0702 54.0572C64.1602 53.9557 64.2651 53.8416 64.3811 53.7369L64.3806 53.7373C64.3916 53.7274 64.4075 53.7134 64.4208 53.7021L64.978 54.2851L64.4216 53.7015C64.4812 53.6509 64.5749 53.5784 64.7005 53.5177L64.7003 53.5177C64.9088 53.4169 65.0963 53.262 65.2642 53.0958C65.3684 52.9928 65.3853 52.8388 65.3943 52.8657C65.256 52.4523 65.4992 52.0114 65.9375 51.881C66.3758 51.7505 66.8433 51.9798 66.9816 52.3932C67.2548 53.2096 66.698 53.9525 66.469 54.179C66.2443 54.4012 65.907 54.6983 65.4599 54.9145L65.4598 54.9146C65.5111 54.8898 65.5374 54.8663 65.5345 54.8688L64.978 54.2851L65.5352 54.8682C65.5355 54.8679 65.5336 54.8696 65.5319 54.8711L65.5314 54.8715C65.4844 54.9139 65.4271 54.9739 65.3468 55.0644L65.3468 55.0645C65.3133 55.1022 65.2788 55.1418 65.2402 55.1861L65.2403 55.1861C65.1978 55.2349 65.158 55.2806 65.1091 55.3357L65.1091 55.3357C65.0762 55.3728 65.041 55.4092 65.007 55.4415L65.0073 55.4412C64.8953 55.5476 64.7314 55.6727 64.5273 55.7351L64.7724 55.6147C64.7124 55.6574 64.641 55.6988 64.5587 55.7321L64.5584 55.7323C63.8757 56.0087 63.4084 55.5006 63.2806 55.3301L63.2806 55.3301C63.1864 55.2045 63.1101 55.0631 63.0468 54.924C62.8121 54.4083 62.722 53.8806 62.8782 53.3927L62.8782 53.3927C62.9151 53.2773 62.9894 53.0586 63.1393 52.749C63.1678 52.6902 63.1976 52.6368 63.2269 52.5879L63.2269 52.5878C63.2857 52.4897 63.3519 52.3953 63.4013 52.3243L63.4014 52.3242C63.4615 52.2378 63.5089 52.1692 63.5516 52.098C63.6254 51.9747 63.6591 51.8894 63.6808 51.8349L63.6808 51.835C63.6844 51.826 63.6904 51.8108 63.696 51.7974L63.6958 51.7977C63.6808 51.834 63.736 51.674 63.8521 51.5458L63.8524 51.5453C64.0127 51.3685 64.2022 51.1671 64.395 51.0295C64.4883 50.9629 64.6503 50.8605 64.8653 50.8164C64.7363 50.8429 64.6409 50.9059 64.7293 50.8572L64.7291 50.8573C64.7523 50.8445 65.2859 50.4924 65.8822 50.7818L65.8819 50.7817C66.0006 50.8392 66.0941 50.9108 66.1583 50.9656L66.1582 50.9655C66.4847 51.244 66.8598 51.806 66.9726 52.2518L66.9726 52.2518C66.997 52.3484 67.0212 52.4833 67.0087 52.6345C66.9731 53.0667 66.5728 53.3898 66.1146 53.3562C65.6563 53.3227 65.3137 52.9451 65.3493 52.5129Z" fill="#C1E3FE"/>
</svg>
