<svg width="106" height="103" viewBox="0 0 106 103" fill="none" xmlns="http://www.w3.org/2000/svg">
<rect x="2.56055" y="0.853516" width="99.0096" height="99.0096" rx="49.5048" fill="#FFE485"/>
<path d="M78.167 53.3107C75.8661 67.3762 62.347 76.9536 47.9712 74.7024C33.5954 72.4512 23.8068 59.2239 26.1077 45.1584C28.4085 31.0929 41.9276 21.5155 56.3034 23.7667C70.6792 26.0178 80.4679 39.2451 78.167 53.3107ZM75.0897 52.8288C77.1185 40.426 68.4871 28.7626 55.8108 26.7775C43.1346 24.7925 31.2138 33.2376 29.1849 45.6403C27.1561 58.043 35.7875 69.7065 48.4637 71.6916C61.14 73.6766 73.0608 65.2315 75.0897 52.8288Z" fill="#05276C"/>
<path d="M46.2322 26.6572C46.7619 27.2805 47.1872 28.3777 47.669 29.5829L47.669 29.5827L47.7664 29.8264L47.7663 29.8262C47.7598 29.8099 47.7549 29.8021 47.7553 29.8027L47.7552 29.8026C47.8501 29.9566 48.382 30.3082 48.8005 30.4C48.8459 30.4099 48.8905 30.4233 48.9337 30.4399L49.5993 30.6946L49.5104 30.6656C49.6038 30.6909 49.6931 30.7064 49.7776 30.7141L49.7698 30.7134C49.6658 30.7048 49.8752 30.722 49.7707 30.7135L49.7793 30.7142C50.0465 30.7386 50.1812 30.7465 50.2142 30.7472L50.2144 30.7472C50.2301 30.7475 50.1894 30.7455 50.1315 30.7515L50.08 30.7584L50.0802 30.7583L50.1319 30.7515C50.7049 30.6918 51.2239 30.682 51.6868 30.6945L51.8062 30.7054L51.8063 30.7054L51.6873 30.6945C51.6823 30.6944 51.6771 30.6945 51.6781 30.6945L51.6783 30.6944C51.7424 30.6927 51.921 30.6628 52.3346 30.5713L52.3344 30.5714C52.5593 30.5216 52.7628 30.5402 52.9079 30.5659L52.9078 30.5658C52.9529 30.5738 52.995 30.5829 53.0351 30.5927L53.0351 30.5927C53.1875 30.6298 53.4693 30.7054 53.7764 30.9093L53.7763 30.9093C54.5308 31.4102 55.0922 31.7458 55.491 31.938L55.5567 31.9729L55.5568 31.973L55.491 31.938C55.5618 31.9721 55.7447 32.0418 56.0822 32.0913C56.123 32.0973 56.137 32.0933 56.1339 32.0939L56.1341 32.0939C56.1337 32.094 56.133 32.0942 56.1326 32.0943L56.1328 32.0943C56.5097 31.9582 56.8904 31.7457 57.3881 31.4642L57.388 31.4642C57.4589 31.4241 57.4926 31.405 57.5654 31.364L57.5655 31.364C58.0581 31.0867 58.5871 31.0553 58.8926 31.0379L58.8938 31.0379C58.9087 31.037 58.8874 31.0382 58.9052 31.0372L58.9038 31.0373C58.9169 31.0365 58.9094 31.037 58.9199 31.0364L58.9194 31.0364C58.956 31.0343 59.0148 31.031 59.0788 31.031L59.0784 31.031C59.1611 31.0309 59.2955 31.036 59.4456 31.0763L59.3483 31.0557L59.3484 31.0557L59.4455 31.0763C59.5648 31.1082 59.8909 31.1693 60.4607 31.2226C60.5644 31.2323 60.6656 31.2592 60.76 31.3022L60.7591 31.3018C60.7582 31.3014 60.7548 31.2999 60.7572 31.301L60.7574 31.3011C60.9231 31.3712 61.602 31.523 62.9889 31.756L62.9889 31.756C63.171 31.7866 63.233 31.7885 63.2549 31.7865L63.255 31.7864C63.2553 31.7864 63.2228 31.7894 63.1761 31.8118L63.1761 31.8118C64.3972 31.2259 65.0316 30.5009 65.2893 29.7789C65.456 29.312 65.9779 29.0657 66.4551 29.2287C66.9323 29.3917 67.184 29.9024 67.0174 30.3693C66.5618 31.6457 65.5155 32.684 63.982 33.4198L63.982 33.4198C63.7877 33.513 63.5951 33.554 63.4261 33.5695L63.4262 33.5695C63.1339 33.5964 62.8514 33.55 62.6791 33.5211C61.3976 33.3058 60.4482 33.1214 60.031 32.9449L60.0312 32.945C60.0167 32.9388 60.0047 32.9336 59.9882 32.9261L60.2866 33.0053C59.6803 32.9486 59.2319 32.8759 58.962 32.8035L59.0591 32.8241L59.059 32.8241L58.9616 32.8035C59.0359 32.8234 59.0859 32.8219 59.0788 32.8219L59.0784 32.8219C59.0741 32.8219 59.0637 32.8221 59.0258 32.8243L59.0253 32.8243C59.0198 32.8246 59.0166 32.8248 59.0135 32.825L59.0122 32.8251C59.0217 32.8245 58.9909 32.8262 58.9976 32.8259L58.9987 32.8258C58.6823 32.8438 58.5561 32.8725 58.4782 32.9163L58.4783 32.9163C58.4157 32.9515 58.3668 32.9792 58.3044 33.0145L58.3043 33.0146C57.8371 33.2789 57.3172 33.5757 56.7661 33.7746L56.7662 33.7745C56.6833 33.8044 56.5981 33.8286 56.5097 33.8467L56.5099 33.8467C56.278 33.8943 56.0434 33.8965 55.8112 33.8624C55.3296 33.7919 54.9576 33.6772 54.6827 33.5448L54.617 33.5098L54.6168 33.5097L54.6825 33.5447C54.1663 33.296 53.5194 32.903 52.7485 32.3912L52.7485 32.3911C52.7037 32.3614 52.6646 32.348 52.593 32.3306L52.593 32.3306C52.585 32.3286 52.5831 32.3283 52.5824 32.3282L52.5823 32.3282C52.5739 32.3267 52.6375 32.3404 52.7383 32.3181L52.7381 32.3181C52.3863 32.3959 52.0113 32.477 51.729 32.4846L51.7293 32.4846C51.6991 32.4855 51.6692 32.4856 51.636 32.4847L51.517 32.4738L51.517 32.4738L51.6364 32.4847C51.2386 32.474 50.803 32.4826 50.3255 32.5323L50.3773 32.5255L50.3771 32.5255L50.3256 32.5323C50.2563 32.5396 50.1922 32.538 50.1773 32.5377L50.1775 32.5377C50.0688 32.5355 49.8718 32.5213 49.6097 32.4974L49.6183 32.4982C49.6653 32.502 49.5687 32.4941 49.6161 32.498L49.6082 32.4973C49.416 32.4798 49.2202 32.4453 49.0214 32.3914C48.9913 32.3832 48.9616 32.3735 48.9325 32.3624L48.2669 32.1077L48.4001 32.1475C47.705 31.9951 46.6338 31.4518 46.1873 30.7267L46.1873 30.7266C46.1416 30.6524 46.0982 30.5697 46.062 30.4793L46.0619 30.4791L45.9645 30.2354L45.9644 30.2353C45.4212 28.8766 45.1144 28.143 44.8248 27.8022C44.5016 27.422 44.5547 26.8574 44.9434 26.5412C45.332 26.225 45.909 26.2769 46.2322 26.6572Z" fill="#05276C"/>
<path d="M36.5635 32.0201L37.6109 33.0065L37.4667 32.8957L40.4843 34.7701L40.2548 34.6678L42.5102 35.3244L42.2649 35.2874L45.3902 35.3397C45.5095 35.3417 45.6273 35.3665 45.7368 35.4127L47.1592 36.0125L46.714 35.9431L48.5669 35.7782C48.6146 35.774 48.6625 35.7734 48.7103 35.7765C50.1249 35.8684 50.9891 36.6107 51.3029 38.0035C51.3133 38.0497 51.3199 38.0967 51.3228 38.1439C51.3707 38.9459 51.2785 39.5598 51.0461 39.9856C50.8521 40.341 50.5741 40.5801 50.212 40.7027L50.5236 40.5232C49.8852 41.0832 48.732 41.4169 47.0641 41.524L47.4073 41.4344C46.4159 41.9104 45.8341 42.234 45.662 42.4051L45.6619 42.4051C45.6662 42.4009 45.6718 42.3945 45.6786 42.386C45.542 42.556 45.3473 42.6718 45.1303 42.7123L45.1304 42.7123C45.3565 42.6701 45.5174 42.5758 45.6129 42.4292L45.6129 42.4293C45.4626 42.6598 45.1771 43.4752 44.7563 44.8755C44.7386 44.9344 44.7148 44.9913 44.6852 45.0453C44.1341 46.0535 43.7255 46.6928 43.4595 46.9635L43.4595 46.9634C43.3683 47.0562 43.2744 47.1308 43.1778 47.1871C43.1244 47.2182 43.0679 47.2439 43.0092 47.2639L40.2804 48.1893C40.2027 48.2156 40.1216 48.2316 40.0395 48.2368C38.8346 48.3128 38.0698 48.4173 37.7451 48.5503L37.7856 48.5326L36.0385 49.348L36.1272 49.3006C36.0922 49.3218 36.0625 49.3498 36.038 49.3845L36.16 49.1372C36.1602 49.1365 36.1603 49.136 36.1604 49.1356L36.1604 49.1357C36.061 49.5239 36.49 50.448 37.4473 51.9081L37.4219 51.8713C37.5627 52.0643 37.7713 52.2378 38.0475 52.3916L37.9188 52.3324C38.3404 52.4885 38.6791 52.5546 38.9352 52.5306C39.0673 52.5183 39.2007 52.5343 39.326 52.5774C39.6155 52.6771 39.9195 52.8537 40.238 53.1072C40.3042 53.16 40.3626 53.2215 40.4114 53.29C40.9086 53.9885 41.1964 54.5487 41.2749 54.9707L41.2749 54.9707C41.3095 55.1569 41.3109 55.3327 41.279 55.4982C41.1853 55.9842 40.7067 56.3038 40.21 56.2121C39.7133 56.1204 39.3866 55.6521 39.4803 55.1661C39.4703 55.2181 39.4682 55.2598 39.4741 55.2913C39.4431 55.1248 39.2549 54.7989 38.9094 54.3136L39.0828 54.4964C38.929 54.374 38.8075 54.2974 38.7183 54.2667L39.1091 54.3134C38.5705 54.3637 37.9578 54.2617 37.2709 54.0073C37.2264 53.9908 37.1834 53.971 37.1422 53.948C36.6324 53.6642 36.2291 53.3188 35.9321 52.9118C35.9233 52.8998 35.9149 52.8875 35.9067 52.8751C34.6647 50.9808 34.1574 49.5893 34.3849 48.7006L34.3848 48.7007C34.3922 48.6719 34.4002 48.6435 34.409 48.6155C34.4364 48.5274 34.4775 48.444 34.5309 48.3682C34.6999 48.1282 34.9102 47.9319 35.1618 47.7791C35.1904 47.7617 35.22 47.7458 35.2504 47.7316L36.9976 46.9162C37.0109 46.9099 37.0245 46.904 37.0381 46.8984C37.5514 46.6881 38.5126 46.5385 39.9218 46.4496L39.6809 46.4971L42.4098 45.5717L42.2412 45.6485C42.1965 45.6745 42.1628 45.6991 42.14 45.7222L42.1401 45.7222C42.2892 45.5704 42.5996 45.0632 43.0713 44.2006L43.0002 44.3704C43.4698 42.8075 43.8263 41.8394 44.0697 41.4662L44.0697 41.4662C44.2573 41.1783 44.4967 41.0073 44.7878 40.953L44.2396 41.2793C44.2748 41.2354 44.3142 41.1918 44.3577 41.1486L44.3576 41.1487C44.6754 40.8329 45.4232 40.3922 46.6009 39.8267C46.7083 39.7751 46.8249 39.7447 46.9442 39.737C48.1914 39.6568 48.9772 39.4745 49.3017 39.1898C49.3923 39.1103 49.4983 39.0493 49.6133 39.0103C49.5234 39.0408 49.4628 39.0846 49.4315 39.1419C49.5021 39.0127 49.5234 38.7149 49.4955 38.2485L49.5154 38.3889C49.3987 37.8711 49.09 37.596 48.5891 37.5635L48.7326 37.5617L46.8798 37.7266C46.7279 37.7401 46.5748 37.7163 46.4347 37.6572L45.0123 37.0574L45.3589 37.1304L42.2335 37.078C42.1504 37.0766 42.0679 37.0641 41.9882 37.0409L39.7328 36.3844C39.6518 36.3608 39.5746 36.3264 39.5033 36.2821L36.4857 34.4076C36.4339 34.3754 36.3856 34.3384 36.3415 34.2968L35.2941 33.3104C34.93 32.9674 34.9189 32.4006 35.2694 32.0443C35.62 31.6879 36.1993 31.6771 36.5635 32.0201Z" fill="#05276C"/>
<path d="M40.8361 54.2464L40.8365 54.2465C41.15 54.3706 41.3443 54.6143 41.4194 54.9777L41.4194 54.9776C41.4819 55.28 41.5505 56.2128 41.6251 57.776C41.6253 57.7817 41.6255 57.7873 41.6257 57.793L41.6257 57.7932C41.6262 57.8099 41.6263 57.8275 41.6262 57.846L41.6262 57.846C41.625 57.9891 41.5977 58.3345 41.5442 58.8823C41.5412 58.9128 41.5367 58.9431 41.5305 58.973C41.4983 59.1303 41.4724 59.2445 41.4526 59.3156L41.4526 59.3156C41.3839 59.5623 41.251 59.7488 41.0538 59.8753L41.4262 59.3919C41.3201 59.7262 41.1708 60.0186 40.9784 60.2688C40.9513 60.3041 40.9216 60.3373 40.8895 60.3683C40.4337 60.8079 40.1657 61.094 40.0855 61.2268L40.0856 61.2268C40.1094 61.1873 40.1283 61.1332 40.1422 61.0644C40.1241 61.1537 40.0922 61.2398 40.0475 61.3197C39.9792 61.4418 39.9425 61.7209 39.9373 62.157C39.9367 62.2016 39.9328 62.2461 39.9255 62.2902L39.9255 62.2902C39.9201 62.3226 39.9133 62.3562 39.9051 62.391L39.9051 62.391C39.8653 62.5595 39.7775 62.8021 39.6415 63.1188C39.6327 63.1393 39.6232 63.1594 39.6128 63.1791C39.5022 63.3913 39.3908 63.5635 39.2788 63.6958L39.2788 63.6957C39.2652 63.7119 39.2514 63.7276 39.2375 63.7428C39.2271 63.7542 39.2164 63.7653 39.2055 63.7762C38.8892 64.0897 38.7009 64.3013 38.6407 64.4111L38.6406 64.4112C38.6455 64.4024 38.6509 64.3897 38.657 64.3731C38.6417 64.4148 38.6233 64.4553 38.6019 64.4944C38.6241 64.4539 38.6377 64.4201 38.6427 64.393L38.6427 64.3931C38.6414 64.4001 38.6402 64.4117 38.6392 64.4277L38.6399 64.3294C38.6716 64.969 38.675 65.3965 38.65 65.612C38.584 66.1818 38.2844 66.4793 37.7512 66.5047L37.7191 66.5057L37.7186 66.5057L38.4086 66.1844C37.7898 66.9092 37.1469 67.3256 36.48 67.4338C35.9813 67.5146 35.5101 67.1846 35.4275 66.6968C35.3449 66.2089 35.6821 65.7478 36.1808 65.667C36.401 65.6313 36.6754 65.421 37.0039 65.0362C37.175 64.8358 37.427 64.7185 37.6939 64.7149H37.6944L37.6623 64.7159C37.1592 64.7398 36.8822 64.9713 36.8313 65.4102C36.8451 65.2907 36.8386 64.9594 36.8116 64.4163C36.81 64.3835 36.8102 64.3507 36.8123 64.318C36.8177 64.2314 36.8276 64.1497 36.8418 64.073L36.8418 64.073C36.8711 63.915 36.9202 63.7733 36.9889 63.6479L36.9338 63.7692C36.9584 63.702 36.9898 63.6336 37.028 63.5641L37.028 63.5641C37.1714 63.3027 37.463 62.954 37.9029 62.518L37.8709 62.5514C37.8701 62.5523 37.8696 62.5529 37.8692 62.5533L37.8693 62.5532C37.8954 62.5224 37.9331 62.4596 37.9826 62.3648L37.954 62.4251C38.0495 62.2028 38.1053 62.0572 38.1216 61.9883L38.1216 61.9882C38.1208 61.9916 38.1198 61.9965 38.1188 62.0028L38.107 62.136C38.1158 61.4021 38.2274 60.8435 38.4417 60.4602L38.3469 60.7155C38.3735 60.5847 38.4277 60.4514 38.5097 60.3157L38.5097 60.3157C38.6707 60.0491 39.0357 59.6415 39.6046 59.0929L39.5156 59.1923C39.5807 59.1077 39.6349 58.9972 39.6781 58.8608C39.7412 58.6622 39.8728 58.4913 40.0505 58.3774C39.8607 58.499 39.7394 58.655 39.6865 58.8451L39.6865 58.8452C39.6953 58.8134 39.7118 58.7387 39.7358 58.6213L39.7221 58.712C39.7706 58.2161 39.7951 57.9228 39.7959 57.8321L39.7958 57.832C39.7958 57.8345 39.7959 57.8379 39.796 57.8423L39.7967 57.8595C39.7264 56.3877 39.6693 55.5454 39.6253 55.3326L39.6253 55.3326C39.6803 55.5986 39.8552 55.79 40.15 55.9067C39.6817 55.7216 39.4553 55.1996 39.6447 54.7411C39.834 54.2826 40.3674 54.0611 40.8361 54.2464Z" fill="#05276C"/>
<path d="M41.0754 69.2564C41.933 68.4835 42.8514 68.0305 43.8192 68.0162L43.8193 68.0162C44.4955 68.0063 45.4331 68.0633 46.631 68.271C46.8864 68.3153 47.1113 68.3698 47.2832 68.434L47.2902 68.4367C47.2717 68.4296 47.3128 68.4454 47.2935 68.4379L47.2877 68.4357C47.7593 68.6135 48.027 68.7059 48.1521 68.7372L48.1521 68.7372C48.2639 68.7652 48.3368 68.7774 48.3895 68.7811L48.3894 68.7811C48.5766 68.794 48.6693 68.7947 48.6915 68.7939L48.6912 68.7939C48.7266 68.7925 48.6406 68.791 48.5279 68.824C48.5801 68.8087 48.6335 68.798 48.6875 68.7921L50.0955 68.6364C50.1423 68.6313 50.1896 68.6296 50.2367 68.6316C50.862 68.6574 51.503 68.6857 52.1338 68.7523L52.1339 68.7523C52.2099 68.7603 52.3075 68.7739 52.4054 68.7873L52.4052 68.7873C52.5574 68.8081 52.7535 68.835 52.9978 68.863L52.999 68.8631C53.0739 68.8718 53.1411 68.8897 53.1435 68.8903L53.1438 68.8903C53.4759 68.9733 56.4496 69.8916 57.755 70.7361C58.1766 71.0088 58.2924 71.5644 58.0137 71.9769C57.7349 72.3894 57.1671 72.5027 56.7455 72.23C55.7133 71.5622 52.9967 70.7019 52.6913 70.6257L52.6917 70.6257C52.6675 70.6197 52.7183 70.634 52.784 70.6416L52.7851 70.6418C52.5193 70.6113 52.3038 70.5818 52.151 70.5608L52.1509 70.5608C52.0406 70.5456 51.976 70.5369 51.9374 70.5328L51.9375 70.5328C51.3745 70.4734 50.7895 70.4469 50.1597 70.4209L50.3009 70.416L48.893 70.5717L49.0526 70.5397C48.918 70.5791 48.79 70.5823 48.7644 70.5834L48.7642 70.5833C48.6359 70.5883 48.4598 70.5813 48.2605 70.5675L48.2604 70.5675C48.0512 70.553 47.8579 70.5121 47.6989 70.4724L47.699 70.4724C47.4487 70.4098 47.0751 70.2748 46.6298 70.1069L46.624 70.1047C46.6403 70.111 46.606 70.0979 46.6231 70.1044L46.6301 70.107C46.6109 70.0999 46.5123 70.0692 46.3116 70.0344H46.3116C45.217 69.8446 44.3954 69.7988 43.8468 69.8069C43.4758 69.8124 42.9691 69.9845 42.3155 70.5736C41.9438 70.9087 41.3648 70.8854 41.0223 70.5217C40.6799 70.1579 40.7036 69.5915 41.0754 69.2564Z" fill="#05276C"/>
<path d="M72.1324 34.4413L72.1324 34.4413C72.1142 34.6258 72.0445 34.7769 72.0161 34.837L72.0161 34.8369C71.7973 35.2997 71.0502 36.2446 70.5969 36.5821L70.5968 36.5822C70.541 36.6237 70.4607 36.6787 70.3634 36.7254C70.3447 36.7344 70.3256 36.7427 70.3063 36.7505L67.1521 38.0116C67.1203 38.0244 67.0877 38.0353 67.0546 38.0445L66.2697 38.2613C66.2272 38.2731 66.1838 38.2818 66.14 38.2875C63.8471 38.5817 61.6867 38.3593 59.6221 38.0028C59.3353 37.9533 58.796 38.1122 57.6225 38.5289L57.6226 38.5289C57.538 38.5589 57.5249 38.5636 57.4385 38.5942L57.4383 38.5942C57.9136 38.426 57.9395 37.9855 57.9145 38.1182L57.9145 38.1182C57.9036 38.1764 57.8939 38.4004 57.9456 38.8889L57.9456 38.8889C57.9597 39.0222 57.9838 39.0733 57.9852 39.0761L57.9852 39.0762C57.9841 39.0739 57.9659 39.0408 57.9187 39.0048L57.9188 39.0048C58.5128 39.4579 58.7624 39.6158 58.8676 39.6477L58.868 39.6478C58.8678 39.6477 58.8677 39.6477 58.8667 39.6474L58.8663 39.6473C60.9049 40.1965 63.2992 41.6046 63.987 42.7978L63.9879 42.7995L63.9901 42.8033L63.9914 42.8055C64.2647 43.2851 64.3388 43.9496 64.3146 44.3015C64.3099 44.3691 64.2992 44.4715 64.2674 44.5811L64.2673 44.5811C64.1019 45.1503 63.8614 46.3514 63.686 47.2308C63.6051 47.6362 63.5312 48.0094 63.4937 48.1508L63.4938 48.1507C63.491 48.1614 63.4876 48.1735 63.4841 48.1855L63.4841 48.1858C63.4805 48.198 63.4744 48.2185 63.4663 48.2416L63.4665 48.241C63.3818 48.4849 63.2223 48.6492 63.1448 48.7242L63.1448 48.7242C63.0205 48.8446 62.8619 48.9603 62.7638 49.0332C62.4019 49.3021 62.2454 49.4511 62.1982 49.587L62.1982 49.587C62.1887 49.6142 62.1832 49.6448 62.1884 49.6903C62.2059 49.8429 62.2055 49.9909 62.1883 50.1323C62.1526 50.4257 62.0456 50.6851 61.8908 50.8903L61.8908 50.8902C61.6353 51.2286 61.2901 51.5242 60.8898 51.7857C60.8362 51.8207 60.779 51.8501 60.719 51.8734L58.9009 52.579L58.9139 52.5739C58.8681 52.5925 58.8483 52.6043 58.8467 52.6053L58.8468 52.6053C58.8343 52.6131 58.9186 52.566 58.9904 52.4343C59.0398 52.3435 59.0655 52.2028 59.0111 52.0849C59.068 52.2081 59.1173 52.3135 59.1653 52.4158L59.1653 52.4158C59.203 52.4964 59.2389 52.5729 59.2708 52.6421L59.2708 52.642C59.3366 52.7847 59.4085 52.9438 59.4528 53.0787L59.4528 53.0788C59.4713 53.1349 59.499 53.2274 59.5112 53.3362C59.5316 53.5178 59.5527 53.7221 59.5485 53.8901L59.5485 53.8902C59.5515 53.7701 59.6219 54.6969 58.7937 54.8949L59.1692 54.7074C58.0706 55.621 56.7599 55.8898 55.3455 55.532C54.8561 55.4082 54.562 54.9197 54.6885 54.4409C54.8151 53.9621 55.3143 53.6743 55.8037 53.7981C56.6716 54.0176 57.3622 53.8597 57.9838 53.3428C58.0923 53.2525 58.2209 53.1883 58.3593 53.1552C57.6068 53.3351 57.711 54.1581 57.7187 53.847L57.7187 53.847C57.7194 53.8186 57.7144 53.7334 57.6918 53.5319C57.6992 53.5977 57.7135 53.6367 57.7103 53.627L57.7103 53.6271C57.7028 53.6043 57.6754 53.5368 57.6026 53.3791L57.6025 53.379C57.573 53.3151 57.5399 53.2443 57.5013 53.1619L57.5013 53.162C57.4527 53.0582 57.4029 52.952 57.3429 52.8219L57.3429 52.8219C57.1097 52.3166 57.2262 51.8652 57.3749 51.5922L57.3749 51.5922C57.5048 51.3537 57.7003 51.1967 57.8616 51.0959L57.8617 51.0959C57.9724 51.0267 58.0915 50.9687 58.213 50.9195C58.2173 50.9177 58.2217 50.916 58.226 50.9143L60.0441 50.2087L59.8734 50.2963C60.1565 50.1114 60.3247 49.9504 60.4185 49.8262L60.4185 49.8262C60.3754 49.8833 60.3707 49.9209 60.3707 49.9209C60.3706 49.9212 60.3719 49.9114 60.3694 49.8901C60.3332 49.5744 60.3719 49.2791 60.4652 49.0107L60.4652 49.0106C60.7233 48.2677 61.3892 47.8058 61.6568 47.6069C61.7905 47.5076 61.8372 47.4707 61.8571 47.4514L61.8571 47.4515C61.8784 47.4309 61.7886 47.5059 61.7335 47.6646L61.7338 47.6639C61.7279 47.6808 61.7245 47.6926 61.7236 47.6956L61.7235 47.6958C61.7224 47.6996 61.7218 47.7018 61.7218 47.702L61.7218 47.7019C61.741 47.6295 61.7993 47.3395 61.8895 46.8877C62.0567 46.0498 62.3146 44.7525 62.5067 44.0914L62.5067 44.0915C62.4886 44.1536 62.4876 44.1914 62.4883 44.1811L62.4883 44.1812C62.4965 44.0618 62.4449 43.7693 62.3926 43.6775L62.3939 43.6797L62.3917 43.6759L62.3926 43.6775C62.066 43.1107 60.2587 41.88 58.3804 41.3739L58.38 41.3738C58.3616 41.3689 58.344 41.3638 58.326 41.3584L58.3265 41.3585C57.8261 41.207 57.2768 40.7859 56.7935 40.4173L56.7935 40.4173C56.5979 40.2681 56.4508 40.0796 56.3458 39.8725L56.3458 39.8726C56.2203 39.6253 56.1544 39.352 56.1249 39.0733C56.0733 38.5858 56.0509 38.1308 56.1144 37.7936L56.1144 37.7936C56.1337 37.6911 56.2349 37.1158 56.8155 36.9102L56.8154 36.9102C56.9007 36.88 56.9137 36.8754 56.9979 36.8455L56.998 36.8454C57.929 36.5149 59.0474 36.085 59.9402 36.2392L59.9402 36.2392C61.9236 36.5816 63.8748 36.7719 65.902 36.5118L65.7723 36.5379L66.5572 36.321L66.4597 36.3539L69.6139 35.0927L69.5569 35.1177C69.5075 35.1414 69.4831 35.1609 69.4885 35.1569L69.4883 35.157C69.6857 35.01 70.2513 34.304 70.3549 34.085L70.3549 34.085C70.3681 34.057 70.3235 34.1362 70.3104 34.2696C70.3588 33.7774 70.806 33.4168 71.3091 33.4641C71.8122 33.5115 72.1808 33.949 72.1324 34.4413Z" fill="#05276C"/>
<path d="M55.5675 55.3406C55.4345 55.3106 55.2259 55.3797 54.9419 55.5479L55.0017 55.5092C54.8348 55.6264 54.6974 55.7825 54.5895 55.9776L54.6318 55.8901L53.5268 58.534L53.592 58.1248C53.6234 58.5148 53.5434 59.07 53.3519 59.7904L53.3799 59.6156C53.3652 59.8702 53.3962 60.0964 53.4731 60.294L53.4381 60.2155C53.739 60.8111 54.0824 61.2661 54.4682 61.5805L54.2974 61.4703C54.3421 61.4926 54.4017 61.512 54.4761 61.5286L54.4076 61.516L56.2403 61.7827C56.2773 61.7881 56.3139 61.7957 56.3499 61.8054C57.2528 62.0501 57.8602 62.2713 58.1721 62.4691L58.172 62.4691C58.2952 62.5472 58.3977 62.6336 58.4795 62.7282C58.4839 62.7333 58.4881 62.7382 58.4924 62.7434L60.5034 65.1765L60.3855 65.0582C60.9799 65.5541 61.3762 65.8306 61.5742 65.8879L61.5741 65.8879C61.5446 65.8794 61.5044 65.8763 61.4536 65.8787C61.5382 65.8747 61.6229 65.8822 61.7053 65.901C61.5627 65.8685 61.4198 65.8911 61.2764 65.9687L61.014 66.1819C61.3472 65.7872 61.8115 65.4977 62.407 65.3135L62.2233 65.3929C62.1801 65.4175 62.1492 65.4412 62.1305 65.4642L62.1305 65.4642C62.1402 65.4523 62.1534 65.4306 62.1701 65.3991L62.1608 65.4172C62.186 65.3669 62.2017 65.3307 62.2079 65.3086C62.2005 65.3351 62.1975 65.3711 62.1991 65.4167L62.2038 65.4828C62.0695 64.2629 62.0718 63.4244 62.2107 62.9671L62.2107 62.9671C62.2154 62.9518 62.2202 62.9366 62.2252 62.9217C62.2533 62.8377 62.2939 62.7583 62.3458 62.686C62.5279 62.4321 62.768 61.8761 63.0662 61.0181C63.1094 60.8938 63.18 60.7803 63.273 60.6856C63.7948 60.1548 64.0903 59.7973 64.1596 59.6131C64.1509 59.6364 64.1453 59.6688 64.143 59.7103C64.147 59.6397 64.1595 59.5698 64.1803 59.5021C64.3181 59.0528 64.373 58.7569 64.3448 58.6143L64.3448 58.6144C64.3449 58.615 64.3451 58.6159 64.3454 58.6171C64.2515 58.2445 64.4106 57.8547 64.7411 57.648C65.0717 57.4413 65.5 57.4637 65.8062 57.7037L65.8063 57.7037C65.3348 57.3341 64.9095 57.3812 64.5301 57.845L64.5307 57.8443C64.3471 58.0683 64.2862 58.3025 64.3478 58.547L64.3479 58.547C64.3075 58.387 64.0957 57.8273 63.7125 56.8679C63.6879 56.8064 63.6704 56.7424 63.6602 56.6772L63.6602 56.6772C63.5761 56.1388 63.8224 55.7458 64.3991 55.4984L64.3992 55.4984C64.4559 55.474 64.5166 55.4514 64.5812 55.4305C65.0609 55.2749 65.5788 55.5293 65.7378 55.9987C65.8968 56.4681 65.6368 56.9748 65.157 57.1304C65.1464 57.1339 65.1387 57.1366 65.134 57.1386L65.1341 57.1386C65.4152 57.018 65.527 56.774 65.4696 56.4066L65.4173 56.216C65.8296 57.2481 66.0654 57.8821 66.1249 58.1178L66.1249 58.1179C66.2077 58.4461 66.1523 58.7284 65.9587 58.9646L65.9593 58.9639C65.5757 59.433 65.1431 59.4788 64.6617 59.1013L66.1225 58.188C66.1297 58.2162 66.1361 58.2449 66.1419 58.2741L66.1419 58.2742C66.2271 58.7053 66.1576 59.2863 65.9333 60.0171L65.9706 59.8089C65.9629 59.946 65.9318 60.0869 65.8774 60.2316C65.7198 60.6507 65.2914 61.2158 64.5923 61.927L64.7992 61.5946C64.4448 62.6143 64.1265 63.321 63.8441 63.7147L63.9647 63.4791C63.9649 63.4784 63.9651 63.4779 63.9652 63.4775L63.9652 63.4775C63.8961 63.7049 63.9156 64.3094 64.0237 65.2909C64.0261 65.3129 64.0277 65.3349 64.0285 65.357C64.0331 65.4931 64.0145 65.6355 63.9726 65.7843C63.936 65.9143 63.8799 66.0547 63.8043 66.2056C63.8012 66.2117 63.7981 66.2177 63.7949 66.2237C63.7238 66.3579 63.6466 66.4762 63.5633 66.5787L63.5633 66.5787C63.4387 66.732 63.2984 66.853 63.1425 66.9416C63.0845 66.9746 63.0229 67.0013 62.9589 67.0211C62.7069 67.099 62.529 67.1995 62.4252 67.3224C62.3522 67.4089 62.2632 67.4812 62.1628 67.5356C61.8954 67.6804 61.6043 67.7169 61.2896 67.6451L61.5413 67.6675C61.3859 67.6748 61.224 67.6541 61.0555 67.6054L61.0554 67.6054C60.6088 67.4762 59.9897 67.0814 59.1979 66.421C59.155 66.3852 59.1155 66.3456 59.0801 66.3026L57.0691 63.8695L57.082 63.8847C57.1169 63.925 57.1484 63.9541 57.1766 63.972L57.1765 63.9719C57.022 63.874 56.5836 63.7271 55.8614 63.5314L55.971 63.5541L54.1383 63.2874C54.1153 63.2841 54.0925 63.2798 54.0698 63.2748C53.8479 63.2254 53.6472 63.156 53.4677 63.0667C53.4067 63.0364 53.3494 62.9994 53.2969 62.9566C52.7126 62.4805 52.2127 61.8313 51.7972 61.0092C51.7843 60.9836 51.7726 60.9574 51.7623 60.9307C51.593 60.4952 51.523 60.0232 51.5524 59.5145C51.5558 59.4555 51.5652 59.3969 51.5804 59.3397C51.7203 58.8135 51.7826 58.4553 51.7673 58.2653C51.7561 58.1258 51.7784 57.9856 51.8326 57.8561L52.9376 55.2123C52.95 55.1824 52.9642 55.1532 52.9799 55.1249C53.2214 54.6884 53.5396 54.3315 53.9344 54.0543C53.9538 54.0407 53.9737 54.0278 53.9942 54.0157C54.702 53.5966 55.3637 53.4566 55.9794 53.5957C56.4719 53.707 56.7789 54.1878 56.6651 54.6697C56.5514 55.1516 56.0599 55.452 55.5675 55.3406Z" fill="#05276C"/>
<path d="M65.9925 56.0858L65.9925 56.0859C65.9925 56.0863 65.9925 56.0869 65.9925 56.0869L65.9925 56.0866C65.9925 56.1137 65.996 55.8315 65.6904 55.6562L65.6927 55.6575L68.1926 57.1014L68.0967 57.0532L70.1531 57.9406L70.0827 57.9135C69.5746 57.7418 69.5172 58.1075 69.5179 58.1056L69.5174 58.1069C69.5156 58.1119 69.514 58.1167 69.5142 58.1162L69.4753 58.288L69.5657 57.5523C69.5887 57.3647 69.6718 57.1892 69.803 57.0506C69.8697 56.9801 69.9425 56.9076 70.0155 56.8451L70.0157 56.8451C70.0644 56.8034 70.172 56.714 70.3169 56.6491L70.3004 56.6567L71.2431 56.2117L71.1653 56.2531C71.0672 56.3115 71.0198 56.3704 71.0333 56.3553L71.0332 56.3554C71.0536 56.3326 71.0954 56.2771 71.2062 56.1241L71.2061 56.1242C71.2735 56.0312 71.3574 55.9153 71.4556 55.7854L71.4556 55.7854C71.4097 55.8461 71.4 55.8906 71.4004 55.8889L71.4004 55.8889C71.407 55.8597 71.4259 55.6735 71.3062 55.2348C71.2521 55.0364 71.2055 54.9535 71.1927 54.9362L71.1927 54.9361C71.1913 54.9343 71.2461 55.0077 71.3744 55.045C69.8279 54.5954 68.1062 53.948 67.4966 53.0798L67.4966 53.0799C67.4347 52.9917 67.377 52.8928 67.3304 52.7823L67.3303 52.7822C67.1657 52.3922 67.5361 51.081 67.455 51.4214C67.4751 51.337 67.5077 51.2558 67.5516 51.1805C67.5624 51.162 67.5762 51.1401 67.5735 51.1445L67.5713 51.148C67.574 51.1437 67.5799 51.1344 67.5773 51.1384L67.5759 51.1406C67.6749 50.9836 68.0983 50.3655 68.9354 49.9502L68.9354 49.9502C69.702 49.57 70.291 49.3989 70.6375 49.3487C70.8079 49.3241 70.9819 49.347 71.1396 49.4148C71.9414 49.7596 72.6745 50.2523 73.3394 50.8813L72.7753 50.6324C73.208 50.6658 74.594 50.7102 74.8727 50.6731L74.8726 50.6731C75.0411 50.6507 74.6922 50.6515 74.4349 50.9077C74.7891 50.5549 75.3686 50.5499 75.7291 50.8965C76.0897 51.2431 76.0948 51.81 75.7406 52.1628C75.4628 52.4395 75.0497 52.4569 75.1194 52.4477L75.1193 52.4477C74.6147 52.5148 73.0336 52.4488 72.6312 52.4177C72.4193 52.4013 72.2198 52.3133 72.067 52.1687C71.5441 51.674 70.9893 51.3064 70.4031 51.0543L70.9052 51.1204C70.8078 51.1345 70.4104 51.2264 69.7632 51.5475L69.7632 51.5475C69.3472 51.7538 69.1437 52.0652 69.134 52.0806L69.1326 52.0827C69.1313 52.0848 69.1322 52.0834 69.1362 52.077L69.134 52.0805C69.1315 52.0845 69.1349 52.0794 69.1411 52.0687L69.2377 51.8278C69.1566 52.1681 69.1559 52.4155 69.0222 52.0986L69.0221 52.0985C69.0127 52.0762 69.0047 52.065 69.0052 52.0656L69.0052 52.0657C69.1775 52.311 70.1681 52.8261 71.8958 53.3283C72.2621 53.4348 72.5133 53.6668 72.6758 53.8865L72.6757 53.8865C72.8848 54.1693 73.0011 54.5031 73.0748 54.7731C73.2218 55.3123 73.2888 55.8312 73.1871 56.278C73.1436 56.4691 73.0644 56.6689 72.9274 56.8501L72.9274 56.8502C72.8412 56.9643 72.7673 57.0661 72.6995 57.1598L72.6994 57.1598C72.6152 57.2762 72.508 57.4262 72.4094 57.5362L72.4093 57.5363C72.3618 57.5893 72.2615 57.6969 72.1163 57.7833C72.0911 57.7983 72.0651 57.8121 72.0385 57.8247L71.0958 58.2697C71.0903 58.2722 71.0849 58.2747 71.0794 58.2772C71.1834 58.2306 71.2376 58.1786 71.2199 58.1938L71.22 58.1937C71.2153 58.1977 71.1921 58.2188 71.1458 58.2677L71.383 57.766L71.2926 58.5017C71.2855 58.5601 71.2724 58.6177 71.2537 58.6736C71.2533 58.6749 71.2508 58.6821 71.2484 58.6891L71.2479 58.6904C71.1421 58.9902 70.4736 59.9405 69.4849 59.6063C69.4611 59.5982 69.4376 59.5892 69.4145 59.5792L67.3581 58.6918C67.3251 58.6776 67.2931 58.6615 67.2621 58.6436L64.7622 57.1997L64.7645 57.201C64.2582 56.9105 64.1616 56.3994 64.1621 56.0838L64.1621 56.0836C64.1621 56.0692 64.1624 56.0543 64.1627 56.0399C64.1756 55.5457 64.5957 55.1552 65.101 55.1678C65.6063 55.1804 66.0054 55.5914 65.9925 56.0858Z" fill="#05276C"/>
<path d="M33.6088 26.2701L33.3957 26.1665L33.3956 26.1664L33.6086 26.27C33.4929 26.2244 33.3756 26.1671 33.2569 26.0981L33.2571 26.0982C33.1684 26.0467 33.0771 25.9877 32.9833 25.9211C32.98 25.9188 32.9769 25.9166 32.9736 25.9142L30.0271 23.7901L30.0571 23.8112C29.9851 23.7619 29.9371 23.7299 29.913 23.7151C29.9558 23.7413 30.0091 23.7677 30.073 23.7943C30.0517 23.7854 30.0303 23.776 30.0094 23.7661L29.6321 23.5153L29.632 23.5152L30.0105 23.7666C30.2638 23.8852 30.5293 23.9225 30.8069 23.8788C29.974 24.01 29.19 23.4558 29.0558 22.6409C28.9216 21.8259 29.4881 21.0589 30.321 20.9276C30.6718 20.8723 31.0077 20.9197 31.3286 21.0699L31.7072 21.3213L31.7072 21.3214L31.2662 21.0424C31.3516 21.0778 31.4417 21.1246 31.5364 21.1828C31.604 21.2242 31.695 21.2841 31.8093 21.3624C31.8194 21.3694 31.8294 21.3764 31.8393 21.3835L34.7858 23.5076L34.7761 23.5007C34.7943 23.5136 34.8078 23.5226 34.8165 23.5276L34.8167 23.5278C34.8017 23.519 34.7799 23.509 34.7514 23.4978L34.9643 23.6014L34.9644 23.6014C35.5338 23.8065 35.9123 24.6773 35.5968 25.4429C35.2813 26.2084 34.3913 26.5788 33.6088 26.2701Z" fill="#05276C"/>
<path d="M26.0397 56.2282C27.1669 55.9001 27.8841 56.241 28.1912 57.2509L28.1912 57.2509C28.3381 57.7341 28.25 58.219 27.927 58.7057C27.8581 58.8095 27.7763 58.9046 27.6834 58.9887C26.5247 60.0378 25.8542 60.6907 25.6719 60.9477L25.672 60.9476C25.8131 60.7487 25.8725 60.4932 25.8501 60.1811C25.8711 60.4744 25.8032 60.7672 25.655 61.023C25.3654 61.5225 25.1677 62.1265 25.0619 62.8349L25.0779 62.6319C25.0698 63.526 25.3341 63.9998 25.8707 64.0532C25.9081 64.0569 25.9452 64.062 25.9822 64.0684C29.771 64.7243 34.9262 63.2749 41.4476 59.7201C41.4806 59.7021 41.5143 59.6854 41.5486 59.6698C45.1238 58.0482 50.8391 54.7036 58.6947 49.6362L58.6712 49.6516C59.849 48.8608 63.4142 47.1665 69.3669 44.5687L69.2178 44.6435C70.8112 43.7316 72.0518 42.8624 72.9397 42.0359L72.9255 42.0493L79.5162 35.7543L79.4034 35.8745C80.003 35.1611 80.3235 34.6666 80.3648 34.3909V34.3909C80.3525 34.4733 80.3749 34.5723 80.432 34.688C80.3799 34.5824 80.3406 34.4712 80.3151 34.3567C80.1876 33.7854 79.8469 33.5067 79.2932 33.5207L79.5286 33.4968C77.387 33.88 75.1932 34.6445 72.9469 35.7903C72.1988 36.1719 71.2762 35.8878 70.8862 35.1559C70.4962 34.424 70.7864 33.5212 71.5345 33.1396C74.0535 31.8547 76.5349 30.9936 78.979 30.5563C79.0567 30.5424 79.1354 30.5344 79.2144 30.5324C81.4513 30.4759 82.8132 31.5381 83.2999 33.719L83.183 33.3877C83.3979 33.8229 83.4661 34.3019 83.3876 34.8249C83.264 35.649 82.7225 36.6317 81.7631 37.7732C81.7278 37.8152 81.6901 37.8553 81.6503 37.8933L75.0597 44.1883C75.0551 44.1927 75.0503 44.1973 75.0456 44.2016C73.9863 45.1876 72.558 46.195 70.7605 47.2238C70.7122 47.2514 70.6625 47.2764 70.6114 47.2987C64.8284 49.8224 61.4245 51.4283 60.3999 52.1163C60.3922 52.1215 60.3842 52.1268 60.3764 52.1318C52.3941 57.281 46.5464 60.6977 42.8335 62.3818L42.9345 62.3315C35.7802 66.2312 29.952 67.7913 25.4499 67.0119L25.5613 67.0271C23.178 66.7897 21.9985 65.3159 22.0228 62.6056C22.0234 62.5377 22.0288 62.4699 22.0388 62.4026C22.1999 61.3243 22.5195 60.3728 22.9975 59.5482L22.8024 60.3901C22.7747 60.0026 22.8946 59.6203 23.1622 59.2431L23.1622 59.243C23.4713 58.8075 24.2866 57.9914 25.6083 56.7947L25.3647 57.0777C25.1755 57.3627 25.1416 57.7046 25.2628 58.1033C25.5365 59.0035 26.0859 59.3335 26.9109 59.0934C26.1023 59.3288 25.2517 58.8782 25.0112 58.087C24.7706 57.2958 25.2311 56.4636 26.0397 56.2282Z" fill="#05276C"/>
<path d="M69.9935 22.6962L69.9935 22.6963C70.0156 22.6788 70.0306 22.6653 70.0383 22.6556C70.0375 22.6566 70.0364 22.6582 70.035 22.6602L69.9373 22.8333C70.2814 22.1157 70.8433 21.1551 71.6227 19.9514L71.5465 20.0836C71.5864 20.0053 71.6363 19.9231 71.6962 19.8371L71.6962 19.8371C71.8266 19.6497 72.0887 19.3311 72.4824 18.8812L72.4098 18.971L72.7028 18.5789C72.7063 18.5743 72.7098 18.5696 72.7133 18.565C72.9567 18.2472 73.2586 18.0284 73.6188 17.9088C74.4177 17.6435 75.2851 18.0621 75.5563 18.8438C75.8274 19.6254 75.3996 20.4741 74.6007 20.7395C74.8377 20.6607 75.0236 20.5334 75.1583 20.3575L75.1688 20.3436L74.8757 20.7357C74.8527 20.7665 74.8285 20.7964 74.8031 20.8254C74.4825 21.1918 74.2886 21.4232 74.2215 21.5196L74.2215 21.5195C74.2389 21.4945 74.2583 21.4611 74.2797 21.4192C74.2567 21.4643 74.2312 21.5085 74.2035 21.5513C73.4928 22.6488 72.9926 23.4994 72.703 24.1032C72.6744 24.1629 72.6418 24.2207 72.6053 24.2762C72.5568 24.35 72.5047 24.422 72.4488 24.4922C72.2952 24.6852 72.1148 24.8632 71.9075 25.0262C71.2499 25.5433 70.2884 25.441 69.7598 24.7976C69.2313 24.1542 69.3359 23.2134 69.9935 22.6962Z" fill="#05276C"/>
<path d="M19.4017 45.3596L19.1461 45.2998C19.1073 45.2907 19.069 45.2802 19.0311 45.2682C18.8045 45.1965 18.6572 45.1573 18.5898 45.1406L18.5912 45.1409C18.594 45.1416 18.5898 45.1406 18.5917 45.1411L18.5908 45.1409C18.5759 45.1373 18.4721 45.1148 18.2683 45.0883L18.2684 45.0883C18.2348 45.0839 18.1945 45.0809 18.1418 45.0795L18.2185 45.0797L17.7196 45.0902C17.686 45.0909 17.6524 45.0905 17.6188 45.089C17.0623 45.0648 16.9687 45.0598 16.9144 45.0546L16.9143 45.0545C16.67 45.0308 15.5005 44.9034 14.7276 44.8193L14.7277 44.8193C14.3317 44.7762 14.0488 44.7454 14.0072 44.7412L14.0037 44.7408C13.9671 44.737 14.0131 44.7417 14.013 44.7417L14.0885 44.7471C14.1177 44.7485 14.0226 44.7461 13.9199 44.73C13.8892 44.7252 14.0434 44.7446 14.0124 44.7417L14.0124 44.7417C13.9235 44.7331 13.8417 44.7259 13.7974 44.7221L13.7977 44.7221C13.7794 44.7205 13.7427 44.7173 13.726 44.7157L13.6338 44.704L13.6335 44.704L13.7267 44.7157C13.7468 44.7177 13.6566 44.7104 13.5682 44.6938L13.5685 44.6939C13.5674 44.6936 13.5642 44.6931 13.5483 44.6905L13.5453 44.6901L13.5315 44.6879L13.5281 44.6873C13.5178 44.6856 13.4947 44.6817 13.4722 44.6775L13.4784 44.6786C13.4583 44.6749 13.4129 44.6662 13.3586 44.6521C13.3402 44.6473 13.3217 44.6421 13.3035 44.6367L13.1967 44.6047L13.3808 44.6478C13.3048 44.6348 13.2262 44.6193 13.1466 44.6002L13.1462 44.6001C13.1228 44.5945 13.1016 44.5892 13.0756 44.5823C12.2615 44.3658 11.7808 43.5446 12.0021 42.7481C12.2233 41.9515 13.0627 41.4812 13.8768 41.6977C13.8739 41.6969 13.8722 41.6965 13.8734 41.6968L13.873 41.6967C13.8736 41.6969 13.8846 41.6994 13.9076 41.7034C13.9699 41.7141 14.0313 41.7285 14.0916 41.7465L14.1984 41.7785L14.1433 41.7631C14.095 41.7505 14.0595 41.744 14.048 41.7418L14.0542 41.743C14.0402 41.7403 14.0299 41.7386 14.0305 41.7387L14.0272 41.7382L14.041 41.7404L14.038 41.74C14.0558 41.7428 14.0969 41.7493 14.145 41.7583L14.1454 41.7584C14.0615 41.7426 13.9841 41.7369 14.0232 41.7406L14.1164 41.7523L14.1166 41.7524L14.0244 41.7407C14.0259 41.7409 14.0436 41.7425 14.0691 41.7447L14.0694 41.7447C14.1193 41.7491 14.2048 41.7566 14.3103 41.7667L14.4028 41.7783C14.3014 41.7625 14.2046 41.7599 14.2352 41.7613L14.3106 41.7667C14.3169 41.7673 14.3567 41.7715 14.3274 41.7684L14.3239 41.768C14.3808 41.7738 14.6796 41.8064 15.0655 41.8484C15.8544 41.9343 16.9971 42.0587 17.2164 42.08L17.2163 42.08C17.1619 42.0747 17.1248 42.0752 17.755 42.1028L17.6542 42.1016L18.153 42.0912C18.1785 42.0906 18.2042 42.0907 18.2296 42.0914C18.3532 42.0949 18.504 42.1034 18.6708 42.1251L18.6709 42.1251C18.9495 42.1614 19.1659 42.2011 19.3162 42.2371L19.3153 42.2369C19.3178 42.2375 19.3349 42.2416 19.3378 42.2423L19.3392 42.2427C19.4769 42.2768 19.688 42.3344 19.9713 42.424L19.8563 42.3925L20.1119 42.4522C20.9325 42.6441 21.4386 43.4505 21.2425 44.2534C21.0464 45.0562 20.2222 45.5515 19.4017 45.3596Z" fill="#05276C"/>
<path d="M32.7119 75.5573C32.5625 75.8932 32.4504 76.1296 32.3756 76.2665L32.3756 76.2664C32.3014 76.4021 32.2213 76.5181 32.1353 76.6145L32.3536 74.9681C32.6082 75.4712 32.5734 75.9751 32.2492 76.4797C32.1716 76.6005 31.9951 76.8495 31.7196 77.2267L31.7599 77.1687C31.6852 77.2818 31.616 77.3953 31.5524 77.5094C31.2166 78.1105 30.5061 78.4113 29.8284 78.2393C29.1507 78.0674 28.6792 77.4666 28.6844 76.7816L28.6844 76.7818C28.677 77.7805 29.1843 78.2815 30.2062 78.2846L30.1996 78.2846C30.8379 78.2892 31.2897 78.0259 31.5548 77.4945L31.5548 77.4944C31.5075 77.5892 31.3676 77.9093 31.1351 78.4547C31.1329 78.4597 31.1308 78.4645 31.1286 78.4695L31.1286 78.4697C31.1124 78.5065 31.0937 78.5457 31.0723 78.5875C31.0352 78.6602 30.9808 78.7585 30.909 78.8823C30.9025 78.8935 30.8959 78.9047 30.8891 78.9157L30.8213 79.0165L30.8212 79.0165L30.889 78.9157C30.7724 79.1055 30.6541 79.2704 30.5344 79.4105L30.5344 79.4105C30.398 79.5701 30.2537 79.7045 30.1016 79.8135C29.4211 80.3015 28.4652 80.1573 27.9665 79.4915C27.4678 78.8258 27.6151 77.8905 28.2956 77.4025C28.248 77.4366 28.2131 77.4667 28.1908 77.4928L28.1909 77.4927C28.2091 77.4714 28.2359 77.432 28.2711 77.3747L28.3389 77.274L28.3389 77.2739L28.2512 77.4081C28.2967 77.3296 28.326 77.2775 28.3393 77.2516C28.3345 77.2608 28.3287 77.2732 28.3219 77.2888L28.3154 77.3038C28.5711 76.7042 28.7357 76.3307 28.8093 76.1832L28.8093 76.183C29.1069 75.5866 29.5779 75.2907 30.2222 75.2954L30.2156 75.2954C31.2389 75.2985 31.7468 75.8011 31.7395 76.8033L28.8715 76.0758C28.9709 75.8977 29.0783 75.7213 29.1936 75.5467C29.2065 75.5271 29.22 75.5078 29.2339 75.4887C29.4742 75.1596 29.6172 74.9597 29.6626 74.8889C29.3798 75.329 29.3642 75.7976 29.6157 76.2946C29.3416 75.7535 29.4277 75.1035 29.8341 74.6482C29.7678 74.7225 29.7171 74.7918 29.6819 74.856L29.6819 74.8559C29.7177 74.7905 29.7939 74.6268 29.9103 74.3649C30.2468 73.6079 31.1468 73.2612 31.9204 73.5905C32.6941 73.9198 33.0484 74.8003 32.7119 75.5573Z" fill="#05276C"/>
<path d="M75.7072 73.4296C76.0234 73.6432 76.2722 73.839 76.4537 74.017L76.4537 74.0169C76.5059 74.0681 76.5543 74.1193 76.5989 74.1704L76.5645 74.1324L78.3669 76.0641L78.2901 75.9875C78.3883 76.0786 78.5083 76.1675 78.6503 76.2543C78.7657 76.3248 78.871 76.41 78.9633 76.5078L78.9633 76.5078C79.0385 76.5875 79.0953 76.6393 79.1336 76.6633L79.1329 76.6629C79.133 76.6629 79.1331 76.663 79.1335 76.6632C79.8534 77.0937 80.0803 78.0136 79.6404 78.718C79.2005 79.4223 78.2603 79.6444 77.5404 79.2139C77.5224 79.2032 77.5043 79.1921 77.4859 79.1805L77.4852 79.1801C77.227 79.0182 76.9717 78.8037 76.7193 78.5364L77.0323 78.79C76.7162 78.5968 76.4345 78.3855 76.1873 78.1561C76.1608 78.1315 76.1352 78.1059 76.1105 78.0795L74.3081 76.1477C74.2965 76.1352 74.285 76.1226 74.2738 76.1096C74.2811 76.118 74.2869 76.1243 74.2911 76.1285L74.2911 76.1284C74.2411 76.0794 74.1345 75.9997 73.9713 75.8895C73.2771 75.4205 73.1028 74.4897 73.5822 73.8104C74.0615 73.1311 75.0129 72.9606 75.7072 73.4296Z" fill="#05276C"/>
<path d="M85.0772 49.9224L85.0774 49.9224C85.1995 49.8814 85.3312 49.8489 85.4724 49.8249L85.4726 49.8249C85.7275 49.7817 86.0354 49.7639 86.3961 49.7715C86.4162 49.7719 86.4362 49.7727 86.4563 49.7739C86.6373 49.7847 86.7975 49.798 86.937 49.8136C86.9515 49.8152 86.966 49.8171 86.9805 49.8191C87.078 49.8328 87.3966 49.8706 87.9364 49.9325L87.9015 49.9289C87.925 49.931 87.9496 49.9336 87.9753 49.9367L87.9756 49.9368C88.0985 49.9515 88.2813 49.9821 88.5239 50.0286L88.4644 50.0184C88.4809 50.0209 88.4996 50.0231 88.5204 50.0251L88.4974 50.0231C88.5103 50.0241 88.5196 50.0247 88.5253 50.0248L88.5255 50.0248C88.5153 50.0246 88.5012 50.0251 88.483 50.0263L88.4004 50.034L88.7876 49.9873C88.8498 49.9799 88.9123 49.9761 88.975 49.9761C89.3555 49.9763 89.6904 50.0692 89.9795 50.255C90.6846 50.7082 90.8808 51.6349 90.4176 52.3248C89.9544 53.0148 89.0073 53.2067 88.3021 52.7535C88.5218 52.8947 88.7457 52.9653 88.9739 52.9654L89.1612 52.9542L88.774 53.0008C88.7465 53.0042 88.719 53.0067 88.6913 53.0086C88.6141 53.0137 88.5328 53.0153 88.4474 53.0131L88.4476 53.0131C88.3837 53.0115 88.3164 53.0079 88.2458 53.0022C88.2382 53.0016 88.2303 53.0009 88.2228 53.0001C88.145 52.9927 88.0696 52.9834 87.9966 52.9724C87.9766 52.9693 87.9569 52.9659 87.9371 52.9621C87.7658 52.9293 87.6547 52.9099 87.6039 52.9038L87.6042 52.9039C87.6072 52.9042 87.6111 52.9046 87.6158 52.9051C87.6035 52.9039 87.5924 52.9027 87.5809 52.9014C87.014 52.8364 86.6689 52.7953 86.5456 52.7779L86.5891 52.7834C86.5033 52.7738 86.3969 52.7652 86.2701 52.7576L86.3302 52.76C86.1668 52.7566 86.0548 52.76 85.9943 52.7703L85.9945 52.7702C86.0128 52.7671 86.0375 52.7604 86.0685 52.75C85.2707 53.0178 84.4018 52.602 84.128 51.8212C83.8542 51.0404 84.2792 50.1903 85.0772 49.9224Z" fill="#05276C"/>
<path d="M56.875 42.9193C56.4753 43.2249 56.3193 43.4596 56.2744 43.6081C56.2436 43.7101 56.2355 43.7503 56.2355 43.7832C56.2353 43.8579 56.2545 43.9796 56.2926 44.1995C56.3375 44.4578 56.4002 44.8114 56.3993 45.1718C56.3988 45.3981 56.3737 45.6443 56.296 45.8886C56.0659 46.612 55.3182 47.129 55.1571 47.2453L55.1572 47.2452C55.1342 47.2618 55.127 47.2669 55.1225 47.2704L55.1219 47.2709C55.1209 47.2716 55.1215 47.2712 55.1254 47.2681C55.1037 47.2853 55.0806 47.3009 55.0565 47.3147L54.2456 47.7796L54.2854 47.7546C54.3056 47.7406 54.3164 47.7296 54.315 47.731L54.3149 47.7311C54.3101 47.7359 54.3006 47.7463 54.2684 47.7838L54.2683 47.784C54.2561 47.7981 54.2521 47.8029 54.2379 47.8192C54.2395 47.8174 54.2399 47.8169 54.2401 47.8166L54.2399 47.8168C54.223 47.8386 54.1405 47.9741 54.0632 48.2873C54.1035 48.124 54.015 48.0371 54.0282 48.0513L54.0282 48.0513C54.0285 48.0517 54.0295 48.0527 54.0322 48.0551C53.9203 47.9568 53.8227 47.9789 53.8291 47.9777L53.8262 47.9782L53.8266 47.9782L53.8294 47.9776C54.5461 47.8353 55.2533 47.7279 55.9494 47.7066L55.7699 47.7413C55.9445 47.6773 56.117 47.622 56.2602 47.6002L56.2601 47.6002C56.3117 47.5924 56.4766 47.5671 56.6479 47.6341L56.0351 47.7633C56.2674 47.5271 56.6369 47.3529 57.0379 47.2094C57.0891 47.1911 57.1427 47.1801 57.1971 47.177L58.1759 47.1195L57.8405 47.2539L57.8407 47.2538L57.8484 47.2473C58.0854 47.0522 58.1554 46.9602 58.1694 46.9288L58.1694 46.9287C58.1701 46.9271 58.1688 46.9303 58.1695 46.9286L58.1694 46.9289C58.2694 46.6993 58.2896 46.3845 58.1913 45.9528C58.1778 45.8936 58.1745 45.8326 58.1814 45.7723L58.1814 45.7723C58.1447 46.0923 58.4145 46.2484 58.3219 46.1748L58.3219 46.1748C58.2831 46.1439 58.1422 46.0618 57.8257 45.9041L57.8258 45.9041C57.6807 45.8318 57.5729 45.7293 57.4941 45.6265C57.4089 45.5155 57.3499 45.3946 57.307 45.2846C57.263 45.1716 57.2582 45.0477 57.2935 44.9318L57.2935 44.9318C57.2827 44.9674 57.2826 44.989 57.2827 44.9858C57.285 44.9143 57.2354 44.6564 57.0437 44.1253C57.0209 44.062 57.0101 43.9952 57.0119 43.9281C57.0183 43.6867 57.0344 43.4605 57.078 43.2963L57.0779 43.2964C57.0927 43.2409 57.1302 43.1096 57.2319 42.994L57.103 43.2656L57.103 43.2655L57.0975 43.3121C57.0945 43.3509 57.0985 43.4101 57.1276 43.476L57.2109 43.6089C56.9698 43.3247 56.7433 43.1846 56.5396 43.1289C56.2411 43.0471 56.0668 42.7441 56.1504 42.4521C56.2339 42.16 56.5436 41.9895 56.8421 42.0712C57.3216 42.2025 57.73 42.5012 58.0746 42.9073C58.1087 42.9475 58.1368 42.9922 58.158 43.0402C58.2116 43.1615 58.2251 43.2836 58.217 43.3925L58.2114 43.4391L58.2114 43.4391C58.2081 43.5101 58.161 43.6215 58.0825 43.7107C58.1571 43.626 58.1706 43.5493 58.1644 43.5725L58.1644 43.5725C58.1565 43.6021 58.1405 43.7144 58.134 43.9568L58.1021 43.7595C58.2833 44.2613 58.4143 44.71 58.4047 45.019C58.4027 45.0839 58.3945 45.1629 58.3692 45.2458L58.3558 44.893C58.3758 44.9443 58.3899 44.9646 58.3918 44.9671C58.392 44.9674 58.3749 44.9452 58.3352 44.9254L58.3353 44.9255C58.6201 45.0674 58.8794 45.203 59.0295 45.3222L59.0296 45.3223C59.0261 45.3195 59.3385 45.5317 59.2969 45.8946L59.287 45.714C59.4136 46.2706 59.4278 46.8414 59.2019 47.3597L59.2018 47.36C59.2003 47.3633 59.2 47.3639 59.1986 47.3672L59.1986 47.3672C59.066 47.6652 58.7916 47.9062 58.5709 48.0878L58.5786 48.0813L58.5784 48.0815C58.4784 48.1639 58.3635 48.2088 58.2431 48.2159L57.2642 48.2733L57.4234 48.2409C57.0444 48.3765 56.8865 48.4815 56.844 48.5247C56.6856 48.6858 56.4433 48.7369 56.2312 48.6539C56.3648 48.7062 56.4677 48.6801 56.4325 48.6855L56.4324 48.6855C56.4112 48.6887 56.3306 48.7086 56.1639 48.7697C56.1065 48.7908 56.0458 48.8025 55.9845 48.8044C55.3784 48.8229 54.7407 48.9174 54.0526 49.054L54.0554 49.0534L54.055 49.0535L54.0522 49.054C53.8175 49.1006 53.514 49.0758 53.2825 48.8725C53.2529 48.8465 53.2247 48.8193 53.1979 48.7904L53.1979 48.7904C53.0494 48.6307 52.8914 48.3569 52.972 48.0298C53.0667 47.6458 53.1967 47.3437 53.3481 47.15L53.3479 47.1501C53.3586 47.1364 53.3709 47.1214 53.3826 47.1079C53.3931 47.0959 53.3978 47.0903 53.4089 47.0775L53.4087 47.0777C53.4324 47.0501 53.4734 47.0017 53.5169 46.9587L53.5167 46.9589C53.5466 46.9293 53.5869 46.8926 53.6383 46.8571C53.6511 46.8483 53.6644 46.8399 53.6781 46.8321L54.489 46.3671L54.4202 46.4136C54.4268 46.4084 54.4315 46.4049 54.4339 46.4031L54.4333 46.4035C54.4507 46.3902 54.4742 46.3733 54.4909 46.3613L54.491 46.3612C54.7151 46.1996 55.122 45.8835 55.2242 45.5623C55.2593 45.452 55.2764 45.3212 55.2768 45.1693C55.2774 44.9177 55.2332 44.6556 55.186 44.3834C55.1545 44.2019 55.1125 43.9714 55.1129 43.7807C55.1134 43.5723 55.1684 43.3945 55.1979 43.2969C55.3397 42.8273 55.7089 42.4171 56.1837 42.054C56.428 41.8672 56.7807 41.9095 56.9716 42.1485C57.1624 42.3875 57.1192 42.7326 56.875 42.9193Z" fill="#05276C"/>
<path d="M53.7678 44.722L53.7678 44.722C53.7639 44.7719 53.7722 44.8001 53.7707 44.794L53.7707 44.7941C53.7511 44.7135 53.625 44.511 53.5604 44.4538L53.5603 44.4538C53.556 44.4499 53.5744 44.4677 53.6137 44.4875L53.6136 44.4873C53.8351 44.5989 54.0296 44.4469 53.9155 44.5121L53.9154 44.5121C53.9206 44.5092 53.8078 44.5809 53.6805 44.6081L53.6805 44.608C53.7677 44.5895 53.8119 44.5523 53.8018 44.5598L53.8018 44.5598C53.7822 44.5743 53.7271 44.6264 53.6117 44.7585L53.612 44.7583C53.6854 44.6741 53.7167 44.5751 53.6983 44.6212L53.6983 44.6214C53.6979 44.6222 53.6966 44.6257 53.6935 44.6336L53.6935 44.6337C53.671 44.6922 53.6245 44.8131 53.5328 44.9719C53.4829 45.0584 53.4306 45.1359 53.3924 45.1929L53.3924 45.1928C53.3546 45.2491 53.3316 45.2839 53.3139 45.3146L53.3139 45.3145C53.3062 45.3279 53.3015 45.337 53.2986 45.3433C53.2238 45.5035 53.1905 45.6078 53.176 45.6548C53.1727 45.6653 53.1508 45.7573 53.2466 45.9757C53.2711 46.0316 53.2868 46.0554 53.2893 46.0588L53.2893 46.0588C53.3289 46.1136 53.1364 45.8203 52.7917 45.9651L52.7914 45.9652C52.7542 45.9808 52.7245 45.9991 52.702 46.0158C52.7519 45.9789 52.8078 45.9504 52.8674 45.9315L52.8673 45.9315C52.7659 45.9637 52.7273 46.0099 52.7407 45.9967L52.7409 45.9966C52.7407 45.9968 52.7425 45.995 52.7449 45.9921L52.745 45.9921C52.7738 45.9584 52.798 45.9294 52.8269 45.895L52.827 45.895C52.8533 45.8636 52.8781 45.8341 52.9053 45.8023L52.9052 45.8024C52.9659 45.7314 53.0367 45.6515 53.1149 45.5783L53.1146 45.5786C53.122 45.5717 53.1327 45.5619 53.1417 45.5539L53.5175 45.9618L53.1422 45.5535C53.1824 45.5181 53.2456 45.4674 53.3303 45.4249L53.3302 45.4249C53.4708 45.3544 53.5972 45.246 53.7105 45.1298C53.7808 45.0577 53.7921 44.9499 53.7982 44.9688C53.7049 44.6795 53.8689 44.3711 54.1645 44.2798C54.4601 44.1885 54.7754 44.349 54.8687 44.6382C55.0529 45.2094 54.6774 45.7291 54.5229 45.8876C54.3715 46.0431 54.1439 46.2509 53.8425 46.4022L53.8424 46.4022C53.877 46.3849 53.8947 46.3684 53.8927 46.3702L53.5175 45.9618L53.8932 46.3698C53.8934 46.3696 53.8921 46.3708 53.891 46.3718L53.8907 46.3721C53.859 46.4018 53.8203 46.4437 53.7662 46.5071L53.7661 46.5071C53.7436 46.5335 53.7203 46.5612 53.6943 46.5922L53.6943 46.5922C53.6657 46.6263 53.6388 46.6583 53.6059 46.6969L53.6059 46.6968C53.5837 46.7228 53.5599 46.7483 53.537 46.7708L53.5372 46.7707C53.4617 46.8451 53.3511 46.9326 53.2135 46.9763L53.3788 46.892C53.3383 46.9219 53.2902 46.9509 53.2347 46.9742L53.2345 46.9743C52.7741 47.1677 52.4589 46.8122 52.3727 46.6929L52.3727 46.6929C52.3092 46.6051 52.2578 46.5061 52.2151 46.4088C52.0568 46.048 51.996 45.6788 52.1014 45.3374L52.1014 45.3375C52.1263 45.2567 52.1764 45.1037 52.2775 44.8871C52.2967 44.846 52.3168 44.8086 52.3365 44.7744L52.3365 44.7744C52.3762 44.7057 52.4208 44.6396 52.4541 44.59L52.4542 44.5899C52.4947 44.5295 52.5267 44.4815 52.5555 44.4317C52.6053 44.3454 52.628 44.2857 52.6426 44.2476L52.6426 44.2476C52.645 44.2414 52.6491 44.2307 52.6529 44.2214L52.6528 44.2216C52.6426 44.247 52.6799 44.135 52.7581 44.0453L52.7584 44.045C52.8665 43.9213 52.9943 43.7804 53.1243 43.6841C53.1872 43.6375 53.2965 43.5659 53.4414 43.535C53.3544 43.5535 53.2901 43.5976 53.3497 43.5636L53.3496 43.5636C53.3652 43.5547 53.7251 43.3083 54.1272 43.5108L54.1271 43.5107C54.2071 43.551 54.2701 43.601 54.3134 43.6394L54.3134 43.6393C54.5336 43.8342 54.7865 44.2273 54.8626 44.5392L54.8626 44.5393C54.8791 44.6068 54.8954 44.7012 54.887 44.807C54.863 45.1094 54.593 45.3355 54.2839 45.312C53.9749 45.2885 53.7438 45.0243 53.7678 44.722Z" fill="#05276C"/>
</svg>
