<svg width="113" height="113" viewBox="0 0 113 113" fill="none" xmlns="http://www.w3.org/2000/svg">
<g clip-path="url(#clip0_499_4286)">
<path d="M31.2902 42.2154L31.5841 49.9829L31.5588 49.7727C31.9033 51.4522 32.1274 52.2732 32.22 52.473C32.4869 53.0489 32.1016 51.6464 30.8687 51.8888C30.3882 51.9833 30.1371 52.294 30.0511 52.4198C30.4265 51.8708 31.1597 51.6797 31.7643 51.9733C33.7095 52.9179 35.889 53.5275 38.3144 53.8295C38.7686 53.8861 39.9342 53.9841 41.8411 54.0748L41.5945 54.0853L48.9124 53.1087C49.4732 53.0338 50.0218 53.3111 50.2841 53.802C50.5465 54.293 50.4664 54.8922 50.0838 55.3005C48.5383 56.9499 46.2981 59.6412 46.2934 59.6469C45.3418 60.7904 44.5169 61.6172 43.8496 62.2867C43.3546 62.7832 42.9816 63.1589 42.6751 63.5272C42.6636 63.541 42.6533 63.5534 42.6422 63.567L42.6422 63.567C42.3617 63.9092 41.9712 64.3024 41.597 64.681C41.0585 65.2258 40.4686 65.8238 39.9219 66.4907C39.4292 67.0917 38.9974 67.7184 38.6919 68.363C38.2722 69.2486 37.9911 70.2597 37.7989 70.958C37.7421 71.1645 37.6812 71.3877 37.6283 71.5449C37.8425 70.9084 37.3793 70.5828 37.4235 70.6152C39.4735 72.1198 41.3136 73.5805 42.94 75.0081C42.4863 74.6098 41.8962 74.8561 41.7409 75.0257C41.7317 75.0358 41.7277 75.0413 41.7278 75.0412L41.7278 75.0412C41.7278 75.0412 41.7288 75.0398 41.7306 75.037L41.7306 75.037C46.5765 67.5327 50.6101 61.7155 53.8901 57.6567L53.6253 58.22C53.6018 58.3378 53.5873 58.7063 53.9061 59.0127C50.9897 56.2092 49.1911 54.2538 48.4746 53.2648C48.0824 52.7235 47.7002 52.1766 47.5182 51.7321C47.4707 51.616 47.0155 50.5389 47.9585 49.8379C48.0997 49.7329 48.2606 49.6564 48.4321 49.6126C48.3614 49.6307 48.325 49.6507 48.3294 49.6484L48.3294 49.6484C48.7107 49.4497 49.6674 48.4283 51.7065 46.1695L51.7066 46.1694L52.082 45.7537L52.0822 45.7534C53.5201 44.1618 55.6237 43.9619 57.0781 44.7232C57.1256 44.7481 57.1715 44.7757 57.2156 44.8059L62.0316 48.1097L62.0144 48.0981C62.2367 48.2456 62.4522 48.421 62.639 48.6318C63.2455 49.3161 63.3796 50.1903 63.0053 51.0189L63.0053 51.0189C62.946 51.15 62.8769 51.2739 62.8018 51.3902C62.7695 51.4402 62.7338 51.4881 62.6949 51.5334L56.8175 58.3801C56.3402 58.9361 55.4929 59.008 54.9249 58.5408C54.357 58.0735 54.2835 57.244 54.7608 56.688L60.6381 49.8414L60.5311 49.9846C60.5436 49.9653 60.5482 49.9553 60.5483 49.9551L60.5483 49.9551C60.5017 50.0583 60.5342 50.27 60.6097 50.3552C60.6081 50.3535 60.5813 50.3243 60.5072 50.2752C60.5014 50.2713 60.4956 50.2675 60.4899 50.2635L55.6739 46.9598L55.8113 47.0425C55.4445 46.8505 54.7004 46.8252 54.0947 47.4957L54.0949 47.4955L53.7195 47.9112L53.7196 47.9111C51.9444 49.8776 50.5328 51.4797 49.5915 51.9701C49.4584 52.0394 49.2959 52.1101 49.1098 52.1576L49.5833 51.9324C50.3656 51.3508 49.9115 50.5085 50.0119 50.7535C50.0522 50.8519 50.224 51.1334 50.6659 51.7432C51.2288 52.5202 52.8691 54.3298 55.7884 57.1361C56.3057 57.6334 56.3529 58.2699 56.2619 58.7251C56.2208 58.9308 56.13 59.124 55.9971 59.2884C52.8076 63.2351 48.8348 68.9576 44.0015 76.4423L44.0015 76.4422C43.9758 76.4821 43.9488 76.5216 43.9206 76.5607L43.9206 76.5607C43.8664 76.6357 43.8066 76.71 43.7411 76.7815C43.1347 77.4436 42.0364 77.7474 41.1464 76.9662C39.5902 75.6002 37.8131 74.1883 35.8119 72.7195C35.4107 72.425 34.7498 71.6935 35.0766 70.7222C35.1004 70.6516 35.138 70.5169 35.2049 70.2738C35.391 69.5974 35.7243 68.3758 36.2548 67.2562C36.6816 66.3556 37.2516 65.546 37.8267 64.8445C38.4624 64.0691 39.1362 63.3885 39.6662 62.8522C40.0749 62.4387 40.3624 62.1459 40.5469 61.9209L40.5469 61.9209C40.5623 61.9021 40.5768 61.8846 40.5922 61.8661C40.9896 61.3885 41.4536 60.9245 41.9269 60.4498C42.5889 59.7857 43.3409 59.0308 44.2106 57.9857C44.206 57.9913 46.4961 55.2387 48.104 53.5227L49.2753 55.7146L41.9574 56.6912C41.8757 56.7021 41.7932 56.7056 41.7108 56.7017C39.7879 56.6103 38.5372 56.5084 37.9754 56.4385C35.2997 56.1053 32.8236 55.4235 30.5704 54.3293L32.2837 53.8828C32.1765 54.0395 31.9026 54.3681 31.3976 54.4673C30.0896 54.7245 29.6134 53.2142 29.7734 53.5595C29.5246 53.0226 29.2455 51.8538 28.9248 50.2905C28.9106 50.2212 28.9021 50.1509 28.8994 50.0803L28.6054 42.3128C28.578 41.587 29.1567 40.9769 29.8981 40.95C30.6394 40.9231 31.2627 41.4897 31.2902 42.2154Z" fill="black"/>
<path d="M57.3317 58.2851C57.3345 58.2577 57.3345 58.2362 57.3317 58.2208C57.3348 58.2376 57.3441 58.2639 57.3595 58.2996L57.3325 58.2412C57.7904 59.1683 58.1332 59.9035 58.361 60.4466L58.2079 60.1768C58.9264 61.1523 60.0402 63.3477 61.549 66.763L61.4784 66.6258L62.9461 69.1055C62.9708 69.1473 62.9932 69.1904 63.0131 69.2346L66.1042 76.1039C66.115 76.1277 66.125 76.1519 66.1342 76.1763C65.884 75.5165 65.4402 75.3024 64.8029 75.534C64.7869 75.5398 64.7748 75.5448 64.7665 75.5491C64.8213 75.521 64.9111 75.4547 65.0358 75.3499L64.9853 75.3946L70.8103 69.9799L70.7747 70.0141C70.5284 70.2608 70.4639 70.5478 70.5812 70.8753L70.5901 70.8992C69.2663 67.4212 67.563 64.3256 65.4803 61.6123C65.4779 61.6092 65.4754 61.6059 65.473 61.6027C64.8326 60.7524 64.3279 60.1576 63.9588 59.8181L63.9891 59.845L59.6332 56.0761L59.7053 56.1343C59.1608 55.7254 58.9454 55.1732 59.0591 54.4776C59.1763 53.7604 59.8651 53.2721 60.5977 53.3868C61.3303 53.5016 61.8291 54.1759 61.7119 54.8931C61.7669 54.5566 61.643 54.2747 61.3404 54.0474C61.3651 54.066 61.3891 54.0854 61.4124 54.1055L65.7683 57.8744C65.7785 57.8833 65.7885 57.8923 65.7985 57.9014C66.2861 58.35 66.8984 59.0635 67.6354 60.042L67.628 60.0324C69.8667 62.9487 71.6932 66.2649 73.1075 69.981C73.1106 69.9889 73.1135 69.9969 73.1164 70.0049C73.3672 70.7049 73.2269 71.3209 72.6957 71.8528C72.6841 71.8644 72.6722 71.8758 72.6602 71.887L66.8352 77.3018C66.8187 77.3171 66.8019 77.332 66.7846 77.3464C66.5049 77.5813 66.2471 77.759 66.0115 77.8797C65.9194 77.9268 65.8282 77.9668 65.738 77.9996C64.6962 78.3782 63.9888 78.0756 63.6156 77.0917L63.6457 77.1642L60.5545 70.2949L60.6215 70.424L59.1538 67.9443C59.1276 67.8999 59.104 67.8541 59.0832 67.807C57.6516 64.5667 56.6335 62.536 56.0288 61.7151C55.9671 61.6314 55.9157 61.5408 55.8757 61.4454C55.6686 60.9515 55.348 60.2651 54.9138 59.386C54.9043 59.3667 54.8952 59.3472 54.8867 59.3275C54.7922 59.1096 54.7256 58.8948 54.687 58.6831L54.687 58.6831C54.6458 58.4573 54.6364 58.2361 54.6588 58.0197C54.7337 57.2972 55.3927 56.7708 56.1308 56.8441C56.8689 56.9174 57.4065 57.5625 57.3317 58.2851Z" fill="black"/>
<path d="M62.1053 52.9265C63.677 53.3916 66.4535 53.9927 67.0577 54.0335C67.4866 54.0625 70.1974 54.0332 72.2867 53.7386C72.8712 53.6561 73.6395 53.607 74.3837 53.5586C75.2802 53.5002 76.1876 53.4405 76.9632 53.3331C77.0655 53.3189 77.1987 53.3011 77.3473 53.2813C77.5616 53.2526 77.8188 53.2183 78.1008 53.1792C79.2276 53.0232 80.5868 52.8126 81.2307 52.62C81.214 52.625 81.2056 52.6282 81.2066 52.6278L81.2065 52.6279C81.6351 52.4695 82.9653 51.6226 83.1966 51.2408L83.1966 51.2409C83.1965 51.241 83.1955 51.2427 83.193 51.2474C83.5324 50.6016 84.3423 50.3474 85.002 50.6796C85.6617 51.0119 85.9213 51.8047 85.582 52.4505C85.5581 52.4958 85.5324 52.5411 85.5074 52.5824L85.5073 52.5825C84.8046 53.7423 82.7671 54.8623 82.1552 55.0884L82.1551 55.0885C82.114 55.1037 82.0664 55.1201 82.0156 55.1353C81.1285 55.4006 79.5381 55.6363 78.4772 55.7833C78.1869 55.8235 77.9252 55.8584 77.7103 55.8871C77.5591 55.9073 77.4337 55.9241 77.3395 55.9371C76.4465 56.0608 75.434 56.126 74.562 56.1828C73.7768 56.2339 73.1285 56.277 72.6698 56.3417C70.4092 56.6605 67.5074 56.7002 66.8726 56.6573C65.9477 56.5947 62.9268 55.9171 61.328 55.444C60.6179 55.2339 60.2162 54.5 60.4309 53.8048C60.6455 53.1096 61.3952 52.7164 62.1053 52.9265Z" fill="black"/>
<path d="M60.0169 47.525C60.2524 47.3254 60.5075 47.2165 60.6849 47.1546C61.1999 46.9749 61.8695 46.9329 62.1799 46.9086C62.3814 46.8929 62.4785 46.8843 62.5283 46.8765C62.7002 46.8497 62.8942 46.8182 63.1124 46.7828C63.3799 46.7394 63.6824 46.6903 64.0165 46.638C65.4527 46.4134 67.4749 46.1299 70.0924 45.941C71.5394 45.8366 72.7887 45.7594 73.8335 45.6949C74.5946 45.648 75.2402 45.6081 75.7818 45.569C76.7001 45.5027 77.191 45.4456 77.3981 45.3945C77.995 45.2473 78.927 44.9155 79.9692 44.5424C80.4504 44.3701 80.9468 44.1924 81.4071 44.0362C81.9065 43.8667 82.2525 43.4701 82.2999 43.3443C82.3024 43.3375 82.2748 43.4047 82.2893 43.5261L82.2893 43.5262C82.3131 43.7249 82.3849 43.8338 82.3674 43.8029C82.0388 43.2208 79.6326 41.083 78.4792 40.4314C74.568 38.222 72.423 37.2999 71.9847 37.2068C71.9258 37.1942 72.0911 37.243 72.3324 37.2019C72.0749 37.2458 71.8098 37.2152 71.5698 37.1138C70.2874 36.5721 68.1799 36.0738 65.1552 35.657C64.4206 35.5558 63.9089 34.8907 64.0123 34.1715C64.1157 33.4524 64.795 32.9514 65.5297 33.0527C68.6122 33.4774 71.0109 34.0134 72.6341 34.699L71.8716 34.6109C72.1828 34.5578 72.4601 34.6165 72.5545 34.6366C73.4857 34.8344 76.017 36.0041 79.8219 38.1535C81.1647 38.912 84.0504 41.3468 84.7188 42.5307C84.7934 42.6629 84.9206 42.9109 84.9576 43.2202L84.9576 43.2203C85.004 43.6084 84.9297 43.9641 84.8207 44.2535L84.8208 44.2535C84.4333 45.283 83.3601 46.1569 82.2872 46.521C81.8524 46.6686 81.3778 46.8385 80.8919 47.0124C79.9108 47.3636 78.8203 47.7559 78.0546 47.9448C77.5768 48.0626 76.8362 48.13 75.9794 48.1919C75.4204 48.2322 74.759 48.273 74.0026 48.3197C72.9577 48.3842 71.721 48.4606 70.2899 48.5639C67.7713 48.7457 65.8286 49.018 64.4404 49.2351C64.1153 49.2859 63.8194 49.3339 63.5517 49.3774C63.336 49.4124 63.1329 49.4453 62.9522 49.4736C62.7727 49.5017 62.5503 49.5181 62.3935 49.5303C61.9493 49.565 61.6918 49.5954 61.5871 49.6319C61.5689 49.6382 61.6589 49.612 61.7751 49.5135C61.2142 49.9888 60.3659 49.929 59.8804 49.3798C59.3949 48.8307 59.456 48.0003 60.0169 47.525Z" fill="black"/>
<path d="M83.6122 41.668C83.9403 41.7842 84.1975 41.9867 84.3833 42.1731L84.3833 42.1731C84.8486 42.6398 85.2286 43.3664 85.4733 44.3376C85.7643 45.4929 85.7498 48.4102 85.7485 49.5947C85.7481 49.9519 85.7483 50.1523 85.7508 50.2105L85.7508 50.2109C85.7511 50.2172 85.7505 50.1956 85.7467 50.1603C85.7509 50.1995 85.7533 50.2389 85.7539 50.2784L85.7656 51.0605L85.7628 50.9917C85.8059 51.621 85.6055 52.1499 85.5391 52.3378C85.5218 52.3869 85.5169 52.4011 85.5145 52.4087L85.5146 52.4086C85.4934 52.476 85.5655 52.2955 85.5486 52.0481L85.5485 52.0457C85.5464 52.016 85.5432 51.9862 85.5388 51.9564C85.6435 52.6754 85.1331 53.3413 84.3986 53.4438C83.6642 53.5464 82.9839 53.0466 82.8792 52.3276C82.8743 52.2939 82.8706 52.2596 82.8682 52.2258L82.868 52.2233C82.8475 51.9223 82.9376 51.6646 82.9468 51.6353L82.9468 51.6352C82.9656 51.5755 82.9874 51.5142 83.0002 51.4781C83.076 51.2635 83.0845 51.2014 83.0822 51.1678C83.0807 51.1449 83.0797 51.1219 83.0794 51.099L83.0677 50.3169L83.0749 50.435C83.0695 50.3852 83.0675 50.3411 83.0666 50.3196L83.0666 50.3201C83.061 50.1884 83.0617 49.904 83.062 49.5919C83.0635 48.1832 83.0547 45.7207 82.8649 44.9673C82.691 44.277 82.4835 44.0329 82.4609 44.0103L82.4609 44.0103C82.4455 43.9949 82.5185 44.0775 82.6981 44.1411C82.0005 43.894 81.6396 43.1401 81.892 42.4572C82.1444 41.7742 82.9146 41.4209 83.6122 41.668Z" fill="black"/>
<path d="M31.1246 41.4741C31.682 42.214 32.6101 42.9859 33.9086 43.79C34.0284 43.8641 34.1354 43.9563 34.2257 44.0633C34.1528 43.9769 34.083 43.9138 34.0164 43.8739C34.3485 44.0726 35.5916 44.5183 37.7457 45.2112L37.6556 45.1856C38.2055 45.3216 38.54 45.3983 38.6593 45.4157C38.6194 45.4098 38.5701 45.4075 38.5115 45.4085C38.567 45.4075 38.6225 45.4099 38.6777 45.4157C40.2359 45.5781 41.5908 45.7728 42.7425 45.9996L42.627 45.982L46.2834 46.3828C46.3332 46.3883 46.3826 46.3965 46.4315 46.4073C46.8468 46.4997 47.1976 46.5684 47.484 46.6135L47.3338 46.5983C48.4433 46.6493 49.5305 46.7288 50.5956 46.8369C51.3335 46.9118 51.8697 47.5581 51.7932 48.2805C51.7167 49.0029 51.0565 49.5278 50.3186 49.4529C49.3037 49.3499 48.2668 49.2741 47.2077 49.2254C47.1574 49.2231 47.1073 49.218 47.0575 49.2102C46.7145 49.1562 46.3074 49.0768 45.8362 48.972L45.9843 48.9965L42.328 48.5956C42.2893 48.5914 42.2508 48.5855 42.2126 48.578C41.1421 48.3671 39.869 48.1848 38.3931 48.0309L38.5593 48.0381C38.4697 48.0396 38.3714 48.0326 38.2646 48.0171C38.0566 47.9869 37.6341 47.8929 36.9973 47.7354C36.967 47.7279 36.9369 47.7193 36.9072 47.7098C34.5556 46.9534 33.1251 46.4229 32.6156 46.1182C32.4267 46.0052 32.2733 45.8789 32.1555 45.7394L32.4726 46.0127C30.8897 45.0326 29.7197 44.0401 28.9625 43.0352C28.5222 42.4508 28.6492 41.6275 29.2462 41.1964C29.8433 40.7653 30.6842 40.8896 31.1246 41.4741Z" fill="black"/>
<path d="M28.7164 41.7093C29.0059 41.0252 29.3262 40.4514 29.6793 40.0712L29.6793 40.0711C29.6958 40.0534 29.7126 40.0358 29.7299 40.0182L29.7299 40.0182C30.7795 38.9509 31.7197 38.1289 32.5366 37.6705C32.5598 37.6575 32.5704 37.6516 32.5958 37.6373L32.5958 37.6373C32.6206 37.6234 32.6402 37.6123 32.6675 37.597C32.9366 37.446 33.3304 37.2278 33.8551 36.97C33.9912 36.9032 34.1379 36.8595 34.2889 36.8408L34.2889 36.8408C34.2013 36.8516 34.1496 36.8692 34.1626 36.8652C34.249 36.8388 34.4734 36.7439 34.989 36.5195C35.5999 36.2538 36.4778 35.8718 37.6292 35.4231C39.4018 34.7323 42.8807 33.8507 46.2076 33.4121C46.2178 33.4107 46.2281 33.4095 46.2384 33.4084C53.2288 32.6471 56.8382 32.6083 56.884 32.6078L56.8982 33.9227L56.8843 32.6078C60.0125 32.5761 64.6119 32.9663 65.0819 33.0212C65.8186 33.1073 66.3445 33.7616 66.2566 34.4828C66.1687 35.2039 65.5002 35.7187 64.7636 35.6327C64.3707 35.5868 59.892 35.2074 56.9121 35.2376L56.8982 33.9227L56.9124 35.2376C56.9542 35.2372 53.4345 35.271 46.5354 36.0223L46.5662 36.0185C43.3959 36.4365 40.141 37.2749 38.6229 37.8666C37.5233 38.2951 36.6855 38.6595 36.08 38.9229C35.658 39.1065 35.2407 39.2907 34.9647 39.3753C34.8912 39.3978 34.7689 39.4323 34.6263 39.4499L35.0601 39.3207C34.5992 39.5471 34.2539 39.7383 34.0034 39.8788C33.9742 39.8952 33.9613 39.9024 33.9335 39.9181L33.9336 39.918C33.9087 39.932 33.8964 39.9389 33.8726 39.9523C33.4072 40.2134 32.6874 40.8029 31.6653 41.8422L31.6654 41.8422C31.6665 41.8411 31.6672 41.8403 31.6671 41.8404L31.6671 41.8404C31.6257 41.885 31.4473 42.1276 31.1984 42.7158C30.9145 43.3868 30.1287 43.7054 29.4433 43.4275C28.7579 43.1495 28.4325 42.3803 28.7164 41.7093Z" fill="black"/>
<path d="M37.9176 44.4991C37.3193 44.4912 36.9257 44.9221 37.143 44.7417L37.143 44.7418C37.1823 44.7091 37.2998 44.597 37.5477 44.3427L37.5477 44.3427C37.6448 44.243 37.7417 44.1697 37.7985 44.1285C37.8791 44.0699 37.9704 44.011 38.0281 43.9736L38.0281 43.9736C38.0626 43.9512 38.0959 43.9295 38.1295 43.9072L38.1295 43.9073C38.4275 43.7101 38.9091 43.4478 39.6111 43.2188C40.5051 42.9272 41.3606 42.7561 42.0981 42.6161L42.0568 42.6246C44.5471 42.0722 45.1543 41.8863 45.1051 41.9011C45.8143 41.6878 46.5658 42.0776 46.7837 42.7719C47.0016 43.4661 46.6034 44.2018 45.8943 44.4151C45.8452 44.4299 45.1596 44.6329 42.6506 45.1896C42.6369 45.1926 42.6231 45.1955 42.6093 45.1981C41.8841 45.3357 41.1761 45.4805 40.4602 45.714C39.9954 45.8656 39.7336 46.0203 39.6337 46.0864L39.6336 46.0864C39.5891 46.1159 39.5478 46.1427 39.5139 46.1647L39.5139 46.1647C39.4356 46.2156 39.4114 46.2318 39.3999 46.2402C39.3907 46.2468 39.4339 46.2172 39.4912 46.1585L39.4912 46.1584C39.2672 46.3883 39.0487 46.6081 38.8805 46.7477C38.9864 46.6598 38.5183 47.1373 37.8813 47.1288C37.1395 47.119 36.5462 46.5224 36.5563 45.7962C36.5663 45.07 37.1758 44.4892 37.9176 44.4991Z" fill="black"/>
<path d="M73.8222 47.0789L73.8229 47.0795L73.8225 47.0792L73.8214 47.0782C73.7558 47.0192 73.6784 46.9431 73.6211 46.8871C73.5102 46.7787 73.3779 46.6496 73.2164 46.5046C72.864 46.1885 72.3881 45.8118 71.8081 45.5082C66.6555 42.811 63.6645 43.3863 63.9314 43.3423C63.8096 43.3624 63.6856 43.3659 63.5629 43.3528C61.459 43.1284 58.004 43.2342 54.6206 43.3762C51.6213 43.5021 46.9604 44.1205 45.5135 44.4977C44.7967 44.6846 44.0607 44.2672 43.8698 43.5654C43.6789 42.8636 44.1052 42.1432 44.8221 41.9563C46.5294 41.5111 51.4037 40.8788 54.5055 40.7486C57.8246 40.6093 61.5047 40.4877 63.8539 40.7383L63.4854 40.7488C63.7522 40.7048 67.3531 40.1938 73.0749 43.189C73.9208 43.6318 74.5815 44.1619 75.0316 44.5658C75.2396 44.7524 75.4071 44.9163 75.5194 45.0261C75.5953 45.1003 75.6243 45.1282 75.6375 45.1401L75.6364 45.1391L75.6368 45.1394C76.1844 45.6308 76.2214 46.4626 75.7201 46.998C75.2188 47.5334 74.3691 47.5696 73.8222 47.0789Z" fill="black"/>
<path d="M54.9986 79.2221C54.7598 80.3611 54.1948 81.4552 53.3429 82.4846C52.9925 82.908 52.6226 83.198 52.3463 83.4011L52.3463 83.4011C52.2692 83.4578 52.1932 83.5046 52.1266 83.5425L52.1266 83.5425C51.8045 83.7255 51.3357 83.8996 50.8041 84.0678C51.3009 83.9106 51.5592 83.4716 51.5892 83.0994L51.5601 82.7058C51.5019 82.454 51.2806 82.0678 50.8034 81.9225L50.4023 81.8632C51.2019 81.8619 51.9403 82.1489 52.5951 82.5777C53.1658 82.9515 53.7046 83.3621 54.0404 83.8083L54.0403 83.8081C54.0563 83.8294 54.0719 83.8507 54.0875 83.8729L53.6581 83.4835C53.9663 83.6593 54.149 83.9334 54.162 83.9513L54.1621 83.9513C54.3654 84.2309 54.6575 84.7642 55.0033 85.4319C55.0628 85.5467 55.1047 85.6695 55.1278 85.7962L55.4093 87.3454L52.7442 87.5353C52.7985 85.8084 53.5249 84.3995 53.5492 84.3522C53.6288 84.1975 53.7235 84.0696 53.8028 83.9738C54.4524 83.1887 56.2654 82.0837 57.2781 81.8612C57.3523 81.845 57.4343 81.8302 57.5219 81.8201L57.5384 84.4341C56.4065 84.3183 55.3279 83.8791 54.4852 82.988L54.4852 82.988C54.4493 82.9501 54.4159 82.9122 54.3846 82.8747L54.3846 82.8747C53.8698 82.2584 53.3658 81.0006 52.823 79.5498C52.5679 78.8679 52.9258 78.1126 53.6224 77.8628C54.319 77.613 55.0906 77.9634 55.3457 78.6454C55.9571 80.2795 56.3055 81.0197 56.4643 81.2097L56.4643 81.2097C56.4644 81.2099 56.4619 81.2068 56.4568 81.2014L56.4567 81.2014C56.7878 81.5515 57.2254 81.7578 57.8176 81.8183C58.4985 81.888 59.017 82.4479 59.0212 83.1181C59.0255 83.7883 58.5141 84.3544 57.8341 84.4323C57.856 84.4298 57.8675 84.4272 57.8663 84.4275H57.8663C57.4467 84.5196 56.161 85.3022 55.8902 85.6294C55.8851 85.6355 55.9138 85.6029 55.9485 85.5354C55.9729 85.488 55.4653 86.4772 55.4295 87.6162C55.4083 88.2896 54.8707 88.8384 54.1843 88.8873C53.498 88.9362 52.8849 88.4694 52.7643 87.8061L52.4827 86.257L52.6072 86.6213C52.2366 85.9058 52.0371 85.5642 51.9737 85.477L51.9737 85.477C51.9115 85.3915 52.0368 85.6026 52.3055 85.7558C52.1349 85.6585 51.9883 85.5255 51.8761 85.3664C51.8771 85.3678 51.8776 85.3684 51.8777 85.3686L51.8776 85.3684C51.8359 85.3131 51.6339 85.1125 51.1012 84.7637C50.752 84.5349 50.5282 84.493 50.4065 84.4932C50.2705 84.4934 50.1352 84.4734 50.0054 84.4338C49.3672 84.2395 49.0429 83.7319 48.9399 83.2866C48.9101 83.1575 48.9003 83.0248 48.9109 82.8929C48.9544 82.3523 49.3012 81.7794 49.9777 81.5653C50.4915 81.4027 50.7232 81.299 50.7782 81.2678L50.7781 81.2678C50.7807 81.2663 50.7628 81.2761 50.7333 81.2979L50.7333 81.2978C50.9426 81.144 51.1094 81.0055 51.2553 80.8291C51.8875 80.0652 52.2297 79.348 52.3669 78.6933C52.5161 77.9819 53.2261 77.5235 53.9529 77.6696C54.6796 77.8156 55.1478 78.5107 54.9986 79.2221Z" fill="black"/>
<path d="M53.324 81.2747L53.324 81.2747C53.2463 81.1466 53.1822 80.9985 53.1319 80.8302L53.1319 80.8302C53.124 80.8037 53.1163 80.7764 53.1088 80.7483L53.1117 80.7589C53.0935 80.6929 53.0783 80.6202 53.0661 80.541L53.0661 80.5411C53.0549 80.468 53.0449 80.3816 53.0363 80.2817L53.0442 80.3516C53.0485 80.3817 53.053 80.4058 53.0578 80.4239L53.0579 80.4239C53.0578 80.4238 53.0578 80.4237 53.0577 80.4235L53.0893 80.5228L52.9254 80.0709C52.9041 80.0121 52.8871 79.9518 52.8745 79.8907C52.8515 79.779 52.8157 79.6588 52.7672 79.5302C52.7553 79.4987 52.7446 79.4668 52.7352 79.4344L52.7351 79.434C52.7321 79.424 52.7292 79.4137 52.7263 79.4031L52.7263 79.4029C52.7091 79.3407 52.6861 79.2465 52.6572 79.1203L52.7454 79.3775C52.6745 79.225 52.6322 79.0514 52.6186 78.8566C52.6128 78.7734 52.6091 78.6541 52.6076 78.4989L52.6174 78.6456C52.5935 78.4534 52.5792 78.3019 52.5747 78.191V78.1909C52.5736 78.1651 52.573 78.1403 52.5728 78.1166C52.5728 78.1064 52.5728 78.0962 52.573 78.086L52.5805 77.6134L52.5963 77.8362L52.5699 77.6697C52.4558 76.9521 52.9576 76.2798 53.6906 76.1682C54.4237 76.0565 55.1104 76.5477 55.2245 77.2653L55.251 77.4318C55.2627 77.5055 55.268 77.58 55.2668 77.6546L55.2592 78.1272L55.2593 78.0965C55.2593 78.0922 55.2592 78.0887 55.2591 78.0863L55.2591 78.0862C55.2607 78.1255 55.2691 78.2056 55.2842 78.3266C55.2903 78.3753 55.2935 78.4243 55.294 78.4733C55.2951 78.5773 55.2967 78.6452 55.2989 78.6771C55.2904 78.5545 55.2542 78.4247 55.1904 78.2876C55.2288 78.3701 55.2584 78.4563 55.2787 78.5449C55.2992 78.6345 55.313 78.6922 55.3201 78.7179L55.3201 78.7178C55.3199 78.7172 55.3196 78.716 55.3191 78.7143L55.287 78.6181C55.3839 78.8747 55.4576 79.1258 55.5082 79.3713L55.4572 79.1911L55.6211 79.643C55.6329 79.6757 55.6434 79.7088 55.6526 79.7423C55.6545 79.7493 55.6564 79.7562 55.6582 79.763L55.6582 79.7631C55.6795 79.8435 55.6952 79.919 55.7053 79.9897C55.7086 80.0129 55.7112 80.0362 55.7132 80.0596C55.7169 80.1024 55.7201 80.1321 55.7226 80.1486L55.7226 80.1487C55.7197 80.1296 55.7141 80.105 55.7058 80.0751C55.7068 80.0787 55.7078 80.0821 55.7087 80.0857C55.7094 80.0882 55.7099 80.0901 55.7102 80.0913L55.7102 80.0912C55.697 80.0469 55.6714 79.9935 55.6336 79.9312C56.0126 80.5556 55.8028 81.3625 55.165 81.7335C54.5272 82.1045 53.703 81.8991 53.324 81.2747Z" fill="black"/>
<path d="M55.9219 83.8737C55.9142 84.031 55.8849 84.1853 55.8341 84.3368C55.8261 84.3606 55.8174 84.3842 55.808 84.4075C55.7481 84.5567 55.7111 84.6546 55.697 84.7013C55.7057 84.6724 55.7134 84.6354 55.7202 84.5902C55.7144 84.629 55.7068 84.6676 55.6975 84.7058C55.6994 84.6978 55.7013 84.6871 55.7031 84.6738L55.7112 84.5958C55.7031 84.7069 55.6954 84.7929 55.6882 84.8537L55.6882 84.8539C55.683 84.8971 55.6771 84.9367 55.6705 84.9728C55.6674 84.9896 55.6639 85.0064 55.6601 85.0231C55.6436 85.0963 55.6332 85.1445 55.6291 85.1679L55.6291 85.1678C55.6382 85.1161 55.6426 85.0554 55.6422 84.9858C55.6425 85.0328 55.6402 85.0798 55.6353 85.1266L55.6353 85.1266C55.6353 85.1271 55.6353 85.127 55.6353 85.1264L55.6353 85.1265C55.6341 85.1387 55.6328 85.1603 55.6313 85.1915L55.6326 85.1511L55.6325 85.1517L55.6325 85.1569C55.6289 85.3355 55.625 85.4594 55.6209 85.5287L55.6209 85.5286C55.6177 85.5811 55.613 85.629 55.6066 85.6721L55.6198 85.5238C55.6184 85.5705 55.6143 85.6217 55.6077 85.6773L55.6077 85.6773C55.5994 85.7469 55.5838 85.8494 55.5609 85.9847L55.5683 85.9351C55.5641 85.9674 55.5615 85.9897 55.5604 86.0018L55.5606 86.0004C55.5605 86.0011 55.5605 86.0015 55.5604 86.0019C55.5597 86.0105 55.5589 86.019 55.558 86.0275L55.5634 85.9571L55.5634 85.9571L55.558 86.0277C55.5582 86.0263 55.5583 86.0252 55.5583 86.0244L55.5583 86.0246C55.5538 86.073 55.5463 86.2064 55.5359 86.4246C55.5355 86.4323 55.5351 86.44 55.5346 86.4477C55.5298 86.5203 55.5256 86.5759 55.522 86.6146L55.522 86.6144C55.5207 86.628 55.5194 86.6408 55.518 86.653L55.522 86.6117C55.5209 86.6254 55.5197 86.6393 55.5183 86.6534L55.5183 86.6531C55.5094 86.7443 55.4917 86.8695 55.465 87.0287L55.4778 86.9279L55.461 87.1215C55.459 87.145 55.4563 87.1684 55.4529 87.1918L55.4566 87.1636L55.4566 87.1637L55.4529 87.1919C55.4429 87.2625 55.4356 87.3311 55.431 87.3977C55.4303 87.408 55.4295 87.4184 55.4285 87.4288L55.4285 87.429C55.4237 87.4809 55.4157 87.5372 55.4045 87.5978C55.3928 87.661 55.3759 87.7383 55.3538 87.83L55.3694 87.7558C55.3727 87.7374 55.375 87.7181 55.3763 87.698L55.3768 87.6902L55.3445 88.2465L55.3466 88.1846L55.3437 88.4688L55.3433 88.4217C55.3456 88.5078 55.3476 88.5635 55.3493 88.5887C55.3473 88.5579 55.3423 88.5215 55.3346 88.4797C55.467 89.1943 54.9827 89.8787 54.2527 90.0084C53.5228 90.1381 52.8237 89.6639 52.6912 88.9493C52.6808 88.8935 52.6733 88.8315 52.6687 88.7632C52.6646 88.7029 52.6609 88.6119 52.6577 88.4903C52.6573 88.4746 52.6571 88.4589 52.6573 88.4431L52.6601 88.1589C52.6603 88.1383 52.661 88.1177 52.6622 88.097L52.6946 87.5408L52.6951 87.533C52.7001 87.4551 52.7096 87.377 52.7237 87.2987C52.7282 87.2738 52.7334 87.249 52.7394 87.2245C52.7505 87.1784 52.7576 87.147 52.7608 87.13C52.7579 87.1457 52.7553 87.1661 52.7529 87.1913L52.7504 87.2226C52.7592 87.093 52.7732 86.9616 52.7921 86.8284L52.7884 86.8566L52.7885 86.8564L52.7841 86.8985L52.8009 86.7048C52.8039 86.671 52.8081 86.6374 52.8137 86.604C52.8307 86.5028 52.8407 86.4358 52.8439 86.4031L52.8439 86.4028C52.8438 86.4036 52.8437 86.405 52.8436 86.4069C52.8447 86.3932 52.846 86.3794 52.8475 86.3657C52.8471 86.3695 52.8468 86.3725 52.8466 86.3747L52.8466 86.3744C52.848 86.3595 52.8503 86.3275 52.8536 86.2784L52.8523 86.3015C52.8646 86.0444 52.8748 85.8723 52.8829 85.7852L52.8829 85.7855C52.8837 85.7766 52.8845 85.7681 52.8854 85.7598L52.88 85.8304L52.88 85.8304L52.883 85.7856C52.8831 85.7836 52.8833 85.7817 52.8835 85.7798L52.8836 85.7785C52.8877 85.7307 52.8942 85.6729 52.903 85.605C52.9051 85.5885 52.9076 85.5719 52.9104 85.5554C52.9263 85.4613 52.9359 85.4002 52.9393 85.372V85.3719C52.937 85.391 52.9354 85.4147 52.9345 85.4432C52.9361 85.3935 52.9405 85.344 52.9478 85.2949C52.9432 85.326 52.9402 85.3528 52.9389 85.3752L52.9389 85.3751C52.941 85.3397 52.9435 85.2497 52.9464 85.1052L52.9463 85.1104L52.9463 85.1098C52.9467 85.0929 52.9471 85.0812 52.9476 85.0695C52.9512 84.9931 52.9559 84.9263 52.9617 84.869L52.9617 84.8691C52.962 84.8657 52.9623 84.8628 52.9625 84.8605L52.9557 85.0012C52.9552 84.9147 52.9639 84.8204 52.982 84.7183L52.9821 84.7182C52.9933 84.6548 53.0117 84.5666 53.0373 84.4537L53.0269 84.5041C53.0234 84.523 53.021 84.5385 53.0195 84.5507L53.0195 84.5509C53.0222 84.5282 53.0262 84.4804 53.0315 84.4074C53.0335 84.3814 53.0362 84.3553 53.0397 84.3295C53.05 84.2527 53.065 84.1741 53.0847 84.0938L53.0619 84.2094C53.0737 84.1305 53.0935 84.0453 53.1212 83.9538C53.1573 83.8344 53.2195 83.6649 53.3078 83.4452L53.2817 83.516C53.2568 83.5903 53.2423 83.6674 53.2384 83.7474C53.274 83.022 53.9036 82.4622 54.6446 82.497C55.3857 82.5319 55.9575 83.1482 55.9219 83.8737Z" fill="black"/>
<path d="M53.7943 81.9596C53.7923 81.9595 53.7902 81.9594 53.7881 81.9594C53.5475 81.9513 53.3458 82.1357 53.3376 82.3712C53.3347 82.453 53.3331 82.5311 53.3328 82.6056L53.3322 82.6056C53.2884 82.714 53.2921 82.8357 53.3417 82.9411L53.3411 82.941C53.3504 83.0966 53.3675 83.2292 53.3924 83.3389C53.3938 83.3451 53.3954 83.3512 53.397 83.3572C53.4411 83.5176 53.5123 83.67 53.6106 83.8144C53.6205 83.829 53.6314 83.843 53.6316 83.843L53.6321 83.8431L53.6529 83.8671C53.6713 83.8866 53.6893 83.9045 53.7072 83.9208C53.7693 83.9775 53.8339 84.0188 53.9008 84.0448C53.9457 84.0623 53.993 84.0722 54.0406 84.0745C54.089 84.0767 54.1376 84.0711 54.1847 84.0576C54.4027 83.9948 54.5163 83.8462 54.5256 83.6118L54.5252 83.6118C54.5316 83.516 54.5218 83.4196 54.4957 83.3225C54.4952 83.3209 54.4948 83.3193 54.4944 83.3178L54.4943 83.3176C54.4752 83.2461 54.4319 83.1311 54.3646 82.9726L54.364 82.9711C54.3114 82.8487 54.2583 82.7447 54.2047 82.6591L54.2041 82.6591C54.204 82.5798 54.2055 82.4935 54.2088 82.4004C54.2169 82.1669 54.0319 81.9708 53.7943 81.9596Z" fill="black"/>
<path d="M53.7066 82.21C53.8038 82.3147 53.8637 82.4039 53.8862 82.4776L53.8855 82.4776C53.9083 82.6019 53.9112 82.7054 53.8945 82.788C53.8645 82.7229 53.8354 82.6686 53.8072 82.625C53.7796 82.5822 53.7497 82.545 53.7176 82.5133L53.717 82.5133C53.7073 82.5029 53.6976 82.493 53.6879 82.4836L53.6873 82.4835C53.7226 82.4006 53.7315 82.3062 53.7067 82.2125C53.7064 82.2117 53.7062 82.2108 53.706 82.21L53.7066 82.21ZM53.5451 81.1693C53.515 81.1679 53.4853 81.1686 53.4559 81.1715L53.4553 81.1715C53.1323 81.1884 52.9267 81.356 52.8385 81.6745L52.839 81.6745C52.8205 81.7239 52.8073 81.7769 52.7996 81.8333C52.7782 81.9893 52.7993 82.1873 52.863 82.4271C52.8715 82.4593 52.8836 82.4896 52.8987 82.5179L52.8981 82.5178C52.8867 82.536 52.8767 82.555 52.8682 82.5748C52.8172 82.6929 52.8187 82.823 52.8726 82.9651C52.8944 83.0226 52.9279 83.0905 52.973 83.1688L52.9739 83.1704C52.9967 83.2095 53.0185 83.2459 53.0394 83.2795L53.0388 83.2795C53.0515 83.3534 53.0706 83.428 53.096 83.5034C53.1485 83.6595 53.1986 83.7778 53.2464 83.8581C53.3523 84.0362 53.484 84.1289 53.6414 84.1364C53.7006 84.1392 53.7635 84.1299 53.8299 84.1086C53.857 84.0999 53.883 84.0887 53.9078 84.075C54.0208 84.0128 54.0925 83.9269 54.1229 83.8174L54.1223 83.8174C54.1406 83.8109 54.1585 83.8031 54.1759 83.7942C54.4313 83.6633 54.6076 83.4382 54.7048 83.1189L54.7042 83.1189C54.7879 82.881 54.7989 82.6059 54.7372 82.2936C54.7352 82.2836 54.7329 82.2738 54.7302 82.264C54.6671 82.0336 54.5172 81.7996 54.2804 81.5621C54.274 81.5556 54.2673 81.5493 54.2604 81.5433C54.0766 81.3809 53.913 81.2725 53.7697 81.2181C53.6931 81.189 53.6182 81.1727 53.5451 81.1693Z" fill="black"/>
</g>
<defs>
<clipPath id="clip0_499_4286">
<rect width="102.349" height="100.195" fill="white" transform="translate(4.88086 9.45825)"/>
</clipPath>
</defs>
</svg>
