<?xml version="1.0" encoding="utf-8"?>
<svg width="116" height="113" viewBox="0 0 116 113" fill="#FFA462" xmlns="http://www.w3.org/2000/svg">
<path d="M30.4086 40.2878L30.7379 48.9881L30.7095 48.7527C31.0954 50.6339 31.3464 51.5535 31.4501 51.7773C31.749 52.4224 31.3175 50.8515 29.9365 51.1229C29.3984 51.2287 29.1171 51.5768 29.0207 51.7177C29.4412 51.1028 30.2625 50.8887 30.9397 51.2175C33.1185 52.2756 35.5597 52.9584 38.2764 53.2967C38.7852 53.3601 40.0907 53.4699 42.2267 53.5714L41.9505 53.5832L50.1473 52.4893C50.7754 52.4055 51.3898 52.716 51.6837 53.2659C51.9776 53.8158 51.8878 54.487 51.4593 54.9444C49.7283 56.7918 47.219 59.8064 47.2137 59.8127C46.1478 61.0935 45.2239 62.0197 44.4764 62.7696C43.9219 63.3258 43.5041 63.7465 43.1608 64.1591C43.148 64.1745 43.1365 64.1884 43.124 64.2036L43.124 64.2037C42.8098 64.5869 42.3724 65.0273 41.9533 65.4514C41.3501 66.0617 40.6894 66.7315 40.077 67.4784C39.5251 68.1517 39.0415 68.8536 38.6993 69.5756C38.2292 70.5677 37.9143 71.7002 37.6991 72.4823C37.6354 72.7136 37.5672 72.9637 37.508 73.1397C37.7478 72.4268 37.2291 72.062 37.2785 72.0983C39.5747 73.7837 41.6358 75.4197 43.4575 77.0188C42.9493 76.5727 42.2884 76.8486 42.1144 77.0386C42.1041 77.0498 42.0997 77.056 42.0998 77.0559L42.0997 77.0559C42.0998 77.0559 42.1009 77.0543 42.1029 77.0512L42.103 77.0511C47.5308 68.6456 52.0488 62.1298 55.7228 57.5835L55.4262 58.2145C55.3998 58.3464 55.3836 58.7592 55.7406 59.1024C52.474 55.9622 50.4595 53.772 49.6568 52.6642C49.2175 52.0579 48.7895 51.4453 48.5856 50.9475C48.5324 50.8174 48.0225 49.6109 49.0788 48.8257C49.2369 48.7082 49.4172 48.6224 49.6093 48.5734C49.53 48.5936 49.4893 48.616 49.4942 48.6134L49.4942 48.6134C49.9213 48.3909 50.9929 47.2468 53.2769 44.7168L53.277 44.7166L53.6975 44.251L53.6977 44.2507C55.3083 42.4679 57.6646 42.2441 59.2937 43.0968C59.3468 43.1246 59.3983 43.1555 59.4477 43.1894L64.8421 46.89L64.8227 46.8769C65.0718 47.0421 65.3131 47.2386 65.5224 47.4747C66.2017 48.2413 66.3519 49.2204 65.9326 50.1485L65.9326 50.1486C65.8663 50.2955 65.7889 50.4342 65.7048 50.5644C65.6686 50.6205 65.6285 50.6741 65.585 50.7248L59.0017 58.3938C58.4671 59.0166 57.518 59.0972 56.8819 58.5738C56.2457 58.0505 56.1634 57.1213 56.698 56.4986L63.2812 48.8296L63.1614 48.99C63.1753 48.9684 63.1805 48.9572 63.1806 48.957L63.1806 48.957C63.1284 49.0725 63.1648 49.3097 63.2493 49.4052C63.2476 49.4032 63.2175 49.3706 63.1345 49.3155C63.128 49.3112 63.1216 49.3069 63.1152 49.3025L57.7207 45.6019L57.8747 45.6946C57.4638 45.4795 56.6304 45.4512 55.9519 46.2022L55.9521 46.202L55.5316 46.6677L55.5318 46.6675C53.5434 48.8701 51.9623 50.6647 50.9079 51.214C50.7588 51.2916 50.5768 51.3708 50.3683 51.424L50.8987 51.1718C51.775 50.5203 51.2664 49.5769 51.3788 49.8513C51.4239 49.9615 51.6164 50.2768 52.1113 50.9599C52.7419 51.8302 54.5791 53.8571 57.849 57.0004C58.4284 57.5574 58.4813 58.2704 58.3794 58.7802C58.3333 59.0107 58.2316 59.2271 58.0828 59.4112C54.5102 63.832 50.0603 70.2416 44.6466 78.6252L44.6466 78.6252C44.6178 78.6699 44.5876 78.7141 44.556 78.7578L44.5559 78.7579C44.4952 78.8418 44.4283 78.9251 44.3549 79.0052C43.6756 79.7468 42.4454 80.0871 41.4486 79.2121C39.7055 77.6821 37.715 76.1006 35.4734 74.4553C35.024 74.1255 34.2838 73.3061 34.6498 72.2182C34.6764 72.1391 34.7185 71.9883 34.7934 71.716C35.0019 70.9584 35.3753 69.59 35.9695 68.3359C36.4476 67.3271 37.086 66.4204 37.7302 65.6346C38.4423 64.766 39.1969 64.0038 39.7906 63.4031C40.2484 62.9399 40.5704 62.6119 40.7771 62.3598L40.777 62.3599C40.7943 62.3388 40.8105 62.3192 40.8278 62.2984C41.2729 61.7635 41.7927 61.2438 42.3227 60.7121C43.0643 59.9682 43.9066 59.1226 44.8807 57.9521C44.8756 57.9583 47.4408 54.8752 49.2417 52.9531L50.5537 55.4082L42.357 56.5021C42.2655 56.5143 42.173 56.5182 42.0808 56.5138C39.9269 56.4114 38.526 56.2974 37.8967 56.219C34.8997 55.8458 32.1263 55.0822 29.6024 53.8565L31.5214 53.3564C31.4014 53.5319 31.0946 53.9 30.529 54.0111C29.0638 54.2992 28.5304 52.6075 28.7097 52.9943C28.431 52.3929 28.1183 51.0837 27.7591 49.3326C27.7432 49.255 27.7337 49.1763 27.7307 49.0972L27.4014 40.3969C27.3707 39.584 28.0189 38.9005 28.8493 38.8704C29.6797 38.8403 30.3778 39.4749 30.4086 40.2878Z" fill="#FFA462"/>
<path d="M59.5774 58.2874C59.5806 58.2567 59.5806 58.2327 59.5775 58.2154C59.5809 58.2342 59.5913 58.2636 59.6087 58.3037L59.5783 58.2382C60.0913 59.2767 60.4753 60.1002 60.7304 60.7085L60.5589 60.4063C61.3637 61.499 62.6112 63.9581 64.3013 67.7835L64.2222 67.6298L65.8661 70.4074C65.8938 70.4542 65.9189 70.5025 65.9411 70.552L69.4036 78.2462C69.4156 78.2729 69.4268 78.3 69.4372 78.3274C69.1569 77.5883 68.6598 77.3485 67.946 77.6079C67.9281 77.6144 67.9145 77.62 67.9052 77.6248C67.9665 77.5934 68.0671 77.519 68.2069 77.4017L68.1502 77.4517L74.6748 71.3867L74.635 71.4251C74.3591 71.7014 74.2868 72.0229 74.4182 72.3897L74.4281 72.4165C72.9454 68.5208 71.0376 65.0533 68.7047 62.0142C68.702 62.0107 68.6992 62.007 68.6965 62.0035C67.9792 61.0511 67.4139 60.3848 67.0005 60.0045L67.0344 60.0347L62.1554 55.8132L62.2362 55.8783C61.6263 55.4203 61.385 54.8018 61.5123 54.0226C61.6436 53.2194 62.4152 52.6724 63.2357 52.8009C64.0563 52.9294 64.615 53.6847 64.4837 54.488C64.5453 54.1111 64.4066 53.7954 64.0676 53.5408C64.0952 53.5616 64.1222 53.5833 64.1483 53.6059L69.0272 57.8274C69.0387 57.8374 69.0499 57.8474 69.0611 57.8576C69.6073 58.3601 70.2931 59.1593 71.1186 60.2553L71.1104 60.2445C73.6179 63.5111 75.6637 67.2256 77.248 71.3879C77.2513 71.3968 77.2547 71.4058 77.2579 71.4148C77.5388 72.1988 77.3817 72.8888 76.7867 73.4845C76.7736 73.4976 76.7604 73.5104 76.7469 73.5229L70.2223 79.588C70.2039 79.6051 70.185 79.6218 70.1657 79.638C69.8523 79.901 69.5636 80.1001 69.2997 80.2353C69.1965 80.2881 69.0944 80.3328 68.9933 80.3696C67.8264 80.7937 67.0341 80.4547 66.6161 79.3527L66.6497 79.4338L63.1873 71.7396L63.2623 71.8842L61.6185 69.1066C61.5891 69.057 61.5626 69.0056 61.5394 68.9529C59.9358 65.3234 58.7954 63.0489 58.1181 62.1294C58.049 62.0356 57.9914 61.9342 57.9466 61.8272C57.7146 61.2741 57.3555 60.5052 56.8692 59.5205C56.8585 59.4989 56.8484 59.4771 56.8388 59.455C56.7329 59.2109 56.6584 58.9703 56.6151 58.7332L56.6151 58.7332C56.569 58.4803 56.5585 58.2326 56.5836 57.9902C56.6674 57.1809 57.4056 56.5913 58.2323 56.6734C59.059 56.7554 59.6613 57.4781 59.5774 58.2874Z" fill="#FFA462"/>
<path d="M64.9237 52.2854C66.6841 52.8063 69.7941 53.4796 70.4708 53.5253C70.9513 53.5578 73.9877 53.525 76.3279 53.1949C76.9825 53.1026 77.8432 53.0476 78.6767 52.9933C79.6809 52.928 80.6973 52.861 81.566 52.7407C81.6806 52.7249 81.8298 52.7049 81.9962 52.6827C82.2363 52.6507 82.5244 52.6122 82.8403 52.5684C84.1024 52.3936 85.6247 52.1578 86.346 51.9421C86.3273 51.9477 86.3179 51.9512 86.319 51.9508L86.3189 51.9508C86.799 51.7735 88.289 50.8248 88.5481 50.3972L88.548 50.3973C88.548 50.3974 88.5468 50.3993 88.544 50.4046C88.9241 49.6812 89.8313 49.3965 90.5702 49.7686C91.3091 50.1408 91.6 51.0289 91.2198 51.7522C91.1932 51.803 91.1643 51.8537 91.1363 51.8999L91.1362 51.9001C90.3491 53.1991 88.0669 54.4537 87.3815 54.7069L87.3814 54.707C87.3354 54.724 87.2821 54.7424 87.2252 54.7594C86.2315 55.0565 84.4502 55.3206 83.2618 55.4852C82.9367 55.5303 82.6435 55.5694 82.4029 55.6015C82.2335 55.6242 82.0931 55.6429 81.9875 55.6575C80.9872 55.7961 79.8532 55.8691 78.8764 55.9327C77.9969 55.99 77.2708 56.0382 76.757 56.1107C74.2249 56.4678 70.9746 56.5122 70.2635 56.4642C69.2276 56.3941 65.8439 55.6351 64.0531 55.1052C63.2576 54.8699 62.8077 54.0478 63.0482 53.2691C63.2886 52.4905 64.1283 52.05 64.9237 52.2854Z" fill="#FFA462"/>
<path d="M62.5854 46.2351C62.8492 46.0116 63.1349 45.8896 63.3336 45.8203C63.9104 45.619 64.6604 45.5719 65.0081 45.5447C65.2338 45.5271 65.3425 45.5175 65.3984 45.5088C65.5909 45.4787 65.8082 45.4434 66.0526 45.4038C66.3523 45.3551 66.691 45.3002 67.0653 45.2416C68.674 44.99 70.939 44.6725 73.8708 44.4609C75.4917 44.3439 76.891 44.2575 78.0613 44.1853C78.9137 44.1327 79.6369 44.088 80.2436 44.0442C81.2722 43.97 81.822 43.906 82.054 43.8488C82.7226 43.6838 83.7665 43.3122 84.9339 42.8943C85.4729 42.7014 86.0289 42.5023 86.5445 42.3273C87.1038 42.1374 87.4914 41.6933 87.5444 41.5523C87.5473 41.5447 87.5164 41.62 87.5326 41.7559L87.5326 41.7561C87.5593 41.9787 87.6397 42.1006 87.6201 42.066C87.252 41.4139 84.5568 39.0194 83.2649 38.2896C78.884 35.8149 76.4814 34.782 75.9905 34.6777C75.9244 34.6637 76.1097 34.7183 76.3799 34.6722C76.0915 34.7214 75.7946 34.6871 75.5258 34.5735C74.0893 33.9668 71.7286 33.4086 68.3408 32.9418C67.5179 32.8284 66.9447 32.0835 67.0606 31.2779C67.1764 30.4724 67.9373 29.9113 68.7602 30.0247C72.2129 30.5005 74.8998 31.1008 76.7178 31.8687L75.8637 31.77C76.2124 31.7106 76.5229 31.7764 76.6287 31.7989C77.6717 32.0205 80.507 33.3306 84.7689 35.7381C86.273 36.5877 89.5052 39.3149 90.2539 40.641C90.3374 40.7891 90.48 41.0669 90.5214 41.4133L90.5214 41.4135C90.5734 41.8481 90.4901 42.2465 90.3681 42.5707L90.3681 42.5707C89.9341 43.7239 88.732 44.7027 87.5303 45.1106C87.0432 45.2759 86.5117 45.4661 85.9674 45.661C84.8685 46.0544 83.647 46.4937 82.7893 46.7053C82.2541 46.8373 81.4246 46.9128 80.4649 46.9821C79.8388 47.0273 79.0979 47.073 78.2507 47.1253C77.0804 47.1975 75.6951 47.2831 74.0921 47.3988C71.2711 47.6024 69.095 47.9074 67.54 48.1506C67.176 48.2075 66.8446 48.2613 66.5447 48.31C66.3031 48.3492 66.0755 48.3861 65.8731 48.4178C65.6721 48.4492 65.423 48.4675 65.2474 48.4813C64.7498 48.5201 64.4614 48.5541 64.3441 48.5951C64.3237 48.6022 64.4245 48.5728 64.5547 48.4625C63.9264 48.9948 62.9762 48.9278 62.4324 48.3127C61.8886 47.6976 61.9571 46.7675 62.5854 46.2351Z" fill="#FFA462"/>
<path d="M89.014 39.6746C89.3815 39.8048 89.6696 40.0316 89.8777 40.2404L89.8777 40.2404C90.3989 40.7631 90.8246 41.577 91.0986 42.6648C91.4246 43.9588 91.4083 47.2266 91.4069 48.5533C91.4065 48.9534 91.4067 49.1779 91.4095 49.243L91.4095 49.2435C91.4098 49.2506 91.4091 49.2263 91.4049 49.1868C91.4096 49.2308 91.4123 49.2749 91.4129 49.3191L91.426 50.1951L91.4228 50.1181C91.4712 50.8229 91.2467 51.4154 91.1723 51.6259C91.1529 51.6809 91.1475 51.6967 91.1448 51.7053L91.1449 51.7051C91.1211 51.7806 91.2019 51.5784 91.183 51.3014L91.1828 51.2986C91.1805 51.2654 91.1769 51.232 91.172 51.1986C91.2893 52.0039 90.7175 52.7499 89.8949 52.8647C89.0722 52.9795 88.3103 52.4198 88.1929 51.6144C88.1874 51.5767 88.1833 51.5382 88.1807 51.5003L88.1805 51.4976C88.1575 51.1604 88.2583 50.8718 88.2687 50.839L88.2687 50.8388C88.2897 50.7719 88.3142 50.7033 88.3285 50.6628C88.4134 50.4225 88.423 50.353 88.4204 50.3153C88.4186 50.2896 88.4176 50.2639 88.4172 50.2383L88.4041 49.3622L88.4121 49.4945C88.4061 49.4387 88.4039 49.3893 88.4029 49.3653L88.4029 49.3658C88.3966 49.2182 88.3973 48.8997 88.3977 48.5502C88.3994 46.9722 88.3896 44.2141 88.1769 43.3701C87.9821 42.5969 87.7497 42.3235 87.7245 42.2982L87.7244 42.2981C87.7072 42.2809 87.789 42.3735 87.9901 42.4447C87.2088 42.168 86.8045 41.3235 87.0872 40.5585C87.37 39.7936 88.2326 39.3979 89.014 39.6746Z" fill="#FFA462"/>
<path d="M30.2224 39.4575C30.8468 40.2862 31.8863 41.1509 33.3408 42.0515C33.475 42.1345 33.5948 42.2378 33.696 42.3576C33.6143 42.2609 33.5361 42.1902 33.4615 42.1456C33.8335 42.3681 35.2259 42.8673 37.6387 43.6434L37.5378 43.6147C38.1537 43.7671 38.5284 43.853 38.6621 43.8724C38.6173 43.8659 38.5622 43.8632 38.4965 43.8644C38.5586 43.8633 38.6208 43.866 38.6826 43.8724C40.4279 44.0544 41.9456 44.2724 43.2356 44.5265L43.1063 44.5067L47.2017 44.9557C47.2575 44.9618 47.3129 44.971 47.3676 44.9832C47.8328 45.0866 48.2258 45.1636 48.5466 45.2141L48.3783 45.1971C49.621 45.2542 50.8389 45.3433 52.0318 45.4644C52.8583 45.5483 53.4589 46.2722 53.3732 47.0813C53.2876 47.8905 52.5481 48.4784 51.7215 48.3945C50.5848 48.2792 49.4233 48.1942 48.2371 48.1397C48.1807 48.1371 48.1246 48.1314 48.0688 48.1226C47.6846 48.0621 47.2286 47.9732 46.7009 47.8558L46.8668 47.8833L42.7714 47.4343C42.728 47.4295 42.6848 47.4229 42.6421 47.4145C41.443 47.1784 40.017 46.9741 38.3639 46.8017L38.55 46.8098C38.4496 46.8115 38.3396 46.8037 38.2199 46.7863C37.9869 46.7524 37.5137 46.6472 36.8004 46.4707C36.7664 46.4623 36.7327 46.4527 36.6995 46.442C34.0654 45.5949 32.4631 45.0006 31.8925 44.6593C31.6809 44.5327 31.5091 44.3913 31.3771 44.235L31.7323 44.5411C29.9593 43.4434 28.6487 42.3317 27.8007 41.2061C27.3074 40.5514 27.4497 39.6293 28.1184 39.1464C28.7872 38.6636 29.7292 38.8028 30.2224 39.4575Z" fill="#FFA462"/>
<path d="M27.5251 39.7209C27.8493 38.9546 28.2081 38.3119 28.6037 37.886L28.6037 37.886C28.6221 37.8661 28.641 37.8464 28.6603 37.8267L28.6603 37.8267C29.8359 36.6312 30.8892 35.7104 31.8042 35.197C31.8301 35.1825 31.8419 35.1758 31.8704 35.1598L31.8704 35.1598C31.8982 35.1442 31.9201 35.1319 31.9508 35.1147C32.2522 34.9456 32.6933 34.7012 33.281 34.4124C33.4334 34.3376 33.5977 34.2886 33.7669 34.2676L33.7669 34.2676C33.6687 34.2798 33.6108 34.2995 33.6254 34.295C33.7222 34.2654 33.9735 34.1591 34.5511 33.9078C35.2353 33.6102 36.2187 33.1823 37.5083 32.6797C39.4938 31.9059 43.3906 30.9185 47.117 30.4272C47.1285 30.4257 47.1399 30.4243 47.1514 30.423C54.9814 29.5704 59.0243 29.5268 59.0756 29.5263L59.0915 30.9991L59.0759 29.5263C62.5798 29.4908 67.7316 29.9279 68.2581 29.9894C69.0832 30.0858 69.6723 30.8187 69.5738 31.6265C69.4753 32.4342 68.7266 33.0109 67.9015 32.9145C67.4614 32.863 62.4448 32.4381 59.1071 32.472L59.0915 30.9991L59.1074 32.472C59.1542 32.4715 55.2118 32.5093 47.4841 33.3508L47.5186 33.3467C43.9676 33.8149 40.3218 34.7539 38.6214 35.4166C37.3897 35.8967 36.4513 36.3048 35.7731 36.5999C35.3004 36.8055 34.833 37.0118 34.5238 37.1065C34.4415 37.1317 34.3045 37.1704 34.1448 37.1902L34.6306 37.0454C34.1144 37.299 33.7276 37.5131 33.4471 37.6705C33.4144 37.6889 33.4 37.697 33.3688 37.7145L33.3688 37.7145C33.3409 37.7302 33.3272 37.7379 33.3005 37.7529C32.7792 38.0454 31.973 38.7057 30.8282 39.8698L30.8283 39.8697C30.8295 39.8685 30.8303 39.8676 30.8302 39.8677L30.8302 39.8677C30.7838 39.9177 30.584 40.1894 30.3052 40.8483C29.9872 41.5998 29.107 41.9567 28.3393 41.6454C27.5716 41.334 27.2071 40.4724 27.5251 39.7209Z" fill="#FFA462"/>
<path d="M37.8316 42.8457C37.1615 42.8368 36.7205 43.3195 36.964 43.1175L36.9639 43.1175C37.008 43.0809 37.1396 42.9553 37.4173 42.6705L37.4173 42.6705C37.5261 42.5589 37.6346 42.4768 37.6982 42.4306C37.7885 42.365 37.8908 42.299 37.9553 42.2571L37.9554 42.2571C37.994 42.232 38.0313 42.2077 38.069 42.1828L38.069 42.1828C38.4027 41.962 38.9422 41.6681 39.7285 41.4117C40.7298 41.0851 41.6881 40.8934 42.5142 40.7366L42.4679 40.7461C45.2573 40.1273 45.9374 39.9192 45.8823 39.9357C46.6767 39.6968 47.5184 40.1334 47.7625 40.911C48.0066 41.6886 47.5606 42.5127 46.7663 42.7516C46.7113 42.7682 45.9434 42.9956 43.133 43.6191C43.1177 43.6225 43.1022 43.6257 43.0868 43.6287C42.2745 43.7828 41.4814 43.945 40.6796 44.2065C40.159 44.3763 39.8657 44.5496 39.7538 44.6236L39.7537 44.6237C39.7039 44.6566 39.6576 44.6867 39.6196 44.7114L39.6196 44.7114C39.5319 44.7684 39.5047 44.7866 39.4919 44.7959C39.4816 44.8033 39.53 44.7701 39.5942 44.7044L39.5942 44.7043C39.3432 44.9617 39.0985 45.208 38.9101 45.3644C39.0288 45.2658 38.5044 45.8007 37.7909 45.7913C36.96 45.7803 36.2955 45.1119 36.3068 44.2985C36.318 43.4851 37.0007 42.8347 37.8316 42.8457Z" fill="#FFA462"/>
<path d="M78.048 45.7355L78.0488 45.7362L78.0483 45.7358L78.0471 45.7347C77.9736 45.6687 77.8868 45.5834 77.8227 45.5207C77.6985 45.3993 77.5503 45.2546 77.3694 45.0922C76.9747 44.7381 76.4416 44.3162 75.792 43.9762C70.0206 40.9551 66.6703 41.5994 66.9693 41.5502C66.8329 41.5726 66.694 41.5766 66.5565 41.5619C64.2 41.3106 60.3301 41.429 56.5403 41.5881C53.1807 41.7291 47.9601 42.4218 46.3395 42.8443C45.5365 43.0537 44.7122 42.5861 44.4983 41.8001C44.2845 41.014 44.762 40.207 45.565 39.9977C47.4774 39.4991 52.9371 38.7908 56.4114 38.6449C60.1291 38.4889 64.2512 38.3528 66.8825 38.6334L66.4697 38.6452C66.7686 38.5959 70.8019 38.0235 77.2109 41.3784C78.1584 41.8744 78.8984 42.4682 79.4026 42.9206C79.6356 43.1296 79.8232 43.3132 79.949 43.4362C80.0341 43.5193 80.0665 43.5505 80.0813 43.5638L80.08 43.5627L80.0805 43.5631C80.6938 44.1134 80.7353 45.0452 80.1738 45.6449C79.6123 46.2445 78.6606 46.2851 78.048 45.7355Z" fill="#FFA462"/>
<path d="M56.9641 81.7389C56.6966 83.0147 56.0637 84.2402 55.1096 85.3933C54.7171 85.8675 54.3027 86.1923 53.9932 86.4198L53.9933 86.4198C53.9069 86.4833 53.8218 86.5357 53.7472 86.5781L53.7472 86.5782C53.3864 86.7831 52.8613 86.9781 52.2659 87.1666C52.8223 86.9905 53.1117 86.4988 53.1452 86.0819L53.1127 85.641C53.0475 85.359 52.7996 84.9264 52.2651 84.7636L51.8158 84.6971C52.7115 84.6958 53.5385 85.0172 54.2719 85.4975C54.9112 85.9162 55.5147 86.3761 55.8909 86.8759L55.8907 86.8757C55.9087 86.8996 55.9261 86.9234 55.9436 86.9483L55.4626 86.5121C55.8079 86.709 56.0125 87.016 56.0271 87.0361L56.0271 87.0361C56.2549 87.3492 56.582 87.9466 56.9694 88.6945C57.036 88.8231 57.083 88.9606 57.1088 89.1026L57.4242 90.8378L54.4389 91.0505C54.4998 89.1162 55.3134 87.538 55.3406 87.4851C55.4298 87.3118 55.5358 87.1685 55.6246 87.0612C56.3524 86.1819 58.383 84.9442 59.5174 84.695C59.6005 84.6767 59.6923 84.6602 59.7904 84.6489L59.8089 87.5769C58.5411 87.4472 57.3329 86.9552 56.3891 85.9571L56.389 85.9571C56.3489 85.9146 56.3115 85.8722 56.2763 85.8301L56.2763 85.8301C55.6997 85.1398 55.1352 83.731 54.5272 82.106C54.2415 81.3421 54.6423 80.4961 55.4226 80.2164C56.2029 79.9366 57.0671 80.329 57.3529 81.0929C58.0377 82.9233 58.428 83.7523 58.6058 83.9652L58.6058 83.9652C58.606 83.9654 58.6031 83.962 58.5974 83.9559L58.5973 83.9559C58.9682 84.348 59.4583 84.5791 60.1216 84.6469C60.8844 84.725 61.4651 85.3521 61.4699 86.1028C61.4746 86.8535 60.9018 87.4876 60.1401 87.5749C60.1647 87.572 60.1776 87.5691 60.1762 87.5694H60.1762C59.7062 87.6726 58.2661 88.5492 57.9628 88.9157C57.9571 88.9226 57.9892 88.8861 58.0281 88.8104C58.0554 88.7573 57.4869 89.8653 57.4467 91.1412C57.423 91.8954 56.8208 92.5101 56.052 92.5649C55.2833 92.6197 54.5965 92.0968 54.4615 91.3539L54.1461 89.6186L54.2855 90.0267C53.8704 89.2253 53.6469 88.8426 53.5759 88.745L53.576 88.745C53.5062 88.6492 53.6466 88.8856 53.9476 89.0573C53.7564 88.9483 53.5922 88.7994 53.4666 88.6211C53.4678 88.6227 53.4682 88.6234 53.4684 88.6236L53.4682 88.6234C53.4216 88.5614 53.1953 88.3367 52.5987 87.946C52.2075 87.6898 51.9569 87.6428 51.8205 87.643C51.6681 87.6432 51.5167 87.6208 51.3712 87.5765C50.6563 87.3588 50.2931 86.7904 50.1778 86.2915C50.1443 86.147 50.1334 85.9983 50.1453 85.8506C50.194 85.2451 50.5825 84.6033 51.3402 84.3635C51.9157 84.1814 52.1752 84.0652 52.2368 84.0302L52.2367 84.0303C52.2396 84.0286 52.2196 84.0396 52.1865 84.064L52.1866 84.0639C52.421 83.8916 52.6078 83.7365 52.7713 83.5389C53.4793 82.6833 53.8626 81.8799 54.0164 81.1466C54.1835 80.3497 54.9788 79.8364 55.7928 79.9999C56.6068 80.1635 57.1312 80.9421 56.9641 81.7389Z" fill="#FFA462"/>
<path d="M55.0884 84.038L55.0884 84.038C55.0013 83.8945 54.9296 83.7286 54.8732 83.5401L54.8732 83.54C54.8643 83.5103 54.8557 83.4798 54.8473 83.4483L54.8506 83.4602C54.8302 83.3862 54.8132 83.3049 54.7995 83.2161L54.7995 83.2162C54.7869 83.1344 54.7758 83.0376 54.7661 82.9257L54.775 83.004C54.7798 83.0377 54.7849 83.0647 54.7902 83.0849L54.7903 83.085C54.7902 83.0849 54.7902 83.0847 54.7901 83.0845L54.8255 83.1957L54.6419 82.6895C54.6181 82.6237 54.599 82.5562 54.5849 82.4877C54.5592 82.3626 54.5191 82.228 54.4647 82.084C54.4513 82.0487 54.4394 82.0129 54.4289 81.9767L54.4287 81.9762C54.4255 81.965 54.4222 81.9534 54.4189 81.9416L54.4189 81.9414C54.3997 81.8717 54.3739 81.7661 54.3415 81.6248L54.4403 81.913C54.3609 81.7421 54.3135 81.5476 54.2983 81.3294C54.2918 81.2362 54.2877 81.1027 54.2859 80.9287L54.297 81.0931C54.2701 80.8779 54.2541 80.7081 54.2491 80.5839V80.5838C54.2479 80.5549 54.2472 80.5272 54.247 80.5006C54.2469 80.4891 54.247 80.4777 54.2471 80.4662L54.2556 79.9369L54.2733 80.1865L54.2437 80.0001C54.1159 79.1962 54.678 78.4432 55.4991 78.3181C56.3201 78.1931 57.0894 78.7433 57.2171 79.5471L57.2468 79.7335C57.2599 79.8161 57.2658 79.8995 57.2645 79.9831L57.256 80.5124L57.2561 80.4781C57.2561 80.4732 57.256 80.4694 57.2559 80.4666L57.2559 80.4666C57.2577 80.5105 57.2671 80.6002 57.284 80.7358C57.2908 80.7903 57.2945 80.8452 57.295 80.9001C57.2962 81.0166 57.298 81.0927 57.3005 81.1284C57.2909 80.9911 57.2504 80.8456 57.179 80.6921C57.222 80.7845 57.2551 80.8811 57.2778 80.9803C57.3008 81.0806 57.3163 81.1453 57.3242 81.1741L57.3242 81.174C57.324 81.1733 57.3236 81.172 57.3231 81.17L57.2871 81.0623C57.3957 81.3497 57.4783 81.6309 57.5349 81.9059L57.4778 81.7041L57.6613 82.2103C57.6746 82.2469 57.6864 82.284 57.6967 82.3215C57.6988 82.3293 57.7009 82.3371 57.7029 82.3447L57.7029 82.3448C57.7268 82.4349 57.7444 82.5195 57.7556 82.5986C57.7593 82.6247 57.7623 82.6507 57.7646 82.6769C57.7687 82.7249 57.7722 82.7581 57.7751 82.7766L57.7751 82.7767C57.7718 82.7553 57.7655 82.7278 57.7563 82.6942C57.7574 82.6983 57.7584 82.7021 57.7595 82.7061C57.7602 82.709 57.7608 82.711 57.7612 82.7124L57.7612 82.7123C57.7463 82.6627 57.7177 82.6029 57.6753 82.5331C58.0998 83.2325 57.8648 84.1363 57.1505 84.5518C56.4361 84.9674 55.5129 84.7373 55.0884 84.038Z" fill="#FFA462"/>
<path d="M57.9985 86.9491C57.9899 87.1253 57.9571 87.2982 57.9002 87.4678C57.8912 87.4945 57.8815 87.5209 57.871 87.5471C57.8039 87.7141 57.7624 87.8238 57.7466 87.8761C57.7564 87.8437 57.7651 87.8023 57.7726 87.7517C57.7661 87.7952 57.7576 87.8384 57.7472 87.8812C57.7494 87.8722 57.7515 87.8602 57.7535 87.8453L57.7626 87.758C57.7534 87.8825 57.7448 87.9788 57.7368 88.0469L57.7367 88.047C57.731 88.0955 57.7244 88.1399 57.7169 88.1802C57.7134 88.1991 57.7096 88.2179 57.7053 88.2366C57.6868 88.3185 57.6752 88.3726 57.6705 88.3987L57.6706 88.3987C57.6808 88.3407 57.6857 88.2728 57.6853 88.1948C57.6856 88.2475 57.683 88.3001 57.6776 88.3525L57.6776 88.3525C57.6775 88.353 57.6775 88.353 57.6776 88.3523L57.6776 88.3524C57.6762 88.366 57.6747 88.3903 57.673 88.4251L57.6745 88.3799L57.6744 88.3806L57.6744 88.3865C57.6703 88.5864 57.666 88.7253 57.6614 88.8029L57.6614 88.8028C57.6579 88.8616 57.6525 88.9152 57.6454 88.9636L57.6602 88.7974C57.6586 88.8497 57.654 88.907 57.6466 88.9694L57.6466 88.9693C57.6373 89.0473 57.6198 89.1621 57.5942 89.3136L57.6025 89.2581C57.5978 89.2943 57.5949 89.3192 57.5937 89.3328L57.5938 89.3313C57.5938 89.332 57.5937 89.3325 57.5937 89.3329C57.5929 89.3425 57.592 89.3521 57.591 89.3617L57.597 89.2827L57.597 89.2828L57.5909 89.3619C57.5911 89.3603 57.5912 89.359 57.5913 89.3581L57.5913 89.3584C57.5862 89.4126 57.5779 89.5619 57.5662 89.8064C57.5658 89.8151 57.5653 89.8236 57.5647 89.8323C57.5593 89.9136 57.5546 89.9759 57.5506 90.0192L57.5506 90.0189C57.5492 90.0342 57.5477 90.0486 57.5462 90.0622L57.5506 90.016C57.5494 90.0313 57.548 90.0469 57.5464 90.0627L57.5465 90.0624C57.5365 90.1645 57.5166 90.3047 57.4868 90.4831L57.5011 90.3701L57.4823 90.587C57.48 90.6133 57.477 90.6396 57.4733 90.6657L57.4774 90.6341L57.4774 90.6342L57.4733 90.6658C57.462 90.7449 57.4538 90.8218 57.4487 90.8963C57.4479 90.9079 57.447 90.9196 57.4459 90.9312L57.4459 90.9314C57.4405 90.9896 57.4315 91.0527 57.419 91.1205C57.4059 91.1912 57.387 91.2779 57.3622 91.3806L57.3797 91.2975C57.3834 91.2768 57.386 91.2553 57.3875 91.2327L57.388 91.224L57.3518 91.8471L57.3541 91.7778L57.3509 92.0961L57.3505 92.0433C57.3531 92.1398 57.3553 92.2021 57.3572 92.2304C57.3549 92.1959 57.3494 92.1552 57.3407 92.1083C57.4891 92.9087 56.9465 93.6753 56.1289 93.8206C55.3113 93.9659 54.5282 93.4348 54.3798 92.6343C54.3682 92.5718 54.3598 92.5023 54.3547 92.4259C54.3501 92.3583 54.3459 92.2564 54.3423 92.1202C54.3418 92.1026 54.3417 92.085 54.3419 92.0674L54.345 91.749C54.3453 91.7259 54.3461 91.7028 54.3474 91.6797L54.3836 91.0566L54.3842 91.0479C54.3898 90.9607 54.4005 90.8732 54.4163 90.7854C54.4213 90.7576 54.4272 90.7298 54.4338 90.7023C54.4463 90.6508 54.4543 90.6155 54.4578 90.5965C54.4545 90.614 54.4516 90.6369 54.449 90.6651L54.4462 90.7002C54.4561 90.5551 54.4716 90.4079 54.4929 90.2587L54.4888 90.2902L54.4888 90.2901L54.4839 90.3372L54.5028 90.1202C54.5061 90.0824 54.5108 90.0448 54.5171 90.0073C54.536 89.8939 54.5473 89.8189 54.5509 89.7823L54.5509 89.782C54.5508 89.7829 54.5507 89.7844 54.5505 89.7866C54.5517 89.7712 54.5532 89.7558 54.555 89.7404C54.5545 89.7447 54.5541 89.748 54.5539 89.7505L54.5539 89.7502C54.5555 89.7335 54.5581 89.6976 54.5617 89.6427L54.5602 89.6686C54.574 89.3805 54.5855 89.1877 54.5946 89.0902L54.5945 89.0905C54.5955 89.0806 54.5964 89.071 54.5974 89.0618L54.5913 89.1409L54.5913 89.1408L54.5947 89.0906C54.5948 89.0884 54.595 89.0862 54.5952 89.0842L54.5953 89.0826C54.6 89.0292 54.6072 88.9644 54.6171 88.8884C54.6195 88.8699 54.6222 88.8513 54.6253 88.8328C54.6432 88.7274 54.6539 88.6589 54.6577 88.6274V88.6273C54.6552 88.6486 54.6534 88.6752 54.6524 88.7072C54.6541 88.6515 54.6591 88.596 54.6673 88.541C54.6621 88.5759 54.6588 88.6059 54.6573 88.631L54.6573 88.6308C54.6596 88.5912 54.6625 88.4904 54.6657 88.3285L54.6656 88.3344L54.6656 88.3337C54.666 88.3148 54.6664 88.3016 54.667 88.2885C54.6711 88.203 54.6764 88.1282 54.6828 88.064L54.6828 88.0641C54.6832 88.0602 54.6835 88.057 54.6838 88.0544L54.6761 88.2121C54.6755 88.1152 54.6853 88.0095 54.7056 87.8951L54.7056 87.8951C54.7182 87.824 54.7388 87.7253 54.7675 87.5988L54.7559 87.6553C54.752 87.6764 54.7492 87.6938 54.7476 87.7075L54.7476 87.7076C54.7506 87.6822 54.7551 87.6286 54.7611 87.547C54.7632 87.5178 54.7662 87.4886 54.7702 87.4596C54.7818 87.3736 54.7986 87.2856 54.8206 87.1957L54.7951 87.3252C54.8083 87.2368 54.8304 87.1413 54.8615 87.0389C54.9019 86.9052 54.9716 86.7152 55.0704 86.4692L55.0412 86.5484C55.0133 86.6317 54.9972 86.7181 54.9928 86.8077C55.0327 85.9951 55.7379 85.3681 56.5679 85.4071C57.3979 85.4462 58.0384 86.1365 57.9985 86.9491Z" fill="#FFA462"/>
<path d="M55.6152 84.8051C55.6129 84.805 55.6106 84.8049 55.6082 84.8049C55.3388 84.7958 55.1128 85.0023 55.1036 85.2661C55.1004 85.3578 55.0986 85.4453 55.0982 85.5287L55.0975 85.5287C55.0485 85.6501 55.0527 85.7865 55.1082 85.9045L55.1075 85.9044C55.118 86.0787 55.1371 86.2272 55.1651 86.3501C55.1666 86.357 55.1683 86.3638 55.1702 86.3706C55.2196 86.5502 55.2993 86.7209 55.4094 86.8827C55.4205 86.8991 55.4327 86.9147 55.4329 86.9148L55.4335 86.9148L55.4568 86.9417C55.4774 86.9636 55.4976 86.9836 55.5176 87.0018C55.5872 87.0653 55.6595 87.1117 55.7345 87.1408C55.7848 87.1604 55.8377 87.1714 55.8911 87.174C55.9452 87.1765 55.9998 87.1703 56.0524 87.1551C56.2966 87.0847 56.4239 86.9183 56.4342 86.6557L56.4339 86.6557C56.441 86.5485 56.43 86.4405 56.4008 86.3317C56.4003 86.3299 56.3998 86.3281 56.3993 86.3265L56.3993 86.3262C56.3778 86.2462 56.3294 86.1174 56.254 85.9398L56.2533 85.9381C56.1944 85.8009 56.1349 85.6845 56.0749 85.5887L56.0742 85.5886C56.074 85.4998 56.0758 85.4032 56.0794 85.2988C56.0886 85.0373 55.8813 84.8177 55.6152 84.8051Z" fill="#FFA462"/>
<path d="M55.5172 85.0855C55.6261 85.2028 55.6931 85.3027 55.7183 85.3853L55.7176 85.3853C55.7431 85.5245 55.7464 85.6404 55.7276 85.733C55.694 85.6601 55.6614 85.5992 55.6299 85.5504C55.5989 85.5025 55.5655 85.4608 55.5295 85.4253L55.5289 85.4253C55.5179 85.4136 55.5071 85.4026 55.4963 85.392L55.4956 85.392C55.5351 85.2991 55.5451 85.1933 55.5173 85.0884C55.517 85.0874 55.5167 85.0865 55.5165 85.0855L55.5172 85.0855ZM55.3363 83.9199C55.3026 83.9183 55.2693 83.9191 55.2363 83.9223L55.2357 83.9223C54.8739 83.9412 54.6437 84.1291 54.5448 84.4858L54.5454 84.4858C54.5246 84.5411 54.5099 84.6004 54.5012 84.6637C54.4773 84.8384 54.5009 85.0601 54.5722 85.3288C54.5818 85.3648 54.5953 85.3988 54.6122 85.4304L54.6115 85.4304C54.5988 85.4507 54.5876 85.4721 54.578 85.4942C54.521 85.6265 54.5227 85.7722 54.583 85.9313C54.6075 85.9958 54.645 86.0718 54.6955 86.1595L54.6965 86.1613C54.722 86.2051 54.7465 86.2458 54.7698 86.2835L54.7692 86.2835C54.7835 86.3663 54.8048 86.4499 54.8333 86.5342C54.892 86.7092 54.9482 86.8416 55.0017 86.9316C55.1204 87.1311 55.2679 87.235 55.4442 87.2433C55.5105 87.2464 55.5809 87.236 55.6553 87.2121C55.6856 87.2024 55.7148 87.1898 55.7425 87.1746C55.8691 87.1049 55.9495 87.0087 55.9835 86.886L55.9828 86.886C56.0034 86.8787 56.0234 86.87 56.0428 86.8601C56.3289 86.7134 56.5264 86.4613 56.6352 86.1036L56.6346 86.1036C56.7283 85.8371 56.7406 85.529 56.6716 85.1792C56.6694 85.168 56.6668 85.157 56.6638 85.146C56.593 84.888 56.4251 84.6259 56.1599 84.3598C56.1527 84.3526 56.1452 84.3455 56.1376 84.3388C55.9316 84.1569 55.7484 84.0354 55.5878 83.9745C55.5021 83.9419 55.4182 83.9237 55.3363 83.9199Z" fill="#FFA462"/>
</svg>
