<svg width="112" height="128" viewBox="0 0 112 128" fill="none" xmlns="http://www.w3.org/2000/svg">
<path d="M35.7288 42.0389C36.6642 46.8357 37.0193 50.0032 37.201 51.6259C37.2688 52.2309 37.3005 52.4979 37.3197 52.5966L37.3189 52.5923L37.3196 52.5959L37.3198 52.597C37.3246 52.6213 37.3111 52.5392 37.2663 52.4182C37.3292 52.5879 37.3675 52.7648 37.3803 52.9442L38.7585 72.296L38.7468 72.181L40.7714 87.3961L40.7566 87.3028C40.8838 87.9934 40.91 88.9111 40.9362 89.6788C40.9723 90.7428 41.0106 91.7495 41.163 92.577C41.2821 93.2234 41.4269 93.4866 41.4689 93.5395L41.4685 93.539C41.4698 93.5407 41.4671 93.5374 41.4662 93.5363L41.4666 93.5368C42.9377 95.2286 44.9335 96.6676 46.4041 96.9409L46.4041 96.941C47.1444 97.0785 49.1325 96.933 52.3149 96.6618C55.1357 96.4215 58.5652 96.1279 61.8416 96.1278C62.4257 96.1278 63.0079 96.1352 63.6096 96.1427C64.2679 96.151 64.9232 96.1592 65.6322 96.1592H65.6322C68.5243 96.1591 72.0946 96.0187 77.2849 95.1113C78.0713 94.9738 80.1026 92.8549 80.6463 90.9966C81.4356 88.2991 81.9782 83.926 81.7414 75.5025L81.7461 75.5922L80.6067 60.5728L80.6794 60.9677C79.2834 56.2476 78.316 48.9969 77.5632 39.3672C77.36 36.7685 76.5204 34.9856 75.5084 33.7433C74.51 32.5177 72.3709 31.4506 68.1115 31.6515L68.1161 31.6513L68.1054 31.6518L68.1009 31.652C59.7539 32.0458 50.1552 32.5356 40.2116 33.2796C36.2047 33.5794 35.5413 37.3135 35.753 42.925C35.795 44.0375 34.8654 44.9712 33.6768 45.0105C32.4881 45.0498 31.4905 44.1798 31.4485 43.0673C31.2849 38.7312 31.1657 29.9123 39.8684 29.2612C49.8775 28.5123 59.5265 28.0202 67.884 27.6259L67.8795 27.6261L67.8901 27.6256L67.8947 27.6254C72.8927 27.3895 76.7304 28.5946 78.9336 31.2992C80.4941 33.2148 81.5999 35.7602 81.8589 39.073C82.6113 48.6966 83.559 55.5932 84.8305 59.8923C84.8686 60.0214 84.893 60.1537 84.9031 60.2873L86.0425 75.3067C86.0447 75.3366 86.0463 75.3665 86.0471 75.3965C86.2874 83.9445 85.7581 88.7886 84.8005 92.0614C84.1228 94.3777 81.3645 98.4991 78.0758 99.074C72.5758 100.036 68.7341 100.19 65.6323 100.19H65.6324C64.8904 100.191 64.2066 100.182 63.5519 100.174C62.9435 100.166 62.3928 100.159 61.8417 100.159C58.7927 100.159 55.5609 100.433 52.7054 100.677C49.9574 100.911 47.0924 101.179 45.5653 100.895L45.5654 100.895C42.5989 100.344 39.7951 98.001 38.126 96.0815L38.1264 96.082C38.0854 96.0348 38.0475 95.9891 38.0102 95.942L38.0098 95.9416C37.3532 95.1133 37.0701 94.0851 36.9184 93.2619C36.7054 92.1055 36.665 90.8029 36.6312 89.8072C36.6008 88.9154 36.576 88.3348 36.5121 87.9877C36.5064 87.9567 36.5014 87.9256 36.4973 87.8943L34.4726 72.6792C34.4675 72.6409 34.4636 72.6025 34.4609 72.5641L33.0827 53.2123L33.1966 53.7382C33.1321 53.564 33.0991 53.4047 33.0839 53.3274L33.0841 53.3284L33.0834 53.3247L33.0826 53.3204C33.0254 53.0275 32.9735 52.5483 32.9173 52.0463C32.7408 50.47 32.399 47.4162 31.4916 42.7626C31.2781 41.6675 32.0535 40.6177 33.2236 40.4179C34.3936 40.218 35.5153 40.9438 35.7288 42.0389Z" fill="#94C595"/>
<path d="M30.518 44.9694C29.0773 43.8104 28.1926 43.1384 27.8638 42.9534C27.8557 42.9488 27.8483 42.9447 27.8402 42.94C27.0578 42.4868 25.8641 41.9152 24.2592 41.2251C24.1966 41.1982 24.1356 41.1685 24.0761 41.1361L17.6648 37.6483C17.6315 37.6302 17.5987 37.6112 17.5664 37.5914C16.6415 37.024 15.1931 35.9762 13.2213 34.4481L13.3689 34.5528L5.21422 29.269L5.49604 29.4234C5.20925 29.2925 4.93655 29.0948 4.67794 28.8302L4.67812 28.8304C4.56349 28.7131 4.43636 28.5684 4.29673 28.3963C3.57743 27.5098 3.76221 26.2453 4.70945 25.5721C5.65668 24.8989 7.00767 25.0718 7.72697 25.9584C7.787 26.0324 7.82995 26.0826 7.85582 26.1091L7.856 26.1092C7.74577 25.9965 7.58846 25.8934 7.38407 25.8001C7.48221 25.845 7.57633 25.8965 7.66588 25.9545L15.8206 31.2384C15.8714 31.2713 15.9206 31.3062 15.9682 31.3431C17.8167 32.7757 19.1365 33.7346 19.9276 34.2199L19.8293 34.1631L26.2405 37.6509L26.0574 37.5619C27.8236 38.3214 29.1733 38.9714 30.1066 39.5119L30.083 39.4985C30.62 39.8006 31.7008 40.6052 33.3256 41.9124C34.2276 42.6381 34.3302 43.9106 33.5549 44.7548C32.7796 45.599 31.4199 45.6951 30.518 44.9694Z" fill="#94C595"/>
<path d="M31.3592 3.96946L36.5763 9.02585C36.6141 9.06242 36.6503 9.10034 36.685 9.1395L42.8034 16.046C42.8563 16.1057 42.9055 16.1683 42.9508 16.2334C46.0209 20.6508 48.6429 25.5851 49.7131 27.5974C49.9723 28.085 50.1068 28.3363 50.1512 28.4108L50.1508 28.4102C50.1528 28.4137 50.1442 28.3988 50.1285 28.375C50.7519 29.323 50.4361 30.5645 49.4232 31.148C48.4102 31.7315 47.0837 31.436 46.4603 30.4879C46.4313 30.4438 46.4056 30.4014 46.3885 30.3728L46.3881 30.3722C46.2806 30.1914 46.0816 29.8158 45.8571 29.3937C44.7824 27.3728 42.2589 22.6311 39.3403 18.4316L39.4877 18.619L33.3693 11.7126L33.478 11.8262L28.2609 6.76981C27.4347 5.96904 27.4585 4.69301 28.3141 3.91971C29.1697 3.14642 30.533 3.16869 31.3592 3.96946Z" fill="#94C595"/>
<path d="M69.9888 28.7114C70.1285 27.1258 70.2475 26.1161 70.3459 25.6823L70.3459 25.6822C70.3729 25.5632 70.404 25.4547 70.439 25.3565L70.3576 25.6625C71.0179 21.9711 71.4453 19.8207 71.6398 19.2113L71.6398 19.2112C71.7645 18.8203 71.9573 18.4997 72.2182 18.2493L71.719 19.0137L72.8587 15.8424L72.8113 15.9935C73.3728 13.9034 73.8454 12.3451 74.2291 11.3186C74.2312 11.3129 74.2335 11.307 74.2357 11.3013C75.3015 8.53135 75.884 6.966 75.983 6.60524L75.983 6.60519C75.9826 6.60675 75.982 6.60904 75.9813 6.61205C76.0106 6.49676 76.0508 6.38413 76.1014 6.27545L78.456 1.21179C78.9306 0.191053 80.1995 -0.27627 81.2901 0.167959C82.3807 0.612201 82.88 1.79979 82.4054 2.82049L80.0507 7.88417L80.1708 7.54759C80.1658 7.56746 80.1604 7.58787 80.1546 7.60881L80.1546 7.60876C80.0219 8.09199 79.3997 9.77813 78.2881 12.6672L78.2947 12.6499C77.9538 13.5618 77.5184 15.004 76.9885 16.9765C76.9748 17.0274 76.959 17.0778 76.9411 17.1276L75.8014 20.2989C75.6984 20.5855 75.5278 20.8468 75.3022 21.0633C75.5345 20.8404 75.6893 20.6076 75.7668 20.3649L75.7668 20.3648C75.6235 20.8139 75.2364 22.8017 74.6056 26.3281C74.587 26.432 74.5598 26.5342 74.5242 26.6341C74.5407 26.5878 74.5523 26.5497 74.5591 26.5198L74.5592 26.5197C74.4987 26.7863 74.4061 27.6272 74.2815 29.0426C74.1838 30.152 73.1436 30.9773 71.9583 30.8858C70.7729 30.7944 69.8911 29.8209 69.9888 28.7114Z" fill="#94C595"/>
<path d="M80.324 43.4098L80.3833 43.3904L80.3841 43.3902L80.3247 43.4096C81.5974 42.9741 82.3709 42.6756 82.6452 42.514C82.56 42.5641 82.4675 42.643 82.3675 42.7504C82.4633 42.6474 82.5699 42.5539 82.6859 42.4712L93.7421 34.5809L93.5092 34.7735C95.9407 32.4494 98.5175 30.3467 101.24 28.4653L100.937 28.7187C102.577 27.058 103.9 25.4856 104.905 24.0017L104.783 24.2082C104.868 24.0422 104.986 23.8733 105.135 23.7015L105.136 23.7014C105.41 23.3871 106.12 22.7078 107.265 21.6635C108.117 20.8868 109.481 20.9036 110.311 21.7011C111.141 22.4985 111.123 23.7747 110.271 24.5514C109.242 25.4891 108.642 26.0557 108.472 26.2513L108.472 26.2512C108.538 26.1753 108.602 26.0763 108.665 25.9542C108.629 26.0252 108.588 26.0941 108.543 26.1606C107.398 27.8503 105.917 29.615 104.101 31.4547C104.009 31.5479 103.907 31.6328 103.798 31.7082C101.261 33.4617 98.8573 35.4236 96.5866 37.5939C96.5141 37.6633 96.4362 37.7276 96.3537 37.7865L85.2975 45.6768L85.6159 45.3976C85.438 45.5888 85.2126 45.7648 84.9397 45.9256C84.4076 46.2391 83.3623 46.6624 81.8036 47.1958L81.7442 47.2152L81.7435 47.2154C80.6857 47.5782 79.449 47.0405 79.0407 45.9949C78.6323 44.9494 79.2069 43.792 80.324 43.4098Z" fill="#94C595"/>
<path d="M36.5905 83.2983L29.7573 84.0599L30.3088 83.9275C27.627 84.9407 26.1614 85.7121 25.6718 86.0243L25.6718 86.0243L25.1993 86.3256L25.1994 86.3255L24.7525 86.6106C20.3222 89.4361 18.1387 90.8569 17.6876 91.3154L17.6873 91.3156C17.6891 91.3138 17.6876 91.3155 17.694 91.3085C17.6214 91.3877 17.5423 91.4616 17.4574 91.5293L8.45523 98.7165L8.61532 98.5748L3.71131 103.383C2.89002 104.188 1.52682 104.218 0.666513 103.449C-0.1938 102.68 -0.22543 101.404 0.595844 100.599L5.49986 95.7912C5.55061 95.7415 5.60404 95.6942 5.65995 95.6495L14.6621 88.4624L14.4254 88.6832C14.4552 88.6507 14.4906 88.6136 14.5196 88.5841L14.5194 88.5844C15.4102 87.6792 18.2629 85.8712 22.3271 83.2792L22.774 82.9942L22.7741 82.9941L23.2465 82.6928L23.2465 82.6929C24.0975 82.1501 25.8819 81.2527 28.6965 80.1893C28.8732 80.1226 29.0587 80.078 29.248 80.057L36.0812 79.2953C37.2623 79.1637 38.3337 79.9531 38.4743 81.0585C38.615 82.1638 37.7716 83.1667 36.5905 83.2983Z" fill="#94C595"/>
<path d="M48.3559 100.583C47.9692 101.937 47.6495 102.506 47.0757 103.522L47.0757 103.522C46.7582 104.084 46.3401 104.824 45.7327 106.014C45.7131 106.052 45.6922 106.09 45.6701 106.127L41.609 112.939C41.5904 112.971 41.5709 113.001 41.5505 113.031L41.5514 113.03L41.5492 113.033L41.5484 113.035C40.2466 114.969 39.2624 116.405 38.6112 117.243L38.607 117.248L38.6056 117.25L38.6097 117.244C36.1618 120.391 34.4982 122.423 33.8041 123.047L33.8042 123.047C33.7514 123.094 33.4585 123.369 33.0449 123.543L33.9991 122.755C33.4373 123.617 32.8668 124.367 32.2834 124.941L32.6806 124.392C32.7731 124.203 32.9086 123.801 32.7681 123.299C33.0696 124.376 32.3812 125.478 31.2307 125.76C30.0801 126.042 28.903 125.398 28.6016 124.321C28.4182 123.666 28.579 123.092 28.7649 122.713C28.864 122.51 28.9982 122.325 29.1622 122.163C29.4493 121.881 29.8377 121.399 30.3217 120.656C30.5476 120.309 30.8802 120.034 31.2758 119.868C30.929 120.014 30.7385 120.213 30.8214 120.138L30.8215 120.138C31.1674 119.828 32.555 118.179 35.1275 114.872L35.1317 114.867L35.1331 114.865L35.129 114.87C35.6774 114.165 36.5774 112.857 37.9041 110.886L37.9032 110.887L37.9053 110.884L37.8477 110.975L41.9088 104.163L41.8463 104.276C42.4907 103.014 42.9402 102.218 43.2681 101.638L43.2681 101.638C43.7818 100.728 43.9303 100.469 44.1948 99.5423C44.5019 98.4669 45.6823 97.828 46.8314 98.1155C47.9804 98.4029 48.663 99.5078 48.3559 100.583Z" fill="#94C595"/>
<path d="M66.7728 101.525L68.5785 107.782L68.5193 107.608C70.1344 111.695 71.8343 115.061 74.5902 118.456L74.4935 118.345L79.4652 123.643C79.4737 123.652 79.4822 123.661 79.4906 123.671C79.5175 123.7 78.8487 122.934 77.698 123.251C78.8391 122.937 80.0361 123.548 80.3716 124.616C80.7072 125.684 80.0541 126.804 78.913 127.118C77.4772 127.514 76.5027 126.606 76.2036 126.276L76.229 126.303L71.2573 121.005C71.2237 120.97 71.1914 120.933 71.1606 120.895C68.0556 117.07 66.178 113.304 64.4796 109.007C64.457 108.95 64.4373 108.892 64.4203 108.833L62.6146 102.576C62.3044 101.501 62.9839 100.395 64.1321 100.104C65.2804 99.8141 66.4626 100.45 66.7728 101.525Z" fill="#94C595"/>
<path d="M87.9146 84.3844C89.5938 84.8738 91.0929 85.5433 92.412 86.3928C92.4814 86.4375 92.5479 86.4859 92.6112 86.5379L98.778 91.6001C98.8233 91.6372 98.8668 91.6761 98.9086 91.7167L102.73 95.4273C102.784 95.4799 102.835 95.5352 102.883 95.593C104.836 97.9568 106.445 99.789 107.711 101.089C107.796 101.177 107.873 101.272 107.941 101.373L111.38 106.485C112.014 107.427 111.712 108.671 110.706 109.265C109.699 109.858 108.369 109.575 107.736 108.633L104.296 103.521L104.526 103.804C103.183 102.423 101.499 100.508 99.4757 98.0593L99.6286 98.2249L95.8074 94.5143L95.9379 94.6309L89.7711 89.5686L89.9703 89.7137C89.0099 89.0952 87.8978 88.6017 86.634 88.2334C85.4984 87.9025 84.8645 86.7725 85.2181 85.7096C85.5717 84.6468 86.779 84.0535 87.9146 84.3844Z" fill="#94C595"/>
<path d="M37.8878 42.0389L37.8881 42.039C37.8857 42.0385 37.8839 42.0382 37.8828 42.0381L37.8819 42.0379C38.2922 42.0981 39.4088 42.0502 41.2315 41.8941L41.0733 41.9132C43.2774 41.5691 45.2422 41.3043 46.9676 41.119L46.977 41.118L58.9174 39.8849C58.9436 39.8823 58.9699 39.88 58.9963 39.8782C59.8829 39.8174 60.7252 39.7918 61.5233 39.8013C61.5427 39.8016 61.5616 39.802 61.5811 39.8027L66.3205 39.9784L66.2815 39.9773C68.6624 40.0251 70.0224 40.0374 70.3615 40.0141L70.3587 40.0143C70.3579 40.0144 70.3586 40.0143 70.361 40.0141C70.3756 40.013 70.3906 40.012 70.4052 40.0112L77.9081 39.5789L77.7417 39.5946C78.504 39.4947 79.0231 39.3977 79.2989 39.3037C80.4165 38.9227 81.6525 39.4617 82.0595 40.5077C82.4666 41.5537 81.8907 42.7105 80.7731 43.0915C80.2129 43.2825 79.4016 43.4476 78.3391 43.5869C78.2838 43.5942 78.2283 43.5994 78.1727 43.6026L70.6698 44.0348L70.714 44.0318C70.7047 44.0326 70.6934 44.0334 70.68 44.0343L70.6772 44.0345C70.2025 44.0672 68.7064 44.0582 66.189 44.0076C66.176 44.0073 66.163 44.007 66.15 44.0065L61.4106 43.8308L61.4684 43.8322C60.7938 43.8242 60.0746 43.8463 59.3109 43.8987L59.3897 43.8919L47.4494 45.1249L47.4588 45.1239C45.806 45.3015 43.9138 45.5567 41.7821 45.8895C41.7296 45.8977 41.6768 45.9041 41.6239 45.9086C39.4467 46.095 37.9771 46.1324 37.2151 46.0206L37.2143 46.0204C37.1774 46.015 37.1413 46.0093 37.1059 46.0032C35.9366 45.8012 35.1633 44.75 35.3791 43.6553C35.595 42.5606 36.7181 41.8369 37.8878 42.0389Z" fill="#94C595"/>
<path d="M16.265 26.4268C15.6635 26.554 15.0759 26.4694 14.5022 26.173L14.4887 26.1659L13.3502 25.5678L13.341 25.5629C13.1001 25.4349 12.8165 25.2592 12.4901 25.0359L12.6821 25.1531C12.5955 25.1062 12.5279 25.0688 12.4793 25.0408L12.4801 25.0412C12.2998 24.9377 12.1447 24.8231 12.0149 24.6974L12.5326 25.0664C12.1462 24.8692 11.8331 24.5748 11.5935 24.1833C11.0024 23.2173 11.3599 21.9857 12.3919 21.4324C13.424 20.8792 14.7399 21.2137 15.331 22.1797C15.1668 21.9114 14.9214 21.6938 14.5946 21.5271C14.7862 21.6249 14.9607 21.7493 15.1124 21.8962C14.9892 21.7768 14.8625 21.6798 14.7322 21.605L14.733 21.6054C14.7502 21.6153 14.7859 21.6349 14.8402 21.6644C14.9064 21.7003 14.9705 21.7394 15.0322 21.7816C15.2252 21.9137 15.3704 22.0056 15.4679 22.0574L15.4587 22.0525L16.5971 22.6507L16.5836 22.6437C16.2017 22.4464 15.7792 22.3967 15.316 22.4946C16.4762 22.2493 17.6291 22.9308 17.8911 24.0166C18.1532 25.1024 17.4251 26.1815 16.265 26.4268Z" fill="#94C595"/>
<path d="M17.1338 23.0907L16.6439 22.6649L16.878 22.8415L15.9887 22.2615C15.9408 22.2302 15.8942 22.1971 15.8491 22.1623C15.5591 21.9382 15.2288 21.6631 14.8582 21.3369C13.9919 20.5742 13.9502 19.2985 14.7651 18.4877C15.58 17.6768 16.9429 17.6378 17.8093 18.4005C18.1123 18.6672 18.3729 18.8849 18.591 19.0534L18.4514 18.9541L19.3406 19.5342C19.423 19.5879 19.5012 19.6469 19.5747 19.7108L20.0646 20.1366C20.9362 20.8941 20.9866 22.1694 20.1773 22.9852C19.368 23.8009 18.0053 23.8481 17.1338 23.0907Z" fill="#94C595"/>
<path d="M29.5417 23.2896L29.0518 22.8638L29.2859 23.0405L28.3967 22.4605C28.3487 22.4292 28.3021 22.3961 28.2571 22.3613C27.967 22.1372 27.6368 21.8621 27.2662 21.5358C26.3998 20.7732 26.3581 19.4975 27.173 18.6866C27.988 17.8758 29.3509 17.8367 30.2173 18.5995C30.5203 18.8662 30.7808 19.0839 30.9989 19.2523L30.8593 19.1531L31.7486 19.7332C31.8309 19.7869 31.9092 19.8459 31.9827 19.9098L32.4726 20.3356C33.3442 21.0931 33.3946 22.3684 32.5853 23.1842C31.7759 23.9999 30.4133 24.0471 29.5417 23.2896Z" fill="#94C595"/>
<path d="M30.0567 27.6839C29.4552 27.811 28.8676 27.7265 28.2939 27.4301L28.2804 27.423L27.142 26.8248L27.1327 26.82C26.8918 26.6919 26.6082 26.5163 26.2819 26.293L26.4738 26.4102C26.3879 26.3636 26.3206 26.3263 26.2718 26.2983L26.2708 26.2978C26.0907 26.1942 25.9358 26.0796 25.806 25.9539L26.3244 26.3235C25.9379 26.1263 25.6249 25.8319 25.3853 25.4404C24.7941 24.4744 25.1516 23.2428 26.1837 22.6895C27.2158 22.1363 28.5317 22.4708 29.1228 23.4368C28.9586 23.1685 28.7131 22.9509 28.3864 22.7842C28.5782 22.8821 28.753 23.0067 28.9047 23.1538C28.7816 23.0345 28.655 22.9374 28.5248 22.8626L28.5238 22.862C28.5408 22.8718 28.5769 22.8916 28.632 22.9215C28.6981 22.9573 28.7622 22.9965 28.8239 23.0387C29.0169 23.1707 29.1622 23.2627 29.2597 23.3145L29.2505 23.3096L30.3889 23.9078L30.3754 23.9008C29.9935 23.7035 29.5709 23.6538 29.1077 23.7517C30.2679 23.5064 31.4208 24.1879 31.6829 25.2737C31.9449 26.3595 31.2169 27.4386 30.0567 27.6839Z" fill="#94C595"/>
<path d="M33.4648 36.1281L33.4648 36.128C33.3257 36.4779 32.42 37.9709 30.64 37.35L30.6403 37.3501C29.7023 37.0231 29.3491 36.2097 29.3563 36.2233L29.3562 36.2233C29.1991 35.9226 29.0642 35.559 29.0123 35.145C28.9546 34.6862 28.9503 34.2342 29.017 33.8072L29.017 33.8072C29.0384 33.67 29.0679 33.5306 29.1072 33.3917L29.0431 34.0777C29.0044 33.65 29.1133 33.278 29.1487 33.1562C29.3183 32.5724 29.7351 31.6986 30.3019 30.6593C31.0478 29.2917 32.3574 28.311 33.9176 27.6664C33.9907 27.6362 34.0625 27.6087 34.135 27.583L34.1353 27.5829C34.6583 27.3976 35.2169 27.3091 35.7643 27.349H35.764C36.2809 27.3867 36.8416 27.4856 37.3049 27.5654L37.3054 27.5655C37.3633 27.5754 37.3835 27.5789 37.4425 27.589L37.6043 27.6229L37.6047 27.623L37.4433 27.5892C37.5464 27.607 37.6467 27.6267 37.7425 27.6488L37.7418 27.6486C37.8583 27.6754 38.0233 27.7179 38.1941 27.7836L38.1951 27.7839C38.7275 27.9889 39.2282 28.1952 39.582 28.3889L39.5818 28.3888C39.6619 28.4326 40.0897 28.6545 40.4091 29.0568L39.8029 28.5389C39.8428 28.5617 39.8609 28.5705 40.01 28.6224L40.0102 28.6225C40.1349 28.666 40.4512 28.7709 40.7889 28.9639L40.7885 28.9637C41.1036 29.1437 41.3833 29.3658 41.6441 29.6312L38.2139 29.9567C38.5992 29.3574 39.0319 28.849 39.5298 28.4659C40.2666 27.8988 41.3105 27.5091 42.4213 27.8262C43.2459 28.0616 43.9228 28.4409 44.4205 28.8677L44.4206 28.8678C44.5008 28.9366 45.8454 30.0027 45.3681 31.4669L45.3682 31.4668C44.9442 32.7676 43.6313 32.9997 42.9795 32.9393H42.9796C42.7198 32.9153 42.0174 32.8682 41.1306 33.0172L41.1305 33.0173C40.4428 33.1328 39.8819 32.9406 39.7535 32.8991L39.754 32.8993C39.7114 32.8855 39.6813 32.8753 39.6594 32.8678L39.6602 32.8681C39.6386 32.8607 39.6306 32.8581 39.6274 32.857L39.6288 32.8575C39.542 32.8293 39.9338 32.9876 40.4565 32.8996L40.4561 32.8997C41.2178 32.7717 41.6068 32.2856 41.7338 32.0618C41.4495 32.5628 40.9528 32.9284 40.3657 33.069C39.7785 33.2095 39.1552 33.1121 38.6488 32.8005C38.8087 32.8988 39.1631 32.9167 39.5682 32.7313L39.5684 32.7312C40.8825 32.1295 40.6434 30.7352 40.6606 31.0932L40.6607 31.0933C40.6205 30.2562 41.0715 32.354 39.4327 33.1038L39.4286 33.1056C39.0434 33.281 38.6733 33.3197 38.3942 33.311L38.437 33.3119L38.4346 33.3119L38.3931 33.311C38.2813 33.3075 37.7492 33.3625 36.6888 33.7558H36.6887C36.9208 33.6697 37.0509 33.5348 37.0891 33.4903L37.1316 33.4391L35.9726 34.8825L36.0836 34.7302C35.7173 35.2857 35.3732 35.9947 34.9936 36.9089L34.9937 36.9088C34.7666 37.4557 33.9981 38.5301 32.5203 38.4085H32.5202C30.9998 38.2834 30.0742 37.2522 29.7065 36.1937L29.7065 36.1936C29.4682 35.5077 29.4248 34.7575 29.4946 34.0151L29.4946 34.015C29.4975 33.984 29.501 33.9488 29.5043 33.9179C29.6036 32.9908 30.1054 32.292 30.6423 31.8152L30.6422 31.8153C31.1162 31.3943 31.6622 31.1018 32.1407 30.8941C33.2197 30.4258 34.5001 30.8649 35.0004 31.8748C35.5007 32.8847 35.0316 34.083 33.9525 34.5513C33.7159 34.654 33.6212 34.7269 33.6071 34.7394L33.607 34.7395C33.6108 34.7362 33.7609 34.5922 33.79 34.3201C33.7884 34.3348 33.7865 34.3542 33.7852 34.3681L33.7852 34.368C33.7485 34.7583 33.7966 34.93 33.8027 34.9473L33.8027 34.9473C33.7919 34.9162 33.5492 34.4464 32.8974 34.3927H32.8973C31.6207 34.2877 31.0797 35.2062 30.979 35.4487L30.979 35.4486C31.3899 34.4591 31.8456 33.4814 32.4184 32.6128C32.4529 32.5605 32.4899 32.5097 32.5294 32.4606L33.6884 31.0172C33.7022 31 33.7164 30.9829 33.7308 30.966C33.9917 30.662 34.4273 30.2582 35.1023 30.008H35.1022C36.3296 29.5528 37.5263 29.2511 38.534 29.2819L38.4925 29.281L38.4949 29.2811L38.5377 29.282C38.2752 29.2738 37.9194 29.3099 37.5451 29.4802L37.5411 29.4821C35.9563 30.2072 36.4032 32.2188 36.3578 31.2743V31.2744C36.3665 31.4545 36.1161 29.8241 37.6756 29.11L37.6758 29.11C38.0809 28.9245 39.4583 28.474 41.0151 29.432L37.9301 30.1706C38.2052 29.6859 38.7584 29.0893 39.6949 28.9319L39.6945 28.9319C40.3815 28.8164 40.9471 29.0186 41.0392 29.0485L41.0407 29.049C41.0757 29.0604 41.1092 29.0718 41.1263 29.0775L41.127 29.0778C41.1532 29.0866 41.1525 29.0864 41.1583 29.0883L41.1588 29.0885C41.2243 29.1096 40.8614 28.9668 40.3696 29.0494L40.3695 29.0494C41.7844 28.8117 42.9161 28.8826 43.4034 28.9276L43.4035 28.9276C42.8816 28.8793 41.6461 29.0703 41.2484 30.2907L41.2484 30.2906C40.8337 31.5627 41.9462 32.2135 41.5106 31.8399L41.5107 31.84C41.4992 31.8301 41.391 31.7467 41.1645 31.682C41.8526 31.8785 42.2756 31.5718 42.2653 31.5797C42.2552 31.5874 42.1213 31.6977 41.9045 32.0351C41.5547 32.5791 40.9514 32.9372 40.2764 33.0012C39.6014 33.0653 38.9336 32.8279 38.4743 32.3605C38.4465 32.3323 38.4718 32.3631 38.5442 32.4045L38.5438 32.4042C38.608 32.4409 38.6639 32.455 38.5064 32.4001L38.5066 32.4002C38.3214 32.3356 37.9735 32.2167 37.5586 31.9797C37.3229 31.8449 37.1171 31.6691 36.9524 31.4617C37.2181 31.7963 37.5215 31.931 37.4081 31.869L37.4079 31.8689C37.3422 31.8329 37.0967 31.7201 36.5567 31.5122L36.5577 31.5125C36.6675 31.5548 36.7322 31.5676 36.7153 31.5637L36.7146 31.5636C36.715 31.5637 36.6963 31.5595 36.6654 31.5542L36.504 31.5204L36.5036 31.5203L36.6654 31.5542C36.7373 31.5665 36.452 31.5174 36.5248 31.53L36.5253 31.5301C35.9937 31.4385 35.6747 31.386 35.4296 31.3681H35.4293C35.5934 31.3801 35.6699 31.3496 35.6602 31.3531L35.6605 31.353C35.6589 31.3535 35.6597 31.3532 35.6569 31.3543C34.734 31.7356 34.3162 32.1657 34.1382 32.4921C33.5702 33.5335 33.3452 34.0755 33.305 34.2138C33.2811 34.2959 33.3652 34.0728 33.3349 33.7376C33.3558 33.9681 33.3341 34.2001 33.2708 34.4236C33.2772 34.4011 33.279 34.3892 33.2789 34.3898L33.2789 34.3898C33.2777 34.3979 33.2665 34.4876 33.29 34.6744C33.2752 34.557 33.2408 34.4816 33.2255 34.4524L33.2255 34.4523C33.3088 34.6116 33.0256 33.8799 32.1439 33.5725L32.1442 33.5725C30.4101 32.9677 29.5418 34.436 29.4279 34.7225C29.8428 33.679 31.0826 33.148 32.1974 33.5361C33.3121 33.9243 33.8795 35.0848 33.4648 36.1281Z" fill="#94C595"/>
<path d="M90.9507 9.90338L90.9507 9.90318C90.944 10.0111 90.9279 10.1286 90.9024 10.2557L90.9024 10.2556C90.886 10.3376 90.864 10.4329 90.8363 10.5416C90.8314 10.561 90.8261 10.5803 90.8206 10.5996C90.6922 11.0452 90.6175 11.3114 90.5966 11.3982L90.5966 11.398C90.599 11.3882 90.6017 11.3755 90.6048 11.3599C90.6018 11.3751 90.5986 11.3903 90.5952 11.4054C90.5883 11.4359 90.5837 11.4569 90.5815 11.4683L90.5814 11.4684C90.5853 11.4489 90.5892 11.4244 90.5931 11.3948C90.592 11.4029 90.5909 11.4108 90.5897 11.419C90.5684 11.5654 90.5503 11.6819 90.5355 11.7684C90.3473 12.8675 89.2427 13.6158 88.0683 13.4397C86.8939 13.2636 86.0944 12.2297 86.2826 11.1305C86.2921 11.0751 86.3052 10.9896 86.3221 10.8741L86.3187 10.8983C86.3253 10.8485 86.3345 10.7939 86.3462 10.7347L86.3462 10.7348C86.3549 10.6906 86.3664 10.6369 86.3806 10.5737L86.3709 10.6193C86.3775 10.5862 86.3855 10.5503 86.3949 10.5114L86.3949 10.5113C86.429 10.3699 86.518 10.0494 86.662 9.54971L86.6463 9.60777C86.6578 9.56246 86.6654 9.5309 86.6689 9.5131L86.6689 9.51304C86.6608 9.5534 86.6549 9.60465 86.651 9.66678C86.7208 8.55532 87.74 7.70745 88.9274 7.77283C90.1147 7.83821 91.0206 8.79209 90.9507 9.90338Z" fill="#94C595"/>
<path d="M93.9037 13.4372C94.1171 13.3594 94.2908 13.247 94.4246 13.1001C94.3784 13.1509 94.3294 13.1995 94.278 13.2458L94.2778 13.246C94.2912 13.2339 94.3014 13.2243 94.3084 13.217L94.3086 13.2168C94.2722 13.2545 94.2111 13.3289 94.1253 13.4401C93.4288 14.3424 92.0826 14.5455 91.1184 13.8936C90.1543 13.2417 89.9374 11.9817 90.6339 11.0794C90.8118 10.8489 90.9716 10.6603 91.1133 10.5136L91.1135 10.5134C91.1743 10.4505 91.2343 10.3923 91.2937 10.339L91.1468 10.4849C91.4823 10.1166 91.8803 9.84847 92.341 9.6806C93.4494 9.27672 94.6977 9.79027 95.1292 10.8276C95.5607 11.865 95.012 13.0333 93.9037 13.4372Z" fill="#94C595"/>
<path d="M95.7122 25.1215C95.7218 25.1132 95.7289 25.1066 95.7336 25.1016L95.7335 25.1018C95.7178 25.1183 95.6956 25.1471 95.6668 25.1885C95.6622 25.195 95.6578 25.2013 95.6531 25.2078L95.6525 25.2087C95.6539 25.2068 95.6546 25.2058 95.6546 25.2057L95.6545 25.2059C95.6013 25.282 95.4931 25.4626 95.3299 25.7477C94.7682 26.729 93.4629 27.0982 92.4145 26.5725C91.3661 26.0468 90.9716 24.8251 91.5333 23.8439C91.7557 23.4555 91.9277 23.1742 92.0494 22.9999L92.0493 23.0001C92.0572 22.9887 92.0656 22.9769 92.0744 22.9646L92.0601 22.9848C92.2061 22.7755 92.358 22.5878 92.516 22.4217L92.5158 22.4219C92.6041 22.3291 92.6946 22.2425 92.7874 22.1622C93.6605 21.4063 95.0231 21.456 95.8307 22.2732C96.6384 23.0903 96.5853 24.3656 95.7122 25.1215Z" fill="#94C595"/>
<path d="M99.1182 27.1523C99.0322 27.1977 98.9399 27.2648 98.8412 27.3536C98.8361 27.3582 98.8311 27.3627 98.826 27.3673L98.8257 27.3675C98.8295 27.3641 98.8324 27.3615 98.8345 27.3594L98.8348 27.3592C98.7971 27.3959 98.7405 27.4663 98.6648 27.5704C97.9962 28.491 96.6567 28.73 95.6731 28.1042C94.6894 27.4784 94.4341 26.2248 95.1027 25.3041C95.3149 25.012 95.5238 24.7658 95.7296 24.5655L95.7298 24.5653C95.7767 24.5197 95.8236 24.4761 95.8707 24.4346L95.8552 24.4484C96.2166 24.123 96.5991 23.8539 97.0026 23.6409C98.0387 23.0941 99.3522 23.4369 99.9364 24.4066C100.521 25.3762 100.154 26.6056 99.1182 27.1523Z" fill="#94C595"/>
<path d="M86.5365 26.6552V26.6553C86.8284 26.7421 87.0588 26.8811 87.2276 27.0721V27.0722C87.0398 26.881 86.8018 26.7368 86.5353 26.6551L86.5365 26.6552ZM76.7026 27.6353V27.6354C76.6839 27.6635 76.665 27.6922 76.646 27.7212C76.5828 27.8174 76.5312 27.9199 76.4922 28.0267V28.0269C76.5475 27.8752 76.6173 27.7446 76.7015 27.6351L76.7026 27.6353ZM82.3138 23.9821V23.9822V23.9823C81.615 23.9732 80.8882 24.0629 80.1332 24.2511C80.1207 24.2542 80.1084 24.2574 80.096 24.2608C79.886 24.3182 79.6747 24.409 79.4621 24.5334L79.462 24.5334C79.1277 24.7289 78.7382 25.0437 78.2934 25.4776L78.2923 25.4777C78.2199 25.5404 78.149 25.6108 78.0797 25.6886L78.0796 25.6887C77.8486 25.9481 77.4258 26.542 76.8112 27.4706L76.8101 27.4707C76.7814 27.4848 76.7498 27.5001 76.7151 27.5167L76.715 27.5169C75.9133 27.9008 75.596 28.8203 76.0063 29.5707C76.2913 30.092 76.8525 30.3945 77.4374 30.4018C77.6945 30.4051 77.6444 30.2918 77.4073 30.4222C76.7969 30.7578 78.3273 30.4928 78.4767 30.3991L77.9401 30.5788C76.9522 31.452 78.3163 30.6104 78.3303 30.6013L78.2997 30.4462C77.6886 31.5092 77.3802 32.4926 78.7182 32.1002L79.2378 32.4418C78.1254 33.4847 77.1407 33.1778 78.6005 32.2679L78.6092 32.2624C78.4549 32.4742 77.9254 33.1441 78.9761 32.7225L78.6243 32.8935C78.4591 33.1893 77.1269 33.5914 78.5722 33.2709L80.0165 32.5881C79.8894 32.6241 79.7665 32.6748 79.6509 32.7398C78.7114 33.2677 78.4884 34.0592 78.9816 35.1143L78.9817 35.1144C79.0379 35.2347 79.1068 35.3605 79.1883 35.4918L79.1883 35.4919C79.2059 35.5203 79.2246 35.5482 79.2441 35.5755C79.5484 36.0002 79.9834 36.2774 80.549 36.4073L80.5481 36.4074L82.3663 36.856C82.416 36.8683 82.4665 36.8783 82.5173 36.8862C82.6792 36.9111 82.8411 36.9248 83.003 36.9272L83.0029 36.9273C83.0056 36.9273 83.0084 36.9273 83.0111 36.9273C83.2408 36.9302 83.4683 36.9105 83.6937 36.8681L83.6939 36.8681C83.9971 36.811 84.2911 36.7142 84.5759 36.5774L84.5747 36.5775C86.5994 35.7641 87.9309 34.3493 88.5692 32.3331L88.568 32.3332C89.0241 31.2524 89.0623 30.0337 88.6826 28.6769C88.6695 28.6301 88.6541 28.5841 88.6363 28.5387C88.5011 28.1932 88.2949 27.9009 88.0179 27.6619C87.9349 27.5903 87.8442 27.527 87.7473 27.4729C87.5677 27.3728 87.4419 27.2941 87.3697 27.237L87.3685 27.2371C87.3404 27.199 87.3106 27.1623 87.2791 27.1271L87.2779 27.1272C87.1678 26.9527 86.9506 26.5613 86.6262 25.9528C86.5989 25.9016 86.5685 25.852 86.5353 25.804C86.2931 25.4543 85.9841 25.146 85.6084 24.8791C85.5487 24.8367 85.4859 24.7981 85.4206 24.7638C84.4553 24.2565 83.4198 23.996 82.3138 23.9821Z" fill="#94C595"/>
<path d="M80.7436 37.1287C80.8705 36.6471 81.1473 36.1996 81.574 35.7862L81.5747 35.7855C81.5878 35.7728 81.6019 35.7594 81.6167 35.7454C81.6424 35.7212 81.6687 35.6977 81.6957 35.6747L81.6899 35.6796L81.6911 35.6786L81.6968 35.6737C82.1417 35.295 82.4599 35.037 82.6513 34.8997L82.6512 34.8998C83.7692 34.0979 84.7761 34.1569 85.6718 35.0769L85.6751 35.0803C85.8842 35.2961 86.0363 35.5426 86.1315 35.8201L82.9 34.7506C83.8304 34.1796 84.8118 34.2455 85.8441 34.9484L85.8443 34.9485C86.0317 35.0762 86.2297 35.2333 86.4382 35.4198C86.491 35.4669 86.5412 35.5167 86.5886 35.5686L86.5885 35.5686C86.959 35.9748 87.2419 36.3641 87.4375 36.7365L87.4375 36.7365C87.7538 37.3387 87.8665 37.9299 87.7756 38.5101L87.7959 38.121C87.8153 38.4981 87.7466 38.8916 87.59 39.3015L87.59 39.3014C87.4979 39.5422 87.3721 39.7976 87.2126 40.0675C87.1978 40.0926 87.1825 40.1173 87.1665 40.1417C87.0904 40.2585 87.0125 40.3675 86.9329 40.4688L86.9329 40.4687C86.5312 40.9797 86.057 41.3255 85.5102 41.506L86.0019 41.2737C85.6345 41.5068 85.1919 41.6554 84.6739 41.7197H84.6739C84.2764 41.769 83.7888 41.7733 83.2113 41.7326C83.1793 41.7303 83.1471 41.7274 83.1152 41.7237L83.115 41.7237C83.0731 41.719 83.0319 41.7138 82.9915 41.7081L82.9922 41.7082C82.1076 41.5845 81.4018 41.235 80.8747 40.6598C80.8556 40.6389 80.8372 40.618 80.819 40.5965C80.0698 39.7081 79.9234 38.7431 80.3797 37.7015L80.2528 38.1087C80.3291 37.7124 80.5112 37.3221 80.799 36.9377L80.799 36.9377C80.856 36.8616 80.9178 36.7847 80.9843 36.7072C81.0256 36.659 81.0694 36.6125 81.1153 36.568C81.4945 36.2009 81.9442 35.9553 82.4642 35.8312C83.6167 35.5562 84.7893 36.2077 85.0831 37.2863C85.3769 38.365 84.6808 39.4625 83.5283 39.7375C83.7974 39.6733 84.0253 39.5507 84.2122 39.3698L84.3432 39.2306C84.3353 39.2398 84.3296 39.2468 84.3262 39.2514L84.3261 39.2515C84.4008 39.1517 84.4561 39.009 84.4918 38.8235C84.4649 38.963 84.4224 39.0996 84.3649 39.2308C84.5449 38.82 84.4899 38.4426 84.2 38.0988L84.1443 38.0355C83.9746 37.8503 83.8026 37.7455 83.6285 37.7212L83.6291 37.7213C83.6299 37.7214 83.6305 37.7215 83.631 37.7215L83.5347 37.7127C83.8151 37.7324 84.0061 37.736 84.108 37.7233H84.1079C83.9538 37.7424 83.7797 37.8135 83.5858 37.9365C83.7383 37.8398 83.9036 37.7617 84.0775 37.7043C83.7905 37.799 83.5859 37.9241 83.4637 38.0796L83.4638 38.0795C83.4697 38.072 83.4783 38.0596 83.4896 38.0423L83.4435 38.1165C83.4905 38.037 83.5208 37.9793 83.5345 37.9433L83.5346 37.9433C83.4993 38.0355 83.4857 38.1593 83.4937 38.3147C83.487 38.1848 83.4938 38.0545 83.514 37.9257C83.4755 38.1714 83.4948 38.3678 83.572 38.5147L83.572 38.5147C83.5354 38.445 83.4488 38.3353 83.3122 38.1855L83.4626 38.3343C83.3929 38.272 83.342 38.23 83.3101 38.2082L83.3102 38.2083C83.8825 38.598 84.533 38.5691 85.2619 38.1218C84.6996 38.4669 83.9971 38.5464 83.3631 38.3365C82.729 38.1267 82.236 37.6517 82.0304 37.0523C82.1251 37.3284 82.2766 37.5739 82.4847 37.7887L82.4881 37.7921C83.3685 38.6964 84.2962 38.7989 85.2711 38.0996L85.2709 38.0997C85.1755 38.1681 84.9502 38.3535 84.5948 38.656L84.6006 38.6511L84.5994 38.6521L84.6726 38.5863C84.6726 38.5862 84.6721 38.5868 84.6709 38.588L84.6716 38.5872C84.7825 38.4798 84.8671 38.3154 84.9255 38.0939C84.6407 39.1747 83.4737 39.8348 82.3189 39.5683C81.1641 39.3017 80.4588 38.2095 80.7436 37.1287Z" fill="#94C595"/>
<path d="M20.9965 99.9539C20.432 100.38 19.4618 101.305 18.0857 102.729C17.2878 103.554 15.9259 103.618 15.0439 102.872C14.1618 102.125 14.0936 100.85 14.8914 100.025C16.4187 98.4444 17.5523 97.3749 18.2922 96.8162C19.218 96.1173 20.5738 96.2531 21.3206 97.1196C22.0673 97.986 21.9222 99.2549 20.9965 99.9539Z" fill="#94C595"/>
<path d="M22.4882 102.843L22.4885 102.843C23.0046 102.719 23.3871 102.481 23.636 102.128L23.636 102.128C23.5161 102.298 23.2356 102.797 22.7947 103.624C22.2639 104.621 20.9708 105.026 19.9064 104.529C18.842 104.032 18.4094 102.822 18.9402 101.825C19.4583 100.853 19.8251 100.214 20.0404 99.9083L20.0405 99.9082C20.4022 99.3949 20.8622 99.0714 21.4205 98.9377C22.573 98.6617 23.7461 99.3124 24.0409 100.391C24.3357 101.469 23.6405 102.567 22.4882 102.843Z" fill="#94C595"/>
<path d="M24.0977 114.03L24.0976 114.03C24.1774 113.984 24.2394 113.941 24.2837 113.903C24.1418 114.026 23.8421 114.358 23.3846 114.898C22.646 115.771 21.2915 115.918 20.3593 115.226C19.427 114.535 19.27 113.267 20.0086 112.395C20.6017 111.694 21.0494 111.213 21.3517 110.95L21.3517 110.95C21.5086 110.813 21.6638 110.7 21.8172 110.61C22.8261 110.021 24.1546 110.309 24.7844 111.253C25.4141 112.197 25.1067 113.441 24.0977 114.03Z" fill="#94C595"/>
<path d="M28.2534 115.368L28.2721 115.348L28.2719 115.348L28.2532 115.368C28.0902 115.546 27.948 115.737 27.8264 115.942C27.2478 116.914 25.9363 117.264 24.8971 116.722C23.858 116.181 23.4846 114.953 24.0631 113.981C24.3257 113.539 24.6328 113.127 24.9845 112.743L24.9658 112.764L24.9661 112.764C25.7593 111.898 27.1189 111.801 28.0216 112.526C28.9242 113.251 29.028 114.523 28.2534 115.368Z" fill="#94C595"/>
<path d="M34.7265 91.4637L34.7264 91.4636C34.886 91.6357 35.0433 91.7394 35.1982 91.7746L35.1981 91.7745C35.0482 91.7405 34.763 91.7451 34.3426 91.7884L34.5421 91.7589C33.8198 91.8982 32.8679 92.1966 31.6863 92.6541C31.6791 92.6569 31.6723 92.6594 31.6651 92.6622L31.4918 92.7194L31.4916 92.7194L31.6651 92.6622C31.458 92.74 31.2031 92.8747 30.9004 93.0663L31.1257 92.9023C30.5531 93.3794 30.4289 94.0987 30.7532 95.0602L30.7496 95.0495C30.9033 95.4964 31.3658 96.007 32.1372 96.5813L31.983 96.4766C33.0807 97.1548 33.8175 97.5242 34.1936 97.5847H34.1937C34.1163 97.5723 34.014 97.5778 33.887 97.6013L33.7345 97.635C34.2339 97.5066 34.5646 97.4052 34.7264 97.3308L34.4309 97.4952L35.966 96.4779L35.9488 96.4894C35.9449 96.4921 35.942 96.4941 35.9402 96.4955L35.9398 96.4958C36.139 96.3477 36.4823 95.9508 36.9696 95.3051L36.8561 95.4725C36.7544 95.6399 36.7254 95.8492 36.7689 96.1004L36.8193 96.3158L36.8192 96.3154L36.8102 96.2838C36.5341 95.289 36.3697 94.603 36.317 94.2259C36.2708 93.8954 36.3128 93.5595 36.4394 93.248L36.4393 93.2481C35.9449 94.4654 36.3499 95.3061 37.6542 95.7702C37.9875 95.8889 38.2859 95.9243 38.5495 95.8765L38.5498 95.8765C38.496 95.8863 38.3992 95.9117 38.2595 95.9528C37.1248 96.2866 35.9159 95.6963 35.5592 94.6343C35.2026 93.5723 35.8333 92.4409 36.9679 92.1071C37.2631 92.0203 37.5173 91.9575 37.7306 91.9188L37.7309 91.9188C38.2697 91.8212 38.7544 91.849 39.1849 92.0021C40.5644 92.493 40.9912 93.3858 40.4654 94.6804L40.5878 93.7027C40.6174 93.9147 40.7478 94.4372 40.979 95.2705L40.97 95.2388L40.9701 95.2392C40.996 95.3315 41.0098 95.3928 41.0205 95.4546C41.139 96.1382 40.9992 96.8079 40.6011 97.4638C40.5662 97.5213 40.5283 97.5771 40.4875 97.6311C39.7629 98.5912 39.1399 99.265 38.6185 99.6526L38.6181 99.6529C38.5694 99.6891 38.5207 99.7236 38.472 99.7566C38.4665 99.7603 38.4607 99.7642 38.4549 99.7681L36.9198 100.785C36.8261 100.847 36.7272 100.902 36.6242 100.95C36.2191 101.136 35.6361 101.327 34.8755 101.522C34.8251 101.535 34.7742 101.546 34.7229 101.556C34.329 101.629 33.909 101.629 33.4631 101.558H33.4633C32.4942 101.402 31.2098 100.829 29.61 99.8408C29.557 99.8081 29.5055 99.7731 29.4558 99.7361C28.0047 98.6557 27.0692 97.5052 26.6495 96.2845L26.6459 96.2738C25.7618 93.6528 26.3005 91.5253 28.2619 89.8912C28.3331 89.832 28.4083 89.7772 28.4872 89.7272C29.0442 89.3746 29.5687 89.1059 30.0606 88.921L30.2342 88.8638L30.2344 88.8637L30.0399 88.929C31.473 88.3741 32.6839 88.0013 33.6727 87.8106C33.7387 87.7979 33.8052 87.7881 33.8722 87.7812C34.7935 87.6865 35.5739 87.7117 36.2134 87.8568L36.2133 87.8568C36.9494 88.0239 37.5381 88.3454 37.9795 88.8215C38.7591 89.6622 38.6628 90.9352 37.7645 91.6649C36.8662 92.3945 35.506 92.3044 34.7265 91.4637Z" fill="#94C595"/>
<path d="M29.6996 92.3914L29.6993 92.3913C29.749 92.4058 29.7891 92.4154 29.8196 92.42L29.82 92.42C29.6794 92.3988 29.3822 92.3904 28.9283 92.3947C28.8384 92.3955 28.7486 92.3911 28.6593 92.3815H28.6592C27.9599 92.3058 27.3388 91.9788 26.7959 91.4005L26.7966 91.4012C26.7782 91.3817 26.7598 91.3617 26.7413 91.3412C26.7281 91.3266 26.7152 91.3119 26.7025 91.297C26.2412 90.7562 25.9098 90.2923 25.7081 89.9052L25.7082 89.9054C25.6212 89.7385 25.5517 89.5753 25.4996 89.416C25.4956 89.4037 25.4917 89.3912 25.4879 89.3788C25.2529 88.6062 25.1509 87.9319 25.182 87.3559C25.1874 87.255 25.1968 87.1562 25.2101 87.0595C25.2227 86.9688 25.2418 86.8789 25.2674 86.7905C25.3859 86.3814 25.6078 85.9907 25.9332 85.6185L25.9333 85.6184C26.401 85.0836 27.1507 84.5314 28.1825 83.9617C28.3376 83.8761 28.5036 83.8091 28.6765 83.7621C29.6142 83.5074 30.7898 83.514 32.2032 83.782C32.2224 83.7856 32.2411 83.7894 32.2602 83.7935C33.346 84.0281 34.0474 84.6299 34.3647 85.5986L34.0316 84.9837C34.3004 85.3208 34.4551 85.7363 34.4957 86.2302C34.5157 86.4732 34.517 86.8175 34.4996 87.2628L34.501 87.1792C34.5016 87.2868 34.4959 87.3998 34.484 87.5182L34.484 87.5181C34.4688 87.6683 34.4429 87.8333 34.4061 88.0132C34.4012 88.0376 34.3957 88.0618 34.3898 88.086C34.3058 88.4279 34.1897 88.9865 34.0414 89.7617L34.0612 89.6353L33.9673 90.4041L33.9691 90.3895C33.9585 90.4824 33.9399 90.5838 33.9133 90.6938L33.9133 90.6938C33.8782 90.8392 33.8103 91.0748 33.7096 91.4007C33.3792 92.4701 32.185 93.0862 31.0425 92.7769C29.8999 92.4677 29.2416 91.35 29.572 90.2807C29.6491 90.0313 29.6958 89.8729 29.7121 89.8053L29.7121 89.8053C29.7019 89.8473 29.6933 89.8992 29.6863 89.961L29.688 89.9464L29.7819 89.1776C29.787 89.1353 29.7937 89.0932 29.8017 89.0513C29.9622 88.2117 30.0924 87.5891 30.192 87.1832L30.1756 87.2561C30.1867 87.2016 30.1935 87.1627 30.1958 87.1394L30.1959 87.1393C30.1944 87.1537 30.1938 87.1736 30.1939 87.1991C30.1937 87.1713 30.1942 87.1433 30.1953 87.1155C30.2068 86.8227 30.2087 86.6307 30.2012 86.5396C30.2245 86.8225 30.3506 87.1076 30.5796 87.3948C30.4316 87.209 30.319 87.0011 30.2465 86.7799C30.4147 87.2934 30.7629 87.6073 31.2913 87.7215L31.3483 87.733C30.6269 87.5963 30.1364 87.5632 29.8767 87.6336L30.3707 87.434C29.7788 87.7608 29.4108 88.0066 29.2666 88.1715L29.2666 88.1714C29.3298 88.0991 29.3825 87.9903 29.4246 87.845L29.4818 87.5759C29.4828 87.5686 29.4834 87.563 29.4836 87.5591C29.4765 87.6912 29.5254 87.9298 29.6304 88.2748L29.6187 88.2376C29.6046 88.1946 29.5915 88.1614 29.5794 88.1381L29.5795 88.1383C29.6422 88.2586 29.8052 88.4732 30.0686 88.782L30.0298 88.7377C30.0301 88.7382 30.0305 88.7386 30.031 88.7391L30.0316 88.7398C29.845 88.5409 29.5523 88.42 29.1537 88.3769L28.8845 88.3636C29.5834 88.357 30.1239 88.3825 30.506 88.4402L30.5065 88.4403C30.6768 88.466 30.8342 88.5 30.9787 88.5421C32.1141 88.8724 32.7486 90.0021 32.3955 91.0651C32.0424 92.1281 30.8354 92.7219 29.6996 92.3914Z" fill="#94C595"/>
<path d="M32.4439 89.1753L32.4716 89.162L32.4708 89.1624L32.4431 89.1758C31.5701 89.5874 30.9215 89.8541 30.4974 89.9757C30.2759 90.0393 30.0674 90.0796 29.8718 90.0968L30.1633 90.0522C29.4892 90.2005 28.8765 90.1582 28.3254 89.9254L28.3503 89.9358C26.9496 89.3641 26.5337 88.4175 27.1028 87.0961L27.0768 87.1593C27.1729 86.9126 27.3124 86.6669 27.4954 86.4223L27.4954 86.4224C27.7341 86.1031 28.0714 85.7563 28.5073 85.3819L28.4493 85.4335C29.6458 84.3262 30.805 84.3036 31.927 85.3655L31.9275 85.366C32.0293 85.4624 32.1224 85.5675 32.2067 85.6812L32.2122 85.6886C32.4746 86.0461 32.618 86.4713 32.6425 86.9642C32.6456 87.0268 32.6456 87.0894 32.6425 87.1519L32.6057 87.8891L32.6062 87.7122L32.6519 88.7521C32.6529 88.7759 32.6535 88.7996 32.6536 88.8234C32.6557 89.164 32.64 89.5146 32.6064 89.875L32.6137 89.7583C32.6141 89.744 32.6143 89.7327 32.6142 89.7242L32.6142 89.7241C32.6144 89.7474 32.6164 89.7923 32.62 89.859C32.6798 90.9708 31.7654 91.9175 30.5775 91.9735C29.3896 92.0296 28.3781 91.1737 28.3183 90.0619C28.3118 89.9423 28.3081 89.8443 28.3073 89.7679L28.3072 89.7678C28.3067 89.723 28.3071 89.6811 28.3083 89.6422C28.3095 89.6032 28.3119 89.5643 28.3155 89.5254C28.3375 89.2889 28.3478 89.0624 28.3465 88.8462L28.3483 88.9175L28.3027 87.8777C28.3001 87.8188 28.3003 87.7598 28.3032 87.7008L28.34 86.9637L28.34 87.1515C28.3536 87.4241 28.461 87.6975 28.6623 87.9717L28.6678 87.9792C28.7254 88.0568 28.7907 88.1303 28.8638 88.1994L28.8643 88.2C29.7613 89.049 30.6324 89.0824 31.4777 88.3001C31.4588 88.3176 31.4394 88.3349 31.4198 88.3518C31.2148 88.5278 31.0829 88.6552 31.024 88.734L31.024 88.7341C31.0573 88.6896 31.0905 88.6248 31.1236 88.5397C31.1153 88.561 31.1067 88.582 31.0977 88.6029C31.5723 87.5009 31.2304 86.7135 30.0721 86.2406C30.0807 86.2442 30.0886 86.2474 30.0971 86.2511C29.7593 86.1084 29.4528 86.0673 29.1776 86.1279C29.2736 86.1068 29.3709 86.0919 29.4691 86.0832C29.3723 86.0917 29.2944 86.1044 29.2353 86.1214C29.4264 86.0666 29.8497 85.8846 30.5051 85.5756L30.4774 85.5889L30.4782 85.5885C31.568 85.0743 32.8629 85.4742 33.3981 86.4683C33.9333 87.4625 33.5061 88.6745 32.4439 89.1753Z" fill="#94C595"/>
<path d="M36.0941 90.1256C36.0112 90.1246 35.9276 90.1295 35.8439 90.1405C34.8805 90.2678 34.1473 90.4554 33.6444 90.7032L33.6444 90.7033C33.5443 90.7526 33.4502 90.8042 33.3621 90.8582L33.3614 90.8583C33.1937 90.8836 33.0126 90.9108 32.8181 90.9399C32.8017 90.9423 32.785 90.9451 32.7687 90.948C32.4217 91.0102 32.039 91.1191 31.6207 91.2748C31.5546 91.2994 31.4902 91.328 31.4281 91.3605C30.8102 91.6833 30.3527 91.9749 30.0555 92.2351L30.0555 92.2352C29.5926 92.6405 29.3542 93.0947 29.3403 93.5978L29.3403 93.598C29.3309 93.875 29.3452 94.1371 29.3833 94.3844L29.3827 94.3845C29.0436 94.7039 28.9323 95.155 29.0488 95.7377V95.7378C29.1557 96.2722 29.4741 96.6504 30.004 96.8724L30.0034 96.8725C29.847 97.5958 30.1997 98.2292 31.0617 98.7728L31.0617 98.7729C31.153 98.8304 31.2513 98.886 31.3563 98.9397L31.3563 98.9398C31.3875 98.9556 31.4192 98.9705 31.4513 98.9845C32.235 99.3244 32.9885 99.499 33.7118 99.5081C33.8945 99.5104 34.0753 99.5022 34.2541 99.4833L34.2534 99.4835C34.5015 99.4611 34.7301 99.4121 34.939 99.3366L34.9391 99.3366C35.6579 99.0767 36.088 98.6893 36.2295 98.1743L36.2288 98.1744C36.303 98.1336 36.3749 98.0866 36.4447 98.0336L36.4447 98.0338C36.5053 97.9877 36.562 97.9412 36.6147 97.8944L36.614 97.8945C36.6375 97.8845 36.6608 97.8741 36.6838 97.8633L36.6838 97.8633C37.1907 97.6241 37.5056 97.3237 37.6286 96.9619L37.6278 96.962C37.9664 96.7957 38.2454 96.5389 38.4649 96.1914C38.5703 96.0245 38.6408 95.8403 38.6726 95.6487C38.7733 95.0419 38.6653 94.5135 38.3486 94.0636L38.3478 94.0637C38.446 93.8641 38.4994 93.6419 38.4966 93.4088C38.4901 92.875 38.1906 92.4048 37.7386 92.1364L37.7378 92.1365C37.8648 91.7455 37.77 91.3137 37.4535 90.8412L37.4535 90.8413C37.1566 90.3979 36.6419 90.1325 36.0941 90.1256Z" fill="#94C595"/>
<path d="M79.0917 111.002L79.941 111.685C79.9531 111.695 79.9651 111.705 79.977 111.715C80.1171 111.833 80.3398 112.032 80.6451 112.313C81.4938 113.092 81.5064 114.369 80.6732 115.163C79.84 115.957 78.4764 115.969 77.6277 115.189C77.3673 114.95 77.1907 114.791 77.0977 114.713L77.1336 114.743L76.2844 114.06C75.3823 113.334 75.2795 112.062 76.0548 111.217C76.83 110.373 78.1897 110.277 79.0917 111.002Z" fill="#94C595"/>
<path d="M82.8679 109.509L82.869 109.51C82.9139 109.527 82.9622 109.547 83.0137 109.57L83.0156 109.57C83.0388 109.581 83.0643 109.592 83.0922 109.605C83.103 109.61 83.113 109.614 83.1238 109.619L83.1361 109.625C83.1638 109.639 83.1912 109.652 83.2183 109.667C83.3098 109.715 83.5421 109.825 83.9154 109.997C84.9824 110.489 85.4214 111.698 84.8958 112.696C84.3702 113.695 83.0792 114.106 82.0122 113.614C81.5656 113.408 81.2611 113.262 81.0988 113.176L81.181 113.217L81.1686 113.212L81.2002 113.226C81.1953 113.224 81.191 113.222 81.187 113.22L81.1889 113.221C81.1987 113.225 81.2117 113.231 81.2279 113.237C80.1291 112.814 79.6043 111.636 80.0569 110.606C80.5094 109.577 81.768 109.086 82.8679 109.509Z" fill="#94C595"/>
<path d="M98.5423 108.084L98.5424 108.084C98.5292 108.058 98.5179 108.037 98.5086 108.022L98.5088 108.022C98.5809 108.141 98.79 108.431 99.1361 108.891C99.1511 108.911 99.1657 108.932 99.18 108.952L99.2359 109.037L99.2361 109.037L99.1801 108.952C99.2478 109.05 99.3088 109.144 99.3631 109.236L99.363 109.236C99.3945 109.289 99.4239 109.342 99.4513 109.394C99.9773 110.392 99.5389 111.601 98.4721 112.093C97.4053 112.585 96.1141 112.175 95.5881 111.176C95.5909 111.182 95.5931 111.186 95.5947 111.188L95.5946 111.188C95.5898 111.18 95.5813 111.167 95.5693 111.15L95.5133 111.065L95.5131 111.064L95.6129 111.21C95.1876 110.644 94.9048 110.246 94.7647 110.015L94.7649 110.016C94.7207 109.943 94.6821 109.874 94.6492 109.809C94.1404 108.803 94.5993 107.601 95.6743 107.125C96.7494 106.648 98.0334 107.078 98.5423 108.084Z" fill="#94C595"/>
<path d="M95.2239 109.273C95.2499 109.482 95.4935 111.266 95.5307 111.487L95.5307 111.487C95.5322 111.496 95.5285 111.473 95.5215 111.439C95.7497 112.531 94.9884 113.59 93.8211 113.804C92.6538 114.017 91.5225 113.305 91.2943 112.212C91.2849 112.167 91.2783 112.128 91.2759 112.114L91.2759 112.114C91.224 111.805 90.9721 109.953 90.9456 109.74C90.808 108.634 91.6541 107.633 92.8355 107.504C94.0169 107.375 95.0862 108.167 95.2239 109.273Z" fill="#94C595"/>
<path d="M74.7761 102.815C75.3841 102.185 75.4694 101.53 75.032 100.85L74.8951 100.662L75.3801 101.253C75.4685 101.361 75.5449 101.477 75.6084 101.599C75.8888 102.139 76.1207 102.51 76.3042 102.712C76.3227 102.733 76.3408 102.754 76.3585 102.775L76.3585 102.775C76.7199 103.208 76.994 103.466 77.1807 103.549L77.1806 103.549C77.1592 103.539 77.1278 103.531 77.0863 103.523C77.2233 103.548 77.3574 103.585 77.4867 103.634L77.4867 103.634C77.4027 103.602 77.3342 103.584 77.2811 103.579H77.2811C77.643 103.613 78.4185 103.458 79.6075 103.116L79.5856 103.122C79.9716 103.007 80.5902 102.629 81.4414 101.99C82.3311 101.321 83.6236 101.418 84.3883 102.211L84.3888 102.211C83.441 101.228 82.4676 101.158 81.4687 102.002L81.4694 102.002C81.4609 102.009 81.4545 102.015 81.4499 102.019L81.4502 102.019C81.6804 101.806 82.3019 101.075 83.3145 99.826L83.0733 100.203C83.3488 99.6416 83.5062 99.0587 83.5453 98.454L83.5709 98.9087C83.4299 98.1202 83.1718 97.5591 82.7966 97.2254C82.7099 97.1482 82.6301 97.0644 82.5583 96.9748C82.3688 96.7386 82.2204 96.5972 82.1131 96.5503C82.1628 96.5721 82.2202 96.5772 82.2852 96.5657C81.1163 96.7718 79.9903 96.052 79.7701 94.9581C79.5499 93.8641 80.319 92.8102 81.4878 92.6042C82.3307 92.4555 83.1459 92.5531 83.9334 92.8968C84.6918 93.2278 85.3814 93.7802 86.0023 94.554L85.764 94.3034C86.8345 95.2557 87.5195 96.5689 87.819 98.2428C87.8459 98.393 87.8545 98.5456 87.8446 98.6976C87.773 99.8048 87.4871 100.868 86.9869 101.886C86.9214 102.02 86.8405 102.146 86.7457 102.263C85.6089 103.665 84.8522 104.54 84.4757 104.888L84.4759 104.888C84.4346 104.926 84.3941 104.962 84.3545 104.995L84.3552 104.994C83.222 105.952 82.1671 105.924 81.1907 104.911L84.1381 105.133C82.8711 106.085 81.7906 106.695 80.8966 106.962C80.8897 106.964 80.8816 106.967 80.8747 106.969C79.1322 107.471 77.7918 107.678 76.8537 107.59H76.8538C76.4953 107.557 76.1665 107.483 75.8672 107.37L76.2675 107.481C75.956 107.424 75.6485 107.329 75.3448 107.195L75.3446 107.195C74.5391 106.84 73.7453 106.193 72.9631 105.255L73.0174 105.318C72.6006 104.857 72.1731 104.205 71.7349 103.362L71.9632 103.708L71.4781 103.116C71.4288 103.056 71.383 102.993 71.3412 102.928C70.6809 101.901 70.7604 100.963 71.5795 100.114C72.3767 99.2874 73.7385 99.2225 74.6212 99.9686C75.5039 100.715 75.5733 101.989 74.7761 102.815Z" fill="#94C595"/>
<path d="M77.8886 105.576C76.8848 105.406 75.8739 105.143 75.0857 104.668L75.0856 104.668C74.7919 104.491 74.4856 104.258 74.221 103.953C74.0371 103.74 73.9013 103.495 73.8219 103.232L73.8219 103.231C73.2284 101.263 75.2841 100.564 75.5656 100.49L75.5653 100.49C75.709 100.452 75.8457 100.425 75.9703 100.406L75.9701 100.406C76.2597 100.362 76.5645 100.344 76.8495 100.338L76.9271 100.338H76.9273L76.8497 100.338C77.5834 100.322 78.5559 100.476 79.5104 100.633H79.5104C79.5374 100.637 79.5517 100.639 79.5525 100.639H79.5527C81.3184 100.802 77.9662 99.9407 77.5285 102.277L77.5304 102.267C77.4727 102.566 77.4908 102.859 77.5641 103.125L78.7701 104.462C78.153 104.204 77.335 103.963 76.4017 103.691C75.6522 103.473 74.7548 103.215 74.0771 102.931L74.0773 102.931C73.8743 102.847 73.6517 102.743 73.4362 102.62L74.5628 100.902L73.4364 102.62C73.2029 102.486 72.0899 101.854 72.0315 100.572C72.0068 100.029 72.2168 99.5005 72.6141 99.1051C73.0114 98.7096 73.5623 98.4808 74.1421 98.4705C75.179 98.452 79.3891 98.4999 81.3294 99.5053L81.3279 99.5045C81.3626 99.5224 81.3987 99.5418 81.434 99.5613L81.4341 99.5614C81.6403 99.6756 81.8474 99.804 82.0431 99.95L82.0433 99.9502C82.3595 100.186 83.4595 101.068 83.1528 102.465C83.115 102.637 83.0534 102.803 82.9696 102.96C82.2613 104.286 80.7758 104.582 79.6143 104.321H79.6143C78.688 104.114 77.842 103.549 77.4209 102.668C76.7702 101.306 77.6975 100.166 78.6172 99.7813L78.6176 99.7811C79.045 99.6022 79.4631 99.5597 79.7171 99.5455H79.7163C79.7656 99.5428 79.819 99.5407 79.8668 99.5395L79.9536 99.539H79.9541L79.8682 99.5395C80.4755 99.5245 81.0595 99.5653 81.6091 99.6738C82.0428 99.7595 82.6115 99.9105 83.2861 100.115L83.3002 100.12C83.3163 100.125 83.292 100.117 83.3081 100.122L83.2917 100.117C81.9226 99.6995 85.7207 100.31 84.8677 102.768L84.868 102.767C84.8338 102.865 84.7934 102.956 84.7495 103.04C84.4332 103.641 83.8186 104.055 83.1095 104.146C82.4004 104.237 81.6895 103.992 81.2125 103.492L81.2125 103.492C80.9739 103.243 80.7921 102.971 80.6526 102.706L80.6527 102.707C80.4013 102.23 80.2476 101.7 80.1573 101.164L80.1573 101.164C79.962 100.006 80.7277 99.2441 81.2334 98.9337L81.2336 98.9335C81.9264 98.5085 82.7535 98.5826 82.6478 98.5812H82.6472C82.7753 98.5828 82.9066 98.5899 83.0221 98.5976L83.0243 98.5978C82.8936 98.5889 80.8851 98.5782 80.7426 100.455L80.7426 100.454C80.6533 101.624 81.5919 102.198 81.6655 102.244L81.6657 102.244C81.2688 101.993 81.061 101.908 81.0253 101.896L81.0252 101.896C81.0005 101.887 81.1078 101.929 81.3036 101.945L81.3031 101.945C81.2866 101.944 81.2781 101.944 81.2785 101.944H81.2788C81.3035 101.944 81.7167 101.924 82.0472 101.568L82.535 100.632C82.7 99.8413 82.2948 98.5495 80.8472 98.281L80.8427 98.2801C79.8659 98.1011 79.0199 98.7093 79.5082 98.4483L79.5088 98.448C79.5147 98.4448 79.5458 98.4277 79.6128 98.3871L79.5907 98.4007L81.4271 97.2586L81.43 97.2567C81.7102 97.0831 81.8061 97.0106 81.8344 96.9855L81.8347 96.9852C81.8353 96.9847 81.8276 96.9915 81.8167 97.0029L81.8162 97.0035C81.8321 96.9868 81.8379 96.9801 81.8386 96.9793L81.8384 96.9795C83.0067 95.6211 80.2616 97.9089 82.2024 99.5377L82.2049 99.5397C83.0521 100.249 84.0132 100.025 84.1923 99.9795C83.815 100.076 83.4167 100.075 83.0401 99.976L82.2925 99.7794L84.0922 96.1759C84.3469 96.3392 84.606 96.5229 84.8365 96.7265L84.8364 96.7265C84.8924 96.776 86.5715 98.1824 85.365 99.8311L85.3671 99.8282C85.3271 99.8831 85.2876 99.932 85.2496 99.9758C84.5004 100.84 83.1441 100.973 82.2204 100.271C81.2967 99.5701 81.1553 98.3008 81.9046 97.4362C81.8745 97.471 81.8424 97.5107 81.8093 97.5561L81.8114 97.5532C80.7806 98.9618 82.3061 100.035 81.8793 99.6575L81.8792 99.6574C81.8694 99.6489 81.8067 99.5971 81.6583 99.5019C80.7884 98.9443 80.4778 97.8793 80.9243 96.9854C81.3707 96.0915 82.443 95.6315 83.458 95.8985L84.2055 96.0951L83.0533 96.0917C83.2486 96.0416 84.221 95.8194 85.0753 96.5342L85.0778 96.5362C87.0525 98.1933 84.2323 100.625 85.1936 99.5073L85.1934 99.5075C85.1379 99.572 85.0825 99.6325 85.0233 99.6944L85.0228 99.6949C84.948 99.773 84.8741 99.8432 84.8008 99.9083L84.8011 99.908C84.4694 100.203 84.0849 100.446 83.808 100.618L83.8109 100.616L81.9745 101.758C81.967 101.763 81.9599 101.767 81.9524 101.772C81.8514 101.833 81.7486 101.893 81.6437 101.949L81.6444 101.949C81.9716 101.774 81.0273 102.422 80.0146 102.236L80.01 102.235C78.5499 101.965 78.1397 100.665 78.3076 99.8598C78.3802 99.5127 78.5483 99.1905 78.7954 98.9243C79.5601 98.1003 80.5607 97.9028 81.3386 97.9129H81.3389C81.4545 97.9144 81.567 97.9203 81.6737 97.9289L81.6732 97.9288C82.0126 97.9562 82.3094 98.0421 82.521 98.1155L82.5208 98.1154C83.0005 98.2817 83.527 98.556 84.0774 98.9042L84.0776 98.9043C84.1784 98.9681 85.1291 99.5597 85.0389 100.742L85.0389 100.741C84.8953 102.631 82.8715 102.629 82.7136 102.619L82.7157 102.619C82.6341 102.613 82.5952 102.612 82.5892 102.612H82.5886C82.2675 102.608 82.9592 102.695 83.5952 102.305L83.5954 102.305C83.9206 102.105 84.5746 101.501 84.4118 100.536L84.4119 100.536C84.4561 100.798 84.5091 100.911 84.5156 100.923L84.5156 100.923C84.5175 100.927 84.4929 100.878 84.423 100.805L80.886 101.258C80.8436 101.338 80.8041 101.427 80.7709 101.523L80.7712 101.522C79.9412 103.914 83.6078 104.454 81.9567 103.95L81.9403 103.945C81.9187 103.938 81.9635 103.952 81.9419 103.945L81.956 103.95C81.3402 103.763 80.9362 103.661 80.7198 103.618C80.5564 103.586 80.3152 103.561 79.9821 103.569L79.8962 103.57H79.8957L79.9824 103.569C79.9789 103.569 79.9727 103.57 79.9744 103.57L79.9737 103.57C79.9266 103.572 80.1091 103.573 80.3758 103.461L80.3761 103.461C81.0609 103.174 81.9087 102.185 81.3527 101.022C81.1552 100.609 80.8082 100.444 80.617 100.401H80.6169C80.3898 100.35 79.5382 100.369 79.117 101.158L78.9338 101.653C78.6959 102.736 79.5697 103.26 79.3583 103.102L79.3586 103.102C79.3548 103.1 79.32 103.075 79.2405 103.031L79.2406 103.031C79.2431 103.032 79.2447 103.033 79.2448 103.033L79.2433 103.032C78.5133 102.654 75.5915 102.477 74.2242 102.501L76.3348 100.4C76.2895 99.4058 75.4543 99.0488 75.6892 99.1838L74.5628 100.902L75.6894 99.1839C75.6956 99.1874 75.7391 99.2111 75.8358 99.2515L75.836 99.2516C76.225 99.4144 76.8331 99.5948 77.6805 99.8414C78.5423 100.092 79.6299 100.406 80.5291 100.782C81.1275 101.033 81.5715 101.525 81.7351 102.119C81.8089 102.387 81.8271 102.682 81.7691 102.983L81.771 102.973C81.3253 105.352 77.7641 104.524 79.1287 104.651H79.1288C79.011 104.64 78.8888 104.624 78.7636 104.603H78.7636C77.6736 104.424 77.1656 104.364 76.9469 104.368L76.8694 104.369H76.8692L76.9468 104.368C76.7656 104.372 76.6825 104.382 76.6675 104.384L76.6674 104.384C76.6648 104.385 76.6911 104.381 76.7354 104.369L76.735 104.369C76.6052 104.404 78.4904 103.872 77.9672 102.137L77.568 101.415C77.481 101.315 77.4132 101.276 77.4185 101.279L77.4183 101.279C77.4829 101.318 77.8189 101.468 78.6558 101.609C79.8261 101.808 80.6032 102.856 80.3913 103.952C80.1795 105.047 79.059 105.774 77.8886 105.576Z" fill="#94C595"/>
<path d="M42.9566 36.1788L42.9566 36.1786C42.9575 36.1728 42.958 36.1684 42.9583 36.1652L42.9583 36.1653C42.9482 36.2778 42.9603 36.5932 42.9944 37.1114C42.9954 37.1263 42.996 37.1412 42.9962 37.1562V37.1558C42.996 37.1453 42.9957 37.1368 42.9953 37.1302L42.9952 37.1301C43.0019 37.2234 43.0495 37.5803 43.1381 38.201C43.1396 38.2114 43.1409 38.2217 43.142 38.2321C43.1511 38.319 43.1583 38.4059 43.1635 38.4929C43.1641 38.5034 43.1646 38.5138 43.1648 38.5243C43.1701 38.7561 43.1778 38.9138 43.1881 38.9975L43.189 39.0058C43.2013 39.1152 43.2243 39.2528 43.2579 39.4184L43.2492 39.3797L43.2492 39.3799L43.2571 39.4143C43.287 39.5577 43.3154 39.6676 43.3424 39.744L43.3357 39.7256C43.4471 40.02 43.5865 40.403 43.7539 40.8746L43.7391 40.8359C43.8669 41.1477 43.969 41.3587 44.0457 41.4687C44.3374 41.8878 44.2109 42.4488 43.7631 42.7218C43.3154 42.9948 42.716 42.8764 42.4244 42.4574C42.273 42.24 42.109 41.9157 41.9324 41.4843C41.9271 41.4716 41.9222 41.4586 41.9176 41.4457C41.7541 40.985 41.6188 40.6132 41.5117 40.3304C41.5094 40.3243 41.5071 40.3181 41.505 40.312C41.4525 40.1631 41.4034 39.9795 41.3579 39.7611L41.3658 39.7955L41.3658 39.7953L41.357 39.7567C41.3133 39.5417 41.2825 39.3545 41.2646 39.1951L41.2656 39.2035C41.2486 39.0642 41.2368 38.8507 41.2302 38.5629L41.2315 38.5943C41.2278 38.5329 41.2228 38.4713 41.2163 38.4097L41.2201 38.4408C41.1259 37.7807 41.0741 37.3841 41.0646 37.251L41.0645 37.2509C41.0627 37.2248 41.0616 37.2006 41.0613 37.1784L41.0631 37.2228C41.0232 36.617 41.0121 36.2142 41.03 36.0143L41.03 36.0144C41.0325 35.9861 41.0357 35.9591 41.0394 35.9335C41.1119 35.4378 41.5998 35.0911 42.1292 35.1589C42.6586 35.2267 43.029 35.6833 42.9566 36.1788Z" fill="#94C595"/>
<path d="M50.5611 34.7984C50.4626 35.1752 50.3937 35.5357 50.3547 35.88L50.3566 35.8609C50.3501 35.9341 50.3467 35.9825 50.3466 36.0061V36.0059C50.3466 36.0018 50.3464 35.9961 50.3461 35.9889L50.3465 35.9992C50.3525 36.1573 50.3627 36.333 50.3772 36.5262L50.3748 36.5C50.4505 37.1964 50.4916 37.5947 50.498 37.6947L50.498 37.6943C50.4986 37.7037 50.4991 37.7126 50.4995 37.721L50.499 37.7111C50.5356 38.3624 50.5587 38.7303 50.5683 38.8148L50.5682 38.8137C50.5673 38.8061 50.5674 38.8069 50.5684 38.8159C50.5692 38.8229 50.5699 38.8301 50.5706 38.8371C50.5858 39.0113 50.6062 39.1788 50.6319 39.3397L50.6287 39.3208C50.7683 40.0778 50.8803 40.5364 50.9645 40.6966L50.9645 40.6967C50.9607 40.6894 50.9546 40.6797 50.9461 40.6677C51.2202 41.055 51.1071 41.5769 50.6933 41.8336C50.2795 42.0902 49.7219 41.9843 49.4477 41.597C49.4137 41.549 49.3817 41.4965 49.3517 41.4394L49.3517 41.4395C49.1912 41.1342 49.0264 40.5234 48.8574 39.607C48.8562 39.6007 48.8551 39.5945 48.8541 39.5881C48.8226 39.3903 48.7975 39.1857 48.7791 38.9743L48.7812 38.9955C48.7821 39.0033 48.782 39.0027 48.781 38.9937L48.7809 38.9927C48.7679 38.8784 48.7423 38.4807 48.704 37.7995L48.7035 37.7896C48.7036 37.7926 48.7038 37.7951 48.7039 37.7969L48.7039 37.7965C48.6988 37.7192 48.6597 37.3438 48.5866 36.6702C48.5856 36.6615 48.5848 36.6528 48.5842 36.644C48.5682 36.4313 48.5569 36.2362 48.5502 36.0587L48.5506 36.069C48.5494 36.0456 48.5489 36.0207 48.5491 35.9943V35.9941C48.5496 35.9279 48.555 35.837 48.5653 35.7214C48.5659 35.715 48.5665 35.7087 48.5672 35.7023C48.6148 35.283 48.6975 34.8484 48.8152 34.3984C48.9332 33.9472 49.4197 33.671 49.9018 33.7814C50.3839 33.8918 50.6791 34.3472 50.5611 34.7984Z" fill="#94C595"/>
<path d="M42.6081 41.3591C42.7973 40.8775 42.9735 40.5313 43.1369 40.3208L43.1368 40.3209C43.1881 40.2549 43.2415 40.1962 43.2973 40.1449C43.302 40.1405 43.3066 40.1364 43.3114 40.1321C44.1249 39.4149 44.5896 38.9838 44.7056 38.8387L44.7063 38.8378C44.7059 38.8383 44.7054 38.839 44.7047 38.8399C44.7189 38.8215 44.7339 38.8035 44.7496 38.7862C45.4342 38.0324 46.3519 36.8889 47.5025 35.3556C47.5216 35.3301 47.5423 35.3056 47.5644 35.2822C47.7161 35.1215 47.8519 34.9972 47.9717 34.9093L47.9719 34.9092C48.1954 34.7454 48.4266 34.6618 48.6656 34.6585C49.1619 34.6517 49.5701 35.0228 49.5774 35.4872C49.5847 35.9517 49.1883 36.3339 48.692 36.3407C48.8565 36.3384 48.9859 36.3028 49.08 36.2338L49.0802 36.2337C49.0467 36.2582 48.9904 36.3123 48.9115 36.396L48.9734 36.3225C47.7911 37.8981 46.8396 39.0825 46.1191 39.8758L46.164 39.8221C46.1576 39.8305 46.151 39.839 46.1442 39.8474L46.1449 39.8465C45.9667 40.0695 45.433 40.5729 44.5439 41.3568L44.558 41.344C44.5731 41.3301 44.5843 41.3185 44.5914 41.3093L44.5913 41.3094C44.5257 41.3939 44.4271 41.604 44.2953 41.9395C44.1241 42.3755 43.6076 42.5991 43.1417 42.4388C42.6758 42.2786 42.4369 41.7951 42.6081 41.3591Z" fill="#94C595"/>
<path d="M49.5206 41.7602L49.6995 41.7793H49.6994L49.52 41.7601C49.3149 41.7182 49.1228 41.616 48.9437 41.4533L48.9443 41.4539C48.9336 41.4442 48.9227 41.4341 48.9116 41.4235C48.8687 41.3826 48.8304 41.3377 48.7972 41.2895C48.6997 41.1478 48.6132 41.0425 48.5376 40.9737L48.5395 40.9755C48.469 40.9116 48.3963 40.8556 48.3215 40.8075L48.3468 40.8232L44.7439 38.6686C44.7274 38.6587 44.7112 38.6484 44.6954 38.6375C44.5425 38.5323 44.365 38.3871 44.1629 38.202C44.1411 38.182 44.1203 38.161 44.1008 38.1389C43.6954 37.6831 43.435 37.4131 43.3197 37.3288L43.3198 37.3288C43.3574 37.3563 43.4098 37.3814 43.4767 37.4039C43.4068 37.3803 43.3402 37.3488 43.2786 37.3099C43.1032 37.1993 42.9777 37.141 42.9023 37.1351C42.9324 37.1374 42.9672 37.1288 43.0066 37.1091C42.5685 37.3275 42.0242 37.1723 41.7908 36.7622C41.5574 36.3522 41.7233 35.8428 42.1614 35.6243C42.4336 35.4886 42.7306 35.4333 43.0525 35.4586C43.4388 35.4889 43.8491 35.641 44.2832 35.9148L44.085 35.8208C44.1986 35.859 44.3121 35.9197 44.4257 36.0026L44.4258 36.0027C44.6425 36.161 44.9947 36.5143 45.4823 37.0627L45.4202 36.9996C45.5619 37.1294 45.6753 37.2236 45.7603 37.2822L45.7117 37.251L49.3146 39.4055C49.3232 39.4107 49.3314 39.4158 49.3399 39.4212C49.4971 39.5224 49.6468 39.6373 49.789 39.766L49.791 39.7678C49.9645 39.9258 50.137 40.1294 50.3085 40.3787L50.1941 40.2448C50.1944 40.245 50.1946 40.2452 50.1949 40.2454L50.1954 40.246C50.1293 40.1859 50.0318 40.1427 49.903 40.1164L49.7236 40.0971H49.7237C50.3876 40.2151 50.6953 40.6631 50.5898 41.117C50.4843 41.5709 50.0056 41.859 49.5206 41.7602Z" fill="#94C595"/>
<path d="M43.1624 48.9086L43.1626 48.9082C42.9756 49.2788 43.7037 47.4317 45.3605 48.1637L45.3587 48.1628C46.4043 48.6233 46.3991 50.0048 46.314 49.4399L46.3139 49.4398C46.3475 49.6626 46.3756 50.0622 46.4084 50.5105C46.4754 51.4247 46.5845 52.9144 46.8137 54.9878C47.1018 57.5928 47.3735 59.7281 47.5859 61.3974C47.7212 62.4607 47.8346 63.3507 47.9117 64.0488C47.9839 64.7013 48.0341 65.2651 48.0293 65.6699L48.0046 65.3866L48.2093 66.4765L46.491 65.2101L46.4937 65.2099L46.4779 65.2109C50.9391 64.9087 53.4913 64.6523 54.3418 64.4624C54.4476 64.4388 54.5556 64.4251 54.6642 64.4215L60.8702 64.2151L60.378 64.3031C60.2013 64.362 59.5118 64.6782 59.4644 65.4956V65.4955C59.5716 63.6505 59.5955 62.3476 59.5536 61.5513L59.564 61.6638L58.8413 56.1807C58.8343 56.1278 58.8303 56.0746 58.8292 56.0213C58.7443 51.7676 58.7685 51.2987 58.8251 50.3882L58.8251 50.3884L58.8306 50.2998L58.8281 50.4154C58.8297 50.5043 58.8503 50.5931 58.8628 50.6337L58.8629 50.634C58.8626 50.6332 58.8609 50.6276 58.8582 50.6193L58.8583 50.6196C58.7837 50.3859 58.7203 50.1195 58.7109 49.6095C58.7085 49.4773 58.7097 49.3293 58.7147 49.1625C58.698 49.7177 59.0301 50.072 59.2166 50.2212L60.0813 50.5781C59.1135 50.466 58.661 50.4728 58.1196 50.5015L58.1196 50.5015C57.4371 50.5378 56.8533 50.5668 56.265 50.5962C55.795 50.6196 55.2884 50.6449 54.8885 50.6662H54.8884C53.6613 50.7314 52.7698 50.792 52.1337 50.8767C52.0671 50.8855 52.0001 50.8906 51.9329 50.8917L45.769 50.9982C45.76 50.9983 45.751 50.9984 45.7421 50.9984H45.742C46.3799 50.9973 47.1733 50.4848 47.1714 49.6397L47.1714 49.6399C47.171 49.4265 47.1096 49.3038 47.1222 49.3335L47.1221 49.3333C47.2242 49.5731 47.8104 50.3836 49.238 51.9054C50.5735 53.3292 52.8263 55.2606 56.0029 57.8139C56.6412 58.327 58.3644 60.0205 61.0654 62.7238L60.972 62.6375L62.2217 63.7032C62.8915 64.2742 62.9398 65.2453 62.3296 65.8721C61.7194 66.499 60.6819 66.5442 60.0122 65.9731L58.7625 64.9075C58.7301 64.8799 58.6989 64.8511 58.669 64.8212C55.8814 62.0312 54.328 60.5154 53.8653 60.1435C50.6996 57.5989 48.2797 55.5382 46.7724 53.9314C45.4311 52.5014 44.4239 51.2916 44.0741 50.4697L44.0741 50.4696C43.9973 50.2892 43.8912 49.994 43.8905 49.646L43.8905 49.6461C43.8881 48.5622 44.8205 47.9295 45.7355 47.9277L45.7084 47.928L51.8723 47.8215L51.6715 47.8366C52.4655 47.7309 53.488 47.6649 54.7024 47.6004H54.7024C55.1209 47.5782 55.6103 47.5537 56.0905 47.5298C56.6643 47.5012 57.2725 47.4708 57.9337 47.4357L57.9337 47.4357C58.6616 47.3971 59.3112 47.3948 60.4842 47.5306C60.8037 47.5676 61.1044 47.6918 61.349 47.8875C61.5904 48.0808 62.0157 48.5388 61.9943 49.249C61.9904 49.3788 61.99 49.4798 61.9914 49.5568C61.9956 49.7881 62.0135 49.7767 62.0021 49.7409L62.0021 49.7412C62.0052 49.7508 62.0099 49.7656 62.015 49.782L62.0151 49.7823C62.0594 49.9259 62.1039 50.1126 62.1085 50.3626C62.1092 50.4012 62.1084 50.4397 62.106 50.4781L62.1005 50.5666L62.1005 50.5668C62.052 51.3451 62.0246 51.7056 62.1096 55.964L62.0975 55.8047L62.8202 61.2879C62.8251 61.3252 62.8286 61.3627 62.8305 61.4003C62.8812 62.3623 62.8489 63.7956 62.7405 65.6622L62.7405 65.6621C62.684 66.6339 61.8751 67.0638 61.4789 67.1958C61.3206 67.2486 61.1546 67.2783 60.9867 67.2838L54.7807 67.4903L55.1031 67.4494C53.9324 67.7108 51.0651 67.9789 46.7147 68.2736L46.6989 68.2746L46.6963 68.2748C45.8728 68.3306 45.1237 67.784 44.978 67.0083L44.7732 65.9184C44.7557 65.8249 44.7474 65.7301 44.7486 65.6352C44.751 65.4303 44.722 65.0317 44.6483 64.3649C44.5742 63.6952 44.4646 62.8338 44.328 61.7606C44.1155 60.0903 43.8411 57.9344 43.5503 55.3039C43.3151 53.1773 43.2029 51.645 43.1352 50.7206C43.0964 50.1914 43.0775 49.9505 43.0652 49.8688L43.0652 49.8687C42.9609 49.1767 42.9367 50.4899 43.9619 50.9414L43.96 50.9405C45.6077 51.6685 46.3262 49.8292 46.1294 50.2194C45.7429 50.986 44.7652 51.3142 43.9459 50.9524C43.1265 50.5905 42.7757 49.6754 43.1624 48.9086Z" fill="#94C595"/>
<path d="M61.1075 50.0729L59.1092 52.7594L59.1566 52.6919L52.8444 62.2094C52.8285 62.2333 52.8119 62.2569 52.7947 62.28L50.8918 64.8248C50.8824 64.8372 50.8729 64.8496 50.8632 64.8618C50.6596 65.1176 50.2861 65.7577 49.7428 66.7821C49.3399 67.5416 48.3555 67.8517 47.544 67.4747C46.7325 67.0977 46.4012 66.1763 46.804 65.4167C47.4349 64.2273 47.911 63.4307 48.2323 63.0271L48.2038 63.064L50.1067 60.5193L50.0569 60.5899L56.3691 51.0724C56.3843 51.0495 56.4001 51.027 56.4165 51.0049L58.4149 48.3184C58.9325 47.6224 59.9549 47.4511 60.6985 47.9356C61.442 48.4201 61.6252 49.377 61.1075 50.0729Z" fill="#94C595"/>
<path d="M73.2736 52.358C72.1928 52.5914 71.5443 52.7136 71.3348 52.7514L70.898 52.7877H70.8979L71.338 52.7508C71.2934 52.759 71.2526 52.7652 71.2254 52.7693L71.2239 52.7695C71.0946 52.7886 70.8834 52.8131 70.6664 52.8386L70.6662 52.8386C70.2516 52.8873 69.6365 52.9594 68.7838 53.0725C68.375 53.1267 67.6161 53.2614 66.8855 53.3917L66.8854 53.3918C66.5013 53.4602 66.1283 53.5268 65.8696 53.5689C65.8248 53.5762 65.7798 53.5822 65.7346 53.5868L65.4051 53.6205C64.2227 53.7413 63.1596 52.9421 63.0305 51.8355C62.9014 50.7289 63.7553 49.7338 64.9376 49.613L65.2671 49.5793L65.1321 49.5972C65.3469 49.5623 65.6796 49.503 66.0794 49.4317L66.0793 49.4318C66.7583 49.3107 67.6422 49.1523 68.1795 49.081C69.0665 48.9634 69.7108 48.8879 70.1304 48.8386L70.1302 48.8387C70.3943 48.8077 70.5097 48.7939 70.5518 48.7876L70.5504 48.7878C70.5551 48.7872 70.5386 48.7896 70.5157 48.7937L70.9558 48.7568H70.956L70.5191 48.7931C70.6688 48.7661 71.2712 48.6533 72.3054 48.43C73.4644 48.1797 74.6206 48.8562 74.888 49.9409C75.1553 51.0256 74.4326 52.1078 73.2736 52.358Z" fill="#94C595"/>
<path d="M74.0571 56.9449C73.8221 57.0384 73.595 57.0941 73.3846 57.1233L73.3842 57.1233C72.9628 57.1817 72.6013 57.231 72.3979 57.2496L72.3979 57.2497C72.356 57.2535 72.2888 57.2592 72.2103 57.2619L72.2741 57.2588L71.6913 57.2953L71.7631 57.2897C71.0917 57.3528 70.4299 57.407 69.7689 57.4452C69.3928 57.4668 67.4906 57.6722 66.0273 57.9168C64.8564 58.1126 63.7377 57.3829 63.5286 56.287C63.3194 55.1912 64.099 54.1441 65.2699 53.9484C66.8457 53.6849 68.9184 53.4553 69.5041 53.4215C70.0915 53.3877 70.6966 53.3385 71.3321 53.2786C71.356 53.2764 71.3799 53.2745 71.4039 53.273L71.9866 53.2365C72.0078 53.2352 72.0291 53.2341 72.0504 53.2334C72.0035 53.235 71.97 53.2383 71.9795 53.2374H71.9794C72.0476 53.2312 72.2779 53.2014 72.7531 53.1356L72.7527 53.1356C72.6213 53.1539 72.4922 53.187 72.3708 53.2354C73.4653 52.7996 74.73 53.2767 75.1956 54.301C75.6613 55.3254 75.1515 56.5091 74.0571 56.9449Z" fill="#94C595"/>
<path d="M64.3173 75.4512L64.3172 75.4512C64.4213 75.3226 64.4855 75.2056 64.5098 75.1002L64.5098 75.1002C64.4447 75.3827 64.4613 76.1025 64.5597 77.2595C64.5611 77.2762 64.5623 77.2929 64.5631 77.3097C64.6629 79.3096 64.9056 81.9231 65.2912 85.1503C65.2982 85.2092 65.3016 85.2683 65.3014 85.3276C65.2958 86.5395 65.3005 87.2381 65.3156 87.4234V87.4235C65.3141 87.4055 65.3111 87.3828 65.3065 87.3552L65.2982 87.3099L65.6333 88.986C65.673 89.1849 65.6704 89.3891 65.6255 89.5871C65.8462 88.6135 65.477 88.0315 64.5178 87.8411L64.5193 87.8414C64.517 87.8409 64.5153 87.8406 64.5143 87.8404L64.5135 87.8403C64.8085 87.8925 65.7167 87.9229 67.2381 87.9313L66.8735 87.9676C68.4632 87.6378 70.5736 87.4074 73.2047 87.2764L72.9131 87.3157L74.0477 87.0636C74.3622 86.9938 74.6918 87.0124 74.995 87.1173L74.9953 87.1174C73.9843 86.7676 73.296 87.056 72.9304 87.9823L72.9303 87.9825C72.9068 88.0421 72.8912 88.0922 72.8835 88.1328L72.8835 88.1328C73.014 87.4432 73.0336 83.8327 72.9425 77.3012L72.9483 77.4116C72.853 76.3653 72.7452 75.5637 72.6248 75.0069C72.5978 74.8819 72.5875 74.7543 72.5942 74.6271L72.6338 73.8703L72.6596 74.2263C72.7583 74.7232 73.0457 75.0501 73.5216 75.207L74.5771 75.2181C74.1081 75.3618 73.7011 75.4464 73.3559 75.4721L73.3557 75.4721C73.2412 75.4807 73.1305 75.4832 73.0236 75.4798C72.9745 75.4782 72.9253 75.4745 72.8765 75.4688C71.5292 75.3113 70.3054 75.2509 69.2051 75.2877L69.2922 75.2826L63.1957 75.7913L63.028 75.7972H63.0279L63.7284 75.6599C64.6077 75.2862 64.8394 74.6706 64.4235 73.8133L64.4237 73.8137C64.3516 73.6651 64.2585 73.5388 64.1442 73.4347L64.0637 73.3661C64.7772 73.9346 65.2527 74.3514 65.4902 74.6165L65.4905 74.6169C65.5304 74.6613 65.567 74.7048 65.6004 74.7473L65.5666 74.7059C67.8527 77.4133 70.134 79.8668 72.4104 82.0665C72.459 82.1134 72.5043 82.1632 72.5461 82.2156L74.1934 84.2784C74.2465 84.3449 74.2937 84.4153 74.3347 84.4889C74.795 85.3169 75.1043 85.8185 75.2624 85.9937L75.2624 85.9937C75.2399 85.9687 75.2065 85.9393 75.1622 85.9053C75.8631 86.4426 75.966 87.4099 75.392 88.066C74.818 88.722 73.7844 88.8183 73.0834 88.2811C72.9724 88.196 72.8633 88.0941 72.7562 87.9755L72.7562 87.9755C72.4409 87.6262 71.997 86.9365 71.4242 85.9064L71.5654 86.1169L69.9181 84.0539L70.0538 84.203C67.7006 81.9293 65.3469 79.3982 62.9925 76.6099C62.981 76.5963 62.9697 76.5825 62.9588 76.5684C62.9659 76.5775 62.9716 76.5845 62.976 76.5894L62.9763 76.5897C62.8568 76.4564 62.5104 76.1612 61.9368 75.7042C61.9091 75.6822 61.8823 75.6593 61.8562 75.6355C61.6746 75.4701 61.5345 75.2858 61.4359 75.0825L61.4361 75.0828C60.9478 74.0763 61.2597 73.3368 62.3716 72.8641L63.0721 72.7268H63.0721C62.5403 72.7925 62.7203 72.7481 62.9044 72.7327L69.0009 72.224C69.0299 72.2216 69.0589 72.2199 69.088 72.2189C70.3635 72.1763 71.7619 72.2439 73.2832 72.4218L73.1362 72.4108C73.1189 72.4102 73.1056 72.4103 73.0962 72.411L73.096 72.411C73.1814 72.4047 73.3349 72.3676 73.5564 72.2997C73.9 72.1945 74.271 72.1984 74.6119 72.3108C75.3283 72.5471 75.7527 72.9984 75.8851 73.6647C75.9085 73.782 75.9171 73.9015 75.9108 74.0207L75.8712 74.7775L75.8406 74.3978C75.9858 75.0698 76.1115 75.9874 76.2174 77.1508C76.2207 77.1875 76.2227 77.2243 76.2232 77.2612C76.317 83.9859 76.2806 87.7882 76.1142 88.6681C76.0877 88.8081 76.0524 88.9341 76.0081 89.0463L76.008 89.0464C75.6156 90.0407 74.8989 90.3577 73.8579 89.9977L74.8054 90.0514L73.6707 90.3034C73.575 90.3247 73.4774 90.3379 73.3791 90.3428C70.9285 90.4648 68.9966 90.6725 67.5834 90.9656C67.4637 90.9904 67.3414 91.0026 67.2188 91.0019C65.4988 90.9925 64.3937 90.9443 63.9036 90.8575L63.9028 90.8574C63.88 90.8533 63.8576 90.8491 63.8354 90.8447L63.8369 90.845C62.6564 90.6106 62.1828 89.9789 62.4161 88.9498L62.4083 89.5508L62.0732 87.8747C62.0702 87.8596 62.0674 87.8444 62.0649 87.8293C62.0562 87.7771 62.0493 87.7196 62.0442 87.6569L62.0442 87.657C62.0224 87.3895 62.0145 86.6086 62.0205 85.3143L62.0306 85.4916C61.6371 82.1986 61.3889 79.519 61.2857 77.4529L61.2891 77.5032C61.1652 76.046 61.1697 75.0291 61.3028 74.4522L61.3028 74.4522C61.3806 74.1146 61.5137 73.8295 61.702 73.5969C62.2491 72.921 63.278 72.7882 64.0002 73.3002C64.7224 73.8123 64.8643 74.7752 64.3173 75.4512Z" fill="#94C595"/>
<path d="M74.8492 74.5404C73.8107 76.0201 72.737 77.6544 71.6283 79.4434L71.6523 79.4032C70.7574 80.9525 69.677 82.9721 68.4109 85.4619C68.398 85.4873 68.3844 85.5123 68.3701 85.537L66.4245 88.8778C66.4134 88.8968 66.4019 88.9157 66.39 88.9342L66.3901 88.9341C66.4718 88.8068 66.5205 88.6939 66.536 88.5954L66.536 88.5955C66.536 88.5957 66.536 88.5959 66.5359 88.5961C66.4168 89.4367 65.5921 90.0278 64.6939 89.9163C63.7958 89.8047 63.1643 89.0329 63.2835 88.1923C63.2857 88.1769 63.2879 88.1617 63.2903 88.1468V88.147C63.3386 87.8405 63.4346 87.5754 63.5782 87.3519L63.5437 87.4082L65.4892 84.0674L65.4484 84.1424C66.7386 81.605 67.8445 79.5385 68.7662 77.9429C68.774 77.9294 68.782 77.9159 68.7902 77.9027C69.9295 76.0644 71.0351 74.3817 72.1069 72.8544C72.6044 72.1457 73.6214 71.9486 74.3787 72.4141C75.1359 72.8797 75.3466 73.8316 74.8492 74.5404Z" fill="#94C595"/>
<path d="M57.6713 78.6028C57.2301 78.7597 56.8104 78.8819 56.4123 78.9696C56.3603 78.9811 56.3079 78.9907 56.2552 78.9985C55.5756 79.099 55.0146 79.1663 54.572 79.2003L54.6371 79.1943C54.2183 79.2385 53.5244 79.2721 52.5552 79.2952L52.5513 79.2953C52.2727 79.3015 52.002 79.3037 51.7393 79.3019C51.7269 79.3018 51.715 79.3016 51.7027 79.3013C51.0623 79.2868 50.6857 79.2804 50.5731 79.2823H50.5729C50.6077 79.2817 50.6496 79.2792 50.6987 79.2746C50.6435 79.2797 50.5884 79.2829 50.533 79.284L50.4401 79.286L50.5048 79.2837C50.1343 79.3018 49.4529 79.3162 48.4606 79.3268L48.4967 79.3261C48.3092 79.331 48.124 79.3395 47.9411 79.3516L47.9785 79.3488C47.1421 79.4177 46.6041 79.5021 46.3647 79.602L46.3619 79.6032C46.3612 79.6034 46.3604 79.6038 46.3594 79.6042C45.2739 80.0592 43.9998 79.6043 43.5138 78.5883C43.0277 77.5723 43.5137 76.3799 44.5992 75.925C44.6038 75.923 44.6086 75.921 44.6136 75.9189L44.6108 75.9201C45.2891 75.637 46.2859 75.4414 47.6011 75.3331C47.6138 75.332 47.6258 75.3312 47.6385 75.3303C47.8827 75.3142 48.1283 75.3029 48.3754 75.2964C48.3871 75.2961 48.3998 75.2959 48.4115 75.2957C49.3463 75.2858 49.9691 75.2732 50.28 75.258C50.3015 75.2569 50.3231 75.2561 50.3447 75.2557L50.4375 75.2537L50.2719 75.2632C50.3395 75.2569 50.414 75.2531 50.4956 75.2517H50.4955C50.6688 75.2488 51.1061 75.2553 51.8074 75.2712L51.7709 75.2707C51.989 75.2722 52.2152 75.2704 52.4495 75.2652L52.4455 75.2653C53.2903 75.2451 53.86 75.2195 54.1547 75.1884C54.1763 75.1861 54.1981 75.1841 54.2198 75.1825C54.5553 75.1567 55.0097 75.1014 55.5828 75.0166L55.4258 75.0455C55.6394 74.9985 55.878 74.9281 56.1418 74.8343C57.2536 74.439 58.4974 74.9621 58.9198 76.0028C59.3421 77.0434 58.7832 78.2075 57.6713 78.6028Z" fill="#94C595"/>
<path d="M56.7738 84.0356H56.7737C56.8025 84.0392 56.8253 84.0414 56.8421 84.0421L56.8415 84.042C56.8267 84.0414 56.8017 84.0416 56.7665 84.0424L56.9015 84.0352L56.5056 84.0681C56.4818 84.07 56.4579 84.0717 56.4339 84.0729C55.5106 84.1206 54.8235 84.1644 54.3728 84.2041C54.3335 84.2075 54.2938 84.21 54.2543 84.2114L54.2524 84.2115C54.2594 84.2113 54.2651 84.211 54.2697 84.2107L54.2711 84.2106C54.0892 84.2217 53.5124 84.2914 52.5408 84.4198C52.5141 84.4233 52.4873 84.4264 52.4605 84.429C51.6528 84.5069 51.1073 84.5527 50.8241 84.5665L50.8492 84.5651C50.4827 84.5869 50.1802 84.602 49.9418 84.6105C49.9313 84.6108 49.9207 84.6111 49.9102 84.6113L48.2119 84.6481C48.2007 84.6483 48.1895 84.6485 48.1783 84.6485H48.1796C48.1821 84.6485 48.1835 84.6485 48.1839 84.6485H48.185C48.1388 84.6495 48.0444 84.6557 47.9019 84.6668C47.8458 84.6712 47.7895 84.6736 47.7332 84.6738C47.5412 84.6748 47.3833 84.672 47.2594 84.6656H47.2592C47.164 84.6606 47.0759 84.6529 46.9949 84.6423C45.8168 84.4894 44.9942 83.4715 45.1577 82.3689C45.3211 81.2663 46.4086 80.4964 47.5867 80.6493C47.5505 80.6447 47.5212 80.6417 47.4988 80.6405H47.4986C47.5353 80.6425 47.6061 80.6432 47.711 80.6426L47.5423 80.6497C47.7695 80.6318 47.9485 80.6214 48.0792 80.6184L48.0804 80.6184C48.1021 80.6179 48.1235 80.6176 48.1446 80.6174L48.1124 80.6179L49.8107 80.5812L49.7791 80.5821C49.9808 80.5749 50.2465 80.5615 50.5762 80.5419C50.585 80.5414 50.5925 80.541 50.6013 80.5406C50.8112 80.5304 51.2837 80.4899 52.019 80.419L51.9388 80.4281C53.0173 80.2856 53.7014 80.2056 53.9911 80.1879L53.9925 80.1878C54.0268 80.1858 54.0591 80.1842 54.0895 80.1831L53.9691 80.1905C54.4749 80.146 55.2174 80.0984 56.1964 80.0478L56.1247 80.0526L56.5206 80.0197C56.5655 80.016 56.6105 80.0136 56.6556 80.0125C56.7875 80.0093 56.9095 80.0099 57.0217 80.0143L57.0211 80.0143C57.1392 80.0189 57.2505 80.0278 57.3552 80.0412C58.5336 80.1914 59.3588 81.2074 59.1983 82.3104C59.0378 83.4134 57.9523 84.1858 56.7738 84.0356Z" fill="#94C595"/>
<path d="M57.375 89.4533L57.3751 89.4533C57.6045 89.5138 57.8133 89.537 58.0015 89.5229L58.002 89.5229C57.9874 89.524 57.962 89.5266 57.9257 89.5308L58.0996 89.504C57.794 89.5632 57.1908 89.6542 56.2899 89.7772C56.2586 89.7815 56.2271 89.7851 56.1957 89.7881C55.6993 89.8351 55.3784 89.8627 55.2328 89.8709H55.2329C55.2166 89.8718 55.2005 89.8726 55.1847 89.8733L55.1939 89.8729C54.2806 89.9169 53.7546 89.9449 53.6161 89.9571L53.6154 89.9572C53.689 89.9507 53.7713 89.9374 53.8622 89.9171C53.772 89.9372 53.6803 89.9518 53.5881 89.9609L50.3651 90.2778L50.5033 90.26L48.6085 90.5635L48.6007 90.5647C48.3127 90.6098 48.0205 90.6187 47.724 90.5915C46.5403 90.4827 45.675 89.4963 45.7912 88.3885C45.9075 87.2806 46.9613 86.4707 48.145 86.5795C48.0625 86.572 47.9774 86.575 47.8898 86.5887L47.882 86.59L49.7769 86.2865C49.8227 86.2792 49.8688 86.2732 49.9151 86.2686L53.138 85.9517L52.8639 85.9955C52.9692 85.9721 53.0856 85.9547 53.2132 85.9435L53.2125 85.9436C53.4116 85.926 53.9984 85.8938 54.9728 85.8469L54.982 85.8465C54.978 85.8467 54.9751 85.8469 54.9733 85.8469H54.9734C55.0609 85.842 55.3239 85.8188 55.7624 85.7773L55.6683 85.7881C56.485 85.6767 57.0046 85.5994 57.227 85.5564C57.2846 85.5452 57.3426 85.5363 57.4009 85.5296C57.4971 85.5185 57.5827 85.5102 57.6575 85.5045H57.658C57.9826 85.4802 58.2776 85.5031 58.5433 85.5731C59.6881 85.8751 60.3546 86.9885 60.032 88.0599C59.7094 89.1314 58.5198 89.7552 57.375 89.4533Z" fill="#94C595"/>
<path d="M48.9748 34.8685C49.0313 34.9099 49.0925 34.9426 49.1565 34.9669C49.0945 34.9462 49.0337 34.9134 48.974 34.8685L48.9748 34.8685ZM48.8449 34.9141C48.9322 34.9531 49.0268 34.9763 49.1237 34.9821C49.0293 34.9791 48.9361 34.9564 48.844 34.9141L48.8449 34.9141ZM49.1617 33.5604C49.1494 33.5602 49.137 33.5603 49.1245 33.5606H49.1244C49.0798 33.5616 49.0089 33.5654 48.9118 33.572H48.9109C48.7723 33.5792 48.5863 33.6041 48.3532 33.6467L48.3524 33.6467L47.1532 33.7435C47.1334 33.7451 47.1137 33.7475 47.0941 33.7505L46.8279 33.7919L46.8208 33.793C46.4033 33.8617 45.8074 33.9916 45.0332 34.1828C45.0208 34.1858 45.0086 34.1891 44.9964 34.1928L43.854 34.5332L43.8532 34.5332C43.6502 34.5705 43.3637 34.6147 42.9938 34.6658C42.9685 34.6693 42.9434 34.674 42.9186 34.6799L42.1358 34.8652L41.8174 34.9124C41.7953 34.9157 41.7734 34.9198 41.7517 34.9249C41.6021 34.96 41.4699 35.0256 41.3553 35.1217C41.0427 35.3836 41.0161 35.8332 41.296 36.1257C41.4436 36.28 41.6469 36.3599 41.852 36.3625C41.9623 36.3638 42.073 36.3429 42.1758 36.2992L42.175 36.2992L42.4074 36.2648C42.43 36.2614 42.4525 36.2571 42.4747 36.2518L43.2527 36.0677H43.2519C43.657 36.0114 43.9719 35.9619 44.1967 35.9192C44.2236 35.9141 44.2501 35.9076 44.2762 35.8999L45.4352 35.5545L45.4344 35.5545C46.1564 35.3765 46.704 35.2565 47.0771 35.1948H47.0769L47.3136 35.158L48.5259 35.0601C48.554 35.0578 48.5819 35.054 48.6154 35.0478L48.6163 35.0476H48.6164C48.799 35.0136 48.9258 34.995 48.9969 34.9919C49.0034 34.9916 49.0104 34.9912 49.0168 34.9908C49.0743 34.9868 49.1159 34.9843 49.1417 34.9831L49.1425 34.9831C49.1439 34.9831 49.1453 34.9832 49.1466 34.9832C49.1736 34.9841 49.1961 34.985 49.2142 34.9861H49.2134C49.2845 35.0071 49.3582 35.018 49.4319 35.0189C49.6371 35.0215 49.8427 34.9468 49.9947 34.7962C50.2828 34.5107 50.2691 34.0607 49.964 33.791C49.8356 33.6775 49.6682 33.6074 49.4619 33.5807L49.4617 33.5806C49.3949 33.572 49.3129 33.5659 49.2157 33.5625H49.2148C49.1974 33.5613 49.1797 33.5606 49.1617 33.5604Z" fill="#94C595"/>
</svg>
