<svg width="112" height="120" viewBox="0 0 112 120" fill="none" xmlns="http://www.w3.org/2000/svg">
<path d="M35.7577 39.3332C36.6938 43.8214 37.0492 46.785 37.2311 48.3033C37.2989 48.8693 37.3306 49.1192 37.3499 49.2115L37.349 49.2074L37.3498 49.2109L37.35 49.2118C37.3548 49.2346 37.3413 49.1578 37.2964 49.0445C37.3594 49.2034 37.3977 49.3689 37.4105 49.5367L38.7898 67.643L38.7781 67.5354L40.8044 81.7713L40.7896 81.684C40.9169 82.3301 40.9431 83.1888 40.9692 83.9071C41.0055 84.9026 41.0437 85.8446 41.1963 86.6188C41.3154 87.2236 41.4604 87.4699 41.5024 87.5193L41.502 87.5189C41.5033 87.5204 41.5006 87.5174 41.4997 87.5163L41.5001 87.5168C42.9724 89.0997 44.9698 90.4461 46.4416 90.7018L46.4416 90.7019C47.1825 90.8305 49.1722 90.6944 52.3571 90.4407C55.1803 90.2158 58.6126 89.9411 61.8915 89.941C62.4762 89.941 63.0588 89.948 63.661 89.955C64.3198 89.9627 64.9757 89.9704 65.6852 89.9704H65.6853C68.5797 89.9703 72.1528 89.8389 77.3474 88.9899C78.1344 88.8613 80.1673 86.8788 80.7114 85.1401C81.5013 82.6161 82.0444 78.5245 81.8074 70.6431L81.8121 70.7271L80.6718 56.6743L80.7445 57.0439C79.3475 52.6275 78.3793 45.8435 77.6258 36.8335C77.4225 34.4021 76.5822 32.734 75.5694 31.5716C74.5701 30.4249 72.4294 29.4264 68.1665 29.6144L68.1711 29.6142L68.1605 29.6147L68.1559 29.6149C59.8022 29.9833 50.1958 30.4416 40.2441 31.1377C36.2339 31.4182 35.57 34.912 35.7819 40.1623C35.8239 41.2032 34.8936 42.0769 33.704 42.1136C32.5144 42.1504 31.516 41.3364 31.474 40.2955C31.3102 36.2385 31.1909 27.9871 39.9006 27.3779C49.9178 26.6772 59.5746 26.2168 67.9389 25.8479L67.9343 25.8481L67.9449 25.8476L67.9495 25.8474C72.9516 25.6267 76.7924 26.7542 78.9973 29.2847C80.5591 31.0771 81.6658 33.4587 81.925 36.5582C82.678 45.5625 83.6265 52.0152 84.899 56.0377C84.9372 56.1584 84.9615 56.2822 84.9717 56.4072L86.1119 70.46C86.1142 70.488 86.1158 70.5159 86.1166 70.544C86.3571 78.5419 85.8274 83.0741 84.869 86.1363C84.1907 88.3035 81.4302 92.1598 78.1388 92.6977C72.6344 93.5973 68.7897 93.7422 65.6853 93.7422H65.6854C64.9428 93.7423 64.2584 93.7341 63.6032 93.7265C62.9943 93.7193 62.4432 93.7129 61.8917 93.7129C58.8402 93.713 55.6058 93.9693 52.7479 94.197C49.9977 94.4161 47.1305 94.6669 45.6021 94.4014L45.6022 94.4014C42.6333 93.8857 39.8272 91.6936 38.1568 89.8977L38.1572 89.8981C38.1161 89.854 38.0782 89.8112 38.0409 89.7672L38.0405 89.7668C37.3834 88.9919 37.1 88.0298 36.9483 87.2596C36.7351 86.1776 36.6947 84.9588 36.6608 84.0272C36.6304 83.1928 36.6056 82.6495 36.5416 82.3248C36.5359 82.2958 36.5309 82.2667 36.5268 82.2375L34.5005 68.0015C34.4954 67.9657 34.4915 67.9298 34.4887 67.8939L33.1094 49.7875L33.2235 50.2797C33.1589 50.1167 33.1259 49.9675 33.1107 49.8952L33.1109 49.8962L33.1101 49.8927L33.1093 49.8887C33.0521 49.6146 33.0002 49.1662 32.9439 48.6966C32.7672 47.2217 32.4252 44.3645 31.5171 40.0104C31.3034 38.9858 32.0794 38.0036 33.2504 37.8166C34.4214 37.6296 35.544 38.3086 35.7577 39.3332Z" fill="black"/>
<path d="M30.5426 42.075C29.1008 40.9906 28.2154 40.3618 27.8864 40.1887C27.8782 40.1844 27.8709 40.1805 27.8628 40.1761C27.0797 39.7521 25.885 39.2173 24.2789 38.5716C24.2162 38.5464 24.1551 38.5187 24.0956 38.4884L17.6791 35.225C17.6458 35.2081 17.6129 35.1903 17.5807 35.1718C16.655 34.6409 15.2054 33.6605 13.232 32.2308L13.3798 32.3288L5.21849 27.385L5.50053 27.5295C5.21351 27.407 4.94059 27.222 4.68177 26.9744L4.68195 26.9746C4.56723 26.8649 4.44 26.7296 4.30026 26.5685C3.58038 25.739 3.7653 24.556 4.71331 23.9261C5.6613 23.2962 7.01339 23.458 7.73327 24.2875C7.79335 24.3567 7.83633 24.4037 7.86222 24.4285L7.8624 24.4286C7.75208 24.3231 7.59465 24.2267 7.39008 24.1394C7.48831 24.1813 7.58251 24.2296 7.67213 24.2839L15.8334 29.2276C15.8843 29.2585 15.9335 29.2911 15.9812 29.3257C17.8312 30.666 19.1521 31.5632 19.9438 32.0173L19.8453 31.9641L26.2618 35.2275L26.0785 35.1442C27.8461 35.8548 29.1969 36.463 30.131 36.9687L30.1074 36.9561C30.6447 37.2388 31.7265 37.9916 33.3526 39.2147C34.2553 39.8936 34.358 41.0843 33.5821 41.8742C32.8061 42.664 31.4453 42.7539 30.5426 42.075Z" fill="black"/>
<path d="M31.3845 3.71403L36.6057 8.44499C36.6435 8.47921 36.6798 8.51469 36.7145 8.55133L42.8378 15.0133C42.8908 15.0692 42.9401 15.1278 42.9853 15.1887C46.0579 19.3218 48.682 23.9385 49.7531 25.8213C50.0125 26.2775 50.1472 26.5126 50.1915 26.5824L50.1912 26.5818C50.1932 26.585 50.1845 26.5711 50.1688 26.5488C50.7927 27.4358 50.4767 28.5975 49.463 29.1434C48.4492 29.6893 47.1216 29.4128 46.4977 28.5258C46.4686 28.4844 46.4429 28.4448 46.4258 28.418L46.4255 28.4175C46.3178 28.2483 46.1187 27.8969 45.894 27.502C44.8185 25.6111 42.2929 21.1746 39.3719 17.2454L39.5194 17.4208L33.3961 10.9588L33.5049 11.0651L28.2836 6.33415C27.4567 5.58491 27.4806 4.39101 28.3368 3.66748C29.1931 2.94396 30.5576 2.96479 31.3845 3.71403Z" fill="black"/>
<path d="M70.045 26.8636C70.1847 25.38 70.3039 24.4353 70.4024 24.0294L70.4024 24.0293C70.4294 23.918 70.4605 23.8164 70.4955 23.7246L70.414 24.0109C71.0749 20.557 71.5026 18.545 71.6972 17.9748L71.6973 17.9747C71.8221 17.6091 72.0151 17.3091 72.2761 17.0748L71.7765 17.79L72.9172 14.8228L72.8698 14.9642C73.4317 13.0086 73.9047 11.5506 74.2887 10.5901C74.2908 10.5848 74.2931 10.5792 74.2953 10.5739C75.362 7.98228 75.9449 6.51767 76.044 6.18013L76.044 6.18008C76.0436 6.18154 76.043 6.18369 76.0422 6.1865C76.0716 6.07863 76.1119 5.97325 76.1625 5.87157L78.519 1.1338C78.994 0.178757 80.2639 -0.258489 81.3554 0.157149C82.4469 0.5728 82.9466 1.68395 82.4715 2.63896L80.115 7.37675L80.2352 7.06183C80.2302 7.08042 80.2247 7.09951 80.219 7.11911L80.219 7.11906C80.0862 7.5712 79.4635 9.14882 78.351 11.8519L78.3575 11.8357C78.0163 12.689 77.5806 14.0384 77.0503 15.8839C77.0366 15.9315 77.0208 15.9787 77.0029 16.0253L75.8623 18.9925C75.7592 19.2606 75.5884 19.5051 75.3627 19.7077C75.5951 19.4991 75.7501 19.2813 75.8276 19.0543L75.8276 19.0542C75.6842 19.4743 75.2968 21.3342 74.6655 24.6337C74.6469 24.7308 74.6197 24.8265 74.584 24.9199C74.6005 24.8766 74.6122 24.841 74.619 24.813L74.619 24.8129C74.5585 25.0623 74.4658 25.8492 74.3411 27.1734C74.2433 28.2114 73.2023 28.9836 72.016 28.898C70.8297 28.8125 69.9472 27.9016 70.045 26.8636Z" fill="black"/>
<path d="M80.3886 40.616L80.448 40.5979L80.4487 40.5976L80.3893 40.6158C81.663 40.2084 82.4372 39.929 82.7117 39.7778C82.6264 39.8248 82.5338 39.8985 82.4338 39.999C82.5296 39.9027 82.6364 39.8152 82.7524 39.7378L93.8175 32.3553L93.5844 32.5355C96.0179 30.3611 98.5968 28.3937 101.321 26.6333L101.019 26.8705C102.66 25.3166 103.983 23.8454 104.99 22.457L104.867 22.6502C104.952 22.4949 105.07 22.3368 105.22 22.1761L105.22 22.176C105.495 21.882 106.205 21.2464 107.352 20.2693C108.204 19.5426 109.569 19.5583 110.4 20.3044C111.23 21.0506 111.212 22.2446 110.359 22.9713C109.33 23.8487 108.73 24.3788 108.559 24.5618L108.559 24.5617C108.625 24.4907 108.69 24.3981 108.753 24.2838C108.716 24.3503 108.675 24.4147 108.63 24.4769C107.484 26.0579 106.002 27.709 104.185 29.4303C104.092 29.5176 103.991 29.5969 103.882 29.6675C101.343 31.3082 98.9369 33.1438 96.6644 35.1744C96.5917 35.2393 96.5138 35.2995 96.4313 35.3546L85.3662 42.7371L85.6848 42.4758C85.5067 42.6548 85.2811 42.8195 85.008 42.9699C84.4756 43.2632 83.4293 43.6593 81.8694 44.1583L81.81 44.1764L81.8092 44.1767C80.7506 44.5162 79.5129 44.013 79.1043 43.0348C78.6956 42.0565 79.2706 40.9736 80.3886 40.616Z" fill="black"/>
<path d="M36.6201 77.9375L29.7813 78.6501L30.3332 78.5262C27.6493 79.4742 26.1825 80.1959 25.6925 80.488L25.6925 80.488L25.2197 80.7699L25.2197 80.7699L24.7724 81.0365C20.3386 83.6802 18.1533 85.0096 17.7019 85.4385L17.7016 85.4388C17.7034 85.4371 17.7019 85.4387 17.7083 85.4321C17.6356 85.5063 17.5564 85.5753 17.4715 85.6387L8.46206 92.3633L8.62227 92.2308L3.7143 96.7294C2.89235 97.4828 1.52805 97.5104 0.667051 96.7912C-0.193957 96.072 -0.225612 94.8783 0.596325 94.1249L5.5043 89.6264C5.55509 89.5798 5.60856 89.5356 5.66452 89.4938L14.6739 82.7692L14.4371 82.9758C14.4669 82.9454 14.5023 82.9107 14.5313 82.8831L14.5311 82.8834C15.4226 82.0364 18.2777 80.3447 22.3451 77.9196L22.7924 77.6529L22.7925 77.6529L23.2653 77.371L23.2652 77.371C24.117 76.8632 25.9028 76.0235 28.7197 75.0286C28.8966 74.9661 29.0822 74.9244 29.2716 74.9047L36.1103 74.1921C37.2923 74.069 38.3646 74.8075 38.5054 75.8418C38.6462 76.876 37.8021 77.8143 36.6201 77.9375Z" fill="black"/>
<path d="M48.3946 94.1096C48.0076 95.3767 47.6876 95.909 47.1134 96.8593L47.1134 96.8592C46.7956 97.3851 46.3772 98.0776 45.7693 99.1909C45.7497 99.2268 45.7288 99.2622 45.7067 99.2969L41.6422 105.67C41.6236 105.7 41.6041 105.728 41.5837 105.757L41.5846 105.756L41.5825 105.759L41.5816 105.76C40.2788 107.569 39.2938 108.913 38.642 109.697L38.6379 109.702L38.6364 109.704L38.6405 109.699C36.1907 112.643 34.5257 114.544 33.8311 115.127L33.8312 115.127C33.7783 115.172 33.4852 115.429 33.0713 115.592L34.0262 114.854C33.464 115.661 32.893 116.363 32.3091 116.9L32.7067 116.386C32.7993 116.209 32.9349 115.833 32.7942 115.364C33.0959 116.371 32.4071 117.402 31.2556 117.666C30.1041 117.93 28.9261 117.327 28.6243 116.32C28.4408 115.707 28.6017 115.17 28.7878 114.815C28.887 114.625 29.0213 114.452 29.1854 114.301C29.4728 114.036 29.8615 113.586 30.3458 112.891C30.572 112.566 30.9048 112.309 31.3008 112.153C30.9537 112.29 30.763 112.476 30.846 112.406L30.8461 112.406C31.1923 112.115 32.581 110.573 35.1556 107.479L35.1597 107.474L35.1612 107.472L35.157 107.477C35.7059 106.817 36.6066 105.593 37.9343 103.749L37.9335 103.75L37.9356 103.748L37.8779 103.833L41.9424 97.459L41.8797 97.565C42.5247 96.3837 42.9745 95.6392 43.3027 95.0961L43.3027 95.0961C43.8168 94.2454 43.9654 94.0024 44.2301 93.1358C44.5375 92.1296 45.7189 91.5318 46.8689 91.8007C48.0189 92.0697 48.7019 93.1034 48.3946 94.1096Z" fill="black"/>
<path d="M66.8265 94.9908L68.6337 100.845L68.5744 100.683C70.1908 104.507 71.8921 107.656 74.6502 110.832L74.5534 110.729L79.5291 115.686C79.5377 115.694 79.5462 115.703 79.5546 115.711C79.5815 115.739 78.9121 115.022 77.7605 115.319C78.9025 115.025 80.1005 115.597 80.4363 116.596C80.7721 117.595 80.1185 118.643 78.9765 118.937C77.5396 119.307 76.5643 118.458 76.2649 118.149L76.2903 118.175L71.3146 113.218C71.281 113.184 71.2487 113.15 71.2179 113.114C68.1104 109.535 66.2312 106.012 64.5314 101.991C64.5089 101.938 64.4891 101.884 64.4722 101.829L62.6649 95.9743C62.3546 94.9688 63.0345 93.9335 64.1837 93.6619C65.3329 93.3903 66.5161 93.9853 66.8265 94.9908Z" fill="black"/>
<path d="M87.9852 78.9534C89.6658 79.4114 91.1661 80.0377 92.4862 80.8326C92.5557 80.8744 92.6222 80.9197 92.6856 80.9683L98.8574 85.7047C98.9027 85.7395 98.9463 85.7759 98.9881 85.8138L102.812 89.2857C102.867 89.3349 102.918 89.3866 102.966 89.4407C104.92 91.6524 106.531 93.3666 107.797 94.5834C107.883 94.6655 107.96 94.7542 108.028 94.8482L111.47 99.6315C112.104 100.513 111.802 101.677 110.795 102.232C109.787 102.787 108.457 102.523 107.822 101.641L104.38 96.8581L104.61 97.1229C103.266 95.8312 101.581 94.0396 99.5556 91.7482L99.7087 91.9032L95.8844 88.4314L96.015 88.5405L89.8432 83.804L90.0426 83.9398C89.0814 83.361 87.9684 82.8994 86.7036 82.5547C85.567 82.2451 84.9326 81.1879 85.2865 80.1934C85.6404 79.199 86.8487 78.6438 87.9852 78.9534Z" fill="black"/>
<path d="M37.9179 39.3333L37.9182 39.3333C37.9158 39.3329 37.9141 39.3326 37.9129 39.3325L37.912 39.3323C38.3227 39.3886 39.4401 39.3438 41.2644 39.1978L41.106 39.2157C43.3119 38.8937 45.2782 38.646 47.0051 38.4725L47.0145 38.4716L58.9645 37.3179C58.9908 37.3154 59.0171 37.3133 59.0434 37.3116C59.9308 37.2548 60.7738 37.2308 61.5725 37.2397C61.5919 37.2399 61.6109 37.2403 61.6303 37.241L66.3735 37.4054L66.3345 37.4043C68.7174 37.4491 70.0784 37.4606 70.4178 37.4388L70.415 37.439C70.4142 37.439 70.415 37.439 70.4174 37.4388C70.432 37.4378 70.447 37.4368 70.4616 37.436L77.9705 37.0316L77.804 37.0463C78.5669 36.9528 79.0864 36.862 79.3624 36.7741C80.4809 36.4176 81.7179 36.922 82.1253 37.9006C82.5327 38.8793 81.9563 39.9616 80.8378 40.3181C80.2772 40.4968 79.4652 40.6513 78.4018 40.7816C78.3466 40.7884 78.291 40.7933 78.2353 40.7963L70.7264 41.2007L70.7706 41.1979C70.7614 41.1986 70.75 41.1994 70.7365 41.2002L70.7338 41.2004C70.2587 41.231 68.7614 41.2226 66.2419 41.1753C66.2289 41.175 66.2159 41.1747 66.2029 41.1742L61.4597 41.0099L61.5175 41.0112C60.8424 41.0036 60.1226 41.0244 59.3583 41.0734L59.4372 41.067L47.4872 42.2207L47.4966 42.2197C45.8426 42.3859 43.9488 42.6246 41.8153 42.936C41.7629 42.9437 41.71 42.9497 41.657 42.9539C39.4781 43.1283 38.0073 43.1633 37.2447 43.0587L37.2439 43.0586C37.207 43.0535 37.1708 43.0481 37.1354 43.0424C35.9651 42.8534 35.1913 41.8699 35.4073 40.8456C35.6233 39.8214 36.7473 39.1443 37.9179 39.3333Z" fill="black"/>
<path d="M16.278 24.7259C15.676 24.8449 15.0879 24.7657 14.5138 24.4884L14.5003 24.4818L13.3609 23.9221L13.3517 23.9176C13.1106 23.7978 12.8267 23.6334 12.5001 23.4245L12.6923 23.5342C12.6056 23.4903 12.538 23.4553 12.4893 23.4291L12.49 23.4295C12.3096 23.3327 12.1545 23.2254 12.0245 23.1077L12.5427 23.4531C12.1559 23.2685 11.8426 22.9931 11.6028 22.6267C11.0112 21.7229 11.3689 20.5706 12.4019 20.053C13.4348 19.5353 14.7517 19.8483 15.3433 20.7521C15.179 20.5011 14.9333 20.2975 14.6063 20.1415C14.798 20.233 14.9727 20.3494 15.1245 20.4868C15.0012 20.3752 14.8744 20.2844 14.744 20.2144L14.7448 20.2148C14.762 20.224 14.7978 20.2424 14.8521 20.27C14.9183 20.3035 14.9825 20.3401 15.0442 20.3796C15.2374 20.5032 15.3827 20.5892 15.4803 20.6377L15.4711 20.6332L16.6104 21.1928L16.5969 21.1862C16.2147 21.0016 15.7918 20.9551 15.3283 21.0468C16.4894 20.8173 17.6432 21.4548 17.9055 22.4708C18.1677 23.4868 17.4391 24.4964 16.278 24.7259Z" fill="black"/>
<path d="M17.1474 21.6046L16.6571 21.2062L16.8914 21.3715L16.0014 20.8288C15.9534 20.7996 15.9068 20.7686 15.8617 20.736C15.5714 20.5264 15.2409 20.2689 14.87 19.9637C14.003 19.2501 13.9612 18.0566 14.7768 17.2979C15.5923 16.5392 16.9564 16.5027 17.8234 17.2163C18.1267 17.4659 18.3875 17.6695 18.6058 17.8272L18.466 17.7343L19.356 18.277C19.4384 18.3273 19.5167 18.3825 19.5903 18.4423L20.0806 18.8407C20.9529 19.5494 21.0034 20.7427 20.1934 21.506C19.3834 22.2692 18.0196 22.3134 17.1474 21.6046Z" fill="black"/>
<path d="M29.5654 21.7907L29.0751 21.3923L29.3094 21.5576L28.4194 21.0149C28.3714 20.9856 28.3248 20.9546 28.2796 20.922C27.9894 20.7124 27.6588 20.455 27.288 20.1498C26.4209 19.4362 26.3792 18.2426 27.1948 17.4839C28.0103 16.7252 29.3744 16.6887 30.2414 17.4024C30.5447 17.652 30.8055 17.8556 31.0237 18.0132L30.884 17.9204L31.774 18.4631C31.8564 18.5133 31.9347 18.5686 32.0083 18.6284L32.4986 19.0268C33.3709 19.7355 33.4213 20.9288 32.6114 21.692C31.8014 22.4552 30.4376 22.4994 29.5654 21.7907Z" fill="black"/>
<path d="M30.0807 25.9021C29.4787 26.0211 28.8907 25.942 28.3165 25.6647L28.303 25.6581L27.1636 25.0984L27.1544 25.0938C26.9133 24.974 26.6294 24.8097 26.3029 24.6008L26.4949 24.7104C26.409 24.6669 26.3416 24.632 26.2927 24.6058L26.2917 24.6052C26.1115 24.5084 25.9565 24.4011 25.8266 24.2835L26.3454 24.6293C25.9586 24.4448 25.6453 24.1694 25.4055 23.803C24.8139 22.8992 25.1717 21.7469 26.2046 21.2292C27.2375 20.7116 28.5545 21.0246 29.1461 21.9284C28.9817 21.6773 28.7361 21.4738 28.409 21.3178C28.601 21.4094 28.776 21.526 28.9278 21.6637C28.8046 21.552 28.6779 21.4612 28.5476 21.3912L28.5466 21.3907C28.5636 21.3998 28.5997 21.4183 28.6549 21.4463C28.7211 21.4798 28.7852 21.5164 28.847 21.5559C29.0401 21.6795 29.1855 21.7655 29.2831 21.814L29.2738 21.8094L30.4132 22.3691L30.3997 22.3625C30.0174 22.1779 29.5946 22.1314 29.131 22.223C30.2921 21.9936 31.446 22.6311 31.7082 23.6471C31.9705 24.663 31.2418 25.6727 30.0807 25.9021Z" fill="black"/>
<path d="M33.4916 33.803L33.4917 33.8028C33.3524 34.1303 32.446 35.5272 30.6646 34.9462L30.6649 34.9463C29.726 34.6403 29.3726 33.8793 29.3798 33.8921L29.3797 33.892C29.2225 33.6107 29.0875 33.2705 29.0355 32.8832C28.9778 32.4538 28.9735 32.031 29.0402 31.6315L29.0402 31.6314C29.0616 31.503 29.0912 31.3727 29.1305 31.2427L29.0664 31.8845C29.0276 31.4843 29.1366 31.1363 29.172 31.0223C29.3418 30.4761 29.7589 29.6586 30.3262 28.6862C31.0727 27.4065 32.3833 26.489 33.9448 25.8858C34.018 25.8576 34.0898 25.8319 34.1624 25.8078L34.1627 25.8077C34.6861 25.6344 35.2452 25.5515 35.793 25.5889H35.7926C36.31 25.6242 36.8711 25.7166 37.3348 25.7913L37.3353 25.7914C37.3933 25.8007 37.4134 25.804 37.4725 25.8135L37.6345 25.8452L37.6349 25.8452L37.4733 25.8136C37.5765 25.8302 37.6769 25.8487 37.7728 25.8694L37.7721 25.8692C37.8887 25.8942 38.0538 25.934 38.2247 25.9955L38.2257 25.9958C38.7586 26.1876 39.2597 26.3806 39.6138 26.5619L39.6136 26.5617C39.6937 26.6028 40.1218 26.8104 40.4416 27.1868L39.8348 26.7022C39.8748 26.7235 39.8929 26.7317 40.0421 26.7804L40.0423 26.7804C40.1671 26.8211 40.4837 26.9192 40.8216 27.0998L40.8213 27.0996C41.1366 27.2681 41.4165 27.4759 41.6775 27.7242L38.2446 28.0287C38.6301 27.468 39.0632 26.9924 39.5615 26.6339C40.299 26.1033 41.3437 25.7386 42.4553 26.0353C43.2806 26.2556 43.9581 26.6105 44.4562 27.0098L44.4563 27.0099C44.5366 27.0743 45.8822 28.0718 45.4045 29.4418L45.4046 29.4416C44.9803 30.6587 43.6663 30.8759 43.014 30.8194H43.0141C42.7541 30.7969 42.0511 30.7529 41.1636 30.8923L41.1635 30.8923C40.4752 31.0004 39.9139 30.8206 39.7854 30.7818L39.7859 30.7819C39.7433 30.7691 39.7132 30.7595 39.6913 30.7525L39.692 30.7527C39.6704 30.7459 39.6624 30.7434 39.6592 30.7424L39.6606 30.7428C39.5738 30.7165 39.9658 30.8646 40.489 30.7823L40.4886 30.7823C41.2509 30.6626 41.6402 30.2078 41.7673 29.9984C41.4828 30.4671 40.9857 30.8092 40.398 30.9407C39.8104 31.0722 39.1866 30.981 38.6798 30.6895C38.8398 30.7815 39.1946 30.7982 39.6 30.6247L39.6001 30.6247C40.9153 30.0617 40.676 28.7571 40.6933 29.0921L40.6933 29.0922C40.6531 28.309 41.1045 30.2717 39.4643 30.9733L39.4603 30.975C39.0747 31.139 38.7044 31.1753 38.425 31.1672L38.4678 31.168L38.4654 31.168L38.4239 31.1671C38.312 31.1639 37.7795 31.2153 36.7182 31.5833H36.7181C36.9504 31.5028 37.0806 31.3766 37.1188 31.3349L37.1613 31.287L36.0014 32.6375L36.1125 32.495C35.7459 33.0148 35.4016 33.6781 35.0217 34.5335L35.0217 34.5334C34.7944 35.0451 34.0254 36.0503 32.5463 35.9366H32.5462C31.0247 35.8195 30.0983 34.8547 29.7303 33.8643L29.7303 33.8643C29.4918 33.2224 29.4484 32.5205 29.5182 31.8259L29.5182 31.8259C29.5211 31.7968 29.5246 31.7639 29.528 31.735C29.6273 30.8676 30.1295 30.2137 30.6668 29.7676L30.6668 29.7677C31.1411 29.3738 31.6876 29.1001 32.1665 28.9058C33.2464 28.4677 34.5277 28.8785 35.0284 29.8234C35.5292 30.7683 35.0597 31.8895 33.9798 32.3277C33.7429 32.4238 33.6481 32.4919 33.634 32.5037L33.634 32.5037C33.6377 32.5006 33.7879 32.3659 33.8171 32.1113C33.8155 32.1251 33.8136 32.1432 33.8123 32.1562L33.8123 32.1561C33.7756 32.5213 33.8237 32.6819 33.8298 32.6982L33.8297 32.6981C33.8189 32.669 33.5761 32.2295 32.9238 32.1793H32.9237C31.646 32.081 31.1046 32.9403 31.0038 33.1672L31.0038 33.1672C31.415 32.2413 31.8711 31.3266 32.4444 30.5139C32.4789 30.465 32.516 30.4174 32.5555 30.3715L33.7154 29.021C33.7292 29.0049 33.7434 28.9889 33.7579 28.9731C34.0189 28.6887 34.4549 28.3109 35.1304 28.0767H35.1303C36.3587 27.6508 37.5564 27.3685 38.5649 27.3974L38.5234 27.3966L38.5258 27.3966L38.5687 27.3974C38.3059 27.3898 37.9498 27.4236 37.5752 27.5829L37.5712 27.5847C35.9851 28.2631 36.4324 30.1452 36.387 29.2615V29.2617C36.3956 29.4301 36.1451 27.9047 37.7058 27.2366L37.706 27.2365C38.1115 27.0629 39.4899 26.6415 41.048 27.5378L37.9605 28.2289C38.2358 27.7754 38.7895 27.2171 39.7268 27.0699L39.7263 27.0699C40.4139 26.9618 40.98 27.1511 41.0722 27.179L41.0736 27.1794C41.1087 27.1901 41.1422 27.2008 41.1593 27.2062L41.16 27.2064C41.1862 27.2147 41.1855 27.2145 41.1914 27.2163L41.1919 27.2164C41.2574 27.2362 40.8941 27.1026 40.402 27.1798L40.4019 27.1799C41.818 26.9574 42.9505 27.0237 43.4382 27.0659L43.4384 27.0659C42.916 27.0207 41.6795 27.1994 41.2815 28.3413L41.2815 28.3411C40.8665 29.5313 41.9799 30.1403 41.544 29.7907L41.5441 29.7908C41.5325 29.7816 41.4242 29.7035 41.1975 29.643C41.8862 29.8268 42.3095 29.5399 42.2992 29.5472C42.2891 29.5545 42.1551 29.6577 41.9381 29.9733C41.588 30.4824 40.9842 30.8174 40.3087 30.8773C39.6332 30.9372 38.9648 30.7151 38.5051 30.2779C38.4773 30.2514 38.5027 30.2803 38.5751 30.319L38.5748 30.3188C38.639 30.3531 38.6949 30.3663 38.5373 30.3149L38.5375 30.315C38.3522 30.2546 38.004 30.1433 37.5887 29.9215C37.3528 29.7954 37.1468 29.631 36.982 29.4369C37.2479 29.7499 37.5516 29.876 37.4381 29.818L37.4379 29.8179C37.3721 29.7842 37.1264 29.6786 36.586 29.4841L36.587 29.4845C36.6969 29.524 36.7616 29.5359 36.7448 29.5323L36.7441 29.5322C36.7445 29.5323 36.7257 29.5284 36.6948 29.5234L36.5332 29.4918L36.5328 29.4917L36.6948 29.5234C36.7667 29.535 36.4812 29.489 36.5541 29.5008L36.5545 29.5008C36.0226 29.4151 35.7033 29.366 35.458 29.3493H35.4577C35.6219 29.3605 35.6985 29.332 35.6888 29.3352L35.6891 29.3351C35.6875 29.3356 35.6882 29.3354 35.6855 29.3364C34.7619 29.6932 34.3437 30.0956 34.1656 30.401C33.5971 31.3754 33.3719 31.8824 33.3317 32.0118C33.3078 32.0887 33.392 31.8799 33.3616 31.5663C33.3825 31.782 33.3608 31.9991 33.2975 32.2082C33.3039 32.1871 33.3057 32.1759 33.3056 32.1765L33.3056 32.1765C33.3043 32.1841 33.2932 32.2681 33.3167 32.4428C33.3019 32.3329 33.2675 32.2624 33.2522 32.2351L33.2521 32.235C33.3354 32.3841 33.052 31.6994 32.1697 31.4118L32.17 31.4119C30.4345 30.8459 29.5655 32.2197 29.4515 32.4878C29.8667 31.5115 31.1075 31.0146 32.2232 31.3778C33.3388 31.741 33.9067 32.8268 33.4916 33.803Z" fill="black"/>
<path d="M91.0241 9.26579L91.0241 9.2656C91.0173 9.36657 91.0012 9.47651 90.9757 9.5954L90.9758 9.59534C90.9593 9.67206 90.9373 9.76125 90.9096 9.8629C90.9047 9.88105 90.8994 9.89916 90.8938 9.91721C90.7653 10.3341 90.6906 10.5832 90.6697 10.6644L90.6697 10.6642C90.672 10.6551 90.6748 10.6432 90.6779 10.6286C90.6749 10.6428 90.6717 10.657 90.6682 10.6712C90.6614 10.6997 90.6568 10.7193 90.6545 10.73L90.6545 10.73C90.6584 10.7118 90.6623 10.6889 90.6662 10.6612C90.6651 10.6688 90.664 10.6762 90.6628 10.6838C90.6415 10.8208 90.6234 10.9298 90.6085 11.0107C90.4202 12.0392 89.3147 12.7393 88.1393 12.5745C86.964 12.4097 86.1638 11.4424 86.3522 10.4139C86.3617 10.3621 86.3748 10.2821 86.3917 10.174L86.3883 10.1967C86.3949 10.15 86.4041 10.099 86.4158 10.0436L86.4158 10.0437C86.4246 10.0024 86.4361 9.95211 86.4503 9.89299L86.4406 9.93559C86.4472 9.90467 86.4552 9.87103 86.4646 9.83468L86.4646 9.83456C86.4987 9.70227 86.5878 9.40238 86.7319 8.93488L86.7162 8.98921C86.7277 8.94681 86.7353 8.91728 86.7388 8.90063L86.7388 8.90057C86.7308 8.93833 86.7248 8.98628 86.7209 9.04442C86.7908 8.00449 87.8108 7.21118 88.9991 7.27236C90.1874 7.33353 91.094 8.22602 91.0241 9.26579Z" fill="black"/>
<path d="M93.9791 12.5725C94.1928 12.4998 94.3666 12.3946 94.5005 12.2571C94.4542 12.3046 94.4053 12.3501 94.3538 12.3934L94.3536 12.3936C94.367 12.3823 94.3772 12.3733 94.3842 12.3665L94.3844 12.3663C94.3479 12.4016 94.2868 12.4712 94.2009 12.5752C93.5039 13.4195 92.1566 13.6095 91.1917 12.9996C90.2268 12.3896 90.0096 11.2107 90.7067 10.3664C90.8848 10.1508 91.0447 9.97437 91.1865 9.83706L91.1867 9.83691C91.2475 9.77804 91.3076 9.72365 91.367 9.67373L91.2201 9.81022C91.5558 9.46561 91.9542 9.21478 92.4153 9.05772C93.5245 8.67983 94.7738 9.16033 95.2057 10.1309C95.6375 11.1015 95.0884 12.1946 93.9791 12.5725Z" fill="black"/>
<path d="M95.7893 23.5047C95.7988 23.497 95.806 23.4908 95.8107 23.4861L95.8105 23.4863C95.7949 23.5017 95.7727 23.5287 95.7438 23.5674C95.7392 23.5735 95.7348 23.5794 95.7301 23.5855L95.7295 23.5863C95.7309 23.5845 95.7316 23.5836 95.7316 23.5835L95.7315 23.5837C95.6783 23.6548 95.57 23.8238 95.4067 24.0906C94.8445 25.0087 93.5382 25.3542 92.4889 24.8623C91.4397 24.3704 91.0448 23.2274 91.607 22.3093C91.8295 21.9459 92.0017 21.6827 92.1235 21.5196L92.1234 21.5198C92.1314 21.5091 92.1397 21.4981 92.1485 21.4866L92.1342 21.5055C92.2803 21.3097 92.4324 21.1341 92.5904 20.9787L92.5903 20.9789C92.6786 20.892 92.7692 20.811 92.8621 20.7358C93.7359 20.0286 95.0996 20.0751 95.9079 20.8397C96.7162 21.6043 96.6631 22.7975 95.7893 23.5047Z" fill="black"/>
<path d="M99.1979 25.405C99.1119 25.4474 99.0195 25.5102 98.9207 25.5933C98.9156 25.5976 98.9106 25.6018 98.9054 25.6061L98.9052 25.6063C98.909 25.6031 98.9119 25.6006 98.914 25.5987L98.9142 25.5985C98.8766 25.6328 98.8199 25.6987 98.7442 25.7961C98.075 26.6575 96.7345 26.8811 95.75 26.2956C94.7656 25.71 94.51 24.5371 95.1792 23.6757C95.3915 23.4024 95.6006 23.172 95.8065 22.9846L95.8068 22.9844C95.8537 22.9417 95.9007 22.901 95.9478 22.8621L95.9323 22.875C96.2939 22.5706 96.6767 22.3188 97.0806 22.1195C98.1175 21.6079 99.4321 21.9286 100.017 22.8359C100.601 23.7432 100.235 24.8934 99.1979 25.405Z" fill="black"/>
<path d="M86.6059 24.9395V24.9396C86.8981 25.0207 87.1287 25.1508 87.2976 25.3295V25.3296C87.1096 25.1507 86.8715 25.0158 86.6047 24.9393L86.6059 24.9395ZM76.7641 25.8564V25.8565C76.7453 25.8828 76.7265 25.9097 76.7075 25.9368C76.6442 26.0268 76.5926 26.1227 76.5535 26.2227V26.2228C76.6089 26.0809 76.6787 25.9587 76.763 25.8563L76.7641 25.8564ZM82.3798 22.4383V22.4384V22.4386C81.6805 22.4301 80.953 22.514 80.1975 22.69C80.185 22.6929 80.1726 22.696 80.1602 22.6991C79.9501 22.7528 79.7386 22.8378 79.5258 22.9542L79.5257 22.9542C79.1912 23.1371 78.8013 23.4316 78.3562 23.8376L78.3551 23.8377C78.2826 23.8964 78.2117 23.9622 78.1423 24.0351L78.1422 24.0351C77.911 24.2778 77.4879 24.8335 76.8728 25.7024L76.8716 25.7025C76.843 25.7156 76.8113 25.7299 76.7766 25.7455L76.7766 25.7456C75.9742 26.1048 75.6566 26.9652 76.0672 27.6673C76.3525 28.155 76.9141 28.4381 77.4995 28.4449C77.7568 28.448 77.7067 28.342 77.4694 28.464C76.8584 28.778 78.3901 28.53 78.5397 28.4424L78.0026 28.6105C77.0139 29.4275 78.3791 28.6401 78.3931 28.6315L78.3625 28.4864C77.7509 29.481 77.4422 30.4011 78.7813 30.034L79.3014 30.3536C78.188 31.3294 77.2025 31.0422 78.6636 30.1909L78.6722 30.1857C78.5178 30.3839 77.9879 31.0107 79.0394 30.6163L78.6873 30.7762C78.522 31.053 77.1887 31.4293 78.6352 31.1294L80.0806 30.4905C79.9535 30.5242 79.8305 30.5717 79.7148 30.6325C78.7746 31.1263 78.5513 31.8669 79.045 32.8541L79.045 32.8542C79.1013 32.9667 79.1702 33.0845 79.2518 33.2073L79.2518 33.2074C79.2694 33.2339 79.2881 33.2601 79.3077 33.2856C79.6122 33.683 80.0475 33.9424 80.6136 34.0639L80.6127 34.064L82.4323 34.4837C82.4822 34.4952 82.5326 34.5046 82.5835 34.512C82.7455 34.5353 82.9076 34.5481 83.0696 34.5503L83.0695 34.5505C83.0722 34.5504 83.075 34.5504 83.0777 34.5504C83.3076 34.5531 83.5353 34.5347 83.7608 34.495L83.761 34.495C84.0644 34.4416 84.3587 34.351 84.6438 34.2231L84.6426 34.2232C86.6689 33.4621 88.0014 32.1384 88.6403 30.2519L88.639 30.252C89.0956 29.2408 89.1338 28.1005 88.7538 26.831C88.7407 26.7873 88.7252 26.7442 88.7074 26.7017C88.5721 26.3784 88.3658 26.105 88.0885 25.8814C88.0055 25.8144 87.9147 25.7551 87.8177 25.7046C87.638 25.6108 87.512 25.5373 87.4398 25.4838L87.4386 25.4839C87.4105 25.4482 87.3806 25.4139 87.3491 25.3809L87.3479 25.381C87.2377 25.2178 87.0203 24.8516 86.6957 24.2823C86.6683 24.2344 86.638 24.1879 86.6047 24.143C86.3623 23.8159 86.0531 23.5274 85.6771 23.2776C85.6174 23.2379 85.5545 23.2019 85.4892 23.1698C84.5231 22.6951 83.4867 22.4513 82.3798 22.4383Z" fill="black"/>
<path d="M80.8085 34.739C80.9355 34.2883 81.2126 33.8696 81.6396 33.4829L81.6403 33.4822C81.6535 33.4703 81.6675 33.4578 81.6824 33.4447C81.7081 33.4221 81.7344 33.4001 81.7614 33.3786L81.7556 33.3832L81.7568 33.3822L81.7626 33.3776C82.2078 33.0233 82.5262 32.7819 82.7178 32.6535L82.7176 32.6536C83.8366 31.9032 84.8443 31.9585 85.7407 32.8192L85.7441 32.8224C85.9533 33.0243 86.1056 33.255 86.2008 33.5146L82.9667 32.514C83.8979 31.9797 84.88 32.0414 85.9132 32.699L85.9133 32.6991C86.1009 32.8186 86.2991 32.9655 86.5078 33.14C86.5606 33.1842 86.6108 33.2307 86.6582 33.2793L86.6582 33.2793C87.0289 33.6594 87.3121 34.0236 87.5078 34.372L87.5079 34.3721C87.8244 34.9355 87.9372 35.4887 87.8463 36.0315L87.8666 35.6674C87.886 36.0203 87.8173 36.3884 87.6604 36.7719L87.6605 36.7718C87.5683 36.9971 87.4424 37.2361 87.2828 37.4887C87.2679 37.5121 87.2526 37.5352 87.2367 37.5581C87.1605 37.6674 87.0825 37.7694 87.0028 37.8641L87.0029 37.864C86.6009 38.3421 86.1262 38.6656 85.5791 38.8345L86.0711 38.6173C85.7034 38.8353 85.2604 38.9744 84.7421 39.0345H84.742C84.3442 39.0806 83.8563 39.0846 83.2782 39.0466C83.2462 39.0444 83.214 39.0417 83.1821 39.0383L83.1819 39.0383C83.1399 39.0338 83.0987 39.029 83.0583 39.0237L83.0589 39.0237C82.1737 38.908 81.4673 38.5811 80.9398 38.0428C80.9207 38.0233 80.9022 38.0037 80.8841 37.9836C80.1343 37.1524 79.9877 36.2495 80.4443 35.2749L80.3174 35.6559C80.3937 35.2851 80.5759 34.9199 80.864 34.5603L80.864 34.5603C80.9211 34.4891 80.9829 34.4172 81.0494 34.3446C81.0908 34.2995 81.1346 34.256 81.1806 34.2144C81.5601 33.8709 82.0101 33.6411 82.5306 33.525C83.684 33.2677 84.8575 33.8772 85.1516 34.8865C85.4456 35.8957 84.749 36.9226 83.5955 37.1799C83.8648 37.1198 84.0929 37.0051 84.2799 36.8359L84.4111 36.7057C84.4032 36.7143 84.3975 36.7207 84.394 36.7251L84.394 36.7251C84.4687 36.6318 84.524 36.4983 84.5598 36.3248C84.5329 36.4553 84.4903 36.583 84.4328 36.7058C84.6129 36.3214 84.5579 35.9684 84.2677 35.6467L84.212 35.5875C84.0422 35.4142 83.8701 35.3161 83.6958 35.2934L83.6964 35.2934C83.6972 35.2935 83.6978 35.2936 83.6983 35.2936L83.6019 35.2854C83.8825 35.3038 84.0737 35.3072 84.1757 35.2954H84.1756C84.0213 35.3132 83.8471 35.3797 83.653 35.4948C83.8057 35.4043 83.9711 35.3313 84.1451 35.2775C83.8579 35.3662 83.6532 35.4832 83.5308 35.6287L83.5309 35.6286C83.5368 35.6216 83.5454 35.61 83.5567 35.5938L83.5106 35.6632C83.5576 35.5888 83.588 35.5348 83.6018 35.5012L83.6018 35.5011C83.5665 35.5874 83.5529 35.7033 83.5609 35.8487C83.5542 35.7271 83.561 35.6052 83.5811 35.4847C83.5426 35.7146 83.562 35.8983 83.6392 36.0358L83.6392 36.0358C83.6026 35.9706 83.5159 35.8679 83.3793 35.7278L83.5297 35.867C83.46 35.8087 83.4091 35.7694 83.3771 35.749L83.3773 35.7491C83.95 36.1137 84.601 36.0867 85.3305 35.6682C84.7677 35.9911 84.0647 36.0654 83.4301 35.8691C82.7955 35.6728 82.3022 35.2283 82.0964 34.6675C82.1912 34.9258 82.3428 35.1555 82.5511 35.3565L82.5545 35.3597C83.4356 36.2058 84.364 36.3017 85.3397 35.6474L85.3395 35.6475C85.2441 35.7115 85.0185 35.885 84.6629 36.168L84.6687 36.1634L84.6675 36.1643L84.7408 36.1027C84.7408 36.1027 84.7402 36.1033 84.739 36.1044L84.7397 36.1037C84.8507 36.0031 84.9354 35.8493 84.9938 35.6421C84.7088 36.6533 83.5408 37.2709 82.3851 37.0216C81.2294 36.7722 80.5235 35.7503 80.8085 34.739Z" fill="black"/>
<path d="M21.0131 93.5208C20.4482 93.9195 19.4771 94.785 18.0999 96.1172C17.3014 96.8897 15.9385 96.9494 15.0557 96.2507C14.1729 95.552 14.1046 94.3595 14.9031 93.587C16.4316 92.1084 17.5661 91.1078 18.3067 90.5851C19.2331 89.9312 20.5901 90.0582 21.3374 90.8689C22.0848 91.6795 21.9396 92.8668 21.0131 93.5208Z" fill="black"/>
<path d="M22.5064 96.2241L22.5067 96.2241C23.0232 96.1084 23.406 95.8853 23.6551 95.5549L23.6551 95.5548C23.5351 95.714 23.2544 96.1809 22.8131 96.9552C22.2819 97.8873 20.9877 98.2661 19.9225 97.8013C18.8572 97.3365 18.4243 96.2041 18.9555 95.272C19.4741 94.3621 19.8411 93.7641 20.0566 93.4782L20.0567 93.4781C20.4187 92.9979 20.8791 92.6952 21.4378 92.5701C22.5913 92.3119 23.7653 92.9206 24.0603 93.9297C24.3553 94.9387 23.6596 95.966 22.5064 96.2241Z" fill="black"/>
<path d="M24.117 106.692L24.1169 106.692C24.1968 106.648 24.2588 106.608 24.3032 106.572C24.1611 106.688 23.8612 106.998 23.4034 107.504C22.6642 108.32 21.3085 108.458 20.3755 107.811C19.4425 107.164 19.2854 105.978 20.0246 105.161C20.6182 104.506 21.0663 104.055 21.3688 103.809L21.3688 103.809C21.5258 103.681 21.6812 103.576 21.8347 103.492C22.8444 102.94 24.174 103.21 24.8042 104.093C25.4345 104.977 25.1268 106.14 24.117 106.692Z" fill="black"/>
<path d="M28.2758 107.943L28.2945 107.924L28.2943 107.924L28.2756 107.943C28.1125 108.109 27.9701 108.288 27.8484 108.479C27.2694 109.389 25.9569 109.716 24.9168 109.21C23.8768 108.703 23.5031 107.555 24.0822 106.645C24.3449 106.232 24.6523 105.846 25.0043 105.487L24.9856 105.506L24.9858 105.506C25.7797 104.696 27.1404 104.605 28.0438 105.284C28.9471 105.962 29.051 107.152 28.2758 107.943Z" fill="black"/>
<path d="M34.7543 85.5771L34.7543 85.577C34.914 85.7381 35.0714 85.835 35.2264 85.8679L35.2263 85.8679C35.0763 85.8361 34.7909 85.8404 34.3701 85.8809L34.5698 85.8533C33.8469 85.9837 32.8942 86.2629 31.7117 86.6909C31.7045 86.6935 31.6977 86.6959 31.6905 86.6984L31.517 86.7519L31.5168 86.752L31.6905 86.6984C31.4832 86.7712 31.2281 86.8973 30.9252 87.0766L31.1506 86.9231C30.5776 87.3695 30.4533 88.0425 30.7779 88.9421L30.7743 88.9321C30.928 89.3502 31.3909 89.8279 32.1629 90.3653L32.0086 90.2673C33.1072 90.9019 33.8446 91.2475 34.221 91.3042H34.2212C34.1436 91.2925 34.0413 91.2977 33.9142 91.3197L33.7615 91.3512C34.2614 91.231 34.5923 91.1362 34.7543 91.0666L34.4585 91.2204L35.9948 90.2686L35.9776 90.2794C35.9737 90.2819 35.9708 90.2838 35.969 90.285L35.9686 90.2853C36.168 90.1467 36.5116 89.7754 36.9993 89.1713L36.8857 89.3278C36.7839 89.4845 36.7548 89.6804 36.7984 89.9153L36.8489 90.1169L36.8488 90.1166L36.8397 90.0869C36.5634 89.1562 36.3989 88.5144 36.3461 88.1615C36.2999 87.8523 36.342 87.538 36.4686 87.2465L36.4686 87.2466C35.9737 88.3856 36.379 89.1722 37.6844 89.6065C38.018 89.7174 38.3167 89.7506 38.5804 89.7059L38.5807 89.7059C38.5269 89.715 38.4301 89.7388 38.2902 89.7773C37.1546 90.0896 35.9447 89.5373 35.5878 88.5437C35.2308 87.55 35.862 86.4914 36.9976 86.179C37.293 86.0978 37.5474 86.0391 37.7609 86.0029L37.7612 86.0029C38.3004 85.9115 38.7855 85.9376 39.2163 86.0809C40.597 86.5402 41.0242 87.3755 40.4979 88.5868L40.6203 87.672C40.65 87.8703 40.7805 88.3593 41.0119 89.1388L41.0028 89.1093L41.003 89.1096C41.0289 89.1959 41.0427 89.2533 41.0534 89.3112C41.172 89.9508 41.0321 90.5774 40.6337 91.191C40.5987 91.2448 40.5608 91.297 40.52 91.3476C39.7948 92.2459 39.1713 92.8763 38.6495 93.2389L38.6491 93.2392C38.6004 93.2731 38.5517 93.3054 38.5029 93.3362C38.4974 93.3397 38.4915 93.3434 38.4857 93.347L36.9494 94.2988C36.8556 94.3569 36.7567 94.4083 36.6536 94.4526C36.2481 94.6267 35.6647 94.8053 34.9034 94.9883C34.853 95.0004 34.8021 95.0109 34.7508 95.0198C34.3565 95.088 33.9362 95.0886 33.49 95.0214H33.4901C32.5203 94.8754 31.2348 94.3399 29.6337 93.4151C29.5807 93.3844 29.5291 93.3517 29.4794 93.3171C28.0271 92.3062 27.0909 91.2297 26.6708 90.0876L26.6672 90.0776C25.7824 87.6253 26.3215 85.6347 28.2846 84.1058C28.3558 84.0504 28.431 83.9991 28.51 83.9524C29.0675 83.6224 29.5924 83.371 30.0847 83.1981L30.2584 83.1445L30.2586 83.1444L30.064 83.2055C31.4982 82.6864 32.7101 82.3376 33.6997 82.1591C33.7657 82.1472 33.8323 82.138 33.8993 82.1316C34.8214 82.043 35.6024 82.0666 36.2424 82.2024L36.2423 82.2023C36.979 82.3587 37.5683 82.6595 38.01 83.1049C38.7902 83.8915 38.6938 85.0826 37.7948 85.7653C36.8958 86.448 35.5345 86.3637 34.7543 85.5771Z" fill="black"/>
<path d="M29.7235 86.4449L29.7232 86.4448C29.773 86.4584 29.8131 86.4673 29.8436 86.4716L29.844 86.4717C29.7033 86.4518 29.4058 86.4439 28.9516 86.4479C28.8616 86.4488 28.7717 86.4446 28.6823 86.4356H28.6822C27.9824 86.3648 27.3608 86.0589 26.8175 85.5178L26.8181 85.5185C26.7998 85.5002 26.7813 85.4815 26.7628 85.4623C26.7496 85.4487 26.7367 85.4349 26.7239 85.4209C26.2624 84.915 25.9306 84.4809 25.7288 84.1187L25.7289 84.1189C25.6418 83.9627 25.5722 83.8101 25.5202 83.661C25.5161 83.6495 25.5122 83.6378 25.5084 83.6262C25.2732 82.9033 25.1711 82.2724 25.2022 81.7334C25.2077 81.639 25.2171 81.5466 25.2304 81.4562C25.243 81.3713 25.2621 81.2871 25.2877 81.2045C25.4063 80.8217 25.6284 80.4562 25.9541 80.1079L25.9542 80.1078C26.4222 79.6074 27.1726 79.0907 28.2052 78.5578C28.3604 78.4776 28.5265 78.4149 28.6996 78.371C29.638 78.1327 30.8146 78.1389 32.2292 78.3896C32.2484 78.393 32.2671 78.3965 32.2862 78.4004C33.3728 78.6199 34.0749 79.1829 34.3923 80.0893L34.059 79.514C34.328 79.8294 34.4828 80.2181 34.5235 80.6802C34.5435 80.9076 34.5448 81.2297 34.5274 81.6464L34.5288 81.5681C34.5294 81.6688 34.5237 81.7746 34.5117 81.8853L34.5117 81.8852C34.4966 82.0257 34.4706 82.1802 34.4338 82.3485C34.4289 82.3713 34.4234 82.394 34.4175 82.4166C34.3334 82.7365 34.2172 83.2591 34.0688 83.9844L34.0886 83.8662L33.9947 84.5855L33.9964 84.5718C33.9858 84.6588 33.9672 84.7536 33.9407 84.8565L33.9406 84.8566C33.9055 84.9926 33.8376 85.213 33.7368 85.5179C33.406 86.5185 32.211 87.095 31.0675 86.8056C29.924 86.5163 29.2651 85.4705 29.5958 84.47C29.6729 84.2367 29.7197 84.0884 29.736 84.0252L29.736 84.0252C29.7258 84.0645 29.7172 84.1131 29.7102 84.1709L29.7119 84.1573L29.8059 83.438C29.811 83.3984 29.8176 83.3589 29.8257 83.3197C29.9864 82.5342 30.1166 81.9516 30.2163 81.5719L30.1999 81.6401C30.211 81.5891 30.2178 81.5527 30.2202 81.5309L30.2202 81.5308C30.2187 81.5443 30.2181 81.5629 30.2182 81.5868C30.2181 81.5607 30.2185 81.5346 30.2196 81.5085C30.2311 81.2346 30.2331 81.055 30.2255 80.9697C30.2488 81.2344 30.3751 81.5011 30.6043 81.7698C30.4561 81.5961 30.3434 81.4015 30.2709 81.1945C30.4392 81.675 30.7877 81.9687 31.3165 82.0755L31.3736 82.0863C30.6516 81.9584 30.1606 81.9274 29.9008 81.9933L30.3952 81.8066C29.8028 82.1123 29.4344 82.3423 29.2901 82.4966L29.2902 82.4965C29.3534 82.4289 29.4061 82.3271 29.4483 82.1911L29.5056 81.9393C29.5066 81.9325 29.5072 81.9272 29.5074 81.9236C29.5003 82.0472 29.5492 82.2705 29.6543 82.5933L29.6425 82.5585C29.6284 82.5182 29.6153 82.4871 29.6032 82.4654L29.6033 82.4655C29.666 82.5781 29.8292 82.7788 30.0928 83.0678L30.054 83.0264C30.0543 83.0268 30.0547 83.0272 30.0552 83.0276L30.0558 83.0283C29.869 82.8422 29.5761 82.7291 29.1771 82.6887L28.9078 82.6763C29.6072 82.6701 30.1482 82.694 30.5306 82.748L30.531 82.7481C30.7015 82.7722 30.859 82.8039 31.0037 82.8433C32.14 83.1524 32.775 84.2093 32.4216 85.2039C32.0682 86.1986 30.8602 86.7541 29.7235 86.4449Z" fill="black"/>
<path d="M32.4701 83.4359L32.4978 83.4234L32.4971 83.4238L32.4693 83.4362C31.5956 83.8214 30.9465 84.0709 30.522 84.1847C30.3004 84.2442 30.0917 84.2819 29.8959 84.298L30.1877 84.2563C29.513 84.395 28.8999 84.3555 28.3483 84.1377L28.3733 84.1474C26.9714 83.6125 26.5552 82.7268 27.1247 81.4904L27.0988 81.5496C27.1949 81.3188 27.3345 81.0889 27.5177 80.86L27.5176 80.8601C27.7566 80.5614 28.0941 80.2369 28.5303 79.8865L28.4723 79.9349C29.6698 78.8989 30.8299 78.8776 31.9528 79.8712L31.9533 79.8717C32.0552 79.9619 32.1483 80.0602 32.2327 80.1666L32.2382 80.1736C32.5009 80.508 32.6444 80.9058 32.6689 81.3671C32.672 81.4256 32.672 81.4842 32.6689 81.5427L32.6321 82.2324L32.6326 82.0669L32.6783 83.0398C32.6793 83.0621 32.6799 83.0843 32.68 83.1066C32.6821 83.4253 32.6664 83.7532 32.6328 84.0905L32.64 83.9813C32.6405 83.968 32.6406 83.9573 32.6405 83.9494L32.6405 83.9493C32.6408 83.9711 32.6427 84.0131 32.6463 84.0755C32.7063 85.1157 31.7911 86.0015 30.6022 86.054C29.4134 86.1064 28.4011 85.3056 28.3412 84.2654C28.3347 84.1534 28.331 84.0617 28.3302 83.9903L28.3301 83.9902C28.3296 83.9483 28.33 83.9091 28.3312 83.8727C28.3324 83.8362 28.3348 83.7997 28.3384 83.7634C28.3604 83.5421 28.3708 83.3302 28.3695 83.1279L28.3712 83.1946L28.3256 82.2217C28.323 82.1666 28.3232 82.1114 28.3261 82.0562L28.363 81.3666L28.3629 81.5422C28.3765 81.7973 28.484 82.0531 28.6855 82.3097L28.691 82.3167C28.7487 82.3893 28.814 82.458 28.8871 82.5228L28.8876 82.5232C29.7854 83.3176 30.6572 83.3489 31.5032 82.617C31.4842 82.6334 31.4648 82.6495 31.4452 82.6653C31.2401 82.83 31.1081 82.9492 31.0491 83.023L31.049 83.023C31.0824 82.9813 31.1157 82.9207 31.1488 82.8412C31.1405 82.8611 31.1319 82.8807 31.1228 82.9003C31.5978 81.8692 31.2557 81.1324 30.0965 80.69C30.105 80.6933 30.1129 80.6964 30.1214 80.6998C29.7834 80.5663 29.4767 80.5279 29.2012 80.5845C29.2973 80.5648 29.3947 80.5508 29.4929 80.5427C29.3961 80.5507 29.3181 80.5626 29.2589 80.5785C29.4502 80.5272 29.8738 80.357 30.5298 80.0678L30.5021 80.0802L30.5028 80.0799C31.5936 79.5988 32.8895 79.9729 33.4251 80.9031C33.9607 81.8332 33.5332 82.9672 32.4701 83.4359Z" fill="black"/>
<path d="M36.123 84.3253C36.0401 84.3243 35.9564 84.3289 35.8726 84.3393C34.9084 84.4583 34.1747 84.6338 33.6713 84.8657L33.6714 84.8659C33.5712 84.9119 33.477 84.9602 33.3888 85.0107L33.3881 85.0108C33.2203 85.0345 33.0391 85.06 32.8444 85.0872C32.828 85.0895 32.8112 85.092 32.7949 85.0948C32.4476 85.1529 32.0647 85.2549 31.646 85.4005C31.5798 85.4235 31.5154 85.4503 31.4532 85.4807C30.8348 85.7828 30.3769 86.0556 30.0796 86.299L30.0796 86.2992C29.6163 86.6783 29.3777 87.1033 29.3638 87.5741L29.3637 87.5742C29.3543 87.8333 29.3687 88.0786 29.4068 88.31L29.4062 88.3101C29.0669 88.609 28.9555 89.031 29.0721 89.5762V89.5763C29.179 90.0763 29.4977 90.4302 30.028 90.6379L30.0274 90.638C29.8709 91.3147 30.2239 91.9073 31.0865 92.416L31.0865 92.416C31.178 92.4699 31.2763 92.5219 31.3814 92.5721L31.3814 92.5722C31.4126 92.587 31.4443 92.6009 31.4765 92.614C32.2608 92.9321 33.0149 93.0954 33.7388 93.104C33.9216 93.1061 34.1026 93.0984 34.2815 93.0808L34.2808 93.0809C34.5291 93.06 34.7579 93.0142 34.967 92.9435L34.9671 92.9435C35.6864 92.7004 36.1169 92.3379 36.2585 91.856L36.2578 91.8561C36.332 91.8179 36.4041 91.774 36.4739 91.7244L36.4739 91.7245C36.5345 91.6814 36.5913 91.6379 36.6441 91.5941L36.6433 91.5942C36.6668 91.5849 36.6901 91.5751 36.7132 91.565L36.7132 91.565C37.2205 91.3412 37.5357 91.0601 37.6587 90.7216L37.658 90.7217C37.9968 90.5661 38.276 90.3258 38.4957 90.0007C38.6012 89.8445 38.6718 89.6722 38.7036 89.493C38.8043 88.9252 38.6962 88.4308 38.3793 88.0098L38.3786 88.01C38.4768 87.8232 38.5302 87.6153 38.5274 87.3972C38.521 86.8978 38.2212 86.4578 37.7688 86.2067L37.7681 86.2068C37.8951 85.8409 37.8003 85.4369 37.4835 84.9948L37.4835 84.9949C37.1864 84.58 36.6712 84.3318 36.123 84.3253Z" fill="black"/>
<path d="M79.1554 103.858L80.0053 104.498C80.0174 104.507 80.0294 104.516 80.0413 104.525C80.1816 104.636 80.4045 104.822 80.71 105.084C81.5594 105.814 81.572 107.008 80.7382 107.751C79.9042 108.495 78.5396 108.506 77.6902 107.776C77.4296 107.552 77.2528 107.404 77.1597 107.331L77.1957 107.358L76.3458 106.719C75.443 106.04 75.3401 104.85 76.116 104.06C76.8918 103.27 78.2526 103.18 79.1554 103.858Z" fill="black"/>
<path d="M82.9345 102.461L82.9356 102.462C82.9806 102.478 83.0288 102.496 83.0804 102.518L83.0823 102.518C83.1055 102.528 83.1311 102.539 83.159 102.551C83.1698 102.555 83.1799 102.559 83.1906 102.564L83.2029 102.57C83.2307 102.582 83.2581 102.595 83.2852 102.608C83.3767 102.654 83.6093 102.757 83.9829 102.918C85.0507 103.378 85.49 104.509 84.964 105.443C84.4381 106.377 83.146 106.762 82.0782 106.301C81.6311 106.109 81.3264 105.972 81.164 105.892L81.2462 105.931L81.2339 105.925L81.2654 105.939C81.2606 105.937 81.2562 105.935 81.2523 105.933L81.2541 105.934C81.264 105.938 81.277 105.943 81.2932 105.949C80.1935 105.553 79.6683 104.451 80.1212 103.488C80.5741 102.524 81.8337 102.065 82.9345 102.461Z" fill="black"/>
<path d="M98.6216 101.128L98.6217 101.128C98.6084 101.104 98.5972 101.084 98.5878 101.07L98.588 101.07C98.6601 101.181 98.8694 101.452 99.2158 101.883C99.2309 101.902 99.2455 101.921 99.2597 101.94L99.3157 102.019L99.3159 102.02L99.2598 101.94C99.3276 102.031 99.3887 102.12 99.443 102.206L99.4429 102.205C99.4744 102.255 99.5038 102.304 99.5312 102.353C100.058 103.287 99.6189 104.418 98.5513 104.879C97.4836 105.339 96.1914 104.955 95.665 104.021C95.6678 104.026 95.67 104.03 95.6716 104.032L95.6714 104.032C95.6666 104.024 95.6582 104.013 95.6461 103.996L95.59 103.917L95.5898 103.916L95.6897 104.053C95.2641 103.523 94.9811 103.15 94.8409 102.935L94.8411 102.935C94.7969 102.867 94.7583 102.802 94.7253 102.741C94.2161 101.8 94.6754 100.676 95.7513 100.23C96.8272 99.7845 98.1122 100.186 98.6216 101.128Z" fill="black"/>
<path d="M95.3003 102.241C95.3264 102.436 95.5702 104.105 95.6074 104.312L95.6074 104.312C95.6089 104.32 95.6052 104.299 95.5982 104.267C95.8266 105.289 95.0647 106.28 93.8965 106.48C92.7282 106.68 91.596 106.013 91.3676 104.991C91.3582 104.949 91.3516 104.912 91.3492 104.899L91.3492 104.899C91.2972 104.61 91.0451 102.876 91.0186 102.677C90.8809 101.643 91.7277 100.706 92.91 100.586C94.0924 100.465 95.1626 101.206 95.3003 102.241Z" fill="black"/>
<path d="M74.8362 96.1981C75.4446 95.6086 75.5299 94.9955 75.0922 94.3589L74.9552 94.1829L75.4406 94.7364C75.529 94.8372 75.6056 94.9456 75.6691 95.0599C75.9497 95.5647 76.1818 95.912 76.3654 96.1018C76.384 96.121 76.4021 96.1404 76.4198 96.1603L76.4198 96.1602C76.7815 96.5657 77.0558 96.807 77.2427 96.8841L77.2426 96.884C77.2211 96.8752 77.1897 96.8672 77.1482 96.8602C77.2853 96.8835 77.4195 96.9183 77.5489 96.9642L77.5489 96.9642C77.4648 96.9344 77.3963 96.9171 77.3431 96.9125H77.3432C77.7053 96.9441 78.4814 96.7996 79.6715 96.4791L79.6495 96.4851C80.0358 96.3771 80.6549 96.0239 81.5068 95.4253C82.3972 94.7997 83.6908 94.8904 84.4561 95.6321L84.4566 95.6326C83.508 94.7126 82.5339 94.6475 81.5341 95.4374L81.5348 95.4368C81.5263 95.4435 81.5199 95.4488 81.5153 95.4527L81.5156 95.4525C81.746 95.2535 82.3679 94.5697 83.3814 93.4011L83.14 93.7535C83.4158 93.2285 83.5732 92.6831 83.6124 92.1173L83.6381 92.5428C83.4969 91.8051 83.2385 91.2801 82.8631 90.9678C82.7763 90.8956 82.6965 90.8172 82.6246 90.7334C82.4349 90.5124 82.2864 90.38 82.179 90.3362C82.2288 90.3566 82.2862 90.3613 82.3513 90.3506C81.1815 90.5435 80.0545 89.87 79.8342 88.8465C79.6138 87.8229 80.3834 86.8368 81.5532 86.644C82.3968 86.505 83.2127 86.5962 84.0008 86.9178C84.7598 87.2275 85.45 87.7444 86.0714 88.4683L85.8329 88.2339C86.9042 89.1249 87.5898 90.3536 87.8895 91.9198C87.9164 92.0603 87.925 92.203 87.9152 92.3452C87.8435 93.3812 87.5574 94.3757 87.0567 95.3287C86.9912 95.4535 86.9102 95.5718 86.8153 95.6812C85.6776 96.993 84.9204 97.8116 84.5435 98.137L84.5437 98.1369C84.5024 98.1726 84.4619 98.2061 84.4223 98.2374L84.4229 98.2369C83.2888 99.1329 82.2331 99.107 81.2559 98.1592L84.2057 98.3664C82.9376 99.2574 81.8562 99.8279 80.9616 100.078C80.9547 100.08 80.9466 100.082 80.9396 100.084C79.1957 100.554 77.8543 100.748 76.9154 100.666H76.9155C76.5567 100.634 76.2276 100.566 75.9281 100.459L76.3287 100.563C76.017 100.51 75.7092 100.421 75.4052 100.296L75.4051 100.296C74.599 99.9636 73.8045 99.3586 73.0217 98.481L73.076 98.5395C72.6589 98.1085 72.231 97.4985 71.7924 96.7093L72.0209 97.0328L71.5355 96.4793C71.4861 96.423 71.4403 96.3641 71.3985 96.3034C70.7376 95.3422 70.8171 94.4645 71.6369 93.6702C72.4347 92.8972 73.7977 92.8364 74.6811 93.5345C75.5645 94.2326 75.634 95.4251 74.8362 96.1981Z" fill="black"/>
<path d="M77.9512 98.7812C76.9466 98.6221 75.9349 98.3758 75.1461 97.9312L75.1459 97.9311C74.852 97.7654 74.5454 97.5482 74.2807 97.2622C74.0966 97.0634 73.9607 96.8338 73.8812 96.5875L73.8812 96.5874C73.2872 94.7457 75.3446 94.0915 75.6263 94.0219L75.626 94.022C75.7699 93.9865 75.9066 93.962 76.0313 93.9441L76.0312 93.9441C76.321 93.9025 76.626 93.8859 76.9112 93.8802L76.9889 93.8799H76.9891L76.9115 93.8802C77.6458 93.8657 78.619 94.009 79.5743 94.1562H79.5743C79.6013 94.1603 79.6156 94.1616 79.6164 94.1617H79.6166C81.3837 94.3147 78.0288 93.5085 77.5908 95.6945L77.5927 95.6852C77.535 95.9649 77.5531 96.2387 77.6264 96.4878L78.8334 97.7387C78.2158 97.497 77.3971 97.2714 76.4631 97.0173C75.713 96.8133 74.8148 96.5722 74.1366 96.3067L74.1368 96.3068C73.9336 96.2273 73.7109 96.1307 73.4952 96.0149L74.6227 94.4076L73.4954 96.015C73.2617 95.8895 72.1478 95.2983 72.0894 94.0987C72.0646 93.5913 72.2749 93.0966 72.6724 92.7266C73.07 92.3566 73.6214 92.1425 74.2017 92.1328C75.2394 92.1155 79.4529 92.1604 81.3948 93.1011L81.3933 93.1003C81.428 93.1171 81.4641 93.1352 81.4995 93.1535L81.4996 93.1535C81.706 93.2604 81.9132 93.3806 82.109 93.5171L82.1093 93.5173C82.4257 93.7381 83.5266 94.5635 83.2196 95.8703C83.1818 96.0311 83.1202 96.187 83.0363 96.3338C82.3274 97.5745 80.8407 97.8507 79.6783 97.6073H79.6782C78.7513 97.4131 77.9046 96.8846 77.4831 96.06C76.8319 94.786 77.7599 93.7196 78.6804 93.3593L78.6808 93.3592C79.1086 93.1918 79.527 93.152 79.7811 93.1387H79.7804C79.8297 93.1361 79.8832 93.1342 79.931 93.133L80.0179 93.1326H80.0184L79.9324 93.1331C80.5401 93.119 81.1247 93.1572 81.6747 93.2588C82.1088 93.3389 82.6779 93.4802 83.3531 93.672L83.3672 93.676C83.3833 93.6807 83.3589 93.6736 83.375 93.6783L83.3586 93.6736C81.9884 93.2828 85.7897 93.8537 84.936 96.1534L84.9363 96.1525C84.902 96.2449 84.8616 96.3301 84.8177 96.4081C84.5011 96.9702 83.886 97.358 83.1763 97.4429C82.4667 97.5278 81.7552 97.2987 81.2777 96.8316L81.2778 96.8316C81.039 96.598 80.857 96.3438 80.7175 96.0962L80.7175 96.0963C80.4659 95.65 80.3121 95.1543 80.2217 94.653L80.2217 94.6531C80.0262 93.5693 80.7926 92.8567 81.2987 92.5662L81.2989 92.5661C81.9922 92.1684 82.8201 92.2377 82.7143 92.2364H82.7136C82.8418 92.2379 82.9733 92.2446 83.0889 92.2518L83.091 92.252C82.9603 92.2437 80.9502 92.2337 80.8075 93.9897L80.8075 93.989C80.7181 95.083 81.6575 95.6201 81.7311 95.6636L81.7314 95.6638C81.3342 95.4289 81.1262 95.3494 81.0904 95.3378L81.0903 95.3378C81.0656 95.3297 81.173 95.3692 81.3689 95.384L81.3684 95.3839C81.3519 95.3827 81.3434 95.3826 81.3438 95.3826H81.3441C81.3689 95.3828 81.7824 95.3641 82.1132 95.0308L82.6013 94.1555C82.7665 93.4154 82.3609 92.2067 80.9122 91.9555L80.9077 91.9548C79.9301 91.7872 79.0834 92.3563 79.5721 92.1121L79.5727 92.1118C79.5786 92.1089 79.6097 92.0928 79.6768 92.0549L79.6547 92.0675L81.4925 90.9989L81.4954 90.9972C81.7758 90.8348 81.8719 90.7669 81.9002 90.7434L81.9004 90.7432C81.9011 90.7427 81.8934 90.7491 81.8824 90.7598L81.8819 90.7603C81.8979 90.7447 81.9037 90.7384 81.9044 90.7376L81.9042 90.7378C83.0735 89.4668 80.3261 91.6074 82.2685 93.1313L82.2709 93.1332C83.1189 93.7965 84.0807 93.5877 84.2599 93.5447C83.8824 93.6353 83.4837 93.6342 83.1068 93.5415L82.3586 93.3575L84.1598 89.986C84.4147 90.1388 84.674 90.3106 84.9046 90.5011L84.9046 90.5011C84.9606 90.5474 86.6411 91.8634 85.4336 93.4059L85.4357 93.4032C85.3957 93.4545 85.3562 93.5003 85.3182 93.5413C84.5683 94.3502 83.211 94.474 82.2865 93.8179C81.3621 93.1617 81.2205 91.9741 81.9704 91.1652C81.9403 91.1977 81.9082 91.2348 81.875 91.2773L81.8771 91.2746C80.8455 92.5925 82.3723 93.5965 81.9451 93.2435L81.945 93.2434C81.9352 93.2354 81.8725 93.1869 81.7239 93.0979C80.8534 92.5761 80.5425 91.5797 80.9893 90.7433C81.4361 89.907 82.5093 89.4766 83.525 89.7264L84.2732 89.9104L83.1201 89.9072C83.3155 89.8603 84.2887 89.6524 85.1437 90.3211L85.1462 90.323C87.1225 91.8735 84.3 94.1488 85.2621 93.103L85.2619 93.1032C85.2064 93.1635 85.1509 93.2201 85.0917 93.278L85.0912 93.2785C85.0163 93.3515 84.9423 93.4172 84.869 93.4781L84.8693 93.4779C84.5373 93.7538 84.1525 93.9816 83.8753 94.1422L83.8782 94.1405L82.0404 95.2091C82.0329 95.2134 82.0258 95.2174 82.0183 95.2217C81.9172 95.279 81.8143 95.3353 81.7093 95.3877L81.71 95.3874C82.0375 95.2237 81.0924 95.83 80.0789 95.6562L80.0743 95.6554C78.613 95.4021 78.2025 94.1858 78.3705 93.4328C78.4432 93.108 78.6115 92.8065 78.8587 92.5575C79.624 91.7865 80.6255 91.6017 81.404 91.6112H81.4043C81.52 91.6125 81.6326 91.6181 81.7393 91.6261L81.7388 91.6261C82.0785 91.6517 82.3755 91.732 82.5873 91.8007L82.5872 91.8007C83.0672 91.9562 83.5941 92.2129 84.145 92.5386L84.1452 92.5387C84.2461 92.5984 85.1976 93.152 85.1072 94.2579L85.1073 94.2572C84.9635 96.026 82.9381 96.0239 82.7801 96.0139L82.7822 96.0141C82.7005 96.009 82.6616 96.0079 82.6556 96.0079H82.655C82.3336 96.004 83.0259 96.0856 83.6624 95.7205L83.6626 95.7204C83.9881 95.5336 84.6426 94.9679 84.4797 94.065L84.4797 94.0651C84.524 94.3109 84.5771 94.4164 84.5835 94.4278L84.5835 94.4278C84.5854 94.4313 84.5608 94.3855 84.4909 94.3171L80.951 94.7407C80.9086 94.8161 80.8691 94.8992 80.8358 94.9889L80.8361 94.9881C80.0054 97.2258 83.675 97.731 82.0226 97.2597L82.0062 97.2549C81.9845 97.2486 82.0294 97.2617 82.0077 97.2554L82.0218 97.2594C81.4056 97.0844 81.0012 96.9893 80.7847 96.9493C80.6212 96.9191 80.3798 96.8959 80.0464 96.9036L79.9604 96.904H79.9599L80.0467 96.9035C80.0432 96.9036 80.037 96.9039 80.0387 96.9038L80.038 96.9038C79.9909 96.9063 80.1735 96.9069 80.4404 96.8024L80.4407 96.8023C81.1261 96.534 81.9745 95.6085 81.4181 94.52C81.2205 94.1333 80.8732 93.9792 80.6817 93.9391H80.6817C80.4544 93.8915 79.6021 93.9095 79.1806 94.6473L78.9972 95.1108C78.7592 96.1241 79.6337 96.6142 79.4221 96.4666L79.4223 96.4667C79.4186 96.4642 79.3837 96.4407 79.3042 96.3995L79.3043 96.3996C79.3068 96.4009 79.3083 96.4017 79.3085 96.4017L79.307 96.401C78.5764 96.0471 75.6522 95.8811 74.2838 95.904L76.3961 93.938C76.3508 93.008 75.5149 92.674 75.75 92.8002L74.6227 94.4076L75.7502 92.8003C75.7564 92.8037 75.7999 92.8258 75.8967 92.8636L75.8969 92.8637C76.2862 93.0161 76.8948 93.1849 77.7429 93.4156C78.6054 93.6502 79.6939 93.9435 80.5938 94.2957C81.1927 94.5302 81.637 94.9906 81.8008 95.5467C81.8747 95.7976 81.8929 96.0736 81.8348 96.3552L81.8367 96.3459C81.3907 98.5717 77.8265 97.797 79.1922 97.9152H79.1924C79.0745 97.905 78.9522 97.8902 78.8269 97.8709H78.8269C77.736 97.7028 77.2276 97.6468 77.0087 97.6511L76.9311 97.6514H76.9309L77.0086 97.6511C76.8272 97.6547 76.7441 97.664 76.7291 97.6662L76.729 97.6662C76.7264 97.6666 76.7527 97.6629 76.797 97.652L76.7967 97.6521C76.6668 97.6841 78.5535 97.1866 78.0298 95.563L77.6304 94.8882C77.5433 94.7942 77.4754 94.7575 77.4807 94.7605L77.4806 94.7604C77.5452 94.7968 77.8815 94.9371 78.719 95.0697C79.8903 95.2552 80.6679 96.2364 80.4559 97.2614C80.2439 98.2863 79.1225 98.9667 77.9512 98.7812Z" fill="black"/>
<path d="M42.9911 33.8504L42.9912 33.8502C42.992 33.8448 42.9926 33.8406 42.9928 33.8377L42.9928 33.8378C42.9828 33.9431 42.9948 34.2381 43.029 34.723C43.0299 34.737 43.0305 34.7509 43.0307 34.7649V34.7645C43.0306 34.7547 43.0303 34.7467 43.0298 34.7406L43.0298 34.7405C43.0365 34.8277 43.0841 35.1617 43.1728 35.7425C43.1743 35.7522 43.1756 35.7619 43.1766 35.7716C43.1858 35.8528 43.193 35.9342 43.1982 36.0156C43.1988 36.0254 43.1993 36.0351 43.1995 36.045C43.2048 36.2618 43.2125 36.4094 43.2228 36.4876L43.2238 36.4955C43.2361 36.5978 43.259 36.7265 43.2927 36.8815L43.2839 36.8453L43.284 36.8455L43.2919 36.8777C43.3218 37.0119 43.3503 37.1147 43.3772 37.1862L43.3705 37.1689C43.482 37.4444 43.6215 37.8028 43.7891 38.244L43.7743 38.2078C43.9021 38.4995 44.0044 38.6969 44.0811 38.7999C44.373 39.192 44.2464 39.7169 43.7983 39.9723C43.3502 40.2277 42.7504 40.117 42.4584 39.7249C42.307 39.5215 42.1429 39.218 41.9661 38.8145C41.9608 38.8025 41.9559 38.7904 41.9513 38.7783C41.7876 38.3473 41.6522 37.9994 41.5451 37.7348C41.5428 37.7291 41.5405 37.7233 41.5383 37.7176C41.4858 37.5783 41.4367 37.4065 41.3911 37.2021L41.3991 37.2343L41.399 37.2342L41.3902 37.198C41.3465 36.9969 41.3157 36.8217 41.2978 36.6726L41.2988 36.6804C41.2817 36.5501 41.2699 36.3503 41.2634 36.081L41.2647 36.1105C41.261 36.053 41.2559 35.9954 41.2494 35.9377L41.2533 35.9668C41.159 35.3492 41.1071 34.9781 41.0975 34.8536L41.0975 34.8535C41.0957 34.829 41.0946 34.8064 41.0943 34.7857L41.0961 34.8272C41.0561 34.2604 41.0451 33.8835 41.063 33.6965L41.063 33.6965C41.0655 33.6701 41.0686 33.6449 41.0724 33.6209C41.1449 33.1571 41.6332 32.8327 42.163 32.8961C42.6929 32.9595 43.0636 33.3868 42.9911 33.8504Z" fill="black"/>
<path d="M50.6015 32.5588C50.5029 32.9113 50.4341 33.2487 50.3949 33.5708L50.3969 33.5529C50.3904 33.6214 50.387 33.6667 50.3868 33.6887V33.6885C50.3869 33.6847 50.3867 33.6794 50.3863 33.6726L50.3868 33.6823C50.3928 33.8302 50.403 33.9946 50.4175 34.1754L50.4151 34.1509C50.4908 34.8025 50.532 35.1751 50.5384 35.2687L50.5384 35.2683C50.539 35.2771 50.5395 35.2855 50.5399 35.2933L50.5394 35.284C50.576 35.8934 50.5991 36.2376 50.6087 36.3166L50.6086 36.3157C50.6078 36.3086 50.6078 36.3093 50.6089 36.3178C50.6097 36.3243 50.6104 36.331 50.611 36.3376C50.6263 36.5005 50.6467 36.6573 50.6724 36.8078L50.6692 36.7901C50.8089 37.4984 50.921 37.9275 51.0053 38.0773L51.0053 38.0774C51.0015 38.0706 50.9953 38.0616 50.9868 38.0503C51.2612 38.4127 51.148 38.901 50.7339 39.1412C50.3198 39.3812 49.7616 39.2822 49.4872 38.9198C49.4532 38.8749 49.4212 38.8258 49.3912 38.7724L49.3912 38.7724C49.2305 38.4868 49.0656 37.9153 48.8964 37.0579C48.8952 37.052 48.8942 37.0462 48.8932 37.0402C48.8616 36.8551 48.8366 36.6637 48.8181 36.4659L48.8202 36.4858C48.8211 36.493 48.821 36.4924 48.82 36.484L48.8199 36.4831C48.8069 36.3762 48.7812 36.0041 48.7429 35.3667L48.7424 35.3574C48.7426 35.3603 48.7427 35.3626 48.7428 35.3643L48.7428 35.3639C48.7378 35.2916 48.6986 34.9403 48.6254 34.3101C48.6244 34.3019 48.6237 34.2938 48.623 34.2856C48.607 34.0866 48.5957 33.904 48.589 33.738L48.5894 33.7476C48.5882 33.7257 48.5877 33.7024 48.5879 33.6777V33.6775C48.5884 33.6156 48.5938 33.5306 48.6041 33.4224C48.6047 33.4164 48.6053 33.4105 48.6061 33.4045C48.6537 33.0122 48.7364 32.6056 48.8542 32.1846C48.9723 31.7623 49.4592 31.5039 49.9417 31.6072C50.4242 31.7105 50.7196 32.1366 50.6015 32.5588Z" fill="black"/>
<path d="M42.6424 38.6972C42.8317 38.2465 43.0081 37.9227 43.1716 37.7256L43.1715 37.7258C43.2228 37.664 43.2763 37.6091 43.3321 37.5611C43.3368 37.557 43.3414 37.5531 43.3462 37.5491C44.1604 36.8781 44.6255 36.4747 44.7415 36.339L44.7422 36.3381C44.7419 36.3386 44.7413 36.3392 44.7406 36.3401C44.7548 36.3228 44.7698 36.306 44.7856 36.2898C45.4707 35.5846 46.3891 34.5146 47.5406 33.08C47.5598 33.0561 47.5805 33.0332 47.6026 33.0113C47.7544 32.8609 47.8903 32.7446 48.0103 32.6624L48.0104 32.6623C48.2341 32.5091 48.4655 32.4309 48.7047 32.4278C49.2014 32.4214 49.61 32.7686 49.6173 33.2032C49.6245 33.6378 49.2278 33.9953 48.7311 34.0017C48.8958 33.9996 49.0252 33.9662 49.1195 33.9017L49.1196 33.9016C49.0861 33.9246 49.0298 33.9752 48.9508 34.0534L49.0128 33.9847C47.8295 35.4589 46.8773 36.5671 46.1562 37.3093L46.2011 37.2591C46.1947 37.2669 46.1881 37.2748 46.1813 37.2827L46.182 37.2819C46.0036 37.4905 45.4695 37.9615 44.5797 38.6949L44.5938 38.683C44.609 38.67 44.6201 38.6592 44.6273 38.6505L44.6272 38.6506C44.5615 38.7297 44.4628 38.9262 44.3309 39.2402C44.1595 39.6482 43.6426 39.8573 43.1764 39.7074C42.7101 39.5574 42.471 39.1051 42.6424 38.6972Z" fill="black"/>
<path d="M49.5606 39.0725L49.7397 39.0904H49.7396L49.56 39.0724C49.3547 39.0332 49.1624 38.9376 48.9832 38.7854L48.9838 38.7859C48.9731 38.7768 48.9622 38.7674 48.9512 38.7575C48.9082 38.7192 48.8698 38.6772 48.8367 38.6321C48.7391 38.4995 48.6524 38.401 48.5768 38.3366L48.5787 38.3383C48.5081 38.2785 48.4354 38.2262 48.3605 38.1811L48.3858 38.1958L44.7801 36.1799C44.7635 36.1707 44.7473 36.161 44.7315 36.1508C44.5785 36.0523 44.4009 35.9165 44.1986 35.7433C44.1767 35.7246 44.156 35.7049 44.1364 35.6843C43.7307 35.2578 43.4701 35.0052 43.3547 34.9263L43.3548 34.9263C43.3925 34.9521 43.4448 34.9755 43.5119 34.9966C43.4418 34.9745 43.3752 34.945 43.3136 34.9086C43.138 34.8051 43.0125 34.7506 42.9369 34.745C42.9671 34.7472 43.0019 34.7391 43.0414 34.7208C42.6029 34.9251 42.0582 34.7799 41.8246 34.3962C41.591 34.0126 41.757 33.5359 42.1955 33.3315C42.4679 33.2045 42.7652 33.1528 43.0873 33.1765C43.4739 33.2048 43.8845 33.3471 44.319 33.6033L44.1206 33.5154C44.2343 33.5512 44.348 33.6079 44.4616 33.6855L44.4617 33.6855C44.6786 33.8337 45.031 34.1643 45.5191 34.6773L45.4569 34.6183C45.5987 34.7398 45.7122 34.8279 45.7973 34.8827L45.7487 34.8535L49.3544 36.8694C49.3631 36.8742 49.3713 36.879 49.3797 36.8841C49.5371 36.9787 49.6869 37.0863 49.8292 37.2067L49.8312 37.2083C50.0049 37.3562 50.1775 37.5467 50.3492 37.7799L50.2347 37.6546C50.2349 37.6548 50.2352 37.655 50.2354 37.6552L50.236 37.6558C50.1698 37.5995 50.0722 37.5591 49.9434 37.5345L49.7638 37.5165H49.7638C50.4283 37.6268 50.7363 38.046 50.6307 38.4707C50.5251 38.8954 50.046 39.1649 49.5606 39.0725Z" fill="black"/>
<path d="M43.197 45.7608L43.1971 45.7605C43.01 46.1072 43.7386 44.3789 45.3969 45.0638L45.395 45.063C46.4415 45.4939 46.4362 46.7865 46.351 46.2579L46.351 46.2578C46.3847 46.4663 46.4127 46.8402 46.4456 47.2596C46.5126 48.1149 46.6218 49.5088 46.8512 51.4488C47.1395 53.8861 47.4114 55.884 47.6241 57.4458C47.7595 58.4407 47.8729 59.2735 47.9501 59.9266C48.0223 60.5371 48.0726 61.0647 48.0678 61.4433L48.043 61.1783L48.248 62.1981L46.5283 61.0131L46.5309 61.013L46.5151 61.0139C50.9799 60.7312 53.5342 60.4912 54.3854 60.3136C54.4912 60.2915 54.5993 60.2787 54.708 60.2753L60.919 60.0822L60.4264 60.1645C60.2496 60.2197 59.5596 60.5155 59.5121 61.2802V61.2802C59.6194 59.5539 59.6433 58.3349 59.6014 57.5899L59.6117 57.6951L58.8885 52.5649C58.8815 52.5154 58.8775 52.4656 58.8764 52.4158C58.7914 48.4358 58.8156 47.9971 58.8723 47.1452L58.8723 47.1453L58.8778 47.0625L58.8753 47.1706C58.8769 47.2539 58.8975 47.3369 58.91 47.3749L58.9101 47.3752C58.9098 47.3744 58.9081 47.3692 58.9054 47.3614L58.9055 47.3617C58.8309 47.143 58.7674 46.8938 58.758 46.4166C58.7556 46.2929 58.7568 46.1545 58.7618 45.9984C58.7451 46.5178 59.0775 46.8494 59.2641 46.989L60.1295 47.3229C59.161 47.218 58.7081 47.2243 58.1662 47.2512L58.1663 47.2512C57.4831 47.2851 56.8989 47.3123 56.3101 47.3398C55.8398 47.3617 55.3327 47.3854 54.9325 47.4053H54.9324C53.7043 47.4663 52.8121 47.523 52.1755 47.6022C52.1089 47.6105 52.0418 47.6152 51.9745 47.6163L45.8056 47.7159C45.7967 47.7161 45.7877 47.7162 45.7787 47.7162H45.7786C46.417 47.7151 47.2111 47.2355 47.2092 46.4449L47.2092 46.445C47.2088 46.2454 47.1473 46.1306 47.1599 46.1583L47.1599 46.1582C47.262 46.3826 47.8487 47.1409 49.2774 48.5648C50.614 49.8969 52.8687 51.704 56.0478 54.093C56.6866 54.5731 58.4113 56.1576 61.1144 58.6869L61.0209 58.6062L62.2717 59.6032C62.9419 60.1375 62.9903 61.0461 62.3796 61.6326C61.769 62.2191 60.7306 62.2614 60.0603 61.727L58.8096 60.7301C58.7772 60.7042 58.746 60.6773 58.7161 60.6493C55.9262 58.0388 54.3715 56.6206 53.9085 56.2726C50.7402 53.8918 48.3183 51.9638 46.8099 50.4604C45.4674 49.1224 44.4595 47.9905 44.1094 47.2215L44.1094 47.2214C44.0326 47.0525 43.9264 46.7764 43.9256 46.4507L43.9256 46.4508C43.9233 45.4367 44.8564 44.8447 45.7721 44.8431L45.7451 44.8433L51.9139 44.7437L51.7129 44.7578C52.5075 44.6589 53.5309 44.5972 54.7463 44.5368H54.7462C55.1651 44.516 55.6549 44.4932 56.1355 44.4707C56.7098 44.444 57.3184 44.4156 57.9802 44.3827L57.9802 44.3827C58.7086 44.3466 59.3588 44.3444 60.5328 44.4715C60.8524 44.5061 61.1534 44.6223 61.3982 44.8055C61.6398 44.9863 62.0654 45.4149 62.0441 46.0793C62.0402 46.2007 62.0397 46.2953 62.0411 46.3673C62.0454 46.5837 62.0632 46.573 62.0518 46.5396L62.0519 46.5398C62.055 46.5488 62.0597 46.5626 62.0647 46.578L62.0648 46.5782C62.1092 46.7127 62.1538 46.8874 62.1584 47.1213C62.1591 47.1573 62.1582 47.1933 62.1558 47.2293L62.1503 47.3121L62.1503 47.3123C62.1018 48.0405 62.0743 48.3778 62.1594 52.3621L62.1474 52.2131L62.8706 57.3433C62.8756 57.3783 62.879 57.4134 62.881 57.4485C62.9317 58.3486 62.8993 59.6897 62.7908 61.4362L62.7908 61.4361C62.7343 62.3453 61.9247 62.7475 61.5283 62.8711C61.3699 62.9205 61.2037 62.9482 61.0357 62.9534L54.8247 63.1466L55.1473 63.1083C53.9757 63.3529 51.106 63.6038 46.7521 63.8795L46.7363 63.8804L46.7337 63.8806C45.9095 63.9328 45.1598 63.4214 45.014 62.6957L44.8091 61.6759C44.7915 61.5884 44.7832 61.4997 44.7844 61.4109C44.7869 61.2192 44.7578 60.8463 44.684 60.2224C44.6099 59.5957 44.5002 58.7898 44.3635 57.7857C44.1508 56.2229 43.8762 54.2057 43.5851 51.7445C43.3498 49.7548 43.2375 48.3211 43.1697 47.4562C43.1309 46.961 43.112 46.7357 43.0997 46.6592L43.0997 46.6591C42.9953 46.0117 42.971 47.2404 43.9971 47.6628L43.9952 47.662C45.6443 48.3431 46.3633 46.6222 46.1663 46.9873C45.7795 47.7045 44.801 48.0116 43.981 47.673C43.161 47.3344 42.81 46.4783 43.197 45.7608Z" fill="black"/>
<path d="M61.1565 46.8503L59.1566 49.3638L59.2041 49.3006L52.8868 58.2056C52.8709 58.228 52.8543 58.2501 52.837 58.2717L50.9325 60.6527C50.9232 60.6643 50.9137 60.6759 50.904 60.6873C50.7002 60.9266 50.3264 61.5256 49.7826 62.484C49.3795 63.1947 48.3943 63.4848 47.5821 63.132C46.7699 62.7793 46.4383 61.9172 46.8415 61.2066C47.4729 60.0936 47.9493 59.3483 48.271 58.9707L48.2424 59.0053L50.1468 56.6243L50.097 56.6904L56.4143 47.7854C56.4295 47.764 56.4453 47.7429 56.4618 47.7222L58.4617 45.2086C58.9798 44.5575 60.0031 44.3972 60.7472 44.8505C61.4913 45.3038 61.6746 46.1991 61.1565 46.8503Z" fill="black"/>
<path d="M73.3322 48.9881C72.2505 49.2064 71.6015 49.3208 71.3918 49.3562L70.9547 49.3901H70.9545L71.395 49.3556C71.3504 49.3632 71.3096 49.3691 71.2823 49.3729L71.2809 49.3731C71.1514 49.391 70.9401 49.4139 70.7229 49.4377L70.7227 49.4378C70.3077 49.4833 69.6921 49.5508 68.8387 49.6566C68.4296 49.7073 67.6701 49.8334 66.9389 49.9553L66.9388 49.9553C66.5544 50.0194 66.1811 50.0817 65.9222 50.1211C65.8774 50.1279 65.8323 50.1335 65.787 50.1378L65.4573 50.1693C64.274 50.2824 63.21 49.5346 63.0808 48.4992C62.9516 47.4638 63.8062 46.5328 64.9895 46.4197L65.3192 46.3883L65.1841 46.405C65.3991 46.3723 65.732 46.3168 66.1321 46.2501L66.132 46.2502C66.8116 46.1369 67.6963 45.9887 68.234 45.922C69.1217 45.812 69.7665 45.7413 70.1864 45.6952L70.1862 45.6953C70.4505 45.6663 70.566 45.6533 70.6082 45.6475L70.6068 45.6477C70.6115 45.647 70.5949 45.6493 70.572 45.6532L71.0125 45.6187H71.0127L70.5755 45.6526C70.7253 45.6274 71.3281 45.5218 72.3632 45.3128C73.5231 45.0787 74.6803 45.7116 74.9479 46.7265C75.2154 47.7415 74.4921 48.754 73.3322 48.9881Z" fill="black"/>
<path d="M74.1169 53.28C73.8817 53.3675 73.6544 53.4196 73.4439 53.4469L73.4434 53.4469C73.0217 53.5016 72.66 53.5477 72.4564 53.5651L72.4563 53.5652C72.4145 53.5687 72.3472 53.574 72.2686 53.5766L72.3324 53.5737L71.7492 53.6078L71.8211 53.6026C71.1491 53.6617 70.4868 53.7124 69.8252 53.7481C69.4488 53.7684 67.5451 53.9605 66.0806 54.1894C64.9088 54.3725 63.7892 53.6898 63.5799 52.6645C63.3705 51.6392 64.1508 50.6595 65.3226 50.4763C66.8997 50.2298 68.974 50.015 69.5602 49.9834C70.1481 49.9517 70.7537 49.9057 71.3897 49.8497C71.4136 49.8476 71.4375 49.8458 71.4615 49.8444L72.0447 49.8103C72.066 49.809 72.0873 49.808 72.1085 49.8074C72.0616 49.8089 72.0281 49.8119 72.0376 49.8112H72.0376C72.1058 49.8053 72.3363 49.7774 72.8118 49.7158L72.8114 49.7159C72.6799 49.733 72.5508 49.764 72.4292 49.8092C73.5246 49.4015 74.7903 49.8479 75.2563 50.8063C75.7224 51.7647 75.2122 52.8722 74.1169 53.28Z" fill="black"/>
<path d="M64.3689 70.5954L64.3688 70.5954C64.473 70.4751 64.5372 70.3657 64.5616 70.267L64.5616 70.267C64.4964 70.5313 64.513 71.2047 64.6115 72.2873C64.6129 72.303 64.614 72.3186 64.6149 72.3343C64.7148 74.2055 64.9577 76.6508 65.3436 79.6703C65.3506 79.7253 65.354 79.7807 65.3537 79.8361C65.3481 80.9701 65.3529 81.6237 65.368 81.7971V81.7972C65.3665 81.7803 65.3635 81.7591 65.3589 81.7333L65.3506 81.6909L65.6859 83.2591C65.7257 83.4452 65.7231 83.6363 65.6782 83.8215C65.899 82.9106 65.5295 82.3661 64.5696 82.1879L64.571 82.1881C64.5687 82.1877 64.5671 82.1874 64.566 82.1873L64.5652 82.1871C64.8605 82.236 65.7694 82.2644 67.2921 82.2722L66.9272 82.3062C68.5181 81.9977 70.6302 81.7821 73.2635 81.6595L72.9716 81.6963L74.1072 81.4605C74.4219 81.3951 74.7518 81.4125 75.0552 81.5106L75.0555 81.5107C74.0437 81.1835 73.3549 81.4533 72.9889 82.32L72.9888 82.3202C72.9653 82.376 72.9497 82.4229 72.942 82.4608L72.942 82.4608C73.0726 81.8156 73.0923 78.4375 73.0011 72.3264L73.0069 72.4296C72.9115 71.4507 72.8036 70.7007 72.6831 70.1797C72.6561 70.0627 72.6458 69.9434 72.6524 69.8243L72.6922 69.1162L72.7179 69.4493C72.8167 69.9142 73.1043 70.2201 73.5806 70.3669L74.6369 70.3773C74.1676 70.5117 73.7602 70.5909 73.4148 70.615L73.4146 70.615C73.3 70.623 73.1892 70.6253 73.0822 70.6221C73.0331 70.6206 72.9839 70.6172 72.935 70.6119C71.5866 70.4645 70.3618 70.408 69.2606 70.4424L69.3478 70.4377L63.2464 70.9136L63.0786 70.9192H63.0785L63.7795 70.7907C64.6595 70.441 64.8914 69.8651 64.4752 69.063L64.4753 69.0632C64.4032 68.9242 64.31 68.8061 64.1957 68.7087L64.115 68.6445C64.8291 69.1764 65.3051 69.5664 65.5428 69.8145L65.5431 69.8148C65.5829 69.8564 65.6196 69.897 65.653 69.9368L65.6192 69.898C67.9071 72.4312 70.1902 74.7269 72.4685 76.785C72.5171 76.8289 72.5625 76.8755 72.6043 76.9244L74.253 78.8545C74.3061 78.9167 74.3534 78.9826 74.3943 79.0515C74.8551 79.8262 75.1646 80.2955 75.3229 80.4594L75.3229 80.4594C75.3003 80.436 75.2668 80.4084 75.2225 80.3767C75.924 80.8794 76.027 81.7845 75.4525 82.3983C74.878 83.0121 73.8436 83.1022 73.1421 82.5996C73.031 82.5199 72.9218 82.4246 72.8146 82.3136L72.8146 82.3136C72.4991 81.9868 72.0547 81.3415 71.4816 80.3777L71.6229 80.5746L69.9742 78.6445L70.11 78.784C67.755 76.6565 65.3993 74.2884 63.043 71.6795C63.0315 71.6668 63.0202 71.6539 63.0092 71.6407C63.0164 71.6492 63.0221 71.6557 63.0265 71.6603L63.0268 71.6606C62.9072 71.5359 62.5605 71.2597 61.9865 70.8321C61.9588 70.8115 61.9319 70.7901 61.9058 70.7679C61.724 70.6131 61.5838 70.4406 61.4852 70.2504L61.4853 70.2507C60.9967 69.309 61.3088 68.6171 62.4216 68.1748L63.1227 68.0463H63.1227C62.5905 68.1078 62.7706 68.0662 62.9549 68.0519L69.0562 67.5759C69.0852 67.5736 69.1143 67.5721 69.1434 67.5711C70.42 67.5313 71.8195 67.5946 73.342 67.7609L73.1949 67.7507C73.1776 67.7502 73.1643 67.7502 73.1549 67.7509L73.1547 67.7509C73.2402 67.745 73.3938 67.7103 73.6155 67.6468C73.9593 67.5483 74.3306 67.5519 74.6718 67.6571C75.3888 67.8782 75.8135 68.3004 75.9461 68.9239C75.9694 69.0337 75.978 69.1455 75.9718 69.257L75.9321 69.9651L75.9014 69.6098C76.0469 70.2385 76.1726 71.0971 76.2786 72.1856C76.2819 72.2199 76.2839 72.2544 76.2844 72.2889C76.3783 78.5808 76.3419 82.1384 76.1753 82.9617C76.1488 83.0926 76.1134 83.2106 76.0691 83.3155L76.069 83.3157C75.6763 84.2459 74.959 84.5426 73.9172 84.2057L74.8655 84.2559L73.7299 84.4917C73.634 84.5116 73.5364 84.524 73.438 84.5285C70.9855 84.6428 69.052 84.837 67.6376 85.1113C67.5178 85.1345 67.3954 85.1459 67.2727 85.1453C65.5514 85.1364 64.4454 85.0914 63.9548 85.0102L63.9541 85.01C63.9313 85.0063 63.9088 85.0023 63.8866 84.9982L63.8881 84.9984C62.7067 84.7791 62.2327 84.1881 62.4661 83.2253L62.4584 83.7876L62.123 82.2193C62.12 82.2052 62.1172 82.191 62.1147 82.1768C62.106 82.128 62.099 82.0742 62.0939 82.0155L62.0939 82.0156C62.0721 81.7653 62.0642 81.0347 62.0702 79.8237L62.0804 79.9896C61.6866 76.9085 61.4381 74.4014 61.3349 72.4683L61.3383 72.5153C61.2142 71.152 61.2188 70.2004 61.3519 69.6607L61.3519 69.6607C61.4299 69.3449 61.5631 69.0781 61.7515 68.8604C62.299 68.2281 63.3288 68.1038 64.0515 68.5828C64.7743 69.0619 64.9164 69.9629 64.3689 70.5954Z" fill="black"/>
<path d="M74.9093 69.743C73.87 71.1275 72.7955 72.6566 71.6858 74.3305L71.7099 74.2929C70.8143 75.7424 69.7329 77.632 68.4659 79.9617C68.453 79.9854 68.4393 80.0088 68.425 80.0319L66.4779 83.1577C66.4668 83.1755 66.4552 83.1931 66.4433 83.2105L66.4434 83.2104C66.5252 83.0913 66.5739 82.9857 66.5894 82.8935L66.5894 82.8936C66.5894 82.8937 66.5894 82.8939 66.5893 82.8942C66.4701 83.6806 65.6447 84.2337 64.7459 84.1293C63.847 84.025 63.215 83.3028 63.3343 82.5163C63.3365 82.5019 63.3387 82.4877 63.3411 82.4738V82.4739C63.3895 82.1871 63.4855 81.9391 63.6292 81.73L63.5947 81.7827L65.5418 78.6569L65.5009 78.7271C66.7922 76.353 67.899 74.4194 68.8214 72.9265C68.8292 72.9139 68.8373 72.9013 68.8455 72.8889C69.9857 71.169 71.0921 69.5945 72.1648 68.1656C72.6627 67.5025 73.6806 67.318 74.4384 67.7536C75.1963 68.1892 75.4071 69.0799 74.9093 69.743Z" fill="black"/>
<path d="M57.7175 73.5439C57.276 73.6907 56.856 73.8051 56.4575 73.8871C56.4055 73.8978 56.3531 73.9068 56.3003 73.9141C55.6202 74.0082 55.0587 74.0711 54.6158 74.1029L54.6809 74.0973C54.2618 74.1387 53.5673 74.1701 52.5974 74.1918L52.5934 74.1919C52.3146 74.1976 52.0437 74.1997 51.7807 74.198C51.7684 74.1979 51.7565 74.1978 51.7441 74.1975C51.1032 74.1839 50.7264 74.1779 50.6136 74.1797H50.6135C50.6482 74.1792 50.6902 74.1767 50.7393 74.1725C50.6841 74.1773 50.6289 74.1802 50.5735 74.1813L50.4805 74.1831L50.5453 74.181C50.1745 74.1979 49.4925 74.2114 48.4994 74.2213L48.5355 74.2206C48.3479 74.2253 48.1626 74.2332 47.9795 74.2445L48.017 74.2419C47.1798 74.3064 46.6414 74.3853 46.4019 74.4788L46.399 74.4799C46.3984 74.4802 46.3975 74.4805 46.3965 74.4809C45.3101 74.9065 44.035 74.4809 43.5486 73.5303C43.0621 72.5797 43.5485 71.4641 44.6349 71.0384C44.6395 71.0366 44.6443 71.0347 44.6493 71.0328L44.6465 71.0339C45.3254 70.769 46.323 70.5859 47.6392 70.4846C47.652 70.4836 47.6639 70.4829 47.6767 70.4821C47.921 70.467 48.1668 70.4564 48.4141 70.4503C48.4258 70.45 48.4385 70.4498 48.4502 70.4497C49.3858 70.4403 50.0091 70.4286 50.3203 70.4143C50.3418 70.4134 50.3634 70.4126 50.385 70.4122L50.4779 70.4104L50.3121 70.4193C50.3798 70.4133 50.4544 70.4098 50.536 70.4085H50.5359C50.7094 70.4057 51.147 70.4118 51.8489 70.4268L51.8123 70.4263C52.0306 70.4277 52.257 70.4259 52.4915 70.4211L52.4876 70.4212C53.333 70.4023 53.9032 70.3784 54.1981 70.3493C54.2197 70.3472 54.2416 70.3453 54.2632 70.3437C54.5991 70.3196 55.0538 70.2679 55.6274 70.1886L55.4702 70.2156C55.684 70.1716 55.9228 70.1057 56.1868 70.018C57.2996 69.6481 58.5443 70.1376 58.967 71.1112C59.3897 72.0849 58.8303 73.174 57.7175 73.5439Z" fill="black"/>
<path d="M56.8195 78.6273H56.8194C56.8483 78.6308 56.8711 78.6328 56.8879 78.6334L56.8873 78.6334C56.8725 78.6328 56.8475 78.6329 56.8122 78.6338L56.9474 78.627L56.5512 78.6578C56.5273 78.6596 56.5034 78.6611 56.4794 78.6623C55.5553 78.7069 54.8677 78.7479 54.4167 78.785C54.3773 78.7882 54.3376 78.7905 54.298 78.7919L54.2962 78.792C54.3031 78.7917 54.3089 78.7915 54.3135 78.7912L54.3149 78.7912C54.1328 78.8015 53.5555 78.8667 52.5831 78.9868C52.5564 78.9901 52.5296 78.9931 52.5028 78.9955C51.6944 79.0684 51.1485 79.1112 50.8651 79.1241L50.8902 79.1228C50.5234 79.1432 50.2206 79.1573 49.982 79.1652C49.9716 79.1656 49.9609 79.1659 49.9504 79.1661L48.2507 79.2004C48.2395 79.2006 48.2283 79.2008 48.2171 79.2009H48.2185C48.2209 79.2008 48.2224 79.2008 48.2227 79.2008H48.2239C48.1776 79.2018 48.0832 79.2075 47.9405 79.218C47.8843 79.2221 47.828 79.2243 47.7716 79.2245C47.5795 79.2254 47.4214 79.2228 47.2975 79.2168H47.2973C47.202 79.2122 47.1138 79.2049 47.0328 79.1951C45.8537 79.0519 45.0305 78.0996 45.194 77.0679C45.3576 76.0363 46.446 75.316 47.6251 75.4591C47.5889 75.4547 47.5595 75.4519 47.537 75.4508H47.5368C47.5736 75.4526 47.6445 75.4533 47.7494 75.4528L47.5806 75.4593C47.808 75.4427 47.9871 75.4329 48.118 75.4301L48.1191 75.4301C48.1409 75.4297 48.1623 75.4293 48.1834 75.4292L48.1511 75.4296L49.8509 75.3953L49.8193 75.3961C50.0211 75.3894 50.287 75.3769 50.6169 75.3586C50.6257 75.3581 50.6333 75.3577 50.6421 75.3573C50.8521 75.3478 51.3251 75.3098 52.0609 75.2435L51.9806 75.2521C53.0601 75.1188 53.7447 75.0438 54.0346 75.0273L54.036 75.0273C54.0703 75.0253 54.1027 75.0238 54.1331 75.0228L54.0126 75.0298C54.5188 74.9881 55.2619 74.9436 56.2418 74.8962L56.17 74.9008L56.5662 74.87C56.6111 74.8665 56.6562 74.8642 56.7013 74.8632C56.8333 74.8602 56.9554 74.8608 57.0676 74.8649L57.0671 74.8649C57.1853 74.8692 57.2967 74.8776 57.4014 74.89C58.5808 75.0306 59.4067 75.9812 59.246 77.0132C59.0854 78.0452 57.999 78.7679 56.8195 78.6273Z" fill="black"/>
<path d="M57.421 83.6961L57.421 83.6961C57.6506 83.7527 57.8596 83.7744 58.0479 83.7613L58.0484 83.7612C58.0339 83.7622 58.0084 83.7647 57.9721 83.7686L58.1462 83.7436C57.8403 83.7989 57.2366 83.8841 56.335 83.9992C56.3037 84.0032 56.2722 84.0065 56.2407 84.0093C55.7439 84.0533 55.4227 84.0791 55.277 84.0868H55.2771C55.2608 84.0877 55.2448 84.0884 55.229 84.0891L55.2382 84.0887C54.3241 84.1298 53.7977 84.1561 53.659 84.1675L53.6584 84.1676C53.732 84.1615 53.8143 84.149 53.9054 84.13C53.8151 84.1488 53.7233 84.1626 53.631 84.171L50.4055 84.4676L50.5438 84.4509L48.6474 84.7348L48.6396 84.736C48.3514 84.7782 48.0589 84.7865 47.7622 84.7611C46.5776 84.6592 45.7115 83.7364 45.8279 82.6998C45.9442 81.6632 46.9989 80.9055 48.1835 81.0073C48.1009 81.0002 48.0158 81.0031 47.9281 81.0159L47.9203 81.017L49.8167 80.7331C49.8626 80.7263 49.9087 80.7207 49.955 80.7164L53.1806 80.4199L52.9062 80.4609C53.0116 80.4389 53.1281 80.4227 53.2558 80.4122L53.2552 80.4123C53.4544 80.3959 54.0416 80.3657 55.0169 80.3219L55.0261 80.3215C55.0221 80.3216 55.0191 80.3218 55.0173 80.3219H55.0174C55.105 80.3172 55.3682 80.2955 55.8071 80.2567L55.7129 80.2668C56.5303 80.1625 57.0503 80.0903 57.2729 80.05C57.3305 80.0395 57.3886 80.0312 57.4469 80.0249C57.5432 80.0146 57.6288 80.0067 57.7037 80.0015H57.7042C58.029 79.9787 58.3243 80.0001 58.5902 80.0657C59.736 80.3482 60.403 81.3899 60.0801 82.3924C59.7572 83.395 58.5667 83.9786 57.421 83.6961Z" fill="black"/>
<path d="M49.0142 32.6244C49.0707 32.6631 49.132 32.6938 49.196 32.7165C49.134 32.6971 49.0731 32.6664 49.0133 32.6244L49.0142 32.6244ZM48.8841 32.667C48.9715 32.7036 49.0662 32.7252 49.1631 32.7307C49.0687 32.7279 48.9754 32.7067 48.8832 32.667L48.8841 32.667ZM49.2012 31.4005C49.1889 31.4003 49.1764 31.4004 49.1639 31.4006H49.1638C49.1192 31.4016 49.0483 31.4052 48.951 31.4113H48.9502C48.8114 31.4181 48.6253 31.4414 48.392 31.4812L48.3912 31.4812L47.1911 31.5718C47.1713 31.5733 47.1515 31.5755 47.1319 31.5783L46.8655 31.617L46.8584 31.6181C46.4406 31.6824 45.8442 31.804 45.0693 31.9828C45.057 31.9856 45.0447 31.9887 45.0325 31.9921L43.8891 32.3106L43.8884 32.3106C43.6852 32.3455 43.3985 32.3869 43.0282 32.4348C43.0029 32.4381 42.9778 32.4424 42.953 32.4479L42.1696 32.6213L41.8509 32.6654C41.8288 32.6685 41.8069 32.6724 41.7852 32.6772C41.6354 32.71 41.5032 32.7714 41.3884 32.8613C41.0756 33.1063 41.049 33.527 41.3291 33.8007C41.4768 33.9451 41.6803 34.0198 41.8856 34.0222C41.9959 34.0235 42.1067 34.0039 42.2096 33.963L42.2089 33.963L42.4414 33.9308C42.4641 33.9277 42.4865 33.9236 42.5088 33.9187L43.2874 33.7464H43.2866C43.692 33.6937 44.0072 33.6474 44.2322 33.6075C44.259 33.6027 44.2856 33.5967 44.3117 33.5894L45.4717 33.2663L45.4709 33.2662C46.1935 33.0997 46.7415 32.9875 47.1149 32.9297H47.1147L47.3515 32.8952L48.5648 32.8036C48.5929 32.8015 48.6209 32.798 48.6544 32.7921L48.6553 32.792H48.6555C48.8382 32.7601 48.9651 32.7428 49.0362 32.7399C49.0427 32.7396 49.0498 32.7392 49.0562 32.7388C49.1137 32.7351 49.1553 32.7327 49.1811 32.7316L49.182 32.7316C49.1833 32.7316 49.1847 32.7317 49.1861 32.7317C49.2131 32.7325 49.2356 32.7334 49.2537 32.7344H49.2529C49.3241 32.7541 49.3978 32.7643 49.4716 32.7651C49.6769 32.7675 49.8827 32.6976 50.0348 32.5567C50.3232 32.2896 50.3094 31.8685 50.0042 31.6163C49.8756 31.51 49.7081 31.4444 49.5016 31.4194L49.5014 31.4194C49.4345 31.4113 49.3525 31.4057 49.2552 31.4024H49.2543C49.2368 31.4013 49.2191 31.4007 49.2012 31.4005Z" fill="black"/>
</svg>
