<svg width="97" height="97" viewBox="0 0 97 97" fill="none" xmlns="http://www.w3.org/2000/svg">
<rect width="97" height="97" rx="48.5" fill="#FFE485"/>
<path d="M32.5179 33.7313C33.1753 36.8198 33.4249 38.8592 33.5527 39.9041C33.6003 40.2936 33.6226 40.4655 33.6361 40.529L33.6355 40.5263L33.636 40.5286L33.6362 40.5293C33.6395 40.5449 33.6301 40.4921 33.5986 40.4142C33.6428 40.5235 33.6697 40.6374 33.6787 40.7528L34.6475 53.2128L34.6392 53.1387L36.0624 62.9352L36.052 62.8751C36.1414 63.3197 36.1598 63.9107 36.1781 64.4049C36.2036 65.09 36.2305 65.7382 36.3376 66.271C36.4213 66.6872 36.5231 66.8566 36.5526 66.8907L36.5523 66.8904C36.5532 66.8914 36.5513 66.8893 36.5507 66.8886L36.551 66.8889C37.5851 67.9782 38.9879 68.9047 40.0216 69.0807L40.0216 69.0808C40.542 69.1693 41.9394 69.0756 44.1763 68.901C46.1591 68.7463 48.5698 68.5573 50.8727 68.5572C51.2833 68.5572 51.6926 68.562 52.1155 68.5668C52.5782 68.5721 53.0388 68.5774 53.5372 68.5774H53.5372C55.5701 68.5774 58.0797 68.4869 61.728 67.9027C62.2807 67.8142 63.7085 66.4499 64.0907 65.2534C64.6455 63.5166 65.0269 60.7009 64.8605 55.2773L64.8637 55.3351L64.0629 45.6646L64.114 45.9189C63.1327 42.8798 62.4528 38.2113 61.9236 32.0111C61.7807 30.3379 61.1906 29.19 60.4792 28.3901C59.7774 27.601 58.2739 26.9139 55.2799 27.0433L55.2831 27.0431L55.2756 27.0435L55.2724 27.0436C49.4053 27.2972 42.6583 27.6126 35.6688 28.0916C32.8523 28.2846 32.386 30.6888 32.5349 34.3019C32.5644 35.0182 31.911 35.6194 31.0755 35.6447C30.24 35.67 29.5387 35.1098 29.5092 34.3935C29.3942 31.6017 29.3104 25.9235 35.4276 25.5042C42.4631 25.022 49.2454 24.7052 55.12 24.4513L55.1168 24.4515L55.1243 24.4511L55.1275 24.451C58.6406 24.2992 61.3382 25.0751 62.8868 26.8164C63.9837 28.0498 64.761 29.6887 64.943 31.8217C65.4719 38.018 66.1381 42.4584 67.0318 45.2265C67.0586 45.3096 67.0757 45.3948 67.0829 45.4808L67.8837 55.1513C67.8853 55.1705 67.8864 55.1898 67.887 55.209C68.0559 60.7128 67.6839 63.8317 67.0107 65.939C66.5344 67.4303 64.5955 70.084 62.2839 70.4542C58.4179 71.0732 55.7176 71.173 53.5373 71.173H53.5373C53.0158 71.173 52.5351 71.1674 52.0749 71.1621C51.6473 71.1572 51.2602 71.1528 50.8728 71.1528C48.7296 71.1528 46.458 71.3293 44.4508 71.486C42.5192 71.6367 40.5054 71.8093 39.432 71.6266L39.432 71.6266C37.3469 71.2717 35.3761 69.7632 34.2028 68.5274L34.2031 68.5277C34.1743 68.4973 34.1477 68.4679 34.1214 68.4376L34.1212 68.4373C33.6597 67.904 33.4606 67.242 33.3541 66.712C33.2043 65.9674 33.1759 65.1287 33.1521 64.4876C33.1308 63.9134 33.1134 63.5395 33.0684 63.316C33.0644 63.2961 33.0609 63.2761 33.058 63.256L31.6349 53.4595C31.6313 53.4348 31.6285 53.4101 31.6266 53.3854L30.6579 40.9255L30.738 41.2641C30.6926 41.152 30.6694 41.0493 30.6587 40.9996L30.6589 41.0002L30.6584 40.9979L30.6578 40.9951C30.6176 40.8065 30.5812 40.4979 30.5416 40.1747C30.4175 39.1598 30.1773 37.1936 29.5395 34.1973C29.3894 33.4922 29.9345 32.8163 30.7569 32.6876C31.5794 32.5589 32.3678 33.0262 32.5179 33.7313Z" fill="#05276C"/>
<path d="M28.8556 35.6183C27.8429 34.872 27.2211 34.4393 26.99 34.3202C26.9843 34.3173 26.9791 34.3146 26.9734 34.3116C26.4234 34.0198 25.5844 33.6517 24.4563 33.2074C24.4123 33.1901 24.3694 33.171 24.3275 33.1501L19.821 30.9045C19.7976 30.8928 19.7745 30.8806 19.7519 30.8678C19.1017 30.5025 18.0836 29.8279 16.6976 28.844L16.8014 28.9114L11.0694 25.5094L11.2675 25.6088C11.0659 25.5245 10.8742 25.3972 10.6924 25.2268L10.6926 25.2269C10.612 25.1514 10.5226 25.0583 10.4245 24.9475C9.91889 24.3767 10.0488 23.5625 10.7146 23.129C11.3804 22.6956 12.33 22.8069 12.8356 23.3777C12.8778 23.4254 12.908 23.4577 12.9262 23.4748L12.9263 23.4749C12.8488 23.4023 12.7383 23.3359 12.5946 23.2759C12.6636 23.3047 12.7297 23.3379 12.7927 23.3753L18.5247 26.7773C18.5604 26.7986 18.595 26.821 18.6285 26.8448C19.9278 27.7672 20.8555 28.3846 21.4116 28.6971L21.3424 28.6604L25.849 30.9061L25.7202 30.8489C26.9617 31.3379 27.9105 31.7564 28.5665 32.1044L28.5499 32.0957C28.9273 32.2902 29.687 32.8083 30.8291 33.6499C31.4631 34.1172 31.5353 34.9365 30.9903 35.4801C30.4453 36.0236 29.4896 36.0855 28.8556 35.6183Z" fill="#05276C"/>
<path d="M29.4464 9.22L33.1136 12.4756C33.1401 12.4992 33.1656 12.5236 33.19 12.5488L37.4906 16.9956C37.5278 17.0341 37.5624 17.0744 37.5942 17.1163C39.7522 19.9605 41.5952 23.1375 42.3475 24.4332C42.5297 24.7471 42.6243 24.9089 42.6554 24.9569L42.6552 24.9565C42.6566 24.9587 42.6505 24.9492 42.6395 24.9338C43.0777 25.5442 42.8557 26.3436 42.1437 26.7193C41.4317 27.095 40.4993 26.9047 40.0611 26.2943C40.0407 26.2658 40.0226 26.2386 40.0106 26.2201L40.0104 26.2197C39.9347 26.1033 39.7949 25.8615 39.6371 25.5897C38.8817 24.2885 37.1079 21.2355 35.0564 18.5316L35.16 18.6523L30.8593 14.2055L30.9357 14.2787L27.2686 11.023C26.6878 10.5075 26.7046 9.68587 27.306 9.18797C27.9074 8.69008 28.8657 8.70441 29.4464 9.22Z" fill="#05276C"/>
<path d="M56.5999 25.1503C56.6981 24.1294 56.7817 23.4792 56.8509 23.1999L56.8509 23.1999C56.8699 23.1233 56.8917 23.0534 56.9163 22.9902L56.8591 23.1872C57.3233 20.8104 57.6237 19.4259 57.7604 19.0335L57.7604 19.0334C57.8481 18.7818 57.9836 18.5753 58.1669 18.4141L57.8161 18.9063L58.6172 16.8644L58.5839 16.9617C58.9785 15.6159 59.3107 14.6126 59.5804 13.9517C59.5819 13.948 59.5835 13.9442 59.5851 13.9405C60.3342 12.1571 60.7436 11.1492 60.8133 10.9169L60.8133 10.9169C60.813 10.9179 60.8126 10.9194 60.812 10.9213C60.8327 10.8471 60.8609 10.7746 60.8965 10.7046L62.5516 7.44429C62.8852 6.78707 63.7771 6.48618 64.5437 6.7722C65.3103 7.05824 65.6612 7.82288 65.3276 8.48007L63.6725 11.7404L63.7569 11.5237C63.7534 11.5365 63.7496 11.5496 63.7455 11.5631L63.7455 11.5631C63.6522 11.8742 63.2149 12.9598 62.4335 14.82L62.4382 14.8088C62.1985 15.396 61.8925 16.3246 61.5201 17.5946C61.5104 17.6274 61.4993 17.6598 61.4868 17.6919L60.6856 19.7338C60.6132 19.9183 60.4933 20.0865 60.3348 20.226C60.498 20.0824 60.6069 19.9325 60.6613 19.7763L60.6613 19.7762C60.5606 20.0654 60.2885 21.3452 59.8451 23.6158C59.832 23.6826 59.8129 23.7485 59.7878 23.8128C59.7994 23.783 59.8076 23.7584 59.8124 23.7392L59.8124 23.7391C59.7699 23.9108 59.7049 24.4522 59.6172 25.3635C59.5486 26.0778 58.8175 26.6092 57.9842 26.5503C57.151 26.4914 56.5312 25.8646 56.5999 25.1503Z" fill="#05276C"/>
<path d="M63.8646 34.6144L63.9063 34.6019L63.9068 34.6017L63.8651 34.6142C64.7597 34.3338 65.3034 34.1416 65.4962 34.0376C65.4363 34.0699 65.3713 34.1206 65.301 34.1898C65.3683 34.1235 65.4433 34.0633 65.5248 34.01L73.2963 28.9298L73.1326 29.0538C74.8417 27.5574 76.653 26.2035 78.5665 24.9921L78.3539 25.1553C79.5065 24.086 80.4362 23.0737 81.1429 22.1182L81.0568 22.2511C81.1167 22.1443 81.1994 22.0355 81.3047 21.9249L81.3048 21.9248C81.4976 21.7225 81.9966 21.2851 82.8018 20.6127C83.4008 20.1126 84.3592 20.1235 84.9425 20.6369C85.5258 21.1504 85.5132 21.972 84.9142 22.4721C84.1912 23.0759 83.7697 23.4407 83.6497 23.5667L83.6498 23.5666C83.6963 23.5177 83.7416 23.454 83.7857 23.3753C83.7601 23.4211 83.7314 23.4654 83.6997 23.5082C82.895 24.5962 81.8542 25.7324 80.5775 26.9169C80.5128 26.9769 80.4416 27.0316 80.3649 27.0801C78.5815 28.2092 76.8918 29.4724 75.2957 30.8697C75.2447 30.9144 75.19 30.9558 75.132 30.9938L67.3605 36.074L67.5843 35.8942C67.4593 36.0174 67.3008 36.1307 67.109 36.2342C66.735 36.436 66.0002 36.7086 64.9046 37.052L64.8629 37.0645L64.8624 37.0646C64.1188 37.2983 63.2496 36.952 62.9625 36.2788C62.6755 35.6057 63.0794 34.8604 63.8646 34.6144Z" fill="#05276C"/>
<path d="M33.1241 60.2968L28.3209 60.7872L28.7086 60.7019C26.8235 61.3543 25.7933 61.8509 25.4492 62.052L25.4492 62.052L25.1171 62.246L25.1172 62.2459L24.803 62.4294C21.6889 64.2487 20.1541 65.1635 19.837 65.4587L19.8369 65.4588C19.8381 65.4577 19.837 65.4588 19.8416 65.4543C19.7905 65.5053 19.7349 65.5528 19.6752 65.5964L13.3475 70.224L13.4601 70.1328L10.013 73.2285C9.43571 73.7469 8.47751 73.766 7.87279 73.2711C7.26807 72.7762 7.24584 71.9547 7.82312 71.4362L11.2702 68.3405C11.3059 68.3085 11.3434 68.2781 11.3827 68.2493L17.7104 63.6217L17.5441 63.7639C17.565 63.743 17.5898 63.7191 17.6102 63.7001L17.6101 63.7003C18.2362 63.1175 20.2415 61.9534 23.0982 60.2845L23.4123 60.101L23.4124 60.101L23.7445 59.907L23.7444 59.907C24.3426 59.5575 25.5969 58.9797 27.5753 58.295C27.6995 58.2521 27.8299 58.2234 27.9629 58.2098L32.7661 57.7194C33.5962 57.6347 34.3494 58.1429 34.4482 58.8546C34.5471 59.5664 33.9542 60.212 33.1241 60.2968Z" fill="#05276C"/>
<path d="M41.3944 71.4259C41.1226 72.2979 40.8979 72.6642 40.4946 73.3181L40.4946 73.3181C40.2714 73.6799 39.9775 74.1565 39.5506 74.9226C39.5368 74.9473 39.5221 74.9716 39.5066 74.9955L36.652 79.3815C36.6389 79.4017 36.6252 79.4214 36.6109 79.4409L36.6115 79.4401L36.61 79.4421L36.6094 79.443C35.6943 80.6882 35.0026 81.6132 34.5448 82.1523L34.5419 82.1557L34.5408 82.1569L34.5437 82.1535C32.8231 84.1797 31.6537 85.4879 31.1659 85.8893L31.1659 85.8893C31.1288 85.9199 30.9229 86.0967 30.6322 86.209L31.3029 85.7014C30.908 86.2566 30.507 86.7395 30.0969 87.1092L30.3761 86.7555C30.4412 86.6338 30.5364 86.3752 30.4377 86.052C30.6495 86.7454 30.1657 87.4547 29.357 87.6364C28.5482 87.818 27.7209 87.4032 27.509 86.7099C27.3801 86.2881 27.4931 85.9188 27.6238 85.6743C27.6934 85.544 27.7878 85.4244 27.903 85.3205C28.1048 85.1386 28.3779 84.8284 28.718 84.3501C28.8768 84.1268 29.1106 83.9499 29.3887 83.8425C29.1449 83.9366 29.011 84.0648 29.0693 84.0168L29.0694 84.0168C29.3125 83.8167 30.2878 82.7553 32.0961 80.6258L32.099 80.6224L32.1 80.6212L32.0971 80.6246C32.4826 80.1706 33.1152 79.3285 34.0478 78.0595L34.0471 78.0603L34.0486 78.0583L34.0081 78.1168L36.8627 73.7308L36.8188 73.8037C37.2717 72.9908 37.5877 72.4785 37.8182 72.1048L37.8182 72.1048C38.1793 71.5193 38.2836 71.3521 38.4695 70.7558C38.6854 70.0633 39.5151 69.652 40.3228 69.8371C41.1305 70.0221 41.6103 70.7335 41.3944 71.4259Z" fill="#05276C"/>
<path d="M54.3388 72.032L55.6081 76.0607L55.5665 75.9489C56.7018 78.5804 57.8966 80.7475 59.8338 82.9333L59.7658 82.862L63.2604 86.2732C63.2665 86.279 63.2724 86.285 63.2783 86.2909C63.2972 86.3101 62.8271 85.8167 62.0183 86.0206C62.8203 85.8184 63.6618 86.2119 63.8976 86.8996C64.1334 87.5872 63.6744 88.3086 62.8723 88.5108C61.8631 88.7652 61.1781 88.1811 60.9679 87.9683L60.9857 87.986L57.4911 84.5749C57.4675 84.5518 57.4447 84.528 57.4231 84.5036C55.2406 82.0409 53.9207 79.6165 52.7269 76.8493C52.7111 76.8125 52.6972 76.7752 52.6853 76.7375L51.416 72.7088C51.198 72.0168 51.6756 71.3044 52.4827 71.1175C53.2898 70.9306 54.1208 71.3401 54.3388 72.032Z" fill="#05276C"/>
<path d="M69.2006 60.996C70.3809 61.3111 71.4347 61.7422 72.3618 62.2892C72.4106 62.3179 72.4573 62.3491 72.5019 62.3826L76.8366 65.642C76.8684 65.6659 76.899 65.6909 76.9283 65.717L79.6143 68.1062C79.6524 68.14 79.6883 68.1756 79.7219 68.2128C81.0949 69.7348 82.2261 70.9145 83.1155 71.7518C83.1756 71.8084 83.2297 71.8693 83.2772 71.9341L85.6949 75.2257C86.1404 75.8322 85.9281 76.6335 85.2206 77.0155C84.5131 77.3974 83.5785 77.2153 83.133 76.6088L80.7153 73.3171L80.877 73.4994C79.9328 72.6105 78.7495 71.3776 77.327 69.8008L77.4345 69.9074L74.7485 67.5183L74.8402 67.5934L70.5055 64.334L70.6456 64.4274C69.9705 64.0291 69.1888 63.7114 68.3004 63.4743C67.5022 63.2612 67.0566 62.5337 67.3052 61.8493C67.5537 61.165 68.4023 60.783 69.2006 60.996Z" fill="#05276C"/>
<path d="M34.0358 33.7312L34.036 33.7312C34.0344 33.731 34.0331 33.7308 34.0323 33.7307L34.0317 33.7306C34.3201 33.7693 35.1049 33.7384 36.3862 33.638L36.275 33.6503C37.8242 33.4287 39.2053 33.2582 40.4181 33.1389L40.4247 33.1383L48.8177 32.3443C48.8361 32.3426 48.8546 32.3412 48.8731 32.34C49.4963 32.3009 50.0884 32.2844 50.6494 32.2905C50.6631 32.2907 50.6764 32.291 50.69 32.2914L54.0214 32.4045L53.994 32.4038C55.6675 32.4346 56.6235 32.4425 56.8618 32.4275L56.8599 32.4277C56.8593 32.4277 56.8598 32.4276 56.8615 32.4275C56.8718 32.4268 56.8823 32.4261 56.8926 32.4256L62.1664 32.1473L62.0494 32.1574C62.5853 32.0931 62.9501 32.0306 63.144 31.9701C63.9296 31.7248 64.7983 32.0719 65.0845 32.7453C65.3706 33.4188 64.9658 34.1636 64.1802 34.4089C63.7865 34.5319 63.2162 34.6382 62.4693 34.7279C62.4305 34.7326 62.3915 34.7359 62.3524 34.738L57.0785 35.0163L57.1096 35.0144C57.1031 35.0148 57.0951 35.0154 57.0857 35.016L57.0837 35.0161C56.7501 35.0371 55.6985 35.0314 53.9289 34.9988C53.9198 34.9986 53.9107 34.9984 53.9015 34.9981L50.5702 34.8849L50.6108 34.8859C50.1366 34.8807 49.6311 34.8949 49.0943 34.9286L49.1497 34.9243L40.7567 35.7182L40.7633 35.7175C39.6016 35.8318 38.2715 35.9962 36.7731 36.2105C36.7363 36.2157 36.6991 36.2199 36.6619 36.2228C35.1316 36.3428 34.0986 36.3668 33.563 36.2949L33.5624 36.2948C33.5365 36.2913 33.5111 36.2876 33.4862 36.2836C32.6643 36.1536 32.1208 35.4768 32.2725 34.7719C32.4242 34.0671 33.2137 33.6011 34.0358 33.7312Z" fill="#05276C"/>
<path d="M18.8376 23.6795C18.4148 23.7614 18.0017 23.7069 17.5985 23.5161L17.589 23.5116L16.7888 23.1264L16.7823 23.1233C16.6129 23.0409 16.4136 22.9277 16.1842 22.784L16.3192 22.8595C16.2583 22.8292 16.2108 22.8051 16.1766 22.7872L16.1771 22.7874C16.0504 22.7208 15.9414 22.647 15.8502 22.566L16.2141 22.8036C15.9424 22.6766 15.7224 22.4871 15.554 22.235C15.1385 21.613 15.3897 20.8201 16.1152 20.4639C16.8406 20.1076 17.7656 20.323 18.1811 20.945C18.0657 20.7722 17.8931 20.6321 17.6635 20.5248C17.7981 20.5878 17.9208 20.6679 18.0274 20.7624C17.9408 20.6856 17.8517 20.6231 17.7602 20.575L17.7607 20.5752C17.7728 20.5816 17.7979 20.5942 17.8361 20.6132C17.8826 20.6363 17.9277 20.6615 17.971 20.6886C18.1067 20.7737 18.2088 20.8329 18.2773 20.8662L18.2708 20.8631L19.0711 21.2483L19.0615 21.2437C18.7931 21.1167 18.4961 21.0847 18.1705 21.1477C18.986 20.9898 19.7964 21.4286 19.9806 22.1277C20.1648 22.8268 19.653 23.5216 18.8376 23.6795Z" fill="#05276C"/>
<path d="M19.4472 21.5315L19.1028 21.2573L19.2674 21.3711L18.6423 20.9976C18.6086 20.9775 18.5759 20.9562 18.5442 20.9338C18.3403 20.7895 18.1082 20.6123 17.8477 20.4023C17.2387 19.9112 17.2094 19.0899 17.7822 18.5678C18.355 18.0457 19.3131 18.0206 19.922 18.5117C20.135 18.6834 20.3182 18.8235 20.4715 18.932L20.3733 18.8681L20.9984 19.2416C21.0563 19.2762 21.1113 19.3142 21.163 19.3553L21.5073 19.6295C22.12 20.1172 22.1554 20.9384 21.5865 21.4636C21.0176 21.9888 20.0598 22.0192 19.4472 21.5315Z" fill="#05276C"/>
<path d="M28.1689 21.6594L27.8245 21.3853L27.9891 21.499L27.364 21.1256C27.3303 21.1054 27.2976 21.0841 27.2659 21.0617C27.062 20.9174 26.8299 20.7403 26.5694 20.5302C25.9604 20.0392 25.9311 19.2178 26.5039 18.6957C27.0767 18.1736 28.0347 18.1485 28.6437 18.6396C28.8567 18.8114 29.0399 18.9515 29.1932 19.06L29.095 18.9961L29.7201 19.3695C29.778 19.4041 29.833 19.4421 29.8847 19.4833L30.229 19.7574C30.8416 20.2451 30.8771 21.0663 30.3082 21.5915C29.7393 22.1167 28.7815 22.1471 28.1689 21.6594Z" fill="#05276C"/>
<path d="M28.5319 24.4889C28.1091 24.5707 27.6961 24.5163 27.2928 24.3254L27.2833 24.3209L26.4831 23.9358L26.4766 23.9326C26.3073 23.8502 26.1079 23.7371 25.8785 23.5933L26.0134 23.6688C25.9531 23.6388 25.9057 23.6148 25.8714 23.5968L25.8707 23.5964C25.7441 23.5297 25.6352 23.4559 25.5441 23.375L25.9084 23.613C25.6368 23.486 25.4167 23.2964 25.2483 23.0443C24.8328 22.4224 25.0841 21.6294 25.8095 21.2732C26.535 20.9169 27.4599 21.1324 27.8754 21.7543C27.76 21.5815 27.5875 21.4415 27.3578 21.3341C27.4926 21.3972 27.6155 21.4774 27.7222 21.5721C27.6356 21.4953 27.5466 21.4328 27.4551 21.3846L27.4544 21.3843C27.4664 21.3905 27.4917 21.4033 27.5305 21.4225C27.5769 21.4456 27.622 21.4708 27.6654 21.498C27.801 21.583 27.9031 21.6422 27.9717 21.6756L27.9652 21.6724L28.7654 22.0576L28.7559 22.053C28.4874 21.926 28.1904 21.894 27.8649 21.9571C28.6803 21.7992 29.4908 22.2379 29.675 22.937C29.8591 23.6362 29.3474 24.3309 28.5319 24.4889Z" fill="#05276C"/>
<path d="M30.9274 29.9255L30.9275 29.9254C30.8297 30.1507 30.1931 31.112 28.9419 30.7122L28.9421 30.7123C28.2827 30.5017 28.0345 29.978 28.0395 29.9868L28.0395 29.9867C27.929 29.7931 27.8342 29.559 27.7977 29.2925C27.7572 28.997 27.7542 28.7061 27.801 28.4311L27.801 28.4311C27.8161 28.3428 27.8368 28.253 27.8644 28.1636L27.8194 28.6053C27.7922 28.3299 27.8687 28.0904 27.8936 28.012C28.0128 27.6361 28.3058 27.0735 28.7042 26.4043C29.2285 25.5237 30.149 24.8923 31.2457 24.4773C31.2971 24.4578 31.3475 24.4401 31.3985 24.4236L31.3987 24.4235C31.7663 24.3042 32.159 24.2472 32.5438 24.2729H32.5435C32.9069 24.2972 33.301 24.3608 33.6267 24.4122L33.627 24.4123C33.6677 24.4187 33.6819 24.4209 33.7234 24.4274L33.8371 24.4493L33.8374 24.4493L33.7239 24.4276C33.7964 24.439 33.8669 24.4517 33.9343 24.4659L33.9338 24.4658C34.0156 24.483 34.1316 24.5104 34.2517 24.5527L34.2524 24.5529C34.6266 24.6849 34.9786 24.8178 35.2273 24.9425L35.2271 24.9424C35.2834 24.9706 35.5841 25.1135 35.8087 25.3725L35.3825 25.039C35.4106 25.0537 35.4233 25.0594 35.5281 25.0928L35.5283 25.0929C35.6159 25.1209 35.8382 25.1884 36.0756 25.3127L36.0753 25.3125C36.2968 25.4285 36.4934 25.5715 36.6767 25.7423L34.2656 25.9519C34.5364 25.566 34.8406 25.2387 35.1905 24.992C35.7085 24.6269 36.4423 24.3759 37.223 24.5801C37.8026 24.7317 38.2784 24.9759 38.6283 25.2507L38.6283 25.2508C38.6847 25.2951 39.6299 25.9815 39.2944 26.9243L39.2944 26.9242C38.9964 27.7617 38.0735 27.9111 37.6154 27.8723H37.6155C37.4329 27.8568 36.9391 27.8265 36.3158 27.9225L36.3157 27.9225C35.8323 27.9968 35.4381 27.8731 35.3478 27.8464L35.3482 27.8465C35.3182 27.8377 35.2971 27.8311 35.2817 27.8263L35.2822 27.8264C35.267 27.8217 35.2614 27.82 35.2592 27.8193L35.2602 27.8196C35.1992 27.8015 35.4745 27.9034 35.842 27.8467L35.8417 27.8468C36.3771 27.7644 36.6505 27.4514 36.7398 27.3073C36.5399 27.6299 36.1908 27.8653 35.7781 27.9558C35.3654 28.0463 34.9273 27.9835 34.5713 27.7829C34.6837 27.8462 34.9328 27.8577 35.2176 27.7383L35.2177 27.7383C36.1414 27.3509 35.9733 26.4531 35.9854 26.6836L35.9855 26.6837C35.9572 26.1447 36.2743 27.4954 35.1223 27.9782L35.1195 27.9794C34.8487 28.0923 34.5885 28.1172 34.3923 28.1116L34.4224 28.1122L34.4207 28.1122L34.3916 28.1116C34.313 28.1094 33.939 28.1448 33.1936 28.398H33.1935C33.3566 28.3426 33.4481 28.2557 33.4749 28.2271L33.5048 28.1941L32.6902 29.1234L32.7682 29.0254C32.5107 29.383 32.2689 29.8395 32.0021 30.4281L32.0021 30.4281C31.8425 30.7802 31.3023 31.472 30.2635 31.3937H30.2634C29.1948 31.3131 28.5441 30.6492 28.2857 29.9676L28.2857 29.9676C28.1182 29.526 28.0877 29.0429 28.1367 28.5649L28.1367 28.5649C28.1388 28.5449 28.1412 28.5223 28.1436 28.5024C28.2134 27.9054 28.5661 27.4555 28.9435 27.1485L28.9434 27.1486C29.2766 26.8775 29.6604 26.6892 29.9967 26.5555C30.7552 26.254 31.6551 26.5367 32.0068 27.1869C32.3585 27.8371 32.0287 28.6087 31.2703 28.9102C31.1039 28.9763 31.0374 29.0233 31.0274 29.0313L31.0274 29.0314C31.03 29.0292 31.1355 28.9366 31.156 28.7613C31.1549 28.7708 31.1535 28.7833 31.1526 28.7922L31.1526 28.7922C31.1269 29.0435 31.1607 29.154 31.1649 29.1652L31.1649 29.1651C31.1573 29.1451 30.9867 28.8426 30.5286 28.8081H30.5285C29.6312 28.7405 29.2509 29.3318 29.1801 29.488L29.1801 29.488C29.469 28.8508 29.7893 28.2213 30.1919 27.6621C30.2162 27.6284 30.2422 27.5957 30.2699 27.564L31.0846 26.6347C31.0943 26.6236 31.1043 26.6126 31.1144 26.6018C31.2978 26.406 31.604 26.146 32.0784 25.9849H32.0784C32.9411 25.6918 33.7823 25.4976 34.4906 25.5174L34.4615 25.5169L34.4632 25.5169L34.4932 25.5175C34.3087 25.5122 34.0586 25.5354 33.7955 25.6451L33.7927 25.6463C32.6787 26.1132 32.9928 27.4084 32.961 26.8002V26.8003C32.967 26.9163 32.7911 25.8665 33.8872 25.4068L33.8874 25.4067C34.1722 25.2873 35.1403 24.9972 36.2346 25.6141L34.0661 26.0897C34.2595 25.7776 34.6483 25.3934 35.3066 25.2921L35.3063 25.2921C35.7892 25.2177 36.1868 25.3479 36.2516 25.3671L36.2526 25.3674C36.2772 25.3748 36.3008 25.3821 36.3128 25.3858L36.3133 25.386C36.3316 25.3917 36.3311 25.3916 36.3353 25.3928L36.3356 25.3929C36.3816 25.4065 36.1265 25.3145 35.7809 25.3677L35.7808 25.3677C36.7754 25.2146 37.5708 25.2603 37.9133 25.2893L37.9134 25.2893C37.5466 25.2582 36.6781 25.3812 36.3986 26.167L36.3986 26.1669C36.1071 26.9859 36.8891 27.4049 36.5829 27.1644L36.583 27.1645C36.5749 27.1581 36.4988 27.1044 36.3396 27.0628C36.8233 27.1893 37.1206 26.9918 37.1134 26.9969C37.1063 27.0019 37.0122 27.0729 36.8597 27.2901C36.6139 27.6404 36.1898 27.8709 35.7153 27.9122C35.2409 27.9534 34.7715 27.8005 34.4486 27.4996C34.4291 27.4815 34.4469 27.5013 34.4978 27.5279L34.4975 27.5278C34.5426 27.5514 34.5819 27.5605 34.4712 27.5251L34.4713 27.5252C34.3412 27.4836 34.0966 27.407 33.805 27.2544C33.6393 27.1677 33.4946 27.0545 33.3789 26.9209C33.5656 27.1364 33.7789 27.2231 33.6992 27.1832L33.6991 27.1831C33.6529 27.1599 33.4803 27.0873 33.1007 26.9534L33.1014 26.9537C33.1786 26.9808 33.2241 26.9891 33.2122 26.9866L33.2117 26.9865C33.212 26.9866 33.1988 26.9839 33.1772 26.9804L33.0637 26.9587L33.0634 26.9587L33.1772 26.9804C33.2277 26.9884 33.0272 26.9568 33.0783 26.9649L33.0786 26.9649C32.705 26.906 32.4808 26.8721 32.3085 26.8607H32.3083C32.4236 26.8684 32.4774 26.8487 32.4706 26.851L32.4708 26.8509C32.4697 26.8512 32.4702 26.8511 32.4683 26.8518C31.8196 27.0973 31.5259 27.3742 31.4008 27.5844C31.0015 28.2549 30.8433 28.6038 30.8151 28.6929C30.7983 28.7458 30.8574 28.6021 30.8361 28.3863C30.8508 28.5347 30.8355 28.6841 30.7911 28.828C30.7956 28.8135 30.7968 28.8058 30.7968 28.8062L30.7968 28.8062C30.7959 28.8114 30.7881 28.8692 30.8045 28.9895C30.7942 28.9138 30.77 28.8653 30.7592 28.8465L30.7592 28.8465C30.8177 28.949 30.6187 28.4779 29.999 28.28L29.9992 28.28C28.7803 27.8906 28.1699 28.8359 28.0899 29.0204C28.3815 28.3486 29.253 28.0066 30.0365 28.2566C30.8201 28.5065 31.219 29.2537 30.9274 29.9255Z" fill="#05276C"/>
<path d="M71.3348 13.0406L71.3348 13.0404C71.33 13.1099 71.3187 13.1856 71.3008 13.2674L71.3008 13.2673C71.2893 13.3201 71.2738 13.3815 71.2543 13.4515C71.2509 13.464 71.2472 13.4764 71.2433 13.4888C71.153 13.7757 71.1005 13.9471 71.0858 14.003L71.0858 14.0029C71.0875 13.9966 71.0894 13.9884 71.0916 13.9784C71.0895 13.9882 71.0872 13.998 71.0848 14.0077C71.08 14.0273 71.0768 14.0408 71.0752 14.0481L71.0752 14.0482C71.0779 14.0357 71.0806 14.0199 71.0834 14.0008C71.0826 14.0061 71.0818 14.0112 71.081 14.0164C71.066 14.1107 71.0533 14.1857 71.0429 14.2414C70.9106 14.9491 70.1342 15.4309 69.3087 15.3175C68.4832 15.2041 67.9212 14.5384 68.0535 13.8307C68.0601 13.795 68.0694 13.74 68.0812 13.6656L68.0789 13.6812C68.0835 13.6491 68.0899 13.614 68.0982 13.5758L68.0982 13.5759C68.1043 13.5474 68.1124 13.5129 68.1224 13.4722L68.1156 13.5015C68.1202 13.4802 68.1258 13.4571 68.1324 13.4321L68.1324 13.432C68.1564 13.3409 68.219 13.1346 68.3202 12.8129L68.3091 12.8502C68.3172 12.8211 68.3225 12.8007 68.325 12.7893L68.325 12.7892C68.3194 12.8152 68.3152 12.8482 68.3124 12.8882C68.3615 12.1726 69.0779 11.6267 69.9125 11.6688C70.7471 11.7109 71.3839 12.325 71.3348 13.0406Z" fill="#05276C"/>
<path d="M73.4094 15.3156C73.5594 15.2655 73.6815 15.1932 73.7756 15.0986C73.7431 15.1313 73.7087 15.1626 73.6725 15.1924L73.6724 15.1925C73.6818 15.1847 73.6889 15.1785 73.6939 15.1738L73.694 15.1737C73.6684 15.198 73.6255 15.2459 73.5652 15.3175C73.0756 15.8984 72.1293 16.0292 71.4516 15.6095C70.7739 15.1897 70.6215 14.3785 71.111 13.7975C71.2361 13.6491 71.3484 13.5277 71.448 13.4332L71.4482 13.4331C71.4909 13.3926 71.5331 13.3551 71.5748 13.3208L71.4716 13.4147C71.7074 13.1776 71.9872 13.005 72.311 12.8969C73.0901 12.6368 73.9675 12.9675 74.2709 13.6354C74.5742 14.3033 74.1885 15.0556 73.4094 15.3156Z" fill="#05276C"/>
<path d="M74.6806 22.8389C74.6873 22.8335 74.6923 22.8293 74.6957 22.8261L74.6955 22.8262C74.6846 22.8368 74.6689 22.8554 74.6487 22.882C74.6455 22.8862 74.6424 22.8902 74.6391 22.8944L74.6387 22.895C74.6396 22.8938 74.6401 22.8931 74.6401 22.8931L74.64 22.8932C74.6027 22.9422 74.5266 23.0585 74.4119 23.2421C74.017 23.8739 73.0996 24.1116 72.3626 23.7731C71.6257 23.4346 71.3484 22.648 71.7432 22.0162C71.8995 21.7662 72.0205 21.585 72.106 21.4728L72.1059 21.473C72.1115 21.4656 72.1174 21.458 72.1236 21.4501L72.1135 21.4631C72.2161 21.3284 72.3229 21.2075 72.4339 21.1006L72.4338 21.1007C72.4959 21.0409 72.5595 20.9852 72.6247 20.9335C73.2384 20.4468 74.1962 20.4788 74.7639 21.0049C75.3316 21.5311 75.2943 22.3522 74.6806 22.8389Z" fill="#05276C"/>
<path d="M77.0748 24.1465C77.0143 24.1757 76.9494 24.2189 76.8801 24.2761C76.8765 24.2791 76.873 24.2819 76.8693 24.2849L76.8692 24.285C76.8718 24.2829 76.8739 24.2811 76.8753 24.2798L76.8755 24.2797C76.8491 24.3033 76.8092 24.3486 76.7561 24.4157C76.2861 25.0084 75.3446 25.1623 74.6531 24.7594C73.9617 24.3564 73.7822 23.5493 74.2522 22.9565C74.4014 22.7684 74.5482 22.6099 74.6928 22.4809L74.693 22.4808C74.726 22.4514 74.759 22.4234 74.7921 22.3966L74.7812 22.4055C75.0352 22.196 75.304 22.0227 75.5877 21.8856C76.316 21.5335 77.2392 21.7543 77.6498 22.3786C78.0605 23.0029 77.803 23.7945 77.0748 24.1465Z" fill="#05276C"/>
<path d="M68.232 23.8264V23.8264C68.4372 23.8823 68.5991 23.9718 68.7177 24.0948V24.0949C68.5857 23.9717 68.4184 23.8789 68.2311 23.8263L68.232 23.8264ZM61.3196 24.4574V24.4575C61.3065 24.4756 61.2932 24.494 61.2799 24.5127C61.2354 24.5746 61.1992 24.6406 61.1717 24.7094V24.7095C61.2106 24.6119 61.2597 24.5278 61.3188 24.4573L61.3196 24.4574ZM65.2638 22.1052V22.1053V22.1054C64.7726 22.0995 64.2617 22.1573 63.7311 22.2784C63.7223 22.2804 63.7136 22.2825 63.7049 22.2847C63.5573 22.3216 63.4087 22.3801 63.2593 22.4602L63.2592 22.4602C63.0243 22.5861 62.7505 22.7888 62.4378 23.0682L62.437 23.0682C62.3861 23.1086 62.3363 23.1539 62.2876 23.204L62.2875 23.2041C62.1252 23.3711 61.828 23.7535 61.396 24.3514L61.3952 24.3514C61.3751 24.3605 61.3528 24.3703 61.3284 24.3811L61.3284 24.3812C60.7649 24.6283 60.5418 25.2204 60.8302 25.7035C61.0305 26.0392 61.425 26.2339 61.8362 26.2387C62.0168 26.2408 61.9816 26.1678 61.815 26.2518C61.3859 26.4679 62.4616 26.2972 62.5667 26.2369L62.1895 26.3526C61.4951 26.9148 62.4539 26.373 62.4638 26.3671L62.4422 26.2672C62.0127 26.9517 61.7959 27.5848 62.7364 27.3322L63.1017 27.5521C62.3197 28.2236 61.6275 28.026 62.6537 27.4402L62.6598 27.4366C62.5513 27.573 62.1791 28.0043 62.9177 27.7329L62.6704 27.843C62.5543 28.0334 61.6179 28.2923 62.6338 28.086L63.649 27.6463C63.5596 27.6695 63.4733 27.7022 63.392 27.744C62.7317 28.0839 62.5749 28.5935 62.9216 29.2728L62.9216 29.2729C62.9612 29.3503 63.0096 29.4314 63.0669 29.5159L63.0669 29.516C63.0792 29.5342 63.0924 29.5522 63.1061 29.5698C63.32 29.8432 63.6257 30.0218 64.0233 30.1054L64.0226 30.1054L65.3007 30.3943C65.3357 30.4022 65.3711 30.4087 65.4068 30.4137C65.5206 30.4298 65.6345 30.4386 65.7483 30.4401L65.7482 30.4402C65.7501 30.4402 65.752 30.4402 65.7539 30.4402C65.9154 30.442 66.0753 30.4293 66.2337 30.4021L66.2339 30.402C66.447 30.3653 66.6536 30.3029 66.8539 30.2149L66.853 30.215C68.2762 29.6913 69.2121 28.7803 69.6608 27.4821L69.6599 27.4822C69.9805 26.7863 70.0074 26.0016 69.7405 25.128C69.7313 25.0979 69.7204 25.0683 69.7079 25.0391C69.6129 24.8166 69.468 24.6284 69.2732 24.4745C69.2149 24.4285 69.1512 24.3877 69.083 24.3529C68.9568 24.2884 68.8683 24.2378 68.8176 24.2009L68.8168 24.201C68.797 24.1765 68.7761 24.1529 68.7539 24.1302L68.7531 24.1302C68.6757 24.0179 68.523 23.7659 68.295 23.3741C68.2758 23.3412 68.2545 23.3092 68.2311 23.2783C68.0608 23.0532 67.8437 22.8547 67.5796 22.6828C67.5377 22.6555 67.4935 22.6306 67.4476 22.6085C66.7691 22.2819 66.0412 22.1142 65.2638 22.1052Z" fill="#05276C"/>
<path d="M64.1596 30.5697C64.2488 30.2596 64.4433 29.9715 64.7433 29.7053L64.7438 29.7049C64.753 29.6967 64.7629 29.6881 64.7733 29.6791C64.7914 29.6635 64.8098 29.6484 64.8288 29.6336L64.8248 29.6367L64.8256 29.6361L64.8296 29.6329C65.1423 29.3891 65.366 29.223 65.5006 29.1346L65.5004 29.1346C66.2863 28.6183 66.9941 28.6563 67.6236 29.2486L67.626 29.2508C67.773 29.3898 67.8799 29.5485 67.9468 29.7272L65.6754 29.0386C66.3293 28.6709 67.0192 28.7134 67.7448 29.1659L67.7449 29.166C67.8766 29.2482 68.0158 29.3493 68.1624 29.4694C68.1995 29.4998 68.2348 29.5318 68.2681 29.5652L68.268 29.5652C68.5284 29.8268 68.7273 30.0774 68.8648 30.3172L68.8648 30.3172C69.0871 30.705 69.1663 31.0856 69.1025 31.4592L69.1167 31.2086C69.1303 31.4514 69.0821 31.7048 68.9719 31.9687L68.972 31.9686C68.9073 32.1237 68.8188 32.2881 68.7067 32.4619C68.6963 32.4781 68.6855 32.494 68.6743 32.5097C68.6208 32.5849 68.566 32.6551 68.5101 32.7203L68.5101 32.7202C68.2278 33.0492 67.8944 33.2719 67.5101 33.3881L67.8557 33.2386C67.5975 33.3886 67.2863 33.4843 66.9222 33.5257H66.9222C66.6428 33.5574 66.3001 33.5602 65.8942 33.534C65.8716 33.5325 65.849 33.5306 65.8266 33.5283L65.8265 33.5283C65.797 33.5252 65.7681 33.5219 65.7397 33.5182L65.7401 33.5183C65.1184 33.4387 64.6223 33.2137 64.2517 32.8433C64.2383 32.8298 64.2254 32.8164 64.2126 32.8025C63.686 32.2305 63.583 31.6092 63.9038 30.9385L63.8146 31.2007C63.8682 30.9456 63.9962 30.6942 64.1985 30.4468L64.1985 30.4468C64.2386 30.3977 64.282 30.3483 64.3287 30.2983C64.3578 30.2673 64.3886 30.2374 64.4209 30.2087C64.6874 29.9723 65.0035 29.8142 65.369 29.7343C66.1791 29.5572 67.0033 29.9767 67.2099 30.6712C67.4164 31.3657 66.9271 32.0724 66.117 32.2494C66.3061 32.2081 66.4663 32.1292 66.5977 32.0127L66.6898 31.9231C66.6842 31.929 66.6802 31.9335 66.6778 31.9365L66.6778 31.9365C66.7303 31.8722 66.7691 31.7804 66.7942 31.661C66.7753 31.7508 66.7454 31.8387 66.705 31.9232C66.8315 31.6587 66.7929 31.4157 66.5891 31.1944L66.55 31.1536C66.4307 31.0343 66.3098 30.9669 66.1874 30.9512L66.1878 30.9512C66.1884 30.9513 66.1888 30.9514 66.1892 30.9514L66.1215 30.9457C66.3185 30.9584 66.4529 30.9607 66.5244 30.9526H66.5244C66.416 30.9649 66.2937 31.0106 66.1574 31.0898C66.2646 31.0276 66.3808 30.9773 66.503 30.9403C66.3013 31.0013 66.1575 31.0819 66.0716 31.182L66.0716 31.1819C66.0758 31.1771 66.0818 31.1691 66.0897 31.1579L66.0574 31.2057C66.0904 31.1545 66.1117 31.1174 66.1214 31.0942L66.1214 31.0942C66.0966 31.1536 66.087 31.2333 66.0926 31.3334C66.0879 31.2497 66.0927 31.1658 66.1069 31.0829C66.0798 31.2411 66.0934 31.3675 66.1477 31.4621L66.1477 31.4621C66.122 31.4173 66.0611 31.3466 65.9651 31.2502L66.0708 31.346C66.0218 31.3059 65.986 31.2788 65.9636 31.2648L65.9637 31.2649C66.3659 31.5157 66.8232 31.4972 67.3355 31.2091C66.9403 31.4314 66.4465 31.4825 66.0008 31.3474C65.5551 31.2123 65.2086 30.9065 65.0641 30.5206C65.1307 30.6983 65.2371 30.8563 65.3835 30.9947L65.3858 30.9969C66.0046 31.5791 66.6567 31.6451 67.342 31.1948L67.3419 31.1949C67.2748 31.239 67.1164 31.3583 66.8666 31.5531L66.8707 31.5499L66.8699 31.5506L66.9213 31.5082C66.9213 31.5082 66.9209 31.5086 66.9201 31.5093L66.9206 31.5088C66.9986 31.4397 67.0581 31.3338 67.0991 31.1912C66.8989 31.8871 66.0786 32.3121 65.2669 32.1405C64.4552 31.9689 63.9594 31.2656 64.1596 30.5697Z" fill="#05276C"/>
<path d="M22.1629 71.0206C21.7662 71.295 21.0841 71.8905 20.1169 72.8073C19.5561 73.3389 18.5988 73.38 17.9788 72.8992C17.3588 72.4184 17.3108 71.5977 17.8716 71.0661C18.9451 70.0486 19.742 69.3601 20.2621 69.0004C20.9128 68.5504 21.8658 68.6378 22.3907 69.1957C22.9156 69.7535 22.8136 70.5705 22.1629 71.0206Z" fill="#05276C"/>
<path d="M23.212 72.8811L23.2122 72.881C23.5749 72.8014 23.8438 72.6479 24.0187 72.4205L24.0188 72.4205C23.9345 72.53 23.7373 72.8513 23.4274 73.3842C23.0543 74.0256 22.1453 74.2863 21.3972 73.9664C20.649 73.6465 20.3449 72.8673 20.718 72.2259C21.0822 71.5997 21.34 71.1882 21.4914 70.9915L21.4914 70.9914C21.7457 70.6609 22.069 70.4526 22.4614 70.3665C23.2716 70.1888 24.0961 70.6077 24.3033 71.3021C24.5105 71.9965 24.0219 72.7034 23.212 72.8811Z" fill="#05276C"/>
<path d="M24.3432 80.084L24.3431 80.084C24.3992 80.054 24.4428 80.0266 24.4739 80.0018C24.3741 80.0813 24.1635 80.295 23.8419 80.6429C23.3228 81.2047 22.3707 81.2993 21.7154 80.8542C21.0601 80.4091 20.9497 79.5928 21.4689 79.031C21.8858 78.5799 22.2005 78.2697 22.413 78.1005L22.413 78.1004C22.5233 78.0126 22.6324 77.9398 22.7402 77.8821C23.4494 77.5026 24.3832 77.6878 24.8258 78.2959C25.2685 78.9039 25.0524 79.7045 24.3432 80.084Z" fill="#05276C"/>
<path d="M27.2638 80.9452L27.2769 80.9319L27.2768 80.9321L27.2637 80.9454C27.1491 81.0598 27.0491 81.1829 26.9636 81.3145C26.5569 81.9407 25.6351 82.1657 24.9046 81.817C24.1742 81.4684 23.9117 80.6781 24.3184 80.0518C24.5029 79.7677 24.7188 79.5021 24.966 79.2551L24.9529 79.2684L24.9531 79.2682C25.5107 78.711 26.4663 78.6484 27.1008 79.1152C27.7353 79.582 27.8082 80.4013 27.2638 80.9452Z" fill="#05276C"/>
<path d="M31.8133 65.5541L31.8132 65.5541C31.9254 65.6649 32.036 65.7316 32.1448 65.7543L32.1448 65.7542C32.0394 65.7323 31.839 65.7353 31.5434 65.7632L31.6836 65.7442C31.176 65.8339 30.5068 66.026 29.6763 66.3206C29.6712 66.3224 29.6665 66.324 29.6614 66.3258L29.5396 66.3626L29.5394 66.3626L29.6614 66.3258C29.5158 66.3759 29.3367 66.4626 29.1239 66.586L29.2822 66.4804C28.8797 66.7876 28.7925 67.2507 29.0204 67.8697L29.0179 67.8629C29.1259 68.1506 29.451 68.4794 29.9932 68.8491L29.8848 68.7817C30.6564 69.2184 31.1744 69.4562 31.4387 69.4952H31.4388C31.3843 69.4872 31.3125 69.4907 31.2232 69.5059L31.116 69.5276C31.467 69.4449 31.6995 69.3796 31.8132 69.3317L31.6055 69.4376L32.6845 68.7826L32.6724 68.79C32.6697 68.7917 32.6677 68.793 32.6664 68.7939L32.6661 68.7941C32.8061 68.6987 33.0474 68.4432 33.39 68.0275L33.3102 68.1352C33.2387 68.243 33.2183 68.3778 33.2489 68.5395L33.2843 68.6782L33.2843 68.678L33.2779 68.6576C33.0839 68.0171 32.9683 67.5754 32.9312 67.3326C32.8988 67.1198 32.9283 66.9035 33.0173 66.703L33.0172 66.703C32.6697 67.4868 32.9544 68.0281 33.8712 68.3269C34.1055 68.4033 34.3152 68.4261 34.5005 68.3954L34.5007 68.3954C34.4629 68.4016 34.3949 68.418 34.2966 68.4445C33.4991 68.6594 32.6493 68.2794 32.3986 67.5956C32.1479 66.9118 32.5912 66.1833 33.3888 65.9684C33.5962 65.9125 33.7749 65.8721 33.9249 65.8471L33.9251 65.8471C34.3038 65.7843 34.6445 65.8022 34.9471 65.9008C35.9168 66.2169 36.2168 66.7917 35.8472 67.6253L35.9332 66.9957C35.954 67.1322 36.0457 67.4687 36.2082 68.0051L36.2018 67.9848L36.2019 67.985C36.2201 68.0444 36.2298 68.0839 36.2374 68.1237C36.3207 68.5639 36.2224 68.9951 35.9426 69.4174C35.918 69.4544 35.8914 69.4903 35.8627 69.5251C35.3534 70.1433 34.9155 70.5771 34.549 70.8266L34.5487 70.8268C34.5145 70.8501 34.4803 70.8724 34.446 70.8936C34.4421 70.896 34.4381 70.8985 34.434 70.901L33.3549 71.556C33.2891 71.596 33.2196 71.6313 33.1472 71.6618C32.8624 71.7816 32.4527 71.9045 31.918 72.0305C31.8826 72.0388 31.8468 72.046 31.8108 72.0521C31.5338 72.0991 31.2387 72.0995 30.9252 72.0532H30.9254C30.2442 71.9527 29.3414 71.5843 28.2168 70.9479C28.1796 70.9268 28.1434 70.9043 28.1085 70.8804C27.0884 70.1848 26.4309 69.444 26.1359 68.658L26.1334 68.6512C25.5119 66.9636 25.8906 65.5938 27.2693 64.5416C27.3193 64.5035 27.3722 64.4682 27.4276 64.4361C27.8191 64.209 28.1878 64.036 28.5336 63.917L28.6556 63.8801L28.6557 63.8801L28.519 63.9221C29.5264 63.5649 30.3775 63.3248 31.0725 63.202C31.1189 63.1938 31.1657 63.1875 31.2127 63.1831C31.8603 63.1221 32.4089 63.1383 32.8584 63.2318L32.8583 63.2318C33.3758 63.3394 33.7896 63.5464 34.0999 63.8529C34.6478 64.3942 34.5801 65.2139 33.9487 65.6837C33.3173 66.1534 32.3612 66.0954 31.8133 65.5541Z" fill="#05276C"/>
<path d="M28.2809 66.1516L28.2806 66.1515C28.3156 66.1608 28.3438 66.167 28.3652 66.1699L28.3655 66.17C28.2667 66.1563 28.0578 66.1509 27.7387 66.1536C27.6755 66.1542 27.6124 66.1514 27.5496 66.1451H27.5495C27.058 66.0964 26.6214 65.8859 26.2398 65.5135L26.2403 65.514C26.2274 65.5015 26.2145 65.4886 26.2014 65.4753C26.1922 65.466 26.1831 65.4565 26.1742 65.4469C25.85 65.0987 25.617 64.8 25.4752 64.5508L25.4753 64.5509C25.4141 64.4434 25.3652 64.3384 25.3287 64.2358C25.3259 64.2279 25.3231 64.2198 25.3204 64.2119C25.1552 63.7144 25.0835 63.2803 25.1054 62.9093C25.1092 62.8444 25.1158 62.7808 25.1252 62.7186C25.134 62.6601 25.1474 62.6022 25.1654 62.5453C25.2487 62.2819 25.4047 62.0304 25.6335 61.7907L25.6335 61.7907C25.9622 61.4463 26.4892 61.0908 27.2145 60.724C27.3235 60.6689 27.4402 60.6257 27.5617 60.5955C28.2208 60.4315 29.0472 60.4357 30.0407 60.6082C30.0542 60.6106 30.0673 60.613 30.0808 60.6157C30.8439 60.7668 31.337 61.1542 31.56 61.7779L31.3259 61.382C31.5148 61.5991 31.6235 61.8666 31.6521 62.1846C31.6661 62.341 31.6671 62.5627 31.6548 62.8494L31.6558 62.7956C31.6562 62.8649 31.6522 62.9376 31.6438 63.0139L31.6438 63.0138C31.6332 63.1105 31.615 63.2168 31.5891 63.3326C31.5856 63.3483 31.5818 63.3639 31.5776 63.3795C31.5186 63.5996 31.437 63.9593 31.3328 64.4584L31.3467 64.377L31.2807 64.872L31.2819 64.8626C31.2745 64.9224 31.2614 64.9877 31.2427 65.0585L31.2427 65.0585C31.2181 65.1521 31.1703 65.3038 31.0995 65.5137C30.8673 66.2022 30.0279 66.5989 29.2248 66.3998C28.4217 66.2007 27.9589 65.481 28.1912 64.7925C28.2454 64.632 28.2782 64.5299 28.2897 64.4864L28.2896 64.4865C28.2825 64.5135 28.2765 64.5469 28.2715 64.5867L28.2727 64.5773L28.3387 64.0823C28.3423 64.0551 28.347 64.0279 28.3526 64.001C28.4655 63.4604 28.5569 63.0595 28.627 62.7982L28.6155 62.8451C28.6233 62.81 28.628 62.785 28.6297 62.77L28.6297 62.7699C28.6287 62.7792 28.6282 62.792 28.6283 62.8084C28.6282 62.7905 28.6285 62.7725 28.6293 62.7546C28.6374 62.566 28.6387 62.4424 28.6335 62.3838C28.6498 62.5659 28.7385 62.7495 28.8995 62.9344C28.7954 62.8148 28.7162 62.6809 28.6653 62.5385C28.7835 62.8691 29.0283 63.0712 29.3997 63.1447L29.4398 63.1522C28.9327 63.0641 28.5879 63.0428 28.4054 63.0882L28.7526 62.9597C28.3365 63.17 28.0778 63.3283 27.9765 63.4345L27.9765 63.4345C28.021 63.3879 28.058 63.3179 28.0875 63.2243L28.1278 63.051C28.1285 63.0463 28.1289 63.0427 28.1291 63.0402C28.1241 63.1253 28.1585 63.2789 28.2322 63.501L28.224 63.4771C28.2141 63.4494 28.2049 63.428 28.1964 63.413L28.1964 63.4131C28.2405 63.4906 28.3551 63.6287 28.5402 63.8276L28.513 63.7991C28.5132 63.7994 28.5135 63.7996 28.5138 63.7999L28.5143 63.8004C28.3831 63.6724 28.1774 63.5945 27.8971 63.5667L27.708 63.5582C28.1992 63.5539 28.5791 63.5704 28.8477 63.6075L28.848 63.6076C28.9678 63.6242 29.0784 63.646 29.18 63.6731C29.9781 63.8858 30.424 64.6131 30.1758 65.2976C29.9276 65.982 29.0792 66.3643 28.2809 66.1516Z" fill="#05276C"/>
<path d="M30.2099 64.0806L30.2293 64.072L30.2288 64.0723L30.2093 64.0809C29.5956 64.3459 29.1398 64.5176 28.8416 64.5959C28.686 64.6368 28.5394 64.6628 28.4019 64.6739L28.6068 64.6452C28.1329 64.7406 27.7023 64.7134 27.3149 64.5636L27.3325 64.5702C26.3479 64.2021 26.0556 63.5926 26.4555 62.7418L26.4373 62.7825C26.5048 62.6237 26.6029 62.4655 26.7315 62.308L26.7315 62.3081C26.8993 62.1025 27.1364 61.8792 27.4428 61.6381L27.402 61.6714C28.2431 60.9584 29.0579 60.9438 29.8465 61.6276L29.8469 61.6279C29.9184 61.69 29.9838 61.7576 30.0431 61.8308L30.047 61.8356C30.2314 62.0658 30.3323 62.3395 30.3495 62.6569C30.3517 62.6972 30.3517 62.7375 30.3495 62.7778L30.3236 63.2524L30.324 63.1385L30.356 63.8081C30.3568 63.8234 30.3572 63.8387 30.3573 63.854C30.3587 64.0733 30.3477 64.299 30.3241 64.5311L30.3292 64.4559C30.3295 64.4468 30.3296 64.4395 30.3295 64.434L30.3295 64.4339C30.3297 64.4489 30.3311 64.4778 30.3336 64.5208C30.3757 65.2366 29.7329 65.8462 28.898 65.8822C28.063 65.9183 27.352 65.3673 27.3099 64.6514C27.3054 64.5744 27.3028 64.5113 27.3022 64.4621L27.3022 64.4621C27.3018 64.4332 27.3021 64.4063 27.3029 64.3812C27.3037 64.3561 27.3054 64.331 27.308 64.306C27.3234 64.1537 27.3307 64.0079 27.3298 63.8686L27.331 63.9146L27.299 63.2451C27.2972 63.2072 27.2973 63.1692 27.2993 63.1312L27.3252 62.6566L27.3252 62.7775C27.3347 62.953 27.4102 63.1291 27.5517 63.3056L27.5556 63.3104C27.5961 63.3604 27.642 63.4077 27.6934 63.4523L27.6937 63.4526C28.3242 63.9992 28.9366 64.0207 29.5307 63.5171C29.5174 63.5284 29.5038 63.5395 29.49 63.5504C29.346 63.6637 29.2532 63.7457 29.2118 63.7965L29.2118 63.7965C29.2352 63.7678 29.2586 63.7261 29.2818 63.6713C29.276 63.6851 29.2699 63.6986 29.2636 63.712C29.5972 63.0025 29.3569 62.4955 28.5427 62.191C28.5488 62.1933 28.5543 62.1954 28.5603 62.1978C28.3229 62.1059 28.1074 62.0795 27.914 62.1184C27.9814 62.1048 28.0499 62.0953 28.1188 62.0897C28.0508 62.0952 27.996 62.1034 27.9545 62.1143C28.0888 62.079 28.3864 61.9618 28.8471 61.7628L28.8276 61.7714L28.8281 61.7712C29.5942 61.4401 30.5044 61.6976 30.8806 62.3376C31.2568 62.9778 30.9565 63.7581 30.2099 64.0806Z" fill="#05276C"/>
<path d="M32.7756 64.693C32.7173 64.6923 32.6585 64.6954 32.5997 64.7025C31.9225 64.7845 31.4072 64.9053 31.0537 65.0648L31.0537 65.0649C30.9833 65.0966 30.9172 65.1299 30.8552 65.1646L30.8547 65.1647C30.7369 65.181 30.6096 65.1985 30.4729 65.2172C30.4613 65.2188 30.4496 65.2206 30.4381 65.2225C30.1942 65.2625 29.9252 65.3326 29.6312 65.4328C29.5847 65.4487 29.5395 65.4671 29.4958 65.488C29.0615 65.6959 28.7399 65.8836 28.531 66.0512L28.531 66.0513C28.2056 66.3122 28.0381 66.6046 28.0283 66.9286L28.0283 66.9287C28.0217 67.107 28.0317 67.2758 28.0585 67.435L28.0581 67.4351C27.8197 67.6407 27.7415 67.9312 27.8234 68.3063V68.3064C27.8985 68.6505 28.1223 68.894 28.4948 69.037L28.4944 69.037C28.3844 69.5027 28.6324 69.9105 29.2382 70.2605L29.2383 70.2606C29.3025 70.2977 29.3715 70.3335 29.4454 70.368L29.4453 70.3681C29.4672 70.3782 29.4895 70.3878 29.5121 70.3968C30.063 70.6157 30.5926 70.7281 31.101 70.734C31.2295 70.7355 31.3565 70.7302 31.4822 70.718L31.4817 70.7181C31.6561 70.7037 31.8168 70.6722 31.9637 70.6236L31.9637 70.6236C32.4689 70.4563 32.7713 70.2068 32.8707 69.8752L32.8702 69.8753C32.9224 69.849 32.973 69.8188 33.022 69.7846L33.022 69.7847C33.0646 69.755 33.1044 69.7251 33.1415 69.695L33.141 69.6951C33.1575 69.6886 33.1739 69.6819 33.1901 69.675L33.1901 69.6749C33.5464 69.521 33.7678 69.3275 33.8542 69.0946L33.8537 69.0947C34.0916 68.9876 34.2877 68.8222 34.442 68.5985C34.5161 68.491 34.5657 68.3724 34.588 68.2491C34.6588 67.8584 34.5829 67.5182 34.3603 67.2285L34.3597 67.2286C34.4287 67.1 34.4663 66.957 34.4643 66.8069C34.4598 66.4632 34.2492 66.1604 33.9315 65.9876L33.931 65.9877C34.0202 65.7359 33.9536 65.4579 33.7311 65.1537L33.7311 65.1538C33.5224 64.8682 33.1606 64.6974 32.7756 64.693Z" fill="#05276C"/>
<path d="M62.9985 78.1343L63.5954 78.5742C63.604 78.5804 63.6124 78.5868 63.6207 78.5932C63.7193 78.6692 63.8758 78.7974 64.0904 78.978C64.687 79.4801 64.6958 80.3018 64.1101 80.8133C63.5245 81.3247 62.566 81.3323 61.9694 80.8302C61.7864 80.6762 61.6622 80.574 61.5969 80.5237L61.6222 80.5427L61.0252 80.1029C60.3911 79.6357 60.3189 78.8164 60.8638 78.2727C61.4087 77.7292 62.3644 77.6672 62.9985 78.1343Z" fill="#05276C"/>
<path d="M65.6527 77.1732L65.6535 77.1734C65.685 77.1846 65.7189 77.1974 65.7551 77.2119L65.7565 77.2124C65.7728 77.219 65.7908 77.2264 65.8104 77.2346C65.8179 77.2378 65.825 77.2408 65.8325 77.2441L65.8412 77.2479C65.8607 77.2564 65.8799 77.2652 65.899 77.2745C65.9633 77.3056 66.1266 77.3766 66.389 77.4874C67.139 77.8041 67.4475 78.5821 67.0781 79.2251C66.7087 79.8681 65.8012 80.1326 65.0512 79.8158C64.7373 79.6833 64.5232 79.5893 64.4092 79.5341L64.4669 79.5607L64.4583 79.5569L64.4804 79.5663C64.477 79.5649 64.4739 79.5636 64.4712 79.5625L64.4725 79.563C64.4794 79.5658 64.4885 79.5692 64.4999 79.5732C63.7275 79.3008 63.3587 78.5423 63.6768 77.8795C63.9949 77.2167 64.8795 76.9004 65.6527 77.1732Z" fill="#05276C"/>
<path d="M76.6705 76.2552L76.6706 76.2554C76.6613 76.2386 76.6533 76.2252 76.6468 76.2153L76.6469 76.2155C76.6976 76.2919 76.8446 76.4784 77.0879 76.775C77.0984 76.7879 77.1087 76.8009 77.1187 76.814L77.158 76.8689L77.1582 76.869L77.1188 76.8142C77.1664 76.877 77.2093 76.9379 77.2474 76.997L77.2473 76.9969C77.2695 77.0311 77.2901 77.065 77.3094 77.0984C77.6791 77.7413 77.371 78.5194 76.6211 78.8364C75.8713 79.1534 74.9637 78.8891 74.5939 78.2463C74.5959 78.2497 74.5975 78.2523 74.5986 78.254L74.5985 78.2539C74.5951 78.2486 74.5892 78.2404 74.5807 78.2293L74.5413 78.1744L74.5412 78.1742L74.6113 78.2681C74.3124 77.9036 74.1137 77.6471 74.0152 77.4987L74.0153 77.4988C73.9842 77.4521 73.9571 77.4077 73.934 77.3657C73.5763 76.718 73.8989 75.9442 74.6546 75.6376C75.4102 75.3309 76.3128 75.6074 76.6705 76.2552Z" fill="#05276C"/>
<path d="M74.3379 77.0213C74.3562 77.1559 74.5274 78.3042 74.5536 78.4468L74.5535 78.4467C74.5546 78.4523 74.552 78.4375 74.547 78.4157C74.7075 79.1192 74.1724 79.8009 73.3519 79.9384C72.5314 80.076 71.7362 79.6172 71.5757 78.9138C71.5691 78.8849 71.5645 78.8595 71.5628 78.8505L71.5628 78.8504C71.5263 78.6516 71.3493 77.4588 71.3306 77.3216C71.2339 76.6097 71.8286 75.9653 72.6591 75.8824C73.4895 75.7994 74.2411 76.3093 74.3379 77.0213Z" fill="#05276C"/>
<path d="M59.9654 72.8634C60.3927 72.4577 60.4527 72.0358 60.1452 71.5977L60.049 71.4766L60.3899 71.8575C60.452 71.9268 60.5058 72.0014 60.5504 72.0801C60.7475 72.4275 60.9105 72.6665 61.0395 72.7971C61.0525 72.8103 61.0652 72.8237 61.0777 72.8373L61.0776 72.8373C61.3317 73.1163 61.5243 73.2824 61.6556 73.3354L61.6555 73.3354C61.6405 73.3293 61.6184 73.3238 61.5892 73.319C61.6855 73.335 61.7798 73.3589 61.8707 73.3906L61.8706 73.3905C61.8116 73.37 61.7635 73.3582 61.7261 73.355H61.7262C61.9805 73.3767 62.5256 73.2773 63.3614 73.0568L63.346 73.0609C63.6173 72.9866 64.0521 72.7435 64.6504 72.3316C65.2758 71.9011 66.1844 71.9635 66.7218 72.4739L66.7222 72.4742C66.056 71.8411 65.3718 71.7963 64.6696 72.3398L64.6701 72.3395C64.6642 72.3441 64.6596 72.3477 64.6565 72.3504L64.6566 72.3503C64.8184 72.2133 65.2553 71.7428 65.9671 70.9386L65.7975 71.1811C65.9912 70.8198 66.1018 70.4445 66.1293 70.0552L66.1473 70.3479C66.0482 69.8403 65.8667 69.479 65.603 69.2641C65.5421 69.2144 65.486 69.1605 65.4355 69.1028C65.3023 68.9507 65.198 68.8596 65.1226 68.8295C65.1576 68.8435 65.1979 68.8468 65.2436 68.8394C64.422 68.9721 63.6305 68.5086 63.4757 67.8043C63.3209 67.0999 63.8615 66.4214 64.6831 66.2887C65.2755 66.193 65.8486 66.2558 66.4021 66.4771C66.9352 66.6902 67.4199 67.0459 67.8564 67.5441L67.6888 67.3828C68.4413 67.9959 68.9228 68.8414 69.1333 69.9192C69.1522 70.0159 69.1582 70.1141 69.1513 70.212C69.101 70.9249 68.9 71.6093 68.5484 72.2651C68.5024 72.351 68.4455 72.4324 68.3789 72.5076C67.5798 73.4104 67.0479 73.9737 66.7833 74.1976L66.7834 74.1975C66.7544 74.2221 66.7259 74.2452 66.6981 74.2667L66.6986 74.2663C65.902 74.8829 65.1606 74.8651 64.4742 74.2129L66.546 74.3555C65.6554 74.9686 64.8959 75.3612 64.2675 75.5333C64.2627 75.5347 64.257 75.5362 64.2521 75.5375C63.0273 75.8607 62.0851 75.9941 61.4257 75.9377H61.4258C61.1738 75.9162 60.9427 75.8689 60.7323 75.7957L61.0137 75.8672C60.7948 75.8309 60.5785 75.7696 60.3651 75.6834L60.365 75.6833C59.7988 75.4546 59.2408 75.0383 58.691 74.4343L58.7292 74.4746C58.4362 74.178 58.1357 73.7582 57.8277 73.2151L57.9881 73.4377L57.6472 73.0568C57.6125 73.0181 57.5803 72.9776 57.5509 72.9358C57.0868 72.2744 57.1427 71.6704 57.7184 71.1237C58.2788 70.5918 59.236 70.55 59.8565 71.0304C60.477 71.5108 60.5257 72.3314 59.9654 72.8634Z" fill="#05276C"/>
<path d="M62.1525 74.6405C61.447 74.5311 60.7364 74.3616 60.1824 74.0556L60.1823 74.0556C59.9759 73.9415 59.7605 73.792 59.5746 73.5953C59.4453 73.4584 59.3498 73.3004 59.294 73.1309L59.294 73.1309C58.8768 71.8635 60.3218 71.4133 60.5197 71.3654L60.5195 71.3655C60.6205 71.341 60.7166 71.3242 60.8042 71.3119L60.8041 71.3119C61.0076 71.2833 61.2218 71.2718 61.4221 71.2679L61.4767 71.2677H61.4768L61.4223 71.2679C61.9381 71.2579 62.6216 71.3565 63.2925 71.4578H63.2925C63.3115 71.4607 63.3216 71.4616 63.3221 71.4616H63.3222C64.5634 71.5669 62.2071 71.0121 61.8994 72.5164L61.9008 72.51C61.8602 72.7025 61.873 72.8909 61.9245 73.0623L62.7722 73.9231C62.3384 73.7568 61.7634 73.6016 61.1074 73.4267C60.5806 73.2863 59.9498 73.1204 59.4734 72.9377L59.4736 72.9377C59.3309 72.8831 59.1744 72.8166 59.023 72.7369L59.8148 71.6308L59.0231 72.737C58.8589 72.6506 58.0766 72.2437 58.0356 71.4183C58.0182 71.0691 58.1658 70.7287 58.4451 70.474C58.7243 70.2194 59.1116 70.0721 59.5191 70.0655C60.2479 70.0535 63.2073 70.0844 64.5711 70.7317L64.5701 70.7312C64.5945 70.7427 64.6198 70.7552 64.6447 70.7678L64.6447 70.7678C64.7897 70.8414 64.9353 70.9241 65.0728 71.0181L65.0729 71.0182C65.2952 71.1701 66.0684 71.7381 65.8528 72.6374C65.8262 72.7481 65.783 72.8553 65.724 72.9564C65.2262 73.8101 64.182 74.0002 63.3656 73.8327H63.3655C62.7145 73.6991 62.1198 73.3354 61.8238 72.7679C61.3664 71.8912 62.0182 71.1574 62.6647 70.9094L62.665 70.9093C62.9654 70.7941 63.2593 70.7668 63.4378 70.7576H63.4373C63.4719 70.7559 63.5095 70.7545 63.5431 70.7537L63.6041 70.7534H63.6044L63.544 70.7538C63.9709 70.7441 64.3814 70.7704 64.7678 70.8403C65.0726 70.8954 65.4723 70.9926 65.9465 71.1246L65.9564 71.1274C65.9677 71.1306 65.9506 71.1257 65.9619 71.129L65.9504 71.1257C64.9881 70.8568 67.6578 71.2497 67.0582 72.8322L67.0585 72.8316C67.0344 72.8952 67.006 72.9538 66.9752 73.0075C66.7528 73.3943 66.3208 73.6612 65.8224 73.7196C65.324 73.778 64.8243 73.6203 64.4889 73.2989L64.489 73.2989C64.3213 73.1382 64.1934 72.9632 64.0954 72.7928L64.0954 72.7929C63.9188 72.4858 63.8107 72.1447 63.7472 71.7997L63.7473 71.7998C63.6099 71.054 64.1482 70.5636 64.5036 70.3637L64.5038 70.3636C64.9907 70.0899 65.5722 70.1376 65.4979 70.1367H65.4974C65.5874 70.1378 65.6798 70.1424 65.761 70.1473L65.7625 70.1474C65.6706 70.1417 64.2589 70.1348 64.1586 71.3432L64.1587 71.3428C64.0959 72.0956 64.7557 72.4652 64.8074 72.4952L64.8075 72.4953C64.5286 72.3336 64.3825 72.2789 64.3574 72.2709L64.3573 72.2709C64.3399 72.2654 64.4154 72.2926 64.553 72.3027L64.5526 72.3027C64.541 72.3018 64.535 72.3018 64.5353 72.3018H64.5355C64.553 72.3019 64.8433 72.289 65.0757 72.0597L65.4185 71.4574C65.5345 70.9481 65.2497 70.1163 64.2322 69.9434L64.229 69.9429C63.5424 69.8276 62.9478 70.2192 63.291 70.0512L63.2914 70.051C63.2956 70.0489 63.3174 70.0379 63.3645 70.0118L63.349 70.0205L64.6398 69.2851L64.6418 69.284C64.8388 69.1722 64.9062 69.1255 64.9261 69.1093L64.9263 69.1092C64.9267 69.1088 64.9213 69.1132 64.9136 69.1206L64.9133 69.1209C64.9245 69.1102 64.9285 69.1059 64.9291 69.1053L64.9289 69.1055C65.7501 68.2308 63.8205 69.7039 65.1848 70.7526L65.1865 70.7539C65.782 71.2103 66.4576 71.0666 66.5835 71.037C66.3183 71.0994 66.0383 71.0986 65.7736 71.0348L65.2481 70.9082L66.5131 68.5881C66.6922 68.6932 66.8743 68.8115 67.0363 68.9426L67.0362 68.9426C67.0756 68.9744 68.2558 69.88 67.4078 70.9415L67.4093 70.9397C67.3811 70.975 67.3534 71.0065 67.3267 71.0347C66.8 71.5913 65.8467 71.6765 65.1974 71.225C64.5481 70.7735 64.4488 69.9562 64.9754 69.3995C64.9543 69.4219 64.9317 69.4475 64.9084 69.4767L64.9099 69.4748C64.1853 70.3818 65.2577 71.0727 64.9576 70.8298L64.9576 70.8297C64.9507 70.8242 64.9066 70.7908 64.8023 70.7295C64.1909 70.3705 63.9725 69.6848 64.2863 69.1093C64.6002 68.5337 65.3539 68.2375 66.0673 68.4094L66.5928 68.536L65.7829 68.5338C65.9201 68.5016 66.6037 68.3585 67.2042 68.8187L67.2059 68.82C68.594 69.887 66.6116 71.4527 67.2873 70.733L67.2872 70.7332C67.2482 70.7747 67.2092 70.8137 67.1676 70.8535L67.1673 70.8538C67.1147 70.9041 67.0627 70.9493 67.0112 70.9912L67.0114 70.991C66.7783 71.1809 66.508 71.3377 66.3133 71.4482L66.3154 71.447L65.0246 72.1824C65.0193 72.1853 65.0143 72.1881 65.009 72.1911C64.938 72.2305 64.8658 72.2692 64.792 72.3053L64.7925 72.3051C65.0225 72.1924 64.3588 72.6096 63.6469 72.4901L63.6437 72.4895C62.6174 72.3152 62.3291 71.4782 62.4471 70.96C62.4981 70.7365 62.6163 70.529 62.7899 70.3577C63.3275 69.8271 64.0308 69.6999 64.5776 69.7064H64.5778C64.6591 69.7074 64.7382 69.7112 64.8131 69.7167L64.8128 69.7167C65.0514 69.7343 65.26 69.7896 65.4087 69.8369L65.4086 69.8369C65.7458 69.9439 66.1158 70.1205 66.5027 70.3447L66.5029 70.3448C66.5737 70.3859 67.242 70.7668 67.1785 71.5278L67.1786 71.5274C67.0776 72.7446 65.6551 72.7431 65.5441 72.7362L65.5456 72.7363C65.4882 72.7329 65.4609 72.7321 65.4567 72.7321H65.4562C65.2305 72.7294 65.7167 72.7856 66.1638 72.5343L66.1639 72.5342C66.3925 72.4057 66.8522 72.0164 66.7378 71.3951L66.7378 71.3951C66.7689 71.5643 66.8062 71.6369 66.8107 71.6447L66.8107 71.6448C66.8121 71.6471 66.7947 71.6157 66.7456 71.5686L64.2594 71.8601C64.2296 71.9119 64.2019 71.9691 64.1786 72.0309L64.1788 72.0303C63.5953 73.5701 66.1727 73.9179 65.0121 73.5935L65.0005 73.5902C64.9853 73.5859 65.0169 73.5949 65.0016 73.5905L65.0115 73.5933C64.5787 73.4729 64.2947 73.4074 64.1427 73.3799C64.0278 73.3591 63.8583 73.3431 63.6241 73.3484L63.5637 73.3488H63.5633L63.6243 73.3484C63.6218 73.3484 63.6175 73.3486 63.6187 73.3486L63.6182 73.3486C63.5851 73.3503 63.7134 73.3507 63.9008 73.2788L63.9011 73.2788C64.3824 73.0941 64.9783 72.4572 64.5875 71.7082C64.4487 71.4421 64.2048 71.336 64.0703 71.3084H64.0703C63.9107 71.2756 63.3121 71.2881 63.016 71.7958L62.8872 72.1148C62.72 72.812 63.3342 73.1493 63.1856 73.0477L63.1858 73.0478C63.1832 73.0461 63.1587 73.0299 63.1028 73.0016L63.1029 73.0016C63.1046 73.0025 63.1057 73.003 63.1059 73.0031L63.1048 73.0026C62.5917 72.759 60.5379 72.6448 59.5768 72.6605L61.0604 71.3077C61.0285 70.6677 60.4415 70.4378 60.6066 70.5247L59.8148 71.6308L60.6067 70.5248C60.6111 70.5271 60.6416 70.5423 60.7096 70.5683L60.7098 70.5684C60.9832 70.6732 61.4106 70.7894 62.0063 70.9482C62.612 71.1096 63.3766 71.3114 64.0086 71.5538C64.4292 71.7152 64.7413 72.0321 64.8563 72.4147C64.9082 72.5874 64.921 72.7773 64.8802 72.9711L64.8815 72.9647C64.5683 74.4963 62.065 73.9633 63.0242 74.0446H63.0243C62.9415 74.0376 62.8556 74.0274 62.7676 74.0141H62.7676C62.0014 73.8984 61.6444 73.8599 61.4906 73.8628L61.4361 73.863H61.436L61.4906 73.8628C61.3632 73.8653 61.3048 73.8717 61.2943 73.8732L61.2942 73.8732C61.2923 73.8735 61.3108 73.871 61.3419 73.8635L61.3417 73.8635C61.2505 73.8856 62.5756 73.5432 62.2078 72.4259L61.9272 71.9616C61.8661 71.8969 61.8184 71.8716 61.8221 71.8736L61.822 71.8736C61.8674 71.8987 62.1036 71.9952 62.6918 72.0865C63.5145 72.2141 64.0606 72.8894 63.9117 73.5947C63.7628 74.3 62.9752 74.7682 62.1525 74.6405Z" fill="#05276C"/>
<path d="M37.5983 29.958L37.5983 29.9579C37.5989 29.9542 37.5993 29.9513 37.5995 29.9493L37.5995 29.9494C37.5924 30.0218 37.6009 30.2249 37.6249 30.5585C37.6256 30.5681 37.626 30.5777 37.6261 30.5874V30.5871C37.626 30.5804 37.6258 30.5749 37.6255 30.5706L37.6255 30.5706C37.6302 30.6306 37.6636 30.8604 37.7259 31.2601C37.727 31.2668 37.7279 31.2734 37.7286 31.2801C37.735 31.336 37.7401 31.392 37.7438 31.448C37.7442 31.4548 37.7445 31.4615 37.7447 31.4682C37.7484 31.6175 37.7538 31.719 37.761 31.7729L37.7617 31.7783C37.7703 31.8487 37.7865 31.9373 37.8101 32.0439L37.804 32.019L37.804 32.0191L37.8096 32.0413C37.8306 32.1336 37.8506 32.2044 37.8695 32.2536L37.8648 32.2417C37.9431 32.4313 38.0411 32.6779 38.1588 32.9815L38.1484 32.9566C38.2382 33.1574 38.31 33.2932 38.3638 33.3641C38.5689 33.6339 38.4799 33.9951 38.1652 34.1708C37.8505 34.3466 37.4292 34.2704 37.2242 34.0006C37.1178 33.8606 37.0026 33.6518 36.8784 33.3741C36.8747 33.3659 36.8712 33.3575 36.868 33.3492C36.753 33.0526 36.6579 32.8132 36.5827 32.6311C36.5811 32.6272 36.5795 32.6232 36.578 32.6193C36.541 32.5234 36.5066 32.4052 36.4746 32.2646L36.4801 32.2867L36.4801 32.2866L36.4739 32.2617C36.4433 32.1233 36.4216 32.0028 36.409 31.9001L36.4097 31.9055C36.3977 31.8159 36.3894 31.6784 36.3848 31.4931L36.3858 31.5133C36.3832 31.4737 36.3796 31.4341 36.375 31.3944L36.3777 31.4145C36.3115 30.9894 36.2751 30.7341 36.2684 30.6484L36.2684 30.6484C36.2671 30.6315 36.2663 30.6159 36.2661 30.6017L36.2673 30.6303C36.2393 30.2402 36.2315 29.9808 36.2441 29.8521L36.2441 29.8522C36.2459 29.834 36.2481 29.8166 36.2507 29.8001C36.3016 29.481 36.6446 29.2577 37.0167 29.3014C37.3888 29.345 37.6492 29.639 37.5983 29.958Z" fill="#05276C"/>
<path d="M42.9436 29.0697C42.8743 29.3123 42.8259 29.5444 42.7985 29.7661L42.7998 29.7537C42.7952 29.8009 42.7929 29.832 42.7928 29.8472V29.8471C42.7928 29.8444 42.7927 29.8408 42.7924 29.8361L42.7927 29.8428C42.7969 29.9446 42.8041 30.0577 42.8143 30.1821L42.8126 30.1652C42.8658 30.6137 42.8947 30.8701 42.8992 30.9345L42.8992 30.9342C42.8997 30.9403 42.9 30.946 42.9003 30.9514L42.8999 30.945C42.9256 31.3644 42.9419 31.6012 42.9486 31.6556L42.9485 31.6549C42.9479 31.6501 42.948 31.6505 42.9487 31.6564C42.9493 31.6609 42.9498 31.6655 42.9502 31.67C42.9609 31.7822 42.9753 31.89 42.9933 31.9936L42.9911 31.9814C43.0892 32.4688 43.1679 32.7641 43.2271 32.8672L43.2271 32.8673C43.2245 32.8626 43.2201 32.8564 43.2142 32.8487C43.4069 33.098 43.3273 33.4341 43.0365 33.5993C42.7457 33.7645 42.3537 33.6964 42.1609 33.447C42.1371 33.4161 42.1146 33.3823 42.0935 33.3455L42.0935 33.3456C41.9807 33.149 41.8648 32.7557 41.746 32.1657C41.7452 32.1617 41.7444 32.1577 41.7437 32.1535C41.7215 32.0262 41.7039 31.8945 41.691 31.7584L41.6925 31.772C41.6931 31.777 41.693 31.7766 41.6923 31.7708L41.6922 31.7702C41.6831 31.6966 41.6651 31.4405 41.6382 31.0019L41.6378 30.9955C41.6379 30.9975 41.638 30.9991 41.6381 31.0003L41.6381 31C41.6346 30.9502 41.6071 30.7085 41.5556 30.2748C41.555 30.2692 41.5544 30.2636 41.554 30.258C41.5427 30.121 41.5348 29.9954 41.5301 29.8811L41.5304 29.8878C41.5295 29.8727 41.5292 29.8566 41.5293 29.8396V29.8395C41.5297 29.7969 41.5335 29.7384 41.5407 29.6639C41.5411 29.6598 41.5415 29.6557 41.5421 29.6516C41.5755 29.3817 41.6336 29.1018 41.7163 28.8121C41.7993 28.5216 42.1412 28.3437 42.4801 28.4148C42.819 28.4859 43.0265 28.7791 42.9436 29.0697Z" fill="#05276C"/>
<path d="M37.3544 33.2936C37.4873 32.9834 37.6112 32.7606 37.7261 32.625L37.726 32.6251C37.762 32.5826 37.7996 32.5448 37.8388 32.5118C37.8421 32.5089 37.8454 32.5063 37.8487 32.5035C38.4205 32.0418 38.7472 31.7642 38.8287 31.6708L38.8292 31.6702C38.8289 31.6705 38.8286 31.6709 38.8281 31.6715C38.838 31.6597 38.8486 31.6481 38.8596 31.637C39.3409 31.1516 39.9859 30.4154 40.7946 29.4281C40.8081 29.4117 40.8226 29.3959 40.8382 29.3808C40.9448 29.2774 41.0402 29.1973 41.1245 29.1408L41.1246 29.1407C41.2817 29.0352 41.4442 28.9814 41.6122 28.9793C41.961 28.9749 42.248 29.2138 42.2531 29.5129C42.2582 29.812 41.9796 30.058 41.6307 30.0624C41.7464 30.0609 41.8373 30.038 41.9035 29.9935L41.9036 29.9935C41.8801 30.0093 41.8405 30.0441 41.785 30.098L41.8286 30.0507C40.9975 31.0651 40.3287 31.8277 39.8223 32.3385L39.8538 32.3039C39.8493 32.3094 39.8447 32.3148 39.8399 32.3202L39.8404 32.3197C39.7151 32.4632 39.34 32.7873 38.715 33.292L38.725 33.2838C38.7356 33.2749 38.7434 33.2674 38.7485 33.2615L38.7484 33.2615C38.7023 33.316 38.6329 33.4512 38.5403 33.6672C38.4199 33.948 38.0569 34.0919 37.7294 33.9887C37.4019 33.8856 37.234 33.5743 37.3544 33.2936Z" fill="#05276C"/>
<path d="M42.2127 33.5522L42.3385 33.5645H42.3385L42.2123 33.5521C42.0681 33.5252 41.9331 33.4593 41.8072 33.3546L41.8076 33.355C41.8001 33.3487 41.7925 33.3422 41.7847 33.3354C41.7545 33.3091 41.7276 33.2802 41.7043 33.2491C41.6357 33.1579 41.5749 33.0901 41.5218 33.0458L41.5231 33.0469C41.4735 33.0058 41.4224 32.9698 41.3699 32.9388L41.3876 32.9489L38.8552 31.5616C38.8436 31.5553 38.8322 31.5486 38.8211 31.5416C38.7136 31.4738 38.5889 31.3804 38.4468 31.2612C38.4314 31.2483 38.4169 31.2348 38.4031 31.2206C38.1182 30.9271 37.9352 30.7532 37.8541 30.6989L37.8541 30.699C37.8806 30.7167 37.9174 30.7328 37.9645 30.7473C37.9153 30.7321 37.8685 30.7118 37.8252 30.6868C37.7019 30.6156 37.6137 30.578 37.5607 30.5742C37.5818 30.5757 37.6063 30.5702 37.634 30.5575C37.3261 30.6981 36.9435 30.5982 36.7794 30.3342C36.6153 30.0702 36.732 29.7422 37.0399 29.6015C37.2312 29.5141 37.44 29.4785 37.6663 29.4948C37.9378 29.5143 38.2262 29.6122 38.5313 29.7886L38.392 29.728C38.4718 29.7526 38.5517 29.7917 38.6315 29.8451L38.6316 29.8451C38.7839 29.9471 39.0314 30.1746 39.3742 30.5276L39.3305 30.487C39.4301 30.5706 39.5098 30.6312 39.5696 30.6689L39.5355 30.6488L42.0679 32.0361C42.074 32.0394 42.0798 32.0427 42.0857 32.0462C42.1962 32.1113 42.3015 32.1853 42.4014 32.2682L42.4028 32.2693C42.5248 32.3711 42.646 32.5022 42.7666 32.6627L42.6862 32.5764C42.6863 32.5766 42.6865 32.5767 42.6867 32.5769L42.6871 32.5772C42.6406 32.5385 42.5721 32.5107 42.4816 32.4938L42.3554 32.4814H42.3555C42.8222 32.5573 43.0384 32.8458 42.9643 33.138C42.8901 33.4303 42.5537 33.6158 42.2127 33.5522Z" fill="#05276C"/>
<path d="M37.7434 38.1542L37.7435 38.154C37.6121 38.3926 38.1238 37.2033 39.2884 37.6746L39.2871 37.674C40.0221 37.9705 40.0184 38.86 39.9586 38.4963L39.9586 38.4962C39.9822 38.6397 40.0019 38.897 40.025 39.1856C40.0721 39.7742 40.1488 40.7334 40.3099 42.0684C40.5124 43.7456 40.7034 45.1205 40.8527 46.1953C40.9478 46.8799 41.0275 47.453 41.0817 47.9024C41.1324 48.3226 41.1677 48.6856 41.1643 48.9462L41.147 48.7638L41.2909 49.4656L40.0831 48.6501L40.0849 48.65L40.0738 48.6507C43.2096 48.4561 45.0036 48.291 45.6015 48.1688C45.6758 48.1536 45.7517 48.1447 45.8281 48.1424L50.1903 48.0095L49.8443 48.0662C49.7201 48.1041 49.2355 48.3077 49.2021 48.834V48.8339C49.2775 47.646 49.2943 46.8071 49.2649 46.2944L49.2721 46.3668L48.7642 42.8365C48.7593 42.8024 48.7564 42.7682 48.7557 42.7339C48.696 39.995 48.713 39.6931 48.7528 39.1069L48.7528 39.107L48.7567 39.05L48.7549 39.1244C48.756 39.1817 48.7705 39.2388 48.7793 39.265L48.7794 39.2652C48.7792 39.2646 48.778 39.2611 48.7761 39.2557L48.7761 39.2558C48.7237 39.1054 48.6791 38.9339 48.6725 38.6055C48.6708 38.5204 48.6717 38.4251 48.6752 38.3177C48.6634 38.6752 48.8969 38.9033 49.028 38.9994L49.6358 39.2292C48.9555 39.157 48.6375 39.1613 48.2569 39.1799L48.2569 39.1798C47.7771 39.2032 47.3668 39.2219 46.9533 39.2408C46.6229 39.2559 46.2668 39.2722 45.9857 39.2859H45.9857C45.1231 39.3279 44.4964 39.3669 44.0494 39.4214C44.0026 39.4271 43.9555 39.4304 43.9082 39.4311L39.5755 39.4996C39.5692 39.4997 39.5629 39.4998 39.5566 39.4998H39.5566C40.0049 39.499 40.5626 39.1691 40.5613 38.625L40.5613 38.6251C40.561 38.4877 40.5179 38.4087 40.5267 38.4278L40.5267 38.4277C40.5984 38.5821 41.0105 39.1039 42.0139 40.0838C42.9527 41.0005 44.5362 42.2441 46.769 43.888C47.2177 44.2184 48.429 45.3088 50.3275 47.0494L50.2619 46.9938L51.1403 47.6799C51.6111 48.0476 51.645 48.6728 51.2161 49.0764C50.7873 49.48 50.0579 49.5091 49.5872 49.1414L48.7088 48.4553C48.686 48.4376 48.6641 48.419 48.6431 48.3998C46.6836 46.6034 45.5917 45.6274 45.2665 45.388C43.0413 43.7496 41.3403 42.4228 40.2809 41.3882C39.338 40.4675 38.6301 39.6886 38.3842 39.1594L38.3842 39.1593C38.3302 39.0431 38.2557 38.8531 38.2552 38.629L38.2552 38.6291C38.2535 37.9312 38.9089 37.5238 39.552 37.5227L39.533 37.5229L43.8657 37.4543L43.7245 37.464C44.2826 37.3959 45.0013 37.3535 45.8549 37.3119H45.8549C46.1491 37.2976 46.4931 37.2819 46.8306 37.2664C47.234 37.2481 47.6614 37.2285 48.1262 37.2059L48.1262 37.2059C48.6379 37.181 49.0945 37.1795 49.919 37.267C50.1435 37.2908 50.3549 37.3707 50.5268 37.4968C50.6965 37.6212 50.9955 37.9161 50.9805 38.3734C50.9777 38.457 50.9774 38.522 50.9784 38.5716C50.9814 38.7205 50.9939 38.7131 50.9859 38.6901L50.986 38.6903C50.9881 38.6965 50.9914 38.706 50.995 38.7166L50.9951 38.7167C51.0262 38.8092 51.0575 38.9295 51.0607 39.0904C51.0612 39.1152 51.0606 39.14 51.059 39.1648L51.0551 39.2218L51.0551 39.2219C51.021 39.723 51.0017 39.9551 51.0615 42.6969L51.053 42.5944L51.561 46.1248C51.5644 46.1488 51.5669 46.173 51.5683 46.1972C51.6039 46.8166 51.5812 47.7394 51.5049 48.9413L51.5049 48.9412C51.4653 49.5669 50.8967 49.8437 50.6182 49.9287C50.5069 49.9627 50.3902 49.9818 50.2722 49.9854L45.91 50.1183L46.1366 50.092C45.3137 50.2602 43.2982 50.4329 40.2403 50.6227L40.2292 50.6233L40.2274 50.6234C39.6485 50.6593 39.122 50.3074 39.0196 49.808L38.8756 49.1062C38.8633 49.046 38.8575 48.985 38.8583 48.9239C38.86 48.792 38.8396 48.5353 38.7878 48.106C38.7357 47.6747 38.6587 47.1202 38.5627 46.4292C38.4133 45.3537 38.2204 43.9656 38.016 42.2719C37.8507 40.9027 37.7718 39.9161 37.7242 39.3209C37.697 38.9801 37.6837 38.8251 37.675 38.7724L37.675 38.7724C37.6017 38.3268 37.5847 39.1724 38.3053 39.463L38.304 39.4625C39.4622 39.9312 39.9672 38.747 39.8289 38.9982C39.5572 39.4918 38.87 39.7031 38.2941 39.4701C37.7181 39.2371 37.4716 38.648 37.7434 38.1542Z" fill="#05276C"/>
<path d="M50.3572 38.9041L48.9525 40.6338L48.9859 40.5903L44.549 46.7183C44.5378 46.7337 44.5261 46.7489 44.514 46.7638L43.1764 48.4023C43.1699 48.4103 43.1632 48.4182 43.1564 48.4261C43.0132 48.5908 42.7507 49.0029 42.3688 49.6625C42.0857 50.1515 41.3937 50.3512 40.8233 50.1084C40.2528 49.8657 40.02 49.2724 40.3031 48.7834C40.7465 48.0175 41.0812 47.5047 41.3071 47.2448L41.287 47.2686L42.6246 45.6301L42.5896 45.6756L47.0265 39.5476C47.0372 39.5329 47.0483 39.5184 47.0599 39.5041L48.4645 37.7744C48.8284 37.3263 49.547 37.216 50.0697 37.5279C50.5923 37.8399 50.721 38.456 50.3572 38.9041Z" fill="#05276C"/>
<path d="M58.9092 40.3754C58.1496 40.5256 57.6937 40.6043 57.5464 40.6287L57.2394 40.652H57.2393L57.5487 40.6283C57.5174 40.6335 57.4887 40.6376 57.4696 40.6402L57.4685 40.6403C57.3776 40.6526 57.2292 40.6684 57.0766 40.6848L57.0765 40.6848C56.7851 40.7161 56.3527 40.7626 55.7533 40.8354C55.466 40.8703 54.9326 40.9571 54.419 41.041L54.4189 41.041C54.149 41.085 53.8867 41.1279 53.7049 41.155C53.6734 41.1597 53.6418 41.1636 53.61 41.1665L53.3784 41.1882C52.5473 41.266 51.8 40.7514 51.7093 40.0389C51.6185 39.3264 52.2187 38.6858 53.0498 38.6079L53.2814 38.5863L53.1865 38.5978C53.3375 38.5753 53.5713 38.5371 53.8523 38.4912L53.8523 38.4913C54.3296 38.4133 54.9509 38.3113 55.3286 38.2654C55.952 38.1897 56.4049 38.1411 56.6998 38.1094L56.6997 38.1094C56.8853 38.0894 56.9664 38.0805 56.9961 38.0765L56.9951 38.0767C56.9984 38.0762 56.9868 38.0778 56.9707 38.0804L57.2801 38.0567H57.2801L56.9731 38.0801C57.0783 38.0627 57.5017 37.99 58.2287 37.8462C59.0433 37.6851 59.8561 38.1207 60.044 38.8191C60.2319 39.5175 59.7239 40.2143 58.9092 40.3754Z" fill="#05276C"/>
<path d="M59.4596 43.3287C59.2944 43.389 59.1348 43.4248 58.9869 43.4436L58.9866 43.4437C58.6904 43.4813 58.4363 43.513 58.2934 43.525L58.2933 43.525C58.2639 43.5274 58.2167 43.5311 58.1615 43.5329L58.2063 43.5309L57.7967 43.5544L57.8472 43.5507C57.3752 43.5914 56.91 43.6263 56.4454 43.6509C56.181 43.6648 54.844 43.797 53.8154 43.9546C52.9924 44.0806 52.206 43.6108 52.059 42.9052C51.912 42.1996 52.46 41.5255 53.283 41.3994C54.3907 41.2298 55.8476 41.0819 56.2593 41.0602C56.6721 41.0384 57.0975 41.0067 57.5442 40.9682C57.561 40.9667 57.5778 40.9656 57.5946 40.9646L58.0042 40.9411C58.0191 40.9402 58.0341 40.9395 58.049 40.9391C58.0161 40.9401 57.9925 40.9422 57.9992 40.9417H57.9992C58.0471 40.9377 58.209 40.9185 58.543 40.8761L58.5427 40.8761C58.4503 40.8879 58.3596 40.9092 58.2743 40.9403C59.0436 40.6597 59.9326 40.967 60.2599 41.6265C60.5872 42.286 60.2289 43.0482 59.4596 43.3287Z" fill="#05276C"/>
<path d="M52.6134 55.2441L52.6134 55.2441C52.6865 55.1614 52.7317 55.086 52.7487 55.0182L52.7488 55.0181C52.7029 55.2 52.7146 55.6635 52.7838 56.4084C52.7848 56.4192 52.7856 56.43 52.7862 56.4408C52.8564 57.7284 53.027 59.4112 53.298 61.4891C53.3029 61.5269 53.3053 61.565 53.3051 61.6032C53.3012 62.3835 53.3045 62.8333 53.3151 62.9526V62.9527C53.3141 62.9411 53.312 62.9264 53.3088 62.9087L53.3029 62.8795L53.5384 63.9587C53.5664 64.0868 53.5645 64.2183 53.533 64.3457C53.6881 63.7189 53.4286 63.3442 52.7544 63.2215L52.7554 63.2217C52.7538 63.2214 52.7526 63.2212 52.7519 63.2211L52.7513 63.221C52.9587 63.2547 53.5971 63.2742 54.6665 63.2796L54.4102 63.303C55.5276 63.0907 57.011 62.9423 58.8605 62.8579L58.6555 62.8833L59.453 62.721C59.6741 62.676 59.9057 62.688 60.1189 62.7555L60.1191 62.7556C59.4085 62.5304 58.9246 62.716 58.6676 63.3125L58.6676 63.3126C58.651 63.351 58.6401 63.3832 58.6347 63.4094L58.6347 63.4093C58.7264 62.9654 58.7402 60.6407 58.6762 56.4353L58.6802 56.5064C58.6133 55.8327 58.5375 55.3166 58.4528 54.958C58.4338 54.8776 58.4266 54.7954 58.4313 54.7135L58.4592 54.2262L58.4773 54.4555C58.5467 54.7754 58.7487 54.9859 59.0832 55.0869L59.8251 55.0941C59.4955 55.1866 59.2093 55.2411 58.9667 55.2576L58.9666 55.2576C58.8861 55.2631 58.8083 55.2647 58.7332 55.2625C58.6986 55.2615 58.6641 55.2592 58.6298 55.2555C57.6827 55.1541 56.8225 55.1152 56.0491 55.1389L56.1103 55.1356L51.8251 55.4631L51.7072 55.4669H51.7071L52.1995 55.3785C52.8175 55.1379 52.9804 54.7416 52.6881 54.1896L52.6882 54.1898C52.6375 54.0941 52.5721 54.0128 52.4918 53.9458L52.4351 53.9016C52.9367 54.2677 53.2709 54.5361 53.4379 54.7067L53.4381 54.7069C53.4661 54.7356 53.4918 54.7636 53.5153 54.7909L53.4916 54.7643C55.0985 56.5075 56.702 58.0872 58.3021 59.5035C58.3363 59.5337 58.3681 59.5658 58.3975 59.5995L59.5554 60.9277C59.5928 60.9705 59.6259 61.0158 59.6547 61.0632C59.9783 61.5963 60.1957 61.9193 60.3069 62.0321L60.3068 62.0321C60.291 62.016 60.2675 61.997 60.2364 61.9751C60.7291 62.3211 60.8014 62.9439 60.3979 63.3663C59.9944 63.7887 59.2679 63.8508 58.7752 63.5048C58.6972 63.45 58.6205 63.3845 58.5452 63.3081L58.5452 63.3081C58.3236 63.0832 58.0115 62.6391 57.6089 61.9759L57.7082 62.1114L56.5503 60.7831L56.6456 60.8791C54.9916 59.4151 53.3371 57.7855 51.6822 55.9902C51.6741 55.9814 51.6662 55.9725 51.6585 55.9635C51.6635 55.9693 51.6675 55.9738 51.6706 55.977L51.6708 55.9772C51.5869 55.8913 51.3433 55.7013 50.9402 55.4071C50.9207 55.3928 50.9018 55.3781 50.8835 55.3628C50.7558 55.2563 50.6574 55.1376 50.5881 55.0068L50.5882 55.0069C50.245 54.3589 50.4642 53.8827 51.2458 53.5784L51.7381 53.49H51.7382C51.3644 53.5323 51.4909 53.5037 51.6203 53.4938L55.9055 53.1663C55.9259 53.1647 55.9463 53.1636 55.9668 53.163C56.8633 53.1356 57.8463 53.1791 58.9156 53.2936L58.8123 53.2865C58.8001 53.2862 58.7908 53.2862 58.7842 53.2867L58.784 53.2867C58.8441 53.2826 58.952 53.2587 59.1077 53.215C59.3492 53.1473 59.61 53.1498 59.8496 53.2222C60.3531 53.3743 60.6515 53.6648 60.7446 54.0939C60.7609 54.1694 60.767 54.2464 60.7626 54.3231L60.7347 54.8104L60.7132 54.5659C60.8153 54.9986 60.9036 55.5894 60.9781 56.3384C60.9804 56.3621 60.9818 56.3858 60.9822 56.4095C61.0481 60.7393 61.0226 63.1875 60.9055 63.754C60.8869 63.8441 60.8621 63.9253 60.831 63.9975L60.8309 63.9976C60.5551 64.6378 60.0513 64.8419 59.3196 64.6101L59.9856 64.6446L59.188 64.8069C59.1207 64.8206 59.0521 64.8291 58.983 64.8323C57.2605 64.9109 55.9026 65.0445 54.9092 65.2333C54.8251 65.2493 54.7391 65.2571 54.6529 65.2567C53.4439 65.2506 52.6672 65.2196 52.3226 65.1637L52.3221 65.1636C52.3061 65.161 52.2903 65.1583 52.2747 65.1554L52.2757 65.1556C51.446 65.0047 51.1131 64.598 51.277 63.9354L51.2716 64.3224L51.0361 63.2432C51.0339 63.2335 51.032 63.2237 51.0302 63.2139C51.0241 63.1803 51.0192 63.1433 51.0156 63.1029L51.0156 63.103C51.0003 62.9307 50.9948 62.428 50.999 61.5946L51.0061 61.7088C50.7295 59.5885 50.555 57.8633 50.4825 56.533L50.4849 56.5653C50.3978 55.6271 50.401 54.9723 50.4945 54.6009L50.4945 54.6009C50.5492 54.3836 50.6428 54.2 50.7751 54.0502C51.1597 53.6151 51.8829 53.5295 52.3905 53.8592C52.8982 54.1889 52.9979 54.8089 52.6134 55.2441Z" fill="#05276C"/>
<path d="M60.0157 54.6577C59.2858 55.6104 58.5311 56.6627 57.7518 57.8146L57.7687 57.7887C57.1396 58.7862 56.3802 60.0865 55.4903 61.6896C55.4812 61.706 55.4716 61.7221 55.4615 61.738L54.094 63.889C54.0862 63.9013 54.0781 63.9134 54.0697 63.9253L54.0698 63.9253C54.1272 63.8433 54.1614 63.7706 54.1724 63.7072L54.1724 63.7073C54.1723 63.7074 54.1723 63.7075 54.1723 63.7077C54.0885 64.2489 53.5089 64.6294 52.8775 64.5576C52.2463 64.4858 51.8024 63.9888 51.8861 63.4476C51.8877 63.4377 51.8893 63.428 51.8909 63.4184V63.4184C51.9249 63.2211 51.9923 63.0504 52.0933 62.9065L52.069 62.9428L53.4366 60.7918L53.4078 60.8401C54.3147 59.2063 55.0921 57.8758 55.74 56.8484C55.7454 56.8397 55.7511 56.831 55.7569 56.8225C56.5577 55.6389 57.3348 54.5555 58.0882 53.5721C58.4378 53.1158 59.1528 52.9889 59.685 53.2887C60.2173 53.5884 60.3654 54.2013 60.0157 54.6577Z" fill="#05276C"/>
<path d="M47.9424 57.2733C47.6322 57.3743 47.3373 57.453 47.0574 57.5095C47.0209 57.5168 46.9841 57.523 46.947 57.5281C46.4693 57.5928 46.0749 57.6361 45.7639 57.658L45.8096 57.6541C45.5152 57.6826 45.0275 57.7042 44.3463 57.7191L44.3435 57.7192C44.1477 57.7232 43.9574 57.7246 43.7727 57.7234C43.764 57.7233 43.7557 57.7232 43.747 57.723C43.2968 57.7137 43.0322 57.7096 42.953 57.7108H42.9529C42.9773 57.7104 43.0068 57.7088 43.0413 57.7058C43.0025 57.7091 42.9638 57.7112 42.9248 57.7119L42.8595 57.7132L42.905 57.7117C42.6446 57.7234 42.1656 57.7326 41.4681 57.7394L41.4935 57.739C41.3617 57.7422 41.2315 57.7477 41.103 57.7554L41.1293 57.7536C40.5413 57.798 40.1632 57.8523 39.9949 57.9167L39.9929 57.9174C39.9925 57.9176 39.9919 57.9178 39.9912 57.9181C39.2281 58.211 38.3326 57.9181 37.9909 57.2639C37.6493 56.6098 37.9909 55.842 38.7539 55.5491C38.7572 55.5479 38.7605 55.5466 38.7641 55.5453L38.762 55.546C39.2389 55.3637 39.9395 55.2378 40.864 55.168C40.8729 55.1673 40.8813 55.1668 40.8903 55.1663C41.0619 55.1559 41.2345 55.1486 41.4082 55.1444C41.4164 55.1442 41.4254 55.1441 41.4336 55.144C42.0907 55.1376 42.5284 55.1295 42.747 55.1197C42.7621 55.119 42.7773 55.1185 42.7924 55.1182L42.8577 55.117L42.7413 55.1231C42.7888 55.119 42.8412 55.1165 42.8985 55.1156H42.8984C43.0203 55.1137 43.3277 55.1179 43.8206 55.1282L43.7949 55.1279C43.9482 55.1288 44.1072 55.1277 44.2719 55.1243L44.2691 55.1244C44.863 55.1114 45.2634 55.0949 45.4705 55.0749C45.4857 55.0734 45.5011 55.0721 45.5163 55.0711C45.7521 55.0545 46.0715 55.0189 46.4744 54.9643L46.364 54.9829C46.5141 54.9526 46.6819 54.9073 46.8673 54.8469C47.6488 54.5924 48.5231 54.9292 48.8199 55.5992C49.1168 56.2693 48.7239 57.0188 47.9424 57.2733Z" fill="#05276C"/>
<path d="M47.3114 60.7715H47.3114C47.3316 60.7739 47.3476 60.7753 47.3594 60.7757L47.3591 60.7757C47.3486 60.7753 47.3311 60.7754 47.3063 60.7759L47.4012 60.7713L47.123 60.7925C47.1062 60.7937 47.0894 60.7948 47.0726 60.7956C46.4235 60.8263 45.9406 60.8545 45.6238 60.88C45.5961 60.8822 45.5682 60.8838 45.5405 60.8848L45.5392 60.8848C45.5441 60.8847 45.5481 60.8845 45.5513 60.8843L45.5523 60.8843C45.4244 60.8914 45.019 60.9363 44.336 61.0189C44.3173 61.0212 44.2984 61.0232 44.2796 61.0248C43.7118 61.075 43.3284 61.1045 43.1294 61.1134L43.147 61.1125C42.8894 61.1265 42.6767 61.1362 42.5092 61.1417C42.5018 61.1419 42.4943 61.1421 42.487 61.1422L41.2932 61.1659C41.2853 61.166 41.2775 61.1662 41.2696 61.1662H41.2706C41.2723 61.1662 41.2733 61.1662 41.2735 61.1662H41.2743C41.2419 61.1668 41.1755 61.1708 41.0753 61.178C41.0359 61.1808 40.9963 61.1823 40.9567 61.1825C40.8218 61.1831 40.7108 61.1813 40.6237 61.1772H40.6236C40.5566 61.174 40.4947 61.169 40.4378 61.1622C39.6097 61.0637 39.0315 60.4084 39.1464 59.6984C39.2612 58.9885 40.0257 58.4928 40.8538 58.5913C40.8283 58.5882 40.8077 58.5864 40.792 58.5856H40.7918C40.8177 58.5868 40.8674 58.5873 40.9411 58.5869L40.8225 58.5915C40.9823 58.58 41.1081 58.5733 41.2 58.5714L41.2008 58.5713C41.2161 58.571 41.2311 58.5708 41.2459 58.5707L41.2233 58.571L42.417 58.5474L42.3949 58.5479C42.5366 58.5433 42.7233 58.5347 42.9551 58.5221C42.9613 58.5218 42.9666 58.5215 42.9728 58.5212C43.1203 58.5147 43.4524 58.4886 43.9693 58.4429L43.9129 58.4488C44.671 58.3571 45.1519 58.3055 45.3554 58.2942L45.3564 58.2941C45.3805 58.2928 45.4033 58.2918 45.4246 58.2911L45.34 58.2959C45.6956 58.2672 46.2174 58.2365 46.9056 58.2039L46.8552 58.2071L47.1335 58.1859C47.165 58.1835 47.1967 58.1819 47.2284 58.1812C47.3211 58.1792 47.4068 58.1796 47.4857 58.1824L47.4853 58.1824C47.5683 58.1853 47.6466 58.1911 47.7201 58.1997C48.5484 58.2964 49.1285 58.9506 49.0157 59.6608C48.9028 60.371 48.1398 60.8682 47.3114 60.7715Z" fill="#05276C"/>
<path d="M47.7337 64.2594L47.7337 64.2595C47.895 64.2984 48.0417 64.3134 48.174 64.3043L48.1744 64.3043C48.1641 64.305 48.1463 64.3067 48.1208 64.3094L48.243 64.2921C48.0282 64.3302 47.6042 64.3888 46.9709 64.468C46.9489 64.4708 46.9268 64.4731 46.9047 64.475C46.5558 64.5053 46.3302 64.523 46.2279 64.5283H46.228C46.2165 64.5289 46.2052 64.5294 46.1941 64.5299L46.2006 64.5296C45.5586 64.5579 45.1889 64.576 45.0915 64.5838L45.091 64.5839C45.1427 64.5797 45.2006 64.5711 45.2645 64.5581C45.2011 64.571 45.1367 64.5805 45.0718 64.5863L42.8064 64.7903L42.9035 64.7789L41.5716 64.9743L41.5661 64.9751C41.3637 65.0041 41.1583 65.0098 40.9499 64.9923C40.1179 64.9223 39.5096 64.2872 39.5913 63.5739C39.6731 62.8605 40.4138 62.3391 41.2458 62.4092C41.1878 62.4043 41.128 62.4062 41.0664 62.4151L41.061 62.4159L42.3929 62.2205C42.4251 62.2158 42.4575 62.2119 42.49 62.209L44.7555 62.0049L44.5628 62.0331C44.6368 62.018 44.7186 62.0069 44.8083 61.9997L44.8078 61.9997C44.9478 61.9884 45.3602 61.9677 46.0452 61.9375L46.0516 61.9372C46.0488 61.9373 46.0467 61.9374 46.0455 61.9375H46.0455C46.1071 61.9343 46.2919 61.9193 46.6001 61.8926L46.534 61.8996C47.1081 61.8278 47.4733 61.7781 47.6297 61.7504C47.6701 61.7432 47.7109 61.7374 47.7519 61.7331C47.8195 61.726 47.8796 61.7206 47.9323 61.717H47.9326C48.1607 61.7013 48.3681 61.7161 48.5548 61.7612C49.3596 61.9556 49.8281 62.6725 49.6013 63.3623C49.3745 64.0522 48.5383 64.4539 47.7337 64.2594Z" fill="#05276C"/>
<path d="M41.8286 29.1143C41.8683 29.1409 41.9113 29.162 41.9563 29.1777C41.9127 29.1643 41.87 29.1432 41.828 29.1143L41.8286 29.1143ZM41.7372 29.1436C41.7986 29.1688 41.8651 29.1837 41.9332 29.1874C41.8669 29.1855 41.8014 29.1709 41.7366 29.1436L41.7372 29.1436ZM41.96 28.272C41.9513 28.2719 41.9426 28.272 41.9338 28.2721H41.9337C41.9023 28.2728 41.8525 28.2753 41.7843 28.2795H41.7837C41.6862 28.2842 41.5555 28.3002 41.3916 28.3276L41.3911 28.3276L40.5482 28.3899C40.5343 28.391 40.5204 28.3925 40.5066 28.3944L40.3195 28.4211L40.3145 28.4218C40.0211 28.466 39.6022 28.5497 39.058 28.6728C39.0493 28.6747 39.0407 28.6769 39.0322 28.6792L38.2291 28.8984L38.2285 28.8984C38.0859 28.9224 37.8845 28.9508 37.6245 28.9838C37.6067 28.986 37.589 28.989 37.5716 28.9928L37.0214 29.1121L36.7976 29.1425C36.782 29.1446 36.7666 29.1473 36.7514 29.1506C36.6462 29.1732 36.5533 29.2154 36.4727 29.2773C36.253 29.4459 36.2344 29.7354 36.4311 29.9238C36.5348 30.0231 36.6778 30.0745 36.8219 30.0762C36.8994 30.0771 36.9772 30.0636 37.0495 30.0355L37.049 30.0355L37.2123 30.0133C37.2282 30.0111 37.244 30.0083 37.2596 30.0049L37.8064 29.8864H37.8059C38.0906 29.8501 38.312 29.8183 38.47 29.7908C38.4889 29.7875 38.5075 29.7833 38.5259 29.7783L39.3406 29.556L39.34 29.556C39.8475 29.4413 40.2324 29.3641 40.4947 29.3243H40.4945L40.6609 29.3006L41.513 29.2376C41.5328 29.2361 41.5524 29.2337 41.5759 29.2297L41.5766 29.2296H41.5767C41.705 29.2077 41.7941 29.1957 41.8441 29.1937C41.8486 29.1935 41.8536 29.1933 41.8581 29.193C41.8985 29.1905 41.9278 29.1888 41.9459 29.188L41.9464 29.188C41.9474 29.1881 41.9484 29.1881 41.9494 29.1881C41.9683 29.1887 41.9841 29.1893 41.9969 29.19H41.9963C42.0463 29.2035 42.0981 29.2105 42.1499 29.2111C42.2941 29.2128 42.4386 29.1647 42.5454 29.0677C42.748 28.8839 42.7383 28.5941 42.5239 28.4205C42.4337 28.3474 42.316 28.3023 42.1709 28.2851L42.1708 28.2851C42.1239 28.2795 42.0662 28.2756 41.9979 28.2734H41.9973C41.985 28.2726 41.9726 28.2722 41.96 28.272Z" fill="#05276C"/>
</svg>
