<svg width="30" height="30" viewBox="0 0 30 30" fill="none" xmlns="http://www.w3.org/2000/svg">
<g clip-path="url(#clip0_499_6364)">
<path d="M11.1204 23.4764C4.94239 25.3298 4.94239 20.3874 2.47119 19.7696M19.7696 27.1832V22.4015C19.8159 21.8123 19.7363 21.22 19.5361 20.6639C19.3358 20.1079 19.0195 19.6009 18.6081 19.1765C22.4879 18.7441 26.5654 17.2737 26.5654 10.5273C26.5651 8.80222 25.9015 7.14327 24.712 5.89383C25.2753 4.38456 25.2354 2.7163 24.6008 1.23562C24.6008 1.23562 23.1428 0.80316 19.7696 3.06431C16.9376 2.29678 13.9524 2.29678 11.1204 3.06431C7.7472 0.80316 6.2892 1.23562 6.2892 1.23562C5.65456 2.7163 5.61474 4.38456 6.17799 5.89383C4.97962 7.15254 4.31535 8.82649 4.32459 10.5644C4.32459 17.2614 8.40207 18.7317 12.2819 19.2136C11.8753 19.6337 11.5618 20.1346 11.3617 20.6839C11.1616 21.2331 11.0794 21.8183 11.1204 22.4015V27.1832" stroke="#05276C" stroke-width="3.20588" stroke-linecap="round" stroke-linejoin="round"/>
</g>
<defs>
<clipPath id="clip0_499_6364">
<rect width="29.6544" height="29.6544" fill="white"/>
</clipPath>
</defs>
</svg>
