<svg width="33" height="33" viewBox="0 0 33 33" fill="none" xmlns="http://www.w3.org/2000/svg">
<g clip-path="url(#clip0_499_3285)">
<path d="M12.7405 26.1833C6.04144 28.193 6.04144 22.8338 3.36182 22.1639M22.1192 30.2027V25.0177C22.1695 24.3788 22.0832 23.7365 21.866 23.1336C21.6489 22.5307 21.3058 21.9809 20.8598 21.5208C25.0668 21.0518 29.4882 19.4574 29.4882 12.1421C29.4878 10.2714 28.7683 8.47258 27.4785 7.11776C28.0892 5.48118 28.046 3.67222 27.3579 2.06666C27.3579 2.06666 25.7769 1.59772 22.1192 4.04958C19.0484 3.21732 15.8114 3.21732 12.7405 4.04958C9.08282 1.59772 7.50184 2.06666 7.50184 2.06666C6.81368 3.67222 6.7705 5.48118 7.38126 7.11776C6.08181 8.48263 5.36152 10.2978 5.37154 12.1823C5.37154 19.444 9.79292 21.0384 13.9999 21.561C13.5591 22.0164 13.2192 22.5597 13.0022 23.1552C12.7852 23.7508 12.696 24.3854 12.7405 25.0177V30.2027" stroke="black" stroke-width="2.67963" stroke-linecap="round" stroke-linejoin="round"/>
</g>
<defs>
<clipPath id="clip0_499_3285">
<rect width="32.1555" height="32.1555" fill="white" transform="translate(0.682129 0.727051)"/>
</clipPath>
</defs>
</svg>
