<svg width="65" height="74" viewBox="0 0 65 74" fill="none" xmlns="http://www.w3.org/2000/svg">
<path d="M0 13.875C0 11.3168 2.07478 9.25 4.64286 9.25H60.3571C62.9252 9.25 65 11.3168 65 13.875C65 16.4332 62.9252 18.5 60.3571 18.5H4.64286C2.07478 18.5 0 16.4332 0 13.875ZM0 37C0 34.4418 2.07478 32.375 4.64286 32.375H60.3571C62.9252 32.375 65 34.4418 65 37C65 39.5582 62.9252 41.625 60.3571 41.625H4.64286C2.07478 41.625 0 39.5582 0 37ZM65 60.125C65 62.6832 62.9252 64.75 60.3571 64.75H4.64286C2.07478 64.75 0 62.6832 0 60.125C0 57.5668 2.07478 55.5 4.64286 55.5H60.3571C62.9252 55.5 65 57.5668 65 60.125Z" fill="white"/>
</svg>
