<svg width="20" height="20" viewBox="0 0 20 20" fill="none" xmlns="http://www.w3.org/2000/svg">
<path d="M13.3332 6.66663C14.6593 6.66663 15.931 7.19341 16.8687 8.13109C17.8064 9.06877 18.3332 10.3405 18.3332 11.6666V17.5H14.9998L14.9998 11.6666C14.9998 11.2246 14.8242 10.8007 14.5117 10.4881C14.1991 10.1756 13.7752 9.99996 13.3332 9.99996C12.8911 9.99996 12.4672 10.1756 12.1547 10.4881C11.8421 10.8007 11.6665 11.2246 11.6665 11.6666L11.6665 17.5H8.33317V11.6666C8.33317 10.3405 8.85995 9.06877 9.79764 8.13109C10.7353 7.19341 12.0071 6.66663 13.3332 6.66663Z" stroke="#9B1D20" stroke-width="2" stroke-linecap="round" stroke-linejoin="round"/>
<path d="M4.99984 7.49996H1.6665L1.6665 17.5H4.99984L4.99984 7.49996Z" stroke="#9B1D20" stroke-width="2" stroke-linecap="round" stroke-linejoin="round"/>
<path d="M3.33317 4.99996C4.25365 4.99996 4.99984 4.25377 4.99984 3.33329C4.99984 2.41282 4.25365 1.66663 3.33317 1.66663C2.4127 1.66663 1.6665 2.41282 1.6665 3.33329C1.6665 4.25377 2.4127 4.99996 3.33317 4.99996Z" stroke="#9B1D20" stroke-width="2" stroke-linecap="round" stroke-linejoin="round"/>
</svg>
