<svg width="33" height="33" viewBox="0 0 33 33" fill="none" xmlns="http://www.w3.org/2000/svg">
<path d="M22.1719 10.7166C24.304 10.7166 26.3487 11.5636 27.8563 13.0712C29.3639 14.5787 30.2108 16.6235 30.2108 18.7555V28.1342H24.8516V18.7555C24.8516 18.0448 24.5693 17.3632 24.0667 16.8607C23.5642 16.3582 22.8826 16.0759 22.1719 16.0759C21.4613 16.0759 20.7797 16.3582 20.2772 16.8607C19.7746 17.3632 19.4923 18.0448 19.4923 18.7555V28.1342H14.1331V18.7555C14.1331 16.6235 14.98 14.5787 16.4876 13.0712C17.9952 11.5636 20.0399 10.7166 22.1719 10.7166Z" stroke="black" stroke-width="2.05552" stroke-linecap="round" stroke-linejoin="round"/>
<path d="M8.77381 12.0564H3.41455V28.1342H8.77381V12.0564Z" stroke="black" stroke-width="2.05552" stroke-linecap="round" stroke-linejoin="round"/>
<path d="M6.09418 8.03699C7.5741 8.03699 8.77381 6.83728 8.77381 5.35736C8.77381 3.87744 7.5741 2.67773 6.09418 2.67773C4.61426 2.67773 3.41455 3.87744 3.41455 5.35736C3.41455 6.83728 4.61426 8.03699 6.09418 8.03699Z" stroke="black" stroke-width="2.05552" stroke-linecap="round" stroke-linejoin="round"/>
</svg>
