<svg width="30" height="30" viewBox="0 0 30 30" fill="none" xmlns="http://www.w3.org/2000/svg">
<path d="M19.7696 9.88479C21.7358 9.88479 23.6215 10.6659 25.0118 12.0562C26.4021 13.4465 27.1832 15.3322 27.1832 17.2984V25.9476H22.2408V17.2984C22.2408 16.643 21.9804 16.0144 21.517 15.551C21.0536 15.0876 20.425 14.8272 19.7696 14.8272C19.1142 14.8272 18.4856 15.0876 18.0222 15.551C17.5588 16.0144 17.2984 16.643 17.2984 17.2984V25.9476H12.356L12.356 17.2984C12.356 15.3322 13.1371 13.4465 14.5274 12.0562C15.9177 10.6659 17.8034 9.88479 19.7696 9.88479Z" stroke="#05276C" stroke-width="3.20588" stroke-linecap="round" stroke-linejoin="round"/>
<path d="M7.41359 11.1204H2.47119L2.47119 25.9476H7.41359L7.41359 11.1204Z" stroke="#05276C" stroke-width="3.20588" stroke-linecap="round" stroke-linejoin="round"/>
<path d="M4.94239 7.41359C6.3072 7.41359 7.41359 6.3072 7.41359 4.94239C7.41359 3.57759 6.3072 2.47119 4.94239 2.47119C3.57759 2.47119 2.47119 3.57759 2.47119 4.94239C2.47119 6.3072 3.57759 7.41359 4.94239 7.41359Z" stroke="#05276C" stroke-width="3.20588" stroke-linecap="round" stroke-linejoin="round"/>
</svg>
