<svg width="57" height="53" viewBox="0 0 57 53" fill="none" xmlns="http://www.w3.org/2000/svg">
<g clip-path="url(#clip0_499_6365)">
<path d="M0.461426 26.9102V52.8619H56.2577V0.958435H0.461426V26.9102ZM45.4262 24.8427C46.8444 25.1714 47.9231 25.7575 48.9158 26.7134C49.4296 27.2238 50.1922 28.1537 50.2526 28.3786C50.2712 28.4435 47.8441 29.9574 46.3748 30.8073C46.3213 30.8397 46.1074 30.6256 45.8703 30.2969C45.1496 29.3237 44.3987 28.9041 43.2479 28.8306C41.5554 28.7225 40.4674 29.5465 40.4767 30.9219C40.4612 31.2601 40.5431 31.5961 40.7138 31.8951C41.0858 32.6109 41.7786 33.0413 43.9453 33.9128C47.9417 35.5132 49.6505 36.5664 50.7129 38.0651C51.8986 39.7368 52.166 42.4077 51.3592 44.393C50.4758 46.5513 48.2788 48.0176 45.1868 48.502C44.2313 48.6599 41.9646 48.6361 40.937 48.4631C38.6958 48.0911 36.5709 47.0617 35.2597 45.7101C34.7459 45.1846 33.7439 43.8069 33.8067 43.7096C33.8322 43.675 34.0624 43.5431 34.3181 43.4047C34.5692 43.2728 35.5061 42.7689 36.3919 42.2909L37.996 41.4259L38.3331 41.8887C38.8028 42.5548 39.828 43.4696 40.4488 43.7745C42.2296 44.6482 44.673 44.5249 45.8773 43.5193C46.1194 43.3296 46.3111 43.0903 46.4374 42.8201C46.5636 42.55 46.621 42.2564 46.6049 41.9622C46.6049 41.361 46.5236 41.0972 46.1865 40.643C45.754 40.0677 44.8683 39.5833 42.3528 38.5669C39.4746 37.4142 38.2355 36.6983 37.101 35.5608C36.3929 34.8101 35.8699 33.9243 35.5689 32.9656C35.3573 32.2325 35.3039 30.3942 35.4713 29.6546C36.0641 27.0659 38.1634 25.2644 41.1927 24.7281C42.1761 24.5551 44.4614 24.6199 45.4262 24.8427ZM32.3281 27.0097L32.3467 29.1356H25.0815V48.3312H19.9436V29.1356H12.6855V27.0508C12.6855 25.8959 12.711 24.9314 12.7459 24.9097C12.7738 24.8751 17.1933 24.8578 22.5498 24.8665L32.3025 24.8924L32.3281 27.0097Z" fill="black"/>
</g>
<defs>
<clipPath id="clip0_499_6365">
<rect width="55.7963" height="51.9035" fill="white" transform="translate(0.461914 0.958374)"/>
</clipPath>
</defs>
</svg>
